<svg width="225" height="224" version="1.1" xmlns="http://www.w3.org/2000/svg" desc="Created with imagetracer.js version 1.2.6" ><path fill="rgb(71,118,231)" stroke="rgb(71,118,231)" stroke-width="1" opacity="1" d="M 215.5 7 L 217.5 10 L 215.5 7 Z " /><path fill="rgb(71,118,231)" stroke="rgb(71,118,231)" stroke-width="1" opacity="1" d="M 224.5 26 L 225 197.5 L 224 197.5 L 224.5 26 Z " /><path fill="rgb(71,118,231)" stroke="rgb(71,118,231)" stroke-width="1" opacity="1" d="M 82.5 65 L 83.5 67 L 82.5 65 Z " /><path fill="rgb(71,118,231)" stroke="rgb(71,118,231)" stroke-width="1" opacity="1" d="M 217.5 214 L 215.5 217 L 217.5 214 Z " /><path fill="rgb(38,99,229)" stroke="rgb(38,99,229)" stroke-width="1" opacity="1" d="M 20.5 1 L 25 1.5 L 18.5 3 L 18.5 2 L 20.5 1 Z " /><path fill="rgb(38,99,229)" stroke="rgb(38,99,229)" stroke-width="1" opacity="1" d="M 200.5 1 L 204 1.5 L 200.5 2 L 200.5 1 Z " /><path fill="rgb(38,99,229)" stroke="rgb(38,99,229)" stroke-width="1" opacity="1" d="M 15.5 3 L 17 3.5 L 14.5 5 L 15.5 3 Z " /><path fill="rgb(38,99,229)" stroke="rgb(38,99,229)" stroke-width="1" opacity="1" d="M 208.5 3 Q 216 6 220 12.5 L 221 14.5 L 219 13.5 L 212.5 6 Q 207.8 5.2 208.5 3 Z " /><path fill="rgb(38,99,229)" stroke="rgb(38,99,229)" stroke-width="1" opacity="1" d="M 12.5 5 L 5.5 13 L 12.5 5 Z " /><path fill="rgb(38,99,229)" stroke="rgb(38,99,229)" stroke-width="1" opacity="1" d="M 4.5 14 L 4 15.5 L 3.5 17 L 3 15.5 L 4.5 14 Z " /><path fill="rgb(38,99,229)" stroke="rgb(38,99,229)" stroke-width="1" opacity="1" d="M 1.5 21 L 2 24.5 L 1 24.5 L 1.5 21 Z " /><path fill="rgb(38,99,229)" stroke="rgb(38,99,229)" stroke-width="1" opacity="1" d="M 223.5 21 L 224 25.5 L 223 25.5 L 223.5 21 Z " /><path fill="rgb(38,99,229)" stroke="rgb(38,99,229)" stroke-width="1" opacity="1" d="M 81.5 47 L 89 52.5 L 86.5 51 L 81.5 48 L 81 63.5 L 84 67.5 L 81 65.5 L 80 63.5 L 80 48.5 L 81.5 47 Z " /><path fill="rgb(38,99,229)" stroke="rgb(38,99,229)" stroke-width="1" opacity="1" d="M 90.5 53 L 99 59.5 L 96.5 58 Q 91.5 56.5 90.5 53 Z " /><path fill="rgb(38,99,229)" stroke="rgb(38,99,229)" stroke-width="1" opacity="1" d="M 100.5 60 L 101.5 62 L 100.5 60 Z " /><path fill="rgb(38,99,229)" stroke="rgb(38,99,229)" stroke-width="1" opacity="1" d="M 103.5 62 L 112 68.5 L 109.5 67 Q 104.5 65.5 103.5 62 Z " /><path fill="rgb(38,99,229)" stroke="rgb(38,99,229)" stroke-width="1" opacity="1" d="M 85.5 68 L 94 74.5 L 91.5 73 Q 86.5 71.5 85.5 68 Z " /><path fill="rgb(38,99,229)" stroke="rgb(38,99,229)" stroke-width="1" opacity="1" d="M 113.5 69 L 122 75.5 L 119.5 74 Q 114.5 72.5 113.5 69 Z " /><path fill="rgb(38,99,229)" stroke="rgb(38,99,229)" stroke-width="1" opacity="1" d="M 95.5 75 L 107 83.5 L 104.5 82 Q 97.4 79.7 95.5 75 Z " /><path fill="rgb(38,99,229)" stroke="rgb(38,99,229)" stroke-width="1" opacity="1" d="M 123.5 76 L 124.5 78 L 123.5 76 Z " /><path fill="rgb(38,99,229)" stroke="rgb(38,99,229)" stroke-width="1" opacity="1" d="M 126.5 78 L 135 84.5 L 132.5 83 Q 127.5 81.5 126.5 78 Z " /><path fill="rgb(38,99,229)" stroke="rgb(38,99,229)" stroke-width="1" opacity="1" d="M 83.5 82 Q 89.7 81.3 91 85.5 L 88.5 84 L 83.5 83 L 81.5 84 L 81.5 83 L 83.5 82 Z " /><path fill="rgb(38,99,229)" stroke="rgb(38,99,229)" stroke-width="1" opacity="1" d="M 108.5 84 L 117 90.5 L 114.5 89 Q 109.5 87.5 108.5 84 Z " /><path fill="rgb(38,99,229)" stroke="rgb(38,99,229)" stroke-width="1" opacity="1" d="M 136.5 85 L 145 91.5 L 142.5 90 Q 137.5 88.5 136.5 85 Z " /><path fill="rgb(38,99,229)" stroke="rgb(38,99,229)" stroke-width="1" opacity="1" d="M 92.5 86 L 93.5 88 L 92.5 86 Z " /><path fill="rgb(38,99,229)" stroke="rgb(38,99,229)" stroke-width="1" opacity="1" d="M 79.5 87 L 80 95.5 L 82 97.5 L 79 95.5 L 79.5 87 Z " /><path fill="rgb(38,99,229)" stroke="rgb(38,99,229)" stroke-width="1" opacity="1" d="M 95.5 88 L 96.5 90 L 95.5 88 Z " /><path fill="rgb(38,99,229)" stroke="rgb(38,99,229)" stroke-width="1" opacity="1" d="M 98.5 90 L 110 98.5 L 107.5 97 Q 100.4 94.7 98.5 90 Z " /><path fill="rgb(38,99,229)" stroke="rgb(38,99,229)" stroke-width="1" opacity="1" d="M 118.5 91 L 119.5 93 L 118.5 91 Z " /><path fill="rgb(38,99,229)" stroke="rgb(38,99,229)" stroke-width="1" opacity="1" d="M 146.5 92 L 147.5 94 L 146.5 92 Z " /><path fill="rgb(38,99,229)" stroke="rgb(38,99,229)" stroke-width="1" opacity="1" d="M 121.5 93 L 130 99.5 L 127.5 98 Q 122.5 96.5 121.5 93 Z " /><path fill="rgb(38,99,229)" stroke="rgb(38,99,229)" stroke-width="1" opacity="1" d="M 149.5 94 L 158 100.5 L 155.5 99 Q 150.5 97.5 149.5 94 Z " /><path fill="rgb(38,99,229)" stroke="rgb(38,99,229)" stroke-width="1" opacity="1" d="M 83.5 98 L 95 106.5 L 92.5 105 Q 85.4 102.7 83.5 98 Z " /><path fill="rgb(38,99,229)" stroke="rgb(38,99,229)" stroke-width="1" opacity="1" d="M 111.5 99 L 112.5 101 L 111.5 99 Z " /><path fill="rgb(38,99,229)" stroke="rgb(38,99,229)" stroke-width="1" opacity="1" d="M 131.5 100 L 143 108.5 L 140.5 107 Q 133.4 104.7 131.5 100 Z " /><path fill="rgb(38,99,229)" stroke="rgb(38,99,229)" stroke-width="1" opacity="1" d="M 114.5 101 L 123 107.5 L 120.5 106 Q 115.5 104.5 114.5 101 Z " /><path fill="rgb(38,99,229)" stroke="rgb(38,99,229)" stroke-width="1" opacity="1" d="M 159.5 101 Q 166.3 103.7 166 113.5 L 165 113.5 L 165 108.5 L 159.5 101 Z " /><path fill="rgb(38,99,229)" stroke="rgb(38,99,229)" stroke-width="1" opacity="1" d="M 96.5 107 L 113 117.5 L 110.5 118 L 98.5 110 L 96.5 107 Z " /><path fill="rgb(38,99,229)" stroke="rgb(38,99,229)" stroke-width="1" opacity="1" d="M 124.5 108 L 125.5 110 L 124.5 108 Z " /><path fill="rgb(38,99,229)" stroke="rgb(38,99,229)" stroke-width="1" opacity="1" d="M 144.5 109 L 148 111.5 L 137.5 119 L 139.5 116 L 146 111.5 L 144.5 109 Z " /><path fill="rgb(38,99,229)" stroke="rgb(38,99,229)" stroke-width="1" opacity="1" d="M 125.5 112 L 124.5 114 L 125.5 112 Z " /><path fill="rgb(38,99,229)" stroke="rgb(38,99,229)" stroke-width="1" opacity="1" d="M 122.5 114 L 121.5 116 L 122.5 114 Z " /><path fill="rgb(38,99,229)" stroke="rgb(38,99,229)" stroke-width="1" opacity="1" d="M 164.5 115 L 165 116.5 L 155.5 125 L 157.5 122 L 164 116.5 L 164.5 115 Z " /><path fill="rgb(38,99,229)" stroke="rgb(38,99,229)" stroke-width="1" opacity="1" d="M 119.5 116 L 118.5 118 L 114.5 119 L 114.5 118 L 119.5 116 Z " /><path fill="rgb(38,99,229)" stroke="rgb(38,99,229)" stroke-width="1" opacity="1" d="M 135.5 119 L 134.5 121 L 135.5 119 Z " /><path fill="rgb(38,99,229)" stroke="rgb(38,99,229)" stroke-width="1" opacity="1" d="M 132.5 121 L 130.5 124 L 121.5 130 L 123.5 127 L 132.5 121 Z " /><path fill="rgb(38,99,229)" stroke="rgb(38,99,229)" stroke-width="1" opacity="1" d="M 153.5 125 L 151.5 128 L 148.5 130 L 150.5 127 L 153.5 125 Z " /><path fill="rgb(38,99,229)" stroke="rgb(38,99,229)" stroke-width="1" opacity="1" d="M 119.5 130 L 117.5 133 L 108.5 139 L 110.5 136 L 119.5 130 Z " /><path fill="rgb(38,99,229)" stroke="rgb(38,99,229)" stroke-width="1" opacity="1" d="M 146.5 130 L 144.5 133 L 141.5 135 L 143.5 132 L 146.5 130 Z " /><path fill="rgb(38,99,229)" stroke="rgb(38,99,229)" stroke-width="1" opacity="1" d="M 139.5 135 L 137.5 138 L 134.5 140 L 136.5 137 L 139.5 135 Z " /><path fill="rgb(38,99,229)" stroke="rgb(38,99,229)" stroke-width="1" opacity="1" d="M 106.5 139 L 105.5 141 L 106.5 139 Z " /><path fill="rgb(38,99,229)" stroke="rgb(38,99,229)" stroke-width="1" opacity="1" d="M 132.5 140 L 130.5 143 L 127.5 145 L 129.5 142 L 132.5 140 Z " /><path fill="rgb(38,99,229)" stroke="rgb(38,99,229)" stroke-width="1" opacity="1" d="M 103.5 141 L 101.5 144 L 92.5 150 L 94.5 147 L 103.5 141 Z " /><path fill="rgb(38,99,229)" stroke="rgb(38,99,229)" stroke-width="1" opacity="1" d="M 125.5 145 L 123.5 148 L 89.5 172 L 91.5 169 L 125.5 145 Z " /><path fill="rgb(38,99,229)" stroke="rgb(38,99,229)" stroke-width="1" opacity="1" d="M 90.5 150 L 89.5 152 L 90.5 150 Z " /><path fill="rgb(38,99,229)" stroke="rgb(38,99,229)" stroke-width="1" opacity="1" d="M 87.5 152 L 86.5 154 L 87.5 152 Z " /><path fill="rgb(38,99,229)" stroke="rgb(38,99,229)" stroke-width="1" opacity="1" d="M 84.5 154 L 82 157.5 L 81 159.5 L 81 176 L 87.5 172 L 85.5 175 L 81.5 177 L 80 175.5 L 80 159.5 L 84.5 154 Z " /><path fill="rgb(38,99,229)" stroke="rgb(38,99,229)" stroke-width="1" opacity="1" d="M 223.5 198 L 224 202.5 L 223 202.5 L 223.5 198 Z " /><path fill="rgb(38,99,229)" stroke="rgb(38,99,229)" stroke-width="1" opacity="1" d="M 1.5 199 L 2 202.5 L 1 202.5 L 1.5 199 Z " /><path fill="rgb(38,99,229)" stroke="rgb(38,99,229)" stroke-width="1" opacity="1" d="M 3.5 207 L 5 209.5 L 3 208.5 L 3.5 207 Z " /><path fill="rgb(38,99,229)" stroke="rgb(38,99,229)" stroke-width="1" opacity="1" d="M 220.5 209 L 220 210.5 L 212.5 219 L 208.5 221 L 208.5 220 L 219 211.5 L 220.5 209 Z " /><path fill="rgb(38,99,229)" stroke="rgb(38,99,229)" stroke-width="1" opacity="1" d="M 5.5 211 L 12.5 219 L 5.5 211 Z " /><path fill="rgb(38,99,229)" stroke="rgb(38,99,229)" stroke-width="1" opacity="1" d="M 14.5 219 L 17 220.5 L 15.5 221 L 14.5 219 Z " /><path fill="rgb(38,99,229)" stroke="rgb(38,99,229)" stroke-width="1" opacity="1" d="M 18.5 221 L 25 222.5 L 20.5 223 L 18.5 221 Z " /><path fill="rgb(38,99,229)" stroke="rgb(38,99,229)" stroke-width="1" opacity="1" d="M 200.5 222 L 204 222.5 L 200.5 223 L 200.5 222 Z " /><path fill="rgb(53,106,230)" stroke="rgb(53,106,230)" stroke-width="1" opacity="1" d="M 26.5 0 L 197.5 0 Q 198.9 2.6 203.5 2 L 205 1.5 Q 204.2 4.1 207.5 3 L 219 12.5 L 220.5 15 L 222 15.5 L 222 17.5 L 224 26.5 L 224 197.5 L 221 207.5 L 221.5 209 L 219 210.5 L 212.5 218 L 205 221 L 204.5 223 L 200.5 222 L 197.5 224 L 26.5 224 L 24.5 222 L 18.5 221 L 17 221.5 Q 17.8 219.3 15.5 220 L 9.5 215 L 8 215.5 L 9 214.5 L 5 210.5 L 4 207 L 2 206.5 L 3 204 L 1 203.5 L 2 199.5 L 1 198.5 L 1 25.5 L 2 21.5 L 1.5 20 Q 3.8 20.8 3 18.5 L 2.5 17 Q 4.8 17.8 4 15.5 L 9 9.5 L 8.5 8 L 9.5 9 L 13.5 5 L 17 4 L 17.5 2 L 19.5 3 L 24.5 2 L 26.5 0 Z M 82 47 L 80 49 L 80 64 L 81 66 L 92 73 Q 93 77 95 74 L 95 76 L 115 89 Q 116 92 118 90 L 118 92 L 128 98 Q 129 101 131 99 L 131 101 L 147 113 L 146 112 L 136 119 L 134 122 L 133 121 L 124 127 L 121 131 L 120 130 L 107 139 L 105 142 L 104 141 L 91 150 L 89 153 L 88 152 L 86 155 L 85 154 L 80 160 L 80 176 L 82 177 L 124 148 L 126 145 L 128 145 L 131 143 L 133 140 L 135 140 L 138 138 L 140 135 L 142 135 L 145 133 L 147 130 L 149 130 L 152 128 L 154 125 L 156 125 L 159 123 Q 164 120 166 114 L 165 107 L 152 96 Q 150 92 149 95 L 148 94 L 129 80 Q 127 76 126 79 L 125 78 L 106 64 Q 104 60 103 63 L 102 62 L 93 55 Q 91 51 90 54 L 89 53 L 82 47 Z M 84 82 L 81 83 Q 78 87 79 96 L 111 118 L 115 119 L 122 116 L 123 114 L 125 114 L 127 111 L 117 103 Q 115 99 114 102 L 113 101 L 101 92 Q 99 88 98 91 L 97 90 L 89 83 L 84 82 Z " /><path fill="rgb(65,114,231)" stroke="rgb(65,114,231)" stroke-width="1" opacity="1" d="M 0.5 27 L 1 196.5 L 0 196.5 L 0.5 27 Z " /><path fill="rgb(218,226,249)" stroke="rgb(218,226,249)" stroke-width="1" opacity="1" d="M 160.5 103 L 162.5 106 L 160.5 103 Z " /><path fill="rgb(218,226,249)" stroke="rgb(218,226,249)" stroke-width="1" opacity="1" d="M 147.5 110 Q 150.5 111.5 147.5 113 L 147.5 110 Z " /><path fill="rgb(218,226,249)" stroke="rgb(218,226,249)" stroke-width="1" opacity="1" d="M 162.5 117 L 160.5 120 L 162.5 117 Z " /><path fill="rgb(218,226,249)" stroke="rgb(218,226,249)" stroke-width="1" opacity="1" d="M 122.5 146 L 121.5 148 L 122.5 146 Z " /><path fill="rgb(218,226,249)" stroke="rgb(218,226,249)" stroke-width="1" opacity="1" d="M 115.5 151 L 114.5 153 L 115.5 151 Z " /><path fill="rgb(218,226,249)" stroke="rgb(218,226,249)" stroke-width="1" opacity="1" d="M 81.5 161 L 82 175.5 L 81 175.5 L 81.5 161 Z " /><path fill="rgb(255,255,255)" stroke="rgb(255,255,255)" stroke-width="1" opacity="1" d="M 0 0 L 21 0.5 Q 9.5 3.5 4 12.5 L 0.5 21 L 0 0 Z " /><path fill="rgb(255,255,255)" stroke="rgb(255,255,255)" stroke-width="1" opacity="1" d="M 204.5 0 L 225 0 L 225 21.5 L 224 21.5 Q 221.9 9.1 212.5 4 L 204.5 1 L 204.5 0 Z " /><path fill="rgb(255,255,255)" stroke="rgb(255,255,255)" stroke-width="1" opacity="1" d="M 81 49 L 151.5 97 L 164 107.5 L 164 114.5 L 157.5 122 L 82.5 175 L 82 158.5 L 149 111.5 L 82 64.5 L 81 61.5 L 81 49 Z " /><path fill="rgb(255,255,255)" stroke="rgb(255,255,255)" stroke-width="1" opacity="1" d="M 82 84 L 88.5 85 L 125 110.5 L 123.5 113 L 116.5 117 L 112.5 117 L 81 95.5 Q 79.9 87.3 82 84 Z " /><path fill="rgb(255,255,255)" stroke="rgb(255,255,255)" stroke-width="1" opacity="1" d="M 224.5 202 L 225 224 L 204 223.5 Q 215.5 220.5 221 211.5 L 224.5 202 Z " /><path fill="rgb(255,255,255)" stroke="rgb(255,255,255)" stroke-width="1" opacity="1" d="M 0.5 203 Q 3.5 214.5 12.5 220 L 21 223.5 L 0 224 L 0.5 203 Z " /><path fill="rgb(133,160,238)" stroke="rgb(133,160,238)" stroke-width="1" opacity="1" d="M 213.5 5 L 214.5 7 L 213.5 5 Z " /><path fill="rgb(133,160,238)" stroke="rgb(133,160,238)" stroke-width="1" opacity="1" d="M 218.5 10 L 219.5 12 L 218.5 10 Z " /><path fill="rgb(133,160,238)" stroke="rgb(133,160,238)" stroke-width="1" opacity="1" d="M 224.5 23 L 225 25.5 L 224 25.5 L 224.5 23 Z " /><path fill="rgb(133,160,238)" stroke="rgb(133,160,238)" stroke-width="1" opacity="1" d="M 80.5 87 L 81 95.5 L 82 96.5 L 80 95.5 L 80.5 87 Z " /><path fill="rgb(133,160,238)" stroke="rgb(133,160,238)" stroke-width="1" opacity="1" d="M 164.5 109 L 165 113.5 L 164 113.5 L 164.5 109 Z " /><path fill="rgb(133,160,238)" stroke="rgb(133,160,238)" stroke-width="1" opacity="1" d="M 84.5 155 L 82.5 158 L 84.5 155 Z " /><path fill="rgb(133,160,238)" stroke="rgb(133,160,238)" stroke-width="1" opacity="1" d="M 107.5 157 L 106.5 159 L 107.5 157 Z " /><path fill="rgb(133,160,238)" stroke="rgb(133,160,238)" stroke-width="1" opacity="1" d="M 100.5 162 L 99.5 164 L 100.5 162 Z " /><path fill="rgb(133,160,238)" stroke="rgb(133,160,238)" stroke-width="1" opacity="1" d="M 224.5 198 L 225 200.5 L 224 200.5 L 224.5 198 Z " /><path fill="rgb(133,160,238)" stroke="rgb(133,160,238)" stroke-width="1" opacity="1" d="M 219.5 212 L 218.5 214 L 219.5 212 Z " /><path fill="rgb(133,160,238)" stroke="rgb(133,160,238)" stroke-width="1" opacity="1" d="M 214.5 217 L 213.5 219 L 214.5 217 Z " /></svg>