<svg width="275" height="183" version="1.1" xmlns="http://www.w3.org/2000/svg" desc="Created with imagetracer.js version 1.2.6" ><path fill="rgb(237,234,224)" stroke="rgb(237,234,224)" stroke-width="1" opacity="1" d="M 195.5 60 L 196 62.5 L 195 62.5 L 195.5 60 Z " /><path fill="rgb(237,234,224)" stroke="rgb(237,234,224)" stroke-width="1" opacity="1" d="M 74.5 70 L 77 70.5 L 74.5 71 L 74.5 70 Z " /><path fill="rgb(237,234,224)" stroke="rgb(237,234,224)" stroke-width="1" opacity="1" d="M 201.5 70 L 202.5 72 L 201.5 70 Z " /><path fill="rgb(237,234,224)" stroke="rgb(237,234,224)" stroke-width="1" opacity="1" d="M 71.5 73 L 72 119.5 L 71 119.5 L 71.5 73 Z " /><path fill="rgb(237,234,224)" stroke="rgb(237,234,224)" stroke-width="1" opacity="1" d="M 134.5 85 L 141 85.5 L 134.5 86 L 134.5 85 Z " /><path fill="rgb(237,234,224)" stroke="rgb(237,234,224)" stroke-width="1" opacity="1" d="M 129.5 91 L 130.5 93 L 129.5 91 Z " /><path fill="rgb(237,234,224)" stroke="rgb(237,234,224)" stroke-width="1" opacity="1" d="M 72.5 121 L 73.5 123 L 72.5 121 Z " /><path fill="rgb(255,255,255)" stroke="rgb(255,255,255)" stroke-width="1" opacity="1" d="M 0 0 L 275 0 L 275 183 L 0 183 L 0 0 Z M 133 37 L 82 58 Q 79 59 79 63 L 86 67 L 135 86 L 141 86 L 147 84 L 194 65 Q 197 64 196 61 L 192 57 L 146 38 Q 141 36 133 37 Z M 75 70 L 72 71 L 71 74 L 71 120 L 74 123 L 82 121 L 129 98 Q 132 97 131 93 L 75 70 Z M 199 70 L 145 91 L 142 94 L 142 146 L 144 147 L 150 146 L 202 125 L 203 125 L 203 72 Q 202 69 199 70 Z " /><path fill="rgb(224,67,83)" stroke="rgb(224,67,83)" stroke-width="1" opacity="1" d="M 73.5 71 L 77.5 71 L 93.5 77 L 128.5 91 L 131 93.5 Q 131.5 97.5 128.5 98 L 74.5 123 L 72 120.5 L 72 72.5 L 73.5 71 Z " /><path fill="rgb(255,210,1)" stroke="rgb(255,210,1)" stroke-width="1" opacity="1" d="M 133.5 37 L 144.5 38 L 195 59 Q 196.3 63.6 193.5 65 L 142.5 85 L 132.5 85 L 80 63.5 L 79 61.5 L 80 59 L 133.5 37 Z " /><path fill="rgb(54,204,244)" stroke="rgb(54,204,244)" stroke-width="1" opacity="1" d="M 199.5 70 L 203 72.5 L 203 123.5 L 200.5 126 L 144.5 147 L 142 146 L 142 93.5 L 143.5 92 L 199.5 70 Z " /></svg>