<svg width="225" height="225" version="1.1" xmlns="http://www.w3.org/2000/svg" desc="Created with imagetracer.js version 1.2.6" ><path fill="rgb(240,239,234)" stroke="rgb(240,239,234)" stroke-width="1" opacity="1" d="M 0 0 L 225 0 L 225 225 L 0 225 L 0 0 Z M 87 70 L 83 76 L 52 154 L 53 155 L 72 155 L 78 138 L 80 138 L 81 137 L 113 137 L 119 153 L 120 155 L 139 155 L 106 72 L 106 70 L 87 70 Z M 121 70 L 153 154 L 155 155 L 173 155 L 140 72 L 139 70 L 121 70 Z " /><path fill="rgb(240,239,234)" stroke="rgb(240,239,234)" stroke-width="1" opacity="1" d="M 95.5 93 L 106 121 L 85.5 121 L 85 119.5 L 95.5 93 Z " /><path fill="rgb(94,94,92)" stroke="rgb(94,94,92)" stroke-width="1" opacity="1" d="M 86.5 70 L 104.5 70 L 106 71.5 L 105.5 73 L 105 71 L 86.5 71 L 86.5 70 Z " /><path fill="rgb(94,94,92)" stroke="rgb(94,94,92)" stroke-width="1" opacity="1" d="M 121.5 70 L 139 70.5 L 121.5 71 L 121.5 70 Z " /><path fill="rgb(94,94,92)" stroke="rgb(94,94,92)" stroke-width="1" opacity="1" d="M 84.5 121 L 107 121.5 L 84.5 122 L 84.5 121 Z " /><path fill="rgb(94,94,92)" stroke="rgb(94,94,92)" stroke-width="1" opacity="1" d="M 78.5 136 L 112.5 136 L 114 137.5 L 112.5 137 L 78.5 137 L 77.5 138 L 78.5 136 Z " /><path fill="rgb(94,94,92)" stroke="rgb(94,94,92)" stroke-width="1" opacity="1" d="M 71.5 153 L 70.5 155 L 53 154.5 L 70.5 154 L 71.5 153 Z " /><path fill="rgb(94,94,92)" stroke="rgb(94,94,92)" stroke-width="1" opacity="1" d="M 120.5 154 L 138 154.5 L 120.5 155 L 120.5 154 Z " /><path fill="rgb(94,94,92)" stroke="rgb(94,94,92)" stroke-width="1" opacity="1" d="M 154.5 154 L 172 154.5 L 154.5 155 L 154.5 154 Z " /><path fill="rgb(19,20,18)" stroke="rgb(19,20,18)" stroke-width="1" opacity="1" d="M 85.5 72 L 104.5 72 L 105 75 L 106.5 75 L 107 77.5 L 108.5 83 L 110 82.5 L 109 85 L 111 85.5 L 111 87.5 L 112.5 93 L 114 92.5 L 113 95 L 115 95.5 L 114.5 97 L 116 97.5 L 115 99.5 L 116 102 L 118 102.5 L 117 104.5 L 121 110.5 L 121 112.5 L 123 120 L 125 120.5 L 125 122.5 L 127 130 L 129 130.5 L 128.5 132 L 130 132.5 L 130 134.5 L 131 140 L 133 140.5 L 132.5 142 L 134 142.5 L 133 144.5 L 134 147 L 136 147.5 L 135 150 L 137 150.5 L 136 153 L 121.5 153 L 120 151.5 Q 120.8 149.3 118.5 150 L 118.5 148 L 117 147.5 L 118 145 L 116 144.5 L 117 142 L 115 141.5 L 116 139.5 L 112.5 135 L 78.5 135 L 76 137.5 L 75 141.5 L 75.5 143 L 74 143.5 L 74.5 145 Q 71.9 144.2 73 147.5 L 71 153 L 55.5 153 L 55 150.5 L 55.5 148 Q 58.1 148.8 57 145.5 L 60 138.5 L 59.5 137 L 61 137.5 L 60 135.5 L 62 135.5 L 64 128.5 L 63.5 127 L 65 126.5 L 64.5 125 L 66 125.5 L 67 121.5 L 66.5 120 Q 68.8 120.8 68 118.5 L 71 111.5 L 70.5 110 Q 72.8 110.8 72 108.5 L 74 103.5 L 73.5 102 L 75 101.5 L 74.5 100 Q 76.8 100.8 76 98.5 L 78 93.5 L 77.5 92 L 79 92.5 L 78 90.5 L 80 90 L 83 81.5 L 82.5 80 Q 84.8 80.8 84 78.5 L 86 73.5 L 85.5 72 Z M 96 91 Q 93 92 95 94 L 93 94 L 92 97 L 93 99 L 91 99 L 89 105 L 90 107 L 89 107 L 89 109 L 88 108 L 83 120 L 84 123 L 107 123 L 108 122 Q 109 118 107 119 L 107 118 L 104 111 Q 105 108 103 109 L 103 108 Q 104 105 102 106 L 102 105 L 101 104 L 101 103 L 99 98 Q 100 95 98 96 L 98 95 Q 99 92 96 93 L 96 91 Z " /><path fill="rgb(19,20,18)" stroke="rgb(19,20,18)" stroke-width="1" opacity="1" d="M 123 72 L 140 72.5 L 139 74.5 L 141.5 81 L 143 80.5 L 143 82.5 L 145 90 L 147 90.5 L 146.5 92 L 148 92.5 L 147 94.5 L 149.5 101 L 151 100.5 L 150 102.5 L 152 102.5 L 151 104.5 L 153 110 L 155 110.5 L 154 112.5 L 157 120 L 159 120.5 L 158 122.5 L 159 125 L 161 125.5 L 160.5 127 L 162 127.5 L 161 129.5 L 163.5 136 L 165 135.5 L 164 137.5 L 168.5 149 L 170 148.5 L 170 150.5 L 169.5 153 L 155.5 153 L 152.5 146 L 151 146.5 L 152 144.5 L 149 137 L 147 136.5 L 148 134.5 L 147 132 L 145 131.5 L 146 129.5 L 144 129.5 L 145 127.5 L 143 122 L 141 121.5 L 141 119.5 Q 140.4 112.1 136 108.5 L 136 106.5 L 134 99 L 132 98.5 L 132.5 97 L 131 96.5 L 132 94.5 L 129 87 L 127 86.5 L 127 84.5 Q 128.1 81.2 125.5 82 L 126 80.5 Q 126.8 78.3 124.5 79 L 124 76.5 L 123 72 Z " /><path fill="rgb(2,1,1)" stroke="rgb(2,1,1)" stroke-width="1" opacity="1" d="M 86.5 71 L 105 71.5 L 86.5 72 L 86.5 71 Z " /><path fill="rgb(2,1,1)" stroke="rgb(2,1,1)" stroke-width="1" opacity="1" d="M 121.5 71 L 139 71.5 L 123 72 L 124 75.5 L 123 75.5 L 121.5 71 Z " /><path fill="rgb(2,1,1)" stroke="rgb(2,1,1)" stroke-width="1" opacity="1" d="M 85.5 73 L 86 74.5 L 83.5 80 L 83 78.5 L 85.5 73 Z " /><path fill="rgb(2,1,1)" stroke="rgb(2,1,1)" stroke-width="1" opacity="1" d="M 139.5 73 L 146 89.5 L 145 89.5 L 139.5 73 Z " /><path fill="rgb(2,1,1)" stroke="rgb(2,1,1)" stroke-width="1" opacity="1" d="M 106.5 76 L 110 84.5 L 109 84.5 L 106.5 76 Z " /><path fill="rgb(2,1,1)" stroke="rgb(2,1,1)" stroke-width="1" opacity="1" d="M 82.5 81 L 82 82.5 L 79.5 90 L 79 88.5 L 82.5 81 Z " /><path fill="rgb(2,1,1)" stroke="rgb(2,1,1)" stroke-width="1" opacity="1" d="M 110.5 86 L 112 88.5 L 111 88.5 L 110.5 86 Z " /><path fill="rgb(2,1,1)" stroke="rgb(2,1,1)" stroke-width="1" opacity="1" d="M 128.5 87 L 132 95.5 L 131 95.5 L 128.5 87 Z " /><path fill="rgb(2,1,1)" stroke="rgb(2,1,1)" stroke-width="1" opacity="1" d="M 112.5 90 L 114 94.5 L 113 94.5 L 112.5 90 Z " /><path fill="rgb(2,1,1)" stroke="rgb(2,1,1)" stroke-width="1" opacity="1" d="M 78.5 91 L 79 92.5 L 75.5 100 L 75 98.5 L 78.5 91 Z " /><path fill="rgb(2,1,1)" stroke="rgb(2,1,1)" stroke-width="1" opacity="1" d="M 95.5 91 L 94.5 93 L 95.5 91 Z " /><path fill="rgb(2,1,1)" stroke="rgb(2,1,1)" stroke-width="1" opacity="1" d="M 147.5 93 L 154 109.5 L 153 109.5 L 147.5 93 Z " /><path fill="rgb(2,1,1)" stroke="rgb(2,1,1)" stroke-width="1" opacity="1" d="M 93.5 94 L 94 95.5 L 92.5 98 L 92 96.5 L 93.5 94 Z " /><path fill="rgb(2,1,1)" stroke="rgb(2,1,1)" stroke-width="1" opacity="1" d="M 98.5 96 L 101 102.5 L 100 102.5 L 98.5 96 Z " /><path fill="rgb(2,1,1)" stroke="rgb(2,1,1)" stroke-width="1" opacity="1" d="M 115.5 98 L 117 101.5 L 116 101.5 L 115.5 98 Z " /><path fill="rgb(2,1,1)" stroke="rgb(2,1,1)" stroke-width="1" opacity="1" d="M 91.5 99 L 92 100.5 L 89.5 106 L 89 104.5 L 91.5 99 Z " /><path fill="rgb(2,1,1)" stroke="rgb(2,1,1)" stroke-width="1" opacity="1" d="M 134.5 102 L 137 107.5 L 135 106.5 L 134.5 102 Z " /><path fill="rgb(2,1,1)" stroke="rgb(2,1,1)" stroke-width="1" opacity="1" d="M 73.5 103 L 74 104.5 L 71.5 110 L 71 108.5 L 73.5 103 Z " /><path fill="rgb(2,1,1)" stroke="rgb(2,1,1)" stroke-width="1" opacity="1" d="M 117.5 103 L 120 108.5 L 118 107.5 L 117.5 103 Z " /><path fill="rgb(2,1,1)" stroke="rgb(2,1,1)" stroke-width="1" opacity="1" d="M 88.5 107 L 88 108.5 L 83.5 121 L 83 119.5 L 88.5 107 Z " /><path fill="rgb(2,1,1)" stroke="rgb(2,1,1)" stroke-width="1" opacity="1" d="M 103.5 109 L 106 115.5 L 105 115.5 L 103.5 109 Z " /><path fill="rgb(2,1,1)" stroke="rgb(2,1,1)" stroke-width="1" opacity="1" d="M 120.5 111 L 124 119.5 L 123 119.5 L 120.5 111 Z " /><path fill="rgb(2,1,1)" stroke="rgb(2,1,1)" stroke-width="1" opacity="1" d="M 154.5 111 L 158 119.5 L 157 119.5 L 154.5 111 Z " /><path fill="rgb(2,1,1)" stroke="rgb(2,1,1)" stroke-width="1" opacity="1" d="M 138.5 112 L 141 118.5 L 140 118.5 L 138.5 112 Z " /><path fill="rgb(2,1,1)" stroke="rgb(2,1,1)" stroke-width="1" opacity="1" d="M 69.5 113 L 70 114.5 L 67.5 120 L 67 118.5 L 69.5 113 Z " /><path fill="rgb(2,1,1)" stroke="rgb(2,1,1)" stroke-width="1" opacity="1" d="M 107.5 119 L 108 121.5 L 106.5 123 L 84.5 123 L 84.5 122 L 106.5 122 L 107.5 119 Z " /><path fill="rgb(2,1,1)" stroke="rgb(2,1,1)" stroke-width="1" opacity="1" d="M 66.5 121 L 67 122.5 L 64.5 127 L 65 125.5 L 66.5 121 Z " /><path fill="rgb(2,1,1)" stroke="rgb(2,1,1)" stroke-width="1" opacity="1" d="M 124.5 121 L 128 129.5 L 127 129.5 L 124.5 121 Z " /><path fill="rgb(2,1,1)" stroke="rgb(2,1,1)" stroke-width="1" opacity="1" d="M 158.5 121 L 160 124.5 L 159 124.5 L 158.5 121 Z " /><path fill="rgb(2,1,1)" stroke="rgb(2,1,1)" stroke-width="1" opacity="1" d="M 142.5 122 L 146 130.5 L 145 130.5 L 142.5 122 Z " /><path fill="rgb(2,1,1)" stroke="rgb(2,1,1)" stroke-width="1" opacity="1" d="M 63.5 128 L 64 129.5 L 57.5 145 L 57 143.5 L 63.5 128 Z " /><path fill="rgb(2,1,1)" stroke="rgb(2,1,1)" stroke-width="1" opacity="1" d="M 161.5 128 L 168 144.5 L 167 144.5 L 161.5 128 Z " /><path fill="rgb(2,1,1)" stroke="rgb(2,1,1)" stroke-width="1" opacity="1" d="M 146.5 132 L 148 135.5 L 147 135.5 L 146.5 132 Z " /><path fill="rgb(2,1,1)" stroke="rgb(2,1,1)" stroke-width="1" opacity="1" d="M 78.5 135 L 112.5 135 L 115 137.5 L 116 140.5 L 115 140.5 L 112.5 136 L 78.5 136 L 77 137.5 L 75.5 142 L 75 140.5 L 78.5 135 Z " /><path fill="rgb(2,1,1)" stroke="rgb(2,1,1)" stroke-width="1" opacity="1" d="M 130.5 135 L 132 139.5 L 131 139.5 L 130.5 135 Z " /><path fill="rgb(2,1,1)" stroke="rgb(2,1,1)" stroke-width="1" opacity="1" d="M 148.5 137 L 155.5 153 L 169.5 153 L 170 150.5 L 168 146.5 L 169 146.5 L 172 153.5 L 154 154 L 148.5 137 Z " /><path fill="rgb(2,1,1)" stroke="rgb(2,1,1)" stroke-width="1" opacity="1" d="M 133.5 143 L 135 146.5 L 134 146.5 L 133.5 143 Z " /><path fill="rgb(2,1,1)" stroke="rgb(2,1,1)" stroke-width="1" opacity="1" d="M 72.5 148 L 73 149.5 L 70.5 154 L 53 153.5 L 55.5 149 L 55 150.5 L 55.5 153 L 71 153 L 72.5 148 Z " /><path fill="rgb(2,1,1)" stroke="rgb(2,1,1)" stroke-width="1" opacity="1" d="M 119.5 150 L 121.5 153 L 135.5 153 L 136 151.5 L 137 151.5 L 138 153.5 L 120 154 L 119.5 150 Z " /></svg>