<?xml version="1.0" encoding="UTF-8"?>
<svg version="1.1" xmlns="http://www.w3.org/2000/svg" width="500" height="599">
<path d="M0 0 C0.85207031 0.46148438 1.70414063 0.92296875 2.58203125 1.3984375 C3.71439209 1.9557959 4.84675293 2.5131543 6.01342773 3.08740234 C7.32790915 3.75895407 8.64106938 4.4330961 9.953125 5.109375 C10.66330276 5.47353516 11.37348053 5.83769531 12.10517883 6.21289062 C14.41139831 7.39697175 16.71560842 8.58489453 19.01953125 9.7734375 C19.80791382 10.17927063 20.59629639 10.58510376 21.40856934 11.00323486 C30.77255818 15.8255583 40.10273703 20.69674667 49.33203125 25.7734375 C60.32908034 31.80840346 71.46057076 37.59593637 82.58203125 43.3984375 C82.58203125 65.1784375 82.58203125 86.9584375 82.58203125 109.3984375 C83.24203125 109.0684375 83.90203125 108.7384375 84.58203125 108.3984375 C85.96114914 108.16779182 87.34808969 107.98296494 88.73713684 107.82261658 C89.60773239 107.72027206 90.47832794 107.61792755 91.37530518 107.51248169 C92.33273621 107.4038681 93.29016724 107.29525452 94.27661133 107.18334961 C95.78655922 107.0075663 95.78655922 107.0075663 97.32701111 106.82823181 C100.66810362 106.44030816 104.00980366 106.05791911 107.3515625 105.67578125 C109.66846041 105.40841709 111.98532916 105.14080009 114.3021698 104.87294006 C119.1651211 104.3115636 124.02836824 103.75284405 128.8918457 103.19604492 C135.12684564 102.48207176 141.36114873 101.76221434 147.59525013 101.04044247 C152.38278365 100.48669702 157.17063597 99.93575034 161.95859337 99.38568306 C164.25719937 99.12132816 166.5557141 98.85617839 168.85413551 98.59022331 C172.06886654 98.21873314 175.28399834 97.85092963 178.49926758 97.48413086 C179.92630508 97.31817413 179.92630508 97.31817413 181.38217163 97.14886475 C182.26122665 97.04934006 183.14028168 96.94981537 184.04597473 96.84727478 C184.80569989 96.76008147 185.56542505 96.67288816 186.34817219 96.58305264 C191.30751569 96.17319246 194.18727092 96.38755087 198.5390625 98.92578125 C199.48845703 99.47169922 200.43785156 100.01761719 201.41601562 100.58007812 C202.39892578 101.15951172 203.38183594 101.73894531 204.39453125 102.3359375 C206.31746841 103.44963311 208.2406513 104.56290453 210.1640625 105.67578125 C211.10997757 106.22725327 212.05589264 106.77872528 213.0304718 107.34690857 C216.99357659 109.6459228 220.98768219 111.88896219 224.9831543 114.13110352 C225.71732323 114.54356575 226.45149216 114.95602798 227.20790863 115.38098907 C228.99906123 116.38719981 230.79051495 117.39287447 232.58203125 118.3984375 C232.97122139 159.75827403 233.27073366 201.11789915 233.45014185 242.47920432 C233.47140363 247.36325509 233.49340713 252.24730226 233.51586914 257.13134766 C233.52255806 258.58982362 233.52255806 258.58982362 233.5293821 260.07776375 C233.60333705 275.81756105 233.73736229 291.55630184 233.89362878 307.29547255 C234.05265915 323.44785214 234.14704094 339.59967883 234.18153566 355.75280917 C234.20485304 365.71930342 234.2784562 375.68281173 234.41661119 385.64838655 C234.50654437 392.48418045 234.53362001 399.31843327 234.51155467 406.15477566 C234.50067145 410.09922992 234.51721224 414.03847403 234.60852432 417.98199844 C235.11617529 441.02326458 235.11617529 441.02326458 230.92017817 446.61182451 C226.95476816 450.09437876 222.61822797 452.03795734 217.64207447 453.67026067 C214.66239091 454.72350873 212.09487323 456.32756672 209.42578125 458 C207.6458596 459.01015668 205.86465587 460.01805844 204.08203125 461.0234375 C203.18484375 461.55066406 202.28765625 462.07789063 201.36328125 462.62109375 C200.47640625 463.11738281 199.58953125 463.61367188 198.67578125 464.125 C197.90943359 464.56408691 197.14308594 465.00317383 196.35351562 465.45556641 C189.60875522 467.75016337 181.78994396 466.2266516 174.84301758 465.40454102 C173.91499832 465.29885803 172.98697906 465.19317505 172.03083801 465.08428955 C168.99132644 464.73688043 165.95270917 464.38223164 162.9140625 464.02734375 C160.78900184 463.78271545 158.66389421 463.5384948 156.53874207 463.29466248 C152.0978115 462.78408771 147.65728065 462.2702106 143.21704102 461.75366211 C137.53156352 461.09228753 131.84544028 460.43668495 126.15904713 459.7832346 C120.72298574 459.1582882 115.28726504 458.53040229 109.8515625 457.90234375 C108.81819071 457.78320681 107.78481892 457.66406986 106.72013283 457.54132271 C103.79085132 457.20308067 100.86182142 456.86274127 97.93286133 456.52172852 C96.63992157 456.37283424 96.63992157 456.37283424 95.32086182 456.22093201 C91.05118162 455.72148938 86.8163413 455.15183319 82.58203125 454.3984375 C82.60423737 455.17438263 82.62644348 455.95032776 82.64932251 456.74978638 C82.85001752 464.07632697 83.00209114 471.40152897 83.10015297 478.73010445 C83.1522665 482.49769798 83.22288186 486.26301434 83.33642578 490.02929688 C83.44540188 493.66699267 83.50493138 497.30250522 83.53080368 500.94170761 C83.5492283 502.32705961 83.58521557 503.71229679 83.63933182 505.09671402 C83.7996982 509.37077106 83.78114053 513.27666239 82.58203125 517.3984375 C79.65147379 520.41952724 76.44396887 521.83129412 72.58203125 523.3984375 C71.22571057 524.10934807 69.8760313 524.83316895 68.53540039 525.57324219 C67.23110586 526.24240619 65.92499159 526.90803375 64.6171875 527.5703125 C63.90570053 527.93437195 63.19421356 528.2984314 62.46116638 528.67352295 C60.95989969 529.44131254 59.4578598 530.20759202 57.95507812 530.97241211 C54.03676645 532.96675988 50.12433006 534.97258474 46.2109375 536.9765625 C45.44959503 537.36602051 44.68825256 537.75547852 43.90383911 538.15673828 C38.27815691 541.03601415 32.67069582 543.94787747 27.08203125 546.8984375 C26.0144458 547.45724609 26.0144458 547.45724609 24.92529297 548.02734375 C21.06135963 550.05655857 17.23971549 552.14621375 13.4375 554.2890625 C12.57382812 554.76666016 11.71015625 555.24425781 10.8203125 555.73632812 C9.16896841 556.65051019 7.52627727 557.58057612 5.89453125 558.52929688 C5.15589844 558.93470703 4.41726562 559.34011719 3.65625 559.7578125 C3.01260498 560.12358398 2.36895996 560.48935547 1.70581055 560.86621094 C-3.66927734 562.21322687 -9.32892493 558.04916148 -13.9921875 555.6171875 C-14.70915298 555.2475589 -15.42611847 554.8779303 -16.16481018 554.49710083 C-18.48057896 553.30177757 -20.7930684 552.10026223 -23.10546875 550.8984375 C-24.70589943 550.0705006 -26.30648601 549.24286498 -27.90722656 548.41552734 C-37.25976023 543.57714515 -46.59719844 538.71021842 -55.90234375 533.78125 C-59.44614457 531.90578646 -63.00076761 530.05184214 -66.55859375 528.203125 C-67.61401367 527.65446777 -68.66943359 527.10581055 -69.75683594 526.54052734 C-71.8192746 525.46916787 -73.88239485 524.39911918 -75.94628906 523.33056641 C-76.87538086 522.84765137 -77.80447266 522.36473633 -78.76171875 521.8671875 C-80.00211914 521.22426758 -80.00211914 521.22426758 -81.26757812 520.56835938 C-83.41796875 519.3984375 -83.41796875 519.3984375 -86.41796875 517.3984375 C-86.70451562 514.82524831 -86.79649762 512.49346651 -86.75854492 509.91943359 C-86.758983 509.14860947 -86.75942108 508.37778534 -86.75987244 507.58360291 C-86.75777825 505.02943813 -86.73441816 502.47592545 -86.7109375 499.921875 C-86.70534377 498.15353758 -86.70107262 496.38519553 -86.69807434 494.61685181 C-86.68660796 489.95767428 -86.6571255 485.29877636 -86.6239624 480.63970947 C-86.59330005 475.88744896 -86.57957722 471.13514337 -86.56445312 466.3828125 C-86.53225741 457.05456451 -86.48103953 447.72652423 -86.41796875 438.3984375 C-87.99369659 438.84379097 -87.99369659 438.84379097 -89.60125732 439.29814148 C-101.64691326 442.6839399 -113.74384352 445.83884322 -125.87109375 448.91796875 C-127.3410442 449.29171411 -127.3410442 449.29171411 -128.84069061 449.67300987 C-134.00176848 450.98509255 -139.16345667 452.29474068 -144.32568359 453.60229492 C-149.6397628 454.94883872 -154.95160493 456.30400553 -160.26301956 457.66101551 C-164.37447959 458.70979344 -168.48752702 459.75223477 -172.60103607 460.79294395 C-174.56161475 461.29013886 -176.52159077 461.78971667 -178.48093414 462.29175758 C-181.20861766 462.99005146 -183.93843084 463.67932756 -186.66894531 464.36645508 C-187.47001205 464.57366684 -188.2710788 464.7808786 -189.09642029 464.99436951 C-196.4185289 466.81822935 -201.30799604 466.79271083 -208.3125 463.58984375 C-209.26173592 463.16057838 -209.26173592 463.16057838 -210.23014832 462.72264099 C-212.23520194 461.81249794 -214.23261051 460.88675074 -216.23046875 459.9609375 C-217.59135161 459.34211881 -218.95267599 458.72427011 -220.31445312 458.10742188 C-230.22351362 453.59289263 -230.22351362 453.59289263 -231.41796875 452.3984375 C-231.51548135 450.57919104 -231.54168271 448.75610675 -231.54101658 446.93424892 C-231.54300763 445.74093659 -231.54499868 444.54762425 -231.54705006 443.31815094 C-231.54419647 441.97694724 -231.54125087 440.63574373 -231.53822327 439.29454041 C-231.53865884 437.88299543 -231.5395335 436.47145053 -231.54081243 435.05990607 C-231.54306004 431.16281694 -231.5390325 427.26575504 -231.53403437 423.36866939 C-231.52973385 419.1730104 -231.53117601 414.97735307 -231.53193665 410.7816925 C-231.53246214 403.50635855 -231.52931274 396.23103353 -231.52369881 388.95570183 C-231.51558717 378.43666858 -231.51296893 367.91763967 -231.51171082 357.39860363 C-231.50951977 340.33401129 -231.50285825 323.26942373 -231.4934082 306.20483398 C-231.48423545 289.62377954 -231.47715395 273.04272639 -231.47290039 256.46166992 C-231.47263767 255.44038016 -231.47237494 254.41909039 -231.47210426 253.36685245 C-231.47079926 248.24357073 -231.46953555 243.12028899 -231.46829236 237.99700725 C-231.45791809 195.46414736 -231.44029834 152.93129268 -231.41796875 110.3984375 C-227.14147235 108.3638469 -222.8549888 106.35270882 -218.55786133 104.36206055 C-217.09919804 103.68245055 -215.64340263 102.99664807 -214.19067383 102.30444336 C-212.09539237 101.30740809 -209.9906226 100.33349584 -207.8828125 99.36328125 C-207.24085434 99.05188705 -206.59889618 98.74049286 -205.93748474 98.41966248 C-201.36069576 96.35040576 -198.27842471 96.30113459 -193.41796875 97.3984375 C-192.70378942 97.5572021 -191.98961008 97.7159667 -191.25378895 97.87954235 C-190.64464995 98.0478119 -190.03551096 98.21608145 -189.40791321 98.38945007 C-188.69516235 98.58409348 -187.9824115 98.77873688 -187.24806213 98.97927856 C-186.49113571 99.19067474 -185.73420929 99.40207092 -184.9543457 99.61987305 C-184.13688873 99.84446701 -183.31943176 100.06906097 -182.47720337 100.30046082 C-179.78570135 101.04113845 -177.09596576 101.78802029 -174.40625 102.53515625 C-172.51369246 103.05775328 -170.62104663 103.58003065 -168.72831726 104.102005 C-164.75750236 105.19805198 -160.78750643 106.29700174 -156.81811523 107.39819336 C-151.78932704 108.79318614 -146.75900358 110.18253757 -141.72808552 111.56982708 C-137.81248229 112.64999075 -133.89753169 113.73250428 -129.98277855 114.8157444 C-128.13221952 115.32767061 -126.28151812 115.83908248 -124.43065834 116.34992027 C-121.80772381 117.07439843 -119.18563174 117.80185685 -116.5637207 118.5300293 C-115.46780357 118.83194183 -115.46780357 118.83194183 -114.3497467 119.13995361 C-104.99308552 121.74618624 -95.72614476 124.6059847 -86.41796875 127.3984375 C-86.41796875 99.6784375 -86.41796875 71.9584375 -86.41796875 43.3984375 C-75.52796875 37.7884375 -64.63796875 32.1784375 -53.41796875 26.3984375 C-45.23636533 21.94458446 -45.23636533 21.94458446 -37.0625 17.4765625 C-35.18143159 16.44971072 -33.29987454 15.42375382 -31.41796875 14.3984375 C-30.83368103 14.0794751 -30.24939331 13.7605127 -29.6473999 13.43188477 C-25.71813112 11.28973042 -21.77775918 9.170104 -17.82409668 7.07330322 C-16.52170658 6.37874093 -15.22271008 5.6777738 -13.92736816 4.97015381 C-12.11905418 3.98366727 -10.29993478 3.02079609 -8.4765625 2.0625 C-7.42782959 1.49998535 -6.37909668 0.9374707 -5.29858398 0.35791016 C-2.41796875 -0.6015625 -2.41796875 -0.6015625 0 0 Z " fill="#7B1D13" transform="translate(249.41796875,18.6015625)"/>
<path d="M0 0 C0.71417933 0.1587646 1.42835867 0.3175292 2.1641798 0.48110485 C2.7733188 0.6493744 3.38245779 0.81764395 4.01005554 0.99101257 C4.7228064 1.18565598 5.43555725 1.38029938 6.16990662 1.58084106 C6.92683304 1.79223724 7.68375946 2.00363342 8.46362305 2.22143555 C9.28108002 2.44602951 10.09853699 2.67062347 10.94076538 2.90202332 C13.6322674 3.64270095 16.32200299 4.38958279 19.01171875 5.13671875 C20.90427629 5.65931578 22.79692212 6.18159315 24.68965149 6.7035675 C28.66046639 7.79961448 32.63046232 8.89856424 36.59985352 9.99975586 C41.62864171 11.39474864 46.65896517 12.78410007 51.68988323 14.17138958 C55.60548646 15.25155325 59.52043706 16.33406678 63.4351902 17.4173069 C65.28574923 17.92923311 67.13645063 18.44064498 68.98731041 18.95148277 C78.76095391 21.65105118 88.51412599 24.41102094 98.23364258 27.30004883 C99.09925906 27.55545032 99.96487555 27.8108518 100.85672283 28.07399273 C106.88094368 29.88094368 106.88094368 29.88094368 108 31 C108.08865208 33.8843382 108.11521296 36.74462158 108.09765625 39.62890625 C108.09553383 40.92525246 108.09553383 40.92525246 108.09336853 42.24778748 C108.08775239 45.01939292 108.07519719 47.7909188 108.0625 50.5625 C108.05748708 52.4368478 108.05292381 54.31119685 108.04882812 56.18554688 C108.03777772 60.79039544 108.0205023 65.39518421 108 70 C108.95624268 70.1451001 109.91248535 70.2902002 110.89770508 70.43969727 C129.92190715 73.33036142 148.93712843 76.27500154 167.93295288 79.34713745 C169.85303983 79.657442 171.7733083 79.9666254 173.6937561 80.27468872 C176.38624193 80.70708704 179.07797758 81.14387284 181.76953125 81.58203125 C182.57608154 81.71095764 183.38263184 81.83988403 184.21362305 81.97271729 C189.77074742 82.88537371 189.77074742 82.88537371 192 84 C192 93.57 192 103.14 192 113 C188.72301605 114.63849197 185.05824767 114.67711521 181.453125 115.0859375 C180.5820108 115.1875267 179.71089661 115.28911591 178.81338501 115.39378357 C175.95939691 115.72511741 173.10476639 116.05044481 170.25 116.375 C169.28225647 116.48605072 168.31451294 116.59710144 167.31744385 116.71151733 C154.84353109 118.14292241 142.36570409 119.53529593 129.875 120.8125 C128.6880957 120.93608887 127.50119141 121.05967773 126.27832031 121.18701172 C125.17327148 121.29674316 124.06822266 121.40647461 122.9296875 121.51953125 C121.99366699 121.61339111 121.05764648 121.70725098 120.09326172 121.80395508 C116.06971757 122.05895949 112.03161689 122 108 122 C108 162.59 108 203.18 108 245 C121.2 246.32 134.4 247.64 148 249 C160.875 250.625 160.875 250.625 166.1015625 251.34375 C171.8910541 252.13879396 177.69746747 252.76522074 183.51123047 253.35400391 C186.50303844 253.66710831 189.13437992 254.04479331 192 255 C192 264.57 192 274.14 192 284 C173.89474023 287.73786008 155.73829563 291.04745987 137.52856445 294.23242188 C136.57234695 294.40034744 135.61612946 294.56827301 134.63093567 294.74128723 C132.83486172 295.05651782 131.03848584 295.37003528 129.241745 295.68144226 C124.4885825 296.51601374 119.79744037 297.4698514 115.11096191 298.62471008 C113 299 113 299 108 299 C108 312.86 108 326.72 108 341 C86.68581103 346.50939491 65.36851336 352.00641047 44.04400635 357.47573853 C42.09815189 357.9748253 40.15234613 358.47410194 38.20654297 358.97338867 C31.81994094 360.61105768 25.43151404 362.24111639 19.03918457 363.85629272 C17.18984091 364.32453709 15.34111642 364.79523416 13.49304199 365.26846313 C10.96057896 365.91630589 8.42601571 366.55513351 5.890625 367.19140625 C5.16862915 367.37805847 4.4466333 367.56471069 3.70275879 367.75701904 C-3.59600511 369.56557979 -8.04068824 369.32538238 -14.89453125 366.19140625 C-15.84376717 365.76214088 -15.84376717 365.76214088 -16.81217957 365.32420349 C-18.81723319 364.41406044 -20.81464176 363.48831324 -22.8125 362.5625 C-24.17338286 361.94368131 -25.53470724 361.32583261 -26.89648438 360.70898438 C-36.80554487 356.19445513 -36.80554487 356.19445513 -38 355 C-38.0975126 353.18075354 -38.12371396 351.35766925 -38.12304783 349.53581142 C-38.12503888 348.34249909 -38.12702993 347.14918675 -38.12908131 345.91971344 C-38.12622772 344.57850974 -38.12328212 343.23730623 -38.12025452 341.89610291 C-38.12069009 340.48455793 -38.12156475 339.07301303 -38.12284368 337.66146857 C-38.12509129 333.76437944 -38.12106375 329.86731754 -38.11606562 325.97023189 C-38.1117651 321.7745729 -38.11320726 317.57891557 -38.1139679 313.383255 C-38.11449339 306.10792105 -38.11134399 298.83259603 -38.10573006 291.55726433 C-38.09761842 281.03823108 -38.09500018 270.51920217 -38.09374207 260.00016613 C-38.09155102 242.93557379 -38.0848895 225.87098623 -38.07543945 208.80639648 C-38.0662667 192.22534204 -38.0591852 175.64428889 -38.05493164 159.06323242 C-38.05466892 158.04194266 -38.05440619 157.02065289 -38.05413551 155.96841495 C-38.05283051 150.84513323 -38.0515668 145.72185149 -38.05032361 140.59856975 C-38.03994934 98.06570986 -38.02232959 55.53285518 -38 13 C-33.7235036 10.9654094 -29.43702005 8.95427132 -25.13989258 6.96362305 C-23.68122929 6.28401305 -22.22543388 5.59821057 -20.77270508 4.90600586 C-18.67742362 3.90897059 -16.57265385 2.93505834 -14.46484375 1.96484375 C-13.82288559 1.65344955 -13.18092743 1.34205536 -12.51951599 1.02122498 C-7.94272701 -1.04803174 -4.86045596 -1.09730291 0 0 Z " fill="#E15343" transform="translate(56,116)"/>
<path d="M0 0 C9.53558487 5.08564526 19.02446085 10.19912236 28.4375 15.5 C29.56220703 16.13164062 30.68691406 16.76328125 31.84570312 17.4140625 C34.56461026 18.94127842 37.28270033 20.46992645 40 22 C40.38919014 63.35983653 40.68870241 104.71946165 40.8681106 146.08076682 C40.88937238 150.96481759 40.91137588 155.84886476 40.93383789 160.73291016 C40.93829717 161.70522747 40.94275645 162.67754478 40.94735085 163.67932625 C41.0213058 179.41912355 41.15533104 195.15786434 41.31159753 210.89703505 C41.4706279 227.04941464 41.56500969 243.20124133 41.59950441 259.35437167 C41.62282179 269.32086592 41.69642495 279.28437423 41.83457994 289.24994905 C41.92451312 296.08574295 41.95158876 302.91999577 41.92952342 309.75633816 C41.9186402 313.70079242 41.93518099 317.64003653 42.02649307 321.58356094 C42.53390411 344.61591827 42.53390411 344.61591827 38.34267879 350.21338701 C34.38606598 353.69737975 30.0548717 355.64434478 25.08282459 357.27182317 C21.99538224 358.35122467 19.37072705 359.93241989 16.5625 361.6015625 C14.70992194 362.61229224 12.85580776 363.62021265 11 364.625 C9.55367188 365.41583984 9.55367188 365.41583984 8.078125 366.22265625 C1.13173701 370 1.13173701 370 0 370 C0 247.9 0 125.8 0 0 Z " fill="#E25343" transform="translate(442,115)"/>
<path d="M0 0 C0 121.77 0 243.54 0 369 C-10.13343328 365.62218891 -10.13343328 365.62218891 -14.65625 363.5546875 C-15.6153125 363.11769531 -16.574375 362.68070312 -17.5625 362.23046875 C-18.531875 361.78316406 -19.50125 361.33585937 -20.5 360.875 C-21.5003125 360.41996094 -22.500625 359.96492188 -23.53125 359.49609375 C-30.85925752 356.14074248 -30.85925752 356.14074248 -32 355 C-32.0975126 353.18075354 -32.12371396 351.35766925 -32.12304783 349.53581142 C-32.12503888 348.34249909 -32.12702993 347.14918675 -32.12908131 345.91971344 C-32.12622772 344.57850974 -32.12328212 343.23730623 -32.12025452 341.89610291 C-32.12069009 340.48455793 -32.12156475 339.07301303 -32.12284368 337.66146857 C-32.12509129 333.76437944 -32.12106375 329.86731754 -32.11606562 325.97023189 C-32.1117651 321.7745729 -32.11320726 317.57891557 -32.1139679 313.383255 C-32.11449339 306.10792105 -32.11134399 298.83259603 -32.10573006 291.55726433 C-32.09761842 281.03823108 -32.09500018 270.51920217 -32.09374207 260.00016613 C-32.09155102 242.93557379 -32.0848895 225.87098623 -32.07543945 208.80639648 C-32.0662667 192.22534204 -32.0591852 175.64428889 -32.05493164 159.06323242 C-32.05466892 158.04194266 -32.05440619 157.02065289 -32.05413551 155.96841495 C-32.05283051 150.84513323 -32.0515668 145.72185149 -32.05032361 140.59856975 C-32.03994934 98.06570986 -32.02232959 55.53285518 -32 13 C-27.92810634 11.14143093 -23.85296785 9.29023333 -19.7746582 7.44580078 C-18.38767399 6.81728553 -17.00159741 6.18676333 -15.61645508 5.55419922 C-13.62556279 4.64542216 -11.63152028 3.74390755 -9.63671875 2.84375 C-7.83787231 2.02680664 -7.83787231 2.02680664 -6.00268555 1.19335938 C-3 0 -3 0 0 0 Z " fill="#58150D" transform="translate(50,116)"/>
<path d="M0 0 C0 47.85 0 95.7 0 145 C-7.92 146.98 -7.92 146.98 -16 149 C-19.86431672 150.10121713 -23.71552068 151.21807952 -27.5625 152.375 C-36.62240255 155.06311888 -45.71912325 157.52586309 -54.87670898 159.85742188 C-61.95594659 161.6776387 -68.8927744 163.78848019 -75.8203125 166.1171875 C-78.77284398 166.93693211 -80.97334064 167.0725679 -84 167 C-84.87256219 140.32343802 -85.13257181 113.67760556 -85.06866455 86.98797607 C-85.05816514 82.11178041 -85.05381191 77.23557886 -85.04882812 72.359375 C-85.03831733 62.90623553 -85.02140912 53.45312067 -85 44 C-84.05924622 43.51709503 -83.11849243 43.03419006 -82.14923096 42.53665161 C-78.60506345 40.71690613 -75.06183302 38.89534229 -71.51885986 37.07327271 C-69.99542687 36.29011468 -68.47175182 35.50742731 -66.94781494 34.72525024 C-58.15635797 30.21250458 -49.39852521 25.65813316 -40.75 20.875 C-31.96418195 16.03126391 -23.09662711 11.36179945 -14.1875 6.75 C-13.20747009 6.24143463 -13.20747009 6.24143463 -12.2076416 5.72259521 C-10.36233917 4.76573497 -8.51549318 3.81193659 -6.66796875 2.859375 C-5.59828857 2.30733398 -4.5286084 1.75529297 -3.42651367 1.18652344 C-1 0 -1 0 0 0 Z " fill="#7B1D13" transform="translate(248,18)"/>
<path d="M0 0 C18.88709677 9.44354839 18.88709677 9.44354839 27.125 13.75 C28.57712891 14.50796875 28.57712891 14.50796875 30.05859375 15.28125 C36.7449163 18.78484833 43.38035744 22.37201799 50 26 C61.25777234 32.14060309 72.63079999 38.06824347 84 44 C84 84.59 84 125.18 84 167 C73.90967742 165.87885305 73.90967742 165.87885305 68.5625 164.25 C67.36238281 163.89292969 66.16226563 163.53585938 64.92578125 163.16796875 C64.2910791 162.9776709 63.65637695 162.78737305 63.00244141 162.59130859 C59.43091562 161.53665906 55.83972964 160.55303751 52.25 159.5625 C50.71351482 159.13681563 49.17705672 158.71103354 47.640625 158.28515625 C46.87298828 158.07262207 46.10535156 157.86008789 45.31445312 157.64111328 C41.54237013 156.59623038 37.7712193 155.54799507 34 154.5 C29.37134102 153.213951 24.74253347 151.92844337 20.11328125 150.64453125 C19.30955078 150.42152344 18.50582031 150.19851562 17.67773438 149.96875 C16.1517528 149.54535627 14.62571524 149.12216424 13.09960938 148.69921875 C12.40287109 148.50585938 11.70613281 148.3125 10.98828125 148.11328125 C10.38540283 147.94610596 9.78252441 147.77893066 9.16137695 147.60668945 C6.10451854 146.74864211 3.05283908 145.87223974 0 145 C0 97.15 0 49.3 0 0 Z " fill="#E15343" transform="translate(248,18)"/>
<path d="M0 0 C15.35069814 3.54405578 30.64552467 7.31962476 45.94360352 11.08276367 C49.7257537 12.01298824 53.50864505 12.94016274 57.29170132 13.86669445 C60.22165603 14.58483368 63.15108516 15.3050983 66.08036995 16.02596474 C67.47685504 16.36924176 68.87353538 16.71172555 70.27041435 17.05339622 C72.20613717 17.5270824 74.14105391 18.00405899 76.07592773 18.48120117 C77.17492905 18.75115402 78.27393036 19.02110687 79.40623474 19.29924011 C82 20 82 20 84 21 C84 68.52 84 116.04 84 165 C64.59748134 155.86940299 64.59748134 155.86940299 58 152.3125 C56.40662799 151.46413344 54.81285568 150.61651841 53.21875 149.76953125 C52.38472656 149.32561035 51.55070312 148.88168945 50.69140625 148.42431641 C45.64329662 145.75281137 40.56987392 143.12989138 35.5 140.5 C27.74351846 136.47068202 19.98962193 132.43662693 12.25 128.375 C11.48236328 127.97345703 10.71472656 127.57191406 9.92382812 127.15820312 C9.21162109 126.78373047 8.49941406 126.40925781 7.765625 126.0234375 C7.15493164 125.70294434 6.54423828 125.38245117 5.91503906 125.05224609 C5.28307617 124.70500488 4.65111328 124.35776367 4 124 C3.14753693 123.6261467 2.29507385 123.2522934 1.41677856 122.86711121 C-1 121 -1 121 -1.60800171 117.92271423 C-1.59991486 116.65263016 -1.591828 115.38254608 -1.58349609 114.07397461 C-1.58580986 113.36974082 -1.58812363 112.66550703 -1.59050751 111.93993282 C-1.59207416 109.59333616 -1.55786061 107.24866726 -1.5234375 104.90234375 C-1.51696873 103.24781974 -1.51262434 101.59328622 -1.51028442 99.93875122 C-1.49758311 95.51636003 -1.45366983 91.09478876 -1.40322876 86.67268753 C-1.35640719 82.13597463 -1.33747744 77.59913984 -1.31445312 73.06225586 C-1.17385205 48.70474828 -0.85889553 24.34374919 0 0 Z " fill="#7B1D13" transform="translate(164,415)"/>
<path d="M0 0 C0.23374075 15.67253673 0.4100083 31.34460208 0.51812172 47.01844978 C0.56965873 54.29642163 0.63989889 61.57330979 0.75439453 68.85058594 C0.85415853 75.19455848 0.91860202 81.53774628 0.94088495 87.88248146 C0.95390957 91.24161374 0.98444074 94.59850144 1.05730057 97.95691299 C1.12983252 101.70977493 1.13989469 105.4579766 1.13525391 109.21142578 C1.17120667 110.32129349 1.20715942 111.43116119 1.24420166 112.57466125 C1.20249213 115.6888049 1.07094944 118.0727536 0 121 C-3.02337328 123.77478545 -6.26345738 125.36823034 -10 127 C-11.35420797 127.71492686 -12.70431447 128.43779292 -14.04663086 129.17480469 C-15.35092539 129.84396869 -16.65703966 130.50959625 -17.96484375 131.171875 C-18.67633072 131.53593445 -19.38781769 131.8999939 -20.12086487 132.27508545 C-21.62213156 133.04287504 -23.12417145 133.80915452 -24.62695312 134.57397461 C-28.5452648 136.56832238 -32.45770119 138.57414724 -36.37109375 140.578125 C-37.51310745 141.16231201 -37.51310745 141.16231201 -38.67819214 141.75830078 C-44.30384565 144.63756196 -49.91252554 147.54722475 -55.5 150.5 C-56.56214722 151.06098389 -56.56214722 151.06098389 -57.64575195 151.63330078 C-59.76462242 152.75405421 -61.88246039 153.87673421 -64 155 C-67.5403751 156.87745145 -71.08230026 158.75193951 -74.625 160.625 C-75.45064453 161.06392578 -76.27628906 161.50285156 -77.12695312 161.95507812 C-77.88169922 162.35404297 -78.63644531 162.75300781 -79.4140625 163.1640625 C-80.0838916 163.51936035 -80.7537207 163.8746582 -81.44384766 164.24072266 C-83 165 -83 165 -84 165 C-84 117.48 -84 69.96 -84 21 C-67.11294799 16.49678613 -67.11294799 16.49678613 -61.1784668 14.98535156 C-60.52599976 14.81895676 -59.87353271 14.65256195 -59.20129395 14.48112488 C-57.11750695 13.95001784 -55.03339629 13.42019723 -52.94921875 12.890625 C-51.47328999 12.51520577 -49.99736332 12.13977836 -48.5214386 11.76434326 C-45.46538947 10.98724694 -42.40914371 10.2109293 -39.3527832 9.43505859 C-35.4326841 8.43975068 -31.51337312 7.44137397 -27.59422588 6.44232559 C-24.56385038 5.6703821 -21.53293877 4.90056077 -18.50187111 4.13134003 C-17.05474825 3.76371013 -15.60782548 3.39529167 -14.16110802 3.02606964 C-12.15443476 2.51416132 -10.14702773 2.00523735 -8.1394043 1.49707031 C-6.99884079 1.20713196 -5.85827728 0.9171936 -4.68315125 0.61846924 C-2 0 -2 0 0 0 Z " fill="#E15343" transform="translate(332,415)"/>
<path d="M0 0 C22.95269562 1.14763478 22.95269562 1.14763478 30.62109375 2.12109375 C31.49741959 2.22591568 32.37374542 2.33073761 33.27662659 2.43873596 C35.99774873 2.76519912 38.71764348 3.10067187 41.4375 3.4375 C44.15394652 3.76918055 46.87062976 4.09870172 49.58766174 4.42555237 C51.2514014 4.62615837 52.91482204 4.82944901 54.57774353 5.03672791 C64.37053223 6.22855521 74.1683764 7.0636549 84 8 C84 48.59 84 89.18 84 131 C71.49366456 132.87595032 59.05720027 134.67356495 46.5 136.0625 C44.97606074 136.23327818 43.45213512 136.40417815 41.92822266 136.57519531 C37.61954241 137.05685216 33.30990425 137.52944342 29 138 C27.88206055 138.12294434 26.76412109 138.24588867 25.61230469 138.37255859 C22.86720739 138.67195052 20.12148801 138.96368346 17.375 139.25 C16.63185547 139.33000244 15.88871094 139.41000488 15.12304688 139.49243164 C10.00768764 140.00575199 5.20637746 140 0 140 C0 93.8 0 47.6 0 0 Z " fill="#E15343" transform="translate(248,230)"/>
<path d="M0 0 C7.0860046 2.08693206 14.20039373 4.00985511 21.35717773 5.83813477 C30.46188177 8.16511654 39.42867126 10.78448097 48.35717773 13.71313477 C48.35717773 14.37313477 48.35717773 15.03313477 48.35717773 15.71313477 C46.0798127 16.08568882 43.80243829 16.45818543 41.52505493 16.83062744 C39.49141469 17.16320872 37.45778459 17.49585199 35.42416382 17.82855225 C29.81837737 18.74530985 24.21224817 19.65989034 18.60546875 20.57055664 C4.84396923 22.80228863 4.84396923 22.80228863 -8.90063477 25.13500977 C-10.00544189 25.32353516 -11.11024902 25.51206055 -12.24853516 25.70629883 C-14.11157109 26.02565005 -15.97304059 26.35441948 -17.83203125 26.6965332 C-33.95060986 29.4204456 -49.12967066 26.79755204 -65.01782227 23.96313477 C-68.22175956 23.40561189 -71.42641334 22.85234675 -74.63113403 22.29934692 C-76.72977378 21.93688089 -78.82814676 21.57286669 -80.92623901 21.20724487 C-90.1475163 19.60519821 -99.38769808 18.18215808 -108.65991211 16.90551758 C-110.03977295 16.70587402 -110.03977295 16.70587402 -111.44750977 16.50219727 C-112.60742432 16.34291748 -112.60742432 16.34291748 -113.79077148 16.18041992 C-115.64282227 15.71313477 -115.64282227 15.71313477 -117.64282227 13.71313477 C-116.99659912 13.54297852 -116.35037598 13.37282227 -115.68457031 13.19750977 C-101.92001746 9.5614533 -88.23178744 5.74299267 -74.59887695 1.640625 C-65.989263 -0.93231243 -57.33360771 -3.26882913 -48.62255859 -5.47265625 C-47.73076904 -5.69880615 -46.83897949 -5.92495605 -45.92016602 -6.15795898 C-44.74828735 -6.45077759 -44.74828735 -6.45077759 -43.55273438 -6.74951172 C-29.08745914 -10.81931496 -14.07095042 -4.16541173 0 0 Z " fill="#59150D" transform="translate(281.642822265625,171.286865234375)"/>
<path d="M0 0 C2.2493604 0.45628946 4.49943259 0.90907665 6.75 1.359375 C7.38325699 1.4865239 8.01651398 1.61367279 8.66896057 1.74467468 C15.09778041 3.0220828 21.54787487 4.17520858 28 5.328125 C30.24016307 5.73049405 32.48031599 6.13291959 34.72045898 6.53540039 C38.11341701 7.1446483 41.50675069 7.75118989 44.90164185 8.34957886 C48.11427882 8.91659075 51.32481815 9.49435358 54.53515625 10.07421875 C55.51939575 10.24491882 56.50363525 10.4156189 57.5177002 10.5914917 C58.41557251 10.75554504 59.31344482 10.91959839 60.23852539 11.08862305 C61.02836319 11.22898483 61.81820099 11.36934662 62.63197327 11.51396179 C63.525709 11.7854882 63.525709 11.7854882 64.4375 12.0625 C64.7675 12.7225 65.0975 13.3825 65.4375 14.0625 C57.05719774 16.22918954 48.67642308 18.39404 40.29506397 20.55663776 C36.40196668 21.56121254 32.50902604 22.5663856 28.61645508 23.57299805 C24.84965441 24.54706175 21.08242712 25.51945973 17.31491661 26.49077415 C15.88810052 26.85892404 14.46143097 27.22764238 13.03492165 27.59697914 C9.7356396 28.45101355 6.43480674 29.2968776 3.13027954 30.13052368 C0.70044436 30.74376063 -1.72587178 31.37114359 -4.14810181 32.01376343 C-5.26881073 32.2982132 -6.38951965 32.58266296 -7.54418945 32.87573242 C-9.00221733 33.25649178 -9.00221733 33.25649178 -10.48970032 33.64494324 C-16.84048335 34.50793877 -22.9750794 32.83665966 -29.12426758 31.32836914 C-30.18680756 31.06962257 -30.18680756 31.06962257 -31.27081299 30.8056488 C-33.58404991 30.24095363 -35.89558111 29.66961759 -38.20703125 29.09765625 C-39.82503251 28.70008438 -41.44309071 28.30274415 -43.061203 27.90562439 C-46.43829261 27.07563887 -49.81451548 26.24223363 -53.19018555 25.40649414 C-57.51720804 24.33561172 -61.84651988 23.27432699 -66.17654896 22.21567631 C-69.51211034 21.39887653 -72.84629102 20.57655292 -76.18008995 19.75259209 C-77.7764481 19.35885233 -79.37326064 18.96695012 -80.97052956 18.57692146 C-83.19770539 18.03230552 -85.4228827 17.48016527 -87.64770508 16.92602539 C-88.91375076 16.61371475 -90.17979645 16.30140411 -91.48420715 15.97962952 C-94.5625 15.0625 -94.5625 15.0625 -97.5625 13.0625 C-88.81249777 10.52960462 -79.9537495 9.07025147 -70.97558594 7.61425781 C-64.23619467 6.5176297 -57.51837735 5.34844614 -50.8125 4.0625 C-49.96397461 3.90048096 -49.11544922 3.73846191 -48.24121094 3.5715332 C-43.87177395 2.7285939 -39.51298084 1.84684043 -35.16015625 0.921875 C-33.83032715 0.6434375 -33.83032715 0.6434375 -32.47363281 0.359375 C-30.80832034 0.00891465 -29.14469541 -0.34972364 -27.48339844 -0.71875 C-17.95841401 -2.71806963 -9.45752386 -1.99417518 0 0 Z " fill="#59150D" transform="translate(263.5625,401.9375)"/>
</svg>
