<?xml version="1.0" encoding="UTF-8"?>
<svg version="1.1" xmlns="http://www.w3.org/2000/svg" width="512" height="512">
<path d="M0 0 C0.72809094 -0.00032486 1.45618188 -0.00064972 2.20633619 -0.00098442 C4.64792223 -0.00085673 7.08943421 0.00643669 9.53100872 0.01368427 C11.28006708 0.01522481 13.02912587 0.01632102 14.77818477 0.01700604 C19.55032556 0.02013004 24.32243689 0.02945973 29.09456669 0.03983201 C34.18201581 0.04981584 39.26946984 0.05409112 44.35692596 0.05896759 C52.90420359 0.06785962 61.4514705 0.08011764 69.9987402 0.09471989 C81.08103578 0.11354301 92.16332756 0.12578249 103.24563486 0.13504463 C150.27210185 0.17457339 197.29850817 0.25783108 244.32489586 0.35103798 C248.86932332 0.3599987 253.41375087 0.36890895 257.95817852 0.37777424 C259.08674004 0.37997792 260.21530157 0.38218161 261.37806193 0.38445207 C279.89743546 0.42029129 298.41680868 0.44492427 316.93620458 0.46567009 C336.13237521 0.48740356 355.32850216 0.52037134 374.52463561 0.56402463 C386.28311248 0.59042337 398.04153532 0.60820478 409.80004034 0.61466911 C417.79662507 0.61991001 425.79314034 0.63608251 433.78968783 0.66098873 C438.39464539 0.67501183 442.99947856 0.68417047 447.60445881 0.68033123 C451.8159875 0.6769257 456.02724996 0.68725739 460.23872409 0.70855858 C461.76103836 0.71383151 463.28338026 0.71405609 464.8056943 0.70871869 C466.87482811 0.70220133 468.94308337 0.71411911 471.01214409 0.73056221 C472.16061575 0.73246081 473.30908741 0.73435941 474.49236125 0.73631555 C481.05365382 1.49020919 485.55056803 4.12664758 489.79094219 9.11532307 C493.27931822 19.58045115 489.92395668 32.2179561 488.13908672 42.83773518 C487.8517641 44.59432356 487.56535796 46.35106205 487.27978611 48.10793591 C486.5025614 52.87323354 485.7125976 57.63634022 484.92033672 62.39915776 C484.07890506 67.47149855 483.24945313 72.54579866 482.41862774 77.61988544 C481.00022584 86.27256189 479.57447834 94.92400053 478.14354229 103.57461262 C476.0927486 115.9729224 474.05411429 128.37320758 472.01871371 140.77405262 C468.92136734 159.64372177 465.81668724 178.51217305 462.70500469 197.37948322 C462.53278951 198.42368994 462.36057434 199.46789665 462.18314052 200.54374599 C462.01315933 201.57440119 461.84317813 202.60505638 461.668046 203.66694355 C457.75057586 227.42020882 453.84429039 251.17529866 449.9503355 274.93243122 C449.26334788 279.1233005 448.57525453 283.31398586 447.88618755 287.50451374 C443.87625952 311.89521168 439.95833331 336.29910937 436.13696766 360.72003317 C435.71504472 363.41551003 435.29254013 366.11089558 434.87002873 368.80628026 C434.3477744 372.13825354 433.82587894 375.47028299 433.30412579 378.80233479 C433.20146986 379.45791142 433.09881394 380.11348806 432.99304724 380.78893065 C431.68618698 389.13745718 430.38898783 397.48741586 429.10069084 405.83882618 C428.37341015 410.54377459 427.63946582 415.24766752 426.90401173 419.95134449 C426.5642833 422.13468342 426.22760535 424.31849949 425.89419651 426.50281239 C425.43663 429.49910107 424.96863008 432.49358698 424.49821758 435.48788166 C424.30427001 436.78494636 424.30427001 436.78494636 424.1064043 438.10821438 C422.91850932 445.54599028 421.1923243 452.55507678 415.79094219 458.11532307 C410.86605756 461.56274231 406.94797709 462.23954467 401.01398468 462.24675083 C399.82721628 462.25059198 398.64044788 462.25443312 397.4177168 462.25839067 C396.11258482 462.25752418 394.80745285 462.2566577 393.46277142 462.25576496 C392.06330047 462.25834878 390.66383027 462.26136199 389.26436108 462.26476836 C385.4142352 462.27283969 381.56412796 462.27462801 377.71399462 462.27536583 C373.56320134 462.27721617 369.41241774 462.28476343 365.26163006 462.29150105 C356.1830411 462.3050861 347.10445655 462.31110943 338.02585912 462.3155117 C332.35723766 462.31827398 326.6886179 462.32251132 321.0199976 462.32701588 C305.32574635 462.33920904 289.63149648 462.34950809 273.9372406 462.35289097 C272.93265732 462.35311053 271.92807403 462.3533301 270.89304883 462.35355632 C269.88605805 462.3537746 268.87906727 462.35399288 267.84156162 462.35421777 C265.80100683 462.35466123 263.76045205 462.3551078 261.71989727 462.35555744 C260.20161794 462.35588959 260.20161794 462.35588959 258.65266629 462.35622844 C242.25340252 462.36017604 225.8541832 462.37762869 209.4549366 462.40091696 C192.61870998 462.42463281 175.78250566 462.43709294 158.94626206 462.43825889 C149.49310523 462.43917554 140.0400063 462.44492551 130.58686543 462.4630785 C122.53677993 462.47848266 114.48677022 462.4835981 106.43667278 462.4753404 C102.33025756 462.47143494 98.22399496 462.47235835 94.11759853 462.48639774 C90.35528822 462.49914295 86.59324512 462.49793382 82.83093514 462.48580703 C80.83157429 462.48292742 78.83220879 462.49478115 76.83288461 462.50722909 C67.81057797 462.4576748 59.4640152 461.78839607 52.79094219 455.11532307 C49.37410852 450.65128496 47.9025601 446.63618646 46.94401836 441.18026447 C46.78483771 440.33189833 46.62565706 439.48353218 46.46165276 438.60945797 C43.67382601 423.4268761 41.27747632 408.16835458 38.80552912 392.93189955 C38.00914023 388.02855471 37.20838182 383.12592322 36.40816021 378.22320271 C34.84546612 368.64490224 33.28647703 359.06600262 31.72899151 349.48685396 C28.79085436 331.41635904 25.84737142 313.34673383 22.90418047 295.27706146 C21.94732768 289.40241725 20.99067149 283.52774116 20.03443241 277.65299702 C14.73496039 245.09649395 9.40078079 212.54588452 4.03266579 180.00063002 C2.67123737 171.74601447 1.31179197 163.49107444 -0.04623127 155.23589802 C-0.23526785 154.08681615 -0.42430443 152.93773428 -0.6190694 151.75383174 C-1.37491806 147.15900728 -2.13069 142.56417022 -2.8862201 137.96929336 C-5.09453377 124.53920908 -7.30919433 111.11021057 -9.5345006 97.68293107 C-10.92939851 89.26250289 -12.3161591 80.84075955 -13.69666529 72.41796005 C-14.49271363 67.5628411 -15.2924484 62.70840559 -16.10221195 57.85555363 C-16.84463687 53.40601389 -17.57660129 48.95487971 -18.30056727 44.5023005 C-18.56313956 42.89886269 -18.82944973 41.29603113 -19.10004365 39.69392753 C-23.1785509 15.50880765 -23.1785509 15.50880765 -19.58405781 7.49032307 C-13.31110082 1.21736608 -8.6023912 -0.01239925 0 0 Z M154.79094219 156.11532307 C155.374507 161.36740631 155.93691333 166.35369362 156.89152813 171.505826 C157.11022564 172.69473438 157.32892315 173.88364277 157.55424786 175.10857868 C157.79220074 176.38375355 158.03015362 177.65892841 158.27531719 178.97274494 C158.53026203 180.35169369 158.78493382 181.73069294 159.03935528 183.10973835 C159.72637648 186.82873172 160.41747459 190.5469562 161.10956097 194.26500988 C161.68746715 197.37177686 162.26334039 200.47891923 162.83921719 203.58606291 C164.19650905 210.90918581 165.55709878 218.23169055 166.91984844 225.55379963 C168.32670291 233.11316906 169.72830154 240.67349954 171.12730312 248.23432589 C172.32956395 254.73096762 173.53486194 261.22704062 174.7426672 267.72265387 C175.46370769 271.60054021 176.18361851 275.47862754 176.9006834 279.35725117 C177.57350015 282.99571315 178.2501007 286.63345089 178.92969036 290.27065372 C179.2983035 292.24871264 179.66301501 294.22749737 180.02763653 296.20629597 C180.24633404 297.37264576 180.46503155 298.53899555 180.69035625 299.74068928 C180.87986858 300.76048626 181.06938091 301.78028324 181.26463604 302.83098316 C181.56759607 305.06874302 181.56759607 305.06874302 182.79094219 306.11532307 C184.15702545 306.2106752 185.52799674 306.23720977 186.89740276 306.23557758 C188.22469402 306.23763958 188.22469402 306.23763958 189.57879925 306.23974323 C191.04614765 306.23435032 191.04614765 306.23435032 192.54313946 306.22884846 C194.07954586 306.2290675 194.07954586 306.2290675 195.64699078 306.22929096 C199.05046449 306.22859135 202.45388423 306.2207967 205.85734844 306.21297932 C208.21004487 306.21111531 210.56274169 306.20969133 212.91543865 306.2086916 C219.12150924 306.20486506 225.32755659 306.19503362 231.53361797 306.18398762 C237.86092597 306.17377641 244.18823771 306.1691946 250.51555157 306.16415119 C262.94069201 306.15341147 275.36581517 306.13633343 287.79094219 306.11532307 C289.6852303 299.08501525 290.91993263 291.99431502 292.1293211 284.81795979 C292.35596073 283.48658727 292.58286103 282.1552591 292.81000042 280.82397175 C293.42236567 277.22962037 294.03074062 273.63460477 294.63809919 270.03940439 C295.14646926 267.03211368 295.65669505 264.02513896 296.16687715 261.01815522 C297.37033671 253.92457272 298.57043256 246.83042672 299.76848125 239.73592854 C301.00305441 232.42553663 302.24358025 225.11617225 303.48697817 217.80727661 C304.55638371 211.51977568 305.62196691 205.231635 306.68452489 198.94297326 C307.31831686 195.19220931 307.95357301 191.44170845 308.59256649 187.69182682 C309.1928755 184.16802356 309.78840214 180.64344466 310.38029575 177.11821842 C310.70142084 175.21282582 311.02740773 173.30825459 311.353549 171.40371418 C311.54418423 170.26270252 311.73481945 169.12169086 311.9312315 167.9461031 C312.18174991 166.46561891 312.18174991 166.46561891 312.43732929 164.95522594 C312.91450386 161.5999584 312.91450386 161.5999584 312.79094219 156.11532307 C260.65094219 156.11532307 208.51094219 156.11532307 154.79094219 156.11532307 Z " fill="#207CF7" transform="translate(21.209057807922363,24.884676933288574)"/>
</svg>
