<svg width="224" height="224" version="1.1" xmlns="http://www.w3.org/2000/svg" desc="Created with imagetracer.js version 1.2.6" ><path fill="rgb(229,211,225)" stroke="rgb(229,211,225)" stroke-width="1" opacity="1" d="M 115.5 37 L 119.5 42 L 115.5 37 Z " /><path fill="rgb(229,211,225)" stroke="rgb(229,211,225)" stroke-width="1" opacity="1" d="M 107.5 38 L 103.5 43 L 107.5 38 Z " /><path fill="rgb(229,211,225)" stroke="rgb(229,211,225)" stroke-width="1" opacity="1" d="M 123.5 44 L 127.5 49 L 123.5 44 Z " /><path fill="rgb(229,211,225)" stroke="rgb(229,211,225)" stroke-width="1" opacity="1" d="M 99.5 45 L 95.5 50 L 99.5 45 Z " /><path fill="rgb(229,211,225)" stroke="rgb(229,211,225)" stroke-width="1" opacity="1" d="M 131.5 51 L 135.5 56 L 131.5 51 Z " /><path fill="rgb(229,211,225)" stroke="rgb(229,211,225)" stroke-width="1" opacity="1" d="M 91.5 52 L 87.5 57 L 91.5 52 Z " /><path fill="rgb(229,211,225)" stroke="rgb(229,211,225)" stroke-width="1" opacity="1" d="M 140.5 59 L 144.5 64 L 140.5 59 Z " /><path fill="rgb(229,211,225)" stroke="rgb(229,211,225)" stroke-width="1" opacity="1" d="M 82.5 60 L 79.5 64 L 82.5 60 Z " /><path fill="rgb(229,211,225)" stroke="rgb(229,211,225)" stroke-width="1" opacity="1" d="M 147.5 65 L 152.5 71 L 147.5 65 Z " /><path fill="rgb(229,211,225)" stroke="rgb(229,211,225)" stroke-width="1" opacity="1" d="M 74.5 67 L 70.5 72 L 74.5 67 Z " /><path fill="rgb(229,211,225)" stroke="rgb(229,211,225)" stroke-width="1" opacity="1" d="M 156.5 73 L 160.5 78 L 156.5 73 Z " /><path fill="rgb(229,211,225)" stroke="rgb(229,211,225)" stroke-width="1" opacity="1" d="M 66.5 74 L 62.5 79 L 66.5 74 Z " /><path fill="rgb(229,211,225)" stroke="rgb(229,211,225)" stroke-width="1" opacity="1" d="M 111.5 75 L 114 76.5 L 112.5 76 L 110.5 77 L 111.5 75 Z " /><path fill="rgb(229,211,225)" stroke="rgb(229,211,225)" stroke-width="1" opacity="1" d="M 106.5 79 L 102.5 84 L 106.5 79 Z " /><path fill="rgb(229,211,225)" stroke="rgb(229,211,225)" stroke-width="1" opacity="1" d="M 118.5 80 L 121.5 84 L 118.5 80 Z " /><path fill="rgb(229,211,225)" stroke="rgb(229,211,225)" stroke-width="1" opacity="1" d="M 164.5 80 L 169.5 86 L 164.5 80 Z " /><path fill="rgb(229,211,225)" stroke="rgb(229,211,225)" stroke-width="1" opacity="1" d="M 57.5 82 L 53.5 87 L 57.5 82 Z " /><path fill="rgb(229,211,225)" stroke="rgb(229,211,225)" stroke-width="1" opacity="1" d="M 97.5 87 L 93.5 92 L 97.5 87 Z " /><path fill="rgb(229,211,225)" stroke="rgb(229,211,225)" stroke-width="1" opacity="1" d="M 126.5 87 L 131.5 93 L 126.5 87 Z " /><path fill="rgb(229,211,225)" stroke="rgb(229,211,225)" stroke-width="1" opacity="1" d="M 171.5 93 L 167.5 98 L 171.5 93 Z " /><path fill="rgb(229,211,225)" stroke="rgb(229,211,225)" stroke-width="1" opacity="1" d="M 54.5 95 L 58.5 100 L 54.5 95 Z " /><path fill="rgb(229,211,225)" stroke="rgb(229,211,225)" stroke-width="1" opacity="1" d="M 88.5 95 L 85.5 99 L 88.5 95 Z " /><path fill="rgb(229,211,225)" stroke="rgb(229,211,225)" stroke-width="1" opacity="1" d="M 135.5 95 L 140.5 101 L 135.5 95 Z " /><path fill="rgb(229,211,225)" stroke="rgb(229,211,225)" stroke-width="1" opacity="1" d="M 164.5 101 L 160.5 106 L 164.5 101 Z " /><path fill="rgb(229,211,225)" stroke="rgb(229,211,225)" stroke-width="1" opacity="1" d="M 60.5 102 L 64.5 107 L 60.5 102 Z " /><path fill="rgb(229,211,225)" stroke="rgb(229,211,225)" stroke-width="1" opacity="1" d="M 79.5 103 L 76.5 107 L 79.5 103 Z " /><path fill="rgb(229,211,225)" stroke="rgb(229,211,225)" stroke-width="1" opacity="1" d="M 144.5 103 L 148.5 108 L 144.5 103 Z " /><path fill="rgb(229,211,225)" stroke="rgb(229,211,225)" stroke-width="1" opacity="1" d="M 158.5 108 L 156.5 111 L 158.5 108 Z " /><path fill="rgb(229,211,225)" stroke="rgb(229,211,225)" stroke-width="1" opacity="1" d="M 68.5 135 L 67.5 137 L 68.5 135 Z " /><path fill="rgb(229,211,225)" stroke="rgb(229,211,225)" stroke-width="1" opacity="1" d="M 152.5 135 L 155 135.5 L 152.5 136 L 152.5 135 Z " /><path fill="rgb(229,211,225)" stroke="rgb(229,211,225)" stroke-width="1" opacity="1" d="M 157.5 137 L 158.5 139 L 157.5 137 Z " /><path fill="rgb(229,211,225)" stroke="rgb(229,211,225)" stroke-width="1" opacity="1" d="M 63.5 139 L 62.5 141 L 63.5 139 Z " /><path fill="rgb(229,211,225)" stroke="rgb(229,211,225)" stroke-width="1" opacity="1" d="M 147.5 140 L 141.5 147 L 147.5 140 Z " /><path fill="rgb(229,211,225)" stroke="rgb(229,211,225)" stroke-width="1" opacity="1" d="M 161.5 140 L 162.5 142 L 161.5 140 Z " /><path fill="rgb(229,211,225)" stroke="rgb(229,211,225)" stroke-width="1" opacity="1" d="M 77.5 141 L 80.5 145 L 77.5 141 Z " /><path fill="rgb(229,211,225)" stroke="rgb(229,211,225)" stroke-width="1" opacity="1" d="M 58.5 143 L 57.5 145 L 58.5 143 Z " /><path fill="rgb(229,211,225)" stroke="rgb(229,211,225)" stroke-width="1" opacity="1" d="M 165.5 143 L 167.5 146 L 165.5 143 Z " /><path fill="rgb(229,211,225)" stroke="rgb(229,211,225)" stroke-width="1" opacity="1" d="M 53.5 147 L 52.5 149 L 53.5 147 Z " /><path fill="rgb(229,211,225)" stroke="rgb(229,211,225)" stroke-width="1" opacity="1" d="M 84.5 147 L 85.5 149 L 84.5 147 Z " /><path fill="rgb(229,211,225)" stroke="rgb(229,211,225)" stroke-width="1" opacity="1" d="M 170.5 147 L 171.5 149 L 170.5 147 Z " /><path fill="rgb(229,211,225)" stroke="rgb(229,211,225)" stroke-width="1" opacity="1" d="M 138.5 148 L 137.5 150 L 138.5 148 Z " /><path fill="rgb(229,211,225)" stroke="rgb(229,211,225)" stroke-width="1" opacity="1" d="M 88.5 150 L 89.5 152 L 88.5 150 Z " /><path fill="rgb(229,211,225)" stroke="rgb(229,211,225)" stroke-width="1" opacity="1" d="M 175.5 152 L 176 154.5 L 175 154.5 L 175.5 152 Z " /><path fill="rgb(229,211,225)" stroke="rgb(229,211,225)" stroke-width="1" opacity="1" d="M 49.5 156 L 51.5 159 L 49.5 156 Z " /><path fill="rgb(229,211,225)" stroke="rgb(229,211,225)" stroke-width="1" opacity="1" d="M 174.5 156 L 172.5 159 L 174.5 156 Z " /><path fill="rgb(229,211,225)" stroke="rgb(229,211,225)" stroke-width="1" opacity="1" d="M 105.5 157 L 108 157.5 L 105.5 158 L 105.5 157 Z " /><path fill="rgb(229,211,225)" stroke="rgb(229,211,225)" stroke-width="1" opacity="1" d="M 116.5 157 L 120 157.5 L 116.5 158 L 116.5 157 Z " /><path fill="rgb(229,211,225)" stroke="rgb(229,211,225)" stroke-width="1" opacity="1" d="M 168.5 163 L 163.5 169 L 168.5 163 Z " /><path fill="rgb(229,211,225)" stroke="rgb(229,211,225)" stroke-width="1" opacity="1" d="M 63.5 170 L 65.5 173 L 63.5 170 Z " /><path fill="rgb(229,211,225)" stroke="rgb(229,211,225)" stroke-width="1" opacity="1" d="M 159.5 171 L 157.5 174 L 159.5 171 Z " /><path fill="rgb(229,211,225)" stroke="rgb(229,211,225)" stroke-width="1" opacity="1" d="M 68.5 174 L 69.5 176 L 68.5 174 Z " /><path fill="rgb(229,211,225)" stroke="rgb(229,211,225)" stroke-width="1" opacity="1" d="M 154.5 175 L 153.5 177 L 154.5 175 Z " /><path fill="rgb(229,211,225)" stroke="rgb(229,211,225)" stroke-width="1" opacity="1" d="M 71.5 176 L 72.5 178 L 71.5 176 Z " /><path fill="rgb(229,211,225)" stroke="rgb(229,211,225)" stroke-width="1" opacity="1" d="M 151.5 177 L 150.5 179 L 151.5 177 Z " /><path fill="rgb(229,211,225)" stroke="rgb(229,211,225)" stroke-width="1" opacity="1" d="M 100.5 188 L 103 188.5 L 100.5 189 L 100.5 188 Z " /><path fill="rgb(229,211,225)" stroke="rgb(229,211,225)" stroke-width="1" opacity="1" d="M 122.5 188 L 125 188.5 L 122.5 189 L 122.5 188 Z " /><path fill="rgb(229,211,225)" stroke="rgb(229,211,225)" stroke-width="1" opacity="1" d="M 109.5 189 L 115 189.5 L 109.5 190 L 109.5 189 Z " /><path fill="rgb(254,254,254)" stroke="rgb(254,254,254)" stroke-width="1" opacity="1" d="M 109.5 36 L 108.5 38 L 109.5 36 Z " /><path fill="rgb(254,254,254)" stroke="rgb(254,254,254)" stroke-width="1" opacity="1" d="M 129.5 49 L 130.5 51 L 129.5 49 Z " /><path fill="rgb(254,254,254)" stroke="rgb(254,254,254)" stroke-width="1" opacity="1" d="M 137.5 56 L 139.5 59 L 137.5 56 Z " /><path fill="rgb(254,254,254)" stroke="rgb(254,254,254)" stroke-width="1" opacity="1" d="M 84.5 58 L 83.5 60 L 84.5 58 Z " /><path fill="rgb(254,254,254)" stroke="rgb(254,254,254)" stroke-width="1" opacity="1" d="M 76.5 65 L 75.5 67 L 76.5 65 Z " /><path fill="rgb(254,254,254)" stroke="rgb(254,254,254)" stroke-width="1" opacity="1" d="M 153.5 70 L 155.5 73 L 153.5 70 Z " /><path fill="rgb(254,254,254)" stroke="rgb(254,254,254)" stroke-width="1" opacity="1" d="M 109.5 77 L 108.5 79 L 109.5 77 Z " /><path fill="rgb(254,254,254)" stroke="rgb(254,254,254)" stroke-width="1" opacity="1" d="M 162.5 78 L 163.5 80 L 162.5 78 Z " /><path fill="rgb(254,254,254)" stroke="rgb(254,254,254)" stroke-width="1" opacity="1" d="M 59.5 80 L 58.5 82 L 59.5 80 Z " /><path fill="rgb(254,254,254)" stroke="rgb(254,254,254)" stroke-width="1" opacity="1" d="M 122.5 84 L 123.5 86 L 122.5 84 Z " /><path fill="rgb(254,254,254)" stroke="rgb(254,254,254)" stroke-width="1" opacity="1" d="M 171.5 86 L 172.5 88 L 171.5 86 Z " /><path fill="rgb(254,254,254)" stroke="rgb(254,254,254)" stroke-width="1" opacity="1" d="M 52.5 93 L 53.5 95 L 52.5 93 Z " /><path fill="rgb(254,254,254)" stroke="rgb(254,254,254)" stroke-width="1" opacity="1" d="M 132.5 93 L 134.5 96 L 132.5 93 Z " /><path fill="rgb(254,254,254)" stroke="rgb(254,254,254)" stroke-width="1" opacity="1" d="M 84.5 99 L 83.5 101 L 84.5 99 Z " /><path fill="rgb(254,254,254)" stroke="rgb(254,254,254)" stroke-width="1" opacity="1" d="M 166.5 99 L 165.5 101 L 166.5 99 Z " /><path fill="rgb(254,254,254)" stroke="rgb(254,254,254)" stroke-width="1" opacity="1" d="M 160.5 106 L 159.5 108 L 160.5 106 Z " /><path fill="rgb(254,254,254)" stroke="rgb(254,254,254)" stroke-width="1" opacity="1" d="M 75.5 107 L 73.5 110 L 75.5 107 Z " /><path fill="rgb(254,254,254)" stroke="rgb(254,254,254)" stroke-width="1" opacity="1" d="M 149.5 108 L 150.5 110 L 149.5 108 Z " /><path fill="rgb(254,254,254)" stroke="rgb(254,254,254)" stroke-width="1" opacity="1" d="M 66.5 109 L 67.5 111 L 66.5 109 Z " /><path fill="rgb(255,255,255)" stroke="rgb(255,255,255)" stroke-width="1" opacity="1" d="M 0 0 L 224 0 L 224 224 L 0 224 L 0 0 Z M 110 36 L 51 89 L 52 94 L 68 111 L 74 110 L 112 76 L 116 78 L 154 112 L 157 111 L 173 93 L 173 88 L 115 36 L 110 36 Z M 69 135 L 54 147 L 48 154 L 49 157 Q 61 171 78 181 L 92 187 L 101 189 L 109 189 L 110 190 L 125 189 L 139 185 Q 153 179 164 169 L 175 157 L 176 153 L 155 135 L 152 136 Q 149 135 150 138 Q 142 148 131 154 L 116 158 Q 100 158 91 152 L 89 150 L 88 150 L 84 147 L 74 138 L 74 136 L 69 135 Z " /><path fill="rgb(249,67,95)" stroke="rgb(249,67,95)" stroke-width="1" opacity="1" d="M 111.5 36 L 120.5 42 L 173 88.5 L 172 92.5 L 155.5 111 L 151.5 110 L 111.5 75 L 72.5 110 L 68.5 111 L 52 92.5 L 51 89.5 L 52 87 L 53.5 87 L 111.5 36 Z " /><path fill="rgb(90,84,240)" stroke="rgb(90,84,240)" stroke-width="1" opacity="1" d="M 69.5 135 L 77 140.5 L 80.5 145 L 95.5 155 L 109 158 Q 108.3 161.1 111 160.5 L 111 182.5 L 112 183.5 L 110.5 186 L 113 186.5 L 110 187.5 L 113.5 188 L 115.5 187 L 115.5 188 L 107.5 189 L 105.5 189 L 93.5 187 L 76.5 180 Q 62.4 171.6 52 159.5 L 49 155.5 L 49 151.5 L 69.5 135 Z " /><path fill="rgb(18,132,251)" stroke="rgb(18,132,251)" stroke-width="1" opacity="1" d="M 151.5 136 L 155.5 136 L 174 150 L 175 155.5 L 161.5 170 Q 152.2 178.7 139.5 184 L 126.5 188 L 114.5 189 L 110 187.5 L 113 186.5 L 110 185.5 Q 113.5 184 111 182.5 L 111 160.5 Q 108.3 161.1 109 158 L 120.5 158 L 129.5 155 Q 141.2 149.2 149 139.5 L 151.5 136 Z " /></svg>