<svg width="225" height="225" version="1.1" xmlns="http://www.w3.org/2000/svg" desc="Created with imagetracer.js version 1.2.6" ><path fill="rgb(88,101,242)" stroke="rgb(88,101,242)" stroke-width="1" opacity="1" d="M 104.5 0 L 120.5 0 Q 121.9 2.6 126.5 2 L 129.5 1 L 132.5 3 L 136 2 L 136.5 4 L 140 3 Q 138.9 5.7 141.5 5 L 145.5 5 Q 147.8 4.3 147 6.5 L 148.5 6 L 151.5 8 L 153 7.5 L 153.5 9 L 155 8.5 L 155.5 10 L 157.5 10 Q 160.8 8.9 160 11.5 L 162 11.5 L 162.5 13 L 164 12.5 L 164.5 14 L 166 13.5 L 166.5 15 Q 167.8 12.8 169 15.5 L 169.5 17 L 171 16.5 L 171.5 18 Q 172.8 15.8 174 18.5 L 174.5 20 Q 175.8 17.8 177 20.5 L 178.5 23 Q 179.8 20.8 181 23.5 L 182.5 26 L 183.5 25 L 187 28.5 L 195.5 38 L 200 41.5 Q 197.7 42.8 200.5 44 L 203 45.5 Q 200.7 46.8 203.5 48 L 206 49.5 L 205.5 51 L 208 52.5 L 207.5 54 L 209 54.5 L 208.5 56 L 211 57.5 L 210.5 59 L 212 59.5 L 211.5 61 L 213 61.5 L 212.5 63 L 214 63.5 L 213.5 65 Q 216.1 64.2 215 67.5 L 215.5 70 L 217 70.5 L 216.5 72 L 218 72.5 L 217 75 Q 219.7 73.9 219 76.5 L 218.5 78 Q 220.8 77.3 220 79.5 L 220 83.5 Q 219.3 86.1 222 85 L 222 87.5 L 221.5 89 Q 224.1 88.2 223 91.5 L 222 93.5 L 224 97.5 L 223 101.5 L 225 104.5 L 225 120.5 Q 222.4 121.9 223 126.5 L 224 129.5 L 222 132.5 L 223 136 L 221 136.5 L 222 140 Q 219.3 138.9 220 141.5 L 220 145.5 Q 220.8 147.8 218.5 147 L 219 148.5 L 217 151.5 L 217.5 153 L 216 153.5 L 216.5 155 L 215 155.5 L 215 157.5 Q 216.1 160.8 213.5 160 L 213.5 162 L 212 162.5 L 212.5 164 L 211 164.5 L 211.5 166 L 210 166.5 Q 212.3 167.8 209.5 169 L 208 169.5 L 208.5 171 L 207 171.5 Q 209.3 172.8 206.5 174 L 205 174.5 Q 207.3 175.8 204.5 177 L 202 178.5 Q 204.3 179.8 201.5 181 L 199 182.5 L 200 183.5 L 196.5 187 L 187 195.5 L 183.5 200 Q 182.2 197.7 181 200.5 L 179.5 203 Q 178.2 200.7 177 203.5 L 175.5 206 L 174 205.5 L 172.5 208 L 171 207.5 L 170.5 209 L 169 208.5 L 167.5 211 L 166 210.5 L 165.5 212 L 164 211.5 L 163.5 213 L 162 212.5 L 161.5 214 L 160 213.5 Q 160.8 216.1 157.5 215 L 155 215.5 L 154.5 217 L 153 216.5 L 152.5 218 L 150 217 Q 151.1 219.7 148.5 219 L 147 218.5 Q 147.8 220.8 145.5 220 L 141.5 220 Q 138.9 219.3 140 222 L 137.5 222 L 136 221.5 Q 136.8 224.1 133.5 223 L 131.5 222 L 127.5 224 L 123.5 223 L 120.5 225 L 104.5 225 Q 103.1 222.4 98.5 223 L 95.5 224 L 92.5 222 L 89 223 L 88.5 221 L 85 222 Q 86.1 219.3 83.5 220 L 79.5 220 Q 77.3 220.8 78 218.5 L 76.5 219 L 73.5 217 L 72 217.5 L 71.5 216 L 70 216.5 L 69.5 215 L 67.5 215 Q 64.2 216.1 65 213.5 L 63 213.5 L 62.5 212 L 61 212.5 L 60.5 211 L 59 211.5 L 58.5 210 Q 57.3 212.3 56 209.5 L 55.5 208 L 54 208.5 L 53.5 207 Q 52.3 209.3 51 206.5 L 50.5 205 Q 49.3 207.3 48 204.5 L 46.5 202 Q 45.3 204.3 44 201.5 L 42.5 199 L 41.5 200 L 38 196.5 L 29.5 187 L 25 183.5 Q 27.2 182.2 24.5 181 L 22 179.5 Q 24.3 178.2 21.5 177 L 19 175.5 L 19.5 174 L 17 172.5 L 17.5 171 L 16 170.5 L 16.5 169 L 14 167.5 L 14.5 166 L 13 165.5 L 13.5 164 L 12 163.5 L 12.5 162 L 11 161.5 L 11.5 160 Q 8.9 160.8 10 157.5 L 9.5 155 L 8 154.5 L 8.5 153 L 7 152.5 L 8 150 Q 5.3 151.1 6 148.5 L 6.5 147 Q 4.3 147.8 5 145.5 L 5 141.5 Q 5.7 138.9 3 140 L 3 137.5 L 3.5 136 Q 0.9 136.8 2 133.5 L 3 131.5 L 1 127.5 L 2 123.5 L 0 120.5 L 0 104.5 Q 2.6 103.1 2 98.5 L 1 95.5 L 3 92.5 L 2 89 L 4 88.5 L 3 85 Q 5.7 86.1 5 83.5 L 5 79.5 Q 4.3 77.3 6.5 78 L 6 76.5 L 8 73.5 L 7.5 72 L 9 71.5 L 8.5 70 L 10 69.5 L 10 67.5 Q 8.9 64.2 11.5 65 L 11.5 63 L 13 62.5 L 12.5 61 L 14 60.5 L 13.5 59 L 15 58.5 Q 12.8 57.3 15.5 56 L 17 55.5 L 16.5 54 L 18 53.5 Q 15.8 52.3 18.5 51 L 20 50.5 Q 17.8 49.3 20.5 48 L 23 46.5 Q 20.8 45.3 23.5 44 L 26 42.5 L 25 41.5 L 28.5 38 L 38 29.5 L 41.5 25 Q 42.8 27.2 44 24.5 L 45.5 22 Q 46.8 24.3 48 21.5 L 49.5 19 L 51 19.5 L 52.5 17 L 54 17.5 L 54.5 16 L 56 16.5 L 57.5 14 L 59 14.5 L 59.5 13 L 61 13.5 L 61.5 12 L 63 12.5 L 63.5 11 L 65 11.5 Q 64.2 8.9 67.5 10 L 70 9.5 L 70.5 8 L 72 8.5 L 72.5 7 L 75 8 Q 73.9 5.3 76.5 6 L 78 6.5 Q 77.3 4.3 79.5 5 L 83.5 5 Q 86.1 5.7 85 3 L 87.5 3 L 89 3.5 Q 88.2 0.9 91.5 2 L 93.5 3 L 97.5 1 L 101.5 2 L 104.5 0 Z M 93 61 L 91 63 L 89 62 Q 86 61 87 64 L 85 63 L 82 65 L 78 65 L 76 67 L 75 66 L 73 68 L 72 67 L 71 69 L 69 69 L 69 70 L 66 70 Q 67 73 65 72 Q 62 73 64 75 L 62 76 L 62 78 L 61 78 L 61 80 L 60 80 L 59 83 L 57 86 L 56 89 Q 57 91 55 90 L 55 92 L 54 92 Q 55 94 52 96 L 53 97 L 52 97 L 52 99 Q 53 101 50 100 L 51 103 L 49 103 L 50 107 L 48 108 L 49 111 Q 45 112 48 114 L 46 118 L 47 122 L 45 126 L 45 136 L 45 138 Q 44 145 47 148 L 49 147 L 50 150 L 52 149 L 53 152 L 55 152 Q 54 155 58 153 L 58 155 L 60 154 L 60 156 L 62 155 L 62 157 L 64 156 L 64 158 L 66 157 L 66 159 L 68 158 L 68 160 L 70 159 Q 72 158 71 161 L 73 160 L 73 162 L 76 161 L 77 163 L 79 162 L 80 164 L 82 163 L 81 162 L 84 160 L 83 159 L 86 157 L 85 156 L 87 155 L 86 154 L 88 153 L 86 150 L 85 150 L 84 148 L 82 149 L 81 148 L 78 147 Q 77 143 80 144 Q 81 147 83 145 L 83 147 L 86 147 Q 89 146 88 149 L 90 148 L 94 150 Q 95 148 97 151 L 99 150 L 103 152 L 105 151 L 121 151 L 122 152 L 125 150 L 129 151 Q 130 147 132 150 L 140 147 L 142 147 L 142 146 L 144 146 L 147 144 L 147 147 Q 143 145 144 149 Q 142 147 141 150 L 140 149 L 137 153 L 139 153 L 138 155 L 140 155 L 139 157 L 141 157 Q 143 158 141 160 L 143 160 Q 145 161 143 163 L 146 164 L 146 162 L 149 163 L 149 162 L 151 162 Q 153 163 152 161 Q 154 162 156 159 L 157 160 L 157 159 L 159 159 L 159 158 L 161 158 L 161 157 L 163 157 L 163 156 L 165 156 L 165 155 L 167 155 Q 166 152 170 153 L 170 152 L 172 152 L 172 151 Q 173 148 175 150 L 175 149 Q 176 146 178 148 L 180 145 L 180 126 L 178 123 L 179 120 L 177 116 L 178 113 Q 179 110 176 111 L 177 109 L 175 106 L 175 102 L 173 100 L 174 98 L 173 97 L 172 95 Q 173 91 171 92 L 171 91 L 170 90 L 169 88 Q 170 85 168 86 L 168 85 L 167 84 L 167 83 L 166 82 L 166 81 L 165 80 L 165 79 L 164 78 Q 161 77 163 76 L 162 75 L 161 72 Q 158 73 159 70 L 156 70 L 156 69 L 155 69 L 154 68 Q 152 69 151 66 L 150 67 L 148 65 L 147 66 L 145 64 L 144 65 L 141 63 Q 139 65 138 62 L 136 63 L 133 61 L 130 63 L 130 65 L 129 65 L 129 67 L 125 69 L 121 67 L 105 67 L 103 69 L 97 67 L 97 66 L 96 65 L 96 63 L 93 61 Z " /><path fill="rgb(88,101,242)" stroke="rgb(88,101,242)" stroke-width="1" opacity="1" d="M 89.5 104 L 93.5 106 L 95 105.5 L 95.5 107 L 97 106.5 Q 96.3 108.8 98.5 108 L 99.5 111 L 101 111.5 L 100.5 113 L 102 113.5 Q 99.8 114.8 101 119.5 L 102 122 L 100 122.5 L 100.5 124 L 99 124.5 L 99.5 126 Q 97.3 125.3 98 127.5 L 95 128.5 L 94.5 130 Q 93 127.5 91.5 131 L 87.5 129 L 86 129.5 L 85.5 128 L 84 128.5 L 82.5 126 L 80 124.5 L 80.5 123 Q 77.9 123.8 79 120.5 L 80 115.5 L 79 112 L 81 111.5 Q 78.8 110.2 81.5 109 L 84 107.5 L 84.5 106 L 86 106.5 L 86.5 105 Q 88 107.5 89.5 104 Z " /><path fill="rgb(88,101,242)" stroke="rgb(88,101,242)" stroke-width="1" opacity="1" d="M 133.5 104 L 137.5 106 L 139 105.5 L 139.5 107 L 141 106.5 L 142.5 109 L 145 110.5 L 144.5 112 Q 147.1 111.2 146 114.5 L 145 119.5 L 146 121.5 L 143.5 126 L 141 127.5 L 140.5 129 L 139 128.5 L 138.5 130 Q 137 127.5 135.5 131 L 131.5 129 L 130 129.5 L 129.5 128 Q 128.3 130.3 127 127.5 Q 127.8 125.3 125.5 126 L 125.5 124 L 124 123.5 L 124.5 122 Q 122.3 122.8 123 120.5 L 124 115.5 L 123 113 L 125 112.5 L 124.5 111 L 126 110.5 L 125 109.5 L 128.5 106 L 130 106.5 L 130.5 105 Q 132 107.5 133.5 104 Z " /><path fill="rgb(218,221,252)" stroke="rgb(218,221,252)" stroke-width="1" opacity="1" d="M 99.5 0 L 104 0.5 L 99.5 1 L 99.5 0 Z " /><path fill="rgb(218,221,252)" stroke="rgb(218,221,252)" stroke-width="1" opacity="1" d="M 121.5 0 L 126 0.5 L 121.5 1 L 121.5 0 Z " /><path fill="rgb(218,221,252)" stroke="rgb(218,221,252)" stroke-width="1" opacity="1" d="M 92.5 1 L 95 1.5 L 92.5 2 L 92.5 1 Z " /><path fill="rgb(218,221,252)" stroke="rgb(218,221,252)" stroke-width="1" opacity="1" d="M 130.5 1 L 133 1.5 L 130.5 2 L 130.5 1 Z " /><path fill="rgb(218,221,252)" stroke="rgb(218,221,252)" stroke-width="1" opacity="1" d="M 47.5 20 L 46.5 22 L 47.5 20 Z " /><path fill="rgb(218,221,252)" stroke="rgb(218,221,252)" stroke-width="1" opacity="1" d="M 177.5 20 L 178.5 22 L 177.5 20 Z " /><path fill="rgb(218,221,252)" stroke="rgb(218,221,252)" stroke-width="1" opacity="1" d="M 180.5 22 L 182.5 25 L 180.5 22 Z " /><path fill="rgb(218,221,252)" stroke="rgb(218,221,252)" stroke-width="1" opacity="1" d="M 43.5 23 L 42.5 25 L 43.5 23 Z " /><path fill="rgb(218,221,252)" stroke="rgb(218,221,252)" stroke-width="1" opacity="1" d="M 38.5 27 L 27.5 39 L 38.5 27 Z " /><path fill="rgb(218,221,252)" stroke="rgb(218,221,252)" stroke-width="1" opacity="1" d="M 186.5 27 L 197.5 39 L 186.5 27 Z " /><path fill="rgb(218,221,252)" stroke="rgb(218,221,252)" stroke-width="1" opacity="1" d="M 24.5 42 L 22.5 45 L 24.5 42 Z " /><path fill="rgb(218,221,252)" stroke="rgb(218,221,252)" stroke-width="1" opacity="1" d="M 200.5 42 L 202.5 45 L 200.5 42 Z " /><path fill="rgb(218,221,252)" stroke="rgb(218,221,252)" stroke-width="1" opacity="1" d="M 21.5 46 L 20.5 48 L 21.5 46 Z " /><path fill="rgb(218,221,252)" stroke="rgb(218,221,252)" stroke-width="1" opacity="1" d="M 203.5 46 L 204.5 48 L 203.5 46 Z " /><path fill="rgb(218,221,252)" stroke="rgb(218,221,252)" stroke-width="1" opacity="1" d="M 91.5 62 L 95 63.5 L 93.5 63 Q 90.5 63.5 91.5 62 Z " /><path fill="rgb(218,221,252)" stroke="rgb(218,221,252)" stroke-width="1" opacity="1" d="M 131.5 62 L 134 62.5 L 130.5 64 L 131.5 62 Z " /><path fill="rgb(218,221,252)" stroke="rgb(218,221,252)" stroke-width="1" opacity="1" d="M 136.5 63 L 139 63.5 L 136.5 64 L 136.5 63 Z " /><path fill="rgb(218,221,252)" stroke="rgb(218,221,252)" stroke-width="1" opacity="1" d="M 103.5 68 L 112 68.5 L 103.5 69 L 103.5 68 Z " /><path fill="rgb(218,221,252)" stroke="rgb(218,221,252)" stroke-width="1" opacity="1" d="M 113.5 68 L 122 68.5 L 113.5 69 L 113.5 68 Z " /><path fill="rgb(218,221,252)" stroke="rgb(218,221,252)" stroke-width="1" opacity="1" d="M 159.5 72 L 160.5 74 L 159.5 72 Z " /><path fill="rgb(218,221,252)" stroke="rgb(218,221,252)" stroke-width="1" opacity="1" d="M 63.5 75 L 62.5 77 L 63.5 75 Z " /><path fill="rgb(218,221,252)" stroke="rgb(218,221,252)" stroke-width="1" opacity="1" d="M 167.5 86 L 169 88.5 L 168 88.5 L 167.5 86 Z " /><path fill="rgb(218,221,252)" stroke="rgb(218,221,252)" stroke-width="1" opacity="1" d="M 1.5 92 L 2 94.5 L 1 94.5 L 1.5 92 Z " /><path fill="rgb(218,221,252)" stroke="rgb(218,221,252)" stroke-width="1" opacity="1" d="M 223.5 92 L 224 94.5 L 223 94.5 L 223.5 92 Z " /><path fill="rgb(218,221,252)" stroke="rgb(218,221,252)" stroke-width="1" opacity="1" d="M 0.5 99 L 1 103.5 L 0 103.5 L 0.5 99 Z " /><path fill="rgb(218,221,252)" stroke="rgb(218,221,252)" stroke-width="1" opacity="1" d="M 224.5 99 L 225 103.5 L 224 103.5 L 224.5 99 Z " /><path fill="rgb(218,221,252)" stroke="rgb(218,221,252)" stroke-width="1" opacity="1" d="M 83.5 106 L 81.5 109 L 83.5 106 Z " /><path fill="rgb(218,221,252)" stroke="rgb(218,221,252)" stroke-width="1" opacity="1" d="M 97.5 106 L 99.5 109 L 97.5 106 Z " /><path fill="rgb(218,221,252)" stroke="rgb(218,221,252)" stroke-width="1" opacity="1" d="M 127.5 106 L 125.5 109 L 127.5 106 Z " /><path fill="rgb(218,221,252)" stroke="rgb(218,221,252)" stroke-width="1" opacity="1" d="M 141.5 106 L 144.5 110 L 141.5 106 Z " /><path fill="rgb(218,221,252)" stroke="rgb(218,221,252)" stroke-width="1" opacity="1" d="M 48.5 111 L 49 113.5 L 48 113.5 L 48.5 111 Z " /><path fill="rgb(218,221,252)" stroke="rgb(218,221,252)" stroke-width="1" opacity="1" d="M 78.5 114 L 79 120.5 L 78 120.5 L 78.5 114 Z " /><path fill="rgb(218,221,252)" stroke="rgb(218,221,252)" stroke-width="1" opacity="1" d="M 146.5 114 L 147 120.5 L 146 120.5 L 146.5 114 Z " /><path fill="rgb(218,221,252)" stroke="rgb(218,221,252)" stroke-width="1" opacity="1" d="M 102.5 115 L 103 119.5 L 102 119.5 L 102.5 115 Z " /><path fill="rgb(218,221,252)" stroke="rgb(218,221,252)" stroke-width="1" opacity="1" d="M 122.5 115 L 123 119.5 L 122 119.5 L 122.5 115 Z " /><path fill="rgb(218,221,252)" stroke="rgb(218,221,252)" stroke-width="1" opacity="1" d="M 47.5 116 L 48 118.5 L 47 118.5 L 47.5 116 Z " /><path fill="rgb(218,221,252)" stroke="rgb(218,221,252)" stroke-width="1" opacity="1" d="M 177.5 116 L 178 118.5 L 177 118.5 L 177.5 116 Z " /><path fill="rgb(218,221,252)" stroke="rgb(218,221,252)" stroke-width="1" opacity="1" d="M 0.5 121 L 1 125.5 L 0 125.5 L 0.5 121 Z " /><path fill="rgb(218,221,252)" stroke="rgb(218,221,252)" stroke-width="1" opacity="1" d="M 224.5 121 L 225 125.5 L 224 125.5 L 224.5 121 Z " /><path fill="rgb(218,221,252)" stroke="rgb(218,221,252)" stroke-width="1" opacity="1" d="M 178.5 123 L 179 129.5 L 178 129.5 L 178.5 123 Z " /><path fill="rgb(218,221,252)" stroke="rgb(218,221,252)" stroke-width="1" opacity="1" d="M 46.5 124 L 47 131.5 L 46 131.5 L 46.5 124 Z " /><path fill="rgb(218,221,252)" stroke="rgb(218,221,252)" stroke-width="1" opacity="1" d="M 81.5 126 L 83.5 129 L 81.5 126 Z " /><path fill="rgb(218,221,252)" stroke="rgb(218,221,252)" stroke-width="1" opacity="1" d="M 99.5 126 L 97.5 129 L 99.5 126 Z " /><path fill="rgb(218,221,252)" stroke="rgb(218,221,252)" stroke-width="1" opacity="1" d="M 125.5 126 L 127.5 129 L 125.5 126 Z " /><path fill="rgb(218,221,252)" stroke="rgb(218,221,252)" stroke-width="1" opacity="1" d="M 143.5 126 L 141.5 129 L 143.5 126 Z " /><path fill="rgb(218,221,252)" stroke="rgb(218,221,252)" stroke-width="1" opacity="1" d="M 1.5 130 L 2 132.5 L 1 132.5 L 1.5 130 Z " /><path fill="rgb(218,221,252)" stroke="rgb(218,221,252)" stroke-width="1" opacity="1" d="M 223.5 130 L 224 132.5 L 223 132.5 L 223.5 130 Z " /><path fill="rgb(218,221,252)" stroke="rgb(218,221,252)" stroke-width="1" opacity="1" d="M 46.5 138 L 48 146.5 L 46 145.5 L 46.5 138 Z " /><path fill="rgb(218,221,252)" stroke="rgb(218,221,252)" stroke-width="1" opacity="1" d="M 178.5 139 L 179 145.5 L 177 146.5 L 178.5 139 Z " /><path fill="rgb(218,221,252)" stroke="rgb(218,221,252)" stroke-width="1" opacity="1" d="M 77.5 144 L 77.5 147 Q 74.5 145.5 77.5 144 Z " /><path fill="rgb(218,221,252)" stroke="rgb(218,221,252)" stroke-width="1" opacity="1" d="M 147.5 144 Q 150.5 145.5 147.5 147 L 147.5 144 Z " /><path fill="rgb(218,221,252)" stroke="rgb(218,221,252)" stroke-width="1" opacity="1" d="M 79.5 147 L 80.5 149 L 79.5 147 Z " /><path fill="rgb(218,221,252)" stroke="rgb(218,221,252)" stroke-width="1" opacity="1" d="M 145.5 147 L 144.5 149 L 145.5 147 Z " /><path fill="rgb(218,221,252)" stroke="rgb(218,221,252)" stroke-width="1" opacity="1" d="M 95.5 149 L 98 149.5 L 95.5 150 L 95.5 149 Z " /><path fill="rgb(218,221,252)" stroke="rgb(218,221,252)" stroke-width="1" opacity="1" d="M 127.5 149 L 130 149.5 L 127.5 150 L 127.5 149 Z " /><path fill="rgb(218,221,252)" stroke="rgb(218,221,252)" stroke-width="1" opacity="1" d="M 101.5 150 L 105 150.5 L 101.5 151 L 101.5 150 Z " /><path fill="rgb(218,221,252)" stroke="rgb(218,221,252)" stroke-width="1" opacity="1" d="M 120.5 150 L 124 150.5 L 120.5 151 L 120.5 150 Z " /><path fill="rgb(218,221,252)" stroke="rgb(218,221,252)" stroke-width="1" opacity="1" d="M 55.5 151 L 56.5 153 L 55.5 151 Z " /><path fill="rgb(218,221,252)" stroke="rgb(218,221,252)" stroke-width="1" opacity="1" d="M 169.5 151 L 168.5 153 L 169.5 151 Z " /><path fill="rgb(218,221,252)" stroke="rgb(218,221,252)" stroke-width="1" opacity="1" d="M 82.5 159 L 81.5 161 L 82.5 159 Z " /><path fill="rgb(218,221,252)" stroke="rgb(218,221,252)" stroke-width="1" opacity="1" d="M 142.5 159 L 143.5 161 L 142.5 159 Z " /><path fill="rgb(218,221,252)" stroke="rgb(218,221,252)" stroke-width="1" opacity="1" d="M 20.5 177 L 21.5 179 L 20.5 177 Z " /><path fill="rgb(218,221,252)" stroke="rgb(218,221,252)" stroke-width="1" opacity="1" d="M 204.5 177 L 203.5 179 L 204.5 177 Z " /><path fill="rgb(218,221,252)" stroke="rgb(218,221,252)" stroke-width="1" opacity="1" d="M 22.5 180 L 24.5 183 L 22.5 180 Z " /><path fill="rgb(218,221,252)" stroke="rgb(218,221,252)" stroke-width="1" opacity="1" d="M 202.5 180 L 200.5 183 L 202.5 180 Z " /><path fill="rgb(218,221,252)" stroke="rgb(218,221,252)" stroke-width="1" opacity="1" d="M 27.5 186 L 38.5 198 L 27.5 186 Z " /><path fill="rgb(218,221,252)" stroke="rgb(218,221,252)" stroke-width="1" opacity="1" d="M 197.5 186 L 186.5 198 L 197.5 186 Z " /><path fill="rgb(218,221,252)" stroke="rgb(218,221,252)" stroke-width="1" opacity="1" d="M 42.5 200 L 43.5 202 L 42.5 200 Z " /><path fill="rgb(218,221,252)" stroke="rgb(218,221,252)" stroke-width="1" opacity="1" d="M 182.5 200 L 181.5 202 L 182.5 200 Z " /><path fill="rgb(218,221,252)" stroke="rgb(218,221,252)" stroke-width="1" opacity="1" d="M 46.5 203 L 47.5 205 L 46.5 203 Z " /><path fill="rgb(218,221,252)" stroke="rgb(218,221,252)" stroke-width="1" opacity="1" d="M 178.5 203 L 177.5 205 L 178.5 203 Z " /><path fill="rgb(218,221,252)" stroke="rgb(218,221,252)" stroke-width="1" opacity="1" d="M 92.5 223 L 95 223.5 L 92.5 224 L 92.5 223 Z " /><path fill="rgb(218,221,252)" stroke="rgb(218,221,252)" stroke-width="1" opacity="1" d="M 130.5 223 L 133 223.5 L 130.5 224 L 130.5 223 Z " /><path fill="rgb(218,221,252)" stroke="rgb(218,221,252)" stroke-width="1" opacity="1" d="M 99.5 224 L 104 224.5 L 99.5 225 L 99.5 224 Z " /><path fill="rgb(218,221,252)" stroke="rgb(218,221,252)" stroke-width="1" opacity="1" d="M 121.5 224 L 126 224.5 L 121.5 225 L 121.5 224 Z " /><path fill="rgb(255,255,255)" stroke="rgb(255,255,255)" stroke-width="1" opacity="1" d="M 0 0 L 99 0.5 L 83.5 3 L 58.5 13 Q 40.2 23.2 27 38.5 Q 16.3 50.8 9 66.5 L 3 83.5 L 0.5 99 L 0 0 Z " /><path fill="rgb(255,255,255)" stroke="rgb(255,255,255)" stroke-width="1" opacity="1" d="M 126.5 0 L 225 0 L 225 98.5 L 224 98.5 L 222 83.5 L 212 58.5 Q 201.9 40.1 186.5 27 Q 174.2 16.3 158.5 9 L 141.5 3 L 126.5 1 L 126.5 0 Z " /><path fill="rgb(255,255,255)" stroke="rgb(255,255,255)" stroke-width="1" opacity="1" d="M 89.5 63 Q 94 62 95 64.5 L 97.5 70 L 98.5 69 L 111.5 69 L 112.5 68 L 113.5 69 L 125.5 69 L 128 70 L 131.5 63 Q 148 64.5 159 71.5 Q 169.6 85.9 175 105.5 L 178 119.5 L 179 138.5 Q 176.5 140 178 145.5 L 175.5 148 L 155.5 159 L 144 162 L 138 151.5 L 149 145.5 Q 148.3 143.3 144.5 144 Q 129.7 152.2 105.5 151 L 104.5 150 L 93.5 149 L 80.5 144 L 77.5 144 Q 74.5 145.5 77.5 147 L 87 151.5 L 81 162 L 69.5 159 Q 56.8 153.8 47 145.5 L 46 132.5 L 47 131.5 L 47 119.5 L 52 98.5 Q 57.6 82.1 67.5 70 L 89.5 63 Z M 88 104 L 84 106 L 78 115 Q 77 123 81 127 L 88 131 Q 95 132 98 129 L 103 120 L 103 116 L 100 109 Q 97 103 88 104 Z M 132 104 L 128 106 L 122 116 L 122 120 L 125 127 L 132 131 Q 139 132 142 129 L 147 121 Q 148 113 145 110 L 138 104 L 132 104 Z " /><path fill="rgb(255,255,255)" stroke="rgb(255,255,255)" stroke-width="1" opacity="1" d="M 0.5 126 L 3 141.5 L 13 166.5 Q 23.1 184.9 38.5 198 Q 50.8 208.7 66.5 216 L 83.5 222 L 99 224.5 L 0 225 L 0.5 126 Z " /><path fill="rgb(255,255,255)" stroke="rgb(255,255,255)" stroke-width="1" opacity="1" d="M 224.5 126 L 225 225 L 126 224.5 L 141.5 222 L 166.5 212 Q 184.8 201.8 198 186.5 Q 208.7 174.2 216 158.5 L 222 141.5 L 224.5 126 Z " /><path fill="rgb(74,89,241)" stroke="rgb(74,89,241)" stroke-width="1" opacity="1" d="M 98.5 1 L 102 1.5 L 98.5 2 L 98.5 1 Z " /><path fill="rgb(74,89,241)" stroke="rgb(74,89,241)" stroke-width="1" opacity="1" d="M 123.5 1 L 127 1.5 L 123.5 2 L 123.5 1 Z " /><path fill="rgb(74,89,241)" stroke="rgb(74,89,241)" stroke-width="1" opacity="1" d="M 47.5 21 L 46.5 23 L 47.5 21 Z " /><path fill="rgb(74,89,241)" stroke="rgb(74,89,241)" stroke-width="1" opacity="1" d="M 177.5 21 L 178.5 23 L 177.5 21 Z " /><path fill="rgb(74,89,241)" stroke="rgb(74,89,241)" stroke-width="1" opacity="1" d="M 43.5 24 L 42.5 26 L 43.5 24 Z " /><path fill="rgb(74,89,241)" stroke="rgb(74,89,241)" stroke-width="1" opacity="1" d="M 181.5 24 L 182.5 26 L 181.5 24 Z " /><path fill="rgb(74,89,241)" stroke="rgb(74,89,241)" stroke-width="1" opacity="1" d="M 37.5 29 L 29.5 38 L 37.5 29 Z " /><path fill="rgb(74,89,241)" stroke="rgb(74,89,241)" stroke-width="1" opacity="1" d="M 187.5 29 L 195.5 38 L 187.5 29 Z " /><path fill="rgb(74,89,241)" stroke="rgb(74,89,241)" stroke-width="1" opacity="1" d="M 25.5 42 L 24.5 44 L 25.5 42 Z " /><path fill="rgb(74,89,241)" stroke="rgb(74,89,241)" stroke-width="1" opacity="1" d="M 199.5 42 L 200.5 44 L 199.5 42 Z " /><path fill="rgb(74,89,241)" stroke="rgb(74,89,241)" stroke-width="1" opacity="1" d="M 22.5 46 L 21.5 48 L 22.5 46 Z " /><path fill="rgb(74,89,241)" stroke="rgb(74,89,241)" stroke-width="1" opacity="1" d="M 202.5 46 L 203.5 48 L 202.5 46 Z " /><path fill="rgb(74,89,241)" stroke="rgb(74,89,241)" stroke-width="1" opacity="1" d="M 97.5 67 L 100 68.5 L 97 69 L 97.5 67 Z " /><path fill="rgb(74,89,241)" stroke="rgb(74,89,241)" stroke-width="1" opacity="1" d="M 104.5 67 L 121 67.5 L 104.5 68 L 104.5 67 Z " /><path fill="rgb(74,89,241)" stroke="rgb(74,89,241)" stroke-width="1" opacity="1" d="M 127.5 67 L 128 69 L 125 68.5 L 127.5 67 Z " /><path fill="rgb(74,89,241)" stroke="rgb(74,89,241)" stroke-width="1" opacity="1" d="M 64.5 72 L 63.5 74 L 64.5 72 Z " /><path fill="rgb(74,89,241)" stroke="rgb(74,89,241)" stroke-width="1" opacity="1" d="M 160.5 72 L 161.5 74 L 160.5 72 Z " /><path fill="rgb(74,89,241)" stroke="rgb(74,89,241)" stroke-width="1" opacity="1" d="M 1.5 98 L 2 101.5 L 1 101.5 L 1.5 98 Z " /><path fill="rgb(74,89,241)" stroke="rgb(74,89,241)" stroke-width="1" opacity="1" d="M 223.5 98 L 224 101.5 L 223 101.5 L 223.5 98 Z " /><path fill="rgb(74,89,241)" stroke="rgb(74,89,241)" stroke-width="1" opacity="1" d="M 83.5 107 L 82.5 109 L 83.5 107 Z " /><path fill="rgb(74,89,241)" stroke="rgb(74,89,241)" stroke-width="1" opacity="1" d="M 141.5 107 L 142.5 109 L 141.5 107 Z " /><path fill="rgb(74,89,241)" stroke="rgb(74,89,241)" stroke-width="1" opacity="1" d="M 101.5 114 L 102 119.5 L 101 119.5 L 101.5 114 Z " /><path fill="rgb(74,89,241)" stroke="rgb(74,89,241)" stroke-width="1" opacity="1" d="M 79.5 115 L 80 119.5 L 79 119.5 L 79.5 115 Z " /><path fill="rgb(74,89,241)" stroke="rgb(74,89,241)" stroke-width="1" opacity="1" d="M 123.5 115 L 124 119.5 L 123 119.5 L 123.5 115 Z " /><path fill="rgb(74,89,241)" stroke="rgb(74,89,241)" stroke-width="1" opacity="1" d="M 145.5 115 L 146 119.5 L 145 119.5 L 145.5 115 Z " /><path fill="rgb(74,89,241)" stroke="rgb(74,89,241)" stroke-width="1" opacity="1" d="M 46.5 117 L 47 120.5 L 46 120.5 L 46.5 117 Z " /><path fill="rgb(74,89,241)" stroke="rgb(74,89,241)" stroke-width="1" opacity="1" d="M 178.5 117 L 179 119.5 L 178 119.5 L 178.5 117 Z " /><path fill="rgb(74,89,241)" stroke="rgb(74,89,241)" stroke-width="1" opacity="1" d="M 1.5 123 L 2 126.5 L 1 126.5 L 1.5 123 Z " /><path fill="rgb(74,89,241)" stroke="rgb(74,89,241)" stroke-width="1" opacity="1" d="M 223.5 123 L 224 126.5 L 223 126.5 L 223.5 123 Z " /><path fill="rgb(74,89,241)" stroke="rgb(74,89,241)" stroke-width="1" opacity="1" d="M 45.5 125 L 46 135.5 L 45 135.5 L 45.5 125 Z " /><path fill="rgb(74,89,241)" stroke="rgb(74,89,241)" stroke-width="1" opacity="1" d="M 179.5 125 L 180 144.5 L 179 144.5 L 179.5 125 Z " /><path fill="rgb(74,89,241)" stroke="rgb(74,89,241)" stroke-width="1" opacity="1" d="M 82.5 126 L 83.5 128 L 82.5 126 Z " /><path fill="rgb(74,89,241)" stroke="rgb(74,89,241)" stroke-width="1" opacity="1" d="M 142.5 126 L 141.5 128 L 142.5 126 Z " /><path fill="rgb(74,89,241)" stroke="rgb(74,89,241)" stroke-width="1" opacity="1" d="M 45.5 137 L 46 143.5 L 45 143.5 L 45.5 137 Z " /><path fill="rgb(74,89,241)" stroke="rgb(74,89,241)" stroke-width="1" opacity="1" d="M 79.5 146 L 80.5 148 L 79.5 146 Z " /><path fill="rgb(74,89,241)" stroke="rgb(74,89,241)" stroke-width="1" opacity="1" d="M 21.5 177 L 22.5 179 L 21.5 177 Z " /><path fill="rgb(74,89,241)" stroke="rgb(74,89,241)" stroke-width="1" opacity="1" d="M 203.5 177 L 202.5 179 L 203.5 177 Z " /><path fill="rgb(74,89,241)" stroke="rgb(74,89,241)" stroke-width="1" opacity="1" d="M 24.5 181 L 25.5 183 L 24.5 181 Z " /><path fill="rgb(74,89,241)" stroke="rgb(74,89,241)" stroke-width="1" opacity="1" d="M 200.5 181 L 199.5 183 L 200.5 181 Z " /><path fill="rgb(74,89,241)" stroke="rgb(74,89,241)" stroke-width="1" opacity="1" d="M 29.5 187 L 37.5 196 L 29.5 187 Z " /><path fill="rgb(74,89,241)" stroke="rgb(74,89,241)" stroke-width="1" opacity="1" d="M 195.5 187 L 187.5 196 L 195.5 187 Z " /><path fill="rgb(74,89,241)" stroke="rgb(74,89,241)" stroke-width="1" opacity="1" d="M 42.5 199 L 43.5 201 L 42.5 199 Z " /><path fill="rgb(74,89,241)" stroke="rgb(74,89,241)" stroke-width="1" opacity="1" d="M 182.5 199 L 181.5 201 L 182.5 199 Z " /><path fill="rgb(74,89,241)" stroke="rgb(74,89,241)" stroke-width="1" opacity="1" d="M 46.5 202 L 47.5 204 L 46.5 202 Z " /><path fill="rgb(74,89,241)" stroke="rgb(74,89,241)" stroke-width="1" opacity="1" d="M 178.5 202 L 177.5 204 L 178.5 202 Z " /><path fill="rgb(74,89,241)" stroke="rgb(74,89,241)" stroke-width="1" opacity="1" d="M 98.5 223 L 102 223.5 L 98.5 224 L 98.5 223 Z " /><path fill="rgb(74,89,241)" stroke="rgb(74,89,241)" stroke-width="1" opacity="1" d="M 123.5 223 L 127 223.5 L 123.5 224 L 123.5 223 Z " /></svg>