<?xml version="1.0" encoding="UTF-8"?>
<svg version="1.1" xmlns="http://www.w3.org/2000/svg" width="256" height="256">
<path d="M0 0 C22.03852652 18.81159856 36.46579334 41.06373377 44.3515625 68.91015625 C44.69316406 70.08835937 45.03476563 71.2665625 45.38671875 72.48046875 C52.92056498 104.36791093 46.53869956 140.38566089 29.7109375 168.21484375 C11.42243893 197.30470432 -15.82417005 216.61472176 -48.6484375 225.91015625 C-49.82664063 226.25175781 -51.00484375 226.59335938 -52.21875 226.9453125 C-78.47842447 233.1495213 -108.14583514 229.67794972 -132.6484375 218.91015625 C-133.30263672 218.62688477 -133.95683594 218.34361328 -134.63085938 218.05175781 C-164.72593234 204.76588414 -188.43262339 179.18859339 -200.51953125 148.71386719 C-202.47890077 143.51521742 -204.1350825 138.25415274 -205.6484375 132.91015625 C-205.99003906 131.73195312 -206.33164063 130.55375 -206.68359375 129.33984375 C-214.21743998 97.45240157 -207.83557456 61.43465161 -191.0078125 33.60546875 C-172.71931393 4.51560818 -145.47270495 -14.79440926 -112.6484375 -24.08984375 C-111.47023438 -24.43144531 -110.29203125 -24.77304687 -109.078125 -25.125 C-71.91216204 -33.90596927 -29.43835184 -24.14652242 0 0 Z M-107.6484375 41.91015625 C-108.49921875 42.48121094 -109.35 43.05226563 -110.2265625 43.640625 C-120.96733875 50.83325694 -131.79800513 57.88431479 -142.6484375 64.91015625 C-141.2799808 68.07966472 -139.82469136 69.86526159 -137.12890625 72.00390625 C-136.43603516 72.55949219 -135.74316406 73.11507812 -135.02929688 73.6875 C-134.30548828 74.25597656 -133.58167969 74.82445312 -132.8359375 75.41015625 C-132.12373047 75.97863281 -131.41152344 76.54710937 -130.67773438 77.1328125 C-128.67284737 78.73152905 -126.66114893 80.32131108 -124.6484375 81.91015625 C-122.98092715 83.2424343 -121.31382657 84.57522749 -119.6484375 85.91015625 C-116.30997951 84.64760947 -113.29396632 83.2187556 -110.2421875 81.37109375 C-109.42137695 80.87641602 -108.60056641 80.38173828 -107.75488281 79.87207031 C-106.89475586 79.34838867 -106.03462891 78.82470703 -105.1484375 78.28515625 C-104.26510742 77.75116211 -103.38177734 77.21716797 -102.47167969 76.66699219 C-95.50814874 72.45135623 -88.56543367 68.20172322 -81.6484375 63.91015625 C-85.61548282 59.83651086 -89.7894359 56.07014867 -94.0859375 52.34765625 C-94.72853516 51.78369141 -95.37113281 51.21972656 -96.03320312 50.63867188 C-99.74920067 47.41311056 -103.48840875 44.53991168 -107.6484375 41.91015625 Z M-61.5859375 47.91015625 C-67.48791163 53.07447176 -73.45989338 58.09037248 -79.6484375 62.91015625 C-76.36589679 65.62242974 -73.05683545 67.9918034 -69.41015625 70.1875 C-68.42466797 70.78369141 -67.43917969 71.37988281 -66.42382812 71.99414062 C-65.40482422 72.60580078 -64.38582031 73.21746094 -63.3359375 73.84765625 C-61.31875317 75.06467789 -59.30182137 76.2821182 -57.28515625 77.5 C-56.32270996 78.07476074 -55.36026367 78.64952148 -54.36865234 79.24169922 C-52.64527234 80.29874275 -50.94371726 81.39297446 -49.27587891 82.53564453 C-48.23246338 83.24889893 -48.23246338 83.24889893 -47.16796875 83.9765625 C-46.57733643 84.4001001 -45.9867041 84.8236377 -45.37817383 85.26000977 C-43.61034435 86.13573253 -43.61034435 86.13573253 -41.66064453 85.2121582 C-39.64308665 83.90669397 -37.78839608 82.53960158 -35.93359375 81.01171875 C-35.24716797 80.4496875 -34.56074219 79.88765625 -33.85351562 79.30859375 C-33.14646484 78.72335938 -32.43941406 78.138125 -31.7109375 77.53515625 C-30.30608206 76.3813978 -28.90113623 75.22774941 -27.49609375 74.07421875 C-26.83625488 73.52797852 -26.17641602 72.98173828 -25.49658203 72.41894531 C-23.90555734 71.12006386 -22.27816073 69.86596615 -20.64453125 68.62109375 C-19.98582031 68.05648437 -19.32710937 67.491875 -18.6484375 66.91015625 C-18.6484375 66.25015625 -18.6484375 65.59015625 -18.6484375 64.91015625 C-20.65060459 63.32643964 -20.65060459 63.32643964 -23.2578125 61.71484375 C-24.23540527 61.08457275 -25.21299805 60.45430176 -26.22021484 59.80493164 C-27.26902832 59.13840576 -28.3178418 58.47187988 -29.3984375 57.78515625 C-31.51073333 56.42757591 -33.62271536 55.06950719 -35.734375 53.7109375 C-37.26529785 52.72988037 -37.26529785 52.72988037 -38.82714844 51.72900391 C-43.1731647 48.92718484 -47.45585682 46.03653305 -51.734375 43.1328125 C-55.89206455 40.47698224 -58.46020997 45.15509222 -61.5859375 47.91015625 Z M-123.31640625 90.796875 C-124.04537109 91.40595703 -124.77433594 92.01503906 -125.52539062 92.64257812 C-126.28787109 93.28775391 -127.05035156 93.93292969 -127.8359375 94.59765625 C-132.9755974 98.92602552 -138.12265764 103.08236437 -143.6484375 106.91015625 C-140.30088654 110.62212414 -136.57213332 112.98397297 -132.3359375 115.53515625 C-127.95588459 118.20415616 -123.61680139 120.89461384 -119.40234375 123.8203125 C-118.72921143 124.28550293 -118.0560791 124.75069336 -117.36254883 125.22998047 C-116.07527319 126.12635314 -114.79482718 127.03263269 -113.5222168 127.94970703 C-110.38198498 130.2908162 -110.38198498 130.2908162 -106.65014648 130.67358398 C-103.20314729 129.35893994 -100.67424031 126.71565589 -97.9609375 124.28515625 C-96.71623614 123.19242235 -95.47014129 122.10127368 -94.22265625 121.01171875 C-93.61599121 120.48094727 -93.00932617 119.95017578 -92.38427734 119.40332031 C-88.92163861 116.42476919 -85.29895717 113.65287473 -81.6484375 110.91015625 C-85.0149726 108.13278385 -88.43680875 105.68509213 -92.140625 103.37890625 C-93.69330078 102.41017578 -93.69330078 102.41017578 -95.27734375 101.421875 C-96.34855469 100.75800781 -97.41976562 100.09414062 -98.5234375 99.41015625 C-99.58691406 98.74628906 -100.65039062 98.08242187 -101.74609375 97.3984375 C-112.35773732 89.07616576 -112.35773732 89.07616576 -123.31640625 90.796875 Z M-47.65625 90.18359375 C-48.47125977 90.6744043 -49.28626953 91.16521484 -50.12597656 91.67089844 C-50.99963867 92.20360352 -51.87330078 92.73630859 -52.7734375 93.28515625 C-53.66256836 93.82301758 -54.55169922 94.36087891 -55.46777344 94.91503906 C-63.57752094 99.83416117 -71.62800531 104.84697839 -79.6484375 109.91015625 C-75.83207418 113.83493898 -71.81956736 117.42986967 -67.6484375 120.97265625 C-67.04515625 121.48892578 -66.441875 122.00519531 -65.8203125 122.53710938 C-64.64323566 123.54146298 -63.461098 124.53992247 -62.2734375 125.53173828 C-60.82219178 126.76276793 -59.41900538 128.04994227 -58.0234375 129.34375 C-55.79858393 131.16177166 -55.79858393 131.16177166 -53.33886719 130.71972656 C-50.17982343 129.76914679 -47.95454092 128.37824352 -45.2265625 126.5234375 C-43.68742187 125.48606445 -43.68742187 125.48606445 -42.1171875 124.42773438 C-40.52390625 123.3362207 -40.52390625 123.3362207 -38.8984375 122.22265625 C-37.85171875 121.51431641 -36.805 120.80597656 -35.7265625 120.07617188 C-33.66914983 118.68356067 -31.61375364 117.28796496 -29.56054688 115.88916016 C-25.6075366 113.20278345 -21.63124557 110.55208561 -17.6484375 107.91015625 C-21.39397018 104.0014659 -25.36317457 100.64859063 -29.6484375 97.34765625 C-30.85690563 96.40902769 -32.0652413 95.47022857 -33.2734375 94.53125 C-33.84707031 94.08894043 -34.42070312 93.64663086 -35.01171875 93.19091797 C-36.51755497 92.01257417 -37.99103605 90.79318885 -39.4609375 89.5703125 C-42.92490639 86.94140754 -44.2046988 88.09488022 -47.65625 90.18359375 Z M-86.0859375 119.84765625 C-92.28933865 125.5461294 -98.62875983 131.23037114 -105.6484375 135.91015625 C-110.31651315 135.65081871 -113.74648193 133.28193316 -117.6484375 130.91015625 C-118.21616972 134.20999323 -118.21616972 134.20999323 -117.6484375 137.91015625 C-115.3338845 139.93881961 -113.51010771 141.20439191 -110.859375 142.64453125 C-110.1633316 143.04923645 -109.46728821 143.45394165 -108.75015259 143.87091064 C-106.52118289 145.15894531 -104.27344008 146.4092992 -102.0234375 147.66015625 C-100.53119747 148.51587124 -99.04029351 149.37392065 -97.55078125 150.234375 C-92.50272158 153.13438424 -92.50272158 153.13438424 -87.40182495 155.93981934 C-85.75437028 156.85153231 -84.16218876 157.86114758 -82.57617188 158.87597656 C-79.61184779 160.27226043 -79.61184779 160.27226043 -76.52392578 158.76953125 C-75.43321777 158.0734375 -74.34250977 157.37734375 -73.21875 156.66015625 C-72.32771072 156.10557739 -72.32771072 156.10557739 -71.41867065 155.53979492 C-69.5218742 154.35200593 -67.64827351 153.13224658 -65.7734375 151.91015625 C-64.52092784 151.11758032 -63.2670317 150.32719096 -62.01171875 149.5390625 C-59.60818839 148.02615961 -57.2172587 146.49604986 -54.83496094 144.94995117 C-52.18859417 143.2559277 -49.51363848 141.66188902 -46.796875 140.0859375 C-45.75789063 139.36792969 -44.71890625 138.64992187 -43.6484375 137.91015625 C-42.97919988 134.19759172 -42.97919988 134.19759172 -43.6484375 130.91015625 C-44.25171875 131.28269531 -44.855 131.65523437 -45.4765625 132.0390625 C-46.27578125 132.51214844 -47.075 132.98523438 -47.8984375 133.47265625 C-48.68734375 133.94832031 -49.47625 134.42398438 -50.2890625 134.9140625 C-52.6484375 135.91015625 -52.6484375 135.91015625 -54.6328125 135.80859375 C-57.37232621 134.58749268 -59.35914554 132.91105971 -61.6484375 130.97265625 C-62.60621094 130.17085937 -63.56398437 129.3690625 -64.55078125 128.54296875 C-65.58414272 127.66631776 -66.61666782 126.78868013 -67.6484375 125.91015625 C-69.29930997 124.50517921 -70.95110851 123.10144154 -72.60742188 121.70288086 C-74.1477791 120.4010351 -75.68146186 119.09130449 -77.21484375 117.78125 C-81.46502897 114.51345109 -82.54368472 116.53210765 -86.0859375 119.84765625 Z " fill="#0655DC" transform="translate(208.6484375,27.08984375)"/>
</svg>
