<?xml version="1.0" encoding="UTF-8"?>
<svg version="1.1" xmlns="http://www.w3.org/2000/svg" width="512" height="512">
<path d="M0 0 C0.91479319 -0.00297112 1.82958637 -0.00594224 2.77210057 -0.0090034 C5.80861735 -0.01760982 8.84509434 -0.01919173 11.88162231 -0.02069092 C14.07049645 -0.02532465 16.25936978 -0.03035006 18.44824219 -0.03573608 C24.3738863 -0.04880491 30.29951912 -0.05529373 36.22517538 -0.05974674 C39.93164438 -0.06268521 43.63811033 -0.06679137 47.34457779 -0.07125092 C58.95447203 -0.08490868 70.56435926 -0.09458486 82.17426097 -0.09845281 C83.49372537 -0.0988949 84.81318977 -0.09933699 86.17263794 -0.09979248 C86.83373291 -0.10001391 87.49482788 -0.10023534 88.17595603 -0.10046348 C98.22240402 -0.10416627 108.26879199 -0.11899316 118.31521606 -0.14080811 C130.00633616 -0.16610978 141.69740906 -0.18098647 153.38855755 -0.18249393 C159.5681795 -0.18354001 165.74770526 -0.18940666 171.92730331 -0.20731354 C177.74025866 -0.22383231 183.55304588 -0.2259312 189.36601639 -0.21717453 C191.49278973 -0.21640631 193.61957226 -0.2207183 195.74632263 -0.23063278 C216.57661324 -0.32200567 233.79420593 3.13262508 249.36282349 17.86114502 C260.0355868 28.55040411 267.52740996 43.80152744 267.6511091 59.01002383 C267.6480119 59.85475796 267.64491469 60.69949209 267.64172363 61.56982422 C267.64625475 62.48795371 267.65078586 63.40608321 267.65545428 64.35203481 C267.66806134 67.41274067 267.66648019 70.47326772 267.66482544 73.53399658 C267.67081367 75.73602526 267.67761989 77.93805184 267.68518066 80.14007568 C267.70283461 86.11650925 267.70753627 92.0928855 267.70881224 98.06934261 C267.71023666 101.81512734 267.71451217 105.56089764 267.71980667 109.30667877 C267.73736205 121.73453711 267.74664711 134.16236774 267.74514572 146.59023699 C267.74502585 147.59397025 267.74502585 147.59397025 267.74490356 148.61798096 C267.7448218 149.28797242 267.74474004 149.95796388 267.7446558 150.64825812 C267.74384668 161.45385939 267.76288865 172.25931999 267.7911803 183.0648807 C267.82011837 194.20719741 267.83334511 205.34945657 267.83199275 216.49181294 C267.83148707 222.72788996 267.83694695 228.96380836 267.85834885 235.19985199 C268.01975875 285.70768408 268.01975875 285.70768408 263.3742981 308.14044189 C263.21753098 308.91444179 263.06076385 309.68844168 262.89924622 310.48589611 C262.086209 314.43530361 261.14633687 318.31950062 260.0617981 322.20294189 C259.76257446 323.31032715 259.46335083 324.4177124 259.15505981 325.55865479 C256.45451255 335.31439944 253.25489253 344.79318444 249.3742981 354.14044189 C249.04204224 354.94497803 248.70978638 355.74951416 248.36746216 356.57843018 C235.4595375 387.41670126 216.38968092 414.06076392 193.3742981 438.14044189 C192.66789185 438.88809814 191.9614856 439.63575439 191.2336731 440.40606689 C186.00413134 445.80567505 180.25175694 450.46725619 174.3742981 455.14044189 C173.30076698 456.01599113 172.22786812 456.89231606 171.1555481 457.76934814 C162.3268817 464.92772631 153.08073614 471.23226973 143.3742981 477.14044189 C142.68416626 477.5618042 141.99403442 477.9831665 141.2829895 478.41729736 C102.07419875 502.02738745 57.20039235 512.6259955 11.7492981 512.45294189 C10.22194031 512.44970917 10.22194031 512.44970917 8.66372681 512.44641113 C-5.95464686 512.39672785 -20.26203106 512.10403856 -34.6257019 509.14044189 C-36.16049194 508.83445068 -36.16049194 508.83445068 -37.72628784 508.52227783 C-59.27746866 504.13801333 -79.83599104 497.76336248 -99.6257019 488.14044189 C-100.52047241 487.70602783 -101.41524292 487.27161377 -102.33712769 486.82403564 C-120.05677469 478.12028565 -136.55120693 467.94045448 -151.6257019 455.14044189 C-152.69703723 454.25338576 -153.76867472 453.3666945 -154.84054565 452.48028564 C-167.27205881 442.10909046 -178.69858385 430.958424 -188.6257019 418.14044189 C-189.41203003 417.15946533 -190.19835815 416.17848877 -191.0085144 415.16778564 C-197.84970047 406.56805441 -203.87282626 397.49750277 -209.6257019 388.14044189 C-210.02144409 387.49768311 -210.41718628 386.85492432 -210.82492065 386.19268799 C-221.78693459 368.14558398 -229.63939692 348.3432405 -235.6257019 328.14044189 C-235.86127808 327.34670166 -236.09685425 326.55296143 -236.33956909 325.73516846 C-238.02060143 319.91989969 -239.40206648 314.0680183 -240.6257019 308.14044189 C-240.82325073 307.19604248 -241.02079956 306.25164307 -241.22433472 305.27862549 C-247.16942636 275.37316042 -247.74504293 241.03320107 -241.6257019 211.14044189 C-241.33566284 209.64553223 -241.33566284 209.64553223 -241.0397644 208.12042236 C-234.07495991 172.87184775 -220.51685011 139.44341837 -199.6257019 110.14044189 C-199.19918335 109.53973877 -198.77266479 108.93903564 -198.33322144 108.32012939 C-195.85083398 104.85586454 -193.27025347 101.48196873 -190.6257019 98.14044189 C-189.94636597 97.26903564 -189.26703003 96.39762939 -188.56710815 95.49981689 C-146.59099181 42.81786537 -84.25845914 8.83752293 -17.45192707 0.88156819 C-11.61464149 0.25477178 -5.86825434 -0.00609492 0 0 Z " fill="#25C16F" transform="translate(244.62570190429688,-0.14044189453125)"/>
<path d="M0 0 C1.49319517 1.29651782 2.97271237 2.60897169 4.4375 3.9375 C5.25089844 4.62199219 6.06429687 5.30648437 6.90234375 6.01171875 C24.09508128 20.76727315 36.16731048 40.52277101 42.3125 62.25 C42.51576904 62.96631592 42.71903809 63.68263184 42.9284668 64.4206543 C45.25316591 73.20497642 45.58705423 82.1078029 45.63037109 91.15380859 C45.64263733 92.60475166 45.64263733 92.60475166 45.65515137 94.08500671 C45.67974768 97.2519777 45.69645022 100.41890483 45.7109375 103.5859375 C45.71626118 104.67607777 45.72158485 105.76621803 45.72706985 106.88939285 C45.75368323 112.65444482 45.77309963 118.41947596 45.78759766 124.18457031 C45.80094982 128.93313804 45.82884412 133.68127742 45.86962891 138.4296875 C45.91910318 144.19251209 45.94373527 149.95494777 45.95082474 155.71797562 C45.95750624 157.90189501 45.97264654 160.08580675 45.99671555 162.26960373 C46.15352408 177.35064495 45.48557232 188.91588128 35.3828125 200.96484375 C29.49275212 206.93769614 23.65265238 209.63350756 15.4375 210.9375 C15.48390625 211.58074219 15.5303125 212.22398437 15.578125 212.88671875 C16.07425857 225.30777695 12.32541864 235.41469224 4.4375 244.9375 C3.93734375 245.57300781 3.4371875 246.20851563 2.921875 246.86328125 C-3.79480915 254.5128382 -15.80685738 260.3058829 -25.9395752 261.13108826 C-28.69592719 261.21727698 -31.44542392 261.24089758 -34.203125 261.23828125 C-35.70912262 261.24470894 -35.70912262 261.24470894 -37.24554443 261.25126648 C-39.35672249 261.25698585 -41.46792025 261.25752778 -43.57910156 261.25317383 C-46.81609225 261.24999647 -50.05218347 261.273563 -53.2890625 261.29882812 C-55.34374885 261.30109955 -57.39843765 261.30180535 -59.453125 261.30078125 C-60.42187561 261.309991 -61.39062622 261.31920074 -62.38873291 261.32868958 C-63.73593414 261.31934639 -63.73593414 261.31934639 -65.11035156 261.30981445 C-65.89976135 261.31044388 -66.68917114 261.3110733 -67.50250244 261.3117218 C-70.09549857 260.84067479 -70.98071451 260.01192161 -72.5625 257.9375 C-72.9375 255.4375 -72.9375 255.4375 -72.5625 252.9375 C-70.97324495 250.84670701 -70.08988133 250.03156852 -67.47799683 249.56568909 C-66.67685455 249.56665085 -65.87571228 249.56761261 -65.05029297 249.56860352 C-64.13859344 249.56172012 -63.22689392 249.55483673 -62.28756714 249.54774475 C-61.30321686 249.55390305 -60.31886658 249.56006134 -59.3046875 249.56640625 C-57.21354013 249.54901227 -55.12239433 249.53142803 -53.03125 249.51367188 C-49.73987778 249.50363123 -46.44861341 249.49999421 -43.15722656 249.50170898 C-39.97688977 249.49811782 -36.7973766 249.47068351 -33.6171875 249.44140625 C-32.6449826 249.44958878 -31.67277771 249.4577713 -30.67111206 249.46620178 C-20.86953087 249.36050334 -12.67421707 245.70413375 -5.5625 238.9375 C1.11410919 230.7956621 3.26844039 223.45903652 4.4375 212.9375 C-5.1325 212.9375 -14.7025 212.9375 -24.5625 212.9375 C-24.5625 182.9075 -24.5625 152.8775 -24.5625 121.9375 C-9.7125 121.9375 5.1375 121.9375 20.4375 121.9375 C20.334375 116.78125 20.23125 111.625 20.125 106.3125 C20.08765747 103.91943604 20.08765747 103.91943604 20.04956055 101.47802734 C19.43818777 77.38309739 11.56328298 56.17847637 -4.9375 38.375 C-5.80375 37.570625 -6.67 36.76625 -7.5625 35.9375 C-8.21089844 35.28394531 -8.85929688 34.63039062 -9.52734375 33.95703125 C-27.8603162 16.23414108 -52.11786417 10.25974457 -76.97265625 10.6015625 C-100.1412539 11.40980823 -121.8517627 23.05448706 -137.66796875 39.703125 C-151.46553967 55.97572411 -160.27761883 76.0488867 -160.87890625 97.5234375 C-160.91701416 98.80782715 -160.95512207 100.0922168 -160.99438477 101.41552734 C-161.05903931 103.83952881 -161.05903931 103.83952881 -161.125 106.3125 C-161.269375 111.46875 -161.41375 116.625 -161.5625 121.9375 C-146.7125 121.9375 -131.8625 121.9375 -116.5625 121.9375 C-116.5625 151.9675 -116.5625 181.9975 -116.5625 212.9375 C-165.41317873 212.9375 -165.41317873 212.9375 -178.3125 200.2109375 C-185.93591394 191.86329923 -188.86432772 182.42007162 -188.85302734 171.28637695 C-188.85974457 170.33090973 -188.86646179 169.3754425 -188.87338257 168.39102173 C-188.89235539 165.23588831 -188.89628799 162.08096817 -188.8984375 158.92578125 C-188.90487146 156.71542781 -188.91160026 154.5050752 -188.91860962 152.29472351 C-188.93058459 147.65536532 -188.93429077 143.01608154 -188.93310547 138.37670898 C-188.93290354 132.48207711 -188.96007338 126.58793423 -188.99464989 120.69341755 C-189.01709756 116.12122998 -189.02093741 111.54915616 -189.01988602 106.97691917 C-189.02222029 104.80718507 -189.03091854 102.63744676 -189.04655075 100.46776772 C-189.15931722 83.18204956 -187.66667093 66.6303889 -180.8125 50.5625 C-180.46743408 49.73218262 -180.12236816 48.90186523 -179.7668457 48.04638672 C-167.59350381 19.57651879 -143.80646708 -3.67543482 -115.125 -15.375 C-77.50628298 -29.60056526 -32.19902919 -25.24524824 0 0 Z " fill="#FDFEFE" transform="translate(326.5625,137.0625)"/>
</svg>
