<svg width="512" height="512" version="1.1" xmlns="http://www.w3.org/2000/svg" desc="Created with imagetracer.js version 1.2.6" ><path fill="rgb(253,246,242)" stroke="rgb(253,246,242)" stroke-width="1" opacity="1" d="M 107.5 47 L 105.5 50 L 107.5 47 Z " /><path fill="rgb(253,246,242)" stroke="rgb(253,246,242)" stroke-width="1" opacity="1" d="M 382.5 47 L 380.5 50 L 382.5 47 Z " /><path fill="rgb(253,246,242)" stroke="rgb(253,246,242)" stroke-width="1" opacity="1" d="M 36.5 232 L 37 234.5 L 36 234.5 L 36.5 232 Z " /><path fill="rgb(253,246,242)" stroke="rgb(253,246,242)" stroke-width="1" opacity="1" d="M 474.5 235 L 475 237.5 L 474 237.5 L 474.5 235 Z " /><path fill="rgb(253,246,242)" stroke="rgb(253,246,242)" stroke-width="1" opacity="1" d="M 35.5 239 L 36 244.5 L 35 244.5 L 35.5 239 Z " /><path fill="rgb(253,246,242)" stroke="rgb(253,246,242)" stroke-width="1" opacity="1" d="M 475.5 243 L 476 259.5 L 475 259.5 L 475.5 243 Z " /><path fill="rgb(253,246,242)" stroke="rgb(253,246,242)" stroke-width="1" opacity="1" d="M 35.5 258 L 36 263.5 L 35 263.5 L 35.5 258 Z " /><path fill="rgb(253,246,242)" stroke="rgb(253,246,242)" stroke-width="1" opacity="1" d="M 474.5 265 L 475 267.5 L 474 267.5 L 474.5 265 Z " /><path fill="rgb(253,246,242)" stroke="rgb(253,246,242)" stroke-width="1" opacity="1" d="M 36.5 268 L 37 270.5 L 36 270.5 L 36.5 268 Z " /><path fill="rgb(253,246,242)" stroke="rgb(253,246,242)" stroke-width="1" opacity="1" d="M 52.5 311 L 53.5 313 L 52.5 311 Z " /><path fill="rgb(253,246,242)" stroke="rgb(253,246,242)" stroke-width="1" opacity="1" d="M 457.5 312 L 456.5 314 L 457.5 312 Z " /><path fill="rgb(253,246,242)" stroke="rgb(253,246,242)" stroke-width="1" opacity="1" d="M 54.5 314 L 55.5 316 L 54.5 314 Z " /><path fill="rgb(253,246,242)" stroke="rgb(253,246,242)" stroke-width="1" opacity="1" d="M 455.5 315 L 454.5 317 L 455.5 315 Z " /><path fill="rgb(253,246,242)" stroke="rgb(253,246,242)" stroke-width="1" opacity="1" d="M 57.5 318 L 58.5 320 L 57.5 318 Z " /><path fill="rgb(253,246,242)" stroke="rgb(253,246,242)" stroke-width="1" opacity="1" d="M 452.5 319 L 451.5 321 L 452.5 319 Z " /><path fill="rgb(253,246,242)" stroke="rgb(253,246,242)" stroke-width="1" opacity="1" d="M 60.5 322 L 63.5 326 L 60.5 322 Z " /><path fill="rgb(253,246,242)" stroke="rgb(253,246,242)" stroke-width="1" opacity="1" d="M 447.5 325 L 437.5 336 L 447.5 325 Z " /><path fill="rgb(253,246,242)" stroke="rgb(253,246,242)" stroke-width="1" opacity="1" d="M 72.5 334 L 75.5 338 L 72.5 334 Z " /><path fill="rgb(253,246,242)" stroke="rgb(253,246,242)" stroke-width="1" opacity="1" d="M 433.5 338 L 432.5 340 L 433.5 338 Z " /><path fill="rgb(253,246,242)" stroke="rgb(253,246,242)" stroke-width="1" opacity="1" d="M 78.5 339 L 79.5 341 L 78.5 339 Z " /><path fill="rgb(253,246,242)" stroke="rgb(253,246,242)" stroke-width="1" opacity="1" d="M 429.5 341 L 428.5 343 L 429.5 341 Z " /><path fill="rgb(253,246,242)" stroke="rgb(253,246,242)" stroke-width="1" opacity="1" d="M 82.5 342 L 83.5 344 L 82.5 342 Z " /><path fill="rgb(253,246,242)" stroke="rgb(253,246,242)" stroke-width="1" opacity="1" d="M 425.5 344 L 424.5 346 L 425.5 344 Z " /><path fill="rgb(253,246,242)" stroke="rgb(253,246,242)" stroke-width="1" opacity="1" d="M 86.5 345 L 87.5 347 L 86.5 345 Z " /><path fill="rgb(253,246,242)" stroke="rgb(253,246,242)" stroke-width="1" opacity="1" d="M 421.5 347 L 420.5 349 L 421.5 347 Z " /><path fill="rgb(253,246,242)" stroke="rgb(253,246,242)" stroke-width="1" opacity="1" d="M 90.5 348 L 91.5 350 L 90.5 348 Z " /><path fill="rgb(253,246,242)" stroke="rgb(253,246,242)" stroke-width="1" opacity="1" d="M 417.5 350 L 416.5 352 L 417.5 350 Z " /><path fill="rgb(253,246,242)" stroke="rgb(253,246,242)" stroke-width="1" opacity="1" d="M 94.5 351 L 95.5 353 L 94.5 351 Z " /><path fill="rgb(253,246,242)" stroke="rgb(253,246,242)" stroke-width="1" opacity="1" d="M 413.5 353 L 412.5 355 L 413.5 353 Z " /><path fill="rgb(253,246,242)" stroke="rgb(253,246,242)" stroke-width="1" opacity="1" d="M 98.5 354 L 99.5 356 L 98.5 354 Z " /><path fill="rgb(253,246,242)" stroke="rgb(253,246,242)" stroke-width="1" opacity="1" d="M 409.5 356 L 408.5 358 L 409.5 356 Z " /><path fill="rgb(253,246,242)" stroke="rgb(253,246,242)" stroke-width="1" opacity="1" d="M 102.5 357 L 103.5 359 L 102.5 357 Z " /><path fill="rgb(253,246,242)" stroke="rgb(253,246,242)" stroke-width="1" opacity="1" d="M 405.5 359 L 404.5 361 L 405.5 359 Z " /><path fill="rgb(253,246,242)" stroke="rgb(253,246,242)" stroke-width="1" opacity="1" d="M 106.5 360 L 107.5 362 L 106.5 360 Z " /><path fill="rgb(253,246,242)" stroke="rgb(253,246,242)" stroke-width="1" opacity="1" d="M 401.5 362 L 400.5 364 L 401.5 362 Z " /><path fill="rgb(253,246,242)" stroke="rgb(253,246,242)" stroke-width="1" opacity="1" d="M 110.5 363 L 111.5 365 L 110.5 363 Z " /><path fill="rgb(253,246,242)" stroke="rgb(253,246,242)" stroke-width="1" opacity="1" d="M 397.5 365 L 396.5 367 L 397.5 365 Z " /><path fill="rgb(253,246,242)" stroke="rgb(253,246,242)" stroke-width="1" opacity="1" d="M 114.5 366 L 115.5 368 L 114.5 366 Z " /><path fill="rgb(253,246,242)" stroke="rgb(253,246,242)" stroke-width="1" opacity="1" d="M 393.5 368 L 392.5 370 L 393.5 368 Z " /><path fill="rgb(253,246,242)" stroke="rgb(253,246,242)" stroke-width="1" opacity="1" d="M 118.5 369 L 119.5 371 L 118.5 369 Z " /><path fill="rgb(253,246,242)" stroke="rgb(253,246,242)" stroke-width="1" opacity="1" d="M 389.5 371 L 388.5 373 L 389.5 371 Z " /><path fill="rgb(253,246,242)" stroke="rgb(253,246,242)" stroke-width="1" opacity="1" d="M 122.5 372 L 123.5 374 L 122.5 372 Z " /><path fill="rgb(253,246,242)" stroke="rgb(253,246,242)" stroke-width="1" opacity="1" d="M 385.5 374 L 384.5 376 L 385.5 374 Z " /><path fill="rgb(253,246,242)" stroke="rgb(253,246,242)" stroke-width="1" opacity="1" d="M 126.5 375 L 127.5 377 L 126.5 375 Z " /><path fill="rgb(253,246,242)" stroke="rgb(253,246,242)" stroke-width="1" opacity="1" d="M 381.5 377 L 380.5 379 L 381.5 377 Z " /><path fill="rgb(253,246,242)" stroke="rgb(253,246,242)" stroke-width="1" opacity="1" d="M 130.5 378 L 131.5 380 L 130.5 378 Z " /><path fill="rgb(253,246,242)" stroke="rgb(253,246,242)" stroke-width="1" opacity="1" d="M 377.5 380 L 376.5 382 L 377.5 380 Z " /><path fill="rgb(253,246,242)" stroke="rgb(253,246,242)" stroke-width="1" opacity="1" d="M 134.5 381 L 135.5 383 L 134.5 381 Z " /><path fill="rgb(253,246,242)" stroke="rgb(253,246,242)" stroke-width="1" opacity="1" d="M 373.5 383 L 372.5 385 L 373.5 383 Z " /><path fill="rgb(253,246,242)" stroke="rgb(253,246,242)" stroke-width="1" opacity="1" d="M 138.5 384 L 139.5 386 L 138.5 384 Z " /><path fill="rgb(253,246,242)" stroke="rgb(253,246,242)" stroke-width="1" opacity="1" d="M 369.5 386 L 368.5 388 L 369.5 386 Z " /><path fill="rgb(253,246,242)" stroke="rgb(253,246,242)" stroke-width="1" opacity="1" d="M 142.5 387 L 143.5 389 L 142.5 387 Z " /><path fill="rgb(253,246,242)" stroke="rgb(253,246,242)" stroke-width="1" opacity="1" d="M 365.5 389 L 364.5 391 L 365.5 389 Z " /><path fill="rgb(253,246,242)" stroke="rgb(253,246,242)" stroke-width="1" opacity="1" d="M 146.5 390 L 147.5 392 L 146.5 390 Z " /><path fill="rgb(253,246,242)" stroke="rgb(253,246,242)" stroke-width="1" opacity="1" d="M 361.5 392 L 360.5 394 L 361.5 392 Z " /><path fill="rgb(253,246,242)" stroke="rgb(253,246,242)" stroke-width="1" opacity="1" d="M 150.5 393 L 151.5 395 L 150.5 393 Z " /><path fill="rgb(253,246,242)" stroke="rgb(253,246,242)" stroke-width="1" opacity="1" d="M 357.5 395 L 356.5 397 L 357.5 395 Z " /><path fill="rgb(253,246,242)" stroke="rgb(253,246,242)" stroke-width="1" opacity="1" d="M 154.5 396 L 155.5 398 L 154.5 396 Z " /><path fill="rgb(253,246,242)" stroke="rgb(253,246,242)" stroke-width="1" opacity="1" d="M 353.5 398 L 352.5 400 L 353.5 398 Z " /><path fill="rgb(253,246,242)" stroke="rgb(253,246,242)" stroke-width="1" opacity="1" d="M 158.5 399 L 159.5 401 L 158.5 399 Z " /><path fill="rgb(253,246,242)" stroke="rgb(253,246,242)" stroke-width="1" opacity="1" d="M 349.5 401 L 348.5 403 L 349.5 401 Z " /><path fill="rgb(253,246,242)" stroke="rgb(253,246,242)" stroke-width="1" opacity="1" d="M 162.5 402 L 163.5 404 L 162.5 402 Z " /><path fill="rgb(253,246,242)" stroke="rgb(253,246,242)" stroke-width="1" opacity="1" d="M 345.5 404 L 344.5 406 L 345.5 404 Z " /><path fill="rgb(253,246,242)" stroke="rgb(253,246,242)" stroke-width="1" opacity="1" d="M 166.5 405 L 167.5 407 L 166.5 405 Z " /><path fill="rgb(253,246,242)" stroke="rgb(253,246,242)" stroke-width="1" opacity="1" d="M 341.5 407 L 340.5 409 L 341.5 407 Z " /><path fill="rgb(253,246,242)" stroke="rgb(253,246,242)" stroke-width="1" opacity="1" d="M 170.5 408 L 171.5 410 L 170.5 408 Z " /><path fill="rgb(253,246,242)" stroke="rgb(253,246,242)" stroke-width="1" opacity="1" d="M 338.5 409 L 337.5 411 L 338.5 409 Z " /><path fill="rgb(253,246,242)" stroke="rgb(253,246,242)" stroke-width="1" opacity="1" d="M 174.5 411 L 175.5 413 L 174.5 411 Z " /><path fill="rgb(253,246,242)" stroke="rgb(253,246,242)" stroke-width="1" opacity="1" d="M 334.5 412 L 333.5 414 L 334.5 412 Z " /><path fill="rgb(253,246,242)" stroke="rgb(253,246,242)" stroke-width="1" opacity="1" d="M 178.5 414 L 179.5 416 L 178.5 414 Z " /><path fill="rgb(253,246,242)" stroke="rgb(253,246,242)" stroke-width="1" opacity="1" d="M 330.5 415 L 328.5 418 L 330.5 415 Z " /><path fill="rgb(253,246,242)" stroke="rgb(253,246,242)" stroke-width="1" opacity="1" d="M 182.5 417 L 183.5 419 L 182.5 417 Z " /><path fill="rgb(253,246,242)" stroke="rgb(253,246,242)" stroke-width="1" opacity="1" d="M 325.5 419 L 324.5 421 L 325.5 419 Z " /><path fill="rgb(253,246,242)" stroke="rgb(253,246,242)" stroke-width="1" opacity="1" d="M 186.5 420 L 187.5 422 L 186.5 420 Z " /><path fill="rgb(253,246,242)" stroke="rgb(253,246,242)" stroke-width="1" opacity="1" d="M 321.5 422 L 320.5 424 L 321.5 422 Z " /><path fill="rgb(253,246,242)" stroke="rgb(253,246,242)" stroke-width="1" opacity="1" d="M 190.5 423 L 191.5 425 L 190.5 423 Z " /><path fill="rgb(253,246,242)" stroke="rgb(253,246,242)" stroke-width="1" opacity="1" d="M 317.5 425 L 316.5 427 L 317.5 425 Z " /><path fill="rgb(253,246,242)" stroke="rgb(253,246,242)" stroke-width="1" opacity="1" d="M 194.5 426 L 196.5 429 L 194.5 426 Z " /><path fill="rgb(253,246,242)" stroke="rgb(253,246,242)" stroke-width="1" opacity="1" d="M 313.5 428 L 312.5 430 L 313.5 428 Z " /><path fill="rgb(253,246,242)" stroke="rgb(253,246,242)" stroke-width="1" opacity="1" d="M 199.5 430 L 200.5 432 L 199.5 430 Z " /><path fill="rgb(253,246,242)" stroke="rgb(253,246,242)" stroke-width="1" opacity="1" d="M 309.5 431 L 308.5 433 L 309.5 431 Z " /><path fill="rgb(253,246,242)" stroke="rgb(253,246,242)" stroke-width="1" opacity="1" d="M 203.5 433 L 204.5 435 L 203.5 433 Z " /><path fill="rgb(253,246,242)" stroke="rgb(253,246,242)" stroke-width="1" opacity="1" d="M 305.5 434 L 304.5 436 L 305.5 434 Z " /><path fill="rgb(253,246,242)" stroke="rgb(253,246,242)" stroke-width="1" opacity="1" d="M 207.5 436 L 208.5 438 L 207.5 436 Z " /><path fill="rgb(253,246,242)" stroke="rgb(253,246,242)" stroke-width="1" opacity="1" d="M 301.5 437 L 300.5 439 L 301.5 437 Z " /><path fill="rgb(253,246,242)" stroke="rgb(253,246,242)" stroke-width="1" opacity="1" d="M 211.5 439 L 212.5 441 L 211.5 439 Z " /><path fill="rgb(253,246,242)" stroke="rgb(253,246,242)" stroke-width="1" opacity="1" d="M 297.5 440 L 296.5 442 L 297.5 440 Z " /><path fill="rgb(253,246,242)" stroke="rgb(253,246,242)" stroke-width="1" opacity="1" d="M 215.5 442 L 216.5 444 L 215.5 442 Z " /><path fill="rgb(253,246,242)" stroke="rgb(253,246,242)" stroke-width="1" opacity="1" d="M 293.5 443 L 292.5 445 L 293.5 443 Z " /><path fill="rgb(253,246,242)" stroke="rgb(253,246,242)" stroke-width="1" opacity="1" d="M 219.5 445 L 220.5 447 L 219.5 445 Z " /><path fill="rgb(253,246,242)" stroke="rgb(253,246,242)" stroke-width="1" opacity="1" d="M 289.5 446 L 288.5 448 L 289.5 446 Z " /><path fill="rgb(253,246,242)" stroke="rgb(253,246,242)" stroke-width="1" opacity="1" d="M 223.5 448 L 224.5 450 L 223.5 448 Z " /><path fill="rgb(253,246,242)" stroke="rgb(253,246,242)" stroke-width="1" opacity="1" d="M 285.5 449 L 283.5 452 L 285.5 449 Z " /><path fill="rgb(253,246,242)" stroke="rgb(253,246,242)" stroke-width="1" opacity="1" d="M 227.5 451 L 228.5 453 L 227.5 451 Z " /><path fill="rgb(253,246,242)" stroke="rgb(253,246,242)" stroke-width="1" opacity="1" d="M 280.5 453 L 279.5 455 L 280.5 453 Z " /><path fill="rgb(253,246,242)" stroke="rgb(253,246,242)" stroke-width="1" opacity="1" d="M 231.5 454 L 232.5 456 L 231.5 454 Z " /><path fill="rgb(253,246,242)" stroke="rgb(253,246,242)" stroke-width="1" opacity="1" d="M 276.5 456 L 275.5 458 L 276.5 456 Z " /><path fill="rgb(253,246,242)" stroke="rgb(253,246,242)" stroke-width="1" opacity="1" d="M 235.5 457 L 237.5 460 L 235.5 457 Z " /><path fill="rgb(253,246,242)" stroke="rgb(253,246,242)" stroke-width="1" opacity="1" d="M 272.5 459 L 271.5 461 L 272.5 459 Z " /><path fill="rgb(253,246,242)" stroke="rgb(253,246,242)" stroke-width="1" opacity="1" d="M 239.5 460 L 241.5 463 L 239.5 460 Z " /><path fill="rgb(253,246,242)" stroke="rgb(253,246,242)" stroke-width="1" opacity="1" d="M 268.5 462 L 267.5 464 L 268.5 462 Z " /><path fill="rgb(253,246,242)" stroke="rgb(253,246,242)" stroke-width="1" opacity="1" d="M 250.5 467 L 253 467.5 L 250.5 468 L 250.5 467 Z " /><path fill="rgb(225,58,29)" stroke="rgb(225,58,29)" stroke-width="1" opacity="1" d="M 112.5 45 Q 127.2 42.8 131 51.5 L 173 180 L 337.5 180 L 338 177.5 L 377 60.5 L 378 54.5 L 382.5 48 Q 386.6 43.1 397.5 45 L 406 51.5 L 467 209.5 L 465 210 L 463 201.5 L 439 141.5 L 407 55.5 L 401.5 48 Q 397.5 44.5 388.5 46 Q 382.4 47.4 380 52.5 L 347 152.5 L 347 155.5 L 337.5 181 L 173.5 181 L 172 179.5 L 131 53.5 L 126.5 48 Q 122.5 44.5 113.5 46 Q 107.4 47.4 105 52.5 L 44.5 210 L 44 208.5 L 103 54.5 L 107.5 48 L 112.5 45 Z " /><path fill="rgb(225,58,29)" stroke="rgb(225,58,29)" stroke-width="1" opacity="1" d="M 393.5 240 L 392.5 242 L 393.5 240 Z " /><path fill="rgb(225,58,29)" stroke="rgb(225,58,29)" stroke-width="1" opacity="1" d="M 386.5 245 L 385.5 247 L 386.5 245 Z " /><path fill="rgb(225,58,29)" stroke="rgb(225,58,29)" stroke-width="1" opacity="1" d="M 138.5 256 L 139.5 258 L 138.5 256 Z " /><path fill="rgb(225,58,29)" stroke="rgb(225,58,29)" stroke-width="1" opacity="1" d="M 142.5 259 L 143.5 261 L 142.5 259 Z " /><path fill="rgb(225,58,29)" stroke="rgb(225,58,29)" stroke-width="1" opacity="1" d="M 365.5 261 L 364.5 263 L 365.5 261 Z " /><path fill="rgb(225,58,29)" stroke="rgb(225,58,29)" stroke-width="1" opacity="1" d="M 146.5 262 L 147.5 264 L 146.5 262 Z " /><path fill="rgb(225,58,29)" stroke="rgb(225,58,29)" stroke-width="1" opacity="1" d="M 361.5 264 L 360.5 266 L 361.5 264 Z " /><path fill="rgb(225,58,29)" stroke="rgb(225,58,29)" stroke-width="1" opacity="1" d="M 150.5 265 L 151.5 267 L 150.5 265 Z " /><path fill="rgb(225,58,29)" stroke="rgb(225,58,29)" stroke-width="1" opacity="1" d="M 357.5 267 L 356.5 269 L 357.5 267 Z " /><path fill="rgb(225,58,29)" stroke="rgb(225,58,29)" stroke-width="1" opacity="1" d="M 154.5 268 L 155.5 270 L 154.5 268 Z " /><path fill="rgb(225,58,29)" stroke="rgb(225,58,29)" stroke-width="1" opacity="1" d="M 353.5 270 L 352.5 272 L 353.5 270 Z " /><path fill="rgb(225,58,29)" stroke="rgb(225,58,29)" stroke-width="1" opacity="1" d="M 158.5 271 L 159.5 273 L 158.5 271 Z " /><path fill="rgb(225,58,29)" stroke="rgb(225,58,29)" stroke-width="1" opacity="1" d="M 349.5 273 L 348.5 275 L 349.5 273 Z " /><path fill="rgb(225,58,29)" stroke="rgb(225,58,29)" stroke-width="1" opacity="1" d="M 345.5 276 L 344.5 278 L 345.5 276 Z " /><path fill="rgb(225,58,29)" stroke="rgb(225,58,29)" stroke-width="1" opacity="1" d="M 179.5 287 L 180.5 289 L 179.5 287 Z " /><path fill="rgb(225,58,29)" stroke="rgb(225,58,29)" stroke-width="1" opacity="1" d="M 183.5 290 L 184.5 292 L 183.5 290 Z " /><path fill="rgb(225,58,29)" stroke="rgb(225,58,29)" stroke-width="1" opacity="1" d="M 324.5 292 L 323.5 294 L 324.5 292 Z " /><path fill="rgb(225,58,29)" stroke="rgb(225,58,29)" stroke-width="1" opacity="1" d="M 187.5 293 L 188.5 295 L 187.5 293 Z " /><path fill="rgb(225,58,29)" stroke="rgb(225,58,29)" stroke-width="1" opacity="1" d="M 320.5 295 L 319.5 297 L 320.5 295 Z " /><path fill="rgb(225,58,29)" stroke="rgb(225,58,29)" stroke-width="1" opacity="1" d="M 191.5 296 L 192.5 298 L 191.5 296 Z " /><path fill="rgb(225,58,29)" stroke="rgb(225,58,29)" stroke-width="1" opacity="1" d="M 316.5 298 L 315.5 300 L 316.5 298 Z " /><path fill="rgb(225,58,29)" stroke="rgb(225,58,29)" stroke-width="1" opacity="1" d="M 195.5 299 L 196.5 301 L 195.5 299 Z " /><path fill="rgb(225,58,29)" stroke="rgb(225,58,29)" stroke-width="1" opacity="1" d="M 312.5 301 L 311.5 303 L 312.5 301 Z " /><path fill="rgb(225,58,29)" stroke="rgb(225,58,29)" stroke-width="1" opacity="1" d="M 308.5 304 L 307.5 306 L 308.5 304 Z " /><path fill="rgb(225,58,29)" stroke="rgb(225,58,29)" stroke-width="1" opacity="1" d="M 304.5 307 L 303.5 309 L 304.5 307 Z " /><path fill="rgb(225,58,29)" stroke="rgb(225,58,29)" stroke-width="1" opacity="1" d="M 216.5 315 L 217.5 317 L 216.5 315 Z " /><path fill="rgb(225,58,29)" stroke="rgb(225,58,29)" stroke-width="1" opacity="1" d="M 220.5 318 L 221.5 320 L 220.5 318 Z " /><path fill="rgb(225,58,29)" stroke="rgb(225,58,29)" stroke-width="1" opacity="1" d="M 224.5 321 L 225.5 323 L 224.5 321 Z " /><path fill="rgb(225,58,29)" stroke="rgb(225,58,29)" stroke-width="1" opacity="1" d="M 283.5 323 L 282.5 325 L 283.5 323 Z " /><path fill="rgb(225,58,29)" stroke="rgb(225,58,29)" stroke-width="1" opacity="1" d="M 228.5 324 L 229.5 326 L 228.5 324 Z " /><path fill="rgb(225,58,29)" stroke="rgb(225,58,29)" stroke-width="1" opacity="1" d="M 279.5 326 L 278.5 328 L 279.5 326 Z " /><path fill="rgb(225,58,29)" stroke="rgb(225,58,29)" stroke-width="1" opacity="1" d="M 232.5 327 L 233.5 329 L 232.5 327 Z " /><path fill="rgb(225,58,29)" stroke="rgb(225,58,29)" stroke-width="1" opacity="1" d="M 275.5 329 L 274.5 331 L 275.5 329 Z " /><path fill="rgb(225,58,29)" stroke="rgb(225,58,29)" stroke-width="1" opacity="1" d="M 271.5 332 L 270.5 334 L 271.5 332 Z " /><path fill="rgb(225,58,29)" stroke="rgb(225,58,29)" stroke-width="1" opacity="1" d="M 267.5 335 L 266.5 337 L 267.5 335 Z " /><path fill="rgb(254,254,254)" stroke="rgb(254,254,254)" stroke-width="1" opacity="1" d="M 115.5 41 Q 124.2 40.8 128.5 45 L 129.5 44 L 134 48.5 L 133 50.5 L 135 50.5 L 135 52.5 L 175 177 L 334.5 177 L 336 175.5 L 374 59.5 L 374 56.5 L 378 49.5 L 377 48.5 L 381.5 44 L 383.5 44 L 390.5 41 L 395.5 41 L 403.5 45 L 404.5 44 L 409 48.5 L 408 50.5 L 414 62.5 L 475 223.5 L 478 240.5 L 478 262.5 L 477 263.5 L 476 274.5 L 471 291.5 L 461 310.5 L 461.5 312 L 460 311.5 L 461 313.5 L 458 314.5 L 459 316.5 L 456 317.5 L 457 319.5 L 452 322.5 L 452.5 324 L 454 323.5 L 448.5 329 L 447.5 328 L 440 335.5 L 441 336.5 L 436.5 341 L 434.5 340 Q 436.2 342 432.5 344 L 430.5 344 L 429 344.5 Q 431.3 345.7 428.5 347 L 426.5 347 L 425 347.5 Q 427.3 348.7 424.5 350 L 422.5 349 L 420.5 353 L 418.5 352 L 416.5 356 L 414.5 355 L 412.5 359 L 410.5 358 L 408.5 362 L 406.5 361 L 404.5 365 L 402.5 364 L 400.5 368 L 398.5 367 L 396.5 371 L 394.5 370 Q 396.2 372 392.5 374 L 390.5 373 Q 392.2 375 388.5 377 L 386.5 376 Q 388.2 378 384.5 380 L 382.5 379 Q 384.2 381 380.5 383 L 378.5 382 Q 380.2 384 376.5 386 L 374.5 385 Q 376.2 387 372.5 389 L 370.5 388 Q 372.2 390 368.5 392 L 366.5 391 Q 368.2 393 364.5 395 L 362.5 394 L 361.5 397 L 359.5 397 L 358 397.5 Q 360.3 398.7 357.5 400 L 355.5 400 L 354 400.5 Q 356.3 401.7 353.5 403 L 351.5 403 L 350 403.5 Q 352.3 404.8 349.5 406 L 347.5 406 L 346 406.5 Q 348.3 407.7 345.5 409 L 343.5 409 L 342 409.5 Q 344.3 410.8 341.5 412 L 339.5 412 L 338 412.5 Q 340.7 414.2 336.5 416 L 334.5 415 Q 336.2 417 332.5 419 L 330.5 418 Q 332.2 420 328.5 422 L 326.5 421 Q 328.2 423 324.5 425 L 322.5 424 L 321.5 427 L 319.5 427 L 317 428.5 L 317.5 430 L 315.5 430 L 313 431.5 Q 315.3 432.7 312.5 434 L 310.5 433 L 308.5 437 L 306.5 437 L 305 437.5 Q 307.3 438.7 304.5 440 L 302.5 440 L 301 440.5 Q 303.3 441.8 300.5 443 L 298.5 443 L 297 443.5 Q 299.8 445.3 295.5 447 L 293.5 446 Q 295.2 448 291.5 450 L 289.5 449 Q 291.2 451 287.5 453 L 285.5 452 Q 287.2 454 283.5 456 L 281.5 455 L 280.5 458 L 278.5 458 L 276 459.5 L 276.5 461 L 274.5 461 L 272 462.5 L 272.5 464 L 270.5 464 L 268 465.5 L 268.5 467 L 266.5 467 Q 261.3 471.8 249.5 470 L 244.5 467 L 243 467.5 L 243.5 466 L 241.5 467 Q 237.8 465 239.5 463 L 237.5 464 Q 233.8 462 235.5 460 L 233.5 461 Q 229.8 459 231.5 457 L 229.5 458 Q 225.8 456 227.5 454 L 225.5 453 Q 224.3 455.3 223 452.5 L 223.5 451 L 221.5 450 Q 220.3 452.3 219 449.5 L 219.5 448 L 217.5 447 Q 216.3 449.3 215 446.5 L 215.5 445 L 213.5 444 Q 212.3 446.3 211 443.5 Q 213.3 442.2 210.5 441 L 208.5 440 L 207 440.5 Q 209.3 439.3 206.5 438 L 204.5 437 Q 203.3 439.2 202 436.5 L 202.5 435 L 200.5 436 Q 196.8 434 198.5 432 L 196.5 433 Q 192.8 431 194.5 429 L 192.5 430 Q 188.8 428 190.5 426 L 188.5 427 Q 184.8 425 186.5 423 L 184.5 424 Q 180.8 422 182.5 420 L 180.5 419 Q 179.3 421.3 178 418.5 L 178.5 417 L 176.5 416 Q 175.3 418.3 174 415.5 L 174.5 414 L 172.5 413 Q 171.3 415.3 170 412.5 L 170.5 411 L 168.5 410 Q 167.3 412.3 166 409.5 L 166.5 408 L 164.5 407 Q 163.3 409.3 162 406.5 Q 164.3 405.3 161.5 404 L 159.5 405 L 158.5 402 L 156.5 401 Q 155.3 403.3 154 400.5 L 154.5 399 L 152.5 398 Q 151.3 400.2 150 397.5 L 150.5 396 L 148.5 395 Q 147.3 397.3 146 394.5 L 146.5 393 L 144.5 392 Q 143.3 394.3 142 391.5 L 142.5 390 L 140.5 389 Q 139.3 391.3 138 388.5 L 138.5 387 L 136.5 386 Q 135.2 388.3 134 385.5 L 134.5 384 L 132.5 383 Q 131.3 385.3 130 382.5 L 130.5 381 L 128.5 380 Q 127.3 382.3 126 379.5 L 126.5 378 L 124.5 377 Q 123.3 379.3 122 376.5 L 122.5 375 L 120.5 374 Q 119.3 376.3 118 373.5 L 118.5 372 L 116.5 371 Q 115.3 373.3 114 370.5 L 114.5 369 L 112.5 368 Q 111.2 370.3 110 367.5 L 110.5 366 L 108.5 365 Q 107.3 367.2 106 364.5 L 106.5 363 L 104.5 362 Q 103.3 364.3 102 361.5 L 102.5 360 L 100.5 359 Q 99.3 361.2 98 358.5 L 98.5 357 L 96.5 356 Q 95.3 358.2 94 355.5 L 94.5 354 L 92.5 353 Q 91.3 355.3 90 352.5 L 90.5 351 L 88.5 350 Q 87.3 352.3 86 349.5 L 86.5 348 L 84.5 347 Q 83.3 349.3 82 346.5 L 82.5 345 L 80.5 344 Q 79.3 346.3 78 343.5 L 78.5 342 L 76.5 341 Q 74.7 343.7 73 339.5 Q 75.7 337.8 71.5 336 L 70 336.5 L 71.5 339 L 59.5 326 L 62 327.5 L 59.5 324 L 58.5 325 L 55 321.5 L 57 321.5 L 55.5 319 Q 54.3 321.3 53 318.5 L 54 316.5 L 51 315.5 L 51.5 314 L 50 313.5 L 50 311.5 L 49.5 310 L 48 310.5 L 48 308.5 Q 39.4 294.6 35 276.5 L 33 265.5 L 33 237.5 L 40 210.5 L 97 61.5 L 103 49.5 L 103 47.5 L 103.5 46 L 104.5 48 L 106.5 44 L 108.5 44 L 115.5 41 Z M 117 42 L 108 46 Q 102 50 100 57 L 101 60 L 100 59 L 95 71 L 96 73 L 95 72 L 87 91 L 88 94 L 87 93 L 82 104 L 83 107 L 82 106 L 77 117 L 78 120 L 77 119 L 64 151 L 65 154 L 64 153 L 59 164 L 60 167 L 59 166 L 46 198 L 47 201 L 46 200 L 41 211 L 42 214 L 41 213 L 37 223 L 34 239 L 34 265 L 39 287 L 41 287 L 40 290 L 42 289 L 41 291 L 42 295 L 44 294 L 43 296 Q 49 310 58 322 L 81 343 L 182 418 Q 183 421 185 419 L 184 421 L 186 421 Q 187 424 189 422 L 188 424 L 190 424 Q 191 427 193 425 L 192 427 L 223 449 Q 224 452 226 450 L 225 452 L 227 452 Q 228 455 230 453 L 229 455 L 231 455 Q 232 458 234 456 L 233 458 L 243 464 Q 244 467 246 465 L 245 467 L 251 469 Q 260 471 265 467 L 288 450 L 287 449 L 289 449 L 292 447 L 291 446 L 293 446 L 296 444 L 295 443 L 297 443 L 333 416 L 332 415 L 334 415 L 337 413 L 336 412 L 338 412 L 438 337 L 449 326 L 448 325 L 450 325 Q 463 310 471 289 L 470 286 L 472 286 L 473 283 L 472 279 L 474 279 L 477 262 L 477 242 L 474 225 L 473 225 L 473 224 L 472 218 L 470 218 L 471 215 L 470 215 L 470 214 L 468 207 L 467 207 L 467 206 L 463 194 L 462 194 L 462 193 L 458 181 L 457 181 L 457 180 L 445 147 L 444 147 L 444 146 L 440 134 L 439 134 L 439 133 L 435 121 L 434 121 L 434 120 L 422 87 L 421 87 L 421 86 L 417 74 L 416 74 L 416 73 L 412 61 L 411 61 L 411 60 L 407 50 Q 403 44 395 42 Q 387 42 383 46 L 379 50 L 380 51 L 379 50 L 373 64 L 374 67 L 372 67 L 373 70 L 372 69 L 357 113 L 358 116 L 356 116 L 357 119 L 356 118 L 340 165 L 341 168 L 340 167 L 336 177 L 336 178 L 174 178 L 171 166 L 169 166 L 170 163 L 169 163 L 169 162 L 154 114 L 152 114 L 153 111 L 152 111 L 152 110 L 138 65 L 136 65 L 137 62 L 135 62 L 136 59 L 135 59 L 135 58 L 132 50 L 129 47 Q 127 43 126 46 L 126 45 L 117 42 Z " /><path fill="rgb(254,254,254)" stroke="rgb(254,254,254)" stroke-width="1" opacity="1" d="M 446.5 331 L 442.5 336 L 446.5 331 Z " /><path fill="rgb(227,65,36)" stroke="rgb(227,65,36)" stroke-width="1" opacity="1" d="M 116.5 44 L 120 44.5 L 116.5 45 L 116.5 44 Z " /><path fill="rgb(227,65,36)" stroke="rgb(227,65,36)" stroke-width="1" opacity="1" d="M 391.5 44 L 395 44.5 L 391.5 45 L 391.5 44 Z " /><path fill="rgb(227,65,36)" stroke="rgb(227,65,36)" stroke-width="1" opacity="1" d="M 123.5 45 L 123.5 47 L 125.5 46 L 125.5 48 L 130 51.5 L 130.5 53 L 132 52.5 L 131 55.5 L 133 55.5 L 132 58.5 L 134 58.5 L 133 61.5 L 135 61.5 L 134 64.5 L 136 64.5 L 135 67.5 L 137 67.5 L 136 70.5 L 138 70.5 L 137 73.5 L 139 73.5 L 138 76.5 L 140 76.5 L 139 79.5 L 141 79.5 L 140 82.5 L 142 82.5 L 141 85.5 L 147.5 105 L 149 104.5 L 148 107.5 L 150 107.5 L 149 110.5 L 151 110.5 L 150 113.5 L 152 113.5 L 151 116.5 L 153 116.5 L 152 119.5 L 154 119.5 L 153 122.5 L 155 122.5 L 154 125.5 L 156 125.5 L 155 128.5 L 157 128.5 L 156 131.5 L 158 131.5 L 157 134.5 L 159 134.5 L 158 137.5 L 164.5 157 L 166 156.5 L 165 159.5 L 167 159.5 L 166 162.5 L 168 162.5 L 167 165.5 L 169 165.5 L 168 168.5 L 170 168.5 L 169 171.5 L 171 171.5 L 170 174.5 L 172 174.5 L 171 177.5 L 173 177.5 L 172 179.5 L 173.5 181 L 337.5 181 L 337.5 179 L 339 179.5 L 338 176.5 L 340 176.5 L 339 173.5 L 341 173.5 L 340 170.5 L 342 170.5 L 341 167.5 L 343 167.5 L 342 164.5 L 344 164.5 L 343 161.5 L 345 161.5 L 344 158.5 L 346 158.5 L 351 140.5 L 350.5 139 L 352 139.5 L 351 136.5 L 353 136.5 L 352 133.5 L 354 133.5 L 353 130.5 L 355 130.5 L 354 127.5 L 356 127.5 L 355 124.5 L 357 124.5 L 356 121.5 L 358 121.5 L 357 118.5 L 359 118.5 L 358 115.5 L 360 115.5 L 359 112.5 L 361 112.5 L 360 109.5 L 362 109.5 L 368 88.5 L 367.5 87 L 369 87.5 L 368 84.5 L 370 84.5 L 369 81.5 L 371 81.5 L 370 78.5 L 372 78.5 L 371 75.5 L 373 75.5 L 372 72.5 L 374 72.5 L 373 69.5 L 375 69.5 L 374 66.5 L 376 66.5 L 375 63.5 L 377 63.5 L 376 60.5 L 378 60.5 Q 378 54.5 381 51.5 L 380.5 50 Q 382.3 52.8 384 48.5 L 383.5 47 L 385.5 47 L 397.5 46 L 398.5 45 L 398.5 47 L 400.5 46 L 400.5 48 L 405 51.5 L 407.5 58 L 409 57.5 L 408 60.5 L 410 60.5 L 409 62.5 L 410.5 66 L 412 65.5 L 411 67.5 L 413.5 74 L 415 73.5 L 414 75.5 L 415.5 79 L 417 78.5 L 416 81.5 L 418.5 87 L 420 86.5 L 419 88.5 L 420.5 92 L 422 91.5 L 421 94.5 L 423 94.5 L 422 96.5 L 423.5 100 L 425 99.5 L 424 101.5 L 425.5 105 L 427 104.5 L 426 107.5 L 428 107.5 L 427 109.5 L 428.5 113 L 430 112.5 L 429 114.5 L 430.5 118 L 432 117.5 L 431 120.5 L 433 120.5 L 432 122.5 L 433.5 126 L 435 125.5 L 434 127.5 L 435.5 131 L 437 130.5 L 436 133.5 L 438 133.5 L 437 135.5 L 438.5 139 L 440 138.5 L 439 141.5 L 441.5 147 L 443 146.5 L 442 148.5 L 443.5 152 L 445 151.5 L 444 154.5 L 446.5 160 L 448 159.5 L 447 161.5 L 448.5 165 L 450 164.5 L 449 167.5 L 451 167.5 L 450 169.5 L 451.5 173 L 453 172.5 L 452 174.5 L 453.5 178 L 455 177.5 L 454 180.5 L 456 180.5 L 455 182.5 L 456.5 186 L 458 185.5 L 457 187.5 L 458.5 191 L 460 190.5 L 459 193.5 L 461 193.5 L 460 195.5 L 461.5 199 L 463 198.5 L 462 200.5 L 464.5 207 L 466 206.5 L 465 211 L 451.5 214 L 450 213.5 Q 450.8 216.1 447.5 215 L 439.5 218 L 438 217.5 Q 438.8 219.8 436.5 219 L 435 218.5 Q 435.8 220.8 433.5 220 L 431.5 221 L 430 220.5 Q 430.8 222.8 428.5 222 L 422.5 225 L 421 224.5 L 420.5 226 L 419 225.5 L 418.5 227 L 417 226.5 L 416.5 228 L 415 227.5 L 414.5 229 L 413 228.5 L 411.5 231 L 407.5 233 L 406 232.5 L 404.5 235 L 402.5 236 L 401 235.5 L 399.5 238 L 398 237.5 L 396.5 240 L 393.5 242 L 392 241.5 L 390.5 244 L 389 243.5 L 386.5 247 L 385 246.5 L 382.5 250 L 381 249.5 L 378.5 253 L 377 252.5 L 374.5 256 L 373 255.5 L 370.5 259 L 369 258.5 L 366.5 262 Q 365.3 259.8 364 262.5 L 361.5 266 L 360 265.5 L 357.5 269 L 356 268.5 L 353.5 272 L 352 271.5 L 349.5 275 L 348 274.5 L 345.5 278 L 344 277.5 L 341.5 281 L 340 280.5 L 337.5 284 L 336 283.5 L 333.5 287 L 332 286.5 L 329.5 290 L 328 289.5 L 325.5 293 Q 324.3 290.8 323 293.5 L 320.5 297 L 319 296.5 L 316.5 300 L 315 299.5 L 312.5 303 L 311 302.5 L 308.5 306 L 307 305.5 L 304.5 309 L 303 308.5 L 300.5 312 L 299 311.5 L 296.5 315 L 295 314.5 L 292.5 318 L 291 317.5 L 288.5 321 L 287 320.5 L 283.5 325 L 282 324.5 L 279.5 328 L 278 327.5 L 275.5 331 L 274 330.5 L 271.5 334 L 270 333.5 L 267.5 337 L 266 336.5 L 263.5 340 L 262 339.5 L 259.5 343 L 258 342.5 L 255.5 346 L 250 341.5 L 249.5 340 Q 247.8 342.8 246 338.5 L 245.5 337 Q 243.8 339.7 242 335.5 L 241.5 334 Q 239.8 336.8 238 332.5 L 237.5 331 Q 235.8 333.8 234 329.5 L 233.5 328 Q 231.8 330.8 230 326.5 L 229.5 325 Q 227.8 327.8 226 323.5 L 225.5 322 Q 223.8 324.8 222 320.5 L 221.5 319 Q 219.8 321.8 218 317.5 L 217.5 316 L 216.5 317 L 213 313.5 L 212.5 312 Q 210.7 314.7 209 310.5 L 208.5 309 Q 206.8 311.8 205 307.5 L 204.5 306 Q 202.8 308.8 201 304.5 L 200.5 303 Q 198.8 305.7 197 301.5 L 196.5 300 Q 194.8 302.7 193 298.5 L 192.5 297 Q 190.7 299.8 189 295.5 L 188.5 294 Q 186.8 296.8 185 292.5 L 184.5 291 Q 182.8 293.8 181 289.5 L 180.5 288 L 179.5 289 L 176 285.5 L 175.5 284 Q 173.7 286.8 172 282.5 L 171.5 281 Q 169.8 283.7 168 279.5 L 167.5 278 Q 165.8 280.7 164 276.5 L 163.5 275 Q 161.7 277.7 160 273.5 L 159.5 272 Q 157.8 274.8 156 270.5 L 155.5 269 Q 153.8 271.7 152 267.5 L 151.5 266 Q 149.8 268.7 148 264.5 L 147.5 263 Q 145.8 265.7 144 261.5 L 143.5 260 Q 141.7 262.8 140 258.5 L 138.5 256 Q 136.8 258.8 135 254.5 L 134.5 253 Q 132.8 255.8 131 251.5 L 130.5 250 Q 128.8 252.7 127 248.5 L 126.5 247 Q 124.7 249.7 123 245.5 L 122.5 244 Q 121 246.5 119.5 243 L 116 240.5 L 115.5 239 Q 114.3 241.3 113 238.5 L 112.5 237 L 110.5 237 L 108 235.5 L 107.5 234 L 105.5 234 L 103 232.5 L 102.5 231 L 100.5 231 L 85 224 L 84.5 222 L 83 222.5 L 82.5 221 L 80.5 222 L 78 221 L 77.5 219 L 75.5 220 L 73 219 L 72.5 217 L 70 218 L 69.5 216 L 67 217 L 66.5 215 L 64 216 L 63.5 214 L 61.5 215 L 45 211 L 46 206.5 L 45.5 205 L 47 205.5 L 48 201.5 L 47.5 200 L 49 200.5 L 48 197.5 L 50 197.5 L 51 193.5 L 50.5 192 L 52 192.5 L 53 188.5 L 52.5 187 L 54 187.5 L 53 184.5 L 55 184.5 L 56 180.5 L 55.5 179 L 57 179.5 L 58 175.5 L 57.5 174 L 59 174.5 L 58 171.5 L 60 171.5 L 61 167.5 L 60.5 166 L 62 166.5 L 64 159.5 L 63.5 158 L 65 158.5 L 66 154.5 L 65.5 153 L 67 153.5 L 66 150.5 L 68 150.5 L 69 146.5 L 68.5 145 L 70 145.5 L 71 141.5 L 70.5 140 L 72 140.5 L 71 137.5 L 73 137.5 L 74 133.5 L 73.5 132 L 75 132.5 L 76 128.5 L 75.5 127 L 77 127.5 L 76 124.5 L 78 124.5 L 79 120.5 L 78.5 119 L 80 119.5 L 82 112.5 L 81.5 111 L 83 111.5 L 84 107.5 L 83.5 106 L 85 106.5 L 87 99.5 L 86.5 98 L 88 98.5 L 89 94.5 L 88.5 93 L 90 93.5 L 89 90.5 L 91 90.5 L 92 86.5 L 91.5 85 L 93 85.5 L 94 81.5 L 93.5 80 L 95 80.5 L 94 77.5 L 96 77.5 L 97 73.5 L 96.5 72 L 98 72.5 L 100 65.5 L 99.5 64 L 101 64.5 L 102 60.5 L 101.5 59 L 103 59.5 L 106 51.5 L 105.5 50 Q 107.2 52.8 109 48.5 L 108.5 47 L 110.5 47 L 122.5 46 L 123.5 45 Z " /><path fill="rgb(255,255,255)" stroke="rgb(255,255,255)" stroke-width="1" opacity="1" d="M 0 0 L 512 0 L 512 512 L 0 512 L 0 0 Z M 116 41 L 113 42 L 113 43 L 120 42 L 116 41 Z M 391 41 L 388 42 L 388 43 L 392 42 L 396 43 L 399 43 Q 396 40 391 41 Z M 121 42 L 121 43 L 124 43 L 121 42 Z M 109 44 L 108 46 L 110 45 L 109 44 Z M 113 44 L 108 47 Q 102 52 100 60 L 41 214 L 35 240 L 35 264 L 40 287 Q 47 307 60 323 L 76 338 L 246 466 L 251 468 Q 263 470 268 464 L 438 336 Q 451 324 461 308 L 471 286 L 476 260 L 475 235 L 471 218 L 407 52 L 398 44 Q 387 42 383 47 L 377 55 L 337 178 L 337 179 L 175 179 L 170 169 L 170 166 L 132 52 Q 128 42 113 44 Z M 384 44 L 383 46 L 385 45 L 384 44 Z M 402 44 L 404 47 L 405 47 L 402 44 Z M 128 45 L 129 47 L 130 47 L 128 45 Z M 135 52 L 134 55 L 135 55 L 135 52 Z M 410 52 L 409 55 L 410 55 L 410 52 Z M 376 54 L 374 57 L 375 60 L 376 57 L 376 54 Z M 136 55 L 135 58 L 136 58 L 136 55 Z M 100 56 L 99 59 L 100 59 L 100 56 Z M 412 57 L 411 60 L 412 60 L 412 57 Z M 137 58 L 136 61 L 137 61 L 137 58 Z M 99 59 L 97 62 L 98 64 L 99 62 L 99 59 Z M 374 60 L 373 63 L 374 63 L 374 60 Z M 413 60 L 413 65 L 414 65 L 413 60 Z M 138 61 L 137 64 L 138 64 L 138 61 Z M 373 63 L 372 66 L 373 66 L 373 63 Z M 97 64 L 96 67 L 97 67 L 97 64 Z M 139 64 L 138 67 L 139 67 L 139 64 Z M 415 65 L 414 68 L 415 68 L 415 65 Z M 372 66 L 371 69 L 372 69 L 372 66 Z M 96 67 L 94 70 L 95 72 L 96 70 L 96 67 Z M 140 67 L 139 70 L 140 70 L 140 67 Z M 371 69 L 370 72 L 371 72 L 371 69 Z M 141 70 L 140 73 L 141 73 L 141 70 Z M 417 70 L 416 73 L 417 73 L 417 70 Z M 94 72 L 92 75 L 93 77 L 94 75 L 94 72 Z M 370 72 L 369 75 L 370 75 L 370 72 Z M 142 73 L 141 76 L 142 76 L 142 73 Z M 418 73 L 418 78 L 419 78 L 418 73 Z M 369 75 L 368 78 L 369 78 L 369 75 Z M 143 76 L 142 79 L 143 79 L 143 76 Z M 92 77 L 91 80 L 92 80 L 92 77 Z M 368 78 L 367 81 L 368 81 L 368 78 Z M 420 78 L 419 81 L 420 81 L 420 78 Z M 144 79 L 143 82 L 144 82 L 144 79 Z M 91 80 L 89 83 L 90 85 L 91 83 L 91 80 Z M 367 81 L 366 84 L 367 84 L 367 81 Z M 145 82 L 144 85 L 145 85 L 145 82 Z M 422 83 L 421 86 L 422 86 L 422 83 Z M 366 84 L 365 87 L 366 87 L 366 84 Z M 89 85 L 88 88 L 89 88 L 89 85 Z M 146 85 L 145 88 L 146 88 L 146 85 Z M 423 86 L 423 91 L 424 91 L 423 86 Z M 365 87 L 364 90 L 365 90 L 365 87 Z M 147 88 L 146 92 L 151 107 L 152 107 L 147 88 Z M 87 90 L 86 93 L 87 93 L 87 90 Z M 364 90 L 358 106 L 359 109 L 364 94 L 364 90 Z M 425 91 L 424 94 L 425 94 L 425 91 Z M 86 93 L 84 96 L 85 98 L 86 96 L 86 93 Z M 426 94 L 426 99 L 427 99 L 426 94 Z M 84 98 L 83 101 L 84 101 L 84 98 Z M 428 99 L 428 104 L 429 104 L 428 99 Z M 82 103 L 81 106 L 82 106 L 82 103 Z M 430 104 L 429 107 L 430 107 L 430 104 Z M 81 106 L 79 109 L 80 111 L 81 109 L 81 106 Z M 153 107 L 152 110 L 153 110 L 153 107 Z M 431 107 L 431 112 L 432 112 L 431 107 Z M 358 109 L 357 112 L 358 112 L 358 109 Z M 154 110 L 153 113 L 154 113 L 154 110 Z M 79 111 L 78 114 L 79 114 L 79 111 Z M 357 112 L 356 115 L 357 115 L 357 112 Z M 433 112 L 432 115 L 433 115 L 433 112 Z M 155 113 L 154 116 L 155 116 L 155 113 Z M 356 115 L 355 118 L 356 118 L 356 115 Z M 77 116 L 76 119 L 77 119 L 77 116 Z M 156 116 L 155 119 L 156 119 L 156 116 Z M 435 117 L 434 120 L 435 120 L 435 117 Z M 355 118 L 354 121 L 355 121 L 355 118 Z M 76 119 L 74 122 L 75 124 L 76 122 L 76 119 Z M 157 119 L 156 122 L 157 122 L 157 119 Z M 436 120 L 436 125 L 437 125 L 436 120 Z M 354 121 L 353 124 L 354 124 L 354 121 Z M 158 122 L 157 125 L 158 125 L 158 122 Z M 74 124 L 73 127 L 74 127 L 74 124 Z M 353 124 L 352 127 L 353 127 L 353 124 Z M 159 125 L 158 128 L 159 128 L 159 125 Z M 438 125 L 437 128 L 438 128 L 438 125 Z M 73 127 L 71 130 L 72 132 L 73 130 L 73 127 Z M 352 127 L 351 130 L 352 130 L 352 127 Z M 160 128 L 159 131 L 160 131 L 160 128 Z M 351 130 L 350 133 L 351 133 L 351 130 Z M 440 130 L 439 133 L 440 133 L 440 130 Z M 161 131 L 160 134 L 161 134 L 161 131 Z M 71 132 L 69 135 L 70 137 L 71 135 L 71 132 Z M 350 133 L 349 136 L 350 136 L 350 133 Z M 441 133 L 441 138 L 442 138 L 441 133 Z M 162 134 L 161 137 L 162 137 L 162 134 Z M 349 136 L 348 139 L 349 139 L 349 136 Z M 69 137 L 68 140 L 69 140 L 69 137 Z M 163 137 L 162 140 L 163 140 L 163 137 Z M 443 138 L 442 141 L 443 141 L 443 138 Z M 348 139 L 347 142 L 348 142 L 348 139 Z M 68 140 L 66 143 L 67 145 L 68 143 L 68 140 Z M 164 140 L 163 144 L 167 156 L 168 156 L 164 140 Z M 347 142 L 341 158 L 342 161 L 347 146 L 347 142 Z M 445 143 L 444 146 L 445 146 L 445 143 Z M 66 145 L 65 148 L 66 148 L 66 145 Z M 446 146 L 446 151 L 447 151 L 446 146 Z M 64 150 L 63 153 L 64 153 L 64 150 Z M 448 151 L 447 154 L 448 154 L 448 151 Z M 63 153 L 61 156 L 62 158 L 63 156 L 63 153 Z M 449 154 L 449 159 L 450 159 L 449 154 Z M 169 156 L 168 159 L 169 159 L 169 156 Z M 61 158 L 60 161 L 61 161 L 61 158 Z M 170 159 L 169 162 L 170 162 L 170 159 Z M 451 159 L 451 164 L 452 164 L 451 159 Z M 341 161 L 340 164 L 341 164 L 341 161 Z M 171 162 L 170 165 L 171 165 L 171 162 Z M 59 163 L 58 166 L 59 166 L 59 163 Z M 340 164 L 339 167 L 340 167 L 340 164 Z M 453 164 L 452 167 L 453 167 L 453 164 Z M 172 165 L 171 168 L 172 168 L 172 165 Z M 58 166 L 56 169 L 57 171 L 58 169 L 58 166 Z M 339 167 L 338 170 L 339 170 L 339 167 Z M 454 167 L 454 172 L 455 172 L 454 167 Z M 173 168 L 172 171 L 173 171 L 173 168 Z M 338 170 L 337 173 L 338 173 L 338 170 Z M 56 171 L 55 174 L 56 174 L 56 171 Z M 174 171 L 173 174 L 174 174 L 174 171 Z M 456 172 L 455 175 L 456 175 L 456 172 Z M 337 173 L 336 176 L 337 176 L 337 173 Z M 55 174 L 53 177 L 54 179 L 55 177 L 55 174 Z M 175 174 L 175 178 L 336 178 L 336 176 L 335 177 L 175 177 L 175 174 Z M 458 177 L 457 180 L 458 180 L 458 177 Z M 53 179 L 51 182 L 52 184 L 53 182 L 53 179 Z M 459 180 L 459 185 L 460 185 L 459 180 Z M 51 184 L 50 187 L 51 187 L 51 184 Z M 461 185 L 461 190 L 462 190 L 461 185 Z M 50 187 L 48 190 L 49 192 L 50 190 L 50 187 Z M 463 190 L 462 193 L 463 193 L 463 190 Z M 48 192 L 47 195 L 48 195 L 48 192 Z M 464 193 L 464 198 L 465 198 L 464 193 Z M 46 197 L 45 200 L 46 200 L 46 197 Z M 466 198 L 465 201 L 466 201 L 466 198 Z M 45 200 L 43 203 L 44 205 L 45 203 L 45 200 Z M 468 203 L 467 206 L 468 206 L 468 203 Z M 43 205 L 42 208 L 43 208 L 43 205 Z M 469 206 L 469 211 L 470 211 L 469 206 Z M 41 210 L 40 213 L 41 213 L 41 210 Z M 471 211 L 470 214 L 471 214 L 471 211 Z M 40 213 L 39 216 L 40 216 L 40 213 Z M 472 214 L 471 217 L 472 217 L 472 214 Z M 39 216 L 38 219 L 39 219 L 39 216 Z M 473 217 L 472 220 L 473 220 L 473 217 Z M 38 219 L 37 222 L 38 222 L 38 219 Z M 474 220 L 474 228 L 475 228 L 474 220 Z M 37 222 L 36 226 L 37 226 L 37 222 Z M 36 226 L 35 231 L 36 231 L 36 226 Z M 476 228 L 475 233 L 476 233 L 476 228 Z M 35 231 L 33 238 L 33 266 Q 35 267 34 272 L 35 272 Q 37 266 34 265 L 34 239 L 35 238 L 35 231 Z M 477 233 L 476 241 L 477 242 L 477 262 L 476 263 L 477 270 L 478 263 L 478 241 L 477 233 Z M 476 270 L 475 275 L 476 275 L 476 270 Z M 36 272 L 35 277 L 37 284 L 38 284 L 36 272 Z M 475 275 L 474 279 L 475 279 L 475 275 Z M 474 279 L 473 283 L 474 283 L 474 279 Z M 473 283 L 472 286 L 473 286 L 473 283 Z M 39 284 L 38 287 L 39 287 L 39 284 Z M 472 286 L 471 289 L 472 289 L 472 286 Z M 40 287 L 39 290 L 40 290 L 40 287 Z M 471 289 L 470 292 L 471 292 L 471 289 Z M 41 290 L 40 293 L 41 293 L 41 290 Z M 469 294 L 467 297 L 468 299 L 469 297 L 469 294 Z M 44 297 L 44 302 L 46 303 L 44 297 Z M 52 312 L 50 314 L 52 314 L 53 315 L 52 312 Z M 63 326 L 62 328 L 72 336 L 63 326 Z M 437 337 L 435 340 L 438 338 L 437 337 Z M 76 339 L 78 342 L 79 342 L 76 339 Z M 432 341 L 430 344 L 433 342 L 432 341 Z M 81 343 L 82 345 L 83 345 L 81 343 Z M 428 344 L 426 347 L 429 345 L 428 344 Z M 85 346 L 86 348 L 87 348 L 85 346 Z M 424 347 L 423 349 L 425 348 L 424 347 Z M 89 349 L 90 351 L 91 351 L 89 349 Z M 420 350 L 419 352 L 421 351 L 420 350 Z M 93 352 L 94 354 L 95 354 L 93 352 Z M 416 353 L 415 355 L 417 354 L 416 353 Z M 97 355 L 98 357 L 99 357 L 97 355 Z M 412 356 L 411 358 L 413 357 L 412 356 Z M 100 357 L 102 360 L 103 360 L 100 357 Z M 408 359 L 407 361 L 409 360 L 408 359 Z M 105 361 L 106 363 L 107 363 L 105 361 Z M 404 362 L 403 364 L 405 363 L 404 362 Z M 109 364 L 110 366 L 111 366 L 109 364 Z M 400 365 L 399 367 L 401 366 L 400 365 Z M 112 366 L 114 369 L 115 369 L 112 366 Z M 396 368 L 395 370 L 397 369 L 396 368 Z M 117 370 L 118 372 L 119 372 L 117 370 Z M 392 371 L 391 373 L 393 372 L 392 371 Z M 120 372 L 122 375 L 123 375 L 120 372 Z M 388 374 L 387 376 L 389 375 L 388 374 Z M 124 375 L 126 378 L 127 378 L 124 375 Z M 384 377 L 383 379 L 385 378 L 384 377 Z M 128 378 L 130 381 L 131 381 L 128 378 Z M 380 380 L 379 382 L 381 381 L 380 380 Z M 132 381 L 134 384 L 135 384 L 132 381 Z M 376 383 L 375 385 L 377 384 L 376 383 Z M 136 384 L 138 387 L 139 387 L 136 384 Z M 372 386 L 371 388 L 373 387 L 372 386 Z M 140 387 L 142 390 L 143 390 L 140 387 Z M 368 389 L 367 391 L 369 390 L 368 389 Z M 144 390 L 146 393 L 147 393 L 144 390 Z M 364 392 L 363 394 L 365 393 L 364 392 Z M 148 393 L 150 396 L 151 396 L 148 393 Z M 360 395 L 359 397 L 361 396 L 360 395 Z M 152 396 L 154 399 L 155 399 L 152 396 Z M 356 398 L 355 400 L 357 399 L 356 398 Z M 156 399 L 158 402 L 159 402 L 156 399 Z M 352 401 L 351 403 L 353 402 L 352 401 Z M 160 402 L 161 404 L 162 404 L 160 402 Z M 348 404 L 347 406 L 349 405 L 348 404 Z M 164 405 L 166 408 L 167 408 L 164 405 Z M 344 407 L 343 409 L 345 408 L 344 407 Z M 168 408 L 170 411 L 171 411 L 168 408 Z M 340 410 L 339 412 L 341 411 L 340 410 Z M 172 411 L 174 414 L 175 414 L 172 411 Z M 336 413 L 335 415 L 337 414 L 336 413 Z M 177 415 L 178 417 L 179 417 L 177 415 Z M 332 416 L 331 418 L 333 417 L 332 416 Z M 181 418 L 182 420 L 183 420 L 181 418 Z M 328 419 L 327 421 L 329 420 L 328 419 Z M 185 421 L 186 423 L 187 423 L 185 421 Z M 324 422 L 323 424 L 325 423 L 324 422 Z M 189 424 L 190 426 L 191 426 L 189 424 Z M 320 425 L 319 427 L 321 426 L 320 425 Z M 193 427 L 194 429 L 195 429 L 193 427 Z M 316 428 L 315 430 L 317 429 L 316 428 Z M 197 430 L 198 432 L 199 432 L 197 430 Z M 312 431 L 311 433 L 313 432 L 312 431 Z M 201 433 L 202 435 L 203 435 L 201 433 Z M 308 434 L 306 437 L 309 435 L 308 434 Z M 205 436 L 206 438 L 207 438 L 205 436 Z M 304 437 L 302 440 L 305 438 L 304 437 Z M 209 439 L 210 441 L 211 441 L 209 439 Z M 299 441 L 298 443 L 300 442 L 299 441 Z M 213 442 L 215 445 L 216 445 L 213 442 Z M 295 444 L 294 446 L 296 445 L 295 444 Z M 217 445 L 219 448 L 220 448 L 217 445 Z M 291 447 L 290 449 L 292 448 L 291 447 Z M 222 449 L 223 451 L 224 451 L 222 449 Z M 287 450 L 286 452 L 288 451 L 287 450 Z M 226 452 L 227 454 L 228 454 L 226 452 Z M 283 453 L 282 455 L 284 454 L 283 453 Z M 230 455 L 231 457 L 232 457 L 230 455 Z M 279 456 L 278 458 L 280 457 L 279 456 Z M 234 458 L 235 460 L 236 460 L 234 458 Z M 275 459 L 274 461 L 276 460 L 275 459 Z M 238 461 L 239 463 L 240 463 L 238 461 Z M 271 462 L 270 464 L 272 463 L 271 462 Z M 242 464 L 243 466 L 244 466 L 242 464 Z M 267 465 L 266 467 L 268 466 L 267 465 Z M 264 467 L 262 468 L 262 469 L 265 468 L 264 467 Z M 248 468 L 250 470 L 261 470 L 248 468 Z " /><path fill="rgb(247,91,15)" stroke="rgb(247,91,15)" stroke-width="1" opacity="1" d="M 44.5 210 L 44 211.5 L 43.5 213 L 43 211.5 L 44.5 210 Z " /><path fill="rgb(247,91,15)" stroke="rgb(247,91,15)" stroke-width="1" opacity="1" d="M 40.5 220 L 41 222.5 L 40 222.5 L 40.5 220 Z " /><path fill="rgb(247,91,15)" stroke="rgb(247,91,15)" stroke-width="1" opacity="1" d="M 470.5 221 L 471 223.5 L 470 223.5 L 470.5 221 Z " /><path fill="rgb(247,91,15)" stroke="rgb(247,91,15)" stroke-width="1" opacity="1" d="M 39.5 224 L 40 226.5 L 39 226.5 L 39.5 224 Z " /><path fill="rgb(247,91,15)" stroke="rgb(247,91,15)" stroke-width="1" opacity="1" d="M 471.5 225 L 472 227.5 L 471 227.5 L 471.5 225 Z " /><path fill="rgb(247,91,15)" stroke="rgb(247,91,15)" stroke-width="1" opacity="1" d="M 38.5 228 L 39 231.5 L 38 231.5 L 38.5 228 Z " /><path fill="rgb(247,91,15)" stroke="rgb(247,91,15)" stroke-width="1" opacity="1" d="M 472.5 229 L 473 233.5 L 472 233.5 L 472.5 229 Z " /><path fill="rgb(247,91,15)" stroke="rgb(247,91,15)" stroke-width="1" opacity="1" d="M 37.5 233 L 38 237.5 L 37 237.5 L 37.5 233 Z " /><path fill="rgb(247,91,15)" stroke="rgb(247,91,15)" stroke-width="1" opacity="1" d="M 473.5 235 L 474 241.5 L 473 241.5 L 473.5 235 Z " /><path fill="rgb(247,91,15)" stroke="rgb(247,91,15)" stroke-width="1" opacity="1" d="M 36.5 240 L 37 262.5 L 36 262.5 L 36.5 240 Z " /><path fill="rgb(247,91,15)" stroke="rgb(247,91,15)" stroke-width="1" opacity="1" d="M 474.5 245 L 475 257.5 L 474 257.5 L 474.5 245 Z " /><path fill="rgb(247,91,15)" stroke="rgb(247,91,15)" stroke-width="1" opacity="1" d="M 473.5 261 L 474 267.5 L 473 267.5 L 473.5 261 Z " /><path fill="rgb(247,91,15)" stroke="rgb(247,91,15)" stroke-width="1" opacity="1" d="M 37.5 265 L 38 269.5 L 37 269.5 L 37.5 265 Z " /><path fill="rgb(247,91,15)" stroke="rgb(247,91,15)" stroke-width="1" opacity="1" d="M 472.5 269 L 473 272.5 L 472 272.5 L 472.5 269 Z " /><path fill="rgb(247,91,15)" stroke="rgb(247,91,15)" stroke-width="1" opacity="1" d="M 38.5 271 L 39 274.5 L 38 274.5 L 38.5 271 Z " /><path fill="rgb(247,91,15)" stroke="rgb(247,91,15)" stroke-width="1" opacity="1" d="M 471.5 275 L 472 277.5 L 471 277.5 L 471.5 275 Z " /><path fill="rgb(247,91,15)" stroke="rgb(247,91,15)" stroke-width="1" opacity="1" d="M 39.5 276 L 40 278.5 L 39 278.5 L 39.5 276 Z " /><path fill="rgb(247,91,15)" stroke="rgb(247,91,15)" stroke-width="1" opacity="1" d="M 470.5 279 L 471 281.5 L 469.5 285 L 469 282.5 L 470.5 279 Z " /><path fill="rgb(247,91,15)" stroke="rgb(247,91,15)" stroke-width="1" opacity="1" d="M 40.5 280 L 41 282.5 L 40 282.5 L 40.5 280 Z " /><path fill="rgb(247,91,15)" stroke="rgb(247,91,15)" stroke-width="1" opacity="1" d="M 467.5 289 L 468 290.5 L 466.5 293 L 466 291.5 L 467.5 289 Z " /><path fill="rgb(247,91,15)" stroke="rgb(247,91,15)" stroke-width="1" opacity="1" d="M 43.5 290 L 45 293.5 L 44 293.5 L 43.5 290 Z " /><path fill="rgb(247,91,15)" stroke="rgb(247,91,15)" stroke-width="1" opacity="1" d="M 465.5 294 L 466 295.5 L 463.5 300 L 463 298.5 L 465.5 294 Z " /><path fill="rgb(247,91,15)" stroke="rgb(247,91,15)" stroke-width="1" opacity="1" d="M 45.5 295 L 52 307.5 L 50 306.5 L 45 296.5 L 45.5 295 Z " /><path fill="rgb(247,91,15)" stroke="rgb(247,91,15)" stroke-width="1" opacity="1" d="M 461.5 303 L 461 304.5 L 458.5 309 L 459 307.5 L 461.5 303 Z " /><path fill="rgb(247,91,15)" stroke="rgb(247,91,15)" stroke-width="1" opacity="1" d="M 52.5 309 L 53.5 311 L 52.5 309 Z " /><path fill="rgb(247,91,15)" stroke="rgb(247,91,15)" stroke-width="1" opacity="1" d="M 457.5 310 L 456.5 312 L 457.5 310 Z " /><path fill="rgb(247,91,15)" stroke="rgb(247,91,15)" stroke-width="1" opacity="1" d="M 54.5 312 L 55.5 314 L 54.5 312 Z " /><path fill="rgb(247,91,15)" stroke="rgb(247,91,15)" stroke-width="1" opacity="1" d="M 455.5 313 L 454.5 315 L 455.5 313 Z " /><path fill="rgb(247,91,15)" stroke="rgb(247,91,15)" stroke-width="1" opacity="1" d="M 56.5 315 L 75 335.5 L 62 323.5 L 56.5 315 Z " /><path fill="rgb(247,91,15)" stroke="rgb(247,91,15)" stroke-width="1" opacity="1" d="M 453.5 316 L 451.5 319 L 453.5 316 Z " /><path fill="rgb(247,91,15)" stroke="rgb(247,91,15)" stroke-width="1" opacity="1" d="M 450.5 320 L 446.5 325 L 450.5 320 Z " /><path fill="rgb(247,91,15)" stroke="rgb(247,91,15)" stroke-width="1" opacity="1" d="M 445.5 326 L 439.5 333 L 445.5 326 Z " /><path fill="rgb(247,91,15)" stroke="rgb(247,91,15)" stroke-width="1" opacity="1" d="M 437.5 333 L 432.5 339 L 381.5 377 L 383.5 374 L 437.5 333 Z " /><path fill="rgb(247,91,15)" stroke="rgb(247,91,15)" stroke-width="1" opacity="1" d="M 76.5 336 L 172 408.5 L 168.5 406 L 79.5 340 L 76.5 336 Z " /><path fill="rgb(247,91,15)" stroke="rgb(247,91,15)" stroke-width="1" opacity="1" d="M 379.5 377 L 377.5 380 L 379.5 377 Z " /><path fill="rgb(247,91,15)" stroke="rgb(247,91,15)" stroke-width="1" opacity="1" d="M 375.5 380 L 373.5 383 L 375.5 380 Z " /><path fill="rgb(247,91,15)" stroke="rgb(247,91,15)" stroke-width="1" opacity="1" d="M 371.5 383 L 369.5 386 L 371.5 383 Z " /><path fill="rgb(247,91,15)" stroke="rgb(247,91,15)" stroke-width="1" opacity="1" d="M 367.5 386 L 365.5 389 L 367.5 386 Z " /><path fill="rgb(247,91,15)" stroke="rgb(247,91,15)" stroke-width="1" opacity="1" d="M 363.5 389 L 361.5 392 L 363.5 389 Z " /><path fill="rgb(247,91,15)" stroke="rgb(247,91,15)" stroke-width="1" opacity="1" d="M 359.5 392 L 357.5 395 L 359.5 392 Z " /><path fill="rgb(247,91,15)" stroke="rgb(247,91,15)" stroke-width="1" opacity="1" d="M 355.5 395 L 353.5 398 L 355.5 395 Z " /><path fill="rgb(247,91,15)" stroke="rgb(247,91,15)" stroke-width="1" opacity="1" d="M 351.5 398 L 349.5 401 L 351.5 398 Z " /><path fill="rgb(247,91,15)" stroke="rgb(247,91,15)" stroke-width="1" opacity="1" d="M 347.5 401 L 345.5 404 L 347.5 401 Z " /><path fill="rgb(247,91,15)" stroke="rgb(247,91,15)" stroke-width="1" opacity="1" d="M 343.5 404 L 341.5 407 L 343.5 404 Z " /><path fill="rgb(238,122,93)" stroke="rgb(238,122,93)" stroke-width="1" opacity="1" d="M 127.5 47 L 130.5 51 L 127.5 47 Z " /><path fill="rgb(238,122,93)" stroke="rgb(238,122,93)" stroke-width="1" opacity="1" d="M 402.5 47 L 405.5 51 L 402.5 47 Z " /><path fill="rgb(238,122,93)" stroke="rgb(238,122,93)" stroke-width="1" opacity="1" d="M 337.5 178 L 336.5 180 L 173 179.5 L 336.5 179 L 337.5 178 Z " /><path fill="rgb(238,122,93)" stroke="rgb(238,122,93)" stroke-width="1" opacity="1" d="M 473.5 231 L 474 233.5 L 473 233.5 L 473.5 231 Z " /><path fill="rgb(238,122,93)" stroke="rgb(238,122,93)" stroke-width="1" opacity="1" d="M 36.5 235 L 37 237.5 L 36 237.5 L 36.5 235 Z " /><path fill="rgb(238,122,93)" stroke="rgb(238,122,93)" stroke-width="1" opacity="1" d="M 474.5 238 L 475 240.5 L 474 240.5 L 474.5 238 Z " /><path fill="rgb(238,122,93)" stroke="rgb(238,122,93)" stroke-width="1" opacity="1" d="M 35.5 245 L 36 257.5 L 35 257.5 L 35.5 245 Z " /><path fill="rgb(238,122,93)" stroke="rgb(238,122,93)" stroke-width="1" opacity="1" d="M 474.5 261 L 475 264.5 L 474 264.5 L 474.5 261 Z " /><path fill="rgb(238,122,93)" stroke="rgb(238,122,93)" stroke-width="1" opacity="1" d="M 36.5 265 L 37 267.5 L 36 267.5 L 36.5 265 Z " /><path fill="rgb(238,122,93)" stroke="rgb(238,122,93)" stroke-width="1" opacity="1" d="M 473.5 269 L 474 271.5 L 473 271.5 L 473.5 269 Z " /><path fill="rgb(238,122,93)" stroke="rgb(238,122,93)" stroke-width="1" opacity="1" d="M 37.5 271 L 38 273.5 L 37 273.5 L 37.5 271 Z " /><path fill="rgb(238,122,93)" stroke="rgb(238,122,93)" stroke-width="1" opacity="1" d="M 453.5 317 L 452.5 319 L 453.5 317 Z " /><path fill="rgb(238,122,93)" stroke="rgb(238,122,93)" stroke-width="1" opacity="1" d="M 59.5 320 L 60.5 322 L 59.5 320 Z " /><path fill="rgb(238,122,93)" stroke="rgb(238,122,93)" stroke-width="1" opacity="1" d="M 450.5 321 L 448.5 324 L 450.5 321 Z " /><path fill="rgb(238,122,93)" stroke="rgb(238,122,93)" stroke-width="1" opacity="1" d="M 64.5 326 L 71.5 334 L 64.5 326 Z " /><path fill="rgb(238,122,93)" stroke="rgb(238,122,93)" stroke-width="1" opacity="1" d="M 436.5 335 L 434.5 338 L 436.5 335 Z " /><path fill="rgb(238,122,93)" stroke="rgb(238,122,93)" stroke-width="1" opacity="1" d="M 76.5 337 L 77.5 339 L 76.5 337 Z " /><path fill="rgb(238,122,93)" stroke="rgb(238,122,93)" stroke-width="1" opacity="1" d="M 395.5 366 L 394.5 368 L 395.5 366 Z " /><path fill="rgb(238,122,93)" stroke="rgb(238,122,93)" stroke-width="1" opacity="1" d="M 391.5 369 L 390.5 371 L 391.5 369 Z " /><path fill="rgb(238,122,93)" stroke="rgb(238,122,93)" stroke-width="1" opacity="1" d="M 387.5 372 L 386.5 374 L 387.5 372 Z " /><path fill="rgb(238,122,93)" stroke="rgb(238,122,93)" stroke-width="1" opacity="1" d="M 383.5 375 L 382.5 377 L 383.5 375 Z " /><path fill="rgb(238,122,93)" stroke="rgb(238,122,93)" stroke-width="1" opacity="1" d="M 379.5 378 L 378.5 380 L 379.5 378 Z " /><path fill="rgb(238,122,93)" stroke="rgb(238,122,93)" stroke-width="1" opacity="1" d="M 375.5 381 L 374.5 383 L 375.5 381 Z " /><path fill="rgb(238,122,93)" stroke="rgb(238,122,93)" stroke-width="1" opacity="1" d="M 371.5 384 L 370.5 386 L 371.5 384 Z " /><path fill="rgb(238,122,93)" stroke="rgb(238,122,93)" stroke-width="1" opacity="1" d="M 367.5 387 L 366.5 389 L 367.5 387 Z " /><path fill="rgb(238,122,93)" stroke="rgb(238,122,93)" stroke-width="1" opacity="1" d="M 363.5 390 L 362.5 392 L 363.5 390 Z " /><path fill="rgb(238,122,93)" stroke="rgb(238,122,93)" stroke-width="1" opacity="1" d="M 359.5 393 L 358.5 395 L 359.5 393 Z " /><path fill="rgb(238,122,93)" stroke="rgb(238,122,93)" stroke-width="1" opacity="1" d="M 355.5 396 L 354.5 398 L 355.5 396 Z " /><path fill="rgb(238,122,93)" stroke="rgb(238,122,93)" stroke-width="1" opacity="1" d="M 351.5 399 L 350.5 401 L 351.5 399 Z " /><path fill="rgb(238,122,93)" stroke="rgb(238,122,93)" stroke-width="1" opacity="1" d="M 347.5 402 L 346.5 404 L 347.5 402 Z " /><path fill="rgb(238,122,93)" stroke="rgb(238,122,93)" stroke-width="1" opacity="1" d="M 343.5 405 L 342.5 407 L 343.5 405 Z " /><path fill="rgb(238,122,93)" stroke="rgb(238,122,93)" stroke-width="1" opacity="1" d="M 253.5 467 L 258 467.5 L 253.5 468 L 253.5 467 Z " /><path fill="rgb(251,109,32)" stroke="rgb(251,109,32)" stroke-width="1" opacity="1" d="M 44 211 Q 82.6 218 110.5 237 L 254 345.5 L 250.5 350 L 171.5 408 Q 169.8 404.9 168 406.5 L 168.5 405 L 165.5 403 L 164 403.5 L 164.5 402 L 161.5 400 L 160 400.5 L 160.5 399 L 157.5 397 L 156 397.5 L 156.5 396 L 153.5 394 L 152 394.5 L 152.5 393 L 149.5 391 L 148 391.5 L 148.5 390 L 145.5 388 L 144 388.5 L 144.5 387 L 141.5 385 L 140 385.5 L 140.5 384 L 137.5 382 L 136 382.5 L 136.5 381 L 133.5 379 L 132 379.5 L 132.5 378 L 129.5 376 L 128 376.5 L 128.5 375 L 125.5 373 L 124 373.5 L 124.5 372 L 121.5 370 L 120 370.5 L 120.5 369 L 117.5 367 L 116 367.5 L 116.5 366 L 113.5 364 L 112 364.5 L 112.5 363 L 109.5 361 L 108 361.5 L 108.5 360 L 105.5 358 L 104 358.5 L 104.5 357 L 101.5 355 L 100 355.5 L 100.5 354 L 97.5 352 L 96 352.5 L 96.5 351 L 93.5 349 L 92 349.5 L 92.5 348 L 89.5 346 L 88 346.5 L 88.5 345 L 85.5 343 L 84 343.5 L 84.5 342 L 81.5 340 L 80 340.5 L 80.5 339 L 76.5 336 L 75 336.5 L 62.5 322 L 61 322.5 L 62 321.5 L 59 318.5 L 58.5 317 L 57 317.5 Q 59.3 316.3 56.5 315 L 55 314.5 Q 57.2 313.3 54.5 312 L 53 311.5 Q 55.3 310.3 52.5 309 L 51 308.5 L 51 306.5 L 46 295 L 44 294.5 L 45 292.5 L 44 290 L 42 289.5 L 43 287 L 41 286.5 L 42 284 L 40 283.5 L 41 280 L 39 279.5 L 40 276 L 38 275.5 L 39 271 L 37 270.5 L 38 265 Q 35.3 266.1 36 263.5 L 37 262.5 L 37 240.5 L 36 238 Q 39.7 239.3 38 233.5 L 37 231.5 L 39 231.5 L 38 227.5 L 40 227 L 39 223.5 L 41 223 L 40 219.5 L 42 219 L 41 216.5 L 43 216 L 42 213.5 L 44 213 L 44 211 Z " /><path fill="rgb(251,109,32)" stroke="rgb(251,109,32)" stroke-width="1" opacity="1" d="M 462.5 211 L 468 211.5 L 467 214 L 469 214.5 L 468 217 L 470 217.5 L 469 220 L 471 220.5 L 470 224 L 472 224.5 L 471 228 L 473 228.5 L 472 234 L 474 234.5 Q 471.5 236 473 241.5 L 475 241.5 L 474 257.5 L 475 261 Q 471.5 259.9 473 267.5 L 473.5 269 Q 470.5 268.1 472 272.5 L 473 275 Q 470 273.8 471 277.5 L 471.5 279 Q 468.9 278.2 470 281.5 L 470.5 283 L 469 282.5 L 470 285.5 L 468 286 L 469 288.5 L 467 289 L 466 292.5 L 466.5 294 Q 464.3 293.3 465 295.5 L 464 297.5 L 464.5 299 L 463 298.5 L 464 300.5 L 462 301.5 L 462.5 303 L 460 304.5 L 458 308.5 L 458.5 310 L 456 311.5 L 456.5 313 L 454 314.5 L 454.5 316 L 451 318.5 L 451.5 320 L 447 323.5 Q 449.3 324.8 446.5 326 L 439 332.5 L 437.5 335 L 436.5 334 L 432.5 338 L 431 338.5 L 431.5 340 Q 430 337.5 428.5 341 L 427 341.5 L 427.5 343 Q 426 340.5 424.5 344 L 423 344.5 L 423.5 346 Q 422 343.5 420.5 347 L 419 347.5 L 419.5 349 Q 418 346.5 416.5 350 L 415 350.5 L 415.5 352 Q 414 349.5 412.5 353 L 411 353.5 L 411.5 355 Q 410 352.5 408.5 356 L 407 356.5 L 407.5 358 Q 406 355.5 404.5 359 L 403 359.5 L 403.5 361 Q 402 358.5 400.5 362 L 399 362.5 L 399.5 364 Q 398 361.5 396.5 365 L 381 376.5 L 380.5 378 Q 378.8 375.2 377 379.5 L 376.5 381 Q 374.8 378.3 373 382.5 L 372.5 384 Q 370.7 381.2 369 385.5 L 368.5 387 Q 366.8 384.2 365 388.5 L 364.5 390 Q 362.7 387.2 361 391.5 L 360.5 393 Q 358.7 390.2 357 394.5 L 356.5 396 Q 354.7 393.3 353 397.5 L 352.5 399 Q 350.7 396.3 349 400.5 L 348.5 402 Q 346.8 399.3 345 403.5 L 344.5 405 Q 342.8 402.3 341 406.5 L 340.5 408 L 339 407.5 L 338.5 409 L 256 347 L 257.5 344 L 398.5 238 Q 425.8 219.8 462.5 211 Z " /><path fill="rgb(251,164,34)" stroke="rgb(251,164,34)" stroke-width="1" opacity="1" d="M 254.5 346 L 257.5 347 L 338 408.5 L 335.5 412 L 263.5 466 Q 258.4 468.4 249.5 467 L 172 410 L 173.5 407 L 254.5 346 Z " /></svg>