<svg width="500" height="500" viewBox="0 0 500 500" fill="none" xmlns="http://www.w3.org/2000/svg">
<g clip-path="url(#clip0_1365_5450)">
<circle cx="250" cy="250" r="250" fill="white"/>
<path d="M288.54 78.7037L373.332 163.495L330.936 171.204L288.54 163.495L280.832 121.1L288.54 78.7037Z" fill="#188038"/>
<path d="M288.541 163.495V78.7037H149.791C137.014 78.7037 126.666 89.0522 126.666 101.829V394.745C126.666 407.522 137.014 417.87 149.791 417.87H350.208C362.984 417.87 373.333 407.522 373.333 394.745V163.495H288.541Z" fill="#34A853"/>
<path d="M172.916 209.745V321.516H327.083V209.745H172.916ZM240.364 302.245H192.187V275.266H240.364V302.245ZM240.364 255.995H192.187V229.016H240.364V255.995ZM307.812 302.245H259.635V275.266H307.812V302.245ZM307.812 255.995H259.635V229.016H307.812V255.995Z" fill="white"/>
</g>
<defs>
<clipPath id="clip0_1365_5450">
<rect width="500" height="500" fill="white"/>
</clipPath>
</defs>
</svg>
