<svg width="1820" height="1024" version="1.1" xmlns="http://www.w3.org/2000/svg" desc="Created with imagetracer.js version 1.2.6" ><path fill="rgb(228,221,215)" stroke="rgb(228,221,215)" stroke-width="1" opacity="1" d="M 891.5 128 L 899 128.5 L 891.5 129 L 891.5 128 Z " /><path fill="rgb(228,221,215)" stroke="rgb(228,221,215)" stroke-width="1" opacity="1" d="M 936.5 128 L 945 128.5 L 936.5 129 L 936.5 128 Z " /><path fill="rgb(228,221,215)" stroke="rgb(228,221,215)" stroke-width="1" opacity="1" d="M 879.5 129 L 884 129.5 L 879.5 130 L 879.5 129 Z " /><path fill="rgb(228,221,215)" stroke="rgb(228,221,215)" stroke-width="1" opacity="1" d="M 952.5 129 L 957 129.5 L 952.5 130 L 952.5 129 Z " /><path fill="rgb(228,221,215)" stroke="rgb(228,221,215)" stroke-width="1" opacity="1" d="M 870.5 130 L 874 130.5 L 870.5 131 L 870.5 130 Z " /><path fill="rgb(228,221,215)" stroke="rgb(228,221,215)" stroke-width="1" opacity="1" d="M 962.5 130 L 966 130.5 L 962.5 131 L 962.5 130 Z " /><path fill="rgb(228,221,215)" stroke="rgb(228,221,215)" stroke-width="1" opacity="1" d="M 863.5 131 L 866 131.5 L 863.5 132 L 863.5 131 Z " /><path fill="rgb(228,221,215)" stroke="rgb(228,221,215)" stroke-width="1" opacity="1" d="M 970.5 131 L 974 131.5 L 970.5 132 L 970.5 131 Z " /><path fill="rgb(228,221,215)" stroke="rgb(228,221,215)" stroke-width="1" opacity="1" d="M 856.5 132 L 859 132.5 L 856.5 133 L 856.5 132 Z " /><path fill="rgb(228,221,215)" stroke="rgb(228,221,215)" stroke-width="1" opacity="1" d="M 977.5 132 L 981 132.5 L 977.5 133 L 977.5 132 Z " /><path fill="rgb(228,221,215)" stroke="rgb(228,221,215)" stroke-width="1" opacity="1" d="M 850.5 133 L 853 133.5 L 850.5 134 L 850.5 133 Z " /><path fill="rgb(228,221,215)" stroke="rgb(228,221,215)" stroke-width="1" opacity="1" d="M 984.5 133 L 987 133.5 L 984.5 134 L 984.5 133 Z " /><path fill="rgb(228,221,215)" stroke="rgb(228,221,215)" stroke-width="1" opacity="1" d="M 845.5 134 L 848 134.5 L 845.5 135 L 845.5 134 Z " /><path fill="rgb(228,221,215)" stroke="rgb(228,221,215)" stroke-width="1" opacity="1" d="M 989.5 134 L 992 134.5 L 989.5 135 L 989.5 134 Z " /><path fill="rgb(228,221,215)" stroke="rgb(228,221,215)" stroke-width="1" opacity="1" d="M 835.5 136 L 838 136.5 L 835.5 137 L 835.5 136 Z " /><path fill="rgb(228,221,215)" stroke="rgb(228,221,215)" stroke-width="1" opacity="1" d="M 739.5 171 L 738.5 173 L 739.5 171 Z " /><path fill="rgb(228,221,215)" stroke="rgb(228,221,215)" stroke-width="1" opacity="1" d="M 1098.5 172 L 1099.5 174 L 1098.5 172 Z " /><path fill="rgb(228,221,215)" stroke="rgb(228,221,215)" stroke-width="1" opacity="1" d="M 1105.5 176 L 1106.5 178 L 1105.5 176 Z " /><path fill="rgb(228,221,215)" stroke="rgb(228,221,215)" stroke-width="1" opacity="1" d="M 728.5 177 L 727.5 179 L 728.5 177 Z " /><path fill="rgb(228,221,215)" stroke="rgb(228,221,215)" stroke-width="1" opacity="1" d="M 1110.5 179 L 1111.5 181 L 1110.5 179 Z " /><path fill="rgb(228,221,215)" stroke="rgb(228,221,215)" stroke-width="1" opacity="1" d="M 723.5 180 L 722.5 182 L 723.5 180 Z " /><path fill="rgb(228,221,215)" stroke="rgb(228,221,215)" stroke-width="1" opacity="1" d="M 1115.5 182 L 1116.5 184 L 1115.5 182 Z " /><path fill="rgb(228,221,215)" stroke="rgb(228,221,215)" stroke-width="1" opacity="1" d="M 718.5 183 L 717.5 185 L 718.5 183 Z " /><path fill="rgb(228,221,215)" stroke="rgb(228,221,215)" stroke-width="1" opacity="1" d="M 1118.5 184 L 1122 186.5 L 1120.5 186 L 1118.5 184 Z " /><path fill="rgb(228,221,215)" stroke="rgb(228,221,215)" stroke-width="1" opacity="1" d="M 713.5 186 L 712.5 188 L 713.5 186 Z " /><path fill="rgb(228,221,215)" stroke="rgb(228,221,215)" stroke-width="1" opacity="1" d="M 1123.5 187 L 1124.5 189 L 1123.5 187 Z " /><path fill="rgb(228,221,215)" stroke="rgb(228,221,215)" stroke-width="1" opacity="1" d="M 710.5 188 L 709.5 190 L 710.5 188 Z " /><path fill="rgb(228,221,215)" stroke="rgb(228,221,215)" stroke-width="1" opacity="1" d="M 1126.5 189 L 1127.5 191 L 1126.5 189 Z " /><path fill="rgb(228,221,215)" stroke="rgb(228,221,215)" stroke-width="1" opacity="1" d="M 707.5 190 L 706.5 192 L 707.5 190 Z " /><path fill="rgb(228,221,215)" stroke="rgb(228,221,215)" stroke-width="1" opacity="1" d="M 1129.5 191 L 1131.5 194 L 1129.5 191 Z " /><path fill="rgb(228,221,215)" stroke="rgb(228,221,215)" stroke-width="1" opacity="1" d="M 704.5 192 L 703.5 194 L 704.5 192 Z " /><path fill="rgb(228,221,215)" stroke="rgb(228,221,215)" stroke-width="1" opacity="1" d="M 701.5 194 L 700.5 196 L 701.5 194 Z " /><path fill="rgb(228,221,215)" stroke="rgb(228,221,215)" stroke-width="1" opacity="1" d="M 1133.5 194 L 1134.5 196 L 1133.5 194 Z " /><path fill="rgb(228,221,215)" stroke="rgb(228,221,215)" stroke-width="1" opacity="1" d="M 698.5 196 L 697.5 198 L 698.5 196 Z " /><path fill="rgb(228,221,215)" stroke="rgb(228,221,215)" stroke-width="1" opacity="1" d="M 1136.5 196 L 1137.5 198 L 1136.5 196 Z " /><path fill="rgb(228,221,215)" stroke="rgb(228,221,215)" stroke-width="1" opacity="1" d="M 694.5 199 L 693.5 201 L 694.5 199 Z " /><path fill="rgb(228,221,215)" stroke="rgb(228,221,215)" stroke-width="1" opacity="1" d="M 1140.5 199 L 1141.5 201 L 1140.5 199 Z " /><path fill="rgb(228,221,215)" stroke="rgb(228,221,215)" stroke-width="1" opacity="1" d="M 691.5 201 L 689.5 204 L 691.5 201 Z " /><path fill="rgb(228,221,215)" stroke="rgb(228,221,215)" stroke-width="1" opacity="1" d="M 1143.5 201 L 1146.5 205 L 1143.5 201 Z " /><path fill="rgb(228,221,215)" stroke="rgb(228,221,215)" stroke-width="1" opacity="1" d="M 687.5 204 L 685.5 207 L 687.5 204 Z " /><path fill="rgb(228,221,215)" stroke="rgb(228,221,215)" stroke-width="1" opacity="1" d="M 1148.5 205 L 1150.5 208 L 1148.5 205 Z " /><path fill="rgb(228,221,215)" stroke="rgb(228,221,215)" stroke-width="1" opacity="1" d="M 683.5 207 L 681.5 210 L 683.5 207 Z " /><path fill="rgb(228,221,215)" stroke="rgb(228,221,215)" stroke-width="1" opacity="1" d="M 1152.5 208 L 1155.5 212 L 1152.5 208 Z " /><path fill="rgb(228,221,215)" stroke="rgb(228,221,215)" stroke-width="1" opacity="1" d="M 678.5 211 L 676.5 214 L 678.5 211 Z " /><path fill="rgb(228,221,215)" stroke="rgb(228,221,215)" stroke-width="1" opacity="1" d="M 1158.5 213 L 1162.5 218 L 1158.5 213 Z " /><path fill="rgb(228,221,215)" stroke="rgb(228,221,215)" stroke-width="1" opacity="1" d="M 673.5 215 L 670.5 219 L 673.5 215 Z " /><path fill="rgb(228,221,215)" stroke="rgb(228,221,215)" stroke-width="1" opacity="1" d="M 1164.5 218 L 1170.5 225 L 1164.5 218 Z " /><path fill="rgb(228,221,215)" stroke="rgb(228,221,215)" stroke-width="1" opacity="1" d="M 667.5 220 L 662.5 226 L 667.5 220 Z " /><path fill="rgb(228,221,215)" stroke="rgb(228,221,215)" stroke-width="1" opacity="1" d="M 1174.5 227 L 1175 228.5 L 1065 337.5 L 1174.5 227 Z " /><path fill="rgb(228,221,215)" stroke="rgb(228,221,215)" stroke-width="1" opacity="1" d="M 658.5 228 L 635.5 252 L 658.5 228 Z " /><path fill="rgb(228,221,215)" stroke="rgb(228,221,215)" stroke-width="1" opacity="1" d="M 632.5 255 L 627.5 261 L 632.5 255 Z " /><path fill="rgb(228,221,215)" stroke="rgb(228,221,215)" stroke-width="1" opacity="1" d="M 625.5 263 L 622.5 267 L 625.5 263 Z " /><path fill="rgb(228,221,215)" stroke="rgb(228,221,215)" stroke-width="1" opacity="1" d="M 620.5 269 L 617.5 273 L 620.5 269 Z " /><path fill="rgb(228,221,215)" stroke="rgb(228,221,215)" stroke-width="1" opacity="1" d="M 616.5 274 L 614.5 277 L 616.5 274 Z " /><path fill="rgb(228,221,215)" stroke="rgb(228,221,215)" stroke-width="1" opacity="1" d="M 613.5 278 L 610.5 282 L 613.5 278 Z " /><path fill="rgb(228,221,215)" stroke="rgb(228,221,215)" stroke-width="1" opacity="1" d="M 900.5 281 L 907 281.5 L 900.5 282 L 900.5 281 Z " /><path fill="rgb(228,221,215)" stroke="rgb(228,221,215)" stroke-width="1" opacity="1" d="M 929.5 281 L 936 281.5 L 929.5 282 L 929.5 281 Z " /><path fill="rgb(228,221,215)" stroke="rgb(228,221,215)" stroke-width="1" opacity="1" d="M 890.5 282 L 894 282.5 L 890.5 283 L 890.5 282 Z " /><path fill="rgb(228,221,215)" stroke="rgb(228,221,215)" stroke-width="1" opacity="1" d="M 942.5 282 L 946 282.5 L 942.5 283 L 942.5 282 Z " /><path fill="rgb(228,221,215)" stroke="rgb(228,221,215)" stroke-width="1" opacity="1" d="M 609.5 283 L 608.5 285 L 609.5 283 Z " /><path fill="rgb(228,221,215)" stroke="rgb(228,221,215)" stroke-width="1" opacity="1" d="M 883.5 283 L 886 283.5 L 883.5 284 L 883.5 283 Z " /><path fill="rgb(228,221,215)" stroke="rgb(228,221,215)" stroke-width="1" opacity="1" d="M 950.5 283 L 953 283.5 L 950.5 284 L 950.5 283 Z " /><path fill="rgb(228,221,215)" stroke="rgb(228,221,215)" stroke-width="1" opacity="1" d="M 956.5 284 L 959 284.5 L 956.5 285 L 956.5 284 Z " /><path fill="rgb(228,221,215)" stroke="rgb(228,221,215)" stroke-width="1" opacity="1" d="M 872.5 285 L 875 285.5 L 872.5 286 L 872.5 285 Z " /><path fill="rgb(228,221,215)" stroke="rgb(228,221,215)" stroke-width="1" opacity="1" d="M 607.5 286 L 605.5 289 L 607.5 286 Z " /><path fill="rgb(228,221,215)" stroke="rgb(228,221,215)" stroke-width="1" opacity="1" d="M 604.5 290 L 603.5 292 L 604.5 290 Z " /><path fill="rgb(228,221,215)" stroke="rgb(228,221,215)" stroke-width="1" opacity="1" d="M 602.5 293 L 600.5 296 L 602.5 293 Z " /><path fill="rgb(228,221,215)" stroke="rgb(228,221,215)" stroke-width="1" opacity="1" d="M 599.5 297 L 598.5 299 L 599.5 297 Z " /><path fill="rgb(228,221,215)" stroke="rgb(228,221,215)" stroke-width="1" opacity="1" d="M 597.5 300 L 596.5 302 L 597.5 300 Z " /><path fill="rgb(228,221,215)" stroke="rgb(228,221,215)" stroke-width="1" opacity="1" d="M 1012.5 302 L 1017 304.5 L 1015.5 304 Q 1011.7 303.8 1012.5 302 Z " /><path fill="rgb(228,221,215)" stroke="rgb(228,221,215)" stroke-width="1" opacity="1" d="M 594.5 305 L 593.5 307 L 594.5 305 Z " /><path fill="rgb(228,221,215)" stroke="rgb(228,221,215)" stroke-width="1" opacity="1" d="M 592.5 308 L 591.5 310 L 592.5 308 Z " /><path fill="rgb(228,221,215)" stroke="rgb(228,221,215)" stroke-width="1" opacity="1" d="M 1026.5 309 L 1027.5 311 L 1026.5 309 Z " /><path fill="rgb(228,221,215)" stroke="rgb(228,221,215)" stroke-width="1" opacity="1" d="M 1031.5 312 L 1032.5 314 L 1031.5 312 Z " /><path fill="rgb(228,221,215)" stroke="rgb(228,221,215)" stroke-width="1" opacity="1" d="M 589.5 313 L 588.5 315 L 589.5 313 Z " /><path fill="rgb(228,221,215)" stroke="rgb(228,221,215)" stroke-width="1" opacity="1" d="M 1034.5 314 L 1035.5 316 L 1034.5 314 Z " /><path fill="rgb(228,221,215)" stroke="rgb(228,221,215)" stroke-width="1" opacity="1" d="M 797.5 316 L 796.5 318 L 797.5 316 Z " /><path fill="rgb(228,221,215)" stroke="rgb(228,221,215)" stroke-width="1" opacity="1" d="M 1037.5 316 L 1038.5 318 L 1037.5 316 Z " /><path fill="rgb(228,221,215)" stroke="rgb(228,221,215)" stroke-width="1" opacity="1" d="M 586.5 318 L 585.5 320 L 586.5 318 Z " /><path fill="rgb(228,221,215)" stroke="rgb(228,221,215)" stroke-width="1" opacity="1" d="M 794.5 318 L 793.5 320 L 794.5 318 Z " /><path fill="rgb(228,221,215)" stroke="rgb(228,221,215)" stroke-width="1" opacity="1" d="M 1040.5 318 L 1041.5 320 L 1040.5 318 Z " /><path fill="rgb(228,221,215)" stroke="rgb(228,221,215)" stroke-width="1" opacity="1" d="M 791.5 320 L 790.5 322 L 791.5 320 Z " /><path fill="rgb(228,221,215)" stroke="rgb(228,221,215)" stroke-width="1" opacity="1" d="M 1044.5 321 L 1045.5 323 L 1044.5 321 Z " /><path fill="rgb(228,221,215)" stroke="rgb(228,221,215)" stroke-width="1" opacity="1" d="M 787.5 323 L 786.5 325 L 787.5 323 Z " /><path fill="rgb(228,221,215)" stroke="rgb(228,221,215)" stroke-width="1" opacity="1" d="M 1047.5 323 L 1050.5 327 L 1047.5 323 Z " /><path fill="rgb(228,221,215)" stroke="rgb(228,221,215)" stroke-width="1" opacity="1" d="M 582.5 325 L 581.5 327 L 582.5 325 Z " /><path fill="rgb(228,221,215)" stroke="rgb(228,221,215)" stroke-width="1" opacity="1" d="M 783.5 326 L 782.5 328 L 783.5 326 Z " /><path fill="rgb(228,221,215)" stroke="rgb(228,221,215)" stroke-width="1" opacity="1" d="M 1052.5 327 L 1055.5 331 L 1052.5 327 Z " /><path fill="rgb(228,221,215)" stroke="rgb(228,221,215)" stroke-width="1" opacity="1" d="M 779.5 329 L 778.5 331 L 779.5 329 Z " /><path fill="rgb(228,221,215)" stroke="rgb(228,221,215)" stroke-width="1" opacity="1" d="M 1058.5 332 L 1063.5 338 L 1058.5 332 Z " /><path fill="rgb(228,221,215)" stroke="rgb(228,221,215)" stroke-width="1" opacity="1" d="M 774.5 333 L 772.5 336 L 774.5 333 Z " /><path fill="rgb(228,221,215)" stroke="rgb(228,221,215)" stroke-width="1" opacity="1" d="M 766.5 340 L 752.5 355 L 766.5 340 Z " /><path fill="rgb(228,221,215)" stroke="rgb(228,221,215)" stroke-width="1" opacity="1" d="M 747.5 360 L 745.5 363 L 747.5 360 Z " /><path fill="rgb(228,221,215)" stroke="rgb(228,221,215)" stroke-width="1" opacity="1" d="M 742.5 366 L 741.5 368 L 742.5 366 Z " /><path fill="rgb(228,221,215)" stroke="rgb(228,221,215)" stroke-width="1" opacity="1" d="M 738.5 371 L 737.5 373 L 738.5 371 Z " /><path fill="rgb(228,221,215)" stroke="rgb(228,221,215)" stroke-width="1" opacity="1" d="M 733.5 378 L 732.5 380 L 733.5 378 Z " /><path fill="rgb(228,221,215)" stroke="rgb(228,221,215)" stroke-width="1" opacity="1" d="M 541.5 433 L 542 435.5 L 541 435.5 L 541.5 433 Z " /><path fill="rgb(228,221,215)" stroke="rgb(228,221,215)" stroke-width="1" opacity="1" d="M 540.5 438 L 541 440.5 L 540 440.5 L 540.5 438 Z " /><path fill="rgb(228,221,215)" stroke="rgb(228,221,215)" stroke-width="1" opacity="1" d="M 917.5 442 L 918 590.5 L 917 590.5 L 917.5 442 Z " /><path fill="rgb(228,221,215)" stroke="rgb(228,221,215)" stroke-width="1" opacity="1" d="M 539.5 443 L 540 445.5 L 539 445.5 L 539.5 443 Z " /><path fill="rgb(228,221,215)" stroke="rgb(228,221,215)" stroke-width="1" opacity="1" d="M 538.5 449 L 539 451.5 L 538 451.5 L 538.5 449 Z " /><path fill="rgb(228,221,215)" stroke="rgb(228,221,215)" stroke-width="1" opacity="1" d="M 537.5 455 L 538 458.5 L 537 458.5 L 537.5 455 Z " /><path fill="rgb(228,221,215)" stroke="rgb(228,221,215)" stroke-width="1" opacity="1" d="M 1282.5 460 L 1283 462.5 L 1282 462.5 L 1282.5 460 Z " /><path fill="rgb(228,221,215)" stroke="rgb(228,221,215)" stroke-width="1" opacity="1" d="M 536.5 463 L 537 465.5 L 536 465.5 L 536.5 463 Z " /><path fill="rgb(228,221,215)" stroke="rgb(228,221,215)" stroke-width="1" opacity="1" d="M 1283.5 468 L 1284 470.5 L 1283 470.5 L 1283.5 468 Z " /><path fill="rgb(228,221,215)" stroke="rgb(228,221,215)" stroke-width="1" opacity="1" d="M 694.5 469 L 695 471.5 L 694 471.5 L 694.5 469 Z " /><path fill="rgb(228,221,215)" stroke="rgb(228,221,215)" stroke-width="1" opacity="1" d="M 535.5 471 L 536 475.5 L 535 475.5 L 535.5 471 Z " /><path fill="rgb(228,221,215)" stroke="rgb(228,221,215)" stroke-width="1" opacity="1" d="M 693.5 475 L 694 477.5 L 693 477.5 L 693.5 475 Z " /><path fill="rgb(228,221,215)" stroke="rgb(228,221,215)" stroke-width="1" opacity="1" d="M 1284.5 477 L 1285 480.5 L 1284 480.5 L 1284.5 477 Z " /><path fill="rgb(228,221,215)" stroke="rgb(228,221,215)" stroke-width="1" opacity="1" d="M 692.5 481 L 693 484.5 L 692 484.5 L 692.5 481 Z " /><path fill="rgb(228,221,215)" stroke="rgb(228,221,215)" stroke-width="1" opacity="1" d="M 534.5 482 L 535 487.5 L 534 487.5 L 534.5 482 Z " /><path fill="rgb(228,221,215)" stroke="rgb(228,221,215)" stroke-width="1" opacity="1" d="M 691.5 489 L 692 493.5 L 691 493.5 L 691.5 489 Z " /><path fill="rgb(228,221,215)" stroke="rgb(228,221,215)" stroke-width="1" opacity="1" d="M 1285.5 489 L 1286 493.5 L 1285 493.5 L 1285.5 489 Z " /><path fill="rgb(228,221,215)" stroke="rgb(228,221,215)" stroke-width="1" opacity="1" d="M 533.5 501 L 534 521.5 L 533 521.5 L 533.5 501 Z " /><path fill="rgb(228,221,215)" stroke="rgb(228,221,215)" stroke-width="1" opacity="1" d="M 690.5 504 L 691 519.5 L 690 519.5 L 690.5 504 Z " /><path fill="rgb(228,221,215)" stroke="rgb(228,221,215)" stroke-width="1" opacity="1" d="M 1286.5 510 L 1287 532.5 L 1286 532.5 L 1286.5 510 Z " /><path fill="rgb(228,221,215)" stroke="rgb(228,221,215)" stroke-width="1" opacity="1" d="M 691.5 530 L 692 533.5 L 691 533.5 L 691.5 530 Z " /><path fill="rgb(228,221,215)" stroke="rgb(228,221,215)" stroke-width="1" opacity="1" d="M 534.5 536 L 535 541.5 L 534 541.5 L 534.5 536 Z " /><path fill="rgb(228,221,215)" stroke="rgb(228,221,215)" stroke-width="1" opacity="1" d="M 692.5 540 L 693 542.5 L 692 542.5 L 692.5 540 Z " /><path fill="rgb(228,221,215)" stroke="rgb(228,221,215)" stroke-width="1" opacity="1" d="M 535.5 548 L 536 551.5 L 535 551.5 L 535.5 548 Z " /><path fill="rgb(228,221,215)" stroke="rgb(228,221,215)" stroke-width="1" opacity="1" d="M 1285.5 548 L 1286 553.5 L 1285 553.5 L 1285.5 548 Z " /><path fill="rgb(228,221,215)" stroke="rgb(228,221,215)" stroke-width="1" opacity="1" d="M 694.5 552 L 695 554.5 L 694 554.5 L 694.5 552 Z " /><path fill="rgb(228,221,215)" stroke="rgb(228,221,215)" stroke-width="1" opacity="1" d="M 536.5 558 L 537 560.5 L 536 560.5 L 536.5 558 Z " /><path fill="rgb(228,221,215)" stroke="rgb(228,221,215)" stroke-width="1" opacity="1" d="M 1284.5 562 L 1285 565.5 L 1284 565.5 L 1284.5 562 Z " /><path fill="rgb(228,221,215)" stroke="rgb(228,221,215)" stroke-width="1" opacity="1" d="M 537.5 565 L 538 567.5 L 537 567.5 L 537.5 565 Z " /><path fill="rgb(228,221,215)" stroke="rgb(228,221,215)" stroke-width="1" opacity="1" d="M 1283.5 572 L 1284 574.5 L 1283 574.5 L 1283.5 572 Z " /><path fill="rgb(228,221,215)" stroke="rgb(228,221,215)" stroke-width="1" opacity="1" d="M 1282.5 580 L 1283 582.5 L 1282 582.5 L 1282.5 580 Z " /><path fill="rgb(228,221,215)" stroke="rgb(228,221,215)" stroke-width="1" opacity="1" d="M 1280.5 594 L 1281 596.5 L 1280 596.5 L 1280.5 594 Z " /><path fill="rgb(228,221,215)" stroke="rgb(228,221,215)" stroke-width="1" opacity="1" d="M 721.5 627 L 722.5 629 L 721.5 627 Z " /><path fill="rgb(228,221,215)" stroke="rgb(228,221,215)" stroke-width="1" opacity="1" d="M 724.5 632 L 725.5 634 L 724.5 632 Z " /><path fill="rgb(228,221,215)" stroke="rgb(228,221,215)" stroke-width="1" opacity="1" d="M 729.5 640 L 730.5 642 L 729.5 640 Z " /><path fill="rgb(228,221,215)" stroke="rgb(228,221,215)" stroke-width="1" opacity="1" d="M 731.5 643 L 733.5 646 L 731.5 643 Z " /><path fill="rgb(228,221,215)" stroke="rgb(228,221,215)" stroke-width="1" opacity="1" d="M 734.5 647 L 735.5 649 L 734.5 647 Z " /><path fill="rgb(228,221,215)" stroke="rgb(228,221,215)" stroke-width="1" opacity="1" d="M 736.5 650 L 738.5 653 L 736.5 650 Z " /><path fill="rgb(228,221,215)" stroke="rgb(228,221,215)" stroke-width="1" opacity="1" d="M 740.5 655 L 742.5 658 L 740.5 655 Z " /><path fill="rgb(228,221,215)" stroke="rgb(228,221,215)" stroke-width="1" opacity="1" d="M 743.5 659 L 747.5 664 L 743.5 659 Z " /><path fill="rgb(228,221,215)" stroke="rgb(228,221,215)" stroke-width="1" opacity="1" d="M 749.5 666 L 770.5 688 L 749.5 666 Z " /><path fill="rgb(228,221,215)" stroke="rgb(228,221,215)" stroke-width="1" opacity="1" d="M 1089.5 667 L 1088.5 669 L 1089.5 667 Z " /><path fill="rgb(228,221,215)" stroke="rgb(228,221,215)" stroke-width="1" opacity="1" d="M 1085.5 672 L 1083.5 675 L 1085.5 672 Z " /><path fill="rgb(228,221,215)" stroke="rgb(228,221,215)" stroke-width="1" opacity="1" d="M 772.5 688 L 776.5 693 L 772.5 688 Z " /><path fill="rgb(228,221,215)" stroke="rgb(228,221,215)" stroke-width="1" opacity="1" d="M 1067.5 690 L 1065.5 693 L 1067.5 690 Z " /><path fill="rgb(228,221,215)" stroke="rgb(228,221,215)" stroke-width="1" opacity="1" d="M 778.5 693 L 781.5 697 L 778.5 693 Z " /><path fill="rgb(228,221,215)" stroke="rgb(228,221,215)" stroke-width="1" opacity="1" d="M 1060.5 696 L 1059.5 698 L 1060.5 696 Z " /><path fill="rgb(228,221,215)" stroke="rgb(228,221,215)" stroke-width="1" opacity="1" d="M 783.5 697 L 785.5 700 L 783.5 697 Z " /><path fill="rgb(228,221,215)" stroke="rgb(228,221,215)" stroke-width="1" opacity="1" d="M 582.5 699 L 583.5 701 L 582.5 699 Z " /><path fill="rgb(228,221,215)" stroke="rgb(228,221,215)" stroke-width="1" opacity="1" d="M 1056.5 699 L 1055.5 701 L 1056.5 699 Z " /><path fill="rgb(228,221,215)" stroke="rgb(228,221,215)" stroke-width="1" opacity="1" d="M 787.5 700 L 788.5 702 L 787.5 700 Z " /><path fill="rgb(228,221,215)" stroke="rgb(228,221,215)" stroke-width="1" opacity="1" d="M 790.5 702 L 792.5 705 L 790.5 702 Z " /><path fill="rgb(228,221,215)" stroke="rgb(228,221,215)" stroke-width="1" opacity="1" d="M 794.5 705 L 795.5 707 L 794.5 705 Z " /><path fill="rgb(228,221,215)" stroke="rgb(228,221,215)" stroke-width="1" opacity="1" d="M 586.5 706 L 587.5 708 L 586.5 706 Z " /><path fill="rgb(228,221,215)" stroke="rgb(228,221,215)" stroke-width="1" opacity="1" d="M 1046.5 706 L 1045.5 708 L 1046.5 706 Z " /><path fill="rgb(228,221,215)" stroke="rgb(228,221,215)" stroke-width="1" opacity="1" d="M 799.5 708 L 800.5 710 L 799.5 708 Z " /><path fill="rgb(228,221,215)" stroke="rgb(228,221,215)" stroke-width="1" opacity="1" d="M 1043.5 708 L 1042.5 710 L 1043.5 708 Z " /><path fill="rgb(228,221,215)" stroke="rgb(228,221,215)" stroke-width="1" opacity="1" d="M 802.5 710 L 803.5 712 L 802.5 710 Z " /><path fill="rgb(228,221,215)" stroke="rgb(228,221,215)" stroke-width="1" opacity="1" d="M 1040.5 710 L 1039.5 712 L 1040.5 710 Z " /><path fill="rgb(228,221,215)" stroke="rgb(228,221,215)" stroke-width="1" opacity="1" d="M 589.5 711 L 590.5 713 L 589.5 711 Z " /><path fill="rgb(228,221,215)" stroke="rgb(228,221,215)" stroke-width="1" opacity="1" d="M 591.5 714 L 592.5 716 L 591.5 714 Z " /><path fill="rgb(228,221,215)" stroke="rgb(228,221,215)" stroke-width="1" opacity="1" d="M 809.5 714 L 810.5 716 L 809.5 714 Z " /><path fill="rgb(228,221,215)" stroke="rgb(228,221,215)" stroke-width="1" opacity="1" d="M 1033.5 714 L 1032.5 716 L 1033.5 714 Z " /><path fill="rgb(228,221,215)" stroke="rgb(228,221,215)" stroke-width="1" opacity="1" d="M 594.5 719 L 595.5 721 L 594.5 719 Z " /><path fill="rgb(228,221,215)" stroke="rgb(228,221,215)" stroke-width="1" opacity="1" d="M 596.5 722 L 597.5 724 L 596.5 722 Z " /><path fill="rgb(228,221,215)" stroke="rgb(228,221,215)" stroke-width="1" opacity="1" d="M 598.5 725 L 599.5 727 L 598.5 725 Z " /><path fill="rgb(228,221,215)" stroke="rgb(228,221,215)" stroke-width="1" opacity="1" d="M 600.5 728 L 601.5 730 L 600.5 728 Z " /><path fill="rgb(228,221,215)" stroke="rgb(228,221,215)" stroke-width="1" opacity="1" d="M 602.5 731 L 604.5 734 L 602.5 731 Z " /><path fill="rgb(228,221,215)" stroke="rgb(228,221,215)" stroke-width="1" opacity="1" d="M 605.5 735 L 606.5 737 L 605.5 735 Z " /><path fill="rgb(228,221,215)" stroke="rgb(228,221,215)" stroke-width="1" opacity="1" d="M 976.5 736 L 979 736.5 L 976.5 737 L 976.5 736 Z " /><path fill="rgb(228,221,215)" stroke="rgb(228,221,215)" stroke-width="1" opacity="1" d="M 607.5 738 L 609.5 741 L 607.5 738 Z " /><path fill="rgb(228,221,215)" stroke="rgb(228,221,215)" stroke-width="1" opacity="1" d="M 967.5 738 L 970 738.5 L 967.5 739 L 967.5 738 Z " /><path fill="rgb(228,221,215)" stroke="rgb(228,221,215)" stroke-width="1" opacity="1" d="M 961.5 739 L 964 739.5 L 961.5 740 L 961.5 739 Z " /><path fill="rgb(228,221,215)" stroke="rgb(228,221,215)" stroke-width="1" opacity="1" d="M 881.5 740 L 884 740.5 L 881.5 741 L 881.5 740 Z " /><path fill="rgb(228,221,215)" stroke="rgb(228,221,215)" stroke-width="1" opacity="1" d="M 955.5 740 L 958 740.5 L 955.5 741 L 955.5 740 Z " /><path fill="rgb(228,221,215)" stroke="rgb(228,221,215)" stroke-width="1" opacity="1" d="M 888.5 741 L 892 741.5 L 888.5 742 L 888.5 741 Z " /><path fill="rgb(228,221,215)" stroke="rgb(228,221,215)" stroke-width="1" opacity="1" d="M 947.5 741 L 951 741.5 L 947.5 742 L 947.5 741 Z " /><path fill="rgb(228,221,215)" stroke="rgb(228,221,215)" stroke-width="1" opacity="1" d="M 610.5 742 L 612.5 745 L 610.5 742 Z " /><path fill="rgb(228,221,215)" stroke="rgb(228,221,215)" stroke-width="1" opacity="1" d="M 896.5 742 L 902 742.5 L 896.5 743 L 896.5 742 Z " /><path fill="rgb(228,221,215)" stroke="rgb(228,221,215)" stroke-width="1" opacity="1" d="M 935.5 742 L 942 742.5 L 935.5 743 L 935.5 742 Z " /><path fill="rgb(228,221,215)" stroke="rgb(228,221,215)" stroke-width="1" opacity="1" d="M 915.5 743 L 920 743.5 L 915.5 744 L 915.5 743 Z " /><path fill="rgb(228,221,215)" stroke="rgb(228,221,215)" stroke-width="1" opacity="1" d="M 613.5 746 L 615.5 749 L 613.5 746 Z " /><path fill="rgb(228,221,215)" stroke="rgb(228,221,215)" stroke-width="1" opacity="1" d="M 617.5 751 L 619.5 754 L 617.5 751 Z " /><path fill="rgb(228,221,215)" stroke="rgb(228,221,215)" stroke-width="1" opacity="1" d="M 621.5 756 L 624.5 760 L 621.5 756 Z " /><path fill="rgb(228,221,215)" stroke="rgb(228,221,215)" stroke-width="1" opacity="1" d="M 626.5 762 L 631.5 768 L 626.5 762 Z " /><path fill="rgb(228,221,215)" stroke="rgb(228,221,215)" stroke-width="1" opacity="1" d="M 1208.5 763 L 1207.5 765 L 1208.5 763 Z " /><path fill="rgb(228,221,215)" stroke="rgb(228,221,215)" stroke-width="1" opacity="1" d="M 1204.5 768 L 1203.5 770 L 1204.5 768 Z " /><path fill="rgb(228,221,215)" stroke="rgb(228,221,215)" stroke-width="1" opacity="1" d="M 634.5 771 L 659.5 797 L 634.5 771 Z " /><path fill="rgb(228,221,215)" stroke="rgb(228,221,215)" stroke-width="1" opacity="1" d="M 1200.5 773 L 1198.5 776 L 1200.5 773 Z " /><path fill="rgb(228,221,215)" stroke="rgb(228,221,215)" stroke-width="1" opacity="1" d="M 1193.5 781 L 1188.5 787 L 1193.5 781 Z " /><path fill="rgb(228,221,215)" stroke="rgb(228,221,215)" stroke-width="1" opacity="1" d="M 662.5 798 L 667.5 804 L 662.5 798 Z " /><path fill="rgb(228,221,215)" stroke="rgb(228,221,215)" stroke-width="1" opacity="1" d="M 1173.5 801 L 1166.5 809 L 1173.5 801 Z " /><path fill="rgb(228,221,215)" stroke="rgb(228,221,215)" stroke-width="1" opacity="1" d="M 670.5 805 L 674.5 810 L 670.5 805 Z " /><path fill="rgb(228,221,215)" stroke="rgb(228,221,215)" stroke-width="1" opacity="1" d="M 676.5 810 L 679.5 814 L 676.5 810 Z " /><path fill="rgb(228,221,215)" stroke="rgb(228,221,215)" stroke-width="1" opacity="1" d="M 1163.5 810 L 1159.5 815 L 1163.5 810 Z " /><path fill="rgb(228,221,215)" stroke="rgb(228,221,215)" stroke-width="1" opacity="1" d="M 681.5 814 L 683.5 817 L 681.5 814 Z " /><path fill="rgb(228,221,215)" stroke="rgb(228,221,215)" stroke-width="1" opacity="1" d="M 1157.5 815 L 1154.5 819 L 1157.5 815 Z " /><path fill="rgb(228,221,215)" stroke="rgb(228,221,215)" stroke-width="1" opacity="1" d="M 685.5 817 L 687.5 820 L 685.5 817 Z " /><path fill="rgb(228,221,215)" stroke="rgb(228,221,215)" stroke-width="1" opacity="1" d="M 1151.5 820 L 1149.5 823 L 1151.5 820 Z " /><path fill="rgb(228,221,215)" stroke="rgb(228,221,215)" stroke-width="1" opacity="1" d="M 690.5 821 L 691.5 823 L 690.5 821 Z " /><path fill="rgb(228,221,215)" stroke="rgb(228,221,215)" stroke-width="1" opacity="1" d="M 693.5 823 L 695.5 826 L 693.5 823 Z " /><path fill="rgb(228,221,215)" stroke="rgb(228,221,215)" stroke-width="1" opacity="1" d="M 1147.5 823 L 1145.5 826 L 1147.5 823 Z " /><path fill="rgb(228,221,215)" stroke="rgb(228,221,215)" stroke-width="1" opacity="1" d="M 697.5 826 L 698.5 828 L 697.5 826 Z " /><path fill="rgb(228,221,215)" stroke="rgb(228,221,215)" stroke-width="1" opacity="1" d="M 1143.5 826 L 1142.5 828 L 1143.5 826 Z " /><path fill="rgb(228,221,215)" stroke="rgb(228,221,215)" stroke-width="1" opacity="1" d="M 700.5 828 L 701.5 830 L 700.5 828 Z " /><path fill="rgb(228,221,215)" stroke="rgb(228,221,215)" stroke-width="1" opacity="1" d="M 1139.5 829 L 1138.5 831 L 1139.5 829 Z " /><path fill="rgb(228,221,215)" stroke="rgb(228,221,215)" stroke-width="1" opacity="1" d="M 703.5 830 L 704.5 832 L 703.5 830 Z " /><path fill="rgb(228,221,215)" stroke="rgb(228,221,215)" stroke-width="1" opacity="1" d="M 1136.5 831 L 1135.5 833 L 1136.5 831 Z " /><path fill="rgb(228,221,215)" stroke="rgb(228,221,215)" stroke-width="1" opacity="1" d="M 706.5 832 L 707.5 834 L 706.5 832 Z " /><path fill="rgb(228,221,215)" stroke="rgb(228,221,215)" stroke-width="1" opacity="1" d="M 1133.5 833 L 1132.5 835 L 1133.5 833 Z " /><path fill="rgb(228,221,215)" stroke="rgb(228,221,215)" stroke-width="1" opacity="1" d="M 709.5 834 L 710.5 836 L 709.5 834 Z " /><path fill="rgb(228,221,215)" stroke="rgb(228,221,215)" stroke-width="1" opacity="1" d="M 1130.5 835 L 1129.5 837 L 1130.5 835 Z " /><path fill="rgb(228,221,215)" stroke="rgb(228,221,215)" stroke-width="1" opacity="1" d="M 712.5 836 L 713.5 838 L 712.5 836 Z " /><path fill="rgb(228,221,215)" stroke="rgb(228,221,215)" stroke-width="1" opacity="1" d="M 1127.5 837 L 1126.5 839 L 1127.5 837 Z " /><path fill="rgb(228,221,215)" stroke="rgb(228,221,215)" stroke-width="1" opacity="1" d="M 715.5 838 L 716.5 840 L 715.5 838 Z " /><path fill="rgb(228,221,215)" stroke="rgb(228,221,215)" stroke-width="1" opacity="1" d="M 1124.5 839 L 1123.5 841 L 1124.5 839 Z " /><path fill="rgb(228,221,215)" stroke="rgb(228,221,215)" stroke-width="1" opacity="1" d="M 720.5 841 L 721.5 843 L 720.5 841 Z " /><path fill="rgb(228,221,215)" stroke="rgb(228,221,215)" stroke-width="1" opacity="1" d="M 725.5 844 L 729 846.5 L 727.5 846 L 725.5 844 Z " /><path fill="rgb(228,221,215)" stroke="rgb(228,221,215)" stroke-width="1" opacity="1" d="M 734.5 849 L 738 851.5 L 736.5 851 L 734.5 849 Z " /><path fill="rgb(228,221,215)" stroke="rgb(228,221,215)" stroke-width="1" opacity="1" d="M 826.5 885 L 829 885.5 L 826.5 886 L 826.5 885 Z " /><path fill="rgb(228,221,215)" stroke="rgb(228,221,215)" stroke-width="1" opacity="1" d="M 1008.5 886 L 1011 886.5 L 1008.5 887 L 1008.5 886 Z " /><path fill="rgb(228,221,215)" stroke="rgb(228,221,215)" stroke-width="1" opacity="1" d="M 998.5 888 L 1001 888.5 L 998.5 889 L 998.5 888 Z " /><path fill="rgb(228,221,215)" stroke="rgb(228,221,215)" stroke-width="1" opacity="1" d="M 845.5 889 L 848 889.5 L 845.5 890 L 845.5 889 Z " /><path fill="rgb(228,221,215)" stroke="rgb(228,221,215)" stroke-width="1" opacity="1" d="M 993.5 889 L 996 889.5 L 993.5 890 L 993.5 889 Z " /><path fill="rgb(228,221,215)" stroke="rgb(228,221,215)" stroke-width="1" opacity="1" d="M 850.5 890 L 853 890.5 L 850.5 891 L 850.5 890 Z " /><path fill="rgb(228,221,215)" stroke="rgb(228,221,215)" stroke-width="1" opacity="1" d="M 987.5 890 L 990 890.5 L 987.5 891 L 987.5 890 Z " /><path fill="rgb(228,221,215)" stroke="rgb(228,221,215)" stroke-width="1" opacity="1" d="M 856.5 891 L 859 891.5 L 856.5 892 L 856.5 891 Z " /><path fill="rgb(228,221,215)" stroke="rgb(228,221,215)" stroke-width="1" opacity="1" d="M 981.5 891 L 984 891.5 L 981.5 892 L 981.5 891 Z " /><path fill="rgb(228,221,215)" stroke="rgb(228,221,215)" stroke-width="1" opacity="1" d="M 863.5 892 L 866 892.5 L 863.5 893 L 863.5 892 Z " /><path fill="rgb(228,221,215)" stroke="rgb(228,221,215)" stroke-width="1" opacity="1" d="M 973.5 892 L 977 892.5 L 973.5 893 L 973.5 892 Z " /><path fill="rgb(228,221,215)" stroke="rgb(228,221,215)" stroke-width="1" opacity="1" d="M 870.5 893 L 875 893.5 L 870.5 894 L 870.5 893 Z " /><path fill="rgb(228,221,215)" stroke="rgb(228,221,215)" stroke-width="1" opacity="1" d="M 965.5 893 L 969 893.5 L 965.5 894 L 965.5 893 Z " /><path fill="rgb(228,221,215)" stroke="rgb(228,221,215)" stroke-width="1" opacity="1" d="M 879.5 894 L 885 894.5 L 879.5 895 L 879.5 894 Z " /><path fill="rgb(228,221,215)" stroke="rgb(228,221,215)" stroke-width="1" opacity="1" d="M 954.5 894 L 960 894.5 L 954.5 895 L 954.5 894 Z " /><path fill="rgb(228,221,215)" stroke="rgb(228,221,215)" stroke-width="1" opacity="1" d="M 891.5 895 L 900 895.5 L 891.5 896 L 891.5 895 Z " /><path fill="rgb(228,221,215)" stroke="rgb(228,221,215)" stroke-width="1" opacity="1" d="M 938.5 895 L 947 895.5 L 938.5 896 L 938.5 895 Z " /><path fill="rgb(255,255,255)" stroke="rgb(255,255,255)" stroke-width="1" opacity="1" d="M 0 0 L 1820 0 L 1820 1024 L 0 1024 L 0 0 Z M 892 128 L 891 129 L 880 129 L 879 130 L 857 132 L 836 136 Q 797 145 765 159 Q 704 186 659 228 Q 602 279 568 353 Q 553 386 543 425 L 537 456 L 536 471 L 535 472 L 535 482 L 534 483 L 534 501 L 533 502 L 534 542 L 535 543 L 537 568 L 547 615 L 556 643 Q 584 718 634 772 Q 685 828 758 862 L 790 875 L 823 885 L 857 892 L 879 894 L 880 895 L 891 895 L 892 896 L 947 896 L 948 895 L 969 894 L 970 893 L 984 892 L 1011 887 L 1041 879 Q 1115 855 1167 809 Q 1223 759 1255 686 L 1268 651 L 1277 617 L 1281 597 L 1283 576 L 1284 575 L 1285 555 L 1286 554 L 1286 534 L 1287 533 L 1286 490 L 1285 489 L 1285 478 L 1284 477 L 1283 461 L 1280 447 Q 1280 442 1280 442 L 917 442 L 917 591 L 1124 591 L 1119 613 L 1113 629 Q 1101 655 1083 676 Q 1056 706 1016 724 L 981 736 L 955 741 L 936 742 L 935 743 L 903 743 L 902 742 L 885 741 L 858 735 L 840 729 Q 800 714 772 688 Q 742 662 721 627 Q 710 607 702 584 L 696 562 L 692 540 L 692 531 L 691 530 L 691 495 L 692 494 L 692 486 L 696 463 L 703 438 Q 719 392 748 360 Q 779 324 824 302 Q 845 292 871 286 L 887 283 L 894 283 L 895 282 L 907 282 L 908 281 L 929 281 L 930 282 L 950 283 L 975 288 L 994 294 L 1031 312 Q 1049 323 1064 338 L 1066 338 L 1175 229 L 1175 227 L 1144 201 L 1121 185 Q 1086 163 1045 148 L 1011 138 L 974 131 L 958 130 L 957 129 L 946 129 L 945 128 L 892 128 Z " /><path fill="rgb(250,187,6)" stroke="rgb(250,187,6)" stroke-width="1" opacity="1" d="M 575.5 340 L 702 438.5 L 701 445.5 L 696 460.5 L 692 481.5 L 691 503.5 L 690 504.5 L 690 519.5 L 691 520.5 L 691 533.5 L 692 534.5 L 692 542.5 L 693 543.5 L 694 554.5 L 702 585.5 L 575.5 684 L 568 670.5 L 555 638.5 L 542 592.5 L 538 571.5 L 537 558.5 L 536 557.5 L 535 536.5 L 534 535.5 L 534 488.5 L 535 487.5 L 535 476.5 L 536 475.5 L 536 466.5 L 537 465.5 L 538 452.5 L 546 414.5 L 559 374.5 Q 565.8 355.8 575.5 340 Z " /><path fill="rgb(234,67,53)" stroke="rgb(234,67,53)" stroke-width="1" opacity="1" d="M 899.5 128 L 935.5 128 L 936.5 129 L 951.5 129 L 952.5 130 L 961.5 130 L 962.5 131 L 983.5 133 L 1016.5 140 L 1048.5 150 Q 1122.1 177.9 1174 227.5 L 1064.5 338 Q 1034.1 307.9 989.5 292 L 968.5 286 L 945.5 282 L 936.5 282 L 935.5 281 L 900.5 281 L 899.5 282 L 883.5 283 L 856.5 289 L 822.5 302 Q 781.2 322.2 752 354.5 Q 719.5 389 702.5 439 L 575 339.5 Q 608.6 273.1 661.5 226 Q 708.1 183.6 770.5 157 Q 799.7 144.7 833.5 137 L 866.5 131 L 883.5 130 L 884.5 129 L 898.5 129 L 899.5 128 Z " /><path fill="rgb(66,133,243)" stroke="rgb(66,133,243)" stroke-width="1" opacity="1" d="M 918 442 L 1278.5 442 L 1280 443.5 L 1283 470.5 L 1284 471.5 L 1285 493.5 L 1286 494.5 L 1286 547.5 L 1285 548.5 L 1285 561.5 L 1284 562.5 L 1282 587.5 L 1276 619.5 L 1268 649.5 L 1253 689.5 Q 1223.6 755.1 1174.5 801 L 1171.5 803 L 1047 706.5 Q 1069.4 692.4 1086 672.5 Q 1101.6 654.6 1112 631.5 L 1119 613.5 L 1124 591 L 918 591 L 918 442 Z " /><path fill="rgb(52,168,83)" stroke="rgb(52,168,83)" stroke-width="1" opacity="1" d="M 702.5 585 Q 724.3 648.7 770.5 688 Q 798.4 712.6 835.5 728 L 855.5 735 L 881.5 741 L 895.5 742 L 896.5 743 L 914.5 743 L 919.5 744 L 920.5 743 L 950.5 742 L 951.5 741 L 969.5 739 L 989.5 734 L 1016.5 724 Q 1032 717.5 1044.5 708 L 1048.5 707 L 1171 802.5 L 1164.5 810 Q 1111.8 856.8 1035.5 880 L 1003.5 888 L 998.5 888 L 980.5 892 L 965.5 893 L 964.5 894 L 938.5 895 L 937.5 896 L 900.5 896 L 899.5 895 L 885.5 895 L 884.5 894 L 859.5 892 L 824.5 885 L 785.5 873 L 756.5 861 Q 683 826 632 768.5 Q 598.5 731.5 575 684.5 L 702.5 585 Z " /></svg>