<svg width="330" height="295" version="1.1" xmlns="http://www.w3.org/2000/svg" desc="Created with imagetracer.js version 1.2.6" ><path fill="rgb(0,0,0)" stroke="rgb(0,0,0)" stroke-width="1" opacity="0" d="M 0 0 L 123 0.5 Q 107.9 3.4 101 14.5 L 4 182.5 L 0.5 193 L 0 0 Z " /><path fill="rgb(0,0,0)" stroke="rgb(0,0,0)" stroke-width="1" opacity="0" d="M 207.5 0 L 330 0 L 330 192.5 L 329 192.5 L 326 182.5 L 235 24.5 L 225 9 L 213.5 2 L 207.5 1 L 207.5 0 Z " /><path fill="rgb(0,0,0)" stroke="rgb(0,0,0)" stroke-width="1" opacity="0" d="M 164.5 96 L 225 199.5 L 105.5 200 L 106 198.5 L 164.5 96 Z " /><path fill="rgb(0,0,0)" stroke="rgb(0,0,0)" stroke-width="1" opacity="0" d="M 0.5 209 L 4 218.5 L 37 275.5 L 48.5 289 L 57.5 294 L 61 294.5 L 0 295 L 0.5 209 Z " /><path fill="rgb(0,0,0)" stroke="rgb(0,0,0)" stroke-width="1" opacity="0" d="M 329.5 209 L 330 295 L 268 294.5 Q 283.1 291.6 290 280.5 L 326 218.5 L 329.5 209 Z " /><path fill="rgb(0,132,41)" stroke="rgb(0,132,41)" stroke-width="1" opacity="0.9921568627450981" d="M 123.5 0 L 206.5 0 L 217 4.5 L 164.5 94 L 113 4.5 L 123.5 0 Z " /><path fill="rgb(250,185,0)" stroke="rgb(250,185,0)" stroke-width="1" opacity="0.5254901960784314" d="M 217.5 4 L 225 9 L 235 24.5 L 326 182.5 L 329 191.5 L 328 191.5 L 325 182.5 L 234 24.5 Q 228.8 13.2 219.5 6 L 217.5 5 L 216 5.5 L 217.5 4 Z " /><path fill="rgb(250,185,0)" stroke="rgb(250,185,0)" stroke-width="1" opacity="0.5254901960784314" d="M 165.5 95 L 174 109.5 L 172 108.5 L 165 96.5 L 165.5 95 Z " /><path fill="rgb(250,185,0)" stroke="rgb(250,185,0)" stroke-width="1" opacity="0.5254901960784314" d="M 174.5 111 L 226 199.5 L 224 198.5 L 176 115.5 L 174.5 111 Z " /><path fill="rgb(250,185,0)" stroke="rgb(250,185,0)" stroke-width="1" opacity="0.5254901960784314" d="M 329.5 193 L 330 198.5 L 329 198.5 L 329.5 193 Z " /><path fill="rgb(0,173,69)" stroke="rgb(0,173,69)" stroke-width="1" opacity="0.9882352941176471" d="M 112.5 4 L 115 7.5 L 112.5 6 L 104 12.5 L 7 179.5 L 2 189.5 L 0.5 200 L 0 193.5 L 4 182.5 L 101 14.5 L 109.5 6 L 112.5 4 Z " /><path fill="rgb(0,173,69)" stroke="rgb(0,173,69)" stroke-width="1" opacity="0.9882352941176471" d="M 116.5 11 L 119 14.5 L 117 13.5 L 116.5 11 Z " /><path fill="rgb(0,173,69)" stroke="rgb(0,173,69)" stroke-width="1" opacity="0.9882352941176471" d="M 120.5 18 L 121.5 20 L 120.5 18 Z " /><path fill="rgb(0,173,69)" stroke="rgb(0,173,69)" stroke-width="1" opacity="0.9882352941176471" d="M 124.5 25 L 125.5 27 L 124.5 25 Z " /><path fill="rgb(0,173,69)" stroke="rgb(0,173,69)" stroke-width="1" opacity="0.9882352941176471" d="M 128.5 32 L 129.5 34 L 128.5 32 Z " /><path fill="rgb(0,173,69)" stroke="rgb(0,173,69)" stroke-width="1" opacity="0.9882352941176471" d="M 131.5 37 L 132.5 39 L 131.5 37 Z " /><path fill="rgb(0,173,69)" stroke="rgb(0,173,69)" stroke-width="1" opacity="0.9882352941176471" d="M 135.5 44 L 136.5 46 L 135.5 44 Z " /><path fill="rgb(0,173,69)" stroke="rgb(0,173,69)" stroke-width="1" opacity="0.9882352941176471" d="M 139.5 51 L 140.5 53 L 139.5 51 Z " /><path fill="rgb(0,173,69)" stroke="rgb(0,173,69)" stroke-width="1" opacity="0.9882352941176471" d="M 142.5 56 L 143.5 58 L 142.5 56 Z " /><path fill="rgb(0,173,69)" stroke="rgb(0,173,69)" stroke-width="1" opacity="0.9882352941176471" d="M 146.5 63 L 147.5 65 L 146.5 63 Z " /><path fill="rgb(0,173,69)" stroke="rgb(0,173,69)" stroke-width="1" opacity="0.9882352941176471" d="M 150.5 70 L 151.5 72 L 150.5 70 Z " /><path fill="rgb(0,173,69)" stroke="rgb(0,173,69)" stroke-width="1" opacity="0.9882352941176471" d="M 154.5 77 L 155.5 79 L 154.5 77 Z " /><path fill="rgb(0,173,69)" stroke="rgb(0,173,69)" stroke-width="1" opacity="0.9882352941176471" d="M 157.5 82 L 158.5 84 L 157.5 82 Z " /><path fill="rgb(0,173,69)" stroke="rgb(0,173,69)" stroke-width="1" opacity="0.9882352941176471" d="M 161.5 89 L 162.5 91 L 161.5 89 Z " /><path fill="rgb(0,173,69)" stroke="rgb(0,173,69)" stroke-width="1" opacity="0.9882352941176471" d="M 164.5 94 L 165 95.5 L 104.5 200 L 104 198.5 L 164.5 94 Z " /><path fill="rgb(0,174,69)" stroke="rgb(0,174,69)" stroke-width="1" opacity="1" d="M 111.5 6 L 115 8.5 L 163 91.5 L 164 95.5 L 104 200 L 1.5 200 Q 0.3 199.8 1 193.5 L 11 172.5 L 100 18.5 L 107.5 9 L 111.5 6 Z " /><path fill="rgb(255,187,0)" stroke="rgb(255,187,0)" stroke-width="1" opacity="0.996078431372549" d="M 217.5 5 L 215.5 8 L 217.5 5 Z " /><path fill="rgb(255,187,0)" stroke="rgb(255,187,0)" stroke-width="1" opacity="0.996078431372549" d="M 219.5 6 L 221.5 9 L 219.5 6 Z " /><path fill="rgb(255,187,0)" stroke="rgb(255,187,0)" stroke-width="1" opacity="0.996078431372549" d="M 225.5 12 L 227.5 15 L 225.5 12 Z " /><path fill="rgb(255,187,0)" stroke="rgb(255,187,0)" stroke-width="1" opacity="0.996078431372549" d="M 212.5 13 L 211.5 15 L 212.5 13 Z " /><path fill="rgb(255,187,0)" stroke="rgb(255,187,0)" stroke-width="1" opacity="0.996078431372549" d="M 209.5 18 L 209 19.5 L 207.5 22 L 208 20.5 L 209.5 18 Z " /><path fill="rgb(255,187,0)" stroke="rgb(255,187,0)" stroke-width="1" opacity="0.996078431372549" d="M 232.5 23 L 233.5 25 L 232.5 23 Z " /><path fill="rgb(255,187,0)" stroke="rgb(255,187,0)" stroke-width="1" opacity="0.996078431372549" d="M 205.5 25 L 204.5 27 L 205.5 25 Z " /><path fill="rgb(255,187,0)" stroke="rgb(255,187,0)" stroke-width="1" opacity="0.996078431372549" d="M 201.5 32 L 200.5 34 L 201.5 32 Z " /><path fill="rgb(255,187,0)" stroke="rgb(255,187,0)" stroke-width="1" opacity="0.996078431372549" d="M 197.5 39 L 196.5 41 L 197.5 39 Z " /><path fill="rgb(255,187,0)" stroke="rgb(255,187,0)" stroke-width="1" opacity="0.996078431372549" d="M 194.5 44 L 193.5 46 L 194.5 44 Z " /><path fill="rgb(255,187,0)" stroke="rgb(255,187,0)" stroke-width="1" opacity="0.996078431372549" d="M 247.5 49 L 248.5 51 L 247.5 49 Z " /><path fill="rgb(255,187,0)" stroke="rgb(255,187,0)" stroke-width="1" opacity="0.996078431372549" d="M 190.5 51 L 189.5 53 L 190.5 51 Z " /><path fill="rgb(255,187,0)" stroke="rgb(255,187,0)" stroke-width="1" opacity="0.996078431372549" d="M 186.5 58 L 185.5 60 L 186.5 58 Z " /><path fill="rgb(255,187,0)" stroke="rgb(255,187,0)" stroke-width="1" opacity="0.996078431372549" d="M 183.5 63 L 183 64.5 L 181.5 67 L 182 65.5 L 183.5 63 Z " /><path fill="rgb(255,187,0)" stroke="rgb(255,187,0)" stroke-width="1" opacity="0.996078431372549" d="M 258.5 68 L 259.5 70 L 258.5 68 Z " /><path fill="rgb(255,187,0)" stroke="rgb(255,187,0)" stroke-width="1" opacity="0.996078431372549" d="M 179.5 70 L 178.5 72 L 179.5 70 Z " /><path fill="rgb(255,187,0)" stroke="rgb(255,187,0)" stroke-width="1" opacity="0.996078431372549" d="M 262.5 75 L 263.5 77 L 262.5 75 Z " /><path fill="rgb(255,187,0)" stroke="rgb(255,187,0)" stroke-width="1" opacity="0.996078431372549" d="M 175.5 77 L 174.5 79 L 175.5 77 Z " /><path fill="rgb(255,187,0)" stroke="rgb(255,187,0)" stroke-width="1" opacity="0.996078431372549" d="M 171.5 84 L 170.5 86 L 171.5 84 Z " /><path fill="rgb(255,187,0)" stroke="rgb(255,187,0)" stroke-width="1" opacity="0.996078431372549" d="M 168.5 89 L 167.5 91 L 168.5 89 Z " /><path fill="rgb(255,187,0)" stroke="rgb(255,187,0)" stroke-width="1" opacity="0.996078431372549" d="M 273.5 94 L 274.5 96 L 273.5 94 Z " /><path fill="rgb(255,187,0)" stroke="rgb(255,187,0)" stroke-width="1" opacity="0.996078431372549" d="M 277.5 101 L 278.5 103 L 277.5 101 Z " /><path fill="rgb(255,187,0)" stroke="rgb(255,187,0)" stroke-width="1" opacity="0.996078431372549" d="M 170.5 103 L 171.5 105 L 170.5 103 Z " /><path fill="rgb(255,187,0)" stroke="rgb(255,187,0)" stroke-width="1" opacity="0.996078431372549" d="M 174.5 110 L 175.5 112 L 174.5 110 Z " /><path fill="rgb(255,187,0)" stroke="rgb(255,187,0)" stroke-width="1" opacity="0.996078431372549" d="M 185.5 129 L 186.5 131 L 185.5 129 Z " /><path fill="rgb(255,187,0)" stroke="rgb(255,187,0)" stroke-width="1" opacity="0.996078431372549" d="M 296.5 134 L 297.5 136 L 296.5 134 Z " /><path fill="rgb(255,187,0)" stroke="rgb(255,187,0)" stroke-width="1" opacity="0.996078431372549" d="M 189.5 136 L 190.5 138 L 189.5 136 Z " /><path fill="rgb(255,187,0)" stroke="rgb(255,187,0)" stroke-width="1" opacity="0.996078431372549" d="M 300.5 141 L 301.5 143 L 300.5 141 Z " /><path fill="rgb(255,187,0)" stroke="rgb(255,187,0)" stroke-width="1" opacity="0.996078431372549" d="M 200.5 155 L 201.5 157 L 200.5 155 Z " /><path fill="rgb(255,187,0)" stroke="rgb(255,187,0)" stroke-width="1" opacity="0.996078431372549" d="M 204.5 162 L 205.5 164 L 204.5 162 Z " /><path fill="rgb(255,187,0)" stroke="rgb(255,187,0)" stroke-width="1" opacity="0.996078431372549" d="M 319.5 174 L 320.5 176 L 319.5 174 Z " /><path fill="rgb(255,187,0)" stroke="rgb(255,187,0)" stroke-width="1" opacity="0.996078431372549" d="M 215.5 181 L 216.5 183 L 215.5 181 Z " /><path fill="rgb(255,187,0)" stroke="rgb(255,187,0)" stroke-width="1" opacity="0.996078431372549" d="M 323.5 181 L 324.5 183 L 323.5 181 Z " /><path fill="rgb(255,187,0)" stroke="rgb(255,187,0)" stroke-width="1" opacity="0.996078431372549" d="M 219.5 188 L 220.5 190 L 219.5 188 Z " /><path fill="rgb(255,187,0)" stroke="rgb(255,187,0)" stroke-width="1" opacity="1" d="M 217.5 6 L 225 11.5 L 325 183.5 Q 329.2 190 329 200 L 226.5 200 L 226 198.5 L 167 97.5 L 166 93.5 L 217.5 6 Z " /><path fill="rgb(0,102,217)" stroke="rgb(0,102,217)" stroke-width="1" opacity="0.9803921568627451" d="M 0 201 L 103 201.5 L 51.5 291 L 41 281.5 L 7 223.5 L 1 211.5 L 0 201 Z " /><path fill="rgb(33,132,250)" stroke="rgb(33,132,250)" stroke-width="1" opacity="0.788235294117647" d="M 0.5 200 L 225.5 200 L 227 201.5 L 225.5 201 L 104.5 201 L 103 202.5 L 101.5 205 L 102 203.5 L 103 201.5 L 0.5 201 L 0.5 200 Z " /><path fill="rgb(33,132,250)" stroke="rgb(33,132,250)" stroke-width="1" opacity="0.788235294117647" d="M 99.5 208 L 98.5 210 L 99.5 208 Z " /><path fill="rgb(33,132,250)" stroke="rgb(33,132,250)" stroke-width="1" opacity="0.788235294117647" d="M 95.5 215 L 94.5 217 L 95.5 215 Z " /><path fill="rgb(33,132,250)" stroke="rgb(33,132,250)" stroke-width="1" opacity="0.788235294117647" d="M 91.5 222 L 90.5 224 L 91.5 222 Z " /><path fill="rgb(33,132,250)" stroke="rgb(33,132,250)" stroke-width="1" opacity="0.788235294117647" d="M 88.5 227 L 88 228.5 L 86.5 231 L 87 229.5 L 88.5 227 Z " /><path fill="rgb(33,132,250)" stroke="rgb(33,132,250)" stroke-width="1" opacity="0.788235294117647" d="M 84.5 234 L 83.5 236 L 84.5 234 Z " /><path fill="rgb(33,132,250)" stroke="rgb(33,132,250)" stroke-width="1" opacity="0.788235294117647" d="M 80.5 241 L 79.5 243 L 80.5 241 Z " /><path fill="rgb(33,132,250)" stroke="rgb(33,132,250)" stroke-width="1" opacity="0.788235294117647" d="M 77.5 246 L 77 247.5 L 75.5 250 L 76 248.5 L 77.5 246 Z " /><path fill="rgb(33,132,250)" stroke="rgb(33,132,250)" stroke-width="1" opacity="0.788235294117647" d="M 73.5 253 L 72.5 255 L 73.5 253 Z " /><path fill="rgb(33,132,250)" stroke="rgb(33,132,250)" stroke-width="1" opacity="0.788235294117647" d="M 69.5 260 L 68.5 262 L 69.5 260 Z " /><path fill="rgb(33,132,250)" stroke="rgb(33,132,250)" stroke-width="1" opacity="0.788235294117647" d="M 65.5 267 L 64.5 269 L 65.5 267 Z " /><path fill="rgb(33,132,250)" stroke="rgb(33,132,250)" stroke-width="1" opacity="0.788235294117647" d="M 62.5 272 L 62 273.5 L 60.5 276 L 61 274.5 L 62.5 272 Z " /><path fill="rgb(33,132,250)" stroke="rgb(33,132,250)" stroke-width="1" opacity="0.788235294117647" d="M 58.5 279 L 57.5 281 L 58.5 279 Z " /><path fill="rgb(33,132,250)" stroke="rgb(33,132,250)" stroke-width="1" opacity="0.788235294117647" d="M 54.5 286 L 53.5 288 L 54.5 286 Z " /><path fill="rgb(33,132,250)" stroke="rgb(33,132,250)" stroke-width="1" opacity="0.788235294117647" d="M 52.5 289 L 53 291 L 61.5 294 L 268 294.5 L 61.5 295 L 52 290.5 L 52.5 289 Z " /><path fill="rgb(33,132,250)" stroke="rgb(33,132,250)" stroke-width="1" opacity="0.788235294117647" d="M 277.5 289 L 278 290.5 Q 275.3 293.8 269.5 294 L 269.5 293 L 277 291 L 277.5 289 Z " /><path fill="rgb(33,133,251)" stroke="rgb(33,133,251)" stroke-width="1" opacity="0.996078431372549" d="M 104.5 201 L 225.5 201 L 228 203.5 L 277 288.5 L 277 291 L 268.5 294 L 61.5 294 L 53 291 L 57 281.5 L 104.5 201 Z " /><path fill="rgb(234,66,49)" stroke="rgb(234,66,49)" stroke-width="1" opacity="0.9803921568627451" d="M 226.5 200 L 329.5 200 L 330 200.5 L 330 207.5 L 327 216.5 L 293 275.5 L 281.5 289 L 278.5 291 L 226.5 200 Z " /></svg>