<svg width="225" height="225" version="1.1" xmlns="http://www.w3.org/2000/svg" desc="Created with imagetracer.js version 1.2.6" ><path fill="rgb(234,66,52)" stroke="rgb(234,66,52)" stroke-width="1" opacity="1" d="M 92.5 10 L 117.5 11 L 134.5 16 Q 152.8 23.2 165 36.5 L 155.5 46 L 151.5 42 Q 139.2 31.3 121.5 26 L 112.5 24 L 89.5 24 Q 57.8 30.3 41 51.5 Q 32.2 62.2 27 76.5 L 24 88.5 L 24 101 L 10 101 L 10 91.5 L 13 76.5 L 20 58.5 Q 29.2 41.7 43.5 30 Q 53.7 21.2 67.5 16 L 80.5 12 L 91.5 11 L 92.5 10 Z " /><path fill="rgb(233,227,224)" stroke="rgb(233,227,224)" stroke-width="1" opacity="1" d="M 96.5 9 L 105 9.5 L 96.5 10 L 96.5 9 Z " /><path fill="rgb(233,227,224)" stroke="rgb(233,227,224)" stroke-width="1" opacity="1" d="M 91.5 24 L 94 24.5 L 91.5 25 L 91.5 24 Z " /><path fill="rgb(233,227,224)" stroke="rgb(233,227,224)" stroke-width="1" opacity="1" d="M 155.5 27 L 156.5 29 L 155.5 27 Z " /><path fill="rgb(233,227,224)" stroke="rgb(233,227,224)" stroke-width="1" opacity="1" d="M 41.5 31 L 40.5 33 L 41.5 31 Z " /><path fill="rgb(233,227,224)" stroke="rgb(233,227,224)" stroke-width="1" opacity="1" d="M 160.5 31 L 162.5 34 L 160.5 31 Z " /><path fill="rgb(233,227,224)" stroke="rgb(233,227,224)" stroke-width="1" opacity="1" d="M 165.5 36 L 170.5 42 L 165.5 36 Z " /><path fill="rgb(233,227,224)" stroke="rgb(233,227,224)" stroke-width="1" opacity="1" d="M 54.5 39 L 53.5 41 L 54.5 39 Z " /><path fill="rgb(233,227,224)" stroke="rgb(233,227,224)" stroke-width="1" opacity="1" d="M 32.5 40 L 31.5 42 L 32.5 40 Z " /><path fill="rgb(233,227,224)" stroke="rgb(233,227,224)" stroke-width="1" opacity="1" d="M 172.5 44 L 173.5 46 L 172.5 44 Z " /><path fill="rgb(233,227,224)" stroke="rgb(233,227,224)" stroke-width="1" opacity="1" d="M 47.5 45 L 45.5 48 L 47.5 45 Z " /><path fill="rgb(233,227,224)" stroke="rgb(233,227,224)" stroke-width="1" opacity="1" d="M 155.5 46 L 158.5 50 L 155.5 46 Z " /><path fill="rgb(233,227,224)" stroke="rgb(233,227,224)" stroke-width="1" opacity="1" d="M 175.5 48 L 176.5 50 L 175.5 48 Z " /><path fill="rgb(233,227,224)" stroke="rgb(233,227,224)" stroke-width="1" opacity="1" d="M 177.5 51 L 178.5 53 L 177.5 51 Z " /><path fill="rgb(233,227,224)" stroke="rgb(233,227,224)" stroke-width="1" opacity="1" d="M 40.5 53 L 39.5 55 L 40.5 53 Z " /><path fill="rgb(233,227,224)" stroke="rgb(233,227,224)" stroke-width="1" opacity="1" d="M 161.5 53 L 162.5 55 L 161.5 53 Z " /><path fill="rgb(233,227,224)" stroke="rgb(233,227,224)" stroke-width="1" opacity="1" d="M 180.5 56 L 185 64.5 L 184 64.5 L 180.5 56 Z " /><path fill="rgb(233,227,224)" stroke="rgb(233,227,224)" stroke-width="1" opacity="1" d="M 97.5 58 L 94.5 62 L 97.5 58 Z " /><path fill="rgb(233,227,224)" stroke="rgb(233,227,224)" stroke-width="1" opacity="1" d="M 104.5 58 L 106.5 61 L 104.5 58 Z " /><path fill="rgb(233,227,224)" stroke="rgb(233,227,224)" stroke-width="1" opacity="1" d="M 167.5 62 L 168.5 64 L 167.5 62 Z " /><path fill="rgb(233,227,224)" stroke="rgb(233,227,224)" stroke-width="1" opacity="1" d="M 189.5 77 L 190 79.5 L 189 79.5 L 189.5 77 Z " /><path fill="rgb(233,227,224)" stroke="rgb(233,227,224)" stroke-width="1" opacity="1" d="M 61.5 82 L 58.5 86 L 61.5 82 Z " /><path fill="rgb(233,227,224)" stroke="rgb(233,227,224)" stroke-width="1" opacity="1" d="M 69.5 83 L 70.5 85 L 69.5 83 Z " /><path fill="rgb(233,227,224)" stroke="rgb(233,227,224)" stroke-width="1" opacity="1" d="M 191.5 87 L 192 90.5 L 191 90.5 L 191.5 87 Z " /><path fill="rgb(233,227,224)" stroke="rgb(233,227,224)" stroke-width="1" opacity="1" d="M 57.5 88 L 58 164.5 L 57 164.5 L 57.5 88 Z " /><path fill="rgb(233,227,224)" stroke="rgb(233,227,224)" stroke-width="1" opacity="1" d="M 177.5 91 L 178 95.5 L 177 95.5 L 177.5 91 Z " /><path fill="rgb(233,227,224)" stroke="rgb(233,227,224)" stroke-width="1" opacity="1" d="M 9.5 96 L 10 103.5 L 9 103.5 L 9.5 96 Z " /><path fill="rgb(233,227,224)" stroke="rgb(233,227,224)" stroke-width="1" opacity="1" d="M 192.5 99 L 193 101.5 L 192 101.5 L 192.5 99 Z " /><path fill="rgb(233,227,224)" stroke="rgb(233,227,224)" stroke-width="1" opacity="1" d="M 140.5 106 L 143.5 110 L 140.5 106 Z " /><path fill="rgb(233,227,224)" stroke="rgb(233,227,224)" stroke-width="1" opacity="1" d="M 132.5 107 L 131.5 109 L 132.5 107 Z " /><path fill="rgb(233,227,224)" stroke="rgb(233,227,224)" stroke-width="1" opacity="1" d="M 177.5 107 L 178 110.5 L 177 110.5 L 177.5 107 Z " /><path fill="rgb(233,227,224)" stroke="rgb(233,227,224)" stroke-width="1" opacity="1" d="M 191.5 111 L 192 114.5 L 191 114.5 L 191.5 111 Z " /><path fill="rgb(233,227,224)" stroke="rgb(233,227,224)" stroke-width="1" opacity="1" d="M 164.5 144 L 163.5 146 L 164.5 144 Z " /><path fill="rgb(233,227,224)" stroke="rgb(233,227,224)" stroke-width="1" opacity="1" d="M 161.5 148 L 160.5 150 L 161.5 148 Z " /><path fill="rgb(233,227,224)" stroke="rgb(233,227,224)" stroke-width="1" opacity="1" d="M 176.5 152 L 175.5 154 L 176.5 152 Z " /><path fill="rgb(233,227,224)" stroke="rgb(233,227,224)" stroke-width="1" opacity="1" d="M 45.5 154 L 47.5 157 L 45.5 154 Z " /><path fill="rgb(233,227,224)" stroke="rgb(233,227,224)" stroke-width="1" opacity="1" d="M 173.5 156 L 172.5 158 L 173.5 156 Z " /><path fill="rgb(233,227,224)" stroke="rgb(233,227,224)" stroke-width="1" opacity="1" d="M 170.5 160 L 215.5 206 L 170.5 160 Z " /><path fill="rgb(233,227,224)" stroke="rgb(233,227,224)" stroke-width="1" opacity="1" d="M 32.5 161 L 40.5 170 L 32.5 161 Z " /><path fill="rgb(233,227,224)" stroke="rgb(233,227,224)" stroke-width="1" opacity="1" d="M 53.5 161 L 54.5 163 L 53.5 161 Z " /><path fill="rgb(233,227,224)" stroke="rgb(233,227,224)" stroke-width="1" opacity="1" d="M 160.5 170 L 205.5 216 L 160.5 170 Z " /><path fill="rgb(233,227,224)" stroke="rgb(233,227,224)" stroke-width="1" opacity="1" d="M 91.5 177 L 94 177.5 L 91.5 178 L 91.5 177 Z " /><path fill="rgb(233,227,224)" stroke="rgb(233,227,224)" stroke-width="1" opacity="1" d="M 108.5 177 L 111 177.5 L 108.5 178 L 108.5 177 Z " /><path fill="rgb(233,227,224)" stroke="rgb(233,227,224)" stroke-width="1" opacity="1" d="M 98.5 192 L 105 192.5 L 98.5 193 L 98.5 192 Z " /><path fill="rgb(233,227,224)" stroke="rgb(233,227,224)" stroke-width="1" opacity="1" d="M 216.5 208 L 217 210.5 L 216 210.5 L 216.5 208 Z " /><path fill="rgb(233,227,224)" stroke="rgb(233,227,224)" stroke-width="1" opacity="1" d="M 208.5 216 L 211 216.5 L 208.5 217 L 208.5 216 Z " /><path fill="rgb(255,255,255)" stroke="rgb(255,255,255)" stroke-width="1" opacity="1" d="M 0 0 L 225 0 L 225 225 L 0 225 L 0 0 Z M 97 9 L 96 10 L 82 11 L 64 17 L 42 31 Q 25 45 16 66 L 11 82 L 10 96 L 9 97 L 10 115 L 15 134 Q 21 150 32 162 Q 45 176 64 185 L 83 191 L 98 192 L 99 193 L 115 192 L 134 187 Q 149 181 160 171 L 206 216 L 209 217 L 213 216 L 217 211 L 216 206 L 171 161 Q 181 149 187 134 L 192 115 L 192 103 L 193 102 Q 191 96 192 88 L 187 69 Q 181 53 171 42 Q 158 26 139 17 L 116 10 L 97 9 Z " /><path fill="rgb(255,255,255)" stroke="rgb(255,255,255)" stroke-width="1" opacity="1" d="M 94.5 24 L 114.5 25 L 133.5 31 Q 150.1 38.9 161 52.5 Q 170.3 63.7 175 79.5 L 177 87.5 L 178 106.5 L 175 122.5 L 170 135.5 Q 162 150.5 149.5 161 L 144 164 L 144 109.5 L 140.5 106 Q 133.3 104.8 131 108.5 L 130 110.5 L 130 171.5 L 128.5 173 L 119.5 176 L 108 177 L 108 62.5 L 104.5 58 Q 95.8 56.3 94 61.5 L 94 176.5 Q 93.8 177.8 87.5 177 L 78.5 175 L 72 171.5 L 72 86.5 L 69.5 83 L 61.5 82 L 57 88.5 L 56.5 164 L 41 149.5 Q 31.9 138.6 27 123.5 L 24 108.5 L 24 93.5 L 27 78.5 L 34 62.5 Q 41.5 50 52.5 41 L 70.5 30 L 82.5 26 L 93.5 25 L 94.5 24 Z " /><path fill="rgb(69,131,237)" stroke="rgb(69,131,237)" stroke-width="1" opacity="1" d="M 164.5 37 L 156.5 46 L 164.5 37 Z " /><path fill="rgb(69,131,237)" stroke="rgb(69,131,237)" stroke-width="1" opacity="1" d="M 175.5 49 L 176.5 51 L 175.5 49 Z " /><path fill="rgb(69,131,237)" stroke="rgb(69,131,237)" stroke-width="1" opacity="1" d="M 159.5 50 L 160.5 52 L 159.5 50 Z " /><path fill="rgb(69,131,237)" stroke="rgb(69,131,237)" stroke-width="1" opacity="1" d="M 177.5 52 L 178.5 54 L 177.5 52 Z " /><path fill="rgb(69,131,237)" stroke="rgb(69,131,237)" stroke-width="1" opacity="1" d="M 190.5 84 L 191 86.5 L 190 86.5 L 190.5 84 Z " /><path fill="rgb(69,131,237)" stroke="rgb(69,131,237)" stroke-width="1" opacity="1" d="M 177.5 88 L 178 90.5 L 177 90.5 L 177.5 88 Z " /><path fill="rgb(69,131,237)" stroke="rgb(69,131,237)" stroke-width="1" opacity="1" d="M 191.5 91 L 192 96.5 L 191 96.5 L 191.5 91 Z " /><path fill="rgb(69,131,237)" stroke="rgb(69,131,237)" stroke-width="1" opacity="1" d="M 191.5 107 L 192 110.5 L 191 110.5 L 191.5 107 Z " /><path fill="rgb(69,131,237)" stroke="rgb(69,131,237)" stroke-width="1" opacity="1" d="M 177.5 111 L 178 113.5 L 177 113.5 L 177.5 111 Z " /><path fill="rgb(69,131,237)" stroke="rgb(69,131,237)" stroke-width="1" opacity="1" d="M 163.5 146 L 162.5 148 L 163.5 146 Z " /><path fill="rgb(69,131,237)" stroke="rgb(69,131,237)" stroke-width="1" opacity="1" d="M 160.5 150 L 151.5 160 L 160.5 150 Z " /><path fill="rgb(69,131,237)" stroke="rgb(69,131,237)" stroke-width="1" opacity="1" d="M 177.5 150 L 176.5 152 L 177.5 150 Z " /><path fill="rgb(69,131,237)" stroke="rgb(69,131,237)" stroke-width="1" opacity="1" d="M 171.5 158 L 170.5 160 L 171.5 158 Z " /><path fill="rgb(69,131,237)" stroke="rgb(69,131,237)" stroke-width="1" opacity="1" d="M 214.5 213 L 213.5 215 L 214.5 213 Z " /><path fill="rgb(49,167,81)" stroke="rgb(49,167,81)" stroke-width="1" opacity="1" d="M 99.5 58 Q 105.7 57.3 107 61.5 L 108 63.5 L 108 178 L 94.5 178 L 94 177.5 L 94 63.5 L 97.5 59 L 99.5 58 Z " /><path fill="rgb(49,167,81)" stroke="rgb(49,167,81)" stroke-width="1" opacity="1" d="M 63.5 82 Q 69.7 81.3 71 85.5 L 72 87.5 L 72 172 L 60.5 167 L 58 164.5 L 58 86.5 L 61.5 83 L 63.5 82 Z " /><path fill="rgb(49,167,81)" stroke="rgb(49,167,81)" stroke-width="1" opacity="1" d="M 135.5 106 Q 141.7 105.3 143 109.5 L 144 111.5 L 144 164.5 L 141.5 167 L 130 172 L 130 111.5 L 133.5 107 L 135.5 106 Z " /><path fill="rgb(65,133,244)" stroke="rgb(65,133,244)" stroke-width="1" opacity="1" d="M 165.5 37 L 169.5 42 L 165.5 38 L 157 46.5 L 161.5 52 L 156 46.5 L 165.5 37 Z " /><path fill="rgb(65,133,244)" stroke="rgb(65,133,244)" stroke-width="1" opacity="1" d="M 170.5 43 L 175 48.5 L 173 47.5 L 170.5 43 Z " /><path fill="rgb(65,133,244)" stroke="rgb(65,133,244)" stroke-width="1" opacity="1" d="M 162.5 53 L 164.5 56 L 162.5 53 Z " /><path fill="rgb(65,133,244)" stroke="rgb(65,133,244)" stroke-width="1" opacity="1" d="M 177.5 53 L 178.5 55 L 177.5 53 Z " /><path fill="rgb(65,133,244)" stroke="rgb(65,133,244)" stroke-width="1" opacity="1" d="M 165.5 57 L 166.5 59 L 165.5 57 Z " /><path fill="rgb(65,133,244)" stroke="rgb(65,133,244)" stroke-width="1" opacity="1" d="M 168.5 62 L 169.5 64 L 168.5 62 Z " /><path fill="rgb(65,133,244)" stroke="rgb(65,133,244)" stroke-width="1" opacity="1" d="M 188.5 78 L 189 80.5 L 188 80.5 L 188.5 78 Z " /><path fill="rgb(65,133,244)" stroke="rgb(65,133,244)" stroke-width="1" opacity="1" d="M 176.5 80 L 177 82.5 L 176 82.5 L 176.5 80 Z " /><path fill="rgb(65,133,244)" stroke="rgb(65,133,244)" stroke-width="1" opacity="1" d="M 189.5 82 L 190 84.5 L 189 84.5 L 189.5 82 Z " /><path fill="rgb(65,133,244)" stroke="rgb(65,133,244)" stroke-width="1" opacity="1" d="M 177.5 84 L 178 87.5 L 177 87.5 L 177.5 84 Z " /><path fill="rgb(65,133,244)" stroke="rgb(65,133,244)" stroke-width="1" opacity="1" d="M 190.5 87 L 191 91.5 L 190 91.5 L 190.5 87 Z " /><path fill="rgb(65,133,244)" stroke="rgb(65,133,244)" stroke-width="1" opacity="1" d="M 178.5 90 L 179 99.5 L 178 99.5 L 178.5 90 Z " /><path fill="rgb(65,133,244)" stroke="rgb(65,133,244)" stroke-width="1" opacity="1" d="M 191.5 97 L 192 105.5 L 191 105.5 L 191.5 97 Z " /><path fill="rgb(65,133,244)" stroke="rgb(65,133,244)" stroke-width="1" opacity="1" d="M 178.5 104 L 179 112.5 L 178 112.5 L 178.5 104 Z " /><path fill="rgb(65,133,244)" stroke="rgb(65,133,244)" stroke-width="1" opacity="1" d="M 190.5 110 L 191 115.5 L 190 115.5 L 190.5 110 Z " /><path fill="rgb(65,133,244)" stroke="rgb(65,133,244)" stroke-width="1" opacity="1" d="M 177.5 114 L 178 117.5 L 177 117.5 L 177.5 114 Z " /><path fill="rgb(65,133,244)" stroke="rgb(65,133,244)" stroke-width="1" opacity="1" d="M 189.5 117 L 190 120.5 L 189 120.5 L 189.5 117 Z " /><path fill="rgb(65,133,244)" stroke="rgb(65,133,244)" stroke-width="1" opacity="1" d="M 176.5 119 L 177 121.5 L 176 121.5 L 176.5 119 Z " /><path fill="rgb(65,133,244)" stroke="rgb(65,133,244)" stroke-width="1" opacity="1" d="M 188.5 122 L 189 124.5 L 188 124.5 L 188.5 122 Z " /><path fill="rgb(65,133,244)" stroke="rgb(65,133,244)" stroke-width="1" opacity="1" d="M 172.5 131 L 173 132.5 L 168.5 140 L 169 138.5 L 172.5 131 Z " /><path fill="rgb(65,133,244)" stroke="rgb(65,133,244)" stroke-width="1" opacity="1" d="M 183.5 137 L 184 138.5 L 179.5 146 L 180 144.5 L 183.5 137 Z " /><path fill="rgb(65,133,244)" stroke="rgb(65,133,244)" stroke-width="1" opacity="1" d="M 167.5 141 L 167 142.5 L 161.5 150 L 164 146.5 L 167.5 141 Z " /><path fill="rgb(65,133,244)" stroke="rgb(65,133,244)" stroke-width="1" opacity="1" d="M 177.5 149 L 176.5 151 L 177.5 149 Z " /><path fill="rgb(65,133,244)" stroke="rgb(65,133,244)" stroke-width="1" opacity="1" d="M 160.5 151 L 152 160.5 L 205.5 214 L 211 215.5 L 207.5 216 L 151 160.5 L 160.5 151 Z " /><path fill="rgb(65,133,244)" stroke="rgb(65,133,244)" stroke-width="1" opacity="1" d="M 175.5 152 L 173.5 155 L 175.5 152 Z " /><path fill="rgb(65,133,244)" stroke="rgb(65,133,244)" stroke-width="1" opacity="1" d="M 172.5 156 L 170.5 159 L 172.5 156 Z " /><path fill="rgb(65,133,244)" stroke="rgb(65,133,244)" stroke-width="1" opacity="1" d="M 169.5 160 L 215 205.5 L 216 210.5 L 215 210.5 L 214 205.5 L 169.5 160 Z " /><path fill="rgb(65,133,244)" stroke="rgb(65,133,244)" stroke-width="1" opacity="1" d="M 214.5 212 L 212.5 215 L 214.5 212 Z " /><path fill="rgb(243,189,104)" stroke="rgb(243,189,104)" stroke-width="1" opacity="1" d="M 88.5 10 L 92 10.5 L 88.5 11 L 88.5 10 Z " /><path fill="rgb(243,189,104)" stroke="rgb(243,189,104)" stroke-width="1" opacity="1" d="M 110.5 10 L 114 10.5 L 110.5 11 L 110.5 10 Z " /><path fill="rgb(243,189,104)" stroke="rgb(243,189,104)" stroke-width="1" opacity="1" d="M 110.5 24 L 113 24.5 L 110.5 25 L 110.5 24 Z " /><path fill="rgb(243,189,104)" stroke="rgb(243,189,104)" stroke-width="1" opacity="1" d="M 45.5 28 L 44.5 30 L 45.5 28 Z " /><path fill="rgb(243,189,104)" stroke="rgb(243,189,104)" stroke-width="1" opacity="1" d="M 157.5 29 L 158.5 31 L 157.5 29 Z " /><path fill="rgb(243,189,104)" stroke="rgb(243,189,104)" stroke-width="1" opacity="1" d="M 39.5 33 L 33.5 40 L 39.5 33 Z " /><path fill="rgb(243,189,104)" stroke="rgb(243,189,104)" stroke-width="1" opacity="1" d="M 163.5 34 L 164.5 36 L 163.5 34 Z " /><path fill="rgb(243,189,104)" stroke="rgb(243,189,104)" stroke-width="1" opacity="1" d="M 146.5 38 L 147.5 40 L 146.5 38 Z " /><path fill="rgb(243,189,104)" stroke="rgb(243,189,104)" stroke-width="1" opacity="1" d="M 51.5 41 L 48.5 45 L 51.5 41 Z " /><path fill="rgb(243,189,104)" stroke="rgb(243,189,104)" stroke-width="1" opacity="1" d="M 151.5 42 L 154.5 46 L 151.5 42 Z " /><path fill="rgb(243,189,104)" stroke="rgb(243,189,104)" stroke-width="1" opacity="1" d="M 29.5 44 L 28.5 46 L 29.5 44 Z " /><path fill="rgb(243,189,104)" stroke="rgb(243,189,104)" stroke-width="1" opacity="1" d="M 44.5 48 L 41.5 52 L 44.5 48 Z " /><path fill="rgb(243,189,104)" stroke="rgb(243,189,104)" stroke-width="1" opacity="1" d="M 10.5 88 L 11 90.5 L 10 90.5 L 10.5 88 Z " /><path fill="rgb(243,189,104)" stroke="rgb(243,189,104)" stroke-width="1" opacity="1" d="M 24.5 88 L 25 90.5 L 24 90.5 L 24.5 88 Z " /><path fill="rgb(243,189,104)" stroke="rgb(243,189,104)" stroke-width="1" opacity="1" d="M 10.5 110 L 11 112.5 L 10 112.5 L 10.5 110 Z " /><path fill="rgb(243,189,104)" stroke="rgb(243,189,104)" stroke-width="1" opacity="1" d="M 38.5 146 L 39.5 148 L 38.5 146 Z " /><path fill="rgb(243,189,104)" stroke="rgb(243,189,104)" stroke-width="1" opacity="1" d="M 41.5 150 L 44.5 154 L 41.5 150 Z " /><path fill="rgb(243,189,104)" stroke="rgb(243,189,104)" stroke-width="1" opacity="1" d="M 29.5 157 L 30.5 159 L 29.5 157 Z " /><path fill="rgb(243,189,104)" stroke="rgb(243,189,104)" stroke-width="1" opacity="1" d="M 48.5 157 L 51.5 161 L 48.5 157 Z " /><path fill="rgb(243,189,104)" stroke="rgb(243,189,104)" stroke-width="1" opacity="1" d="M 150.5 160 L 159.5 170 L 150.5 160 Z " /><path fill="rgb(243,189,104)" stroke="rgb(243,189,104)" stroke-width="1" opacity="1" d="M 147.5 162 L 146.5 164 L 147.5 162 Z " /><path fill="rgb(243,189,104)" stroke="rgb(243,189,104)" stroke-width="1" opacity="1" d="M 43.5 171 L 44.5 173 L 43.5 171 Z " /><path fill="rgb(243,189,104)" stroke="rgb(243,189,104)" stroke-width="1" opacity="1" d="M 158.5 171 L 157.5 173 L 158.5 171 Z " /><path fill="rgb(243,189,104)" stroke="rgb(243,189,104)" stroke-width="1" opacity="1" d="M 154.5 174 L 153.5 176 L 154.5 174 Z " /><path fill="rgb(243,189,104)" stroke="rgb(243,189,104)" stroke-width="1" opacity="1" d="M 89.5 191 L 93 191.5 L 89.5 192 L 89.5 191 Z " /><path fill="rgb(243,189,104)" stroke="rgb(243,189,104)" stroke-width="1" opacity="1" d="M 110.5 191 L 113 191.5 L 110.5 192 L 110.5 191 Z " /><path fill="rgb(251,187,3)" stroke="rgb(251,187,3)" stroke-width="1" opacity="1" d="M 10 101 L 24 101 L 24 112.5 Q 30.3 144.3 51.5 161 Q 64 170.5 80.5 176 L 89.5 178 L 112.5 178 L 127.5 174 L 150.5 161 L 159.5 171 Q 145.3 182.8 125.5 189 L 109.5 192 L 93.5 192 L 76.5 189 L 55.5 180 Q 41.2 171.8 31 159.5 Q 21.7 148.8 16 134.5 L 11 116.5 L 10 101 Z " /><path fill="rgb(66,133,244)" stroke="rgb(66,133,244)" stroke-width="1" opacity="1" d="M 165.5 38 L 171 42.5 L 170 43.5 L 173 46.5 Q 181.9 58.1 187 73.5 L 190 85.5 L 191 105.5 L 192 106.5 L 190 110.5 L 188 125.5 L 184 135.5 L 184.5 137 Q 182.3 136.3 183 138.5 L 179 145.5 L 179.5 147 Q 177.3 146.3 178 148.5 L 173 154.5 L 173.5 156 L 170 158.5 L 169 160.5 L 214 205.5 L 215 211.5 L 211.5 216 L 205.5 214 L 152 160.5 Q 165.4 149.4 173 132.5 L 178 117.5 L 179 104.5 L 179 102.5 L 178 100.5 L 179 99.5 L 179 90.5 L 178 84 L 176 83.5 L 177 80 L 175 79.5 L 176 77.5 L 175 74 L 173 73.5 L 173 71.5 L 172 67 L 170 66.5 L 170 64.5 L 168 60 L 166 59.5 Q 168.3 58.3 165.5 57 L 164 56.5 Q 166.8 54.8 162.5 53 L 161 52.5 L 162 51.5 L 157 46.5 L 165.5 38 Z " /></svg>