<svg width="500" height="500" version="1.1" xmlns="http://www.w3.org/2000/svg" desc="Created with imagetracer.js version 1.2.6" ><path fill="rgb(89,155,227)" stroke="rgb(89,155,227)" stroke-width="1" opacity="0.9450980392156862" d="M 199.5 172 L 207 172.5 L 199.5 173 L 199.5 172 Z " /><path fill="rgb(89,155,227)" stroke="rgb(89,155,227)" stroke-width="1" opacity="0.9450980392156862" d="M 169.5 184 L 165.5 189 L 169.5 184 Z " /><path fill="rgb(89,155,227)" stroke="rgb(89,155,227)" stroke-width="1" opacity="0.9450980392156862" d="M 198.5 195 L 201 195.5 L 198.5 196 L 198.5 195 Z " /><path fill="rgb(89,155,227)" stroke="rgb(89,155,227)" stroke-width="1" opacity="0.9450980392156862" d="M 205.5 195 L 208 195.5 L 205.5 196 L 205.5 195 Z " /><path fill="rgb(89,155,227)" stroke="rgb(89,155,227)" stroke-width="1" opacity="0.9450980392156862" d="M 276.5 207 L 275.5 209 L 276.5 207 Z " /><path fill="rgb(89,155,227)" stroke="rgb(89,155,227)" stroke-width="1" opacity="0.9450980392156862" d="M 312.5 209 L 313 327.5 L 312 327.5 L 312.5 209 Z " /><path fill="rgb(89,155,227)" stroke="rgb(89,155,227)" stroke-width="1" opacity="0.9450980392156862" d="M 310.5 210 L 309.5 212 L 310.5 210 Z " /><path fill="rgb(89,155,227)" stroke="rgb(89,155,227)" stroke-width="1" opacity="0.9450980392156862" d="M 251.5 212 L 252 216.5 L 251 216.5 L 251.5 212 Z " /><path fill="rgb(89,155,227)" stroke="rgb(89,155,227)" stroke-width="1" opacity="0.9450980392156862" d="M 226.5 217 L 227 219.5 L 226 219.5 L 226.5 217 Z " /><path fill="rgb(89,155,227)" stroke="rgb(89,155,227)" stroke-width="1" opacity="0.9450980392156862" d="M 299.5 218 L 298.5 220 L 299.5 218 Z " /><path fill="rgb(89,155,227)" stroke="rgb(89,155,227)" stroke-width="1" opacity="0.9450980392156862" d="M 222.5 228 L 221.5 230 L 222.5 228 Z " /><path fill="rgb(89,155,227)" stroke="rgb(89,155,227)" stroke-width="1" opacity="0.9450980392156862" d="M 242.5 238 L 239.5 242 L 242.5 238 Z " /><path fill="rgb(89,155,227)" stroke="rgb(89,155,227)" stroke-width="1" opacity="0.9450980392156862" d="M 232.5 246 L 232 247.5 L 231.5 249 L 231 247.5 L 232.5 246 Z " /><path fill="rgb(89,155,227)" stroke="rgb(89,155,227)" stroke-width="1" opacity="0.9450980392156862" d="M 241.5 254 L 242.5 256 L 241.5 254 Z " /><path fill="rgb(89,155,227)" stroke="rgb(89,155,227)" stroke-width="1" opacity="0.9450980392156862" d="M 256.5 279 L 257 281.5 L 256 281.5 L 256.5 279 Z " /><path fill="rgb(89,155,227)" stroke="rgb(89,155,227)" stroke-width="1" opacity="0.9450980392156862" d="M 256.5 290 L 257 292.5 L 256 292.5 L 256.5 290 Z " /><path fill="rgb(89,155,227)" stroke="rgb(89,155,227)" stroke-width="1" opacity="0.9450980392156862" d="M 162.5 313 L 163.5 315 L 162.5 313 Z " /><path fill="rgb(89,155,227)" stroke="rgb(89,155,227)" stroke-width="1" opacity="0.9450980392156862" d="M 247.5 313 L 246.5 315 L 247.5 313 Z " /><path fill="rgb(89,155,227)" stroke="rgb(89,155,227)" stroke-width="1" opacity="0.9450980392156862" d="M 167.5 318 L 168.5 320 L 167.5 318 Z " /><path fill="rgb(89,155,227)" stroke="rgb(89,155,227)" stroke-width="1" opacity="0.9450980392156862" d="M 241.5 319 L 240.5 321 L 241.5 319 Z " /><path fill="rgb(64,134,244)" stroke="rgb(64,134,244)" stroke-width="1" opacity="1" d="M 31.5 0 L 381 0 L 381 118 L 118 118 L 118 382 L 1.5 382 L 0 380.5 L 0 31.5 Q 3.8 15.3 15.5 7 Q 21.9 1.9 31.5 0 Z " /><path fill="rgb(64,134,244)" stroke="rgb(64,134,244)" stroke-width="1" opacity="1" d="M 242.5 189 L 243.5 191 L 242.5 189 Z " /><path fill="rgb(64,134,244)" stroke="rgb(64,134,244)" stroke-width="1" opacity="1" d="M 236.5 243 L 235.5 245 L 236.5 243 Z " /><path fill="rgb(64,134,244)" stroke="rgb(64,134,244)" stroke-width="1" opacity="1" d="M 243.5 256 L 247.5 261 L 243.5 256 Z " /><path fill="rgb(64,134,244)" stroke="rgb(64,134,244)" stroke-width="1" opacity="1" d="M 181.5 298 L 182.5 300 L 181.5 298 Z " /><path fill="rgb(64,134,244)" stroke="rgb(64,134,244)" stroke-width="1" opacity="1" d="M 227.5 298 L 226.5 300 L 227.5 298 Z " /><path fill="rgb(64,134,244)" stroke="rgb(64,134,244)" stroke-width="1" opacity="1" d="M 184.5 301 L 185.5 303 L 184.5 301 Z " /><path fill="rgb(64,134,244)" stroke="rgb(64,134,244)" stroke-width="1" opacity="1" d="M 224.5 301 L 223.5 303 L 224.5 301 Z " /><path fill="rgb(64,134,244)" stroke="rgb(64,134,244)" stroke-width="1" opacity="1" d="M 164.5 315 L 166.5 318 L 164.5 315 Z " /><path fill="rgb(64,134,244)" stroke="rgb(64,134,244)" stroke-width="1" opacity="1" d="M 245.5 315 L 242.5 319 L 245.5 315 Z " /><path fill="rgb(18,103,210)" stroke="rgb(18,103,210)" stroke-width="1" opacity="0.996078431372549" d="M 382 0 L 468.5 0 Q 484.7 3.8 493 15.5 Q 498.1 21.9 500 31.5 L 500 118 L 382 118 L 382 0 Z " /><path fill="rgb(202,220,224)" stroke="rgb(202,220,224)" stroke-width="1" opacity="0.996078431372549" d="M 119.5 118 L 380.5 118 L 382 119.5 L 381.5 123 L 381 119 L 119 119 L 119 381 L 380.5 381 L 381 377.5 L 382 377.5 Q 382.8 381.3 380.5 382 L 119.5 382 L 118 380.5 L 118 119.5 L 119.5 118 Z " /><path fill="rgb(202,220,224)" stroke="rgb(202,220,224)" stroke-width="1" opacity="0.996078431372549" d="M 195.5 172 L 199 172.5 L 195.5 173 L 195.5 172 Z " /><path fill="rgb(202,220,224)" stroke="rgb(202,220,224)" stroke-width="1" opacity="0.996078431372549" d="M 207.5 172 L 211 172.5 L 207.5 173 L 207.5 172 Z " /><path fill="rgb(202,220,224)" stroke="rgb(202,220,224)" stroke-width="1" opacity="0.996078431372549" d="M 337.5 176 L 338 328.5 L 337 328.5 L 337.5 176 Z " /><path fill="rgb(202,220,224)" stroke="rgb(202,220,224)" stroke-width="1" opacity="0.996078431372549" d="M 233.5 180 L 234.5 182 L 233.5 180 Z " /><path fill="rgb(202,220,224)" stroke="rgb(202,220,224)" stroke-width="1" opacity="0.996078431372549" d="M 171.5 182 L 170.5 184 L 171.5 182 Z " /><path fill="rgb(202,220,224)" stroke="rgb(202,220,224)" stroke-width="1" opacity="0.996078431372549" d="M 310.5 182 L 309.5 184 L 310.5 182 Z " /><path fill="rgb(202,220,224)" stroke="rgb(202,220,224)" stroke-width="1" opacity="0.996078431372549" d="M 237.5 183 L 242.5 189 L 237.5 183 Z " /><path fill="rgb(202,220,224)" stroke="rgb(202,220,224)" stroke-width="1" opacity="0.996078431372549" d="M 303.5 187 L 302.5 189 L 303.5 187 Z " /><path fill="rgb(202,220,224)" stroke="rgb(202,220,224)" stroke-width="1" opacity="0.996078431372549" d="M 164.5 189 L 163.5 191 L 164.5 189 Z " /><path fill="rgb(202,220,224)" stroke="rgb(202,220,224)" stroke-width="1" opacity="0.996078431372549" d="M 201.5 195 L 205 195.5 L 201.5 196 L 201.5 195 Z " /><path fill="rgb(202,220,224)" stroke="rgb(202,220,224)" stroke-width="1" opacity="0.996078431372549" d="M 292.5 195 L 291.5 197 L 292.5 195 Z " /><path fill="rgb(202,220,224)" stroke="rgb(202,220,224)" stroke-width="1" opacity="0.996078431372549" d="M 188.5 199 L 183.5 205 L 188.5 199 Z " /><path fill="rgb(202,220,224)" stroke="rgb(202,220,224)" stroke-width="1" opacity="0.996078431372549" d="M 285.5 200 L 284.5 202 L 285.5 200 Z " /><path fill="rgb(202,220,224)" stroke="rgb(202,220,224)" stroke-width="1" opacity="0.996078431372549" d="M 220.5 201 L 221.5 203 L 220.5 201 Z " /><path fill="rgb(202,220,224)" stroke="rgb(202,220,224)" stroke-width="1" opacity="0.996078431372549" d="M 251.5 208 L 252 211.5 L 251 211.5 L 251.5 208 Z " /><path fill="rgb(202,220,224)" stroke="rgb(202,220,224)" stroke-width="1" opacity="0.996078431372549" d="M 226.5 214 L 227 216.5 L 226 216.5 L 226.5 214 Z " /><path fill="rgb(202,220,224)" stroke="rgb(202,220,224)" stroke-width="1" opacity="0.996078431372549" d="M 251.5 217 L 252 219.5 L 251 219.5 L 251.5 217 Z " /><path fill="rgb(202,220,224)" stroke="rgb(202,220,224)" stroke-width="1" opacity="0.996078431372549" d="M 244.5 236 L 243.5 238 L 244.5 236 Z " /><path fill="rgb(202,220,224)" stroke="rgb(202,220,224)" stroke-width="1" opacity="0.996078431372549" d="M 189.5 237 L 204 237.5 L 189 238 L 189 260 L 205.5 260 L 205.5 261 L 189.5 261 L 188 259.5 L 188 238.5 L 189.5 237 Z " /><path fill="rgb(202,220,224)" stroke="rgb(202,220,224)" stroke-width="1" opacity="0.996078431372549" d="M 238.5 242 L 237.5 244 L 238.5 242 Z " /><path fill="rgb(202,220,224)" stroke="rgb(202,220,224)" stroke-width="1" opacity="0.996078431372549" d="M 249.5 262 L 250.5 264 L 249.5 262 Z " /><path fill="rgb(202,220,224)" stroke="rgb(202,220,224)" stroke-width="1" opacity="0.996078431372549" d="M 223.5 267 L 226.5 271 L 223.5 267 Z " /><path fill="rgb(202,220,224)" stroke="rgb(202,220,224)" stroke-width="1" opacity="0.996078431372549" d="M 231.5 282 L 232 287.5 L 231 287.5 L 231.5 282 Z " /><path fill="rgb(202,220,224)" stroke="rgb(202,220,224)" stroke-width="1" opacity="0.996078431372549" d="M 180.5 296 L 181.5 298 L 180.5 296 Z " /><path fill="rgb(202,220,224)" stroke="rgb(202,220,224)" stroke-width="1" opacity="0.996078431372549" d="M 200.5 308 L 209 308.5 L 200.5 309 L 200.5 308 Z " /><path fill="rgb(202,220,224)" stroke="rgb(202,220,224)" stroke-width="1" opacity="0.996078431372549" d="M 160.5 311 L 161.5 313 L 160.5 311 Z " /><path fill="rgb(202,220,224)" stroke="rgb(202,220,224)" stroke-width="1" opacity="0.996078431372549" d="M 169.5 320 L 170.5 322 L 169.5 320 Z " /><path fill="rgb(202,220,224)" stroke="rgb(202,220,224)" stroke-width="1" opacity="0.996078431372549" d="M 198.5 332 L 211 332.5 L 198.5 333 L 198.5 332 Z " /><path fill="rgb(19,116,232)" stroke="rgb(19,116,232)" stroke-width="1" opacity="0.996078431372549" d="M 381.5 0 L 382 117.5 L 381 117.5 L 381.5 0 Z " /><path fill="rgb(19,116,232)" stroke="rgb(19,116,232)" stroke-width="1" opacity="0.996078431372549" d="M 194.5 173 L 212.5 173 L 217.5 174 Q 233.1 177.9 242 188.5 L 250 202.5 L 251 221.5 Q 247.9 235.9 237.5 243 L 231 247.5 L 232.5 250 Q 243.8 254.2 250 263.5 L 256 276.5 L 257 287.5 L 256 288.5 L 255 299.5 L 251 308.5 L 238.5 322 Q 230.4 328.4 218.5 331 L 196.5 332 Q 173 327.5 161 311.5 Q 154.4 304.2 153 293 L 175 285 Q 177.4 296.4 185.5 303 L 197.5 309 L 210.5 309 Q 221.8 306.3 228 298.5 L 232 289.5 L 232 279.5 Q 229.3 269.8 221.5 265 L 208.5 260 L 189 260 L 189 238 L 206.5 238 Q 218.3 235.8 224 227.5 Q 228.3 222.3 227 211.5 Q 224.9 203.2 218.5 199 Q 211.6 193.4 197.5 195 Q 186.1 197.6 181 206.5 L 177.5 213 L 157 205 L 157 201.5 L 163 191.5 L 172.5 182 L 180.5 177 L 194.5 173 Z " /><path fill="rgb(19,116,232)" stroke="rgb(19,116,232)" stroke-width="1" opacity="0.996078431372549" d="M 320.5 176 L 336.5 176 L 337 176.5 L 337 329 L 313.5 329 L 313 328.5 L 313 209.5 L 311.5 209 L 287.5 227 L 276 208.5 L 320.5 176 Z " /><path fill="rgb(244,141,16)" stroke="rgb(244,141,16)" stroke-width="1" opacity="0.9921568627450981" d="M 381.5 381 L 500 381.5 L 381.5 382 L 381.5 381 Z " /><path fill="rgb(254,254,255)" stroke="rgb(254,254,255)" stroke-width="1" opacity="1" d="M 381.5 123 L 382 376.5 L 381 376.5 L 381.5 123 Z " /><path fill="rgb(254,254,255)" stroke="rgb(254,254,255)" stroke-width="1" opacity="1" d="M 320.5 175 L 338 175.5 L 320.5 176 L 320.5 175 Z " /><path fill="rgb(254,254,255)" stroke="rgb(254,254,255)" stroke-width="1" opacity="1" d="M 315.5 178 L 314.5 180 L 315.5 178 Z " /><path fill="rgb(254,254,255)" stroke="rgb(254,254,255)" stroke-width="1" opacity="1" d="M 173.5 180 L 172.5 182 L 173.5 180 Z " /><path fill="rgb(254,254,255)" stroke="rgb(254,254,255)" stroke-width="1" opacity="1" d="M 235.5 181 L 236.5 183 L 235.5 181 Z " /><path fill="rgb(254,254,255)" stroke="rgb(254,254,255)" stroke-width="1" opacity="1" d="M 308.5 183 L 307.5 185 L 308.5 183 Z " /><path fill="rgb(254,254,255)" stroke="rgb(254,254,255)" stroke-width="1" opacity="1" d="M 168.5 184 L 165.5 188 L 168.5 184 Z " /><path fill="rgb(254,254,255)" stroke="rgb(254,254,255)" stroke-width="1" opacity="1" d="M 243.5 189 L 244.5 191 L 243.5 189 Z " /><path fill="rgb(254,254,255)" stroke="rgb(254,254,255)" stroke-width="1" opacity="1" d="M 162.5 191 L 161.5 193 L 162.5 191 Z " /><path fill="rgb(254,254,255)" stroke="rgb(254,254,255)" stroke-width="1" opacity="1" d="M 297.5 191 L 296.5 193 L 297.5 191 Z " /><path fill="rgb(254,254,255)" stroke="rgb(254,254,255)" stroke-width="1" opacity="1" d="M 290.5 196 L 289.5 198 L 290.5 196 Z " /><path fill="rgb(254,254,255)" stroke="rgb(254,254,255)" stroke-width="1" opacity="1" d="M 283.5 201 L 282.5 203 L 283.5 201 Z " /><path fill="rgb(254,254,255)" stroke="rgb(254,254,255)" stroke-width="1" opacity="1" d="M 155.5 203 L 157 205.5 L 155 204.5 L 155.5 203 Z " /><path fill="rgb(254,254,255)" stroke="rgb(254,254,255)" stroke-width="1" opacity="1" d="M 222.5 204 L 223.5 206 L 222.5 204 Z " /><path fill="rgb(254,254,255)" stroke="rgb(254,254,255)" stroke-width="1" opacity="1" d="M 279.5 204 L 278.5 206 L 279.5 204 Z " /><path fill="rgb(254,254,255)" stroke="rgb(254,254,255)" stroke-width="1" opacity="1" d="M 183.5 205 L 182.5 207 L 183.5 205 Z " /><path fill="rgb(254,254,255)" stroke="rgb(254,254,255)" stroke-width="1" opacity="1" d="M 311.5 210 L 310.5 212 L 311.5 210 Z " /><path fill="rgb(254,254,255)" stroke="rgb(254,254,255)" stroke-width="1" opacity="1" d="M 304.5 215 L 303.5 217 L 304.5 215 Z " /><path fill="rgb(254,254,255)" stroke="rgb(254,254,255)" stroke-width="1" opacity="1" d="M 300.5 218 L 299.5 220 L 300.5 218 Z " /><path fill="rgb(254,254,255)" stroke="rgb(254,254,255)" stroke-width="1" opacity="1" d="M 293.5 223 L 292.5 225 L 293.5 223 Z " /><path fill="rgb(254,254,255)" stroke="rgb(254,254,255)" stroke-width="1" opacity="1" d="M 289.5 226 L 288.5 228 L 289.5 226 Z " /><path fill="rgb(254,254,255)" stroke="rgb(254,254,255)" stroke-width="1" opacity="1" d="M 218.5 231 L 217.5 233 L 218.5 231 Z " /><path fill="rgb(254,254,255)" stroke="rgb(254,254,255)" stroke-width="1" opacity="1" d="M 236.5 244 L 235.5 246 L 236.5 244 Z " /><path fill="rgb(254,254,255)" stroke="rgb(254,254,255)" stroke-width="1" opacity="1" d="M 242.5 254 L 249.5 262 L 242.5 254 Z " /><path fill="rgb(254,254,255)" stroke="rgb(254,254,255)" stroke-width="1" opacity="1" d="M 182.5 298 L 186.5 303 L 182.5 298 Z " /><path fill="rgb(254,254,255)" stroke="rgb(254,254,255)" stroke-width="1" opacity="1" d="M 226.5 298 L 222.5 303 L 226.5 298 Z " /><path fill="rgb(254,254,255)" stroke="rgb(254,254,255)" stroke-width="1" opacity="1" d="M 250.5 310 L 249.5 312 L 250.5 310 Z " /><path fill="rgb(254,254,255)" stroke="rgb(254,254,255)" stroke-width="1" opacity="1" d="M 162.5 314 L 167.5 320 L 162.5 314 Z " /><path fill="rgb(254,254,255)" stroke="rgb(254,254,255)" stroke-width="1" opacity="1" d="M 247.5 314 L 241.5 321 L 247.5 314 Z " /><path fill="rgb(254,254,255)" stroke="rgb(254,254,255)" stroke-width="1" opacity="1" d="M 238.5 322 L 237.5 324 L 238.5 322 Z " /><path fill="rgb(255,255,255)" stroke="rgb(255,255,255)" stroke-width="1" opacity="1" d="M 119 119 L 381 119 L 381 381 L 119 381 L 119 119 Z M 195 172 L 183 175 L 169 184 Q 159 192 155 205 Q 165 211 179 214 L 184 205 Q 188 198 198 196 L 209 196 L 220 201 L 226 212 Q 227 223 222 229 Q 216 235 207 237 L 188 237 L 188 261 L 209 261 L 223 267 Q 228 272 231 280 Q 233 291 228 297 Q 222 305 211 308 Q 196 310 189 304 Q 178 297 176 284 L 173 284 L 152 294 Q 154 307 162 315 Q 174 329 198 333 L 213 333 L 223 331 Q 234 328 242 321 Q 253 312 257 296 L 257 277 L 250 262 Q 243 253 232 248 L 241 242 L 248 233 L 252 221 Q 254 200 245 191 Q 231 170 195 172 Z M 321 175 L 275 207 L 276 212 L 288 228 L 311 212 L 312 212 L 312 329 L 313 329 L 338 329 L 338 176 L 338 175 L 321 175 Z " /><path fill="rgb(251,189,0)" stroke="rgb(251,189,0)" stroke-width="1" opacity="1" d="M 382 119 L 500 119 L 500 381 L 382 381 L 382 119 Z " /><path fill="rgb(0,0,0)" stroke="rgb(0,0,0)" stroke-width="1" opacity="0" d="M 0 0 L 30 0.5 Q 14.8 4.3 7 15.5 L 0.5 30 L 0 0 Z " /><path fill="rgb(0,0,0)" stroke="rgb(0,0,0)" stroke-width="1" opacity="0" d="M 470.5 0 L 500 0 L 500 29.5 L 499 29.5 Q 495.6 14.4 484.5 7 Q 479.4 2.1 470.5 1 L 470.5 0 Z " /><path fill="rgb(0,0,0)" stroke="rgb(0,0,0)" stroke-width="1" opacity="0" d="M 499.5 383 L 500 500 L 383 499.5 L 499.5 383 Z " /><path fill="rgb(0,0,0)" stroke="rgb(0,0,0)" stroke-width="1" opacity="0" d="M 0.5 469 Q 3.7 484.3 14.5 492 Q 20.9 497.6 31 499.5 L 0 500 L 0.5 469 Z " /><path fill="rgb(18,129,53)" stroke="rgb(18,129,53)" stroke-width="1" opacity="0.996078431372549" d="M 0 382 L 118 382 L 118 498.5 L 118.5 500 L 31.5 500 Q 16.1 496.4 8 485.5 Q 2.3 478.7 0 468.5 L 0 382 Z " /><path fill="rgb(18,129,53)" stroke="rgb(18,129,53)" stroke-width="1" opacity="0.996078431372549" d="M 381.5 382 L 382 498.5 L 381 498.5 L 381.5 382 Z " /><path fill="rgb(49,169,82)" stroke="rgb(49,169,82)" stroke-width="1" opacity="0.996078431372549" d="M 382.5 118 L 500 118.5 L 382.5 119 L 382.5 118 Z " /><path fill="rgb(49,169,82)" stroke="rgb(49,169,82)" stroke-width="1" opacity="0.996078431372549" d="M 118 382 L 381 382 L 381 498.5 L 381.5 500 L 119.5 500 L 118 498.5 L 118 382 Z " /><path fill="rgb(234,65,49)" stroke="rgb(234,65,49)" stroke-width="1" opacity="0.984313725490196" d="M 382 382 L 500 382.5 L 382 499.5 L 382 382 Z " /></svg>