<svg width="191" height="264" version="1.1" xmlns="http://www.w3.org/2000/svg" desc="Created with imagetracer.js version 1.2.6" ><path fill="rgb(115,162,244)" stroke="rgb(115,162,244)" stroke-width="1" opacity="1" d="M 16.5 0 L 118.5 0 L 120 1.5 L 119.5 58 L 119 2 L 13.5 2 Q 6 4 2.5 10 L 4 7.5 L 6.5 4 L 16.5 0 Z " /><path fill="rgb(115,162,244)" stroke="rgb(115,162,244)" stroke-width="1" opacity="1" d="M 0.5 15 L 1 17.5 L 0 17.5 L 0.5 15 Z " /><path fill="rgb(115,162,244)" stroke="rgb(115,162,244)" stroke-width="1" opacity="1" d="M 123.5 65 L 126.5 69 L 123.5 65 Z " /><path fill="rgb(115,162,244)" stroke="rgb(115,162,244)" stroke-width="1" opacity="1" d="M 47.5 132 L 48 143.5 L 47 143.5 L 47.5 132 Z " /><path fill="rgb(115,162,244)" stroke="rgb(115,162,244)" stroke-width="1" opacity="1" d="M 143.5 132 L 144 143.5 L 143 143.5 L 143.5 132 Z " /><path fill="rgb(115,162,244)" stroke="rgb(115,162,244)" stroke-width="1" opacity="1" d="M 47.5 156 L 48 167.5 L 47 167.5 L 47.5 156 Z " /><path fill="rgb(115,162,244)" stroke="rgb(115,162,244)" stroke-width="1" opacity="1" d="M 143.5 156 L 144 167.5 L 143 167.5 L 143.5 156 Z " /><path fill="rgb(115,162,244)" stroke="rgb(115,162,244)" stroke-width="1" opacity="1" d="M 47.5 180 L 48 191.5 L 47 191.5 L 47.5 180 Z " /><path fill="rgb(115,162,244)" stroke="rgb(115,162,244)" stroke-width="1" opacity="1" d="M 143.5 180 L 144 191.5 L 143 191.5 L 143.5 180 Z " /><path fill="rgb(115,162,244)" stroke="rgb(115,162,244)" stroke-width="1" opacity="1" d="M 47.5 204 L 48 215.5 L 47 215.5 L 47.5 204 Z " /><path fill="rgb(115,162,244)" stroke="rgb(115,162,244)" stroke-width="1" opacity="1" d="M 119.5 209 L 120 213.5 L 119 213.5 L 119.5 209 Z " /><path fill="rgb(87,131,224)" stroke="rgb(87,131,224)" stroke-width="1" opacity="1" d="M 16.5 263 L 175 263.5 L 16.5 264 L 16.5 263 Z " /><path fill="rgb(81,143,245)" stroke="rgb(81,143,245)" stroke-width="1" opacity="1" d="M 13.5 2 L 58.5 2 L 59.5 3 L 83 3 L 82 21.5 L 77 37.5 Q 68.9 55.4 54.5 67 Q 42.2 77.2 24.5 82 L 13.5 84 L 0 84 L 0 18.5 L 2 13.5 L 1.5 12 L 3 11.5 L 2 10.5 L 8.5 4 L 13.5 2 Z " /><path fill="rgb(76,140,245)" stroke="rgb(76,140,245)" stroke-width="1" opacity="1" d="M 107.5 2 L 118 2.5 L 107.5 3 L 107.5 2 Z " /><path fill="rgb(76,140,245)" stroke="rgb(76,140,245)" stroke-width="1" opacity="1" d="M 118.5 60 L 123 68 L 129 71 Q 127.9 73.7 130.5 73 L 139.5 83 L 144 86.5 Q 132.4 109.9 113.5 126 L 106.5 131 L 105.5 130 L 87.5 130 L 86.5 131 L 47.5 131 L 46 132.5 L 46 143.5 L 47.5 145 L 86 145.5 L 69.5 154 L 48.5 154 L 46 156.5 Q 47.3 162.6 44.5 162 L 39.5 164 L 20.5 166 L 19.5 167 L 0 167 L 0 131 L 20.5 131 L 43.5 126 L 68.5 115 Q 87.9 103.4 102 86.5 Q 112.2 75.2 118.5 60 Z " /><path fill="rgb(73,138,244)" stroke="rgb(73,138,244)" stroke-width="1" opacity="1" d="M 152 97 L 153.5 97 L 171 113.5 Q 155.7 136.2 135.5 154 L 133.5 155 L 94.5 155 L 94.5 154 L 108.5 145 L 143.5 145 L 145 143.5 L 145 132.5 L 143.5 131 L 126 130.5 Q 141.9 116 152 97 Z " /><path fill="rgb(73,138,244)" stroke="rgb(73,138,244)" stroke-width="1" opacity="1" d="M 62.5 169 L 115 169.5 L 98.5 179 L 47.5 179 L 46 180.5 L 46 191.5 L 47.5 193 L 65 193.5 L 50.5 198 L 34.5 201 L 0 203 L 0 179 L 18.5 179 L 19.5 178 L 27.5 178 L 44.5 175 L 62.5 169 Z " /><path fill="rgb(79,142,245)" stroke="rgb(79,142,245)" stroke-width="1" opacity="1" d="M 59.5 2 L 107 3 L 106 22.5 L 99 46.5 Q 89.7 67.7 73.5 82 Q 58.7 95.7 37.5 103 L 20.5 107 L 0 108 L 0 84 L 13.5 84 L 24.5 82 L 42.5 75 Q 56.4 67.4 66 55.5 Q 75.1 44.6 80 29.5 L 83 14.5 L 83 3 L 59.5 3 L 59.5 2 Z " /><path fill="rgb(79,141,245)" stroke="rgb(79,141,245)" stroke-width="1" opacity="1" d="M 84.5 2 L 94 2.5 L 84.5 3 L 84.5 2 Z " /><path fill="rgb(79,141,245)" stroke="rgb(79,141,245)" stroke-width="1" opacity="1" d="M 107 3 L 118 3 L 118 22.5 L 113 43.5 L 106 59.5 Q 96.8 76.3 83.5 89 Q 68.5 103.5 47.5 112 L 26.5 118 L 2.5 120 L 0 119 L 0 108 L 11.5 108 L 12.5 107 L 26.5 106 L 45.5 100 Q 66.7 90.7 81 74.5 Q 93.7 60.7 101 41.5 L 106 22.5 L 107 3 Z " /><path fill="rgb(78,141,245)" stroke="rgb(78,141,245)" stroke-width="1" opacity="1" d="M 94.5 2 L 107 2.5 L 94.5 3 L 94.5 2 Z " /><path fill="rgb(78,141,245)" stroke="rgb(78,141,245)" stroke-width="1" opacity="1" d="M 117.5 23 L 118 57.5 L 119 59.5 Q 106.7 85.7 85.5 103 Q 68 118 43.5 126 L 20.5 131 L 0 131 L 0 119.5 L 1.5 119 Q 3 121.5 8.5 120 L 9.5 119 L 20.5 119 L 31.5 117 L 47.5 112 Q 71.6 102.1 88 84.5 Q 100 72 108 55.5 L 113 43.5 L 117.5 23 Z " /><path fill="rgb(254,254,253)" stroke="rgb(254,254,253)" stroke-width="1" opacity="1" d="M 0 0 L 13 0.5 Q 5.1 2.1 2 8.5 L 0.5 13 L 0 0 Z " /><path fill="rgb(254,254,253)" stroke="rgb(254,254,253)" stroke-width="1" opacity="1" d="M 120.5 0 L 191 0 L 191 70.5 L 120.5 0 Z " /><path fill="rgb(254,254,253)" stroke="rgb(254,254,253)" stroke-width="1" opacity="1" d="M 0.5 251 Q 2.1 258.9 8.5 262 L 13 263.5 L 0 264 L 0.5 251 Z " /><path fill="rgb(254,254,253)" stroke="rgb(254,254,253)" stroke-width="1" opacity="1" d="M 190.5 251 L 191 264 L 178 263.5 Q 185.9 261.9 189 255.5 L 190.5 251 Z " /><path fill="rgb(72,137,244)" stroke="rgb(72,137,244)" stroke-width="1" opacity="1" d="M 118.5 3 L 119 55.5 L 118 55.5 L 118.5 3 Z " /><path fill="rgb(72,137,244)" stroke="rgb(72,137,244)" stroke-width="1" opacity="1" d="M 176.5 118 L 182.5 124 L 183.5 123 L 190.5 123 L 191 125 L 184 125.5 L 190 126.5 L 189 129 L 191 129.5 L 188 130.5 L 191 131 L 191 146.5 L 164.5 176 L 145.5 192 L 145 180.5 L 143.5 179 L 99 178.5 L 123.5 178 L 135.5 169 L 143.5 169 L 145 167.5 L 145 161.5 Q 164.8 144.3 179 121.5 L 176.5 118 Z " /><path fill="rgb(72,137,244)" stroke="rgb(72,137,244)" stroke-width="1" opacity="1" d="M 46.5 132 L 47 143.5 L 48 144.5 L 46 143.5 L 46.5 132 Z " /><path fill="rgb(72,137,244)" stroke="rgb(72,137,244)" stroke-width="1" opacity="1" d="M 134.5 154 L 142.5 154 L 144 155.5 L 142.5 155 L 134.5 155 L 134.5 154 Z " /><path fill="rgb(72,137,244)" stroke="rgb(72,137,244)" stroke-width="1" opacity="1" d="M 97.5 193 L 143 193.5 Q 133.2 202.1 121 207 Q 121.8 203.2 118.5 202 L 106.5 202 L 105.5 203 L 48.5 203 L 47.5 204 L 48.5 202 L 78.5 202 L 97.5 193 Z " /><path fill="rgb(72,137,244)" stroke="rgb(72,137,244)" stroke-width="1" opacity="1" d="M 42.5 211 Q 48.2 209.2 46 215.5 L 47.5 217 L 102 217.5 Q 81.9 227.4 57.5 233 L 34.5 237 L 26.5 237 L 25.5 238 L 0 238 L 0 215 L 13.5 215 L 14.5 214 L 27.5 214 L 42.5 211 Z " /><path fill="rgb(69,135,244)" stroke="rgb(69,135,244)" stroke-width="1" opacity="1" d="M 180.5 121 L 190.5 121 L 191 123 L 183.5 123 L 182.5 124 L 180.5 121 Z " /><path fill="rgb(69,135,244)" stroke="rgb(69,135,244)" stroke-width="1" opacity="1" d="M 184.5 125 L 191 125 L 191 129 Q 188.3 130.1 189 127.5 L 189.5 126 Q 183.5 127.3 184.5 125 Z " /><path fill="rgb(69,135,244)" stroke="rgb(69,135,244)" stroke-width="1" opacity="1" d="M 188.5 130 L 191 130.5 L 188.5 131 L 188.5 130 Z " /><path fill="rgb(69,135,244)" stroke="rgb(69,135,244)" stroke-width="1" opacity="1" d="M 48.5 131 L 143 131.5 L 48.5 132 L 48.5 131 Z " /><path fill="rgb(69,135,244)" stroke="rgb(69,135,244)" stroke-width="1" opacity="1" d="M 144.5 132 L 145 143.5 L 143.5 145 L 48.5 145 L 48.5 144 L 143.5 144 L 144 143.5 L 144.5 132 Z " /><path fill="rgb(69,135,244)" stroke="rgb(69,135,244)" stroke-width="1" opacity="1" d="M 190.5 147 L 191 246.5 Q 189.3 255.8 182.5 260 L 177.5 262 L 13.5 262 L 6 257.5 Q 6.8 255.3 4.5 256 L 1 250.5 L 0 238 L 25.5 238 L 26.5 237 L 47.5 235 Q 78.4 229.4 102.5 217 L 118.5 217 L 120 215.5 L 120 204.5 L 119.5 204 L 48.5 204 L 48.5 203 L 105.5 203 L 106.5 202 L 118.5 202 Q 121.8 203.2 121 207 Q 133.2 202.1 143 193.5 L 142.5 192 L 144 191.5 L 144 180 L 48 179.5 L 143.5 179 L 145 180.5 L 145.5 192 L 175 165.5 L 190.5 147 Z " /><path fill="rgb(69,135,244)" stroke="rgb(69,135,244)" stroke-width="1" opacity="1" d="M 48.5 155 L 143 155.5 L 48.5 156 L 48.5 155 Z " /><path fill="rgb(69,135,244)" stroke="rgb(69,135,244)" stroke-width="1" opacity="1" d="M 46.5 156 L 47 168 L 143.5 168 L 144 167.5 L 144 156.5 L 145 156.5 L 145 167.5 L 143.5 169 L 47.5 169 L 46 167.5 L 46.5 156 Z " /><path fill="rgb(69,135,244)" stroke="rgb(69,135,244)" stroke-width="1" opacity="1" d="M 46.5 180 L 47 192 L 124 192.5 L 47.5 193 L 46 191.5 L 46.5 180 Z " /><path fill="rgb(69,135,244)" stroke="rgb(69,135,244)" stroke-width="1" opacity="1" d="M 46.5 204 L 47 216 L 71 216.5 L 47.5 217 L 46 215.5 L 46.5 204 Z " /><path fill="rgb(75,139,245)" stroke="rgb(75,139,245)" stroke-width="1" opacity="1" d="M 138.5 81 L 139.5 83 L 138.5 81 Z " /><path fill="rgb(75,139,245)" stroke="rgb(75,139,245)" stroke-width="1" opacity="1" d="M 144.5 87 L 164.5 108 L 153.5 97 L 152 97 Q 142.1 115.7 126.5 130 L 124.5 131 L 107.5 131 L 107.5 130 L 125 114.5 Q 136.4 102.4 144.5 87 Z " /><path fill="rgb(75,139,245)" stroke="rgb(75,139,245)" stroke-width="1" opacity="1" d="M 87.5 130 L 106 130.5 L 87.5 131 L 87.5 130 Z " /><path fill="rgb(75,139,245)" stroke="rgb(75,139,245)" stroke-width="1" opacity="1" d="M 86.5 145 L 108 145.5 L 93.5 155 L 48.5 155 L 48.5 154 L 69.5 154 L 86.5 145 Z " /><path fill="rgb(75,139,245)" stroke="rgb(75,139,245)" stroke-width="1" opacity="1" d="M 44.5 162 Q 47.3 161.4 46 167.5 L 47.5 169 L 62 169.5 L 34.5 177 L 18.5 178 L 17.5 179 L 0 179 L 0 167 L 19.5 167 L 20.5 166 L 34.5 165 L 44.5 162 Z " /><path fill="rgb(167,197,249)" stroke="rgb(167,197,249)" stroke-width="1" opacity="1" d="M 119.5 0 L 190 71.5 L 134.5 72 Q 126.2 69.9 122 63.5 L 120 59.5 L 120 1.5 L 119.5 0 Z " /><path fill="rgb(167,197,249)" stroke="rgb(167,197,249)" stroke-width="1" opacity="1" d="M 119.5 204 L 120 208.5 L 119 208.5 L 119.5 204 Z " /><path fill="rgb(241,241,241)" stroke="rgb(241,241,241)" stroke-width="1" opacity="1" d="M 178.5 59 L 190.5 72 L 178.5 59 Z " /><path fill="rgb(241,241,241)" stroke="rgb(241,241,241)" stroke-width="1" opacity="1" d="M 49.5 132 L 141.5 132 L 143 133.5 L 143 143.5 L 142.5 144 L 48 144 L 48 133.5 L 49.5 132 Z " /><path fill="rgb(241,241,241)" stroke="rgb(241,241,241)" stroke-width="1" opacity="1" d="M 49.5 156 L 141.5 156 L 143 157.5 L 143 167.5 L 142.5 168 L 48 168 L 48 157.5 L 49.5 156 Z " /><path fill="rgb(241,241,241)" stroke="rgb(241,241,241)" stroke-width="1" opacity="1" d="M 49.5 180 L 141.5 180 L 143 181.5 L 143 191.5 L 142.5 192 L 48 192 L 48 181.5 L 49.5 180 Z " /><path fill="rgb(241,241,241)" stroke="rgb(241,241,241)" stroke-width="1" opacity="1" d="M 49.5 204 L 117.5 204 L 119 205.5 L 119 215.5 L 118.5 216 L 48 216 L 48 205.5 L 49.5 204 Z " /><path fill="rgb(64,124,229)" stroke="rgb(64,124,229)" stroke-width="1" opacity="1" d="M 122.5 65 L 132.5 72 L 191 72 L 191 120.5 L 190.5 121 L 179.5 121 L 126.5 70 L 122.5 65 Z " /><path fill="rgb(64,124,229)" stroke="rgb(64,124,229)" stroke-width="1" opacity="1" d="M 124.5 192 L 142 192.5 L 124.5 193 L 124.5 192 Z " /><path fill="rgb(64,124,229)" stroke="rgb(64,124,229)" stroke-width="1" opacity="1" d="M 71.5 216 L 119 216.5 L 71.5 217 L 71.5 216 Z " /><path fill="rgb(64,124,229)" stroke="rgb(64,124,229)" stroke-width="1" opacity="1" d="M 3.5 255 Q 6.7 260.3 13.5 262 L 177.5 262 Q 184.3 260.3 187.5 255 L 182.5 261 L 178.5 263 L 12.5 263 Q 5.7 260.5 3.5 255 Z " /><path fill="rgb(73,137,244)" stroke="rgb(73,137,244)" stroke-width="1" opacity="1" d="M 170.5 114 L 179 121.5 Q 165 144 145.5 161 Q 146 155.5 142.5 154 L 136 153.5 Q 155.7 136.2 170.5 114 Z " /><path fill="rgb(73,137,244)" stroke="rgb(73,137,244)" stroke-width="1" opacity="1" d="M 186.5 128 L 187.5 130 L 186.5 128 Z " /><path fill="rgb(73,137,244)" stroke="rgb(73,137,244)" stroke-width="1" opacity="1" d="M 115.5 169 L 135 169.5 L 123.5 178 L 102.5 178 L 102.5 177 L 115.5 169 Z " /><path fill="rgb(73,137,244)" stroke="rgb(73,137,244)" stroke-width="1" opacity="1" d="M 65.5 193 L 97 193.5 L 78.5 202 L 48.5 202 L 46 204.5 L 46 211 L 42.5 211 L 27.5 214 L 0 215 L 0 203 L 14.5 203 L 15.5 202 L 27.5 202 L 28.5 201 L 40.5 200 L 58.5 196 L 65.5 193 Z " /></svg>