<?xml version="1.0" encoding="UTF-8"?>
<svg version="1.1" xmlns="http://www.w3.org/2000/svg" width="222" height="227">
<path d="M0 0 C73.26 0 146.52 0 222 0 C222 74.91 222 149.82 222 227 C148.74 227 75.48 227 0 227 C0 152.09 0 77.18 0 0 Z " fill="#F9BB06" transform="translate(0,0)"/>
<path d="M0 0 C31.68 0 63.36 0 96 0 C96 33.99 96 67.98 96 103 C95.67 103 95.34 103 95 103 C94.67 99.7 94.34 96.4 94 93 C58.69 93 23.38 93 -13 93 C-13 107.19 -13 121.38 -13 136 C7.13 136 27.26 136 48 136 C46.21503999 148.49472009 39.99152276 160.02386131 30 168 C13.3357335 179.74300652 -4.4366593 183.58604279 -24.68115234 180.60522461 C-41.29666001 177.47564451 -56.60355412 167.97890034 -66.6875 154.3125 C-77.75335287 137.56002829 -82.2493087 119.94680511 -79.3125 100.1875 C-75.27950583 81.64692958 -64.19798575 65.47930174 -48.4375 55.0625 C-32.50661728 45.67792828 -13.96407706 41.52597401 4.41015625 46.046875 C14.23239477 49.66169581 22.61182264 54.70886698 31 61 C41.23 50.77 51.46 40.54 62 30 C52.53108122 20.53108122 42.02456536 14.56648851 30 9 C28.39705078 8.2265625 28.39705078 8.2265625 26.76171875 7.4375 C21.74530192 5.31669803 16.37543058 4.40410771 11.0625 3.3125 C9.99708984 3.08755859 8.93167969 2.86261719 7.83398438 2.63085938 C5.22394069 2.08076048 2.61269565 1.53733579 0 1 C0 0.67 0 0.34 0 0 Z " fill="#FDFDFE" transform="translate(126,0)"/>
<path d="M0 0 C35.31 0 70.62 0 107 0 C109.25395733 11.26978665 109.25395733 11.26978665 109.265625 16.171875 C109.27005615 17.24091064 109.2744873 18.30994629 109.27905273 19.41137695 C109.26467163 21.06399536 109.26467163 21.06399536 109.25 22.75 C109.23658569 24.48286255 109.23658569 24.48286255 109.22290039 26.25073242 C108.86849697 52.3058112 100.62774839 76.72432722 84 97 C83.32453125 97.85207031 82.6490625 98.70414062 81.953125 99.58203125 C64.98947424 119.82999786 38.85008666 130.60819444 13 133 C-18.23638034 134.74168457 -48.57410717 128.16465383 -72.55395508 107.07861328 C-74.04723497 105.73145832 -75.52404149 104.36611045 -77 103 C-77.79792969 102.28328125 -78.59585938 101.5665625 -79.41796875 100.828125 C-87.3868996 93.32463613 -95.89508341 83.26229147 -100 73 C-99.49529476 68.90611381 -97.42051681 67.39171726 -94.23828125 64.88891602 C-93.58214844 64.38932373 -92.92601562 63.88973145 -92.25 63.375 C-91.57839844 62.85156006 -90.90679687 62.32812012 -90.21484375 61.78881836 C-88.1502331 60.18325309 -86.07553292 58.59140742 -84 57 C-82.78572238 56.05693643 -81.57214031 55.11297634 -80.359375 54.16796875 C-74.98822174 49.99441158 -69.57907097 45.89237509 -64 42 C-60.71782208 43.64108896 -59.87251528 47.23008667 -58.375 50.4375 C-49.8959362 67.8827968 -37.0065842 78.30378348 -19.015625 85.1328125 C-3.02592205 89.7308877 17.24530833 88.70539786 32.00390625 80.9765625 C48.45254526 71.82203447 55.35384336 61.35000907 61 43 C40.87 43 20.74 43 0 43 C0 28.81 0 14.62 0 0 Z " fill="#34A853" transform="translate(113,93)"/>
<path d="M0 0 C0.845625 0.78375 1.69125 1.5675 2.5625 2.375 C-1.33726721 7.04374537 -5.38964644 11.46627809 -9.7109375 15.74609375 C-10.56384872 16.59688255 -10.56384872 16.59688255 -11.43399048 17.46485901 C-13.22446236 19.24979913 -15.01840484 21.03120256 -16.8125 22.8125 C-18.03799323 24.03296939 -19.26325572 25.25367053 -20.48828125 26.47460938 C-23.46869774 29.44408756 -26.45222894 32.41040257 -29.4375 35.375 C-29.94249023 34.97958008 -30.44748047 34.58416016 -30.96777344 34.17675781 C-35.05420561 31.03467728 -39.01370134 28.35178365 -43.6875 26.125 C-44.68265625 25.64546875 -45.6778125 25.1659375 -46.703125 24.671875 C-47.60546875 24.24390625 -48.5078125 23.8159375 -49.4375 23.375 C-50.13230469 23.01148438 -50.82710938 22.64796875 -51.54296875 22.2734375 C-62.58056643 17.03911283 -79.96307326 17.7582501 -91.41796875 21.21875 C-113.32477073 29.6073831 -126.54840638 43.24420117 -136.4375 64.375 C-142.02837843 61.51743991 -146.58585409 57.89992758 -151.3984375 53.8828125 C-158.83567087 47.74566106 -166.5298016 41.89199889 -174.4375 36.375 C-165.79637948 16.63686154 -151.23901756 1.99867974 -133.4375 -9.625 C-132.46167969 -10.27339844 -131.48585937 -10.92179688 -130.48046875 -11.58984375 C-90.0125834 -36.88919205 -35.64968505 -30.23093292 0 0 Z " fill="#EA4235" transform="translate(186.4375,26.625)"/>
<path d="M0 0 C35.31 0 70.62 0 107 0 C109.25395733 11.26978665 109.25395733 11.26978665 109.265625 16.171875 C109.27005615 17.24091064 109.2744873 18.30994629 109.27905273 19.41137695 C109.26946533 20.51312256 109.25987793 21.61486816 109.25 22.75 C109.23658569 24.48286255 109.23658569 24.48286255 109.22290039 26.25073242 C108.80114797 57.2571839 96.99934381 83.3413075 76 106 C70.74187611 103.37093805 66.51994488 100.02939996 62.05786133 96.21313477 C56.99285706 91.91448902 51.69506712 87.95733418 46.34399414 84.0234375 C45.69293701 83.54261719 45.04187988 83.06179687 44.37109375 82.56640625 C43.79286865 82.14302979 43.21464355 81.71965332 42.61889648 81.28344727 C40.94914659 79.95968385 39.47653811 78.53413456 38 77 C38.49628906 76.6596875 38.99257812 76.319375 39.50390625 75.96875 C51.97238657 67.07283235 56.4431938 57.80962014 61 43 C40.87 43 20.74 43 0 43 C0 28.81 0 14.62 0 0 Z " fill="#4385F4" transform="translate(113,93)"/>
<path d="M0 0 C0.33 0 0.66 0 1 0 C1.09796875 0.69222656 1.1959375 1.38445312 1.296875 2.09765625 C6.00665363 32.91422504 19.98987052 60.96730462 45.125 80.0625 C72.10969903 98.89080695 102.85015297 106.18919659 135.5 100.8125 C154.01177048 97.43367646 170.41572406 89.89660223 185 78 C185.77859375 77.39800781 186.5571875 76.79601562 187.359375 76.17578125 C207.05422732 60.07768387 217.89538441 33.08371215 220.7734375 8.39453125 C220.84820312 7.60433594 220.92296875 6.81414062 221 6 C221.33 6 221.66 6 222 6 C222 38.34 222 70.68 222 104 C148.74 104 75.48 104 0 104 C0 69.68 0 35.36 0 0 Z " fill="#FDFDFD" transform="translate(0,123)"/>
<path d="M0 0 C34.65 0 69.3 0 105 0 C105 0.33 105 0.66 105 1 C104.030625 1.08636719 103.06125 1.17273438 102.0625 1.26171875 C91.85570969 2.28728141 82.66007372 4.5948764 73 8 C72.12085937 8.28488281 71.24171875 8.56976563 70.3359375 8.86328125 C57.64958685 13.33956885 45.92152049 22.1278711 36 31 C35.2575 31.63679688 34.515 32.27359375 33.75 32.9296875 C14.64373556 50.46650879 5.03908509 76.01021338 1 101 C0.67 101 0.34 101 0 101 C0 67.67 0 34.34 0 0 Z " fill="#FEFDFD" transform="translate(0,0)"/>
</svg>
