<svg width="512" height="512" version="1.1" xmlns="http://www.w3.org/2000/svg" desc="Created with imagetracer.js version 1.2.6" ><path fill="rgb(255,208,197)" stroke="rgb(255,208,197)" stroke-width="1" opacity="1" d="M 107.5 66 L 110 66.5 L 107.5 67 L 107.5 66 Z " /><path fill="rgb(255,208,197)" stroke="rgb(255,208,197)" stroke-width="1" opacity="1" d="M 118.5 66 L 121 66.5 L 118.5 67 L 118.5 66 Z " /><path fill="rgb(255,208,197)" stroke="rgb(255,208,197)" stroke-width="1" opacity="1" d="M 134.5 71 L 135.5 73 L 134.5 71 Z " /><path fill="rgb(255,208,197)" stroke="rgb(255,208,197)" stroke-width="1" opacity="1" d="M 92.5 72 L 91.5 74 L 92.5 72 Z " /><path fill="rgb(255,208,197)" stroke="rgb(255,208,197)" stroke-width="1" opacity="1" d="M 137.5 73 L 139.5 76 L 137.5 73 Z " /><path fill="rgb(255,208,197)" stroke="rgb(255,208,197)" stroke-width="1" opacity="1" d="M 88.5 75 L 84.5 80 L 88.5 75 Z " /><path fill="rgb(255,208,197)" stroke="rgb(255,208,197)" stroke-width="1" opacity="1" d="M 335.5 78 L 341 78.5 L 335.5 79 L 335.5 78 Z " /><path fill="rgb(255,208,197)" stroke="rgb(255,208,197)" stroke-width="1" opacity="1" d="M 143.5 79 L 145.5 82 L 143.5 79 Z " /><path fill="rgb(255,208,197)" stroke="rgb(255,208,197)" stroke-width="1" opacity="1" d="M 82.5 82 L 81.5 84 L 82.5 82 Z " /><path fill="rgb(255,208,197)" stroke="rgb(255,208,197)" stroke-width="1" opacity="1" d="M 321.5 82 L 320.5 84 L 321.5 82 Z " /><path fill="rgb(255,208,197)" stroke="rgb(255,208,197)" stroke-width="1" opacity="1" d="M 146.5 83 L 147.5 85 L 146.5 83 Z " /><path fill="rgb(255,208,197)" stroke="rgb(255,208,197)" stroke-width="1" opacity="1" d="M 359.5 85 L 361.5 88 L 359.5 85 Z " /><path fill="rgb(255,208,197)" stroke="rgb(255,208,197)" stroke-width="1" opacity="1" d="M 315.5 86 L 311.5 91 L 315.5 86 Z " /><path fill="rgb(255,208,197)" stroke="rgb(255,208,197)" stroke-width="1" opacity="1" d="M 364.5 90 L 366.5 93 L 364.5 90 Z " /><path fill="rgb(255,208,197)" stroke="rgb(255,208,197)" stroke-width="1" opacity="1" d="M 367.5 94 L 368.5 96 L 367.5 94 Z " /><path fill="rgb(255,208,197)" stroke="rgb(255,208,197)" stroke-width="1" opacity="1" d="M 75.5 98 L 76 101.5 L 75 101.5 L 75.5 98 Z " /><path fill="rgb(255,208,197)" stroke="rgb(255,208,197)" stroke-width="1" opacity="1" d="M 153.5 103 L 154 106.5 L 153 106.5 L 153.5 103 Z " /><path fill="rgb(255,208,197)" stroke="rgb(255,208,197)" stroke-width="1" opacity="1" d="M 303.5 106 L 304 108.5 L 303 108.5 L 303.5 106 Z " /><path fill="rgb(255,208,197)" stroke="rgb(255,208,197)" stroke-width="1" opacity="1" d="M 75.5 109 L 76 112.5 L 75 112.5 L 75.5 109 Z " /><path fill="rgb(255,208,197)" stroke="rgb(255,208,197)" stroke-width="1" opacity="1" d="M 373.5 110 L 374 116.5 L 373 116.5 L 373.5 110 Z " /><path fill="rgb(255,208,197)" stroke="rgb(255,208,197)" stroke-width="1" opacity="1" d="M 152.5 111 L 153 113.5 L 152 113.5 L 152.5 111 Z " /><path fill="rgb(255,208,197)" stroke="rgb(255,208,197)" stroke-width="1" opacity="1" d="M 152.5 115 L 153.5 117 L 152.5 115 Z " /><path fill="rgb(255,208,197)" stroke="rgb(255,208,197)" stroke-width="1" opacity="1" d="M 156.5 118 L 157.5 120 L 156.5 118 Z " /><path fill="rgb(255,208,197)" stroke="rgb(255,208,197)" stroke-width="1" opacity="1" d="M 303.5 119 L 304 121.5 L 303 121.5 L 303.5 119 Z " /><path fill="rgb(255,208,197)" stroke="rgb(255,208,197)" stroke-width="1" opacity="1" d="M 160.5 121 L 162.5 124 L 160.5 121 Z " /><path fill="rgb(255,208,197)" stroke="rgb(255,208,197)" stroke-width="1" opacity="1" d="M 80.5 125 L 81.5 127 L 80.5 125 Z " /><path fill="rgb(255,208,197)" stroke="rgb(255,208,197)" stroke-width="1" opacity="1" d="M 165.5 125 L 166.5 127 L 165.5 125 Z " /><path fill="rgb(255,208,197)" stroke="rgb(255,208,197)" stroke-width="1" opacity="1" d="M 82.5 128 L 84.5 131 L 82.5 128 Z " /><path fill="rgb(255,208,197)" stroke="rgb(255,208,197)" stroke-width="1" opacity="1" d="M 170.5 129 L 171.5 131 L 170.5 129 Z " /><path fill="rgb(255,208,197)" stroke="rgb(255,208,197)" stroke-width="1" opacity="1" d="M 174.5 132 L 175.5 134 L 174.5 132 Z " /><path fill="rgb(255,208,197)" stroke="rgb(255,208,197)" stroke-width="1" opacity="1" d="M 368.5 132 L 367.5 134 L 368.5 132 Z " /><path fill="rgb(255,208,197)" stroke="rgb(255,208,197)" stroke-width="1" opacity="1" d="M 89.5 135 L 90.5 137 L 89.5 135 Z " /><path fill="rgb(255,208,197)" stroke="rgb(255,208,197)" stroke-width="1" opacity="1" d="M 179.5 136 L 180.5 138 L 179.5 136 Z " /><path fill="rgb(255,208,197)" stroke="rgb(255,208,197)" stroke-width="1" opacity="1" d="M 365.5 136 L 360.5 142 L 365.5 136 Z " /><path fill="rgb(255,208,197)" stroke="rgb(255,208,197)" stroke-width="1" opacity="1" d="M 312.5 138 L 313.5 140 L 312.5 138 Z " /><path fill="rgb(255,208,197)" stroke="rgb(255,208,197)" stroke-width="1" opacity="1" d="M 183.5 139 L 184.5 141 L 183.5 139 Z " /><path fill="rgb(255,208,197)" stroke="rgb(255,208,197)" stroke-width="1" opacity="1" d="M 136.5 141 L 137.5 143 L 136.5 141 Z " /><path fill="rgb(255,208,197)" stroke="rgb(255,208,197)" stroke-width="1" opacity="1" d="M 317.5 142 L 318.5 144 L 317.5 142 Z " /><path fill="rgb(255,208,197)" stroke="rgb(255,208,197)" stroke-width="1" opacity="1" d="M 188.5 143 L 189.5 145 L 188.5 143 Z " /><path fill="rgb(255,208,197)" stroke="rgb(255,208,197)" stroke-width="1" opacity="1" d="M 111.5 144 L 118 144.5 L 111.5 145 L 111.5 144 Z " /><path fill="rgb(255,208,197)" stroke="rgb(255,208,197)" stroke-width="1" opacity="1" d="M 140.5 144 L 141.5 146 L 140.5 144 Z " /><path fill="rgb(255,208,197)" stroke="rgb(255,208,197)" stroke-width="1" opacity="1" d="M 353.5 145 L 354 191 L 357 191.5 L 354.5 192 L 353 190.5 L 353.5 145 Z " /><path fill="rgb(255,208,197)" stroke="rgb(255,208,197)" stroke-width="1" opacity="1" d="M 192.5 146 L 193.5 148 L 192.5 146 Z " /><path fill="rgb(255,208,197)" stroke="rgb(255,208,197)" stroke-width="1" opacity="1" d="M 145.5 148 L 146.5 150 L 145.5 148 Z " /><path fill="rgb(255,208,197)" stroke="rgb(255,208,197)" stroke-width="1" opacity="1" d="M 197.5 150 L 198.5 152 L 197.5 150 Z " /><path fill="rgb(255,208,197)" stroke="rgb(255,208,197)" stroke-width="1" opacity="1" d="M 149.5 151 L 150.5 153 L 149.5 151 Z " /><path fill="rgb(255,208,197)" stroke="rgb(255,208,197)" stroke-width="1" opacity="1" d="M 201.5 153 L 202.5 155 L 201.5 153 Z " /><path fill="rgb(255,208,197)" stroke="rgb(255,208,197)" stroke-width="1" opacity="1" d="M 154.5 155 L 155.5 157 L 154.5 155 Z " /><path fill="rgb(255,208,197)" stroke="rgb(255,208,197)" stroke-width="1" opacity="1" d="M 206.5 157 L 207.5 159 L 206.5 157 Z " /><path fill="rgb(255,208,197)" stroke="rgb(255,208,197)" stroke-width="1" opacity="1" d="M 158.5 158 L 159.5 160 L 158.5 158 Z " /><path fill="rgb(255,208,197)" stroke="rgb(255,208,197)" stroke-width="1" opacity="1" d="M 210.5 160 L 211.5 162 L 210.5 160 Z " /><path fill="rgb(255,208,197)" stroke="rgb(255,208,197)" stroke-width="1" opacity="1" d="M 163.5 162 L 164.5 164 L 163.5 162 Z " /><path fill="rgb(255,208,197)" stroke="rgb(255,208,197)" stroke-width="1" opacity="1" d="M 215.5 164 L 216.5 166 L 215.5 164 Z " /><path fill="rgb(255,208,197)" stroke="rgb(255,208,197)" stroke-width="1" opacity="1" d="M 167.5 165 L 168.5 167 L 167.5 165 Z " /><path fill="rgb(255,208,197)" stroke="rgb(255,208,197)" stroke-width="1" opacity="1" d="M 219.5 167 L 220.5 169 L 219.5 167 Z " /><path fill="rgb(255,208,197)" stroke="rgb(255,208,197)" stroke-width="1" opacity="1" d="M 172.5 169 L 173.5 171 L 172.5 169 Z " /><path fill="rgb(255,208,197)" stroke="rgb(255,208,197)" stroke-width="1" opacity="1" d="M 224.5 171 L 225.5 173 L 224.5 171 Z " /><path fill="rgb(255,208,197)" stroke="rgb(255,208,197)" stroke-width="1" opacity="1" d="M 176.5 172 L 177.5 174 L 176.5 172 Z " /><path fill="rgb(255,208,197)" stroke="rgb(255,208,197)" stroke-width="1" opacity="1" d="M 228.5 174 L 230.5 177 L 228.5 174 Z " /><path fill="rgb(255,208,197)" stroke="rgb(255,208,197)" stroke-width="1" opacity="1" d="M 181.5 176 L 182.5 178 L 181.5 176 Z " /><path fill="rgb(255,208,197)" stroke="rgb(255,208,197)" stroke-width="1" opacity="1" d="M 233.5 178 L 234.5 180 L 233.5 178 Z " /><path fill="rgb(255,208,197)" stroke="rgb(255,208,197)" stroke-width="1" opacity="1" d="M 185.5 179 L 186.5 181 L 185.5 179 Z " /><path fill="rgb(255,208,197)" stroke="rgb(255,208,197)" stroke-width="1" opacity="1" d="M 237.5 181 L 239.5 184 L 237.5 181 Z " /><path fill="rgb(255,208,197)" stroke="rgb(255,208,197)" stroke-width="1" opacity="1" d="M 190.5 183 L 191.5 185 L 190.5 183 Z " /><path fill="rgb(255,208,197)" stroke="rgb(255,208,197)" stroke-width="1" opacity="1" d="M 242.5 185 L 243.5 187 L 242.5 185 Z " /><path fill="rgb(255,208,197)" stroke="rgb(255,208,197)" stroke-width="1" opacity="1" d="M 194.5 186 L 196.5 189 L 194.5 186 Z " /><path fill="rgb(255,208,197)" stroke="rgb(255,208,197)" stroke-width="1" opacity="1" d="M 246.5 188 L 248.5 191 L 246.5 188 Z " /><path fill="rgb(255,208,197)" stroke="rgb(255,208,197)" stroke-width="1" opacity="1" d="M 199.5 190 L 200.5 192 L 199.5 190 Z " /><path fill="rgb(255,208,197)" stroke="rgb(255,208,197)" stroke-width="1" opacity="1" d="M 319.5 191 L 322 191.5 L 319.5 192 L 319.5 191 Z " /><path fill="rgb(255,208,197)" stroke="rgb(255,208,197)" stroke-width="1" opacity="1" d="M 251.5 192 L 252.5 194 L 251.5 192 Z " /><path fill="rgb(255,208,197)" stroke="rgb(255,208,197)" stroke-width="1" opacity="1" d="M 203.5 193 L 205.5 196 L 203.5 193 Z " /><path fill="rgb(255,208,197)" stroke="rgb(255,208,197)" stroke-width="1" opacity="1" d="M 255.5 195 L 257.5 198 L 255.5 195 Z " /><path fill="rgb(255,208,197)" stroke="rgb(255,208,197)" stroke-width="1" opacity="1" d="M 208.5 197 L 209.5 199 L 208.5 197 Z " /><path fill="rgb(255,208,197)" stroke="rgb(255,208,197)" stroke-width="1" opacity="1" d="M 260.5 199 L 261.5 201 L 260.5 199 Z " /><path fill="rgb(255,208,197)" stroke="rgb(255,208,197)" stroke-width="1" opacity="1" d="M 212.5 200 L 214.5 203 L 212.5 200 Z " /><path fill="rgb(255,208,197)" stroke="rgb(255,208,197)" stroke-width="1" opacity="1" d="M 264.5 202 L 266.5 205 L 264.5 202 Z " /><path fill="rgb(255,208,197)" stroke="rgb(255,208,197)" stroke-width="1" opacity="1" d="M 289.5 202 L 288.5 204 L 289.5 202 Z " /><path fill="rgb(255,208,197)" stroke="rgb(255,208,197)" stroke-width="1" opacity="1" d="M 217.5 204 L 218.5 206 L 217.5 204 Z " /><path fill="rgb(255,208,197)" stroke="rgb(255,208,197)" stroke-width="1" opacity="1" d="M 284.5 205 L 283.5 207 L 284.5 205 Z " /><path fill="rgb(255,208,197)" stroke="rgb(255,208,197)" stroke-width="1" opacity="1" d="M 269.5 206 L 270.5 208 L 269.5 206 Z " /><path fill="rgb(255,208,197)" stroke="rgb(255,208,197)" stroke-width="1" opacity="1" d="M 221.5 207 L 223.5 210 L 221.5 207 Z " /><path fill="rgb(255,208,197)" stroke="rgb(255,208,197)" stroke-width="1" opacity="1" d="M 273.5 209 L 276.5 211 L 278 210.5 L 275.5 212 L 273.5 209 Z " /><path fill="rgb(255,208,197)" stroke="rgb(255,208,197)" stroke-width="1" opacity="1" d="M 397.5 209 L 398.5 211 L 397.5 209 Z " /><path fill="rgb(255,208,197)" stroke="rgb(255,208,197)" stroke-width="1" opacity="1" d="M 226.5 211 L 227.5 213 L 226.5 211 Z " /><path fill="rgb(255,208,197)" stroke="rgb(255,208,197)" stroke-width="1" opacity="1" d="M 402.5 213 L 413.5 225 L 402.5 213 Z " /><path fill="rgb(255,208,197)" stroke="rgb(255,208,197)" stroke-width="1" opacity="1" d="M 230.5 214 L 232.5 217 L 230.5 214 Z " /><path fill="rgb(255,208,197)" stroke="rgb(255,208,197)" stroke-width="1" opacity="1" d="M 235.5 218 L 236.5 220 L 235.5 218 Z " /><path fill="rgb(255,208,197)" stroke="rgb(255,208,197)" stroke-width="1" opacity="1" d="M 239.5 221 L 241.5 224 L 239.5 221 Z " /><path fill="rgb(255,208,197)" stroke="rgb(255,208,197)" stroke-width="1" opacity="1" d="M 244.5 225 L 245.5 227 L 244.5 225 Z " /><path fill="rgb(255,208,197)" stroke="rgb(255,208,197)" stroke-width="1" opacity="1" d="M 248.5 228 L 250.5 231 L 248.5 228 Z " /><path fill="rgb(255,208,197)" stroke="rgb(255,208,197)" stroke-width="1" opacity="1" d="M 416.5 228 L 417.5 230 L 416.5 228 Z " /><path fill="rgb(255,208,197)" stroke="rgb(255,208,197)" stroke-width="1" opacity="1" d="M 253.5 232 L 255.5 235 L 253.5 232 Z " /><path fill="rgb(255,208,197)" stroke="rgb(255,208,197)" stroke-width="1" opacity="1" d="M 330.5 238 L 335 238.5 L 330.5 239 L 330.5 238 Z " /><path fill="rgb(255,208,197)" stroke="rgb(255,208,197)" stroke-width="1" opacity="1" d="M 340.5 238 L 345 238.5 L 340.5 239 L 340.5 238 Z " /><path fill="rgb(255,208,197)" stroke="rgb(255,208,197)" stroke-width="1" opacity="1" d="M 312.5 244 L 311.5 246 L 312.5 244 Z " /><path fill="rgb(255,208,197)" stroke="rgb(255,208,197)" stroke-width="1" opacity="1" d="M 306.5 248 L 304.5 251 L 306.5 248 Z " /><path fill="rgb(255,208,197)" stroke="rgb(255,208,197)" stroke-width="1" opacity="1" d="M 369.5 249 L 376.5 257 L 369.5 249 Z " /><path fill="rgb(255,208,197)" stroke="rgb(255,208,197)" stroke-width="1" opacity="1" d="M 298.5 256 L 297.5 258 L 298.5 256 Z " /><path fill="rgb(255,208,197)" stroke="rgb(255,208,197)" stroke-width="1" opacity="1" d="M 378.5 259 L 379.5 261 L 378.5 259 Z " /><path fill="rgb(255,208,197)" stroke="rgb(255,208,197)" stroke-width="1" opacity="1" d="M 295.5 260 L 294.5 262 L 295.5 260 Z " /><path fill="rgb(255,208,197)" stroke="rgb(255,208,197)" stroke-width="1" opacity="1" d="M 380.5 262 L 381.5 264 L 380.5 262 Z " /><path fill="rgb(255,208,197)" stroke="rgb(255,208,197)" stroke-width="1" opacity="1" d="M 435.5 269 L 436 271.5 L 435 271.5 L 435.5 269 Z " /><path fill="rgb(255,208,197)" stroke="rgb(255,208,197)" stroke-width="1" opacity="1" d="M 240.5 271 L 241 274.5 L 240 274.5 L 240.5 271 Z " /><path fill="rgb(255,208,197)" stroke="rgb(255,208,197)" stroke-width="1" opacity="1" d="M 436.5 275 L 437 278.5 L 436 278.5 L 436.5 275 Z " /><path fill="rgb(255,208,197)" stroke="rgb(255,208,197)" stroke-width="1" opacity="1" d="M 239.5 278 L 240 284.5 L 239 284.5 L 239.5 278 Z " /><path fill="rgb(255,208,197)" stroke="rgb(255,208,197)" stroke-width="1" opacity="1" d="M 387.5 280 L 388 282.5 L 387 282.5 L 387.5 280 Z " /><path fill="rgb(255,208,197)" stroke="rgb(255,208,197)" stroke-width="1" opacity="1" d="M 286.5 285 L 287 292.5 L 286 292.5 L 286.5 285 Z " /><path fill="rgb(255,208,197)" stroke="rgb(255,208,197)" stroke-width="1" opacity="1" d="M 239.5 294 L 240 299.5 L 239 299.5 L 239.5 294 Z " /><path fill="rgb(255,208,197)" stroke="rgb(255,208,197)" stroke-width="1" opacity="1" d="M 387.5 296 L 388 298.5 L 387 298.5 L 387.5 296 Z " /><path fill="rgb(255,208,197)" stroke="rgb(255,208,197)" stroke-width="1" opacity="1" d="M 287.5 297 L 288 299.5 L 287 299.5 L 287.5 297 Z " /><path fill="rgb(255,208,197)" stroke="rgb(255,208,197)" stroke-width="1" opacity="1" d="M 436.5 298 L 437 301.5 L 436 301.5 L 436.5 298 Z " /><path fill="rgb(255,208,197)" stroke="rgb(255,208,197)" stroke-width="1" opacity="1" d="M 240.5 304 L 241 306.5 L 240 306.5 L 240.5 304 Z " /><path fill="rgb(255,208,197)" stroke="rgb(255,208,197)" stroke-width="1" opacity="1" d="M 241.5 309 L 242 311.5 L 241 311.5 L 241.5 309 Z " /><path fill="rgb(255,208,197)" stroke="rgb(255,208,197)" stroke-width="1" opacity="1" d="M 294.5 316 L 295.5 318 L 294.5 316 Z " /><path fill="rgb(255,208,197)" stroke="rgb(255,208,197)" stroke-width="1" opacity="1" d="M 379.5 317 L 378.5 319 L 379.5 317 Z " /><path fill="rgb(255,208,197)" stroke="rgb(255,208,197)" stroke-width="1" opacity="1" d="M 297.5 320 L 299.5 323 L 297.5 320 Z " /><path fill="rgb(255,208,197)" stroke="rgb(255,208,197)" stroke-width="1" opacity="1" d="M 376.5 321 L 369.5 329 L 376.5 321 Z " /><path fill="rgb(255,208,197)" stroke="rgb(255,208,197)" stroke-width="1" opacity="1" d="M 304.5 327 L 306.5 330 L 304.5 327 Z " /><path fill="rgb(255,208,197)" stroke="rgb(255,208,197)" stroke-width="1" opacity="1" d="M 308.5 330 L 309.5 332 L 308.5 330 Z " /><path fill="rgb(255,208,197)" stroke="rgb(255,208,197)" stroke-width="1" opacity="1" d="M 366.5 330 L 365.5 332 L 366.5 330 Z " /><path fill="rgb(255,208,197)" stroke="rgb(255,208,197)" stroke-width="1" opacity="1" d="M 347.5 338 L 350 338.5 L 347.5 339 L 347.5 338 Z " /><path fill="rgb(255,208,197)" stroke="rgb(255,208,197)" stroke-width="1" opacity="1" d="M 330.5 339 L 345 339.5 L 330.5 340 L 330.5 339 Z " /><path fill="rgb(255,208,197)" stroke="rgb(255,208,197)" stroke-width="1" opacity="1" d="M 253.5 340 L 254.5 342 L 253.5 340 Z " /><path fill="rgb(255,208,197)" stroke="rgb(255,208,197)" stroke-width="1" opacity="1" d="M 420.5 344 L 419.5 346 L 420.5 344 Z " /><path fill="rgb(255,208,197)" stroke="rgb(255,208,197)" stroke-width="1" opacity="1" d="M 256.5 346 L 220.5 383 L 256.5 346 Z " /><path fill="rgb(255,208,197)" stroke="rgb(255,208,197)" stroke-width="1" opacity="1" d="M 417.5 348 L 416.5 350 L 417.5 348 Z " /><path fill="rgb(255,208,197)" stroke="rgb(255,208,197)" stroke-width="1" opacity="1" d="M 413.5 353 L 402.5 365 L 413.5 353 Z " /><path fill="rgb(255,208,197)" stroke="rgb(255,208,197)" stroke-width="1" opacity="1" d="M 398.5 367 L 397.5 369 L 398.5 367 Z " /><path fill="rgb(255,208,197)" stroke="rgb(255,208,197)" stroke-width="1" opacity="1" d="M 277.5 368 L 242 404.5 L 241.5 406 L 241 404.5 L 277.5 368 Z " /><path fill="rgb(255,208,197)" stroke="rgb(255,208,197)" stroke-width="1" opacity="1" d="M 279.5 368 L 280.5 370 L 279.5 368 Z " /><path fill="rgb(255,208,197)" stroke="rgb(255,208,197)" stroke-width="1" opacity="1" d="M 288.5 374 L 289.5 376 L 288.5 374 Z " /><path fill="rgb(255,208,197)" stroke="rgb(255,208,197)" stroke-width="1" opacity="1" d="M 207.5 381 L 213 381.5 L 207.5 382 L 207.5 381 Z " /><path fill="rgb(255,208,197)" stroke="rgb(255,208,197)" stroke-width="1" opacity="1" d="M 216.5 382 L 219 382.5 L 216.5 383 L 216.5 382 Z " /><path fill="rgb(255,208,197)" stroke="rgb(255,208,197)" stroke-width="1" opacity="1" d="M 193.5 386 L 192.5 388 L 193.5 386 Z " /><path fill="rgb(255,208,197)" stroke="rgb(255,208,197)" stroke-width="1" opacity="1" d="M 319.5 386 L 322 386.5 L 319.5 387 L 319.5 386 Z " /><path fill="rgb(255,208,197)" stroke="rgb(255,208,197)" stroke-width="1" opacity="1" d="M 326.5 387 L 330 387.5 L 326.5 388 L 326.5 387 Z " /><path fill="rgb(255,208,197)" stroke="rgb(255,208,197)" stroke-width="1" opacity="1" d="M 347.5 387 L 351 387.5 L 347.5 388 L 347.5 387 Z " /><path fill="rgb(255,208,197)" stroke="rgb(255,208,197)" stroke-width="1" opacity="1" d="M 190.5 388 L 185.5 394 L 190.5 388 Z " /><path fill="rgb(255,208,197)" stroke="rgb(255,208,197)" stroke-width="1" opacity="1" d="M 242.5 408 L 243 410.5 L 242 410.5 L 242.5 408 Z " /><path fill="rgb(255,208,197)" stroke="rgb(255,208,197)" stroke-width="1" opacity="1" d="M 178.5 411 L 179 416.5 L 178 416.5 L 178.5 411 Z " /><path fill="rgb(255,208,197)" stroke="rgb(255,208,197)" stroke-width="1" opacity="1" d="M 242.5 416 L 243 419.5 L 242 419.5 L 242.5 416 Z " /><path fill="rgb(255,208,197)" stroke="rgb(255,208,197)" stroke-width="1" opacity="1" d="M 182.5 429 L 183.5 431 L 182.5 429 Z " /><path fill="rgb(255,208,197)" stroke="rgb(255,208,197)" stroke-width="1" opacity="1" d="M 184.5 432 L 185.5 434 L 184.5 432 Z " /><path fill="rgb(255,208,197)" stroke="rgb(255,208,197)" stroke-width="1" opacity="1" d="M 235.5 434 L 231.5 439 L 235.5 434 Z " /><path fill="rgb(255,208,197)" stroke="rgb(255,208,197)" stroke-width="1" opacity="1" d="M 191.5 439 L 192.5 441 L 191.5 439 Z " /><path fill="rgb(255,208,197)" stroke="rgb(255,208,197)" stroke-width="1" opacity="1" d="M 204.5 445 L 208 445.5 L 204.5 446 L 204.5 445 Z " /><path fill="rgb(255,208,197)" stroke="rgb(255,208,197)" stroke-width="1" opacity="1" d="M 214.5 445 L 217 445.5 L 214.5 446 L 214.5 445 Z " /><path fill="rgb(255,92,53)" stroke="rgb(255,92,53)" stroke-width="1" opacity="1" d="M 0 0 L 512 0 L 512 512 L 0 512 L 0 0 Z M 108 66 Q 96 68 89 75 Q 78 83 75 99 L 75 113 L 82 129 L 94 139 L 102 143 L 112 145 L 127 143 L 132 140 L 135 140 L 143 146 L 255 235 L 245 254 L 239 279 L 239 300 L 240 301 L 241 312 Q 246 330 255 344 L 257 346 L 220 383 L 213 381 Q 198 381 191 388 L 183 397 L 179 406 Q 180 410 178 412 Q 178 425 184 433 Q 191 443 205 446 Q 223 448 232 439 Q 240 432 243 420 L 243 409 L 242 408 L 242 405 L 279 368 L 298 380 L 312 385 L 327 388 L 351 388 L 366 385 Q 387 378 403 365 Q 430 343 437 302 L 437 276 L 434 262 Q 427 240 414 225 Q 394 199 357 191 L 354 191 L 354 145 L 361 142 L 369 133 L 374 117 Q 374 101 367 93 L 357 83 L 341 78 Q 324 78 316 86 Q 306 93 303 107 L 303 122 Q 306 132 312 139 L 322 145 L 323 147 L 323 191 Q 295 195 277 211 L 152 115 L 154 107 L 153 97 L 146 82 Q 136 65 108 66 Z " /><path fill="rgb(255,92,53)" stroke="rgb(255,92,53)" stroke-width="1" opacity="1" d="M 335.5 238 L 347.5 239 L 354.5 241 Q 369.3 246.7 378 258.5 Q 384.3 266.3 387 277.5 L 388 295.5 Q 383.7 318.7 367.5 330 L 351.5 338 L 346.5 339 L 327.5 339 Q 310 335 300 323.5 Q 291.8 314.7 288 301.5 L 287 296.5 L 287 280.5 Q 291.3 261.8 303.5 251 L 317.5 242 L 335.5 238 Z " /><path fill="rgb(255,255,255)" stroke="rgb(255,255,255)" stroke-width="1" opacity="1" d="M 110.5 66 Q 133 66 143 78.5 L 152 94.5 L 153 110.5 L 152 115.5 L 276.5 212 L 296.5 199 Q 306.8 193.3 321.5 192 L 323 190.5 L 323 145.5 L 321.5 145 L 310 135.5 Q 302.1 126.9 303 109.5 Q 305.8 92.8 317.5 85 L 331.5 79 L 344.5 79 Q 357 81.5 364 89.5 L 372 103.5 Q 374.3 110.2 373 120.5 Q 369.6 135.6 358.5 143 L 353 145 L 353 190.5 L 354.5 192 Q 375.3 194.7 389.5 204 Q 405 213.5 416 227.5 Q 428.1 242.4 434 263.5 L 437 279.5 L 437 297.5 L 434 314.5 Q 430 329 423 340.5 Q 413.5 356 399.5 367 Q 384.6 379.1 363.5 385 L 346.5 388 L 330.5 388 L 329.5 387 L 317.5 386 L 303.5 382 L 277.5 368 L 241 405.5 L 243 415.5 L 239 429.5 L 229.5 440 Q 222 446 208.5 446 Q 207.3 443.7 202.5 445 L 193.5 441 L 186 434.5 Q 177.5 426 179 407.5 Q 182 394.5 191.5 388 L 204.5 382 L 215.5 382 L 220.5 383 L 257 345.5 Q 247 332 242 313.5 L 240 303.5 L 239 285.5 L 240 284.5 L 240 275.5 L 242 264.5 L 248 247.5 L 256 234.5 L 132.5 139 Q 124.4 145.9 107.5 144 Q 93.1 140.9 85 131.5 Q 75.2 121.8 75 102.5 L 77 92.5 L 81 84.5 L 90.5 74 L 101.5 68 L 110.5 66 Z M 331 238 Q 316 240 307 248 L 294 262 L 288 275 L 286 286 L 288 304 L 297 321 Q 308 336 331 340 L 350 339 L 370 329 Q 383 318 388 299 L 388 281 L 387 276 Q 384 264 377 257 Q 369 246 356 241 L 345 238 L 331 238 Z " /></svg>