<svg width="512" height="512" version="1.1" xmlns="http://www.w3.org/2000/svg" desc="Created with imagetracer.js version 1.2.6" ><path fill="rgb(254,124,101)" stroke="rgb(254,124,101)" stroke-width="1" opacity="0.996078431372549" d="M 317.5 7 Q 352.8 15.2 380 31.5 L 289.5 121 L 207.5 121 L 318.5 8 L 317.5 7 Z " /><path fill="rgb(254,124,101)" stroke="rgb(254,124,101)" stroke-width="1" opacity="0.996078431372549" d="M 322.5 121 L 326 121.5 L 322.5 122 L 322.5 121 Z " /><path fill="rgb(254,124,101)" stroke="rgb(254,124,101)" stroke-width="1" opacity="0.996078431372549" d="M 365.5 139 L 372.5 147 L 365.5 139 Z " /><path fill="rgb(254,124,101)" stroke="rgb(254,124,101)" stroke-width="1" opacity="0.996078431372549" d="M 199.5 145 L 265 145.5 L 145 264.5 L 145 199.5 L 149 183.5 L 158.5 168 L 162 165.5 L 161 164.5 L 164.5 161 Q 166.3 163.8 168 159.5 L 169.5 157 L 183.5 149 L 199.5 145 Z " /><path fill="rgb(254,124,101)" stroke="rgb(254,124,101)" stroke-width="1" opacity="0.996078431372549" d="M 312.5 145 L 315 145.5 L 312.5 146 L 312.5 145 Z " /><path fill="rgb(254,124,101)" stroke="rgb(254,124,101)" stroke-width="1" opacity="0.996078431372549" d="M 344.5 158 L 345.5 160 L 344.5 158 Z " /><path fill="rgb(254,124,101)" stroke="rgb(254,124,101)" stroke-width="1" opacity="0.996078431372549" d="M 352.5 166 L 353.5 168 L 352.5 166 Z " /><path fill="rgb(254,124,101)" stroke="rgb(254,124,101)" stroke-width="1" opacity="0.996078431372549" d="M 319.5 169 L 318.5 171 L 319.5 169 Z " /><path fill="rgb(254,124,101)" stroke="rgb(254,124,101)" stroke-width="1" opacity="0.996078431372549" d="M 312.5 180 L 313 182.5 L 312 182.5 L 312.5 180 Z " /><path fill="rgb(254,124,101)" stroke="rgb(254,124,101)" stroke-width="1" opacity="0.996078431372549" d="M 248.5 186 L 252 186.5 L 248.5 187 L 248.5 186 Z " /><path fill="rgb(254,124,101)" stroke="rgb(254,124,101)" stroke-width="1" opacity="0.996078431372549" d="M 260.5 186 L 264 186.5 L 260.5 187 L 260.5 186 Z " /><path fill="rgb(254,124,101)" stroke="rgb(254,124,101)" stroke-width="1" opacity="0.996078431372549" d="M 390.5 188 L 391 190.5 L 390 190.5 L 390.5 188 Z " /><path fill="rgb(254,124,101)" stroke="rgb(254,124,101)" stroke-width="1" opacity="0.996078431372549" d="M 339.5 195 L 338.5 197 L 339.5 195 Z " /><path fill="rgb(254,124,101)" stroke="rgb(254,124,101)" stroke-width="1" opacity="0.996078431372549" d="M 215.5 199 L 214.5 201 L 215.5 199 Z " /><path fill="rgb(254,124,101)" stroke="rgb(254,124,101)" stroke-width="1" opacity="0.996078431372549" d="M 211.5 202 L 203.5 211 L 211.5 202 Z " /><path fill="rgb(254,124,101)" stroke="rgb(254,124,101)" stroke-width="1" opacity="0.996078431372549" d="M 120.5 207 L 121 289.5 L 32.5 378 L 30 378 Q 15.1 351.6 7 317.5 L 8 317.5 L 8.5 319 L 120.5 207 Z " /><path fill="rgb(254,124,101)" stroke="rgb(254,124,101)" stroke-width="1" opacity="0.996078431372549" d="M 251.5 210 L 260 210.5 L 251.5 211 L 251.5 210 Z " /><path fill="rgb(254,124,101)" stroke="rgb(254,124,101)" stroke-width="1" opacity="0.996078431372549" d="M 201.5 213 L 200.5 215 L 201.5 213 Z " /><path fill="rgb(254,124,101)" stroke="rgb(254,124,101)" stroke-width="1" opacity="0.996078431372549" d="M 281.5 218 L 282.5 220 L 281.5 218 Z " /><path fill="rgb(254,124,101)" stroke="rgb(254,124,101)" stroke-width="1" opacity="0.996078431372549" d="M 225.5 221 L 220.5 227 L 225.5 221 Z " /><path fill="rgb(254,124,101)" stroke="rgb(254,124,101)" stroke-width="1" opacity="0.996078431372549" d="M 218.5 229 L 217.5 231 L 218.5 229 Z " /><path fill="rgb(254,124,101)" stroke="rgb(254,124,101)" stroke-width="1" opacity="0.996078431372549" d="M 187.5 247 L 188 250.5 L 187 250.5 L 187.5 247 Z " /><path fill="rgb(254,124,101)" stroke="rgb(254,124,101)" stroke-width="1" opacity="0.996078431372549" d="M 324.5 251 L 325 258.5 L 324 258.5 L 324.5 251 Z " /><path fill="rgb(254,124,101)" stroke="rgb(254,124,101)" stroke-width="1" opacity="0.996078431372549" d="M 187.5 260 L 188 263.5 L 187 263.5 L 187.5 260 Z " /><path fill="rgb(254,124,101)" stroke="rgb(254,124,101)" stroke-width="1" opacity="0.996078431372549" d="M 220.5 285 L 225.5 291 L 220.5 285 Z " /><path fill="rgb(254,124,101)" stroke="rgb(254,124,101)" stroke-width="1" opacity="0.996078431372549" d="M 289.5 286 L 285.5 291 L 289.5 286 Z " /><path fill="rgb(254,124,101)" stroke="rgb(254,124,101)" stroke-width="1" opacity="0.996078431372549" d="M 251.5 301 L 260 301.5 L 251.5 302 L 251.5 301 Z " /><path fill="rgb(254,124,101)" stroke="rgb(254,124,101)" stroke-width="1" opacity="0.996078431372549" d="M 305.5 303 L 302.5 307 L 305.5 303 Z " /><path fill="rgb(254,124,101)" stroke="rgb(254,124,101)" stroke-width="1" opacity="0.996078431372549" d="M 213.5 310 L 214.5 312 L 213.5 310 Z " /><path fill="rgb(254,124,101)" stroke="rgb(254,124,101)" stroke-width="1" opacity="0.996078431372549" d="M 145.5 312 L 146 314.5 L 145 314.5 L 145.5 312 Z " /><path fill="rgb(254,124,101)" stroke="rgb(254,124,101)" stroke-width="1" opacity="0.996078431372549" d="M 121.5 322 L 122 325.5 L 121 325.5 L 121.5 322 Z " /><path fill="rgb(254,124,101)" stroke="rgb(254,124,101)" stroke-width="1" opacity="0.996078431372549" d="M 252.5 325 L 258 325.5 L 252.5 326 L 252.5 325 Z " /><path fill="rgb(254,124,101)" stroke="rgb(254,124,101)" stroke-width="1" opacity="0.996078431372549" d="M 158.5 344 L 159.5 346 L 158.5 344 Z " /><path fill="rgb(254,124,101)" stroke="rgb(254,124,101)" stroke-width="1" opacity="0.996078431372549" d="M 166.5 352 L 167.5 354 L 166.5 352 Z " /><path fill="rgb(254,124,101)" stroke="rgb(254,124,101)" stroke-width="1" opacity="0.996078431372549" d="M 139.5 365 L 146.5 373 L 139.5 365 Z " /><path fill="rgb(254,124,101)" stroke="rgb(254,124,101)" stroke-width="1" opacity="0.996078431372549" d="M 368.5 369 L 367.5 371 L 368.5 369 Z " /><path fill="rgb(254,124,101)" stroke="rgb(254,124,101)" stroke-width="1" opacity="0.996078431372549" d="M 150.5 375 L 151.5 377 L 150.5 375 Z " /><path fill="rgb(254,124,101)" stroke="rgb(254,124,101)" stroke-width="1" opacity="0.996078431372549" d="M 188.5 390 L 191 390.5 L 188.5 391 L 188.5 390 Z " /><path fill="rgb(244,64,142)" stroke="rgb(244,64,142)" stroke-width="1" opacity="0.8666666666666667" d="M 405.5 47 L 406.5 49 L 405.5 47 Z " /><path fill="rgb(244,64,142)" stroke="rgb(244,64,142)" stroke-width="1" opacity="0.8666666666666667" d="M 408.5 49 L 432 68 L 433 70.5 L 425.5 64 L 408 51 L 408.5 49 Z " /><path fill="rgb(244,64,142)" stroke="rgb(244,64,142)" stroke-width="1" opacity="0.8666666666666667" d="M 440.5 78 L 458 97.5 L 454 94.5 L 440.5 78 Z " /><path fill="rgb(244,64,142)" stroke="rgb(244,64,142)" stroke-width="1" opacity="0.8666666666666667" d="M 464.5 106 L 465.5 108 L 464.5 106 Z " /><path fill="rgb(244,64,142)" stroke="rgb(244,64,142)" stroke-width="1" opacity="0.8666666666666667" d="M 44.5 401 L 45.5 403 L 44.5 401 Z " /><path fill="rgb(244,64,142)" stroke="rgb(244,64,142)" stroke-width="1" opacity="0.8666666666666667" d="M 47.5 405 L 48.5 407 L 47.5 405 Z " /><path fill="rgb(244,64,142)" stroke="rgb(244,64,142)" stroke-width="1" opacity="0.8666666666666667" d="M 49.5 408 Q 51.8 407.3 51 409.5 L 49.5 408 Z " /><path fill="rgb(244,64,142)" stroke="rgb(244,64,142)" stroke-width="1" opacity="0.8666666666666667" d="M 52.5 411 L 67 428.5 L 61 423.5 L 52 412.5 L 52.5 411 Z " /><path fill="rgb(244,64,142)" stroke="rgb(244,64,142)" stroke-width="1" opacity="0.8666666666666667" d="M 78.5 440 L 96 455.5 L 94.5 455 Q 84.4 448.8 78.5 440 Z " /><path fill="rgb(0,0,0)" stroke="rgb(0,0,0)" stroke-width="1" opacity="0" d="M 0 0 L 208 0.5 L 185.5 5 L 166.5 11 Q 143.3 19.3 123.5 31 Q 87.1 52.6 60 83.5 Q 37 109.5 21 142.5 L 8 175.5 L 0.5 208 L 0 0 Z " /><path fill="rgb(0,0,0)" stroke="rgb(0,0,0)" stroke-width="1" opacity="0" d="M 298.5 0 L 512 0 L 512 232.5 L 511 232.5 L 511 223.5 L 507 200.5 L 503 184.5 L 491 151.5 Q 468.7 102.3 431.5 68 Q 406 43.5 373.5 26 L 339.5 11 L 312.5 3 L 298.5 1 L 298.5 0 Z " /><path fill="rgb(0,0,0)" stroke="rgb(0,0,0)" stroke-width="1" opacity="0" d="M 511.5 279 L 512 512 L 279 511.5 L 301.5 509 L 323.5 504 L 360.5 491 Q 408.9 468.9 443 432.5 Q 472.2 401.7 491 360.5 L 504 323.5 L 509 301.5 L 511.5 279 Z " /><path fill="rgb(0,0,0)" stroke="rgb(0,0,0)" stroke-width="1" opacity="0" d="M 0.5 298 L 8 330.5 L 25 371.5 Q 46.4 411.1 77.5 441 Q 108.8 471.7 151.5 491 L 184.5 503 L 210.5 509 L 233 511.5 L 0 512 L 0.5 298 Z " /><path fill="rgb(254,252,252)" stroke="rgb(254,252,252)" stroke-width="1" opacity="0.9450980392156862" d="M 208.5 0 L 235 0.5 L 211.5 3 L 185.5 9 Q 164 15 145.5 24 Q 96.7 47.7 63 86.5 Q 34.4 118.4 17 161.5 L 7 192.5 L 2 217.5 L 0.5 235 L 0 208.5 L 4 189.5 L 11 166.5 L 26 132.5 Q 49.1 89.6 84.5 59 Q 111 36 144.5 20 L 175.5 8 L 208.5 0 Z " /><path fill="rgb(254,252,252)" stroke="rgb(254,252,252)" stroke-width="1" opacity="0.9450980392156862" d="M 278.5 0 L 297.5 0 Q 298.8 2.3 303.5 1 L 339.5 11 Q 376.7 24.3 405 46.5 L 402.5 45 Q 376 26 342.5 14 L 315.5 6 L 287.5 1 L 278.5 1 L 278.5 0 Z " /><path fill="rgb(254,252,252)" stroke="rgb(254,252,252)" stroke-width="1" opacity="0.9450980392156862" d="M 406.5 47 L 407.5 49 L 406.5 47 Z " /><path fill="rgb(254,252,252)" stroke="rgb(254,252,252)" stroke-width="1" opacity="0.9450980392156862" d="M 410.5 50 L 411.5 52 L 410.5 50 Z " /><path fill="rgb(254,252,252)" stroke="rgb(254,252,252)" stroke-width="1" opacity="0.9450980392156862" d="M 415.5 54 L 416.5 56 L 415.5 54 Z " /><path fill="rgb(254,252,252)" stroke="rgb(254,252,252)" stroke-width="1" opacity="0.9450980392156862" d="M 190.5 121 L 320.5 121 L 321.5 122 L 329.5 122 Q 360.1 128.9 376 150.5 L 386 168.5 L 391 191.5 L 391 320.5 L 390 321.5 L 390 329.5 L 386 343.5 L 380 355.5 L 370 369 L 350.5 383 L 329.5 390 L 321.5 390 L 320.5 391 L 191.5 391 L 174.5 388 L 156.5 380 L 136 361.5 L 126 343.5 L 122 329.5 L 122 321.5 L 121 320.5 L 121 190.5 L 122 189.5 L 123 177.5 L 128 163.5 Q 134.1 151.1 143.5 142 L 163.5 128 L 177.5 123 L 189.5 122 L 190.5 121 Z M 198 145 Q 179 148 168 158 Q 150 171 145 198 L 145 315 L 149 330 L 158 345 Q 171 362 198 367 L 315 367 L 330 363 L 345 354 Q 362 341 367 315 L 367 198 L 363 183 L 354 168 Q 341 150 315 145 L 198 145 Z " /><path fill="rgb(254,252,252)" stroke="rgb(254,252,252)" stroke-width="1" opacity="0.9450980392156862" d="M 324.5 167 Q 337.8 165.8 342 173.5 Q 345.9 177.6 345 186.5 L 341 195 L 334.5 199 L 326.5 200 Q 318.9 198.2 315 192.5 L 312 183.5 L 314 175.5 L 317.5 171 L 324.5 167 Z " /><path fill="rgb(254,252,252)" stroke="rgb(254,252,252)" stroke-width="1" opacity="0.9450980392156862" d="M 254.5 186 L 267.5 187 L 281.5 191 Q 298.4 198.1 309 211.5 Q 318.7 222.8 323 239.5 Q 321.7 244.3 324 245.5 L 324 265.5 Q 318.4 295.9 297.5 311 Q 287.6 319.1 273.5 323 L 264.5 325 L 245.5 325 Q 217.6 319.4 203 300.5 Q 195.5 291.5 191 279.5 L 188 267.5 L 187 252.5 L 190 235.5 L 196 221.5 Q 202.9 209.3 213.5 201 L 233.5 190 L 244.5 187 L 253.5 187 L 254.5 186 Z M 252 210 L 239 213 L 226 221 Q 214 230 210 248 Q 208 260 211 269 Q 214 279 220 286 L 233 296 L 242 300 L 252 302 L 260 302 L 270 300 L 286 291 Q 297 281 301 263 L 301 250 L 298 239 L 288 223 L 275 214 L 266 211 L 252 210 Z " /><path fill="rgb(254,252,252)" stroke="rgb(254,252,252)" stroke-width="1" opacity="0.9450980392156862" d="M 0.5 278 L 2 294.5 L 6 315.5 L 14 342.5 Q 25.4 375.1 44 400.5 L 42 399.5 Q 22.3 371.7 10 336.5 L 0 297.5 L 0.5 278 Z " /><path fill="rgb(254,252,252)" stroke="rgb(254,252,252)" stroke-width="1" opacity="0.9450980392156862" d="M 45.5 403 L 46.5 405 L 45.5 403 Z " /><path fill="rgb(252,182,60)" stroke="rgb(252,182,60)" stroke-width="1" opacity="0.996078431372549" d="M 235.5 0 L 277.5 0 L 278.5 1 L 287.5 1 L 288.5 2 L 300.5 3 L 314.5 7 Q 316 4.5 317.5 8 L 319.5 7 L 206.5 121 L 182.5 122 L 168.5 126 Q 152.9 132.4 142 143.5 Q 131.9 153.9 126 168.5 L 122 182.5 L 121 206.5 L 7.5 320 L 8 318.5 L 6 315.5 L 6 313.5 L 3 300.5 L 1 278.5 L 0 277.5 L 0 235.5 L 1 234.5 L 1 225.5 L 2 224.5 L 3 211.5 L 11 178.5 Q 18.3 155.3 29 135.5 Q 51.8 93.3 86.5 63 Q 118.5 34.5 161.5 17 L 201.5 5 L 217.5 2 L 224.5 2 L 225.5 1 L 234.5 1 L 235.5 0 Z " /><path fill="rgb(252,182,60)" stroke="rgb(252,182,60)" stroke-width="1" opacity="0.996078431372549" d="M 167.5 158 L 168 159.5 L 158.5 168 L 160.5 165 L 165 161.5 L 167.5 158 Z " /><path fill="rgb(254,95,112)" stroke="rgb(254,95,112)" stroke-width="1" opacity="0.996078431372549" d="M 378.5 32 L 384.5 34 L 408 49 Q 406.9 51.7 409.5 51 L 416 56.5 L 345.5 127 L 344.5 126 L 325.5 121 L 290 120.5 L 378.5 32 Z " /><path fill="rgb(254,95,112)" stroke="rgb(254,95,112)" stroke-width="1" opacity="0.996078431372549" d="M 265.5 145 L 311.5 145 L 322.5 147 L 324 148.5 L 280.5 191 L 273.5 188 L 263.5 186 L 248.5 186 Q 218.5 191 203 210.5 Q 193.5 221.5 189 237.5 L 187 247.5 L 187 263.5 L 190 277.5 L 192 280.5 L 148.5 324 L 147 322.5 L 145 311.5 L 145 265.5 L 265.5 145 Z " /><path fill="rgb(254,95,112)" stroke="rgb(254,95,112)" stroke-width="1" opacity="0.996078431372549" d="M 346.5 160 L 351.5 166 L 346.5 160 Z " /><path fill="rgb(254,95,112)" stroke="rgb(254,95,112)" stroke-width="1" opacity="0.996078431372549" d="M 339.5 170 L 341.5 173 L 339.5 170 Z " /><path fill="rgb(254,95,112)" stroke="rgb(254,95,112)" stroke-width="1" opacity="0.996078431372549" d="M 316.5 194 L 318.5 197 L 316.5 194 Z " /><path fill="rgb(254,95,112)" stroke="rgb(254,95,112)" stroke-width="1" opacity="0.996078431372549" d="M 301.5 203 L 302.5 205 L 301.5 203 Z " /><path fill="rgb(254,95,112)" stroke="rgb(254,95,112)" stroke-width="1" opacity="0.996078431372549" d="M 304.5 206 L 306.5 209 L 304.5 206 Z " /><path fill="rgb(254,95,112)" stroke="rgb(254,95,112)" stroke-width="1" opacity="0.996078431372549" d="M 247.5 211 L 261 211.5 L 210.5 263 L 210 249.5 Q 214 229 228.5 219 Q 235.9 212.9 247.5 211 Z " /><path fill="rgb(254,95,112)" stroke="rgb(254,95,112)" stroke-width="1" opacity="0.996078431372549" d="M 120.5 290 L 121 325.5 L 123 335.5 L 127 345.5 L 56.5 416 L 54 413.5 L 52.5 411 L 51 411 L 51 408 Q 48.3 409.1 49 406.5 Q 38.4 394.1 31 378.5 L 120.5 290 Z " /><path fill="rgb(254,95,112)" stroke="rgb(254,95,112)" stroke-width="1" opacity="0.996078431372549" d="M 206.5 304 L 209.5 308 L 206.5 304 Z " /><path fill="rgb(254,95,112)" stroke="rgb(254,95,112)" stroke-width="1" opacity="0.996078431372549" d="M 160.5 346 L 165.5 352 L 160.5 346 Z " /><path fill="rgb(249,56,130)" stroke="rgb(249,56,130)" stroke-width="1" opacity="0.996078431372549" d="M 418.5 58 L 419.5 60 L 418.5 58 Z " /><path fill="rgb(249,56,130)" stroke="rgb(249,56,130)" stroke-width="1" opacity="0.996078431372549" d="M 425.5 64 L 427.5 67 L 425.5 64 Z " /><path fill="rgb(249,56,130)" stroke="rgb(249,56,130)" stroke-width="1" opacity="0.996078431372549" d="M 445.5 84 L 447.5 87 L 445.5 84 Z " /><path fill="rgb(249,56,130)" stroke="rgb(249,56,130)" stroke-width="1" opacity="0.996078431372549" d="M 374.5 148 L 375.5 150 L 374.5 148 Z " /><path fill="rgb(249,56,130)" stroke="rgb(249,56,130)" stroke-width="1" opacity="0.996078431372549" d="M 377.5 152 L 378.5 154 L 377.5 152 Z " /><path fill="rgb(249,56,130)" stroke="rgb(249,56,130)" stroke-width="1" opacity="0.996078431372549" d="M 307.5 209 L 309.5 212 L 307.5 209 Z " /><path fill="rgb(249,56,130)" stroke="rgb(249,56,130)" stroke-width="1" opacity="0.996078431372549" d="M 311.5 214 L 312.5 216 L 311.5 214 Z " /><path fill="rgb(249,56,130)" stroke="rgb(249,56,130)" stroke-width="1" opacity="0.996078431372549" d="M 313.5 217 L 314.5 219 L 313.5 217 Z " /><path fill="rgb(249,56,130)" stroke="rgb(249,56,130)" stroke-width="1" opacity="0.996078431372549" d="M 289.5 226 L 290.5 228 L 289.5 226 Z " /><path fill="rgb(249,56,130)" stroke="rgb(249,56,130)" stroke-width="1" opacity="0.996078431372549" d="M 300.5 252 L 301 254.5 L 300 254.5 L 300.5 252 Z " /><path fill="rgb(249,56,130)" stroke="rgb(249,56,130)" stroke-width="1" opacity="0.996078431372549" d="M 300.5 257 L 301 260.5 L 300 260.5 L 300.5 257 Z " /><path fill="rgb(249,56,130)" stroke="rgb(249,56,130)" stroke-width="1" opacity="0.996078431372549" d="M 291.5 283 L 289.5 286 L 291.5 283 Z " /><path fill="rgb(249,56,130)" stroke="rgb(249,56,130)" stroke-width="1" opacity="0.996078431372549" d="M 284.5 290 L 283.5 292 L 284.5 290 Z " /><path fill="rgb(249,56,130)" stroke="rgb(249,56,130)" stroke-width="1" opacity="0.996078431372549" d="M 227.5 291 L 228.5 293 L 227.5 291 Z " /><path fill="rgb(249,56,130)" stroke="rgb(249,56,130)" stroke-width="1" opacity="0.996078431372549" d="M 280.5 293 L 279.5 295 L 280.5 293 Z " /><path fill="rgb(249,56,130)" stroke="rgb(249,56,130)" stroke-width="1" opacity="0.996078431372549" d="M 210.5 308 L 211.5 310 L 210.5 308 Z " /><path fill="rgb(249,56,130)" stroke="rgb(249,56,130)" stroke-width="1" opacity="0.996078431372549" d="M 215.5 312 L 216.5 314 L 215.5 312 Z " /><path fill="rgb(249,56,130)" stroke="rgb(249,56,130)" stroke-width="1" opacity="0.996078431372549" d="M 148.5 374 L 149.5 376 L 148.5 374 Z " /><path fill="rgb(249,56,130)" stroke="rgb(249,56,130)" stroke-width="1" opacity="0.996078431372549" d="M 152.5 377 L 153.5 379 L 152.5 377 Z " /><path fill="rgb(249,56,130)" stroke="rgb(249,56,130)" stroke-width="1" opacity="0.996078431372549" d="M 58.5 418 L 59.5 420 L 58.5 418 Z " /><path fill="rgb(249,56,130)" stroke="rgb(249,56,130)" stroke-width="1" opacity="0.996078431372549" d="M 64.5 425 L 66.5 428 L 64.5 425 Z " /><path fill="rgb(249,56,130)" stroke="rgb(249,56,130)" stroke-width="1" opacity="0.996078431372549" d="M 84.5 445 L 86.5 448 L 84.5 445 Z " /><path fill="rgb(255,50,130)" stroke="rgb(255,50,130)" stroke-width="1" opacity="1" d="M 415.5 57 L 431.5 70 L 432.5 69 L 443 79.5 L 442 80.5 L 445 83.5 L 449 88.5 Q 422.4 136.9 389.5 179 Q 383.3 152.2 364.5 138 L 346 126.5 L 415.5 57 Z " /><path fill="rgb(255,50,130)" stroke="rgb(255,50,130)" stroke-width="1" opacity="1" d="M 450.5 88 L 451.5 90 L 450.5 88 Z " /><path fill="rgb(255,50,130)" stroke="rgb(255,50,130)" stroke-width="1" opacity="1" d="M 324.5 148 Q 343.4 154.1 354 168.5 L 365 190.5 L 367 208.5 Q 347.9 234.4 325.5 257 Q 323.6 219.9 301.5 203 L 282 190.5 L 324.5 148 Z M 327 166 L 320 169 Q 314 172 312 180 Q 311 190 316 195 Q 319 199 325 200 L 334 200 L 341 196 L 344 192 L 346 184 L 343 174 L 335 167 L 327 166 Z " /><path fill="rgb(255,50,130)" stroke="rgb(255,50,130)" stroke-width="1" opacity="1" d="M 261.5 211 Q 279.8 213.7 289 225.5 L 298 240.5 L 301 256.5 L 297 274.5 L 285.5 290 Q 277.8 296.8 266.5 300 Q 259.4 302.4 248.5 301 Q 229.1 296.9 219 283.5 L 212 270.5 L 211 261.5 L 261.5 211 Z " /><path fill="rgb(255,50,130)" stroke="rgb(255,50,130)" stroke-width="1" opacity="1" d="M 191.5 281 Q 198.1 298.9 211.5 310 Q 220 317.5 231.5 322 Q 242.1 325.9 256 326.5 L 210.5 366 L 202.5 367 L 201.5 366 L 190.5 365 L 174.5 358 L 157 342.5 L 148 324.5 L 191.5 281 Z " /><path fill="rgb(255,50,130)" stroke="rgb(255,50,130)" stroke-width="1" opacity="1" d="M 126.5 346 Q 134.6 364.4 149.5 376 Q 161 386 179 389.5 Q 136.9 422.4 88.5 449 L 78.5 440 L 77.5 441 L 68 431.5 L 67 427.5 L 57 415.5 L 126.5 346 Z " /><path fill="rgb(202,28,149)" stroke="rgb(202,28,149)" stroke-width="1" opacity="0.996078431372549" d="M 481.5 135 L 483 135.5 L 482.5 137 Q 484.8 136.3 484 138.5 L 491 151.5 L 501 179.5 L 391 288.5 L 391 225.5 L 481.5 135 Z " /><path fill="rgb(202,28,149)" stroke="rgb(202,28,149)" stroke-width="1" opacity="0.996078431372549" d="M 366.5 250 L 367 310.5 L 367 312.5 L 313.5 367 L 311.5 366 L 310.5 367 L 250.5 367 L 366.5 250 Z " /><path fill="rgb(202,28,149)" stroke="rgb(202,28,149)" stroke-width="1" opacity="0.996078431372549" d="M 352.5 345 L 351.5 347 L 352.5 345 Z " /><path fill="rgb(202,28,149)" stroke="rgb(202,28,149)" stroke-width="1" opacity="0.996078431372549" d="M 346.5 351 L 345.5 353 L 346.5 351 Z " /><path fill="rgb(202,28,149)" stroke="rgb(202,28,149)" stroke-width="1" opacity="0.996078431372549" d="M 225.5 391 L 289 391.5 L 178.5 501 L 149.5 490 L 135 481.5 L 225.5 391 Z " /><path fill="rgb(171,28,168)" stroke="rgb(171,28,168)" stroke-width="1" opacity="0.996078431372549" d="M 500.5 180 L 503 184.5 L 510 216.5 L 511 232.5 L 512 233.5 L 512 252.5 L 511 255.5 L 254.5 512 L 252.5 511 L 251.5 512 L 233.5 512 L 232.5 511 L 224.5 511 L 223.5 510 L 216.5 510 L 200.5 507 L 184.5 503 L 180 500.5 L 289.5 391 L 324.5 391 L 338.5 388 Q 359.1 381.1 372 366.5 Q 385.1 352.6 390 330.5 Q 388.7 325.7 391 324.5 L 391 289.5 L 500.5 180 Z " /><path fill="rgb(171,28,168)" stroke="rgb(171,28,168)" stroke-width="1" opacity="0.996078431372549" d="M 365.5 315 L 366 318.5 Q 360.9 338.9 347.5 351 L 328.5 363 L 315.5 366 L 365.5 315 Z " /><path fill="rgb(133,27,192)" stroke="rgb(133,27,192)" stroke-width="1" opacity="0.9882352941176471" d="M 511.5 253 L 512 278.5 L 511 279.5 L 509 301.5 L 504 323.5 L 491 360.5 Q 468.9 408.9 432.5 443 Q 399.2 474.7 353.5 494 Q 329.6 503.6 301.5 509 L 279.5 511 L 278.5 512 L 255.5 512 L 511 255.5 L 511.5 253 Z " /><path fill="rgb(222,28,136)" stroke="rgb(222,28,136)" stroke-width="1" opacity="0.996078431372549" d="M 448 89 L 454 93.5 L 457.5 98 L 460 99.5 L 477 124.5 L 482 134.5 L 391 224.5 L 391 186.5 Q 388.3 184.8 390 178.5 Q 422.7 136.9 448 89 Z " /><path fill="rgb(222,28,136)" stroke="rgb(222,28,136)" stroke-width="1" opacity="0.996078431372549" d="M 366.5 209 L 367 249.5 L 249.5 367 L 209.5 367 L 209.5 366 Q 234.8 347.8 256.5 326 L 267.5 325 L 285.5 319 Q 298.8 312.3 308 301.5 Q 316.3 292.3 321 279.5 Q 324.7 270.2 325 257.5 Q 347.5 235 366.5 209 Z " /><path fill="rgb(222,28,136)" stroke="rgb(222,28,136)" stroke-width="1" opacity="0.996078431372549" d="M 178.5 390 Q 184.8 388.3 186.5 391 L 225 391.5 L 135 481.5 L 135.5 483 L 98 459 L 98 457 Q 95.3 458.1 96 455.5 L 94 455.5 L 94.5 454 L 89 449.5 Q 88.3 447.3 90.5 448 Q 137.3 421.8 178.5 390 Z " /></svg>