<svg width="225" height="225" version="1.1" xmlns="http://www.w3.org/2000/svg" desc="Created with imagetracer.js version 1.2.6" ><path fill="rgb(225,227,229)" stroke="rgb(225,227,229)" stroke-width="1" opacity="1" d="M 50.5 47 L 47.5 51 L 50.5 47 Z " /><path fill="rgb(225,227,229)" stroke="rgb(225,227,229)" stroke-width="1" opacity="1" d="M 62.5 78 L 63 119.5 L 62 119.5 L 62.5 78 Z " /><path fill="rgb(225,227,229)" stroke="rgb(225,227,229)" stroke-width="1" opacity="1" d="M 86.5 133 L 87.5 135 L 86.5 133 Z " /><path fill="rgb(225,227,229)" stroke="rgb(225,227,229)" stroke-width="1" opacity="1" d="M 138.5 133 L 137.5 135 L 138.5 133 Z " /><path fill="rgb(225,227,229)" stroke="rgb(225,227,229)" stroke-width="1" opacity="1" d="M 108.5 135 L 109.5 137 L 108.5 135 Z " /><path fill="rgb(225,227,229)" stroke="rgb(225,227,229)" stroke-width="1" opacity="1" d="M 62.5 143 L 63 145.5 L 62 145.5 L 62.5 143 Z " /><path fill="rgb(225,227,229)" stroke="rgb(225,227,229)" stroke-width="1" opacity="1" d="M 63.5 147 L 64.5 149 L 63.5 147 Z " /><path fill="rgb(225,227,229)" stroke="rgb(225,227,229)" stroke-width="1" opacity="1" d="M 118.5 153 L 121 153.5 L 118.5 154 L 118.5 153 Z " /><path fill="rgb(225,227,229)" stroke="rgb(225,227,229)" stroke-width="1" opacity="1" d="M 106.5 162 L 119 162.5 L 106.5 163 L 106.5 162 Z " /><path fill="rgb(225,227,229)" stroke="rgb(225,227,229)" stroke-width="1" opacity="1" d="M 46.5 173 L 47.5 175 L 46.5 173 Z " /><path fill="rgb(225,227,229)" stroke="rgb(225,227,229)" stroke-width="1" opacity="1" d="M 176.5 175 L 175.5 177 L 176.5 175 Z " /><path fill="rgb(0,13,43)" stroke="rgb(0,13,43)" stroke-width="1" opacity="1" d="M 54.5 46 L 56 46.5 L 52.5 48 L 52.5 47 L 54.5 46 Z " /><path fill="rgb(0,13,43)" stroke="rgb(0,13,43)" stroke-width="1" opacity="1" d="M 179.5 59 L 180 165.5 L 179 165.5 L 179.5 59 Z " /><path fill="rgb(0,13,43)" stroke="rgb(0,13,43)" stroke-width="1" opacity="1" d="M 92.5 64 L 94.5 67 L 92.5 64 Z " /><path fill="rgb(0,13,43)" stroke="rgb(0,13,43)" stroke-width="1" opacity="1" d="M 132.5 64 L 130.5 67 L 132.5 64 Z " /><path fill="rgb(0,13,43)" stroke="rgb(0,13,43)" stroke-width="1" opacity="1" d="M 106.5 66 L 107 133.5 L 106 133.5 L 106.5 66 Z " /><path fill="rgb(0,13,43)" stroke="rgb(0,13,43)" stroke-width="1" opacity="1" d="M 95.5 68 L 96 130.5 L 95 130.5 L 95.5 68 Z " /><path fill="rgb(0,13,43)" stroke="rgb(0,13,43)" stroke-width="1" opacity="1" d="M 129.5 69 L 130 130.5 L 129 130.5 L 129.5 69 Z " /><path fill="rgb(0,13,43)" stroke="rgb(0,13,43)" stroke-width="1" opacity="1" d="M 69.5 73 L 70.5 75 L 69.5 73 Z " /><path fill="rgb(0,13,43)" stroke="rgb(0,13,43)" stroke-width="1" opacity="1" d="M 160.5 73 L 162.5 76 L 160.5 73 Z " /><path fill="rgb(0,13,43)" stroke="rgb(0,13,43)" stroke-width="1" opacity="1" d="M 61.5 78 L 62 119.5 L 61 119.5 L 61.5 78 Z " /><path fill="rgb(0,13,43)" stroke="rgb(0,13,43)" stroke-width="1" opacity="1" d="M 163.5 78 L 164 119.5 L 163 119.5 L 163.5 78 Z " /><path fill="rgb(0,13,43)" stroke="rgb(0,13,43)" stroke-width="1" opacity="1" d="M 162.5 122 L 160.5 125 L 162.5 122 Z " /><path fill="rgb(0,13,43)" stroke="rgb(0,13,43)" stroke-width="1" opacity="1" d="M 70.5 123 L 69.5 125 L 68 124.5 L 70.5 123 Z " /><path fill="rgb(0,13,43)" stroke="rgb(0,13,43)" stroke-width="1" opacity="1" d="M 115.5 137 L 114.5 139 L 115.5 137 Z " /><path fill="rgb(0,13,43)" stroke="rgb(0,13,43)" stroke-width="1" opacity="1" d="M 62.5 141 L 61.5 143 L 62.5 141 Z " /><path fill="rgb(0,13,43)" stroke="rgb(0,13,43)" stroke-width="1" opacity="1" d="M 152.5 141 L 154 141.5 L 151.5 143 L 152.5 141 Z " /><path fill="rgb(0,13,43)" stroke="rgb(0,13,43)" stroke-width="1" opacity="1" d="M 160.5 149 L 159.5 151 L 160.5 149 Z " /><path fill="rgb(0,13,43)" stroke="rgb(0,13,43)" stroke-width="1" opacity="1" d="M 71.5 154 L 76 156.5 L 74.5 156 Q 70.7 155.8 71.5 154 Z " /><path fill="rgb(0,13,43)" stroke="rgb(0,13,43)" stroke-width="1" opacity="1" d="M 147.5 156 L 149 156.5 L 146.5 158 L 147.5 156 Z " /><path fill="rgb(0,13,43)" stroke="rgb(0,13,43)" stroke-width="1" opacity="1" d="M 175.5 174 L 174.5 176 L 175.5 174 Z " /><path fill="rgb(0,13,43)" stroke="rgb(0,13,43)" stroke-width="1" opacity="1" d="M 58.5 179 L 166 179.5 L 58.5 180 L 58.5 179 Z " /><path fill="rgb(0,0,30)" stroke="rgb(0,0,30)" stroke-width="1" opacity="1" d="M 56.5 45 L 168 45.5 L 56.5 46 L 56.5 45 Z " /><path fill="rgb(0,0,30)" stroke="rgb(0,0,30)" stroke-width="1" opacity="1" d="M 173.5 48 L 176.5 52 L 173.5 48 Z " /><path fill="rgb(0,0,30)" stroke="rgb(0,0,30)" stroke-width="1" opacity="1" d="M 179.5 56 L 180 58.5 L 179 58.5 L 179.5 56 Z " /><path fill="rgb(0,0,30)" stroke="rgb(0,0,30)" stroke-width="1" opacity="1" d="M 44.5 60 L 45 164.5 L 44 164.5 L 44.5 60 Z " /><path fill="rgb(0,0,30)" stroke="rgb(0,0,30)" stroke-width="1" opacity="1" d="M 111.5 61 L 114 61.5 L 111.5 62 L 111.5 61 Z " /><path fill="rgb(0,0,30)" stroke="rgb(0,0,30)" stroke-width="1" opacity="1" d="M 115.5 62 L 116.5 64 L 115.5 62 Z " /><path fill="rgb(0,0,30)" stroke="rgb(0,0,30)" stroke-width="1" opacity="1" d="M 117.5 65 L 118 134.5 L 117 134.5 L 117.5 65 Z " /><path fill="rgb(0,0,30)" stroke="rgb(0,0,30)" stroke-width="1" opacity="1" d="M 85.5 66 L 84.5 68 L 85.5 66 Z " /><path fill="rgb(0,0,30)" stroke="rgb(0,0,30)" stroke-width="1" opacity="1" d="M 152.5 76 L 153 121.5 L 152 121.5 L 152.5 76 Z " /><path fill="rgb(0,0,30)" stroke="rgb(0,0,30)" stroke-width="1" opacity="1" d="M 72.5 77 L 73 120.5 L 72 120.5 L 72.5 77 Z " /><path fill="rgb(0,0,30)" stroke="rgb(0,0,30)" stroke-width="1" opacity="1" d="M 111.5 138 L 114 138.5 L 111.5 139 L 111.5 138 Z " /><path fill="rgb(0,0,30)" stroke="rgb(0,0,30)" stroke-width="1" opacity="1" d="M 65.5 139 L 69 139.5 L 65.5 140 L 65.5 139 Z " /><path fill="rgb(0,0,30)" stroke="rgb(0,0,30)" stroke-width="1" opacity="1" d="M 156.5 139 L 160 139.5 L 156.5 140 L 156.5 139 Z " /><path fill="rgb(0,0,30)" stroke="rgb(0,0,30)" stroke-width="1" opacity="1" d="M 161.5 140 L 162.5 142 L 161.5 140 Z " /><path fill="rgb(0,0,30)" stroke="rgb(0,0,30)" stroke-width="1" opacity="1" d="M 149.5 143 L 151 143.5 L 148.5 145 L 149.5 143 Z " /><path fill="rgb(0,0,30)" stroke="rgb(0,0,30)" stroke-width="1" opacity="1" d="M 162.5 147 L 161.5 149 L 162.5 147 Z " /><path fill="rgb(0,0,30)" stroke="rgb(0,0,30)" stroke-width="1" opacity="1" d="M 64.5 149 L 65.5 151 L 64.5 149 Z " /><path fill="rgb(0,0,30)" stroke="rgb(0,0,30)" stroke-width="1" opacity="1" d="M 102.5 152 L 123 152.5 L 102.5 153 L 102.5 152 Z " /><path fill="rgb(0,0,30)" stroke="rgb(0,0,30)" stroke-width="1" opacity="1" d="M 131.5 161 L 134 161.5 L 131.5 162 L 131.5 161 Z " /><path fill="rgb(0,0,30)" stroke="rgb(0,0,30)" stroke-width="1" opacity="1" d="M 95.5 162 L 100 162.5 L 95.5 163 L 95.5 162 Z " /><path fill="rgb(0,0,30)" stroke="rgb(0,0,30)" stroke-width="1" opacity="1" d="M 125.5 162 L 129 162.5 L 125.5 163 L 125.5 162 Z " /><path fill="rgb(0,0,30)" stroke="rgb(0,0,30)" stroke-width="1" opacity="1" d="M 103.5 163 L 106 163.5 L 103.5 164 L 103.5 163 Z " /><path fill="rgb(0,0,30)" stroke="rgb(0,0,30)" stroke-width="1" opacity="1" d="M 119.5 163 L 122 163.5 L 119.5 164 L 119.5 163 Z " /><path fill="rgb(0,0,30)" stroke="rgb(0,0,30)" stroke-width="1" opacity="1" d="M 179.5 166 L 180 168.5 L 179 168.5 L 179.5 166 Z " /><path fill="rgb(0,0,30)" stroke="rgb(0,0,30)" stroke-width="1" opacity="1" d="M 48.5 174 L 50.5 177 L 48.5 174 Z " /><path fill="rgb(0,0,30)" stroke="rgb(0,0,30)" stroke-width="1" opacity="1" d="M 166.5 179 L 169 179.5 L 166.5 180 L 166.5 179 Z " /><path fill="rgb(255,255,255)" stroke="rgb(255,255,255)" stroke-width="1" opacity="1" d="M 0 0 L 225 0 L 225 225 L 0 225 L 0 0 Z M 58 44 L 51 47 L 44 57 L 44 170 L 46 174 Q 50 179 57 181 L 168 181 L 176 177 L 181 168 L 181 58 L 179 53 Q 175 46 167 44 L 58 44 Z " /><path fill="rgb(255,255,255)" stroke="rgb(255,255,255)" stroke-width="1" opacity="1" d="M 110.5 63 Q 115 62 116 64.5 L 117 66.5 L 117 133.5 L 114.5 137 Q 109 138 108 134.5 L 108 65.5 L 110.5 63 Z " /><path fill="rgb(255,255,255)" stroke="rgb(255,255,255)" stroke-width="1" opacity="1" d="M 89.5 65 L 93 66 L 94 68.5 L 94 131.5 L 93 134 L 88.5 135 L 85 131.5 L 85 68.5 L 89.5 65 Z " /><path fill="rgb(255,255,255)" stroke="rgb(255,255,255)" stroke-width="1" opacity="1" d="M 135.5 65 L 140 68.5 L 140 131.5 L 136.5 135 L 132 134 L 131 131.5 L 131 68.5 L 132 66 L 135.5 65 Z " /><path fill="rgb(255,255,255)" stroke="rgb(255,255,255)" stroke-width="1" opacity="1" d="M 66.5 74 L 71 76.5 L 71 121.5 L 69.5 123 L 66.5 124 L 63 121.5 L 63 76.5 L 64.5 75 L 66.5 74 Z " /><path fill="rgb(255,255,255)" stroke="rgb(255,255,255)" stroke-width="1" opacity="1" d="M 157.5 74 L 161 75 L 162 77.5 L 162 120.5 L 161 123 L 157.5 124 L 153 120.5 L 153 77.5 L 155.5 75 L 157.5 74 Z " /><path fill="rgb(255,255,255)" stroke="rgb(255,255,255)" stroke-width="1" opacity="1" d="M 66.5 140 Q 77 148 91.5 152 L 103.5 153 L 104.5 154 L 120.5 154 L 136.5 151 L 158.5 140 L 162 142.5 Q 163 148 159.5 149 L 144.5 157 L 131.5 161 Q 126.7 159.8 125.5 162 L 98.5 162 L 79.5 157 Q 69.6 153.4 63 146.5 Q 62 142 64.5 141 L 66.5 140 Z " /><path fill="rgb(0,25,49)" stroke="rgb(0,25,49)" stroke-width="1" opacity="1" d="M 45.5 58 L 46 60 L 44 59.5 L 45.5 58 Z " /><path fill="rgb(0,25,49)" stroke="rgb(0,25,49)" stroke-width="1" opacity="1" d="M 108.5 62 L 109 64 L 107 63.5 L 108.5 62 Z " /><path fill="rgb(0,25,49)" stroke="rgb(0,25,49)" stroke-width="1" opacity="1" d="M 88.5 63 L 91 63.5 L 88.5 64 L 88.5 63 Z " /><path fill="rgb(0,25,49)" stroke="rgb(0,25,49)" stroke-width="1" opacity="1" d="M 134.5 63 L 137 63.5 L 134.5 64 L 134.5 63 Z " /><path fill="rgb(0,25,49)" stroke="rgb(0,25,49)" stroke-width="1" opacity="1" d="M 86.5 64 L 84.5 67 L 86.5 64 Z " /><path fill="rgb(0,25,49)" stroke="rgb(0,25,49)" stroke-width="1" opacity="1" d="M 138.5 64 L 140.5 67 L 138.5 64 Z " /><path fill="rgb(0,25,49)" stroke="rgb(0,25,49)" stroke-width="1" opacity="1" d="M 83 68 L 85 68.5 L 84 69.5 L 84 130.5 L 84.5 132 L 83 131.5 L 83 68 Z " /><path fill="rgb(0,25,49)" stroke="rgb(0,25,49)" stroke-width="1" opacity="1" d="M 140.5 68 L 142 68.5 L 142 132 L 140 131.5 L 141 130.5 L 141 69.5 L 140.5 68 Z " /><path fill="rgb(0,25,49)" stroke="rgb(0,25,49)" stroke-width="1" opacity="1" d="M 65 72 L 69 72 L 69 73.5 L 67.5 73 L 65.5 74 L 65 72 Z " /><path fill="rgb(0,25,49)" stroke="rgb(0,25,49)" stroke-width="1" opacity="1" d="M 151.5 79 L 152 118.5 L 151 118.5 L 151.5 79 Z " /><path fill="rgb(0,25,49)" stroke="rgb(0,25,49)" stroke-width="1" opacity="1" d="M 152.5 122 Q 154.8 121.3 154 123.5 L 154.5 125 L 152.5 122 Z " /><path fill="rgb(0,25,49)" stroke="rgb(0,25,49)" stroke-width="1" opacity="1" d="M 65.5 124 L 68 125.5 L 65 126 L 65.5 124 Z " /><path fill="rgb(0,25,49)" stroke="rgb(0,25,49)" stroke-width="1" opacity="1" d="M 156.5 125 L 159 125.5 L 156.5 126 L 156.5 125 Z " /><path fill="rgb(0,25,49)" stroke="rgb(0,25,49)" stroke-width="1" opacity="1" d="M 134.5 135 L 135.5 137 Q 132.7 137.7 134.5 135 Z " /><path fill="rgb(0,25,49)" stroke="rgb(0,25,49)" stroke-width="1" opacity="1" d="M 107.5 136 L 109.5 139 L 107.5 136 Z " /><path fill="rgb(0,25,49)" stroke="rgb(0,25,49)" stroke-width="1" opacity="1" d="M 62.5 140 L 61.5 142 L 62.5 140 Z " /><path fill="rgb(0,25,49)" stroke="rgb(0,25,49)" stroke-width="1" opacity="1" d="M 72.5 141 L 73.5 143 L 72.5 141 Z " /><path fill="rgb(0,25,49)" stroke="rgb(0,25,49)" stroke-width="1" opacity="1" d="M 60.5 143 L 62 145.5 L 60 146 L 60.5 143 Z " /><path fill="rgb(0,25,49)" stroke="rgb(0,25,49)" stroke-width="1" opacity="1" d="M 61.5 147 L 64 148 L 65 150.5 L 61.5 147 Z " /><path fill="rgb(0,25,49)" stroke="rgb(0,25,49)" stroke-width="1" opacity="1" d="M 132 149 L 134 149.5 L 132 150.5 L 132 149 Z " /><path fill="rgb(0,25,49)" stroke="rgb(0,25,49)" stroke-width="1" opacity="1" d="M 127 150 L 130 150.5 L 127.5 152 L 127 150 Z " /><path fill="rgb(0,25,49)" stroke="rgb(0,25,49)" stroke-width="1" opacity="1" d="M 108 163 L 114.5 164 L 117 163 L 116.5 165 L 108 165 L 108 163 Z " /><path fill="rgb(0,25,49)" stroke="rgb(0,25,49)" stroke-width="1" opacity="1" d="M 48.5 173 L 50.5 176 L 48.5 173 Z " /><path fill="rgb(147,152,160)" stroke="rgb(147,152,160)" stroke-width="1" opacity="1" d="M 58.5 44 L 167 44.5 L 58.5 45 L 58.5 44 Z " /><path fill="rgb(147,152,160)" stroke="rgb(147,152,160)" stroke-width="1" opacity="1" d="M 111.5 62 L 114 62.5 L 111.5 63 L 111.5 62 Z " /><path fill="rgb(147,152,160)" stroke="rgb(147,152,160)" stroke-width="1" opacity="1" d="M 107.5 67 L 108 132.5 L 107 132.5 L 107.5 67 Z " /><path fill="rgb(147,152,160)" stroke="rgb(147,152,160)" stroke-width="1" opacity="1" d="M 64.5 74 L 63.5 76 L 64.5 74 Z " /><path fill="rgb(147,152,160)" stroke="rgb(147,152,160)" stroke-width="1" opacity="1" d="M 71.5 77 L 72 120.5 L 71 120.5 L 71.5 77 Z " /><path fill="rgb(147,152,160)" stroke="rgb(147,152,160)" stroke-width="1" opacity="1" d="M 63.5 122 L 64.5 124 L 63.5 122 Z " /><path fill="rgb(147,152,160)" stroke="rgb(147,152,160)" stroke-width="1" opacity="1" d="M 162.5 143 L 163 145.5 L 162 145.5 L 162.5 143 Z " /><path fill="rgb(147,152,160)" stroke="rgb(147,152,160)" stroke-width="1" opacity="1" d="M 106.5 153 L 118 153.5 L 106.5 154 L 106.5 153 Z " /><path fill="rgb(147,152,160)" stroke="rgb(147,152,160)" stroke-width="1" opacity="1" d="M 127.5 161 L 130 161.5 L 127.5 162 L 127.5 161 Z " /><path fill="rgb(147,152,160)" stroke="rgb(147,152,160)" stroke-width="1" opacity="1" d="M 103.5 162 L 106 162.5 L 103.5 163 L 103.5 162 Z " /><path fill="rgb(147,152,160)" stroke="rgb(147,152,160)" stroke-width="1" opacity="1" d="M 119.5 162 L 122 162.5 L 119.5 163 L 119.5 162 Z " /><path fill="rgb(147,152,160)" stroke="rgb(147,152,160)" stroke-width="1" opacity="1" d="M 48.5 175 L 49.5 177 L 48.5 175 Z " /><path fill="rgb(7,29,52)" stroke="rgb(7,29,52)" stroke-width="1" opacity="1" d="M 57.5 46 L 167.5 46 L 176 51.5 L 176.5 53 L 178 52.5 L 178 54.5 L 179 57.5 L 179 168.5 L 173.5 176 L 168.5 179 L 56.5 179 L 55.5 180 L 55.5 178 L 48 172.5 L 45 164.5 L 45 60.5 L 46 55.5 L 51.5 49 L 57.5 46 Z M 111 61 L 109 62 L 106 66 L 106 135 L 107 137 L 109 136 L 108 138 Q 109 140 115 139 L 118 136 L 118 65 Q 116 60 115 63 L 115 62 L 111 61 Z M 89 63 L 87 64 L 83 69 L 83 132 L 84 134 Q 86 137 91 137 L 91 135 L 93 136 L 96 132 L 96 69 L 95 67 Q 93 63 89 63 Z M 135 63 L 133 64 L 129 69 L 129 132 L 130 134 L 135 137 L 139 136 L 142 132 L 142 69 L 141 67 Q 139 63 135 63 Z M 66 72 L 61 77 L 61 122 L 66 126 L 70 125 L 73 122 L 73 77 L 69 72 L 66 72 Z M 157 72 L 155 73 L 152 76 L 151 80 L 151 119 L 152 123 L 157 126 L 161 125 L 164 121 L 164 78 L 163 76 Q 161 72 157 72 Z M 65 139 L 61 142 L 62 144 L 60 144 L 61 148 Q 69 155 81 159 L 83 158 L 82 160 L 89 162 L 94 161 L 93 163 L 108 164 L 109 165 L 125 164 L 124 163 L 126 163 L 140 161 L 139 160 L 141 160 L 150 157 L 149 156 L 151 156 L 159 152 L 163 148 L 162 147 L 164 147 Q 165 140 161 139 L 156 139 L 149 144 L 145 145 L 145 147 L 143 146 L 143 148 L 142 147 L 137 148 L 137 150 L 136 149 L 123 152 L 103 152 L 102 153 L 102 151 L 97 152 L 97 151 L 88 148 L 85 149 L 85 148 Q 76 145 70 139 L 65 139 Z " /><path fill="rgb(7,29,52)" stroke="rgb(7,29,52)" stroke-width="1" opacity="1" d="M 84.5 69 L 85 130.5 L 84 130.5 L 84.5 69 Z " /><path fill="rgb(27,45,66)" stroke="rgb(27,45,66)" stroke-width="1" opacity="1" d="M 140.5 69 L 141 130.5 L 140 130.5 L 140.5 69 Z " /><path fill="rgb(27,45,66)" stroke="rgb(27,45,66)" stroke-width="1" opacity="1" d="M 154.5 74 L 153.5 76 L 154.5 74 Z " /><path fill="rgb(27,45,66)" stroke="rgb(27,45,66)" stroke-width="1" opacity="1" d="M 85.5 133 L 86.5 135 L 85.5 133 Z " /><path fill="rgb(27,45,66)" stroke="rgb(27,45,66)" stroke-width="1" opacity="1" d="M 139.5 133 L 138.5 135 L 139.5 133 Z " /><path fill="rgb(27,45,66)" stroke="rgb(27,45,66)" stroke-width="1" opacity="1" d="M 111.5 163 L 114 163.5 L 111.5 164 L 111.5 163 Z " /><path fill="rgb(57,70,86)" stroke="rgb(57,70,86)" stroke-width="1" opacity="1" d="M 132.5 65 L 131.5 67 L 132.5 65 Z " /><path fill="rgb(57,70,86)" stroke="rgb(57,70,86)" stroke-width="1" opacity="1" d="M 161.5 122 L 160.5 124 L 161.5 122 Z " /><path fill="rgb(106,114,126)" stroke="rgb(106,114,126)" stroke-width="1" opacity="1" d="M 180.5 60 L 181 165.5 L 180 165.5 L 180.5 60 Z " /><path fill="rgb(106,114,126)" stroke="rgb(106,114,126)" stroke-width="1" opacity="1" d="M 94.5 69 L 95 130.5 L 94 130.5 L 94.5 69 Z " /><path fill="rgb(106,114,126)" stroke="rgb(106,114,126)" stroke-width="1" opacity="1" d="M 162.5 78 L 163 119.5 L 162 119.5 L 162.5 78 Z " /><path fill="rgb(96,106,118)" stroke="rgb(96,106,118)" stroke-width="1" opacity="1" d="M 130.5 69 L 131 130.5 L 130 130.5 L 130.5 69 Z " /><path fill="rgb(85,95,109)" stroke="rgb(85,95,109)" stroke-width="1" opacity="1" d="M 160.5 74 L 161.5 76 L 160.5 74 Z " /><path fill="rgb(85,95,109)" stroke="rgb(85,95,109)" stroke-width="1" opacity="1" d="M 93.5 133 L 92.5 135 L 93.5 133 Z " /><path fill="rgb(85,95,109)" stroke="rgb(85,95,109)" stroke-width="1" opacity="1" d="M 131.5 133 L 132.5 135 L 131.5 133 Z " /><path fill="rgb(85,95,109)" stroke="rgb(85,95,109)" stroke-width="1" opacity="1" d="M 60.5 180 L 165 180.5 L 60.5 181 L 60.5 180 Z " /></svg>