<svg width="512" height="512" version="1.1" xmlns="http://www.w3.org/2000/svg" desc="Created with imagetracer.js version 1.2.6" ><path fill="rgb(233,222,209)" stroke="rgb(233,222,209)" stroke-width="1" opacity="1" d="M 258.5 67 L 276.5 67 Q 277.8 69.2 282.5 68 Q 298.2 71.3 310 78.5 L 307.5 79 L 295.5 76 L 278.5 76 L 277.5 77 L 263.5 78 L 249.5 82 Q 231.8 89.3 221 103.5 L 210.5 122 L 210 119.5 Q 212.5 118 211 112.5 L 209 102.5 Q 215.1 91.1 225.5 84 Q 239.5 73 258.5 67 Z " /><path fill="rgb(233,222,209)" stroke="rgb(233,222,209)" stroke-width="1" opacity="1" d="M 319.5 73 L 320.5 75 L 319.5 73 Z " /><path fill="rgb(233,222,209)" stroke="rgb(233,222,209)" stroke-width="1" opacity="1" d="M 226.5 74 L 229 75.5 L 206.5 88 L 195 98.5 L 193.5 101 L 185.5 103 L 187 100.5 L 193.5 92 Q 206.9 79.9 226.5 74 Z " /><path fill="rgb(233,222,209)" stroke="rgb(233,222,209)" stroke-width="1" opacity="1" d="M 191.5 84 L 190.5 86 L 191.5 84 Z " /><path fill="rgb(233,222,209)" stroke="rgb(233,222,209)" stroke-width="1" opacity="1" d="M 333.5 87 L 334.5 89 L 333.5 87 Z " /><path fill="rgb(233,222,209)" stroke="rgb(233,222,209)" stroke-width="1" opacity="1" d="M 323.5 95 Q 329.3 94.3 330 98.5 L 331 100.5 Q 320.5 100 317 106.5 Q 317.8 110.3 315.5 111 Q 312.8 109.8 314 104.5 L 319.5 97 L 323.5 95 Z " /><path fill="rgb(233,222,209)" stroke="rgb(233,222,209)" stroke-width="1" opacity="1" d="M 247.5 101 Q 257 99 259 104.5 L 257.5 105 L 253.5 104 Q 243.4 106.4 238 113.5 L 232.5 125 L 232 116.5 Q 234.6 109.1 240.5 105 L 247.5 101 Z " /><path fill="rgb(233,222,209)" stroke="rgb(233,222,209)" stroke-width="1" opacity="1" d="M 197.5 107 Q 203.6 105.8 203 108.5 L 203.5 110 Q 187.5 112.5 179 122.5 Q 171.3 131.8 172.5 150 L 172 129.5 Q 174.1 120.1 180.5 115 Q 187.1 109.1 197.5 107 Z " /><path fill="rgb(233,222,209)" stroke="rgb(233,222,209)" stroke-width="1" opacity="1" d="M 266.5 134 Q 270.3 132.8 269 136.5 L 273 148 L 264.5 149 L 258 145.5 Q 257 139 260.5 137 L 266.5 134 Z " /><path fill="rgb(233,222,209)" stroke="rgb(233,222,209)" stroke-width="1" opacity="1" d="M 330.5 134 Q 334.7 132.7 333 137.5 L 335 143.5 L 327.5 147 L 324 144.5 Q 323.4 137.9 327.5 136 L 330.5 134 Z " /><path fill="rgb(233,222,209)" stroke="rgb(233,222,209)" stroke-width="1" opacity="1" d="M 159.5 138 L 158.5 140 L 159.5 138 Z " /><path fill="rgb(233,222,209)" stroke="rgb(233,222,209)" stroke-width="1" opacity="1" d="M 148.5 149 L 147.5 151 L 148.5 149 Z " /><path fill="rgb(233,222,209)" stroke="rgb(233,222,209)" stroke-width="1" opacity="1" d="M 361.5 151 L 362.5 153 L 361.5 151 Z " /><path fill="rgb(233,222,209)" stroke="rgb(233,222,209)" stroke-width="1" opacity="1" d="M 180.5 156 L 185.5 156 L 192 160.5 L 195 166.5 L 193.5 166 L 183.5 162 L 179.5 162 L 175 164 L 173 167.5 L 173 170.5 L 173 172.5 L 172 190.5 L 172.5 192 Q 165.2 185.3 166 170.5 Q 167.9 162.8 173.5 159 L 180.5 156 Z " /><path fill="rgb(233,222,209)" stroke="rgb(233,222,209)" stroke-width="1" opacity="1" d="M 294.5 177 L 299 180.5 Q 300.5 184.9 297.5 184 L 291.5 189 L 291 181.5 L 294.5 177 Z " /><path fill="rgb(233,222,209)" stroke="rgb(233,222,209)" stroke-width="1" opacity="1" d="M 199.5 196 L 202 198.5 Q 203 217 209 230.5 Q 214.6 244.4 225 253.5 L 223.5 253 Q 211 251.5 206 242.5 L 197 223.5 L 194 212.5 L 194 206.5 Q 198.6 203.6 200 197.5 L 199.5 196 Z " /><path fill="rgb(233,222,209)" stroke="rgb(233,222,209)" stroke-width="1" opacity="1" d="M 255.5 204 L 262.5 204 L 263 205.5 L 259 210.5 Q 260.3 215.8 257.5 217 L 255 213.5 L 254 205.5 L 255.5 204 Z " /><path fill="rgb(233,222,209)" stroke="rgb(233,222,209)" stroke-width="1" opacity="1" d="M 398.5 245 L 399 254.5 L 398 254.5 L 398.5 245 Z " /><path fill="rgb(233,222,209)" stroke="rgb(233,222,209)" stroke-width="1" opacity="1" d="M 222.5 262 L 230.5 265 L 235.5 265 L 237 266.5 Q 235.8 269.3 234.5 267 L 223.5 264 L 222.5 262 Z " /><path fill="rgb(233,222,209)" stroke="rgb(233,222,209)" stroke-width="1" opacity="1" d="M 294.5 285 L 308 291.5 L 307.5 296 L 296.5 290 L 292 293.5 L 291 297.5 L 297.5 312 Q 298.8 309.8 300 312.5 L 298 312.5 L 305 327.5 L 303.5 330 L 288 296.5 L 283 290.5 L 285.5 288 L 288.5 288 L 294.5 285 Z " /><path fill="rgb(233,222,209)" stroke="rgb(233,222,209)" stroke-width="1" opacity="1" d="M 307.5 298 L 308 300.5 L 307 300.5 L 307.5 298 Z " /><path fill="rgb(233,222,209)" stroke="rgb(233,222,209)" stroke-width="1" opacity="1" d="M 341.5 343 L 343 344.5 L 346 368.5 L 347.5 370 L 378.5 371 L 381 367.5 L 384.5 354 L 387 368.5 L 385 375.5 L 380.5 381 L 374.5 384 L 361.5 385 L 357 383.5 L 374 379.5 Q 368.8 375.8 358.5 377 L 357.5 378 L 344 378 L 343 359.5 L 340 344.5 L 341.5 343 Z " /><path fill="rgb(233,222,209)" stroke="rgb(233,222,209)" stroke-width="1" opacity="1" d="M 293 346 L 298 347 L 299 350.5 L 300 381.5 L 301 382.5 L 301 392.5 L 302 393.5 L 303 432.5 L 305 442.5 L 303.5 444 L 294.5 446 L 276.5 447 L 276.5 446 Q 289.2 443.5 298 438 L 295 420.5 L 294 399.5 L 293 398.5 L 292 354.5 L 293 353.5 L 293 346 Z " /><path fill="rgb(233,222,209)" stroke="rgb(233,222,209)" stroke-width="1" opacity="1" d="M 146.5 348 L 147.5 350 L 146.5 348 Z " /><path fill="rgb(233,222,209)" stroke="rgb(233,222,209)" stroke-width="1" opacity="1" d="M 358.5 352 L 363 352.5 L 358.5 353 L 358.5 352 Z " /><path fill="rgb(233,222,209)" stroke="rgb(233,222,209)" stroke-width="1" opacity="1" d="M 158.5 360 L 159.5 362 L 158.5 360 Z " /><path fill="rgb(233,222,209)" stroke="rgb(233,222,209)" stroke-width="1" opacity="1" d="M 337.5 371 L 338 380 L 329 381 L 328 372.5 L 329 372.5 Q 328.2 375.1 331.5 374 L 337.5 371 Z " /><path fill="rgb(233,222,209)" stroke="rgb(233,222,209)" stroke-width="1" opacity="1" d="M 329.5 392 L 328.5 394 L 329.5 392 Z " /><path fill="rgb(233,222,209)" stroke="rgb(233,222,209)" stroke-width="1" opacity="1" d="M 310.5 397 Q 315.9 395.1 315 398.5 L 319 414.5 L 320 424.5 L 316.5 427 L 308 428 L 307 398 L 310.5 397 Z " /><path fill="rgb(244,244,244)" stroke="rgb(244,244,244)" stroke-width="1" opacity="1" d="M 161.5 136 L 160.5 138 L 161.5 136 Z " /><path fill="rgb(244,244,244)" stroke="rgb(244,244,244)" stroke-width="1" opacity="1" d="M 146.5 151 L 145.5 153 L 146.5 151 Z " /><path fill="rgb(244,244,244)" stroke="rgb(244,244,244)" stroke-width="1" opacity="1" d="M 398.5 242 L 399 244.5 L 398 244.5 L 398.5 242 Z " /><path fill="rgb(244,244,244)" stroke="rgb(244,244,244)" stroke-width="1" opacity="1" d="M 398.5 255 L 399 257.5 L 398 257.5 L 398.5 255 Z " /><path fill="rgb(244,244,244)" stroke="rgb(244,244,244)" stroke-width="1" opacity="1" d="M 296.5 293 L 295.5 295 L 296.5 293 Z " /><path fill="rgb(244,244,244)" stroke="rgb(244,244,244)" stroke-width="1" opacity="1" d="M 291.5 295 L 292 297.5 L 291 297.5 L 291.5 295 Z " /><path fill="rgb(244,244,244)" stroke="rgb(244,244,244)" stroke-width="1" opacity="1" d="M 306.5 295 L 308 297.5 L 307 297.5 L 306.5 295 Z " /><path fill="rgb(244,244,244)" stroke="rgb(244,244,244)" stroke-width="1" opacity="1" d="M 383.5 328 L 384.5 330 L 383.5 328 Z " /><path fill="rgb(244,244,244)" stroke="rgb(244,244,244)" stroke-width="1" opacity="1" d="M 367.5 341 Q 369.8 340.3 369 342.5 L 367.5 341 Z " /><path fill="rgb(244,244,244)" stroke="rgb(244,244,244)" stroke-width="1" opacity="1" d="M 292.5 346 L 293 353.5 L 292 353.5 L 292.5 346 Z " /><path fill="rgb(244,244,244)" stroke="rgb(244,244,244)" stroke-width="1" opacity="1" d="M 343.5 347 L 344 349.5 L 343 349.5 L 343.5 347 Z " /><path fill="rgb(244,244,244)" stroke="rgb(244,244,244)" stroke-width="1" opacity="1" d="M 344.5 353 L 345 355.5 L 344 355.5 L 344.5 353 Z " /><path fill="rgb(244,244,244)" stroke="rgb(244,244,244)" stroke-width="1" opacity="1" d="M 383.5 353 L 384 356.5 L 383 356.5 L 383.5 353 Z " /><path fill="rgb(244,244,244)" stroke="rgb(244,244,244)" stroke-width="1" opacity="1" d="M 352.5 354 L 351.5 356 L 352.5 354 Z " /><path fill="rgb(244,244,244)" stroke="rgb(244,244,244)" stroke-width="1" opacity="1" d="M 353.5 356 L 356 356.5 L 353.5 357 L 353.5 356 Z " /><path fill="rgb(244,244,244)" stroke="rgb(244,244,244)" stroke-width="1" opacity="1" d="M 346.5 366 L 347 369 L 351 369.5 L 347.5 370 Q 345 369 346.5 366 Z " /><path fill="rgb(244,244,244)" stroke="rgb(244,244,244)" stroke-width="1" opacity="1" d="M 362.5 370 L 371 370.5 L 362.5 371 L 362.5 370 Z " /><path fill="rgb(244,244,244)" stroke="rgb(244,244,244)" stroke-width="1" opacity="1" d="M 292.5 375 L 293 389.5 L 292 389.5 L 292.5 375 Z " /><path fill="rgb(244,244,244)" stroke="rgb(244,244,244)" stroke-width="1" opacity="1" d="M 293.5 399 L 294 405.5 L 293 405.5 L 293.5 399 Z " /><path fill="rgb(244,244,244)" stroke="rgb(244,244,244)" stroke-width="1" opacity="1" d="M 294.5 411 L 295 414.5 L 294 414.5 L 294.5 411 Z " /><path fill="rgb(244,244,244)" stroke="rgb(244,244,244)" stroke-width="1" opacity="1" d="M 295.5 421 L 296 423.5 L 295 423.5 L 295.5 421 Z " /><path fill="rgb(244,244,244)" stroke="rgb(244,244,244)" stroke-width="1" opacity="1" d="M 296.5 428 L 297 430.5 L 296 430.5 L 296.5 428 Z " /><path fill="rgb(255,255,255)" stroke="rgb(255,255,255)" stroke-width="1" opacity="1" d="M 0 0 L 512 0 L 512 512 L 0 512 L 0 0 Z M 258 57 L 241 60 L 224 66 L 192 84 Q 181 91 177 105 L 174 107 Q 162 116 162 136 Q 140 154 126 181 L 115 209 L 110 234 L 110 267 L 117 299 Q 131 338 160 363 L 161 367 L 161 386 L 163 391 L 201 408 L 209 410 L 221 410 L 233 451 L 238 453 L 254 456 L 292 456 L 293 455 L 301 455 L 309 452 L 313 447 L 312 438 L 326 432 L 328 428 L 328 421 L 324 406 L 324 397 L 329 394 L 331 388 L 341 385 L 350 385 L 351 388 L 354 390 Q 359 389 361 391 Q 376 393 385 388 L 392 379 L 395 367 L 395 358 L 393 350 L 385 330 L 379 325 Q 388 311 393 293 L 397 276 L 398 259 L 399 258 L 399 243 L 398 242 L 397 225 L 389 196 Q 376 164 353 143 L 352 130 L 348 112 Q 344 99 336 90 Q 323 73 304 63 L 291 59 L 279 58 L 278 57 L 258 57 Z " /><path fill="rgb(255,255,255)" stroke="rgb(255,255,255)" stroke-width="1" opacity="1" d="M 218.5 257 L 221.5 259 L 235.5 260 L 238 261.5 L 237 265 Q 225.6 264.6 218 260 L 218.5 257 Z " /><path fill="rgb(255,255,255)" stroke="rgb(255,255,255)" stroke-width="1" opacity="1" d="M 295.5 291 L 307 296.5 L 307 313.5 L 304.5 325 L 298 312.5 L 299.5 313 Q 304.9 314.9 304 311.5 L 305 309.5 L 304 307 Q 299.4 305.8 298 308.5 L 297.5 311 L 293 301.5 L 292 294.5 L 293 292 L 295.5 291 Z M 297 293 Q 294 294 295 298 Q 295 301 300 300 Q 303 300 302 296 Q 301 292 297 293 Z " /><path fill="rgb(255,255,255)" stroke="rgb(255,255,255)" stroke-width="1" opacity="1" d="M 368.5 331 Q 376 331.5 379 336.5 L 384 352.5 L 382 363.5 L 379 371 L 371.5 371 L 370.5 370 L 351.5 370 L 347 369 L 343 342.5 L 368.5 331 Z M 368 341 Q 366 344 361 342 L 352 346 L 348 351 L 353 351 L 367 343 L 369 343 Q 370 340 368 341 Z M 359 352 L 351 356 L 354 357 L 370 356 L 373 355 L 365 352 L 359 352 Z M 359 362 L 353 364 Q 350 363 351 366 L 375 366 L 369 363 L 359 362 Z " /><path fill="rgb(255,255,255)" stroke="rgb(255,255,255)" stroke-width="1" opacity="1" d="M 256.5 345 L 285.5 345 L 292 346 L 293 405.5 L 294 406.5 L 296 430.5 L 298 436.5 Q 288.1 443.6 274.5 447 L 263.5 447 L 241.5 443 L 238 440.5 L 227 399.5 L 220 350 L 237.5 347 L 244.5 347 L 245.5 346 L 255.5 346 L 256.5 345 Z " /><path fill="rgb(255,255,255)" stroke="rgb(255,255,255)" stroke-width="1" opacity="1" d="M 325 345 Q 331.1 343.3 333 346.5 L 337 358.5 L 338 371 L 329 374 L 328 371.5 L 325 345 Z " /><path fill="rgb(239,213,182)" stroke="rgb(239,213,182)" stroke-width="1" opacity="1" d="M 278.5 76 L 295.5 76 L 311.5 79 L 324 90.5 L 328 95.5 L 326.5 95 Q 319 95.5 316 100.5 Q 313.2 103.2 314 109.5 L 317 110.5 L 317.5 112 Q 320.5 109 326.5 109 Q 335.9 111.1 341 117.5 L 344 123.5 L 346 134.5 L 347 161.5 L 346 162.5 L 345 181.5 L 340 201.5 L 333 217.5 L 318.5 238 L 299.5 249 L 284.5 253 L 275.5 253 Q 253.3 248.2 241 233.5 L 225.5 214 L 225 216.5 L 232 230.5 L 246.5 246 L 253 250.5 Q 245.2 250.4 241 253 L 240.5 255 L 229.5 255 L 224.5 253 L 223 253.5 L 224 252.5 L 219 247.5 Q 211.3 238.2 207 225.5 L 203 209.5 L 202 198.5 L 200.5 197 L 199.5 199 L 199 197.5 Q 201.3 196.3 198.5 195 L 194.5 196 L 187.5 201 L 183.5 201 Q 175.6 198.9 172 192.5 L 172 190.5 Q 170.1 176.1 175.5 169 L 178.5 168 L 178 169.5 L 177 179.5 L 180.5 188 L 181 176.5 L 184.5 171 L 188 172.5 L 192.5 181 L 194 180.5 L 194 173.5 L 188 164.5 L 189.5 165 L 195 167.5 L 196 173 L 206.5 172 L 210 168.5 Q 209.5 158.5 206 151.5 L 206 140.5 L 209 125.5 L 215 112.5 Q 222.3 99.8 233.5 91 L 249.5 82 L 263.5 78 L 277.5 77 L 278.5 76 Z M 248 101 L 241 105 Q 235 109 232 117 L 232 125 L 234 124 L 233 126 L 236 130 L 240 123 Q 244 115 253 113 L 263 113 L 263 109 L 256 101 L 248 101 Z M 270 130 L 269 134 L 261 137 Q 257 139 258 146 L 265 149 Q 271 150 274 147 L 276 151 L 275 153 L 260 152 Q 257 153 258 158 L 264 161 Q 269 160 271 162 L 279 160 L 283 156 L 283 151 L 275 142 L 270 130 Z M 334 130 L 333 134 L 328 136 Q 323 138 324 145 L 328 147 L 336 144 L 337 148 L 323 150 Q 322 156 327 157 L 336 157 L 343 153 L 344 151 L 334 130 Z M 303 135 L 301 137 L 301 143 L 305 154 L 325 180 L 324 186 Q 315 192 304 195 Q 297 196 294 194 Q 291 193 292 189 L 298 184 Q 300 185 299 181 L 295 177 Q 290 179 291 186 L 290 185 L 288 188 Q 286 198 292 201 L 301 201 L 311 199 L 329 190 L 331 188 L 333 182 L 333 177 L 312 153 L 305 141 L 305 138 L 303 135 Z M 336 195 L 321 203 L 313 205 L 311 206 L 311 215 L 319 214 L 328 209 L 337 197 Q 338 194 336 195 Z M 269 201 L 269 203 L 279 211 L 293 215 L 308 215 L 308 207 L 307 205 L 285 205 L 269 201 Z M 256 204 L 254 206 L 255 214 L 258 217 Q 260 216 259 211 L 263 206 L 263 204 L 256 204 Z M 266 209 L 263 210 L 274 226 Q 278 230 285 231 Q 301 233 311 228 L 313 223 L 290 223 L 280 221 L 273 217 L 269 212 L 266 209 Z " /><path fill="rgb(239,213,182)" stroke="rgb(239,213,182)" stroke-width="1" opacity="1" d="M 221.5 87 L 214.5 95 L 221.5 87 Z " /><path fill="rgb(239,213,182)" stroke="rgb(239,213,182)" stroke-width="1" opacity="1" d="M 241.5 110 L 238.5 114 L 241.5 110 Z " /><path fill="rgb(239,213,182)" stroke="rgb(239,213,182)" stroke-width="1" opacity="1" d="M 210.5 115 L 211 118.5 L 210 118.5 L 210.5 115 Z " /><path fill="rgb(239,213,182)" stroke="rgb(239,213,182)" stroke-width="1" opacity="1" d="M 197.5 202 L 195.5 205 L 197.5 202 Z " /><path fill="rgb(239,213,182)" stroke="rgb(239,213,182)" stroke-width="1" opacity="1" d="M 208.5 245 L 210.5 248 L 208.5 245 Z " /><path fill="rgb(239,213,182)" stroke="rgb(239,213,182)" stroke-width="1" opacity="1" d="M 300.5 257 L 298.5 260 L 293.5 264 L 282.5 264 L 275 259.5 L 276.5 260 L 284.5 261 L 300.5 257 Z " /><path fill="rgb(160,179,184)" stroke="rgb(160,179,184)" stroke-width="1" opacity="1" d="M 260.5 57 L 265 57.5 L 260.5 58 L 260.5 57 Z " /><path fill="rgb(160,179,184)" stroke="rgb(160,179,184)" stroke-width="1" opacity="1" d="M 267.5 57 L 275 57.5 L 267.5 58 L 267.5 57 Z " /><path fill="rgb(160,179,184)" stroke="rgb(160,179,184)" stroke-width="1" opacity="1" d="M 264.5 66 L 271 66.5 L 264.5 67 L 264.5 66 Z " /><path fill="rgb(160,179,184)" stroke="rgb(160,179,184)" stroke-width="1" opacity="1" d="M 321.5 75 L 323.5 78 L 321.5 75 Z " /><path fill="rgb(160,179,184)" stroke="rgb(160,179,184)" stroke-width="1" opacity="1" d="M 331.5 85 L 332.5 87 L 331.5 85 Z " /><path fill="rgb(160,179,184)" stroke="rgb(160,179,184)" stroke-width="1" opacity="1" d="M 189.5 86 L 188.5 88 L 189.5 86 Z " /><path fill="rgb(160,179,184)" stroke="rgb(160,179,184)" stroke-width="1" opacity="1" d="M 200.5 86 L 199.5 88 L 200.5 86 Z " /><path fill="rgb(160,179,184)" stroke="rgb(160,179,184)" stroke-width="1" opacity="1" d="M 206.5 88 L 205.5 90 L 206.5 88 Z " /><path fill="rgb(160,179,184)" stroke="rgb(160,179,184)" stroke-width="1" opacity="1" d="M 196.5 89 L 194.5 92 L 196.5 89 Z " /><path fill="rgb(160,179,184)" stroke="rgb(160,179,184)" stroke-width="1" opacity="1" d="M 184.5 91 L 183.5 93 L 184.5 91 Z " /><path fill="rgb(160,179,184)" stroke="rgb(160,179,184)" stroke-width="1" opacity="1" d="M 202.5 91 L 195.5 99 L 202.5 91 Z " /><path fill="rgb(160,179,184)" stroke="rgb(160,179,184)" stroke-width="1" opacity="1" d="M 213.5 95 L 212.5 97 L 213.5 95 Z " /><path fill="rgb(160,179,184)" stroke="rgb(160,179,184)" stroke-width="1" opacity="1" d="M 189.5 96 L 188.5 98 L 189.5 96 Z " /><path fill="rgb(160,179,184)" stroke="rgb(160,179,184)" stroke-width="1" opacity="1" d="M 331.5 100 L 330.5 102 L 331.5 100 Z " /><path fill="rgb(160,179,184)" stroke="rgb(160,179,184)" stroke-width="1" opacity="1" d="M 253.5 104 L 256 104.5 L 253.5 105 L 253.5 104 Z " /><path fill="rgb(160,179,184)" stroke="rgb(160,179,184)" stroke-width="1" opacity="1" d="M 173.5 107 L 169.5 112 L 173.5 107 Z " /><path fill="rgb(160,179,184)" stroke="rgb(160,179,184)" stroke-width="1" opacity="1" d="M 245.5 116 L 242.5 120 L 245.5 116 Z " /><path fill="rgb(160,179,184)" stroke="rgb(160,179,184)" stroke-width="1" opacity="1" d="M 183.5 118 L 179.5 123 L 183.5 118 Z " /><path fill="rgb(160,179,184)" stroke="rgb(160,179,184)" stroke-width="1" opacity="1" d="M 176.5 119 L 175.5 121 L 176.5 119 Z " /><path fill="rgb(160,179,184)" stroke="rgb(160,179,184)" stroke-width="1" opacity="1" d="M 178.5 124 L 177.5 126 L 178.5 124 Z " /><path fill="rgb(160,179,184)" stroke="rgb(160,179,184)" stroke-width="1" opacity="1" d="M 171.5 134 L 172 142.5 L 171 142.5 L 171.5 134 Z " /><path fill="rgb(160,179,184)" stroke="rgb(160,179,184)" stroke-width="1" opacity="1" d="M 173.5 136 L 174 139.5 L 173 139.5 L 173.5 136 Z " /><path fill="rgb(160,179,184)" stroke="rgb(160,179,184)" stroke-width="1" opacity="1" d="M 157.5 140 L 149.5 149 L 157.5 140 Z " /><path fill="rgb(160,179,184)" stroke="rgb(160,179,184)" stroke-width="1" opacity="1" d="M 173.5 146 L 174 149.5 L 172 150.5 L 173.5 146 Z " /><path fill="rgb(160,179,184)" stroke="rgb(160,179,184)" stroke-width="1" opacity="1" d="M 346.5 146 L 347 152.5 L 346 152.5 L 346.5 146 Z " /><path fill="rgb(160,179,184)" stroke="rgb(160,179,184)" stroke-width="1" opacity="1" d="M 358.5 148 L 360.5 151 L 358.5 148 Z " /><path fill="rgb(160,179,184)" stroke="rgb(160,179,184)" stroke-width="1" opacity="1" d="M 269.5 153 L 273 153.5 L 269.5 154 L 269.5 153 Z " /><path fill="rgb(160,179,184)" stroke="rgb(160,179,184)" stroke-width="1" opacity="1" d="M 190.5 158 L 191.5 160 L 190.5 158 Z " /><path fill="rgb(160,179,184)" stroke="rgb(160,179,184)" stroke-width="1" opacity="1" d="M 346.5 162 L 347 165.5 L 346 165.5 L 346.5 162 Z " /><path fill="rgb(160,179,184)" stroke="rgb(160,179,184)" stroke-width="1" opacity="1" d="M 321.5 164 L 322.5 166 L 321.5 164 Z " /><path fill="rgb(160,179,184)" stroke="rgb(160,179,184)" stroke-width="1" opacity="1" d="M 314.5 166 L 315.5 168 L 314.5 166 Z " /><path fill="rgb(160,179,184)" stroke="rgb(160,179,184)" stroke-width="1" opacity="1" d="M 183.5 171 L 182.5 173 L 183.5 171 Z " /><path fill="rgb(160,179,184)" stroke="rgb(160,179,184)" stroke-width="1" opacity="1" d="M 319.5 172 L 320.5 174 L 319.5 172 Z " /><path fill="rgb(160,179,184)" stroke="rgb(160,179,184)" stroke-width="1" opacity="1" d="M 191.5 179 L 194 180.5 L 192.5 181 L 191.5 179 Z " /><path fill="rgb(160,179,184)" stroke="rgb(160,179,184)" stroke-width="1" opacity="1" d="M 289.5 185 L 290.5 187 L 289.5 185 Z " /><path fill="rgb(160,179,184)" stroke="rgb(160,179,184)" stroke-width="1" opacity="1" d="M 174.5 195 L 175.5 197 L 174.5 195 Z " /><path fill="rgb(160,179,184)" stroke="rgb(160,179,184)" stroke-width="1" opacity="1" d="M 290.5 199 L 295 200.5 L 291.5 201 L 290.5 199 Z " /><path fill="rgb(160,179,184)" stroke="rgb(160,179,184)" stroke-width="1" opacity="1" d="M 294.5 205 L 306.5 205 L 308 206.5 L 307.5 208 L 307 206 L 294.5 206 L 294.5 205 Z " /><path fill="rgb(160,179,184)" stroke="rgb(160,179,184)" stroke-width="1" opacity="1" d="M 329.5 206 L 327.5 209 L 329.5 206 Z " /><path fill="rgb(160,179,184)" stroke="rgb(160,179,184)" stroke-width="1" opacity="1" d="M 193.5 207 L 194 209.5 L 193 209.5 L 193.5 207 Z " /><path fill="rgb(160,179,184)" stroke="rgb(160,179,184)" stroke-width="1" opacity="1" d="M 311.5 214 L 314 214.5 L 311.5 215 L 311.5 214 Z " /><path fill="rgb(160,179,184)" stroke="rgb(160,179,184)" stroke-width="1" opacity="1" d="M 274.5 225 L 275.5 227 L 274.5 225 Z " /><path fill="rgb(160,179,184)" stroke="rgb(160,179,184)" stroke-width="1" opacity="1" d="M 311.5 226 L 310.5 228 L 311.5 226 Z " /><path fill="rgb(160,179,184)" stroke="rgb(160,179,184)" stroke-width="1" opacity="1" d="M 232.5 230 L 233.5 232 L 232.5 230 Z " /><path fill="rgb(160,179,184)" stroke="rgb(160,179,184)" stroke-width="1" opacity="1" d="M 238.5 230 L 240.5 233 L 238.5 230 Z " /><path fill="rgb(160,179,184)" stroke="rgb(160,179,184)" stroke-width="1" opacity="1" d="M 321.5 234 L 320.5 236 L 321.5 234 Z " /><path fill="rgb(160,179,184)" stroke="rgb(160,179,184)" stroke-width="1" opacity="1" d="M 110.5 235 L 111 237.5 L 110 237.5 L 110.5 235 Z " /><path fill="rgb(160,179,184)" stroke="rgb(160,179,184)" stroke-width="1" opacity="1" d="M 245.5 237 L 247.5 240 L 245.5 237 Z " /><path fill="rgb(160,179,184)" stroke="rgb(160,179,184)" stroke-width="1" opacity="1" d="M 239.5 238 L 246.5 246 L 239.5 238 Z " /><path fill="rgb(160,179,184)" stroke="rgb(160,179,184)" stroke-width="1" opacity="1" d="M 317.5 238 L 316.5 240 L 317.5 238 Z " /><path fill="rgb(160,179,184)" stroke="rgb(160,179,184)" stroke-width="1" opacity="1" d="M 228.5 259 L 231 259.5 L 228.5 260 L 228.5 259 Z " /><path fill="rgb(160,179,184)" stroke="rgb(160,179,184)" stroke-width="1" opacity="1" d="M 110.5 262 L 111 264.5 L 110 264.5 L 110.5 262 Z " /><path fill="rgb(160,179,184)" stroke="rgb(160,179,184)" stroke-width="1" opacity="1" d="M 287.5 264 L 292 264.5 L 287.5 265 L 287.5 264 Z " /><path fill="rgb(160,179,184)" stroke="rgb(160,179,184)" stroke-width="1" opacity="1" d="M 285.5 287 L 289 287.5 Q 284.8 287.3 283.5 290 L 285.5 287 Z " /><path fill="rgb(160,179,184)" stroke="rgb(160,179,184)" stroke-width="1" opacity="1" d="M 314.5 290 L 321.5 290 L 329 295.5 L 324 306.5 L 308.5 330 L 308 328.5 L 311 316.5 L 312 296.5 L 314.5 290 Z " /><path fill="rgb(160,179,184)" stroke="rgb(160,179,184)" stroke-width="1" opacity="1" d="M 299.5 293 L 300.5 295 L 299.5 293 Z " /><path fill="rgb(160,179,184)" stroke="rgb(160,179,184)" stroke-width="1" opacity="1" d="M 277.5 295 Q 279.8 294.3 279 296.5 L 286 306.5 L 297 331.5 L 294.5 332 Q 274.9 325.4 259 316 Q 260 305.4 268.5 301 L 277.5 295 Z " /><path fill="rgb(160,179,184)" stroke="rgb(160,179,184)" stroke-width="1" opacity="1" d="M 307.5 301 L 308 305.5 L 307 305.5 L 307.5 301 Z " /><path fill="rgb(160,179,184)" stroke="rgb(160,179,184)" stroke-width="1" opacity="1" d="M 378.5 324 L 379.5 326 L 378.5 324 Z " /><path fill="rgb(160,179,184)" stroke="rgb(160,179,184)" stroke-width="1" opacity="1" d="M 376.5 333 L 378.5 336 L 376.5 333 Z " /><path fill="rgb(160,179,184)" stroke="rgb(160,179,184)" stroke-width="1" opacity="1" d="M 341.5 342 L 339.5 345 L 341.5 342 Z " /><path fill="rgb(160,179,184)" stroke="rgb(160,179,184)" stroke-width="1" opacity="1" d="M 142.5 343 L 143.5 345 L 142.5 343 Z " /><path fill="rgb(160,179,184)" stroke="rgb(160,179,184)" stroke-width="1" opacity="1" d="M 267.5 344 L 277 344.5 L 267.5 345 L 267.5 344 Z " /><path fill="rgb(160,179,184)" stroke="rgb(160,179,184)" stroke-width="1" opacity="1" d="M 325.5 344 L 332 344.5 L 325.5 345 L 325.5 344 Z " /><path fill="rgb(160,179,184)" stroke="rgb(160,179,184)" stroke-width="1" opacity="1" d="M 250.5 345 L 254 345.5 L 250.5 346 L 250.5 345 Z " /><path fill="rgb(160,179,184)" stroke="rgb(160,179,184)" stroke-width="1" opacity="1" d="M 348.5 349 L 347.5 351 L 348.5 349 Z " /><path fill="rgb(160,179,184)" stroke="rgb(160,179,184)" stroke-width="1" opacity="1" d="M 148.5 350 L 157.5 360 L 148.5 350 Z " /><path fill="rgb(160,179,184)" stroke="rgb(160,179,184)" stroke-width="1" opacity="1" d="M 299.5 357 L 300 361.5 L 299 361.5 L 299.5 357 Z " /><path fill="rgb(160,179,184)" stroke="rgb(160,179,184)" stroke-width="1" opacity="1" d="M 394.5 359 L 395 365.5 L 394 365.5 L 394.5 359 Z " /><path fill="rgb(160,179,184)" stroke="rgb(160,179,184)" stroke-width="1" opacity="1" d="M 352.5 365 L 355 365.5 L 352.5 366 L 352.5 365 Z " /><path fill="rgb(160,179,184)" stroke="rgb(160,179,184)" stroke-width="1" opacity="1" d="M 343.5 368 L 344 370.5 L 343 370.5 L 343.5 368 Z " /><path fill="rgb(160,179,184)" stroke="rgb(160,179,184)" stroke-width="1" opacity="1" d="M 161.5 376 L 162 382.5 L 161 382.5 L 161.5 376 Z " /><path fill="rgb(160,179,184)" stroke="rgb(160,179,184)" stroke-width="1" opacity="1" d="M 358.5 377 L 368 377.5 L 358.5 378 L 358.5 377 Z " /><path fill="rgb(160,179,184)" stroke="rgb(160,179,184)" stroke-width="1" opacity="1" d="M 300.5 378 L 301 381.5 L 300 381.5 L 300.5 378 Z " /><path fill="rgb(160,179,184)" stroke="rgb(160,179,184)" stroke-width="1" opacity="1" d="M 372.5 378 L 373.5 380 L 372.5 378 Z " /><path fill="rgb(160,179,184)" stroke="rgb(160,179,184)" stroke-width="1" opacity="1" d="M 329.5 381 L 332 381.5 L 329.5 382 L 329.5 381 Z " /><path fill="rgb(160,179,184)" stroke="rgb(160,179,184)" stroke-width="1" opacity="1" d="M 367.5 384 L 371 384.5 L 367.5 385 L 367.5 384 Z " /><path fill="rgb(160,179,184)" stroke="rgb(160,179,184)" stroke-width="1" opacity="1" d="M 331.5 387 L 331 388.5 L 330.5 390 L 330 388.5 L 331.5 387 Z " /><path fill="rgb(160,179,184)" stroke="rgb(160,179,184)" stroke-width="1" opacity="1" d="M 301.5 390 L 302 392.5 L 301 392.5 L 301.5 390 Z " /><path fill="rgb(160,179,184)" stroke="rgb(160,179,184)" stroke-width="1" opacity="1" d="M 362.5 390 L 367 390.5 L 362.5 391 L 362.5 390 Z " /><path fill="rgb(160,179,184)" stroke="rgb(160,179,184)" stroke-width="1" opacity="1" d="M 371.5 390 L 374 390.5 L 371.5 391 L 371.5 390 Z " /><path fill="rgb(160,179,184)" stroke="rgb(160,179,184)" stroke-width="1" opacity="1" d="M 313.5 396 L 316 397.5 L 315.5 399 L 315 397 L 313.5 396 Z " /><path fill="rgb(160,179,184)" stroke="rgb(160,179,184)" stroke-width="1" opacity="1" d="M 323.5 398 L 324 401.5 L 323 401.5 L 323.5 398 Z " /><path fill="rgb(160,179,184)" stroke="rgb(160,179,184)" stroke-width="1" opacity="1" d="M 302.5 408 L 303 416.5 L 302 416.5 L 302.5 408 Z " /><path fill="rgb(160,179,184)" stroke="rgb(160,179,184)" stroke-width="1" opacity="1" d="M 210.5 409 L 213 409.5 L 210.5 410 L 210.5 409 Z " /><path fill="rgb(160,179,184)" stroke="rgb(160,179,184)" stroke-width="1" opacity="1" d="M 307.5 418 L 308 422.5 L 307 422.5 L 307.5 418 Z " /><path fill="rgb(160,179,184)" stroke="rgb(160,179,184)" stroke-width="1" opacity="1" d="M 319.5 418 L 320 421.5 L 319 421.5 L 319.5 418 Z " /><path fill="rgb(160,179,184)" stroke="rgb(160,179,184)" stroke-width="1" opacity="1" d="M 303.5 430 L 304 432.5 L 303 432.5 L 303.5 430 Z " /><path fill="rgb(160,179,184)" stroke="rgb(160,179,184)" stroke-width="1" opacity="1" d="M 288.5 446 L 291 446.5 L 288.5 447 L 288.5 446 Z " /><path fill="rgb(160,179,184)" stroke="rgb(160,179,184)" stroke-width="1" opacity="1" d="M 310.5 449 L 309.5 451 L 310.5 449 Z " /><path fill="rgb(160,179,184)" stroke="rgb(160,179,184)" stroke-width="1" opacity="1" d="M 255.5 455 L 258 455.5 L 255.5 456 L 255.5 455 Z " /><path fill="rgb(160,179,184)" stroke="rgb(160,179,184)" stroke-width="1" opacity="1" d="M 286.5 455 L 289 455.5 L 286.5 456 L 286.5 455 Z " /><path fill="rgb(92,49,52)" stroke="rgb(92,49,52)" stroke-width="1" opacity="1" d="M 254.5 58 L 279.5 58 L 298.5 62 Q 321.4 71.1 335 89.5 Q 351.1 108.4 352 142.5 Q 376.3 164.2 389 197.5 L 394 213.5 L 397 229.5 L 398 261.5 L 392 293.5 Q 386.9 310.9 378 324.5 L 384 329.5 L 393 352.5 L 394 368.5 L 389 382.5 L 383.5 388 Q 374 392 358.5 390 L 352 387.5 L 349.5 384 L 336.5 385 L 330 388.5 Q 330.8 393.3 327.5 394 Q 323.5 393.5 323 396.5 Q 322.8 410.2 327 419.5 L 327 427.5 L 322.5 433 L 312 436 L 312 447.5 L 308.5 451 L 301.5 454 Q 296 452.5 294.5 455 L 263.5 456 L 262.5 455 L 245.5 454 L 234 451 L 221 409 L 207.5 409 L 197.5 406 L 175.5 395 L 166.5 392 L 163 388.5 L 162 386.5 L 161 362.5 Q 134.3 339.7 120 304.5 L 112 275.5 L 111 258.5 L 110 257.5 L 110 242.5 L 111 241.5 L 111 231.5 L 112 230.5 L 113 219.5 L 123 188.5 Q 137.7 156.7 163 135.5 L 163 129.5 L 167 115.5 L 174.5 107 L 178 104.5 Q 181.2 91.2 191.5 85 L 220.5 68 L 239.5 61 L 254.5 58 Z M 262 66 L 250 69 L 225 84 Q 214 91 208 103 L 210 111 L 210 122 L 206 138 L 206 154 L 209 163 L 209 170 Q 206 173 198 172 L 193 161 L 188 156 Q 177 154 173 159 L 167 166 L 165 173 Q 166 187 173 195 L 182 201 L 189 201 L 196 196 L 199 196 Q 199 204 193 207 L 193 212 L 196 223 L 206 244 Q 210 250 219 253 L 235 256 L 240 256 L 245 252 L 256 252 L 249 247 Q 234 236 226 219 L 227 215 L 236 229 Q 249 246 273 253 L 288 253 L 293 252 Q 306 248 316 241 L 323 234 L 336 213 L 342 197 L 347 171 L 347 141 L 346 140 L 345 126 L 342 119 Q 338 111 329 109 Q 320 108 317 111 L 318 107 L 324 102 L 333 102 L 322 88 Q 302 66 262 66 Z M 228 73 Q 210 78 198 88 Q 189 93 185 103 L 185 104 L 197 100 L 202 101 L 206 100 L 214 88 Q 220 80 229 77 L 228 73 Z M 200 106 Q 189 108 183 113 L 174 122 L 171 132 L 171 148 L 172 151 L 179 148 Q 189 147 194 151 Q 200 155 202 164 Q 201 166 204 165 Q 205 157 202 154 L 202 135 L 205 119 L 204 108 Q 203 105 200 106 Z M 328 241 L 320 248 L 325 249 L 331 258 L 333 268 L 333 277 L 330 287 L 335 294 L 334 298 L 311 336 Q 317 334 328 335 L 333 333 L 346 301 L 351 284 L 352 275 L 354 271 L 353 264 L 333 244 L 328 241 Z M 198 248 Q 170 260 149 279 L 159 305 L 163 321 L 167 343 L 170 382 L 202 397 L 221 401 L 219 381 L 218 380 L 218 373 L 217 372 L 217 365 L 216 364 L 216 352 L 211 349 L 207 350 L 198 350 L 197 348 L 200 345 L 205 344 L 205 342 L 202 338 L 202 334 L 213 339 L 214 338 Q 212 331 215 330 L 214 328 L 214 317 L 213 316 L 214 305 L 218 302 L 219 305 Q 221 311 218 313 L 218 340 L 219 342 L 231 340 L 238 340 L 239 339 L 282 337 L 256 324 L 251 320 L 251 316 L 256 309 L 249 308 L 244 303 L 237 277 L 212 263 L 204 254 L 198 248 Z M 217 257 L 218 261 Q 225 267 237 268 L 238 260 Q 233 258 225 259 L 217 257 Z M 299 257 L 289 260 L 278 260 L 277 259 L 275 260 L 282 264 L 287 265 L 293 265 L 302 258 L 299 257 Z M 294 285 Q 292 288 286 287 L 283 290 L 295 312 L 304 331 L 305 330 L 307 320 L 308 290 L 306 290 L 298 285 L 294 285 Z M 318 289 L 314 290 L 312 292 L 311 315 L 307 331 L 308 332 L 330 297 Q 327 290 318 289 Z M 277 295 L 266 303 L 259 312 L 258 316 Q 275 326 297 333 L 298 333 L 280 297 L 277 295 Z M 367 331 L 360 335 L 347 339 L 339 345 L 342 357 L 344 379 L 352 379 L 353 378 L 371 378 L 372 380 L 356 384 L 359 385 Q 371 387 379 383 Q 385 379 387 372 L 387 361 L 380 337 Q 378 329 367 331 Z M 262 344 L 261 345 L 249 345 L 248 346 L 233 347 L 226 349 L 221 349 L 219 351 L 222 376 L 228 408 L 238 443 L 252 446 L 267 447 L 268 448 L 292 447 L 305 444 L 304 427 L 303 426 L 303 401 L 302 400 L 302 388 L 301 387 L 301 372 L 300 371 L 300 354 Q 298 352 299 348 L 298 346 L 284 345 L 283 344 L 262 344 Z M 324 344 L 329 382 L 339 380 L 338 361 L 334 347 L 332 344 L 324 344 Z M 307 346 L 304 347 L 306 390 L 320 388 L 319 384 L 317 352 L 316 351 L 316 346 L 307 346 Z M 313 396 L 306 399 L 307 428 L 309 429 L 320 426 L 320 417 L 316 401 Q 318 394 313 396 Z " /><path fill="rgb(92,49,52)" stroke="rgb(92,49,52)" stroke-width="1" opacity="1" d="M 251.5 105 Q 259.1 104.1 262 107 L 263 113 L 255.5 112 Q 244.7 113.7 240 121.5 L 235.5 129 Q 232.8 127.8 234 122.5 Q 236.5 114.5 242.5 110 L 251.5 105 Z " /><path fill="rgb(92,49,52)" stroke="rgb(92,49,52)" stroke-width="1" opacity="1" d="M 333.5 130 L 344 150.5 Q 339.5 157.5 327.5 157 L 325 156 L 324 150 L 336.5 149 L 338 147.5 Q 332.8 140.6 333.5 130 Z " /><path fill="rgb(92,49,52)" stroke="rgb(92,49,52)" stroke-width="1" opacity="1" d="M 270.5 132 L 275 142.5 L 282 149.5 L 283 153.5 L 279.5 159 Q 274.8 162.3 265.5 161 L 258 156.5 L 259.5 152 L 260.5 153 L 273.5 154 L 277 151.5 Q 270 144.5 270.5 132 Z " /><path fill="rgb(92,49,52)" stroke="rgb(92,49,52)" stroke-width="1" opacity="1" d="M 301 136 Q 305.1 134.3 304 138.5 L 312 153.5 L 329.5 174 L 332 175.5 L 333 179.5 L 330 187.5 L 327.5 190 L 308.5 199 Q 301.8 201.3 291.5 200 Q 287 197.5 288 189.5 L 289.5 186 L 292 192.5 L 294.5 195 L 300.5 196 L 308.5 194 L 324 187 L 326 181.5 L 324 176.5 Q 312.8 166.2 305 152.5 Q 301.2 145.5 301 136 Z " /><path fill="rgb(92,49,52)" stroke="rgb(92,49,52)" stroke-width="1" opacity="1" d="M 178.5 163 L 184.5 163 L 192 169.5 L 193 179.5 L 191 178.5 L 186.5 171 Q 182.8 170.3 182 172.5 L 181 174.5 L 180.5 187 Q 176 182.5 178 171.5 L 179 168 Q 175.6 167.3 174.5 170 L 174 167.5 L 176.5 164 L 178.5 163 Z " /><path fill="rgb(92,49,52)" stroke="rgb(92,49,52)" stroke-width="1" opacity="1" d="M 334.5 196 L 336 196.5 L 326.5 209 L 316.5 214 L 311 214 L 311 205 L 315.5 205 L 334.5 196 Z " /><path fill="rgb(92,49,52)" stroke="rgb(92,49,52)" stroke-width="1" opacity="1" d="M 270.5 202 L 289.5 206 L 307 206 Q 306.1 212.2 308 215 L 296.5 215 L 285.5 213 Q 276.1 210.9 271 204.5 L 270.5 202 Z " /><path fill="rgb(92,49,52)" stroke="rgb(92,49,52)" stroke-width="1" opacity="1" d="M 264 210 Q 267.8 209.3 269 212.5 L 274.5 219 L 285.5 223 L 307.5 224 L 312.5 223 L 312 224.5 L 309.5 228 L 297.5 231 L 288.5 231 L 279.5 229 L 272 222.5 L 264 212.5 L 264 210 Z " /><path fill="rgb(92,49,52)" stroke="rgb(92,49,52)" stroke-width="1" opacity="1" d="M 296 294 Q 299.8 293 301 295.5 L 299.5 299 L 296 297.5 L 296 294 Z " /><path fill="rgb(92,49,52)" stroke="rgb(92,49,52)" stroke-width="1" opacity="1" d="M 300.5 307 L 304 309.5 L 301.5 313 L 299 312 Q 298 308.2 300.5 307 Z " /><path fill="rgb(92,49,52)" stroke="rgb(92,49,52)" stroke-width="1" opacity="1" d="M 364.5 342 L 366 342.5 L 353.5 350 L 348.5 351 L 352.5 346 L 364.5 342 Z " /><path fill="rgb(92,49,52)" stroke="rgb(92,49,52)" stroke-width="1" opacity="1" d="M 356.5 353 Q 365.8 351.8 371 354.5 L 362.5 356 L 352.5 356 L 352.5 355 L 356.5 353 Z " /><path fill="rgb(92,49,52)" stroke="rgb(92,49,52)" stroke-width="1" opacity="1" d="M 356.5 363 L 364.5 363 L 373 365.5 L 360.5 366 L 353 364.5 L 356.5 363 Z " /><path fill="rgb(97,114,126)" stroke="rgb(97,114,126)" stroke-width="1" opacity="1" d="M 261.5 66 L 264 66.5 L 261.5 67 L 261.5 66 Z " /><path fill="rgb(97,114,126)" stroke="rgb(97,114,126)" stroke-width="1" opacity="1" d="M 271.5 66 L 274 66.5 L 271.5 67 L 271.5 66 Z " /><path fill="rgb(97,114,126)" stroke="rgb(97,114,126)" stroke-width="1" opacity="1" d="M 324.5 78 L 330.5 85 L 324.5 78 Z " /><path fill="rgb(97,114,126)" stroke="rgb(97,114,126)" stroke-width="1" opacity="1" d="M 219.5 81 L 221 81.5 L 214 87.5 L 205.5 100 L 201.5 101 L 196.5 100 L 194.5 101 L 204.5 90 L 219.5 81 Z " /><path fill="rgb(97,114,126)" stroke="rgb(97,114,126)" stroke-width="1" opacity="1" d="M 316.5 82 L 321.5 88 L 316.5 82 Z " /><path fill="rgb(97,114,126)" stroke="rgb(97,114,126)" stroke-width="1" opacity="1" d="M 224.5 84 L 223.5 86 L 224.5 84 Z " /><path fill="rgb(97,114,126)" stroke="rgb(97,114,126)" stroke-width="1" opacity="1" d="M 187.5 88 L 185.5 91 L 187.5 88 Z " /><path fill="rgb(97,114,126)" stroke="rgb(97,114,126)" stroke-width="1" opacity="1" d="M 335.5 90 L 336.5 92 L 335.5 90 Z " /><path fill="rgb(97,114,126)" stroke="rgb(97,114,126)" stroke-width="1" opacity="1" d="M 325.5 92 L 326.5 94 L 325.5 92 Z " /><path fill="rgb(97,114,126)" stroke="rgb(97,114,126)" stroke-width="1" opacity="1" d="M 326.5 101 L 330 101.5 L 326.5 102 L 326.5 101 Z " /><path fill="rgb(97,114,126)" stroke="rgb(97,114,126)" stroke-width="1" opacity="1" d="M 200.5 111 Q 205.3 109.3 204 113.5 L 205 118.5 L 202 134.5 L 202 153.5 Q 205.3 157.4 204 165 Q 201.3 166.1 202 163.5 Q 200.4 154.6 193.5 151 Q 188.7 146.8 178.5 148 L 173.5 151 L 174 149.5 L 173 140.5 Q 175.5 139 174 133.5 L 177 126.5 L 185.5 117 L 200.5 111 Z " /><path fill="rgb(97,114,126)" stroke="rgb(97,114,126)" stroke-width="1" opacity="1" d="M 255.5 112 L 258 112.5 L 255.5 113 L 255.5 112 Z " /><path fill="rgb(97,114,126)" stroke="rgb(97,114,126)" stroke-width="1" opacity="1" d="M 241.5 120 L 240.5 122 L 241.5 120 Z " /><path fill="rgb(97,114,126)" stroke="rgb(97,114,126)" stroke-width="1" opacity="1" d="M 171.5 131 L 172 133.5 L 171 133.5 L 171.5 131 Z " /><path fill="rgb(97,114,126)" stroke="rgb(97,114,126)" stroke-width="1" opacity="1" d="M 269 131 L 271 131.5 L 269.5 135 L 269 131 Z " /><path fill="rgb(97,114,126)" stroke="rgb(97,114,126)" stroke-width="1" opacity="1" d="M 351.5 133 L 352 135.5 L 351 135.5 L 351.5 133 Z " /><path fill="rgb(97,114,126)" stroke="rgb(97,114,126)" stroke-width="1" opacity="1" d="M 346.5 140 L 347 145.5 L 346 145.5 L 346.5 140 Z " /><path fill="rgb(97,114,126)" stroke="rgb(97,114,126)" stroke-width="1" opacity="1" d="M 352.5 142 L 357.5 148 L 352.5 142 Z " /><path fill="rgb(97,114,126)" stroke="rgb(97,114,126)" stroke-width="1" opacity="1" d="M 171.5 143 L 172 147.5 L 171 147.5 L 171.5 143 Z " /><path fill="rgb(97,114,126)" stroke="rgb(97,114,126)" stroke-width="1" opacity="1" d="M 337.5 147 L 336.5 149 L 337.5 147 Z " /><path fill="rgb(97,114,126)" stroke="rgb(97,114,126)" stroke-width="1" opacity="1" d="M 327.5 149 L 331 149.5 L 327.5 150 L 327.5 149 Z " /><path fill="rgb(97,114,126)" stroke="rgb(97,114,126)" stroke-width="1" opacity="1" d="M 323.5 150 L 324 152.5 L 323 152.5 L 323.5 150 Z " /><path fill="rgb(97,114,126)" stroke="rgb(97,114,126)" stroke-width="1" opacity="1" d="M 260.5 152 L 263 152.5 L 260.5 153 L 260.5 152 Z " /><path fill="rgb(97,114,126)" stroke="rgb(97,114,126)" stroke-width="1" opacity="1" d="M 145.5 153 L 144.5 155 L 145.5 153 Z " /><path fill="rgb(97,114,126)" stroke="rgb(97,114,126)" stroke-width="1" opacity="1" d="M 312.5 153 L 313.5 155 L 312.5 153 Z " /><path fill="rgb(97,114,126)" stroke="rgb(97,114,126)" stroke-width="1" opacity="1" d="M 363.5 154 L 364.5 156 L 363.5 154 Z " /><path fill="rgb(97,114,126)" stroke="rgb(97,114,126)" stroke-width="1" opacity="1" d="M 315.5 157 L 316.5 159 L 315.5 157 Z " /><path fill="rgb(97,114,126)" stroke="rgb(97,114,126)" stroke-width="1" opacity="1" d="M 141.5 158 L 140.5 160 L 141.5 158 Z " /><path fill="rgb(97,114,126)" stroke="rgb(97,114,126)" stroke-width="1" opacity="1" d="M 367.5 159 L 368.5 161 L 367.5 159 Z " /><path fill="rgb(97,114,126)" stroke="rgb(97,114,126)" stroke-width="1" opacity="1" d="M 170.5 161 L 169.5 163 L 170.5 161 Z " /><path fill="rgb(97,114,126)" stroke="rgb(97,114,126)" stroke-width="1" opacity="1" d="M 188.5 165 L 189.5 167 L 188.5 165 Z " /><path fill="rgb(97,114,126)" stroke="rgb(97,114,126)" stroke-width="1" opacity="1" d="M 346.5 166 L 347 170.5 L 346 170.5 L 346.5 166 Z " /><path fill="rgb(97,114,126)" stroke="rgb(97,114,126)" stroke-width="1" opacity="1" d="M 173.5 168 L 174 170.5 L 173 170.5 L 173.5 168 Z " /><path fill="rgb(97,114,126)" stroke="rgb(97,114,126)" stroke-width="1" opacity="1" d="M 326.5 170 L 329.5 174 L 326.5 170 Z " /><path fill="rgb(97,114,126)" stroke="rgb(97,114,126)" stroke-width="1" opacity="1" d="M 196.5 171 L 201 172.5 L 197.5 173 L 196.5 171 Z " /><path fill="rgb(97,114,126)" stroke="rgb(97,114,126)" stroke-width="1" opacity="1" d="M 165.5 172 L 166 174.5 L 165 174.5 L 165.5 172 Z " /><path fill="rgb(97,114,126)" stroke="rgb(97,114,126)" stroke-width="1" opacity="1" d="M 193.5 174 L 194 179.5 L 193 179.5 L 193.5 174 Z " /><path fill="rgb(97,114,126)" stroke="rgb(97,114,126)" stroke-width="1" opacity="1" d="M 321.5 174 L 323.5 177 L 321.5 174 Z " /><path fill="rgb(97,114,126)" stroke="rgb(97,114,126)" stroke-width="1" opacity="1" d="M 177.5 175 L 178 178.5 L 177 178.5 L 177.5 175 Z " /><path fill="rgb(97,114,126)" stroke="rgb(97,114,126)" stroke-width="1" opacity="1" d="M 330.5 186 L 331 187.5 L 329 188.5 L 330.5 186 Z " /><path fill="rgb(97,114,126)" stroke="rgb(97,114,126)" stroke-width="1" opacity="1" d="M 297.5 195 L 301 195.5 L 297.5 196 L 297.5 195 Z " /><path fill="rgb(97,114,126)" stroke="rgb(97,114,126)" stroke-width="1" opacity="1" d="M 295.5 200 L 299 200.5 L 295.5 201 L 295.5 200 Z " /><path fill="rgb(97,114,126)" stroke="rgb(97,114,126)" stroke-width="1" opacity="1" d="M 332.5 202 L 331.5 204 L 332.5 202 Z " /><path fill="rgb(97,114,126)" stroke="rgb(97,114,126)" stroke-width="1" opacity="1" d="M 289.5 205 L 294 205.5 L 289.5 206 L 289.5 205 Z " /><path fill="rgb(97,114,126)" stroke="rgb(97,114,126)" stroke-width="1" opacity="1" d="M 307.5 208 L 308 212.5 L 307 212.5 L 307.5 208 Z " /><path fill="rgb(97,114,126)" stroke="rgb(97,114,126)" stroke-width="1" opacity="1" d="M 325.5 209 L 324.5 211 L 325.5 209 Z " /><path fill="rgb(97,114,126)" stroke="rgb(97,114,126)" stroke-width="1" opacity="1" d="M 295.5 223 L 308 223.5 L 295.5 224 L 295.5 223 Z " /><path fill="rgb(97,114,126)" stroke="rgb(97,114,126)" stroke-width="1" opacity="1" d="M 236.5 228 L 237.5 230 L 236.5 228 Z " /><path fill="rgb(97,114,126)" stroke="rgb(97,114,126)" stroke-width="1" opacity="1" d="M 285.5 230 L 288 230.5 L 285.5 231 L 285.5 230 Z " /><path fill="rgb(97,114,126)" stroke="rgb(97,114,126)" stroke-width="1" opacity="1" d="M 234.5 232 L 235.5 234 L 234.5 232 Z " /><path fill="rgb(97,114,126)" stroke="rgb(97,114,126)" stroke-width="1" opacity="1" d="M 397.5 235 L 398 238.5 L 397 238.5 L 397.5 235 Z " /><path fill="rgb(97,114,126)" stroke="rgb(97,114,126)" stroke-width="1" opacity="1" d="M 110.5 238 L 111 241.5 L 110 241.5 L 110.5 238 Z " /><path fill="rgb(97,114,126)" stroke="rgb(97,114,126)" stroke-width="1" opacity="1" d="M 248.5 240 L 249.5 242 L 248.5 240 Z " /><path fill="rgb(97,114,126)" stroke="rgb(97,114,126)" stroke-width="1" opacity="1" d="M 327.5 241 L 332.5 244 L 353 263.5 L 354 270.5 L 352 274.5 L 351 283.5 L 346 300.5 L 333 333 L 327.5 335 Q 316.5 333.7 311 336 L 334 297.5 L 335 293.5 L 330 286.5 L 333 276.5 L 333 267.5 L 331 257.5 L 324.5 249 L 320 247.5 L 327.5 241 Z " /><path fill="rgb(97,114,126)" stroke="rgb(97,114,126)" stroke-width="1" opacity="1" d="M 249.5 247 L 250.5 249 L 249.5 247 Z " /><path fill="rgb(97,114,126)" stroke="rgb(97,114,126)" stroke-width="1" opacity="1" d="M 197.5 248 L 204 253.5 L 211.5 263 L 237 276.5 L 244 302.5 L 248.5 308 L 256 308.5 L 251 315.5 L 251 319.5 L 255.5 324 L 282 336.5 L 238.5 339 L 237.5 340 L 230.5 340 L 219 342 L 218 339.5 L 218 312.5 Q 220.7 310.8 219 304.5 L 218 302 L 214 304.5 L 213 315.5 L 214 316.5 L 214 327.5 L 215 329.5 Q 212.3 331.3 214 337.5 L 212.5 339 L 202 334 L 202 337.5 L 205 341.5 L 205 344 L 199.5 345 L 197 347.5 L 197.5 350 L 206.5 350 L 210.5 349 L 216 351.5 L 216 363.5 L 217 364.5 L 217 371.5 L 218 372.5 L 218 379.5 L 219 380.5 L 221 401 L 201.5 397 L 170 381.5 L 167 342.5 L 163 320.5 L 159 304.5 L 149 278.5 Q 169.9 259.9 197.5 248 Z " /><path fill="rgb(97,114,126)" stroke="rgb(97,114,126)" stroke-width="1" opacity="1" d="M 253.5 250 L 252.5 252 L 247 251.5 L 253.5 250 Z " /><path fill="rgb(97,114,126)" stroke="rgb(97,114,126)" stroke-width="1" opacity="1" d="M 234.5 255 L 238 255.5 L 234.5 256 L 234.5 255 Z " /><path fill="rgb(97,114,126)" stroke="rgb(97,114,126)" stroke-width="1" opacity="1" d="M 110.5 258 L 111 261.5 L 110 261.5 L 110.5 258 Z " /><path fill="rgb(97,114,126)" stroke="rgb(97,114,126)" stroke-width="1" opacity="1" d="M 231.5 259 L 234 259.5 L 231.5 260 L 231.5 259 Z " /><path fill="rgb(97,114,126)" stroke="rgb(97,114,126)" stroke-width="1" opacity="1" d="M 218.5 260 L 219.5 262 L 218.5 260 Z " /><path fill="rgb(97,114,126)" stroke="rgb(97,114,126)" stroke-width="1" opacity="1" d="M 296.5 261 L 295.5 263 L 296.5 261 Z " /><path fill="rgb(97,114,126)" stroke="rgb(97,114,126)" stroke-width="1" opacity="1" d="M 397.5 262 L 398 264.5 L 397 264.5 L 397.5 262 Z " /><path fill="rgb(97,114,126)" stroke="rgb(97,114,126)" stroke-width="1" opacity="1" d="M 313.5 290 L 313 291.5 L 312.5 296 L 312 291.5 L 313.5 290 Z " /><path fill="rgb(97,114,126)" stroke="rgb(97,114,126)" stroke-width="1" opacity="1" d="M 283.5 291 L 284.5 293 L 283.5 291 Z " /><path fill="rgb(97,114,126)" stroke="rgb(97,114,126)" stroke-width="1" opacity="1" d="M 270.5 299 L 269.5 301 L 270.5 299 Z " /><path fill="rgb(97,114,126)" stroke="rgb(97,114,126)" stroke-width="1" opacity="1" d="M 265.5 303 L 263.5 306 L 265.5 303 Z " /><path fill="rgb(97,114,126)" stroke="rgb(97,114,126)" stroke-width="1" opacity="1" d="M 311.5 305 L 312 307.5 L 311 307.5 L 311.5 305 Z " /><path fill="rgb(97,114,126)" stroke="rgb(97,114,126)" stroke-width="1" opacity="1" d="M 307.5 306 L 308 310.5 L 307 310.5 L 307.5 306 Z " /><path fill="rgb(97,114,126)" stroke="rgb(97,114,126)" stroke-width="1" opacity="1" d="M 302.5 307 L 303.5 309 L 302.5 307 Z " /><path fill="rgb(97,114,126)" stroke="rgb(97,114,126)" stroke-width="1" opacity="1" d="M 303.5 311 L 302.5 313 L 303.5 311 Z " /><path fill="rgb(97,114,126)" stroke="rgb(97,114,126)" stroke-width="1" opacity="1" d="M 313.5 323 L 312.5 325 L 313.5 323 Z " /><path fill="rgb(97,114,126)" stroke="rgb(97,114,126)" stroke-width="1" opacity="1" d="M 304.5 329 L 303.5 331 L 304.5 329 Z " /><path fill="rgb(97,114,126)" stroke="rgb(97,114,126)" stroke-width="1" opacity="1" d="M 307 330 L 309 330.5 L 307 331.5 L 307 330 Z " /><path fill="rgb(97,114,126)" stroke="rgb(97,114,126)" stroke-width="1" opacity="1" d="M 363.5 342 L 364.5 344 L 363.5 342 Z " /><path fill="rgb(97,114,126)" stroke="rgb(97,114,126)" stroke-width="1" opacity="1" d="M 261.5 344 L 267 344.5 L 261.5 345 L 261.5 344 Z " /><path fill="rgb(97,114,126)" stroke="rgb(97,114,126)" stroke-width="1" opacity="1" d="M 277.5 344 L 283 344.5 L 277.5 345 L 277.5 344 Z " /><path fill="rgb(97,114,126)" stroke="rgb(97,114,126)" stroke-width="1" opacity="1" d="M 144.5 345 L 145.5 347 L 144.5 345 Z " /><path fill="rgb(97,114,126)" stroke="rgb(97,114,126)" stroke-width="1" opacity="1" d="M 297.5 346 L 298.5 348 L 297.5 346 Z " /><path fill="rgb(97,114,126)" stroke="rgb(97,114,126)" stroke-width="1" opacity="1" d="M 306.5 346 L 316 346 L 316 350.5 L 317 351.5 L 319 383.5 L 320 388 L 306 390 L 304 347 L 306.5 346 Z " /><path fill="rgb(97,114,126)" stroke="rgb(97,114,126)" stroke-width="1" opacity="1" d="M 220.5 349 L 220 350.5 L 219.5 353 L 219 350.5 L 220.5 349 Z " /><path fill="rgb(97,114,126)" stroke="rgb(97,114,126)" stroke-width="1" opacity="1" d="M 299.5 353 L 300 356.5 L 299 356.5 L 299.5 353 Z " /><path fill="rgb(97,114,126)" stroke="rgb(97,114,126)" stroke-width="1" opacity="1" d="M 363.5 355 L 366 355.5 L 363.5 356 L 363.5 355 Z " /><path fill="rgb(97,114,126)" stroke="rgb(97,114,126)" stroke-width="1" opacity="1" d="M 342.5 361 L 343 363.5 L 342 363.5 L 342.5 361 Z " /><path fill="rgb(97,114,126)" stroke="rgb(97,114,126)" stroke-width="1" opacity="1" d="M 355.5 365 L 360 365.5 L 355.5 366 L 355.5 365 Z " /><path fill="rgb(97,114,126)" stroke="rgb(97,114,126)" stroke-width="1" opacity="1" d="M 338.5 368 L 339 379.5 L 338 379.5 L 338.5 368 Z " /><path fill="rgb(97,114,126)" stroke="rgb(97,114,126)" stroke-width="1" opacity="1" d="M 161.5 370 L 162 375.5 L 161 375.5 L 161.5 370 Z " /><path fill="rgb(97,114,126)" stroke="rgb(97,114,126)" stroke-width="1" opacity="1" d="M 300.5 371 L 301 377.5 L 300 377.5 L 300.5 371 Z " /><path fill="rgb(97,114,126)" stroke="rgb(97,114,126)" stroke-width="1" opacity="1" d="M 343.5 371 L 344 373.5 L 343 373.5 L 343.5 371 Z " /><path fill="rgb(97,114,126)" stroke="rgb(97,114,126)" stroke-width="1" opacity="1" d="M 328.5 375 L 329 377.5 L 328 377.5 L 328.5 375 Z " /><path fill="rgb(97,114,126)" stroke="rgb(97,114,126)" stroke-width="1" opacity="1" d="M 344.5 378 L 352 378.5 L 344.5 379 L 344.5 378 Z " /><path fill="rgb(97,114,126)" stroke="rgb(97,114,126)" stroke-width="1" opacity="1" d="M 371.5 378 L 372.5 380 L 371.5 378 Z " /><path fill="rgb(97,114,126)" stroke="rgb(97,114,126)" stroke-width="1" opacity="1" d="M 342.5 384 L 350 384.5 L 342.5 385 L 342.5 384 Z " /><path fill="rgb(97,114,126)" stroke="rgb(97,114,126)" stroke-width="1" opacity="1" d="M 301.5 387 L 302 389.5 L 301 389.5 L 301.5 387 Z " /><path fill="rgb(97,114,126)" stroke="rgb(97,114,126)" stroke-width="1" opacity="1" d="M 163.5 389 L 164.5 391 L 163.5 389 Z " /><path fill="rgb(97,114,126)" stroke="rgb(97,114,126)" stroke-width="1" opacity="1" d="M 367.5 390 L 371 390.5 L 367.5 391 L 367.5 390 Z " /><path fill="rgb(97,114,126)" stroke="rgb(97,114,126)" stroke-width="1" opacity="1" d="M 307.5 397 L 309 397.5 L 307 398 L 306.5 411 L 306 398.5 L 307.5 397 Z " /><path fill="rgb(97,114,126)" stroke="rgb(97,114,126)" stroke-width="1" opacity="1" d="M 302.5 400 L 303 407.5 L 302 407.5 L 302.5 400 Z " /><path fill="rgb(97,114,126)" stroke="rgb(97,114,126)" stroke-width="1" opacity="1" d="M 213.5 409 L 221 409.5 L 213.5 410 L 213.5 409 Z " /><path fill="rgb(97,114,126)" stroke="rgb(97,114,126)" stroke-width="1" opacity="1" d="M 307.5 423 L 308 428 L 311 428.5 L 308.5 429 Q 305.6 427.6 307.5 423 Z " /><path fill="rgb(97,114,126)" stroke="rgb(97,114,126)" stroke-width="1" opacity="1" d="M 303.5 426 L 304 429.5 L 303 429.5 L 303.5 426 Z " /><path fill="rgb(97,114,126)" stroke="rgb(97,114,126)" stroke-width="1" opacity="1" d="M 325.5 430 L 323.5 433 L 325.5 430 Z " /><path fill="rgb(97,114,126)" stroke="rgb(97,114,126)" stroke-width="1" opacity="1" d="M 267.5 447 L 283 447.5 L 267.5 448 L 267.5 447 Z " /><path fill="rgb(97,114,126)" stroke="rgb(97,114,126)" stroke-width="1" opacity="1" d="M 258.5 455 L 263 455.5 L 258.5 456 L 258.5 455 Z " /><path fill="rgb(97,114,126)" stroke="rgb(97,114,126)" stroke-width="1" opacity="1" d="M 281.5 455 L 286 455.5 L 281.5 456 L 281.5 455 Z " /></svg>