<svg width="512" height="512" version="1.1" xmlns="http://www.w3.org/2000/svg" desc="Created with imagetracer.js version 1.2.6" ><path fill="rgb(252,253,254)" stroke="rgb(252,253,254)" stroke-width="1" opacity="1" d="M 243.5 139 L 356.5 139 L 370.5 143 L 379 150.5 L 383 160.5 L 378 156.5 Q 376.4 149.6 370.5 147 L 362.5 142 L 350.5 142 L 349.5 141 L 250.5 141 L 249.5 142 L 235 142 Q 235.8 145.8 232.5 147 L 229 149.5 Q 222.7 156.2 225 171.5 Q 229.3 187.7 239 198.5 L 239 201.5 L 235.5 204 L 230.5 205 L 173.5 205 L 173.5 204 L 183.5 202 L 230.5 202 L 235 198.5 Q 227 188.5 223 174.5 Q 220.6 167.4 222 156.5 L 228.5 145 L 235.5 141 L 243.5 139 Z " /><path fill="rgb(252,253,254)" stroke="rgb(252,253,254)" stroke-width="1" opacity="1" d="M 412.5 191 L 414.5 194 L 412.5 191 Z " /><path fill="rgb(252,253,254)" stroke="rgb(252,253,254)" stroke-width="1" opacity="1" d="M 416.5 195 L 420.5 200 L 416.5 195 Z " /><path fill="rgb(252,253,254)" stroke="rgb(252,253,254)" stroke-width="1" opacity="1" d="M 424.5 203 L 445.5 225 L 424.5 203 Z " /><path fill="rgb(252,253,254)" stroke="rgb(252,253,254)" stroke-width="1" opacity="1" d="M 171.5 205 L 172 209 L 165 214.5 L 162 220.5 L 162 235.5 Q 166.3 251.2 176 261.5 L 176 264.5 L 170.5 268 L 122.5 268 L 121.5 269 L 109 269 L 107.5 273 L 102 277.5 Q 96.9 284.4 99 298.5 Q 105.2 320.3 120.5 333 L 140.5 345 L 155.5 349 L 168.5 350 L 175 356.5 L 176 369.5 L 181 386.5 Q 187.8 401.2 199.5 411 Q 208 418.5 219.5 423 Q 227.1 426.4 239.5 425 L 242.5 424 L 244.5 427 Q 237.8 429.3 227.5 428 Q 202.8 421.8 189 404.5 L 178 386.5 L 174 373.5 L 172 355.5 L 170.5 354 L 167.5 352 L 151.5 351 L 133.5 345 Q 120.2 338.3 111 327.5 Q 101.8 317.2 97 302.5 L 96 283.5 Q 97.7 275.2 103.5 271 L 116.5 266 L 161.5 266 L 171 264 L 172 260.5 L 167 254.5 L 160 238.5 Q 157.5 231 159 219.5 Q 161.2 211.2 167.5 207 L 171.5 205 Z " /><path fill="rgb(252,253,254)" stroke="rgb(252,253,254)" stroke-width="1" opacity="1" d="M 452.5 231 L 456.5 236 L 452.5 231 Z " /><path fill="rgb(252,253,254)" stroke="rgb(252,253,254)" stroke-width="1" opacity="1" d="M 489.5 269 L 494.5 275 L 489.5 269 Z " /><path fill="rgb(252,253,254)" stroke="rgb(252,253,254)" stroke-width="1" opacity="1" d="M 499.5 279 L 511.5 292 L 499.5 279 Z " /><path fill="rgb(252,253,254)" stroke="rgb(252,253,254)" stroke-width="1" opacity="1" d="M 509.5 306 L 512 307.5 L 511.5 310 L 510 310.5 L 512 311.5 L 510.5 312 L 509 311.5 L 506 316.5 L 511 313.5 Q 505.6 316.3 507.5 319 L 505.5 320 L 506 318.5 L 505.5 317 Q 501.8 319 503.5 321 L 500.5 320 L 498.5 321 L 498.5 320 L 500.5 319 Q 501.7 321.3 503 318.5 L 501 317.5 L 505 316 L 505 314 L 507 314 L 507 311 Q 509.7 312.1 509 309.5 L 510 307.5 L 509.5 306 Z " /><path fill="rgb(252,253,254)" stroke="rgb(252,253,254)" stroke-width="1" opacity="1" d="M 499.5 322 L 504 322.5 L 501 323.5 L 501.5 325 L 499 324 L 501 327.5 L 498.5 326 L 497 326.5 L 498.5 329 Q 494.8 327.8 496 331.5 L 494 332.5 L 495 330.5 L 493 331.5 L 490 338.5 L 490.5 340 L 488 334 Q 491 335.3 490 331.5 L 491 331.5 L 491.5 333 L 493.5 327 L 495 327.5 L 496 325.5 L 495.5 324 L 499.5 322 Z " /><path fill="rgb(252,253,254)" stroke="rgb(252,253,254)" stroke-width="1" opacity="1" d="M 511.5 328 L 512 339.5 L 511.5 342 L 510 342.5 L 510.5 344 L 509 343.5 L 503 351.5 L 503.5 353 L 501 353.5 Q 503.3 354.8 500.5 356 L 497.5 358 L 496.5 361 L 495 360.5 L 496 362.5 L 493 363.5 Q 493.8 365.8 491.5 365 L 491.5 367 L 489 368.5 L 489.5 370 L 487.5 369 L 487.5 371 Q 485.3 370.3 486 372.5 Q 482.9 374.3 484.5 376 L 481 377.5 L 483 378.5 L 479 380.5 L 480 382.5 L 477 383.5 L 475.5 386 L 474 385.5 L 475 387.5 L 472 389.5 L 473 391.5 L 470 392.5 Q 470.8 394.8 468.5 394 L 468.5 395 L 470 395.5 L 468.5 396 L 467 395.5 L 466.5 398 L 465 397.5 L 466 399.5 L 464 399.5 Q 464.8 401.8 462.5 401 Q 459.8 402.3 462 403.5 L 460.5 406 L 459 405.5 L 458 407.5 Q 460.3 408.8 457.5 410 L 456.5 408 L 456 411 L 454 411.5 L 454.5 413 Q 452.3 412.3 453 414.5 L 450 416.5 Q 452.7 418.3 448.5 420 L 447 420.5 L 447.5 422 L 446 422.5 L 446.5 424 L 445 423.5 L 439 431.5 L 439.5 433 L 437 433.5 Q 439.2 434.7 436.5 436 L 433.5 438 L 432.5 441 L 431 440.5 L 432 442.5 L 429 443.5 Q 429.8 445.8 427.5 445 L 427.5 447 L 425 448.5 L 425.5 450 L 423.5 449 L 423.5 451 Q 421.3 450.3 422 452.5 Q 418.9 454.3 420.5 456 L 417 457.5 L 419 458.5 L 415 460.5 L 416 462.5 L 413 463.5 L 414 465.5 L 410 465.5 L 411 467.5 L 409 468.5 L 409.5 470 L 408 469.5 L 409 471.5 L 406 472.5 Q 406.8 474.8 404.5 474 L 404.5 475 L 406 475.5 L 402.5 478 L 401 477.5 L 402 480.5 L 401 480.5 L 400.5 479 L 400 481 L 397 482.5 L 398 484.5 L 395 485.5 L 394 487.5 Q 396.3 488.7 393.5 490 L 392.5 488 L 390.5 493 Q 388.3 492.3 389 494.5 L 386 496.5 Q 388.7 498.2 384.5 500 L 383 500.5 L 383.5 502 L 382 502.5 L 382.5 504 L 381 503.5 L 374.5 512 L 372.5 512 L 363 511.5 L 364.5 509 L 365.5 511 L 368 505 L 371 504.5 L 369.5 502 L 372 503 L 373.5 499 L 376 498.5 Q 373.8 497.3 376.5 496 L 378 495.5 L 376 494.5 L 380 492.5 L 379.5 491 Q 380.8 493.3 382 490.5 L 380 489.5 L 381.5 489 L 383 489.5 L 385 485.5 L 384.5 484 L 386 484.5 L 387.5 481 L 389 481.5 Q 387.9 478.2 390.5 479 L 390.5 477 L 393 476.5 L 392 474.5 L 393 474.5 L 393.5 476 L 395 474.5 L 394.5 471 Q 396.8 470.3 396 472.5 L 397 472.5 L 397 469 L 399 469 L 399 467 Q 401.7 468.1 401 465.5 L 404.5 460 L 406 459.5 Q 403.8 458.3 406.5 457 L 408 456.5 L 407.5 455 L 409.5 455 L 411 454.5 L 410.5 453 Q 412.8 453.8 412 451.5 L 418 443 L 420 442.5 Q 417.3 440.8 421.5 439 L 423 439.5 L 422 437.5 L 425 436.5 L 424.5 435 Q 426.8 435.8 426 433.5 L 429.5 428 Q 430.8 430.3 432 427.5 Q 430.8 423.8 434.5 425 L 433.5 422 L 436 423 L 437.5 419 L 440 418.5 L 439 415.5 L 441.5 413 Q 442.8 415.3 444 412.5 L 443.5 411 Q 444.8 413.3 446 410.5 L 444 409.5 L 445.5 409 L 447 409.5 L 448 407.5 L 446 406.5 L 449 405.5 L 448 404.5 L 451.5 401 L 453 401.5 Q 451.9 398.2 454.5 399 Q 452.9 397.3 456 395.5 Q 455.3 393.3 457.5 394 L 458.5 391 Q 460.8 390.3 460 392.5 L 461 392.5 L 461 389 L 463 389 L 463 387 Q 465.7 388.1 465 385.5 L 468.5 380 L 470 379.5 Q 467.8 378.2 470.5 377 L 472 376.5 L 471.5 375 L 473.5 375 L 475 374.5 L 474.5 373 L 476 372.5 L 475.5 371 L 479 368.5 L 482 363 L 484 362.5 Q 481.3 360.8 485.5 359 L 487 359.5 L 486 357.5 L 489 356.5 L 488.5 355 Q 490.8 355.8 490 353.5 L 493.5 348 Q 494.8 350.3 496 347.5 Q 494.8 343.8 498.5 345 L 497.5 342 L 500 343 L 501.5 339 L 504 338.5 L 503 335.5 L 505.5 333 Q 506.8 335.3 508 332.5 L 507.5 331 L 509 331.5 L 508 329.5 L 509.5 329 L 511 329.5 L 511.5 328 Z " /><path fill="rgb(252,253,254)" stroke="rgb(252,253,254)" stroke-width="1" opacity="1" d="M 485.5 337 L 488 338.5 L 489 340.5 L 486.5 344 L 484.5 344 Q 482.3 343.3 483 345.5 L 483.5 347 Q 481.3 346.3 482 348.5 L 482.5 350 Q 480.8 347.3 479 351.5 L 476.5 355 L 475 355.5 L 475.5 357 L 474 357.5 L 474.5 359 L 470 361.5 L 472 362.5 L 470 363.5 L 470.5 365 L 468.5 364 L 469 365.5 L 467.5 368 L 468 366.5 L 467.5 365 L 466 365.5 L 468 361.5 L 467.5 360 L 471 358.5 L 470.5 357 L 473 355.5 L 472 353.5 L 475 354.5 L 478.5 346 L 480.5 346 L 482 345.5 Q 478.3 343.8 481.5 342 Q 483.8 342.8 483 340.5 L 485 340.5 L 486 338.5 L 485.5 337 Z M 481 347 L 478 349 L 481 349 L 481 347 Z " /><path fill="rgb(252,253,254)" stroke="rgb(252,253,254)" stroke-width="1" opacity="1" d="M 511.5 348 L 512 411.5 L 509.5 415 L 508.5 413 L 506 419 L 504 419.5 Q 506.5 421 503 422.5 L 502.5 424 Q 500.7 421.2 499 425.5 L 499.5 427 Q 497.3 426.3 498 428.5 L 497 431 Q 494.3 429.9 495 432.5 L 492 437 L 490 437.5 L 490.5 439 L 486 441.5 L 488 442.5 L 484 444.5 L 485 446.5 L 484 446.5 L 483.5 445 L 481 451 L 477 453 L 477 456.5 L 476 456.5 Q 476.8 454.3 474.5 455 L 475 458.5 L 473 460.5 L 472.5 462 L 470.5 461 L 470.5 463 Q 467.9 462.2 469 465.5 L 468 468 L 464 470.5 L 456.5 481 L 455 481.5 L 455.5 483 L 453 483.5 Q 455.8 485.2 451.5 487 L 450 487.5 L 450.5 489 Q 446.8 487.8 448 491.5 L 444.5 497 L 443.5 495 L 442 499 L 440 499.5 Q 442.5 501 439 502.5 L 438.5 504 Q 436.8 501.2 435 505.5 L 435.5 507 Q 433.3 506.3 434 508.5 L 433 511 L 430.5 512 L 381.5 512 L 382 510.5 L 384 505 L 387 504.5 L 386.5 503 L 389 501.5 L 388.5 500 L 390 500.5 Q 389.3 498.3 391.5 499 L 391.5 497 L 396 494.5 L 395.5 493 Q 397.8 493.8 397 491.5 L 401.5 486 L 403 485.5 L 402.5 484 L 405 483.5 Q 402.8 482.3 405.5 481 L 407 480.5 L 405 479.5 L 409 477.5 L 408 475.5 L 411 474.5 L 410.5 473 Q 411.8 475.3 413 472.5 L 415 467 L 418 466.5 Q 415.8 465.3 418.5 464 L 421 462.5 L 422 459 Q 425 460.3 424 456.5 L 427 454.5 L 426.5 453 Q 428.8 453.8 428 451.5 L 431 447 Q 433.7 448.1 433 445.5 L 434 443 L 436 442.5 L 435.5 441 L 438 442 L 437 439.5 L 439 439.5 L 441 436.5 L 440.5 435 Q 443.1 435.7 442 433 L 445 433 L 445 431.5 Q 448.6 429.6 448 425 L 451 424.5 L 450.5 423 L 453 421.5 L 452.5 420 L 454 420.5 Q 453.3 418.3 455.5 419 L 455.5 417 L 460 414.5 L 459.5 411 Q 461.3 413.8 463 409.5 L 465.5 406 L 467 405.5 L 466.5 404 Q 468.8 404.8 468 402.5 Q 471.1 400.8 469.5 399 L 473 397.5 L 472 395.5 L 475 394.5 L 474.5 393 Q 475.8 395.3 477 392.5 L 479 387 L 482 386.5 Q 479.8 385.3 482.5 384 L 485 382.5 L 486 379 Q 489 380.3 488 376.5 L 491 374.5 L 490.5 373 Q 492.8 373.8 492 371.5 L 495 367 Q 497.7 368.1 497 365.5 L 498 363 L 500 362.5 L 499.5 361 L 502 362 L 501 359.5 L 503 359.5 L 505 356.5 L 504.5 355 Q 507.1 355.7 506 353 L 509 353 L 509 351.5 L 511.5 348 Z M 458 477 L 456 479 L 458 479 L 458 477 Z " /><path fill="rgb(252,253,254)" stroke="rgb(252,253,254)" stroke-width="1" opacity="1" d="M 464.5 363 L 465 365 L 463 364.5 L 464.5 363 Z " /><path fill="rgb(252,253,254)" stroke="rgb(252,253,254)" stroke-width="1" opacity="1" d="M 462.5 366 L 466 367.5 L 465.5 369 L 464.5 367 L 464 369 L 460.5 370 L 461 368.5 L 462.5 366 Z " /><path fill="rgb(252,253,254)" stroke="rgb(252,253,254)" stroke-width="1" opacity="1" d="M 462.5 370 L 465 370.5 L 462 371.5 L 463.5 374 L 461 373 L 460.5 377 L 460 375 L 458 375.5 L 459 378.5 L 457 380.5 L 456.5 382 L 455.5 380 L 453 381.5 L 455 382.5 L 452 383.5 L 453 385.5 L 452 385.5 Q 452.7 382.9 450 384 L 450 382 Q 452.7 383.1 452 380.5 L 451.5 379 L 454.5 380 L 454 378.5 Q 453.3 375.9 456 377 L 456.5 380 Q 459.3 378.8 457 377.5 L 456 373.5 L 459 372.5 L 459.5 371 L 460.5 373 L 462.5 370 Z " /><path fill="rgb(252,253,254)" stroke="rgb(252,253,254)" stroke-width="1" opacity="1" d="M 448.5 384 L 451 385.5 L 449 387.5 L 450.5 390 L 447.5 388 L 447.5 390 L 446 390.5 L 448 391.5 L 446.5 392 L 445 391.5 L 442 396.5 L 447 393.5 Q 441.6 396.3 443.5 399 L 441.5 400 L 442 398.5 L 441.5 397 Q 437.8 399 439.5 401 L 436.5 400 L 434.5 401 L 434.5 400 L 436.5 399 Q 437.8 401.3 439 398.5 L 437 397.5 L 441 396 L 441 394 Q 443.7 395.1 443 392.5 L 442.5 391 Q 445.8 392.1 445 389.5 L 446 387.5 L 445.5 386 L 448.5 387 L 448.5 386 L 447 385.5 L 448.5 384 Z " /><path fill="rgb(252,253,254)" stroke="rgb(252,253,254)" stroke-width="1" opacity="1" d="M 435.5 402 L 440 402.5 L 437 403.5 L 437.5 405 L 435 404 L 437 407.5 L 434.5 406 L 433 406.5 L 434.5 409 Q 430.8 407.8 432 411.5 L 430 412.5 L 431 410.5 L 429 411.5 L 426 418.5 L 426.5 420 L 424 414 Q 427 415.3 426 411.5 L 427 411.5 L 427.5 413 L 430.5 406 L 432 405.5 L 431.5 404 L 435.5 402 Z " /><path fill="rgb(252,253,254)" stroke="rgb(252,253,254)" stroke-width="1" opacity="1" d="M 421.5 417 L 424 418.5 L 425 420.5 L 421.5 426 L 421 424 Q 418.3 422.9 419 425.5 L 419.5 427 Q 417.3 426.3 418 428.5 L 418.5 430 Q 416.8 427.3 415 431.5 L 412.5 435 L 411 435.5 L 411.5 437 L 410 437.5 L 410.5 439 L 406 441.5 L 408 442.5 L 406 443.5 L 406.5 445 L 404.5 444 L 405 445.5 L 403.5 448 L 404 446.5 L 403.5 445 L 402 445.5 L 404 441.5 L 403.5 440 L 407 438.5 L 406.5 437 L 409 435.5 L 409.5 434 L 411 434.5 L 414.5 426 L 416.5 426 L 418 425.5 L 417.5 424 L 419 423.5 L 417 422.5 L 419 422 L 419.5 420 L 421 420.5 L 422 418.5 L 421.5 417 Z M 417 427 L 414 429 L 417 429 L 417 427 Z " /><path fill="rgb(252,253,254)" stroke="rgb(252,253,254)" stroke-width="1" opacity="1" d="M 509.5 421 L 512 422 L 512 430.5 L 507 439 L 504 440.5 Q 505.1 443.8 502.5 443 L 502.5 445 Q 500.3 444.3 501 446.5 L 497 449.5 L 495 452.5 L 495.5 454 L 493.5 453 L 493 456.5 L 487.5 463 L 485 463.5 L 487 464.5 L 484 466.5 Q 484.8 468.8 482.5 468 L 482.5 470 L 481 470.5 L 481.5 472 Q 480.3 469.8 479 472.5 L 477 477 L 475 477.5 L 475.5 479 L 471 481.5 L 471.5 483 Q 469.3 482.3 470 484.5 Q 466.9 486.3 468.5 488 L 466.5 487 L 466.5 489 L 464 489.5 L 465 490.5 L 462 493.5 L 460.5 497 L 459.5 495 L 458 498.5 L 458.5 500 L 456.5 499 Q 458.1 500.8 455 502.5 L 454 506 L 450 507 L 451 509.5 L 449 509.5 Q 449.8 511.8 447.5 511 L 446.5 512 L 437.5 512 L 437.5 511 L 441 509.5 L 440 507.5 L 443 506.5 L 442.5 505 Q 443.8 507.3 445 504.5 L 446.5 502 L 448 501.5 L 447.5 500 L 451 497.5 L 450.5 496 L 453 494.5 Q 452.3 492.3 454.5 493 L 454.5 491 Q 457.1 491.8 456 488.5 L 457 488.5 L 457.5 490 Q 458.4 483.9 462.5 481 Q 464.8 481.8 464 479.5 L 465.5 477 L 467 477.5 L 466 475.5 L 468 474.5 L 467.5 473 L 470 474 L 473 468.5 L 472.5 467 L 474.5 468 L 474 466.5 L 474.5 465 Q 475.8 467.2 477 464.5 L 480.5 459 L 483 458.5 L 480 457.5 L 483 456.5 L 482.5 455 L 484.5 456 L 484.5 452 L 486 452.5 Q 485.3 450.3 487.5 451 L 487.5 449 L 490 447.5 L 489 445.5 L 490 445.5 Q 489.3 447.8 491.5 447 L 491.5 445 Q 493.8 445.8 493 443.5 L 497.5 438 L 499 437.5 L 498.5 436 L 501 435.5 Q 498.7 434.3 501.5 433 L 504 432.5 L 501 431.5 L 505 429.5 L 504 427.5 L 507 426.5 L 506.5 425 Q 507.7 427.3 509 424.5 L 510 422.5 L 509.5 421 Z " /><path fill="rgb(252,253,254)" stroke="rgb(252,253,254)" stroke-width="1" opacity="1" d="M 400.5 443 L 401 445 L 399 444.5 L 400.5 443 Z " /><path fill="rgb(252,253,254)" stroke="rgb(252,253,254)" stroke-width="1" opacity="1" d="M 398.5 446 L 402 447.5 L 401.5 449 L 400.5 447 L 400 449 L 396.5 450 L 397 448.5 L 398.5 446 Z " /><path fill="rgb(252,253,254)" stroke="rgb(252,253,254)" stroke-width="1" opacity="1" d="M 398.5 450 L 401 450.5 L 398 451.5 L 399.5 454 L 397 453 L 396.5 457 L 396 455 L 394 455.5 L 395 458.5 L 393 460.5 L 392.5 462 L 391.5 460 L 389 461.5 L 391 462.5 L 388 463.5 L 389 465.5 L 388 465.5 Q 388.7 462.9 386 464 L 386 462 Q 388.7 463.1 388 460.5 L 387.5 459 L 390.5 460 L 390 458.5 Q 389.3 455.9 392 457 L 392.5 460 Q 395.3 458.8 393 457.5 L 392 453.5 L 395 452.5 L 395.5 451 L 396.5 453 L 398.5 450 Z " /><path fill="rgb(252,253,254)" stroke="rgb(252,253,254)" stroke-width="1" opacity="1" d="M 384.5 463 L 385 465 L 387 465.5 L 385 467.5 L 386.5 470 L 383.5 468 L 383.5 470 L 382 470.5 L 384 471.5 L 382.5 472 L 381 471.5 L 378 476.5 L 383 473.5 Q 377.6 476.3 379.5 479 L 377.5 480 L 378 478.5 L 377.5 477 Q 373.8 479 375.5 481 L 372.5 480 L 371 480.5 L 375 478.5 L 373 477.5 L 377 476 L 377 474 Q 379.7 475.1 379 472.5 L 378.5 471 Q 381.8 472.1 381 469.5 L 382 467.5 L 381.5 466 L 384.5 467 L 384.5 466 L 383 465.5 L 384.5 463 Z " /><path fill="rgb(252,253,254)" stroke="rgb(252,253,254)" stroke-width="1" opacity="1" d="M 371.5 482 L 376 482.5 L 373 483.5 L 373.5 485 L 371 484 L 373 487.5 L 370.5 486 L 369 486.5 L 370.5 489 Q 366.8 487.8 368 491.5 L 366 492.5 L 367 490.5 L 365 491.5 L 362 498.5 L 362.5 500 L 360 494 Q 363 495.3 362 491.5 L 363 491.5 L 363.5 493 L 366.5 486 L 368 485.5 L 367.5 484 L 371.5 482 Z " /><path fill="rgb(252,253,254)" stroke="rgb(252,253,254)" stroke-width="1" opacity="1" d="M 357.5 497 L 360 498.5 L 361 500.5 L 357.5 506 L 357 504 Q 354.3 502.9 355 505.5 L 355.5 507 Q 353.3 506.3 354 508.5 L 354.5 510 L 353.5 509 L 350.5 512 L 348 511.5 L 350.5 506 L 352.5 506 L 354 505.5 L 353.5 504 L 355 503.5 L 353 502.5 L 355 502 L 355.5 500 L 357 500.5 L 358 498.5 L 357.5 497 Z M 353 507 L 350 509 L 353 509 L 353 507 Z " /><path fill="rgb(254,255,255)" stroke="rgb(254,255,255)" stroke-width="1" opacity="1" d="M 242.5 137 L 356.5 137 L 369.5 140 L 380 147.5 Q 385 153.5 386 163.5 L 383 161.5 Q 381.3 150.2 373.5 145 L 365.5 141 L 356.5 139 L 243.5 139 L 235.5 141 L 226 147.5 Q 219.8 154.8 222 170.5 Q 225.8 187.2 235 198.5 L 230.5 202 L 183.5 202 Q 182.3 204.3 177.5 203 Q 167.1 205.1 162 212.5 Q 156.8 219.8 159 234.5 Q 163 250.5 172 261.5 L 171 264 L 161.5 266 L 116.5 266 L 106.5 269 L 100 274.5 Q 93.8 281.8 96 297.5 Q 101.7 321.8 118.5 335 Q 127 342.5 138.5 347 L 151.5 351 L 167.5 352 L 172 355.5 L 174 373.5 L 178 386.5 Q 185.4 403.1 198.5 414 L 217.5 425 L 227.5 428 L 240.5 428 L 245.5 427 L 246.5 429 Q 239 431.5 227.5 430 Q 200.4 423.6 186 404.5 L 175 384.5 L 172 373.5 L 171 357.5 L 167.5 354 L 152.5 353 L 137.5 349 Q 118.5 341.5 107 326.5 Q 99 316.5 95 302.5 Q 92.2 293.8 94 280.5 Q 96.1 273.1 101.5 269 L 115.5 264 L 162.5 264 L 166.5 263 L 169 260.5 L 165 255.5 L 158 239.5 L 157 234.5 L 157 217.5 Q 159.2 209.2 165.5 205 L 175.5 201 L 183.5 201 L 184.5 200 L 228.5 200 L 232 197.5 Q 224.5 188.5 221 175.5 L 220 170.5 L 220 154.5 Q 221.5 146.9 226.5 143 L 233.5 139 L 242.5 137 Z " /><path fill="rgb(254,255,255)" stroke="rgb(254,255,255)" stroke-width="1" opacity="1" d="M 446.5 225 L 451.5 231 L 446.5 225 Z " /><path fill="rgb(254,255,255)" stroke="rgb(254,255,255)" stroke-width="1" opacity="1" d="M 457.5 236 L 471.5 251 L 457.5 236 Z " /><path fill="rgb(254,255,255)" stroke="rgb(254,255,255)" stroke-width="1" opacity="1" d="M 511.5 412 L 512 418.5 L 511 420.5 L 511.5 422 L 510 422.5 L 510.5 424 L 509 423.5 L 503.5 431 L 501 431.5 L 504 432.5 L 501 433.5 Q 503.3 434.7 500.5 436 L 498 436.5 L 498.5 438 L 497 438.5 Q 499.3 439.8 496.5 441 L 495 440.5 L 496 442.5 L 493 443.5 Q 493.8 445.8 491.5 445 L 491.5 447 L 489 448.5 L 489.5 450 L 487.5 449 L 487.5 451 Q 485.3 450.3 486 452.5 Q 482.9 454.3 484.5 456 L 480 457.5 L 483 458.5 L 478 461.5 L 478.5 463 L 480 462.5 L 477 463.5 L 475.5 466 L 474 465.5 L 475 467.5 L 473 468.5 L 473.5 470 L 472 469.5 L 470 474 L 468 474.5 L 470 475.5 L 468.5 476 L 466.5 475 L 467 476.5 L 466.5 478 L 465 477.5 L 466 479.5 L 464 479.5 Q 464.8 481.8 462.5 481 Q 459.8 482.3 462 483.5 L 461.5 485 L 460.5 483 L 457.5 490 L 456.5 488 L 456 491 L 454 491.5 L 454.5 493 Q 452.3 492.3 453 494.5 L 450 496.5 Q 452.7 498.2 448.5 500 L 447 500.5 L 447.5 502 L 446 502.5 L 446.5 504 L 445 503.5 L 439.5 511 L 431.5 512 L 431.5 511 Q 433.8 511.8 433 509.5 L 434 507 L 436 506.5 Q 433.2 504.8 437.5 503 L 439 503.5 L 441 500.5 L 440.5 499 Q 442.8 499.8 442 497.5 L 444.5 493 L 445.5 495 L 448 489 L 451 488.5 L 450.5 487 L 453 485.5 Q 450.8 484.3 453.5 483 L 456 482.5 L 455.5 481 L 458 479.5 L 456.5 479 L 455 479.5 L 458 477.5 L 458.5 479 L 460 476.5 L 459.5 475 Q 460.8 477.3 462 474.5 L 460 473.5 L 461.5 473 L 463 473.5 L 465 469.5 L 464.5 468 L 466.5 468 Q 468.8 468.8 468 466.5 L 466 466.5 L 469 465.5 Q 467.9 462.2 470.5 463 L 470.5 461 L 472.5 462 L 473 460.5 L 472 458.5 L 473 458.5 L 473.5 460 L 475 458.5 L 474.5 455 Q 476.8 454.3 476 456.5 L 477 456.5 L 477 453 L 479 453 L 479 451 Q 481.7 452.1 481 449.5 L 479 449.5 L 482 448.5 Q 481.5 444.5 484.5 444 L 486 443.5 Q 483.8 442.2 486.5 441 L 488 440.5 L 487.5 439 L 489.5 439 L 491 438.5 L 490.5 437 Q 492.8 437.8 492 435.5 L 495 431 Q 497.7 432.1 497 429.5 L 498 427 L 500 426.5 Q 497.3 424.8 501.5 423 L 503 423.5 L 502 421.5 L 505 420.5 L 504.5 419 Q 506.8 419.8 506 417.5 L 508.5 413 L 509.5 415 L 511.5 412 Z " /><path fill="rgb(254,255,255)" stroke="rgb(254,255,255)" stroke-width="1" opacity="1" d="M 511.5 431 L 512 451.5 L 511.5 454 L 510 454.5 L 510.5 456 L 509 455.5 L 503 463.5 L 503.5 465 L 501 465.5 Q 503.3 466.8 500.5 468 L 497.5 470 L 496.5 473 L 495 472.5 L 496 474.5 L 493 475.5 L 492 479 L 489 480.5 L 489.5 482 L 488 481.5 L 486 484.5 Q 482.9 486.3 484.5 488 L 482 489.5 L 482.5 491 L 479 492.5 L 480 494.5 L 477 495.5 L 474.5 500 L 473 500.5 L 473.5 502 L 472 501.5 L 473 503.5 L 470 504.5 L 469 506.5 L 469.5 508 L 465 510.5 L 465.5 512 L 463.5 512 L 447 511.5 L 449 511 L 450 507 L 452 506.5 L 451.5 505 L 454 506 L 453 503.5 L 455 503.5 L 457 500.5 L 456.5 499 Q 458.8 499.8 458 497.5 L 459.5 495 L 460.5 497 L 465 490.5 L 464.5 489 L 467 488.5 L 466.5 487 L 469 485.5 L 468.5 484 L 470 484.5 Q 469.3 482.3 471.5 483 L 471.5 481 L 474 479.5 L 473 477.5 L 474 477.5 Q 473.3 479.8 475.5 479 L 475.5 477 Q 477.8 477.8 477 475.5 L 481.5 470 L 483 469.5 L 482.5 468 Q 484.8 468.8 484 466.5 L 487 464.5 L 485 463.5 L 489 461.5 L 488 459.5 L 491 458.5 Q 488.8 457.3 491.5 456 L 493 456.5 L 493.5 453 L 495.5 454 L 495 452.5 L 497 449.5 L 501 446.5 Q 500.3 444.3 502.5 445 L 502.5 443 Q 505.1 443.8 504 440.5 L 507 439 L 511.5 431 Z " /><path fill="rgb(254,255,255)" stroke="rgb(254,255,255)" stroke-width="1" opacity="1" d="M 271.5 453 L 273.5 456 L 271.5 453 Z " /><path fill="rgb(254,255,255)" stroke="rgb(254,255,255)" stroke-width="1" opacity="1" d="M 281.5 463 L 282.5 465 L 281.5 463 Z " /><path fill="rgb(254,255,255)" stroke="rgb(254,255,255)" stroke-width="1" opacity="1" d="M 286.5 468 L 329.5 512 L 286.5 468 Z " /><path fill="rgb(254,255,255)" stroke="rgb(254,255,255)" stroke-width="1" opacity="1" d="M 510.5 470 L 512 470.5 L 509.5 472 L 510.5 470 Z " /><path fill="rgb(254,255,255)" stroke="rgb(254,255,255)" stroke-width="1" opacity="1" d="M 511.5 472 L 512 473.5 L 510.5 476 L 510 474 L 508 473.5 L 509.5 473 L 511 473.5 L 511.5 472 Z " /><path fill="rgb(254,255,255)" stroke="rgb(254,255,255)" stroke-width="1" opacity="1" d="M 506 475 L 508 475.5 L 507.5 478 L 506 477.5 L 507 481 Q 504.3 479.9 505 482.5 L 502 487 L 498.5 488 Q 497.3 485.7 496 488.5 L 499 489.5 L 497 494 L 493.5 493 L 492 497.5 L 492.5 499 L 490 499.5 L 492 500.5 L 490 501.5 L 490.5 503 L 488.5 503 L 486 501.5 L 489 500.5 L 488.5 499 Q 490.8 499.8 490 497.5 L 494.5 490 L 494 491.5 Q 493.3 494.1 496 493 L 495 488.5 L 498.5 486 Q 499.8 488.3 501 485.5 L 499 484.5 L 504 482.5 L 501 481.5 L 506 479.5 L 504.5 479 L 503 479.5 L 506 475 Z " /><path fill="rgb(254,255,255)" stroke="rgb(254,255,255)" stroke-width="1" opacity="1" d="M 484.5 502 L 488 504.5 L 486.5 505 L 485 504.5 L 484 509 Q 481 507.8 482 511.5 L 481 511.5 Q 482.1 508.2 479.5 509 L 480.5 507 L 481.5 509 L 482 507 L 484 506.5 L 482 503.5 L 483.5 504 L 485 503.5 L 484.5 502 Z " /><path fill="rgb(254,255,255)" stroke="rgb(254,255,255)" stroke-width="1" opacity="1" d="M 478.5 510 L 479.5 512 L 477 511.5 L 478.5 510 Z " /><path fill="rgb(255,255,255)" stroke="rgb(255,255,255)" stroke-width="1" opacity="1" d="M 0 0 L 512 0 L 512 290.5 L 472 251.5 L 386 164.5 Q 385 150.5 376.5 144 L 369.5 140 L 356.5 137 L 242.5 137 L 233.5 139 L 224 145.5 Q 217.5 153.5 220 170.5 Q 223.1 186.9 232 197.5 L 228.5 200 L 184.5 200 L 183.5 201 L 175.5 201 Q 165.1 203.1 160 210.5 L 157 217.5 L 157 234.5 Q 160.2 250.3 169 260.5 L 166.5 263 L 162.5 264 L 115.5 264 L 104.5 267 L 98 272.5 L 94 280.5 L 94 298.5 Q 100.8 324.7 119.5 339 L 137.5 349 L 152.5 353 L 167.5 354 L 171 357.5 L 172 373.5 L 177 389.5 Q 184.7 406.3 198.5 417 L 222.5 429 L 227.5 430 L 242.5 430 L 247.5 429 L 273.5 456 L 281 462.5 L 282.5 465 L 286 467.5 L 329 511.5 L 0 512 L 0 0 Z " /><path fill="rgb(255,255,255)" stroke="rgb(255,255,255)" stroke-width="1" opacity="1" d="M 510.5 454 L 512 454.5 L 512 467.5 L 511.5 470 L 510 470.5 L 512 471.5 L 511 473.5 L 512 474.5 L 512 512 L 482.5 512 L 482 509.5 L 481 509.5 L 480.5 512 L 476.5 512 L 466.5 512 L 465.5 511 L 464 511.5 L 468 508.5 L 467.5 507 L 469.5 508 L 470 505.5 L 473.5 500 L 475 499.5 L 474.5 498 L 476 498.5 L 478.5 494 L 480 494.5 L 479 492.5 L 483 490.5 Q 480.8 489.3 483.5 488 L 485 487.5 Q 482.5 486 486 484.5 L 488 481.5 L 492 479 L 497.5 470 L 500.5 468 L 501.5 465 L 504 464.5 L 503 463.5 L 506 460.5 L 510.5 454 Z M 506 475 L 506 477 L 508 476 L 506 475 Z M 506 477 L 504 479 L 506 479 L 506 477 Z M 507 479 L 505 481 L 507 481 L 507 479 Z M 502 481 Q 501 483 504 482 L 505 483 Q 506 479 502 481 Z M 502 483 Q 502 487 504 484 L 502 483 Z M 502 485 L 500 487 L 502 487 L 502 485 Z M 498 486 L 499 488 L 500 488 L 498 486 Z M 496 489 L 496 493 L 494 494 L 497 494 L 499 490 L 496 489 Z M 492 495 L 490 499 L 493 499 L 492 495 Z M 489 499 L 488 503 L 492 501 L 489 499 Z M 483 504 L 483 506 L 485 507 Q 486 503 483 504 Z M 481 507 L 479 509 L 481 509 L 481 507 Z M 482 507 Q 481 510 484 509 Q 485 506 482 507 Z " /><path fill="rgb(121,170,241)" stroke="rgb(121,170,241)" stroke-width="1" opacity="1" d="M 235.5 142 L 361 142.5 L 235.5 143 L 235.5 142 Z " /><path fill="rgb(121,170,241)" stroke="rgb(121,170,241)" stroke-width="1" opacity="1" d="M 235.5 144 L 236 148.5 L 235 148.5 L 235.5 144 Z " /><path fill="rgb(121,170,241)" stroke="rgb(121,170,241)" stroke-width="1" opacity="1" d="M 369.5 151 L 370 275.5 L 369 275.5 L 369.5 151 Z " /><path fill="rgb(121,170,241)" stroke="rgb(121,170,241)" stroke-width="1" opacity="1" d="M 245.5 174 L 246.5 176 L 245.5 174 Z " /><path fill="rgb(121,170,241)" stroke="rgb(121,170,241)" stroke-width="1" opacity="1" d="M 247.5 177 L 255.5 186 L 247.5 177 Z " /><path fill="rgb(121,170,241)" stroke="rgb(121,170,241)" stroke-width="1" opacity="1" d="M 258.5 187 L 259.5 189 L 258.5 187 Z " /><path fill="rgb(121,170,241)" stroke="rgb(121,170,241)" stroke-width="1" opacity="1" d="M 282.5 197 L 285 197.5 L 282.5 198 L 282.5 197 Z " /><path fill="rgb(121,170,241)" stroke="rgb(121,170,241)" stroke-width="1" opacity="1" d="M 313.5 198 L 314 213.5 L 313 213.5 L 313.5 198 Z " /><path fill="rgb(121,170,241)" stroke="rgb(121,170,241)" stroke-width="1" opacity="1" d="M 256.5 205 L 297 205.5 L 256.5 206 L 256.5 205 Z " /><path fill="rgb(121,170,241)" stroke="rgb(121,170,241)" stroke-width="1" opacity="1" d="M 172.5 207 L 173 212.5 L 172 212.5 L 172.5 207 Z " /><path fill="rgb(121,170,241)" stroke="rgb(121,170,241)" stroke-width="1" opacity="1" d="M 306.5 214 L 307 338.5 L 306 338.5 L 306.5 214 Z " /><path fill="rgb(121,170,241)" stroke="rgb(121,170,241)" stroke-width="1" opacity="1" d="M 314.5 227 L 315 229.5 L 314 229.5 L 314.5 227 Z " /><path fill="rgb(121,170,241)" stroke="rgb(121,170,241)" stroke-width="1" opacity="1" d="M 179.5 233 L 180.5 235 L 179.5 233 Z " /><path fill="rgb(121,170,241)" stroke="rgb(121,170,241)" stroke-width="1" opacity="1" d="M 183.5 239 L 184.5 241 L 183.5 239 Z " /><path fill="rgb(121,170,241)" stroke="rgb(121,170,241)" stroke-width="1" opacity="1" d="M 192.5 248 L 194.5 251 L 192.5 248 Z " /><path fill="rgb(121,170,241)" stroke="rgb(121,170,241)" stroke-width="1" opacity="1" d="M 196.5 251 L 197.5 253 L 196.5 251 Z " /><path fill="rgb(121,170,241)" stroke="rgb(121,170,241)" stroke-width="1" opacity="1" d="M 199.5 253 L 200.5 255 L 199.5 253 Z " /><path fill="rgb(121,170,241)" stroke="rgb(121,170,241)" stroke-width="1" opacity="1" d="M 325.5 254 L 328.5 258 L 325.5 254 Z " /><path fill="rgb(121,170,241)" stroke="rgb(121,170,241)" stroke-width="1" opacity="1" d="M 216.5 260 L 219 260.5 L 216.5 261 L 216.5 260 Z " /><path fill="rgb(121,170,241)" stroke="rgb(121,170,241)" stroke-width="1" opacity="1" d="M 331.5 260 L 334.5 264 L 331.5 260 Z " /><path fill="rgb(121,170,241)" stroke="rgb(121,170,241)" stroke-width="1" opacity="1" d="M 223.5 261 L 251 261 L 251 283.5 L 250 283.5 L 250 262 L 223.5 262 L 223.5 261 Z " /><path fill="rgb(121,170,241)" stroke="rgb(121,170,241)" stroke-width="1" opacity="1" d="M 337.5 265 L 338.5 267 L 337.5 265 Z " /><path fill="rgb(121,170,241)" stroke="rgb(121,170,241)" stroke-width="1" opacity="1" d="M 340.5 267 L 341.5 269 L 340.5 267 Z " /><path fill="rgb(121,170,241)" stroke="rgb(121,170,241)" stroke-width="1" opacity="1" d="M 238.5 270 L 241.5 274 L 238.5 270 Z " /><path fill="rgb(121,170,241)" stroke="rgb(121,170,241)" stroke-width="1" opacity="1" d="M 109.5 272 L 110 275.5 L 109 275.5 L 109.5 272 Z " /><path fill="rgb(121,170,241)" stroke="rgb(121,170,241)" stroke-width="1" opacity="1" d="M 362.5 275 L 368 275.5 L 362.5 276 L 362.5 275 Z " /><path fill="rgb(121,170,241)" stroke="rgb(121,170,241)" stroke-width="1" opacity="1" d="M 243.5 278 L 244 403 L 237 402.5 L 243 402 L 243.5 278 Z " /><path fill="rgb(121,170,241)" stroke="rgb(121,170,241)" stroke-width="1" opacity="1" d="M 251.5 291 L 252 293.5 L 251 293.5 L 251.5 291 Z " /><path fill="rgb(121,170,241)" stroke="rgb(121,170,241)" stroke-width="1" opacity="1" d="M 119.5 301 L 120.5 303 L 119.5 301 Z " /><path fill="rgb(121,170,241)" stroke="rgb(121,170,241)" stroke-width="1" opacity="1" d="M 122.5 305 L 128.5 312 L 122.5 305 Z " /><path fill="rgb(121,170,241)" stroke="rgb(121,170,241)" stroke-width="1" opacity="1" d="M 257.5 310 L 258.5 312 L 257.5 310 Z " /><path fill="rgb(121,170,241)" stroke="rgb(121,170,241)" stroke-width="1" opacity="1" d="M 131.5 313 L 132.5 315 L 131.5 313 Z " /><path fill="rgb(121,170,241)" stroke="rgb(121,170,241)" stroke-width="1" opacity="1" d="M 261.5 316 L 262.5 318 L 261.5 316 Z " /><path fill="rgb(121,170,241)" stroke="rgb(121,170,241)" stroke-width="1" opacity="1" d="M 137.5 317 L 142 319.5 L 140.5 320 L 137.5 317 Z " /><path fill="rgb(121,170,241)" stroke="rgb(121,170,241)" stroke-width="1" opacity="1" d="M 265.5 321 L 268.5 325 L 265.5 321 Z " /><path fill="rgb(121,170,241)" stroke="rgb(121,170,241)" stroke-width="1" opacity="1" d="M 157.5 324 L 162 324.5 L 157.5 325 L 157.5 324 Z " /><path fill="rgb(121,170,241)" stroke="rgb(121,170,241)" stroke-width="1" opacity="1" d="M 187.5 325 L 188 334.5 L 187 334.5 L 187.5 325 Z " /><path fill="rgb(121,170,241)" stroke="rgb(121,170,241)" stroke-width="1" opacity="1" d="M 272.5 327 L 273.5 329 L 272.5 327 Z " /><path fill="rgb(121,170,241)" stroke="rgb(121,170,241)" stroke-width="1" opacity="1" d="M 278.5 331 L 279.5 333 L 278.5 331 Z " /><path fill="rgb(121,170,241)" stroke="rgb(121,170,241)" stroke-width="1" opacity="1" d="M 296.5 338 L 299 338.5 L 296.5 339 L 296.5 338 Z " /><path fill="rgb(121,170,241)" stroke="rgb(121,170,241)" stroke-width="1" opacity="1" d="M 188.5 354 L 189 356.5 L 188 356.5 L 188.5 354 Z " /><path fill="rgb(121,170,241)" stroke="rgb(121,170,241)" stroke-width="1" opacity="1" d="M 195.5 375 L 196.5 377 L 195.5 375 Z " /><path fill="rgb(121,170,241)" stroke="rgb(121,170,241)" stroke-width="1" opacity="1" d="M 197.5 378 L 198.5 380 L 197.5 378 Z " /><path fill="rgb(121,170,241)" stroke="rgb(121,170,241)" stroke-width="1" opacity="1" d="M 200.5 382 L 208.5 391 L 200.5 382 Z " /><path fill="rgb(121,170,241)" stroke="rgb(121,170,241)" stroke-width="1" opacity="1" d="M 211.5 392 L 212.5 394 L 211.5 392 Z " /><path fill="rgb(121,170,241)" stroke="rgb(121,170,241)" stroke-width="1" opacity="1" d="M 216.5 395 L 219 396.5 L 217.5 397 L 216.5 395 Z " /><path fill="rgb(207,210,232)" stroke="rgb(207,210,232)" stroke-width="1" opacity="1" d="M 256.5 186 L 257.5 188 L 256.5 186 Z " /><path fill="rgb(207,210,232)" stroke="rgb(207,210,232)" stroke-width="1" opacity="1" d="M 260.5 189 L 268.5 194 L 282.5 198 L 313 198 L 315 234.5 Q 320.7 253.3 334.5 264 L 347.5 272 L 364 276 L 362.5 279 L 361 279 L 360.5 281 L 350.5 281 L 346.5 279 L 335 273 Q 336.1 270.3 333.5 271 L 327.5 264 Q 325.3 264.8 326 262.5 L 324 259 L 320 256.5 Q 322.8 254.8 318.5 253 L 316.5 253 L 312 252 L 311.5 250 L 311 252 L 309 252.5 L 309.5 254 L 308 253.5 L 309 255.5 L 307.5 258 L 307 214.5 Q 305.6 208.4 300.5 206 L 296.5 205 L 275.5 205 L 262.5 192 L 261 192 L 260.5 189 Z " /><path fill="rgb(207,210,232)" stroke="rgb(207,210,232)" stroke-width="1" opacity="1" d="M 172.5 205 L 256 205.5 L 172.5 206 L 172.5 205 Z " /><path fill="rgb(207,210,232)" stroke="rgb(207,210,232)" stroke-width="1" opacity="1" d="M 185.5 242 L 191.5 249 L 185.5 242 Z " /><path fill="rgb(207,210,232)" stroke="rgb(207,210,232)" stroke-width="1" opacity="1" d="M 195.5 251 Q 203.7 258.3 216.5 261 Q 222 259.5 223.5 262 L 250 262 L 250 283.5 L 251 284.5 L 252 297.5 Q 256.6 314.9 268.5 325 Q 276.7 332.8 288.5 337 L 296.5 339 L 307 339.5 L 301.5 340 L 295.5 345 L 287.5 345 L 278.5 341 L 266 330.5 L 262.5 325 L 258 321.5 L 256 318.5 Q 255.3 314.3 249.5 315 L 246 317.5 L 244.5 321 L 244 278.5 Q 242.8 272.8 238.5 270 L 235.5 269 L 212.5 269 L 195.5 251 Z " /><path fill="rgb(207,210,232)" stroke="rgb(207,210,232)" stroke-width="1" opacity="1" d="M 120.5 303 L 121.5 305 L 120.5 303 Z " /><path fill="rgb(207,210,232)" stroke="rgb(207,210,232)" stroke-width="1" opacity="1" d="M 129.5 312 L 131.5 315 L 129.5 312 Z " /><path fill="rgb(207,210,232)" stroke="rgb(207,210,232)" stroke-width="1" opacity="1" d="M 133.5 315 L 140.5 320 L 157.5 325 L 187 325 L 187 334.5 L 188 335.5 L 188 351.5 L 187 351.5 Q 186.6 342.4 180.5 339 L 171.5 336 L 162.5 336 L 153.5 334 L 135.5 318 L 133.5 315 Z " /><path fill="rgb(207,210,232)" stroke="rgb(207,210,232)" stroke-width="1" opacity="1" d="M 189.5 361 Q 191 371.5 197 377.5 L 194 375.5 L 190 369.5 L 190 367.5 L 189.5 361 Z " /><path fill="rgb(207,210,232)" stroke="rgb(207,210,232)" stroke-width="1" opacity="1" d="M 198.5 380 L 199.5 382 L 198.5 380 Z " /><path fill="rgb(207,210,232)" stroke="rgb(207,210,232)" stroke-width="1" opacity="1" d="M 209.5 391 L 210.5 393 L 209.5 391 Z " /><path fill="rgb(207,210,232)" stroke="rgb(207,210,232)" stroke-width="1" opacity="1" d="M 213.5 394 L 224.5 400 L 231.5 402 L 236.5 402 L 239 403.5 Q 236.6 409.1 228.5 409 L 213.5 394 Z " /><path fill="rgb(32,124,246)" stroke="rgb(32,124,246)" stroke-width="1" opacity="1" d="M 235.5 143 L 362.5 143 L 368 147.5 L 369 149.5 L 369 275.5 L 367.5 275 L 358.5 275 L 346.5 271 L 329 258.5 Q 320.4 249.6 316 236.5 L 314 226.5 L 314 198 L 285.5 198 L 275.5 196 Q 257.3 190.3 247 176.5 L 239 162.5 L 236 152.5 Q 236.7 145 235.5 143 Z " /><path fill="rgb(32,124,246)" stroke="rgb(32,124,246)" stroke-width="1" opacity="1" d="M 172.5 206 L 299.5 206 L 305 210.5 L 306 212.5 L 306 339 Q 292.3 339 282.5 334 Q 270.8 328.2 263 318.5 Q 255.1 309.4 252 295.5 L 251 290.5 L 251 261 L 219.5 261 L 214.5 260 Q 195.6 254.9 185 241.5 L 176 226.5 L 173 216.5 Q 173.8 208.3 172.5 206 Z " /><path fill="rgb(32,124,246)" stroke="rgb(32,124,246)" stroke-width="1" opacity="1" d="M 109 269 L 234.5 269 L 242 274.5 L 243 276.5 L 243 402 L 233.5 402 L 223.5 399 Q 208 393 199 380.5 Q 191.8 371.7 189 358.5 L 188 353.5 L 188 325 L 162.5 325 L 161.5 324 L 150.5 323 Q 131.4 317.6 121 303.5 L 113 289.5 L 110 279.5 Q 110.7 272.4 109 269 Z " /><path fill="rgb(226,227,241)" stroke="rgb(226,227,241)" stroke-width="1" opacity="1" d="M 370.5 152 L 373.5 157 L 375 157.5 L 375 159.5 Q 374.4 164.1 377 165.5 L 377 167.5 L 379 173.5 L 378 174.5 L 377 214.5 L 378 216.5 L 378 218.5 L 377 221.5 L 376 258.5 L 376 262.5 Q 378.2 281.7 368.5 289 Q 364.5 292 357.5 292 L 355.5 292 L 339.5 287 L 331.5 281 L 329 281 Q 330.1 278.3 327.5 279 L 326 276 Q 323.7 273.4 317.5 274 L 317.5 276 L 316 275.5 Q 312.6 281.6 314 292.5 L 315 297.5 L 314 299.5 L 314 322.5 L 313 323.5 L 313 338.5 L 312 340.5 Q 314.5 342 311 343.5 Q 309.9 351.4 303.5 354 L 301.5 355 L 299.5 355 L 286.5 355 L 274.5 350 L 264.5 341 Q 263 343.5 261.5 340 L 256.5 338 L 254 339 L 252 344.5 L 251 372.5 L 252 377.5 L 251 379.5 L 251 381.5 L 251 399.5 L 249 406.5 L 243.5 415 L 237.5 418 L 230.5 412 L 224.5 412 L 212.5 406 L 199 393.5 L 191 379.5 L 189 370.5 L 178 358.5 L 175 350 L 166.5 347 L 154.5 336 Q 141.7 334.3 133.5 328 L 121 316.5 L 113 303.5 L 111 293.5 L 112.5 289 Q 118.4 305.6 131.5 315 L 136.5 318 L 153.5 334 L 175.5 337 Q 182 338.5 185 343.5 L 187 347.5 L 189 364.5 L 191 368.5 L 191 370.5 L 203 387 Q 215.7 394.8 225.5 407 L 230.5 409 L 234.5 408 L 239.5 403 L 244 403 L 244 321.5 L 247.5 316 L 252.5 315 L 256 320 Q 258.7 318.9 258 321.5 L 265 327.5 L 269.5 334 L 282.5 343 L 287.5 345 L 295.5 345 L 301.5 340 L 307 340 L 307 258.5 L 309 255.5 L 308 253.5 L 311 252 L 311.5 250 L 312 252 L 317.5 254 Q 319.2 251.2 321 255.5 Q 318.3 257.3 322.5 259 Q 324.8 258.3 324 260.5 L 326 264 L 330 266.5 L 333.5 271 L 336.5 273 L 347.5 280 Q 349 277.5 350.5 281 L 360.5 281 L 361 279 L 362.5 279 L 364 276 L 369.5 276 L 370 275.5 L 370.5 152 Z " /><path fill="rgb(226,227,241)" stroke="rgb(226,227,241)" stroke-width="1" opacity="1" d="M 238.5 162 Q 244.4 178.6 257.5 188 L 261 190.5 Q 260.3 192.8 262.5 192 L 274.5 205 L 262.5 205 L 247 189.5 L 239 176.5 L 237 166.5 L 238.5 162 Z " /><path fill="rgb(226,227,241)" stroke="rgb(226,227,241)" stroke-width="1" opacity="1" d="M 175.5 226 Q 180.9 240.1 191.5 249 L 212 268.5 L 200.5 269 L 182 250.5 L 175 237.5 L 174 230.5 L 175.5 226 Z " /><path fill="rgb(246,247,251)" stroke="rgb(246,247,251)" stroke-width="1" opacity="1" d="M 234.5 149 L 236 153.5 Q 229.8 157.8 231 169.5 L 238 186.5 L 248 198.5 L 251 205 L 243 204.5 L 244 200.5 L 230 178.5 Q 226.3 171.3 228 158.5 L 234.5 149 Z " /><path fill="rgb(246,247,251)" stroke="rgb(246,247,251)" stroke-width="1" opacity="1" d="M 379.5 158 L 387.5 167 L 379.5 158 Z " /><path fill="rgb(246,247,251)" stroke="rgb(246,247,251)" stroke-width="1" opacity="1" d="M 394 177 Q 397.8 176 399 178.5 L 400 181.5 L 398 182.5 L 400 183.5 L 398.5 184 L 397 183.5 L 391 191.5 L 391.5 193 L 389 193.5 L 389.5 197 L 387 196 L 388 193.5 Q 385.7 192.2 387 187.5 L 387.5 185 L 390 186 L 389 183.5 L 391 183.5 L 393 180.5 L 392.5 179 Q 395.1 179.7 394 177 Z " /><path fill="rgb(246,247,251)" stroke="rgb(246,247,251)" stroke-width="1" opacity="1" d="M 398.5 185 L 395.5 189 L 398.5 185 Z " /><path fill="rgb(246,247,251)" stroke="rgb(246,247,251)" stroke-width="1" opacity="1" d="M 405.5 186 L 461 240.5 L 472 254 L 479 259.5 L 480 261.5 L 478 262.5 L 478.5 264 L 477 263.5 L 471 271.5 L 471.5 273 L 469 273.5 Q 471.3 274.8 468.5 276 L 465.5 278 Q 467.1 279.8 464 281.5 L 463.5 283 Q 462.3 280.8 461 283.5 L 457.5 290 Q 454.5 289.2 456 293 L 453.5 293 L 452.5 296 Q 449.5 295.2 451 299 L 448.5 299 L 447.5 301 L 449.5 300 L 446.5 304 L 445 303.5 L 446 305.5 L 441 308.5 L 441.5 310 L 440 309.5 L 441 311.5 L 437 314.5 L 437.5 316 L 434 318.5 L 433.5 321 L 432.5 319 L 431 321.5 L 431.5 323 Q 429.3 322.3 430 324.5 L 428.5 327 L 427.5 325 L 426 327.5 Q 428.3 328.8 425.5 330 Q 423.3 329.3 424 331.5 L 421 333.5 L 423 334.5 L 418 336.5 L 419 337.5 Q 415.9 339.3 417.5 341 L 415.5 340 L 415.5 342 L 414 342.5 L 414.5 344 L 413 343.5 L 412 347 Q 409.3 345.9 410 348.5 Q 405.7 350.7 407.5 353 L 405 353.5 Q 407.3 354.8 404.5 356 L 401.5 358 Q 403.1 359.8 400 361.5 L 399.5 363 Q 398.3 360.7 397 363.5 L 393.5 370 L 392 370 Q 393.5 373.8 390.5 373 L 390.5 375 L 387 376 Q 386.9 381.6 382.5 384 L 381 383.5 L 382 385.5 L 377 388.5 L 377.5 390 L 376 389.5 L 377 391.5 L 373 394.5 L 373.5 396 L 370 398.5 L 369.5 401 L 368.5 399 L 367 401.5 L 367.5 403 Q 365.3 402.3 366 404.5 L 365 407 L 362 407.5 Q 364.3 408.8 361.5 410 Q 359.3 409.3 360 411.5 L 357 413.5 L 359 414.5 L 354 416.5 L 355 417.5 Q 351.9 419.3 353.5 421 L 351.5 420 L 351.5 422 L 350 422.5 L 350.5 424 L 349 423.5 L 348 427 Q 345.3 425.9 346 428.5 Q 341.7 430.8 343.5 433 L 341 433.5 Q 343.3 434.7 340.5 436 L 337.5 438 Q 339.1 439.8 336 441.5 L 335.5 443 Q 334.3 440.8 333 443.5 L 329.5 450 L 328 450 Q 329.5 453.8 326.5 453 L 326.5 455 L 323 456 Q 322.9 461.6 318.5 464 L 317 463.5 L 318 465.5 L 313 468.5 L 313.5 470 L 312 469.5 L 313 471.5 L 309 474.5 L 309.5 476 L 306 478.5 L 305.5 481 L 304.5 479 L 303 481.5 L 303.5 483 L 295 475.5 L 295.5 474 L 293.5 474 L 287 468.5 L 283.5 464 L 278 459.5 L 274.5 455 L 269 450.5 L 265.5 446 L 243 424.5 L 246.5 427 Q 248.8 427.8 248 425.5 L 253 419 Q 256 420.3 255 416.5 L 258 412.5 L 257.5 411 L 260 410.5 L 260 408.5 L 261 406.5 L 261 392.5 L 260.5 390 Q 258.3 390.8 259 388.5 L 261 388.5 L 261 365.5 L 262.5 365 L 262.5 363 L 264 363.5 L 264.5 361 Q 265.8 363.3 267 360.5 L 266.5 359 L 268 358.5 L 267.5 357 L 280.5 364 L 281.5 362 L 283.5 365 L 295 367 L 295.5 365 L 297.5 365 L 299.5 364 L 300 367 L 308.5 366 L 315 362.5 L 314.5 361 Q 315.8 363.3 317 360.5 L 322 352.5 L 324 343.5 L 324 336 L 322 336.5 L 322.5 338 Q 319.8 336.8 322 335.5 Q 320.1 330.1 323.5 331 L 324 328.5 L 323.5 310 L 322 310.5 L 324 307.5 L 324 294.5 L 325 292 L 335 296 L 335.5 294 L 336 295.5 L 335.5 297 L 347.5 301 L 347.5 299 L 353 300 L 352 302.5 L 363.5 303 L 363.5 302 L 358 301.5 L 365 301 Q 363.8 298 367.5 299 L 378 292.5 Q 382.5 286.5 384 277.5 L 383.5 276 L 387 273.5 L 387 271.5 L 386.5 258 L 385 258.5 Q 384 252.5 387 250.5 L 387 233.5 L 387 229.5 L 387 208.5 L 389 205 L 391 204.5 L 390.5 203 L 392 203.5 L 392.5 201 Q 393.8 203.3 395 200.5 L 395 198.5 L 396.5 196 L 398 196.5 L 397 194.5 L 398.5 195 L 400 194.5 L 400 192.5 L 401.5 189 Q 402.8 191.3 404 188.5 L 403.5 187 L 405.5 188 L 405.5 186 Z M 466 260 Q 464 263 467 262 L 466 260 Z M 460 266 Q 460 270 462 267 L 460 266 Z M 459 269 Q 457 272 460 271 L 459 269 Z M 457 271 L 456 273 L 458 272 L 457 271 Z M 453 274 L 453 275 L 456 275 L 453 274 Z M 448 281 L 446 285 L 448 284 L 448 281 Z M 442 289 L 440 291 L 442 291 L 442 289 Z M 440 291 Q 437 293 440 294 Q 443 293 440 291 Z M 438 294 L 439 296 Q 440 293 438 294 Z M 432 301 L 433 303 Q 434 300 432 301 Z M 429 304 L 429 306 L 431 305 L 429 304 Z M 426 309 Q 424 312 427 311 L 426 309 Z M 418 318 L 418 321 L 420 320 L 418 318 Z M 415 321 L 414 323 L 418 323 L 415 321 Z M 413 324 L 411 327 L 412 329 L 413 329 L 413 324 Z M 402 340 Q 400 343 403 342 L 402 340 Z M 396 346 Q 396 350 398 347 L 396 346 Z M 395 349 Q 393 352 396 351 L 395 349 Z M 393 351 L 392 353 L 394 352 L 393 351 Z M 389 354 L 389 355 L 392 355 L 389 354 Z M 384 361 L 382 365 L 384 364 L 384 361 Z M 378 369 L 376 371 L 378 371 L 378 369 Z M 376 371 Q 373 373 376 374 Q 379 373 376 371 Z M 374 374 L 375 376 Q 376 373 374 374 Z M 385 379 L 383 381 L 385 381 L 385 379 Z M 368 381 L 369 383 Q 370 380 368 381 Z M 365 384 L 365 386 L 367 385 L 365 384 Z M 362 389 Q 360 392 363 391 L 362 389 Z M 354 398 L 354 401 L 356 400 L 354 398 Z M 351 401 L 350 403 L 354 403 L 351 401 Z M 349 404 L 347 407 L 348 409 L 349 409 L 349 404 Z M 342 414 L 342 415 L 344 415 L 342 414 Z M 338 420 Q 336 423 339 422 L 338 420 Z M 332 426 Q 332 430 334 427 L 332 426 Z M 331 429 Q 329 432 332 431 L 331 429 Z M 329 431 L 328 433 L 330 432 L 329 431 Z M 325 434 L 325 435 L 328 435 L 325 434 Z M 320 441 L 318 445 L 320 444 L 320 441 Z M 314 449 L 312 451 L 314 451 L 314 449 Z M 312 451 Q 309 453 312 454 Q 315 453 312 451 Z M 310 454 L 311 456 Q 312 453 310 454 Z M 321 459 L 319 461 L 321 461 L 321 459 Z M 304 461 L 305 463 Q 306 460 304 461 Z M 301 464 L 301 466 L 303 465 L 301 464 Z M 298 469 Q 296 472 299 471 L 298 469 Z " /><path fill="rgb(246,247,251)" stroke="rgb(246,247,251)" stroke-width="1" opacity="1" d="M 394.5 190 L 396 190.5 L 393.5 192 L 394.5 190 Z " /><path fill="rgb(246,247,251)" stroke="rgb(246,247,251)" stroke-width="1" opacity="1" d="M 387.5 198 L 388.5 200 L 387.5 198 Z " /><path fill="rgb(246,247,251)" stroke="rgb(246,247,251)" stroke-width="1" opacity="1" d="M 171.5 213 L 173 216.5 Q 167.3 221.3 168 232.5 L 174 248.5 L 184 260.5 L 188 266.5 L 188 269 L 180 268.5 L 181 263.5 Q 171.6 253.4 166 239.5 Q 163.7 232.8 165 222.5 Q 166.5 216 171.5 213 Z " /><path fill="rgb(246,247,251)" stroke="rgb(246,247,251)" stroke-width="1" opacity="1" d="M 485.5 266 Q 490.3 268.5 488.5 271 L 490 271.5 L 486 273 L 483.5 279 L 482 278.5 L 482 281 Q 479 279.8 480 283.5 L 476 285.5 L 474 291 L 472 291.5 Q 474.8 293.2 470.5 295 L 467 297.5 L 467.5 299 Q 465.3 298.3 466 300.5 L 460 309 L 458 309.5 L 458.5 311 L 453 314.5 L 453.5 316 L 450 318.5 L 449.5 321 L 448.5 319 L 447 321.5 L 449 322.5 L 446 323.5 L 446.5 325 L 443.5 327 L 442 326.5 L 443 328.5 L 439 330.5 L 440 331.5 Q 436.9 333.3 438.5 335 L 436 335.5 L 437 337.5 Q 435 335.8 433 339.5 L 433.5 341 L 432 340.5 Q 432.8 342.8 430.5 342 L 430.5 343 L 432 343.5 L 430 344.5 L 430.5 346 L 428.5 345 L 429 346.5 L 427.5 349 Q 425.8 346.2 424 350.5 L 426 351.5 L 422 353 L 419.5 359 L 418 358.5 L 419 360.5 L 416 361 L 414.5 365 Q 413.3 362.7 412 365.5 L 410 371 L 408 371.5 Q 410.5 373 407 374.5 L 406.5 376 Q 404.8 373.2 403 377.5 L 403.5 379 Q 401.3 378.3 402 380.5 L 396 389 L 394 389.5 L 394.5 391 L 390 393.5 L 392 394.5 L 388 396.5 L 389 398.5 L 388 398.5 L 387.5 397 L 385.5 401 L 384.5 399 L 383 401.5 L 385 402.5 L 382 403.5 L 382.5 405 Q 379.5 404.1 381 408.5 L 380 408.5 L 378.5 406 L 378 407.5 L 378.5 411 L 375.5 410 L 377 412.5 L 376.5 414 L 375.5 412 L 374.5 415 L 372 415.5 L 373 417.5 Q 371 415.8 369 419.5 Q 371.3 420.8 368.5 422 L 366 422.5 L 368 423.5 L 366.5 426 L 364.5 425 L 365 426.5 L 362.5 430 Q 361.2 427.8 360 430.5 L 362 431.5 L 359 433.5 L 359.5 435 L 356 436.5 Q 357.1 439.8 354.5 439 L 354.5 441 Q 350.8 439.8 352 443.5 L 348 445.5 L 346 451 L 344 451.5 Q 346.5 453 343 454.5 L 342.5 456 Q 340.8 453.3 339 457.5 L 339.5 459 Q 337.3 458.3 338 460.5 L 332 469 L 330 469.5 L 330.5 471 L 326 473.5 L 328 474.5 L 324 476.5 L 325 478.5 L 324 478.5 L 323.5 477 L 321 481.5 Q 321.7 484.1 319 483 L 319 485 L 317 485 L 317 488.5 L 316 488.5 L 315.5 487 L 314 489.5 L 314.5 491 L 311.5 490 L 312.5 493 L 308 486.5 L 311 487.5 L 310 485.5 L 313 484.5 L 312.5 483 Q 314.8 483.8 314 481.5 L 316.5 477 L 317.5 479 L 320 473 L 323 472.5 L 321.5 470 L 324.5 472 L 324.5 469 L 323 468.5 L 328 466.5 L 327.5 465 L 330 463.5 L 328.5 463 L 327 463.5 L 330 461.5 Q 329.3 463.8 331.5 463 L 331.5 461 Q 333.8 461.8 333 459.5 L 333.5 458 L 332 457.5 L 333.5 457 L 335 457.5 L 337.5 454 L 339 453.5 L 336 452.5 L 339.5 449 L 341.5 449 L 344 448.5 L 341 447.5 L 345 445.5 L 344 442.5 L 345 442.5 L 345.5 444 L 347 442.5 L 346.5 439 Q 348.8 438.3 348 440.5 L 349 440.5 L 350 438.5 L 349.5 437 L 351.5 438 L 351 436.5 L 351.5 435 Q 352.8 437.3 354 434.5 L 351 433.5 L 352.5 431 L 353.5 433 L 357 430.5 L 356.5 429 L 354 430.5 Q 355.8 426.3 357.5 429 L 359 428.5 Q 355.3 426.8 358.5 425 L 358.5 427 Q 361.1 427.8 360 424.5 L 359.5 423 L 361.5 423 L 363 422.5 L 362.5 421 Q 364.8 421.8 364 419.5 L 368 416.5 L 367.5 415 Q 369.8 415.8 369 413.5 L 370 411 L 372 410.5 L 371.5 409 L 374 410 L 372 406.5 L 375 407.5 L 374 405.5 L 377 404.5 L 376.5 403 Q 378.8 403.8 378 401.5 L 380.5 397 L 381.5 399 L 384 393 L 387 392.5 L 385.5 390 L 388.5 392 L 388.5 389 L 387 388.5 L 392 386.5 L 391.5 385 L 394 383.5 L 392.5 383 L 391 383.5 L 394 381.5 Q 393.3 383.8 395.5 383 L 395.5 381 Q 397.8 381.8 397 379.5 L 397.5 378 L 396 377.5 L 397.5 377 L 399 377.5 L 401.5 374 L 403 373.5 L 400 372.5 L 403.5 369 L 405.5 369 L 408 368.5 L 405 367.5 L 408 366.5 L 407.5 365 L 409 365.5 L 408 362.5 L 409 362.5 L 409.5 364 L 411 362.5 L 410.5 359 Q 412.8 358.3 412 360.5 L 413 360.5 L 413.5 357 L 415.5 358 L 415 356.5 L 415.5 355 Q 416.8 357.3 418 354.5 L 415 353.5 L 416.5 351 L 417.5 353 L 421 350.5 L 420.5 349 L 418 350.5 Q 419.7 346.2 421.5 349 L 423 348.5 Q 419.3 346.7 422.5 345 L 422.5 347 Q 425.1 347.8 424 344.5 L 423.5 343 L 425.5 343 L 427 342.5 L 426.5 341 Q 428.8 341.8 428 339.5 L 432 336.5 L 431.5 335 Q 433.8 335.8 433 333.5 L 434 331 L 436 330.5 L 435.5 329 L 438 330 L 436 326.5 L 439 327.5 L 438 325.5 L 441 324.5 L 440.5 323 Q 442.8 323.8 442 321.5 L 444.5 317 L 445.5 319 L 448 313 L 451 312.5 L 449.5 310 L 452.5 312 L 452.5 309 L 451 308.5 L 456 306.5 L 455.5 305 L 458 303.5 L 456.5 303 L 455 303.5 L 458 301.5 Q 457.3 303.8 459.5 303 L 459.5 301 Q 461.8 301.8 461 299.5 L 461.5 298 L 460 297.5 L 461.5 297 L 463 297.5 L 465.5 294 L 467 293.5 L 464 292.5 L 467.5 289 L 469.5 289 L 472 288.5 L 469 287.5 L 472 286.5 L 471.5 285 L 473 285.5 L 472 282.5 L 473 282.5 L 473.5 284 L 475 282.5 L 474.5 279 Q 476.8 278.3 476 280.5 L 477 280.5 L 477.5 277 L 479.5 278 L 479 276.5 L 479.5 275 Q 480.8 277.3 482 274.5 L 479 273.5 L 480.5 271 L 481.5 273 L 485 270.5 L 484.5 269 L 482 270.5 Q 483.8 266.2 485.5 269 L 487 268.5 L 485.5 266 Z M 468 290 L 466 292 L 469 292 L 468 290 Z M 425 344 L 425 346 L 427 345 L 425 344 Z M 404 370 L 402 372 L 405 372 L 404 370 Z M 380 401 Q 378 404 381 403 L 380 401 Z M 361 424 L 361 426 L 363 425 L 361 424 Z M 340 450 L 338 452 L 341 452 L 340 450 Z M 316 481 Q 314 484 317 483 L 316 481 Z " /><path fill="rgb(246,247,251)" stroke="rgb(246,247,251)" stroke-width="1" opacity="1" d="M 108.5 276 L 110 280.5 Q 103.8 284.7 105 296.5 Q 110.6 317.4 125.5 329 L 142.5 339 Q 150.5 342.5 161.5 343 L 165 346.5 L 162.5 347 L 140.5 342 Q 125.9 335.6 116 324.5 L 104 305.5 Q 100.3 298.3 102 285.5 L 108.5 276 Z " /><path fill="rgb(246,247,251)" stroke="rgb(246,247,251)" stroke-width="1" opacity="1" d="M 462.5 294 L 461.5 296 L 462.5 294 Z " /><path fill="rgb(246,247,251)" stroke="rgb(246,247,251)" stroke-width="1" opacity="1" d="M 178.5 360 L 182 363.5 L 183 373.5 L 189 388.5 Q 195.1 399.4 204.5 407 L 221.5 417 L 233.5 419 L 236.5 418 L 239 422 Q 225.6 423.6 217.5 419 Q 203.5 412.5 194 401.5 Q 186.5 393 182 381.5 Q 178 371.9 178.5 360 Z " /><path fill="rgb(246,247,251)" stroke="rgb(246,247,251)" stroke-width="1" opacity="1" d="M 291.5 364 L 294 364.5 L 291.5 365 L 291.5 364 Z " /><path fill="rgb(246,247,251)" stroke="rgb(246,247,251)" stroke-width="1" opacity="1" d="M 301.5 364 L 304 364.5 L 301.5 365 L 301.5 364 Z " /><path fill="rgb(246,247,251)" stroke="rgb(246,247,251)" stroke-width="1" opacity="1" d="M 398.5 374 L 397.5 376 L 398.5 374 Z " /><path fill="rgb(246,247,251)" stroke="rgb(246,247,251)" stroke-width="1" opacity="1" d="M 258.5 404 L 259 406.5 L 258 406.5 L 258.5 404 Z " /><path fill="rgb(246,247,251)" stroke="rgb(246,247,251)" stroke-width="1" opacity="1" d="M 334.5 454 L 333.5 456 L 334.5 454 Z " /><path fill="rgb(249,250,253)" stroke="rgb(249,250,253)" stroke-width="1" opacity="1" d="M 250.5 141 L 350 141.5 L 250.5 142 L 250.5 141 Z " /><path fill="rgb(249,250,253)" stroke="rgb(249,250,253)" stroke-width="1" opacity="1" d="M 234.5 145 L 235 148.5 L 228 158.5 L 228 172.5 Q 232.9 188.1 243 198.5 L 244 203.5 L 242.5 205 L 231.5 205 L 231.5 204 Q 237.3 204.8 239 201.5 L 239 198.5 Q 230.5 189 226 175.5 Q 223.6 168.4 225 157.5 L 231.5 147 L 234.5 145 Z " /><path fill="rgb(249,250,253)" stroke="rgb(249,250,253)" stroke-width="1" opacity="1" d="M 367.5 145 L 377 153.5 L 378 155.5 L 367.5 145 Z " /><path fill="rgb(249,250,253)" stroke="rgb(249,250,253)" stroke-width="1" opacity="1" d="M 388.5 167 L 391.5 171 L 388.5 167 Z " /><path fill="rgb(249,250,253)" stroke="rgb(249,250,253)" stroke-width="1" opacity="1" d="M 393.5 172 L 411.5 191 L 393.5 172 Z " /><path fill="rgb(249,250,253)" stroke="rgb(249,250,253)" stroke-width="1" opacity="1" d="M 421.5 200 L 423.5 203 L 421.5 200 Z " /><path fill="rgb(249,250,253)" stroke="rgb(249,250,253)" stroke-width="1" opacity="1" d="M 170.5 209 Q 173.5 208.1 172 212.5 Q 162.3 217.8 165 235.5 Q 169.6 251.4 180 261.5 L 181 267.5 L 179.5 269 L 122.5 269 L 122.5 268 L 170.5 268 L 176 264.5 L 176 261.5 Q 166.3 251.2 162 235.5 L 162 220.5 Q 164.6 213.1 170.5 209 Z " /><path fill="rgb(249,250,253)" stroke="rgb(249,250,253)" stroke-width="1" opacity="1" d="M 461.5 241 L 488.5 269 L 486.5 269 Q 484.3 268.3 485 270.5 L 482 272.5 L 483 273.5 Q 479.9 275.3 481.5 277 L 479 275.5 L 480 277.5 L 478.5 278 L 477 277.5 L 477 280.5 L 471.5 287 L 469 287.5 L 472 288.5 L 469 289.5 Q 471.3 290.8 468.5 292 L 466 292.5 L 466.5 294 L 465 294.5 Q 467.2 295.7 464.5 297 L 463 296.5 L 464 298.5 L 461 299.5 Q 461.8 301.8 459.5 301 L 459.5 303 L 458 303.5 Q 460.3 304.8 457.5 306 L 455.5 305 L 455.5 307 L 453 307.5 L 454 308.5 Q 450.9 310.3 452.5 312 L 448 313 L 446 318.5 L 450 316.5 Q 446.5 318 449 319.5 L 449.5 321 L 452.5 316 L 454 315.5 Q 451.7 314.2 454.5 313 L 456 312.5 L 454.5 310 Q 456 313.5 457.5 311 L 459 310.5 L 458.5 309 Q 460.8 309.8 460 307.5 L 460.5 305 Q 461.8 307.3 463 304.5 L 466 299 L 468 298.5 Q 465.3 296.8 469.5 295 L 471 294.5 L 470.5 293 Q 471.8 295.3 473 292.5 L 471.5 290 L 474 291 L 476 285.5 L 475.5 284 L 478.5 285 L 480 283.5 L 480 281 Q 483 282.3 482 278.5 L 484 278.5 L 483 275.5 L 486 274.5 Q 485.3 272.3 487.5 273 L 486.5 270 L 488.5 270 L 499 278.5 L 512 292.5 L 512 304.5 L 511.5 307 Q 509.3 306.3 510 308.5 L 509 310.5 L 510.5 310 L 512 310.5 L 510 311.5 L 512 312 L 512 325.5 L 510.5 326 L 510.5 327 L 512 327.5 L 510.5 330 L 508.5 329 L 509 330.5 L 506.5 334 Q 505.3 331.8 504 334.5 L 506 335.5 L 503 337.5 L 503.5 339 L 500 340.5 Q 501.1 343.8 498.5 343 L 498.5 345 Q 494.8 343.8 496 347.5 L 492 349.5 L 490 355 L 488 355.5 L 488.5 357 L 486 357.5 L 487 359.5 Q 485 357.8 483 361.5 L 483.5 363 Q 481.3 362.3 482 364.5 L 476.5 371 L 475 371.5 L 475.5 373 L 474 373.5 L 474.5 375 L 470 377.5 L 472 378.5 L 468 380.5 L 469 382.5 L 467 383.5 L 468 381.5 L 466 382.5 L 465 387 L 461 389 L 461 392.5 L 460 392.5 Q 460.8 390.3 458.5 391 L 459 394.5 L 456.5 397 Q 455.3 394.8 454 397.5 L 454.5 399 Q 451.9 398.2 453 401.5 Q 451 399.8 449 403.5 Q 451.3 404.8 448.5 406 L 446 406.5 L 448 407.5 L 442.5 414 Q 441.3 411.8 440 414.5 L 442 415.5 L 439 417.5 L 439.5 419 L 437 419.5 L 437.5 421 L 436 420.5 Q 437.1 423.8 434.5 423 L 434.5 425 Q 430.8 423.8 432 427.5 L 428 429.5 L 426 435 L 424 435.5 Q 426.5 437 423 438.5 L 421.5 441 Q 420.3 438.8 419 441.5 L 419.5 443 Q 417.3 442.3 418 444.5 L 412 453 L 410 453.5 L 410.5 455 L 406 457.5 L 408 458.5 L 404 460.5 L 405 462.5 L 403 463.5 L 404 461.5 L 402 462.5 L 401 467 L 397 469 L 397 472.5 L 396 472.5 Q 396.8 470.3 394.5 471 L 395 474.5 L 392.5 477 L 390 477.5 L 390.5 479 Q 387.9 478.2 389 481.5 L 387.5 484 L 386.5 482 Q 384.3 489.8 378.5 494 Q 377.3 491.7 376 494.5 L 378 495.5 L 375 497.5 L 375.5 499 L 373 499.5 L 373.5 501 L 372 500.5 Q 373.1 503.8 370.5 503 L 370.5 505 Q 366.8 503.8 368 507.5 L 365.5 511 L 364.5 509 L 362.5 512 L 351.5 512 L 350.5 511 L 349 511.5 L 353 509.5 L 350 508.5 L 352 507.5 Q 350.5 504.5 349 507.5 L 348 512 L 331.5 512 L 329.5 511 L 290 471.5 L 293.5 474 L 296 474.5 L 295 475.5 L 302.5 483 L 304 482.5 L 304 480.5 L 304.5 479 L 305.5 481 L 308.5 476 L 310 475.5 Q 307.8 474.3 310.5 473 L 312 472.5 L 312 470.5 L 313.5 468 L 317 466.5 L 317 464.5 L 318.5 462 Q 319.8 464.2 321 461.5 L 319 460.5 L 321 459.5 L 321.5 461 L 323 456 L 325 455.5 L 324.5 454 L 326.5 455 L 326.5 453 L 328 453 Q 326.5 449.2 329.5 450 L 334.5 442 L 336 442.5 L 338 439.5 L 337.5 438 L 340.5 436 L 341.5 433 L 344 432.5 L 343 431.5 L 346 428.5 L 348 425.5 L 350.5 422 L 352 421.5 L 351.5 420 L 355 417.5 L 354.5 416 L 359 414.5 L 357 413.5 L 360 411.5 Q 359.3 409.3 361.5 410 L 362.5 407 Q 365.8 408.1 365 405.5 L 366 403 L 368 402.5 L 368 400.5 L 368.5 399 L 369.5 401 L 372.5 396 L 374 395.5 Q 371.8 394.3 374.5 393 L 376 392.5 L 376 390.5 L 377.5 388 L 381 386.5 L 381 384.5 L 382.5 382 Q 383.8 384.3 385 381.5 L 383 380.5 L 385 379.5 L 385.5 381 L 387 376 L 389 375.5 L 388.5 374 L 390.5 375 L 390.5 373 L 392 373 Q 390.5 369.3 393.5 370 L 398.5 362 L 400 362.5 L 399 360.5 L 402 359.5 L 401.5 358 L 404.5 356 L 405.5 353 L 408 352.5 L 407 351.5 L 410 348.5 L 412 345.5 L 414.5 342 L 416 341.5 L 415.5 340 L 419 337.5 L 418.5 336 L 423 334.5 L 421 333.5 L 424 331.5 Q 423.3 329.3 425.5 330 L 427 326.5 L 427.5 325 L 428.5 327 L 430 323.5 L 429.5 322 L 431.5 323 L 432 320.5 L 432.5 319 L 433.5 321 L 436 316.5 L 435.5 315 L 437.5 316 L 438.5 313 L 440 312.5 L 440 310.5 L 441.5 308 L 445 306.5 L 445 304.5 L 446.5 302 Q 447.8 304.3 449 301.5 L 447 300.5 L 451 299 Q 449.5 295.3 452.5 296 L 453.5 293 L 456 293 Q 454.5 289.2 457.5 290 L 457.5 288 L 459 288.5 L 462.5 282 L 464 282.5 L 463 280.5 L 466 279.5 L 465.5 278 L 468.5 276 L 469.5 273 L 472 272.5 L 471 271.5 L 474 268.5 L 478.5 262 L 480 261.5 L 473.5 254 Q 471.3 254.8 472 252.5 L 461.5 241 Z M 475 279 L 476 281 Q 477 278 475 279 Z M 458 301 L 456 303 L 458 303 L 458 301 Z M 507 311 L 507 314 L 509 313 Q 510 310 507 311 Z M 505 314 L 505 316 L 501 318 L 504 319 L 507 315 L 505 314 Z M 507 317 Q 505 320 508 319 L 507 317 Z M 444 319 L 442 322 L 443 323 L 445 322 L 444 319 Z M 446 319 L 446 322 L 444 323 L 444 325 L 441 323 L 444 327 L 447 325 L 446 324 L 449 323 L 447 322 L 448 320 L 446 319 Z M 503 319 L 501 321 L 504 321 L 503 319 Z M 500 322 L 498 323 L 498 325 L 496 324 L 496 326 L 495 328 L 498 326 Q 500 327 499 324 L 504 323 L 500 322 Z M 441 325 L 439 328 L 441 328 Q 440 330 439 328 L 438 330 L 436 331 L 438 332 L 437 332 Q 435 335 433 334 L 434 337 L 433 337 Q 434 334 432 335 L 432 337 L 431 337 Q 428 338 430 340 L 429 343 L 428 343 Q 429 340 427 341 L 427 343 L 425 344 L 427 344 L 426 346 L 425 345 L 424 345 Q 425 348 423 347 L 423 349 Q 420 348 421 351 L 419 352 Q 420 354 417 356 L 418 357 L 416 355 L 415 357 L 416 358 L 414 357 L 413 361 L 409 366 L 405 368 L 408 369 L 406 369 L 406 371 L 403 372 L 403 374 L 402 374 L 402 376 L 399 377 L 400 379 L 397 380 Q 398 382 396 381 L 396 383 L 395 383 L 394 386 L 392 385 L 392 387 L 390 387 Q 391 389 388 391 L 389 392 L 384 393 L 382 399 L 386 396 L 384 399 L 386 401 Q 388 400 386 399 L 390 396 L 389 395 L 392 393 L 390 391 L 393 392 L 395 391 L 395 389 Q 397 390 396 388 L 396 386 L 398 386 L 402 381 Q 401 378 404 379 L 403 378 Q 405 374 407 376 L 406 374 L 408 374 L 409 373 L 408 370 L 410 371 L 412 367 L 411 365 L 415 365 L 416 361 L 419 361 L 418 359 L 420 359 L 419 356 L 422 355 Q 421 352 424 353 L 422 351 Q 425 352 428 347 L 429 348 L 428 346 L 432 344 L 430 343 L 432 342 L 433 340 L 431 339 L 433 338 L 434 339 Q 435 336 437 338 L 436 336 L 439 335 Q 437 333 440 332 L 439 331 L 443 329 L 441 325 Z M 494 327 L 492 331 L 493 333 L 495 330 L 495 332 L 496 332 Q 496 328 494 327 Z M 498 327 L 496 329 L 499 329 L 498 327 Z M 434 331 L 434 333 L 436 332 L 434 331 Z M 491 331 Q 491 335 488 334 L 488 337 L 491 337 L 492 335 L 491 331 Z M 486 337 L 487 340 L 485 340 Q 484 342 487 341 Q 488 343 489 341 L 488 339 L 486 337 Z M 484 340 L 483 342 L 481 343 L 485 344 L 485 342 L 484 340 Z M 486 342 L 487 344 Q 488 341 486 342 Z M 482 344 L 482 346 L 480 347 L 481 349 L 482 349 Q 481 346 484 347 L 483 346 Q 484 343 482 344 Z M 479 346 L 475 353 Q 474 356 477 355 L 476 354 L 477 352 L 481 350 L 478 349 L 480 348 L 479 346 Z M 473 353 L 472 355 L 476 357 L 473 353 Z M 471 357 L 472 359 Q 473 356 471 357 Z M 474 357 Q 472 360 475 359 L 474 357 Z M 411 359 L 412 361 Q 413 358 411 359 Z M 471 359 L 468 360 L 467 363 L 470 364 L 469 363 L 472 361 L 471 359 Z M 465 363 L 463 365 L 465 365 L 465 363 Z M 467 363 L 467 366 Q 470 365 467 363 Z M 462 367 L 461 369 Q 465 370 464 368 L 462 367 Z M 463 370 L 463 371 L 465 371 L 463 370 Z M 462 371 Q 460 374 463 373 L 462 371 Z M 457 373 L 458 378 Q 460 377 458 376 L 460 375 L 461 377 L 461 374 L 457 373 Z M 454 377 L 454 379 L 456 380 Q 457 376 454 377 Z M 452 380 L 450 384 L 455 383 L 453 382 L 455 381 L 452 380 Z M 394 381 L 392 383 L 394 383 L 394 381 Z M 449 384 L 447 386 L 449 386 Q 450 388 451 386 L 449 384 Z M 446 387 L 445 390 L 446 391 L 448 390 L 447 389 L 449 388 L 446 387 Z M 443 391 L 443 394 L 445 393 Q 446 390 443 391 Z M 441 394 L 441 396 L 437 398 L 440 399 L 443 395 L 441 394 Z M 456 394 L 456 396 L 458 395 L 456 394 Z M 443 397 Q 441 400 444 399 L 443 397 Z M 382 399 L 382 402 L 380 403 L 380 405 L 378 403 L 376 404 L 380 409 L 381 409 Q 379 404 383 405 L 382 404 L 385 403 L 383 402 L 384 400 L 382 399 Z M 439 399 L 437 401 L 440 401 L 439 399 Z M 436 402 L 434 403 L 434 405 L 432 404 L 432 406 L 430 407 Q 432 410 434 406 Q 436 407 435 404 L 440 403 L 436 402 Z M 377 405 L 375 408 L 377 408 Q 376 410 375 408 L 374 410 L 372 411 L 374 412 L 373 412 Q 371 415 369 414 L 370 417 L 369 417 Q 370 414 368 415 L 368 417 L 367 417 Q 364 418 366 420 L 365 423 L 364 423 Q 365 420 363 421 L 363 423 L 361 424 L 363 424 L 362 426 L 361 425 L 360 425 Q 361 428 359 427 L 359 429 Q 356 428 357 431 L 355 432 Q 356 434 353 436 L 354 437 L 351 436 L 352 438 L 351 438 L 351 440 L 350 439 L 345 446 L 341 448 L 344 449 L 342 449 L 342 451 L 339 452 L 339 454 L 338 454 L 338 456 L 335 457 L 336 459 L 333 460 Q 334 462 332 461 L 332 463 L 331 463 L 330 466 L 328 465 L 328 467 L 326 467 Q 327 469 324 471 L 325 472 L 320 473 L 318 479 L 322 476 L 320 479 L 321 480 L 317 480 L 318 482 L 316 483 L 316 485 L 314 483 L 312 484 L 316 489 L 317 489 L 317 485 L 319 485 L 319 483 Q 322 484 321 482 Q 324 480 322 479 L 326 476 L 325 475 L 328 473 L 326 471 L 329 472 L 331 471 L 330 470 L 332 469 L 338 461 Q 337 458 340 459 L 339 458 Q 341 454 343 456 L 342 454 L 344 454 L 345 453 L 344 450 L 346 451 L 348 447 L 347 445 L 351 445 L 352 444 Q 351 440 355 441 L 354 440 L 356 439 L 355 436 L 357 436 L 360 435 L 360 433 L 358 431 Q 361 432 364 427 L 365 428 L 365 427 L 365 425 L 367 426 L 368 424 L 366 423 L 369 422 L 369 420 L 367 419 L 369 418 L 370 419 Q 371 416 373 418 L 372 416 L 375 415 Q 373 413 376 412 L 375 411 L 379 409 L 377 405 Z M 430 407 L 428 411 L 429 413 L 431 410 L 431 412 L 432 412 Q 433 407 430 407 Z M 434 407 L 432 409 L 435 409 L 434 407 Z M 370 411 L 370 413 L 372 412 L 370 411 Z M 427 411 Q 427 415 424 414 L 424 417 L 427 417 L 428 415 L 427 411 Z M 422 417 L 423 420 L 421 420 Q 420 422 423 421 Q 424 423 425 421 L 424 419 L 422 417 Z M 420 420 L 419 422 L 417 423 L 421 424 L 421 422 L 420 420 Z M 422 422 L 423 424 Q 424 421 422 422 Z M 418 424 L 418 426 L 416 427 L 417 429 L 418 429 Q 417 426 420 427 L 419 426 Q 420 423 418 424 Z M 415 426 L 411 433 Q 410 436 413 435 L 412 434 L 413 432 L 417 430 L 414 429 L 416 428 L 415 426 Z M 410 434 L 409 436 L 412 437 L 410 434 Z M 407 437 L 408 439 Q 409 436 407 437 Z M 410 437 Q 408 440 411 439 L 410 437 Z M 347 439 L 348 441 Q 349 438 347 439 Z M 407 439 L 404 440 L 403 443 L 406 444 L 405 443 L 408 441 L 407 439 Z M 401 443 L 399 445 L 401 445 L 401 443 Z M 403 443 L 403 446 Q 406 445 403 443 Z M 398 447 L 397 449 Q 401 450 400 448 L 398 447 Z M 399 450 L 399 451 L 401 451 L 399 450 Z M 398 451 Q 396 454 399 453 L 398 451 Z M 393 453 L 394 458 Q 396 457 394 456 L 396 455 L 397 457 L 397 454 L 393 453 Z M 390 457 L 390 459 L 392 460 Q 393 456 390 457 Z M 388 460 L 386 464 L 391 463 L 389 462 L 391 461 L 388 460 Z M 330 461 L 328 463 L 330 463 L 330 461 Z M 385 463 L 383 466 L 385 466 Q 386 468 387 466 L 385 465 L 385 463 Z M 382 467 L 381 470 L 382 471 L 384 470 L 383 469 L 385 468 L 382 467 Z M 386 468 Q 384 471 387 470 L 386 468 Z M 379 471 L 379 474 L 381 473 Q 382 470 379 471 Z M 377 474 L 377 476 L 373 478 L 376 479 L 379 475 L 377 474 Z M 379 477 Q 377 480 380 479 L 379 477 Z M 375 479 L 373 481 L 376 481 L 375 479 Z M 372 482 L 370 483 L 370 485 L 368 484 L 368 486 L 366 487 Q 368 490 370 486 Q 372 487 371 484 L 376 483 L 372 482 Z M 313 485 L 311 488 L 313 488 L 310 489 L 311 491 L 315 489 L 313 485 Z M 366 487 L 364 491 L 365 493 L 367 490 L 367 492 L 368 492 Q 369 488 366 487 Z M 370 487 L 368 489 L 371 489 L 370 487 Z M 363 491 Q 363 495 360 494 L 360 497 L 363 497 L 364 495 L 363 491 Z M 358 497 L 359 500 L 357 500 Q 356 502 359 501 Q 360 503 361 501 L 360 499 L 358 497 Z M 356 500 L 355 502 L 353 503 L 357 504 L 357 502 L 356 500 Z M 358 502 L 359 504 Q 360 501 358 502 Z M 354 504 L 354 506 L 352 507 L 353 509 L 354 509 Q 353 506 356 507 L 355 506 Q 356 503 354 504 Z " /><path fill="rgb(249,250,253)" stroke="rgb(249,250,253)" stroke-width="1" opacity="1" d="M 465.5 260 L 466.5 262 Q 463.7 262.7 465.5 260 Z " /><path fill="rgb(249,250,253)" stroke="rgb(249,250,253)" stroke-width="1" opacity="1" d="M 463.5 263 L 466 263.5 L 463 264.5 L 459 269.5 L 459.5 271 L 455.5 273 L 456.5 271 Q 458.8 271.8 458 269.5 L 457.5 268 Q 458.8 270.3 460 267.5 L 459.5 266 Q 462.8 267.1 462 264.5 L 463.5 263 Z " /><path fill="rgb(249,250,253)" stroke="rgb(249,250,253)" stroke-width="1" opacity="1" d="M 108.5 272 L 109 275.5 Q 99.1 281.1 102 299.5 Q 108 318.5 121.5 330 L 140.5 342 L 154.5 346 L 165.5 347 L 168 349.5 L 164.5 350 L 163.5 349 L 150.5 348 L 140.5 345 Q 124 338 113 325.5 L 101 305.5 Q 97.4 297.6 99 284.5 Q 100.8 276.9 106.5 273 L 108.5 272 Z " /><path fill="rgb(249,250,253)" stroke="rgb(249,250,253)" stroke-width="1" opacity="1" d="M 452.5 274 L 456 274.5 L 452.5 275 L 452.5 274 Z " /><path fill="rgb(249,250,253)" stroke="rgb(249,250,253)" stroke-width="1" opacity="1" d="M 453.5 276 L 452.5 280 Q 449 278 453.5 276 Z " /><path fill="rgb(249,250,253)" stroke="rgb(249,250,253)" stroke-width="1" opacity="1" d="M 447.5 281 L 448 283.5 L 446 284.5 L 447.5 281 Z " /><path fill="rgb(249,250,253)" stroke="rgb(249,250,253)" stroke-width="1" opacity="1" d="M 445.5 286 L 448 286.5 L 445 287.5 L 444.5 289 L 444 287.5 L 445.5 286 Z " /><path fill="rgb(249,250,253)" stroke="rgb(249,250,253)" stroke-width="1" opacity="1" d="M 442.5 287 L 443 288.5 L 442 290.5 L 442.5 292 L 440.5 291 Q 442.1 292.8 439 294.5 L 437.5 298 L 437 296.5 L 437.5 294 L 439 293.5 L 438 292.5 L 442 288.5 L 442.5 287 Z " /><path fill="rgb(249,250,253)" stroke="rgb(249,250,253)" stroke-width="1" opacity="1" d="M 433.5 297 L 438 299.5 L 436.5 300 L 433.5 297 Z " /><path fill="rgb(249,250,253)" stroke="rgb(249,250,253)" stroke-width="1" opacity="1" d="M 433.5 299 L 435 301.5 L 433 301.5 L 432.5 303 L 431.5 301 Q 434 301.7 433.5 299 Z " /><path fill="rgb(249,250,253)" stroke="rgb(249,250,253)" stroke-width="1" opacity="1" d="M 429 304 L 431 304.5 L 427.5 307 L 427.5 306 Q 430.1 306.7 429 304 Z " /><path fill="rgb(249,250,253)" stroke="rgb(249,250,253)" stroke-width="1" opacity="1" d="M 426.5 308 L 428 308.5 L 426 309.5 L 426.5 311 L 422.5 313 L 422.5 312 L 425 310.5 L 426.5 308 Z " /><path fill="rgb(249,250,253)" stroke="rgb(249,250,253)" stroke-width="1" opacity="1" d="M 420.5 314 L 422.5 314 L 424 314.5 L 422 315.5 L 422.5 317 L 420.5 314 Z " /><path fill="rgb(249,250,253)" stroke="rgb(249,250,253)" stroke-width="1" opacity="1" d="M 419.5 316 L 421 318.5 L 417.5 321 L 417 318.5 L 418.5 319 Q 420.8 319.8 420 317.5 L 419.5 316 Z " /><path fill="rgb(249,250,253)" stroke="rgb(249,250,253)" stroke-width="1" opacity="1" d="M 414.5 321 L 418 322.5 L 414 323 L 414.5 321 Z " /><path fill="rgb(249,250,253)" stroke="rgb(249,250,253)" stroke-width="1" opacity="1" d="M 412.5 324 L 413 328.5 L 412 328.5 L 411 326.5 L 412.5 324 Z " /><path fill="rgb(249,250,253)" stroke="rgb(249,250,253)" stroke-width="1" opacity="1" d="M 414.5 324 L 415.5 326 L 414.5 324 Z " /><path fill="rgb(249,250,253)" stroke="rgb(249,250,253)" stroke-width="1" opacity="1" d="M 409.5 328 L 411 328.5 L 408.5 330 L 409.5 328 Z " /><path fill="rgb(249,250,253)" stroke="rgb(249,250,253)" stroke-width="1" opacity="1" d="M 410.5 330 L 409 332.5 L 408.5 334 L 407 331.5 Q 408.8 333.1 410.5 330 Z " /><path fill="rgb(249,250,253)" stroke="rgb(249,250,253)" stroke-width="1" opacity="1" d="M 401.5 340 L 402.5 342 Q 399.7 342.7 401.5 340 Z " /><path fill="rgb(249,250,253)" stroke="rgb(249,250,253)" stroke-width="1" opacity="1" d="M 510.5 342 Q 513.3 341.4 512 347.5 L 509 353 Q 505.2 351.5 506 354.5 L 506.5 356 L 504.5 355 Q 506.1 356.8 503 358.5 L 502 362 L 498 363 L 499 365.5 L 497 365.5 L 495 368.5 L 492 373 L 490 373.5 L 490.5 375 L 488 376.5 L 488 379 Q 485.3 377.9 486 380.5 L 483.5 384 L 481 385.5 L 481.5 387 Q 478.2 385.9 479 388.5 L 479.5 390 Q 478.2 387.7 477 390.5 L 477 392.5 L 471.5 399 L 469 399.5 Q 471.5 401 468 402.5 Q 468.8 404.8 466.5 404 L 466.5 406 L 463 408.5 L 459 413.5 L 459.5 415 L 455 417.5 L 455.5 419 Q 453.3 418.3 454 420.5 L 450 423.5 L 450.5 425 Q 446.8 423.8 448 427.5 L 445 433 Q 441.3 431.5 442 434.5 L 442.5 436 L 440.5 435 Q 442.1 436.8 439 438.5 L 438 442 L 434 443 L 435 445.5 L 433 445.5 L 431 448.5 L 428 453 L 426 453.5 L 426.5 455 L 424 456.5 L 424 459 Q 421.3 457.9 422 460.5 L 419.5 464 L 417 465.5 L 417.5 467 Q 414.2 465.9 415 468.5 L 415.5 470 Q 414.3 467.8 413 470.5 L 413 472.5 L 407.5 479 L 405 479.5 L 407 480.5 L 404 482.5 L 404.5 484 L 402 484.5 L 402.5 486 L 399 488.5 L 397 493 L 395 493.5 L 395.5 495 L 391 497.5 L 391.5 499 Q 389.3 498.3 390 500.5 Q 386.9 502.3 388.5 504 L 386.5 503 L 386.5 505 Q 382.8 503.8 384 507.5 L 380.5 512 L 378.5 512 L 375 511.5 L 382.5 502 L 384 501.5 L 383.5 500 L 387 497.5 L 386.5 496 L 389 494.5 Q 388.3 492.3 390.5 493 L 390.5 491 L 392 491.5 L 392.5 488 L 393.5 490 L 395 486.5 L 398.5 481 Q 400.8 481.8 400 479.5 L 401.5 477 Q 402.8 479.3 404 476.5 L 403.5 473 L 406 474 L 409 468.5 L 408.5 467 L 410.5 468 L 410 466.5 L 410.5 465 Q 411.8 467.2 413 464.5 L 416.5 459 L 419 458.5 L 417 457.5 L 419 456.5 L 418.5 455 L 420.5 456 L 420.5 452 L 422 452.5 Q 421.3 450.3 423.5 451 L 423.5 449 L 428 446.5 L 427.5 445 Q 429.8 445.8 429 443.5 L 433.5 438 L 436.5 436 L 437.5 433 L 440 432.5 Q 437.5 431 441 429.5 L 446.5 422 L 448 421.5 L 447.5 420 L 451 417.5 L 450.5 416 L 453 414.5 Q 452.3 412.3 454.5 413 L 454.5 411 Q 457.1 411.8 456 408.5 L 457 408.5 L 457.5 410 L 459 406.5 L 462.5 401 Q 464.8 401.8 464 399.5 L 465.5 397 L 467 397.5 L 468 394.5 L 467.5 393 L 470 394 L 473 388.5 L 472.5 387 L 474.5 388 L 474 386.5 L 474.5 385 Q 475.8 387.3 477 384.5 L 480.5 379 L 483 378.5 L 481 377.5 L 483 376.5 L 482.5 375 L 484.5 376 L 484.5 372 L 486 372.5 Q 485.3 370.3 487.5 371 L 487.5 369 L 492 366.5 L 491.5 365 Q 493.8 365.8 493 363.5 L 497.5 358 L 500.5 356 L 501.5 353 L 504 352.5 Q 501.5 351 505 349.5 L 510.5 342 Z " /><path fill="rgb(249,250,253)" stroke="rgb(249,250,253)" stroke-width="1" opacity="1" d="M 399.5 343 L 402 343.5 L 399 344.5 L 400 346.5 Q 397.5 344.7 395 349.5 L 395.5 351 L 393 352.5 L 393.5 354 L 391 352.5 L 394 351 L 393 348.5 L 396 347.5 L 395.5 346 Q 398.8 347.1 398 344.5 L 399.5 343 Z " /><path fill="rgb(249,250,253)" stroke="rgb(249,250,253)" stroke-width="1" opacity="1" d="M 388.5 354 L 392 354.5 L 388.5 355 L 388.5 354 Z " /><path fill="rgb(249,250,253)" stroke="rgb(249,250,253)" stroke-width="1" opacity="1" d="M 389.5 356 L 388.5 360 Q 385 358 389.5 356 Z " /><path fill="rgb(249,250,253)" stroke="rgb(249,250,253)" stroke-width="1" opacity="1" d="M 175.5 357 L 178 359.5 Q 178.3 372.2 182 381.5 Q 188.7 398.3 201.5 409 Q 210.4 416.6 222.5 421 L 238.5 422 Q 240.2 419.2 242 423.5 L 239.5 425 L 226.5 425 Q 203.8 418.7 191 402.5 Q 183.5 393.5 179 381.5 L 176 369.5 L 175.5 357 Z " /><path fill="rgb(249,250,253)" stroke="rgb(249,250,253)" stroke-width="1" opacity="1" d="M 383.5 361 L 384 363.5 L 382 364.5 L 383.5 361 Z " /><path fill="rgb(249,250,253)" stroke="rgb(249,250,253)" stroke-width="1" opacity="1" d="M 381.5 366 L 384 366.5 L 381 367.5 L 382 369.5 L 380 368.5 L 381.5 366 Z " /><path fill="rgb(249,250,253)" stroke="rgb(249,250,253)" stroke-width="1" opacity="1" d="M 378.5 367 L 379 368.5 L 378 370.5 L 378.5 372 L 376.5 371 Q 378.1 372.8 375 374.5 L 373.5 378 L 373 376.5 L 373.5 374 L 375 373.5 L 374 372.5 L 378 368.5 L 378.5 367 Z " /><path fill="rgb(249,250,253)" stroke="rgb(249,250,253)" stroke-width="1" opacity="1" d="M 369.5 377 L 374 379.5 L 372.5 380 L 369.5 377 Z " /><path fill="rgb(249,250,253)" stroke="rgb(249,250,253)" stroke-width="1" opacity="1" d="M 369.5 379 L 371 381.5 L 369 381.5 L 368.5 383 L 367.5 381 Q 370 381.7 369.5 379 Z " /><path fill="rgb(249,250,253)" stroke="rgb(249,250,253)" stroke-width="1" opacity="1" d="M 365 384 L 367 384.5 Q 363.5 386 366 387.5 L 365.5 389 L 365 387 L 363 386.5 L 365 386 L 365 384 Z " /><path fill="rgb(249,250,253)" stroke="rgb(249,250,253)" stroke-width="1" opacity="1" d="M 362.5 388 L 364 388.5 L 362 389.5 L 362.5 391 L 358.5 393 L 358.5 392 L 361 390.5 L 362.5 388 Z " /><path fill="rgb(249,250,253)" stroke="rgb(249,250,253)" stroke-width="1" opacity="1" d="M 356.5 394 L 358.5 394 L 360 394.5 L 358 395.5 L 358.5 397 L 356.5 394 Z " /><path fill="rgb(249,250,253)" stroke="rgb(249,250,253)" stroke-width="1" opacity="1" d="M 355.5 396 L 357 398.5 L 353.5 401 L 353 398.5 L 354.5 399 Q 356.8 399.8 356 397.5 L 355.5 396 Z " /><path fill="rgb(249,250,253)" stroke="rgb(249,250,253)" stroke-width="1" opacity="1" d="M 350.5 401 L 354 402.5 L 350 403 L 350.5 401 Z " /><path fill="rgb(249,250,253)" stroke="rgb(249,250,253)" stroke-width="1" opacity="1" d="M 348.5 404 L 349 408.5 L 343.5 415 L 341 414.5 L 344 414 L 343 411.5 Q 345 413.2 347 409.5 L 345.5 409 L 344 409.5 L 346.5 408 L 348 408.5 L 347 406.5 L 348.5 404 Z " /><path fill="rgb(249,250,253)" stroke="rgb(249,250,253)" stroke-width="1" opacity="1" d="M 350.5 404 L 351.5 406 L 350.5 404 Z " /><path fill="rgb(249,250,253)" stroke="rgb(249,250,253)" stroke-width="1" opacity="1" d="M 337.5 420 L 338.5 422 Q 335.7 422.7 337.5 420 Z " /><path fill="rgb(249,250,253)" stroke="rgb(249,250,253)" stroke-width="1" opacity="1" d="M 335.5 423 L 338 423.5 L 335 424.5 L 336 426.5 Q 333.5 424.7 331 429.5 L 331.5 431 L 329 432.5 L 329.5 434 L 327 432.5 L 330 431 L 329 428.5 L 332 427.5 L 331.5 426 Q 334.8 427.1 334 424.5 L 335.5 423 Z " /><path fill="rgb(249,250,253)" stroke="rgb(249,250,253)" stroke-width="1" opacity="1" d="M 324.5 434 L 328 434.5 L 324.5 435 L 324.5 434 Z " /><path fill="rgb(249,250,253)" stroke="rgb(249,250,253)" stroke-width="1" opacity="1" d="M 325.5 436 L 324.5 440 Q 321 438 325.5 436 Z " /><path fill="rgb(249,250,253)" stroke="rgb(249,250,253)" stroke-width="1" opacity="1" d="M 319.5 441 L 320 443.5 L 318 444.5 L 319.5 441 Z " /><path fill="rgb(249,250,253)" stroke="rgb(249,250,253)" stroke-width="1" opacity="1" d="M 265.5 446 L 268.5 450 L 265.5 446 Z " /><path fill="rgb(249,250,253)" stroke="rgb(249,250,253)" stroke-width="1" opacity="1" d="M 317.5 446 L 320 446.5 L 317 447.5 L 318 449.5 L 316 448.5 L 317.5 446 Z " /><path fill="rgb(249,250,253)" stroke="rgb(249,250,253)" stroke-width="1" opacity="1" d="M 314.5 447 L 315 448.5 L 314 450.5 L 314.5 452 L 312.5 451 Q 314.1 452.8 311 454.5 L 309.5 458 L 309 456.5 L 309.5 454 L 311 453.5 L 310 452.5 L 314 448.5 L 314.5 447 Z " /><path fill="rgb(249,250,253)" stroke="rgb(249,250,253)" stroke-width="1" opacity="1" d="M 274.5 455 L 277.5 459 L 274.5 455 Z " /><path fill="rgb(249,250,253)" stroke="rgb(249,250,253)" stroke-width="1" opacity="1" d="M 305.5 457 L 310 459.5 L 308.5 460 L 305.5 457 Z " /><path fill="rgb(249,250,253)" stroke="rgb(249,250,253)" stroke-width="1" opacity="1" d="M 305.5 459 L 307 461.5 L 305 461.5 L 304.5 463 L 303.5 461 Q 306 461.7 305.5 459 Z " /><path fill="rgb(249,250,253)" stroke="rgb(249,250,253)" stroke-width="1" opacity="1" d="M 283.5 464 L 286.5 468 L 283.5 464 Z " /><path fill="rgb(249,250,253)" stroke="rgb(249,250,253)" stroke-width="1" opacity="1" d="M 301 464 L 303 464.5 Q 299.5 466 302 467.5 L 301.5 469 L 301 467 L 299 466.5 L 301 466 L 301 464 Z " /><path fill="rgb(249,250,253)" stroke="rgb(249,250,253)" stroke-width="1" opacity="1" d="M 298.5 468 L 300 468.5 L 298 469.5 L 298.5 471 L 294.5 473 L 294.5 472 L 297 470.5 L 298.5 468 Z " /><path fill="rgb(241,242,249)" stroke="rgb(241,242,249)" stroke-width="1" opacity="1" d="M 369.5 148 L 397 176.5 L 394 177 L 395 179.5 L 393.5 179 L 392 179.5 Q 394.5 181 391 182.5 L 390 186 L 388 186.5 L 388.5 188 L 387 187.5 Q 385.7 192.2 388 193.5 L 387 196 L 390 194.5 L 389.5 193 L 392 192.5 L 391 191.5 L 394 188.5 L 395 186.5 L 394.5 185 Q 395.8 187.3 397 184.5 L 398 182.5 L 397.5 181 L 399.5 182 L 399 180.5 L 399.5 179 L 406 185.5 L 405.5 188 L 402.5 190 L 401 189.5 L 402 191.5 L 400 191.5 L 399 193.5 L 399.5 195 Q 397.3 194.3 398 196.5 L 395 197.5 L 394 199.5 Q 396.3 200.8 393.5 202 L 392 201.5 L 390.5 205 Q 388.3 204.3 389 206.5 L 387 208.5 L 387 229.5 L 386 230.5 L 387 233.5 L 387 250.5 Q 384 252.5 385 258.5 L 387 258.5 L 387 271.5 L 386 272.5 Q 388.7 274.3 384.5 276 L 383 276.5 L 383 278.5 Q 382.1 289.6 375.5 295 Q 371.5 298.7 365 299 Q 366.1 302.5 358.5 301 L 358.5 302 L 364 302.5 L 352.5 303 L 353 301.5 Q 353.9 298.1 348.5 300 L 345.5 301 L 327.5 292 L 325 292 L 324 294.5 L 324 307.5 L 323 309.5 L 324 310.5 L 324 328.5 L 323.5 331 L 322 331 L 322 336 L 324 336.5 L 324 343.5 L 322 352.5 L 314.5 363 L 308.5 366 L 300 367 L 299.5 364 L 296.5 366 L 295 365.5 Q 295.8 367.8 293.5 367 L 283.5 365 L 282 363.5 L 281.5 362 L 280.5 364 L 268.5 358 L 266 359.5 Q 268.3 360.8 265.5 362 L 264 361.5 L 262.5 365 L 261 365.5 L 261 388.5 L 259 388.5 Q 258.3 390.8 260.5 390 L 261 392.5 L 261 406.5 L 259 409.5 L 259.5 411 L 257 411.5 Q 259.5 413 256 414.5 L 255 419 Q 252.3 417.9 253 420.5 L 248 427 Q 241.1 424.3 236.5 418 L 234.5 418 L 230.5 419 Q 207.1 413.9 195 397.5 L 186 382.5 L 183 373.5 L 182 364.5 L 189 370.5 Q 193.4 392.1 208.5 403 L 221.5 411 L 230.5 412 Q 232.8 416.8 238.5 418 L 245 413.5 L 251 399.5 L 251 381.5 L 252 380.5 L 251 378.5 L 252 373.5 L 251 372.5 L 251 357.5 L 252 356.5 L 252 344.5 L 254 339 L 256.5 338 L 263.5 342 L 264.5 341 L 269.5 346 L 274.5 350 L 286.5 355 L 299.5 355 L 302.5 354 L 310 347.5 L 313 341.5 L 312 339.5 L 313 338.5 L 314 299.5 L 315 297.5 L 314 292.5 Q 312.3 279.8 317.5 274 Q 323.7 273.4 326 276 L 327.5 279 Q 330.1 278.3 329 281 L 331.5 281 L 339.5 287 L 355.5 292 L 357.5 292 Q 367.9 291.9 372 285.5 L 376 275.5 L 376 262.5 L 377 261.5 L 376 258.5 L 377 221.5 L 378 218.5 L 378 216.5 L 377 214.5 L 377 199.5 L 378 198.5 L 378 174.5 L 379 171.5 L 376 166.5 L 376 164.5 L 374 158.5 L 374.5 157 L 371 154.5 Q 373.5 153 370 151.5 L 369.5 148 Z M 292 364 L 292 365 L 294 365 L 292 364 Z M 302 364 L 302 365 L 304 365 L 302 364 Z M 259 404 L 258 407 L 259 407 L 259 404 Z " /><path fill="rgb(241,242,249)" stroke="rgb(241,242,249)" stroke-width="1" opacity="1" d="M 235.5 154 L 238 160.5 L 238 165.5 L 237 168.5 Q 238.6 178.9 244 185.5 L 262 204.5 L 251 205 L 248 198.5 L 238 186.5 L 233 176.5 L 231 169.5 L 231 162.5 L 235.5 154 Z " /><path fill="rgb(241,242,249)" stroke="rgb(241,242,249)" stroke-width="1" opacity="1" d="M 172.5 217 L 175 224.5 L 175 229.5 L 174 231.5 Q 176.2 232.8 175 237.5 L 182 250.5 L 200 268.5 L 188 269 L 188 266.5 L 178 254.5 L 171 242.5 L 168 232.5 L 168 226.5 L 172.5 217 Z " /><path fill="rgb(241,242,249)" stroke="rgb(241,242,249)" stroke-width="1" opacity="1" d="M 109.5 281 L 112 287.5 L 112 292.5 L 111 295.5 Q 115.8 314.8 129.5 325 L 142.5 333 L 154.5 336 L 166.5 347 L 175 350 L 178 358.5 L 182 362.5 L 161.5 343 Q 131.6 339.4 117 320.5 L 107 303.5 L 105 296.5 L 105 289.5 L 107 283.5 L 109.5 281 Z " /><path fill="rgb(241,242,249)" stroke="rgb(241,242,249)" stroke-width="1" opacity="1" d="M 254.5 422 L 253.5 424 L 254.5 422 Z " /></svg>