<svg width="512" height="512" version="1.1" xmlns="http://www.w3.org/2000/svg" desc="Created with imagetracer.js version 1.2.6" ><path fill="rgb(0,5,8)" stroke="rgb(0,5,8)" stroke-width="1" opacity="0.011764705882352941" d="M 0 0 L 58 0.5 L 46.5 3 L 33.5 9 L 19 20 L 9 33.5 L 5 41.5 L 0.5 58 L 0 0 Z " /><path fill="rgb(0,5,8)" stroke="rgb(0,5,8)" stroke-width="1" opacity="0.011764705882352941" d="M 454.5 0 L 512 0 L 512 57.5 L 511 57.5 L 511 53.5 L 507 41.5 L 499 27.5 L 492 19 L 478.5 9 L 465.5 3 L 454.5 1 L 454.5 0 Z " /><path fill="rgb(0,5,8)" stroke="rgb(0,5,8)" stroke-width="1" opacity="0.011764705882352941" d="M 0.5 454 Q 6.2 484.3 27.5 499 Q 39.5 508.5 58 511.5 L 0 512 L 0.5 454 Z " /><path fill="rgb(0,5,8)" stroke="rgb(0,5,8)" stroke-width="1" opacity="0.011764705882352941" d="M 511.5 454 L 512 512 L 454 511.5 L 470.5 507 L 478.5 503 L 492 493 L 503 478.5 L 509 465.5 L 511.5 454 Z " /><path fill="rgb(0,119,181)" stroke="rgb(0,119,181)" stroke-width="1" opacity="0.996078431372549" d="M 58.5 0 L 69 0.5 L 58.5 1 L 44.5 5 Q 28.7 11.7 18 23.5 Q 10 32.5 5 44.5 L 1 58.5 L 0.5 70 L 0 58.5 L 5 41.5 L 9 33.5 L 19 20 L 33.5 9 Q 44 2.5 58.5 0 Z " /><path fill="rgb(0,119,181)" stroke="rgb(0,119,181)" stroke-width="1" opacity="0.996078431372549" d="M 443.5 0 L 453.5 0 L 465.5 3 L 478.5 9 L 492 19 L 503 33.5 L 509 46.5 L 512 58.5 L 512 69.5 L 511 69.5 L 511 58.5 L 507 44.5 Q 500.3 28.7 488.5 18 Q 479.5 10 467.5 5 L 453.5 1 L 443.5 1 L 443.5 0 Z " /><path fill="rgb(0,119,181)" stroke="rgb(0,119,181)" stroke-width="1" opacity="0.996078431372549" d="M 0.5 442 L 1 453.5 L 5 467.5 Q 11.7 483.3 23.5 494 Q 32.5 502 44.5 507 L 58.5 511 L 69 511.5 L 58.5 512 Q 28.1 505.9 13 484.5 L 2 462.5 L 0 453.5 L 0.5 442 Z " /><path fill="rgb(0,119,181)" stroke="rgb(0,119,181)" stroke-width="1" opacity="0.996078431372549" d="M 511.5 442 L 512 453.5 Q 509.5 468 503 478.5 L 492 493 L 478.5 503 L 465.5 509 L 453.5 512 L 443.5 512 L 443.5 511 L 453.5 511 L 467.5 507 Q 483.3 500.3 494 488.5 Q 502 479.5 507 467.5 L 511 453.5 L 511.5 442 Z " /><path fill="rgb(0,119,181)" stroke="rgb(0,119,181)" stroke-width="1" opacity="1" d="M 69.5 0 L 442.5 0 L 443.5 1 L 453.5 1 L 467.5 5 Q 483.3 11.7 494 23.5 Q 502 32.5 507 44.5 L 511 58.5 L 511 69.5 L 512 70.5 L 512 441.5 L 511 442.5 L 511 453.5 L 507 467.5 Q 500.3 483.3 488.5 494 Q 479.5 502 467.5 507 L 453.5 511 L 443.5 511 L 442.5 512 L 69.5 512 L 68.5 511 L 58.5 511 L 44.5 507 Q 28.7 500.3 18 488.5 Q 10 479.5 5 467.5 L 1 453.5 L 1 442.5 L 0 441.5 L 0 70.5 L 1 69.5 L 1 58.5 L 5 44.5 Q 11.7 28.7 23.5 18 Q 32.5 10 44.5 5 L 53.5 2 L 68.5 1 L 69.5 0 Z M 135 96 Q 122 98 114 105 Q 100 114 97 134 L 98 151 L 106 167 Q 115 179 133 183 Q 158 185 170 173 Q 177 166 182 156 L 185 141 L 183 127 L 177 115 Q 169 103 156 98 L 148 96 L 135 96 Z M 329 198 L 328 199 L 314 200 L 301 204 L 285 214 L 274 227 L 273 210 L 271 206 L 269 203 L 263 201 L 216 201 L 210 203 L 205 209 L 205 409 L 207 413 L 213 416 L 266 416 L 268 415 L 272 411 L 273 407 L 273 296 L 277 281 L 283 270 Q 290 260 303 257 Q 321 255 331 262 Q 337 267 341 276 L 345 291 L 345 302 L 346 303 L 346 314 L 345 315 L 345 406 L 347 412 L 353 416 L 408 416 L 412 414 L 415 409 L 415 287 L 414 286 L 414 275 L 410 253 L 405 239 Q 400 226 391 218 Q 381 207 366 202 L 344 198 L 329 198 Z M 118 201 L 112 203 L 107 210 L 107 409 L 108 411 L 115 416 L 167 416 L 171 414 L 175 407 L 175 212 L 173 207 Q 170 202 164 201 L 118 201 Z " /><path fill="rgb(195,223,237)" stroke="rgb(195,223,237)" stroke-width="1" opacity="1" d="M 134.5 96 L 138 96.5 L 134.5 97 L 134.5 96 Z " /><path fill="rgb(195,223,237)" stroke="rgb(195,223,237)" stroke-width="1" opacity="1" d="M 143.5 96 L 148 96.5 L 143.5 97 L 143.5 96 Z " /><path fill="rgb(195,223,237)" stroke="rgb(195,223,237)" stroke-width="1" opacity="1" d="M 119.5 101 L 118.5 103 L 119.5 101 Z " /><path fill="rgb(195,223,237)" stroke="rgb(195,223,237)" stroke-width="1" opacity="1" d="M 116.5 103 L 115.5 105 L 116.5 103 Z " /><path fill="rgb(195,223,237)" stroke="rgb(195,223,237)" stroke-width="1" opacity="1" d="M 166.5 104 L 167.5 106 L 166.5 104 Z " /><path fill="rgb(195,223,237)" stroke="rgb(195,223,237)" stroke-width="1" opacity="1" d="M 113.5 105 L 107.5 112 L 113.5 105 Z " /><path fill="rgb(195,223,237)" stroke="rgb(195,223,237)" stroke-width="1" opacity="1" d="M 174.5 112 L 176.5 115 L 174.5 112 Z " /><path fill="rgb(195,223,237)" stroke="rgb(195,223,237)" stroke-width="1" opacity="1" d="M 105.5 114 L 104.5 116 L 105.5 114 Z " /><path fill="rgb(195,223,237)" stroke="rgb(195,223,237)" stroke-width="1" opacity="1" d="M 102.5 119 L 102 120.5 L 101.5 122 L 101 120.5 L 102.5 119 Z " /><path fill="rgb(195,223,237)" stroke="rgb(195,223,237)" stroke-width="1" opacity="1" d="M 98.5 128 L 99 130.5 L 98 130.5 L 98.5 128 Z " /><path fill="rgb(195,223,237)" stroke="rgb(195,223,237)" stroke-width="1" opacity="1" d="M 183.5 130 L 184 132.5 L 183 132.5 L 183.5 130 Z " /><path fill="rgb(195,223,237)" stroke="rgb(195,223,237)" stroke-width="1" opacity="1" d="M 97.5 133 L 98 145.5 L 97 145.5 L 97.5 133 Z " /><path fill="rgb(195,223,237)" stroke="rgb(195,223,237)" stroke-width="1" opacity="1" d="M 183.5 146 L 184 148.5 L 183 148.5 L 183.5 146 Z " /><path fill="rgb(195,223,237)" stroke="rgb(195,223,237)" stroke-width="1" opacity="1" d="M 178.5 161 L 177.5 163 L 178.5 161 Z " /><path fill="rgb(195,223,237)" stroke="rgb(195,223,237)" stroke-width="1" opacity="1" d="M 176.5 164 L 175.5 166 L 176.5 164 Z " /><path fill="rgb(195,223,237)" stroke="rgb(195,223,237)" stroke-width="1" opacity="1" d="M 106.5 166 L 109.5 170 L 106.5 166 Z " /><path fill="rgb(195,223,237)" stroke="rgb(195,223,237)" stroke-width="1" opacity="1" d="M 173.5 168 L 169.5 173 L 173.5 168 Z " /><path fill="rgb(195,223,237)" stroke="rgb(195,223,237)" stroke-width="1" opacity="1" d="M 111.5 171 L 114.5 175 L 111.5 171 Z " /><path fill="rgb(195,223,237)" stroke="rgb(195,223,237)" stroke-width="1" opacity="1" d="M 166.5 174 L 165.5 176 L 166.5 174 Z " /><path fill="rgb(195,223,237)" stroke="rgb(195,223,237)" stroke-width="1" opacity="1" d="M 116.5 175 L 117.5 177 L 116.5 175 Z " /><path fill="rgb(195,223,237)" stroke="rgb(195,223,237)" stroke-width="1" opacity="1" d="M 163.5 176 L 162.5 178 L 163.5 176 Z " /><path fill="rgb(195,223,237)" stroke="rgb(195,223,237)" stroke-width="1" opacity="1" d="M 132.5 182 L 135 182.5 L 132.5 183 L 132.5 182 Z " /><path fill="rgb(195,223,237)" stroke="rgb(195,223,237)" stroke-width="1" opacity="1" d="M 146.5 182 L 149 182.5 L 146.5 183 L 146.5 182 Z " /><path fill="rgb(195,223,237)" stroke="rgb(195,223,237)" stroke-width="1" opacity="1" d="M 328.5 198 L 344 198.5 L 328.5 199 L 328.5 198 Z " /><path fill="rgb(195,223,237)" stroke="rgb(195,223,237)" stroke-width="1" opacity="1" d="M 318.5 199 L 322 199.5 L 318.5 200 L 318.5 199 Z " /><path fill="rgb(195,223,237)" stroke="rgb(195,223,237)" stroke-width="1" opacity="1" d="M 350.5 199 L 353 199.5 L 350.5 200 L 350.5 199 Z " /><path fill="rgb(195,223,237)" stroke="rgb(195,223,237)" stroke-width="1" opacity="1" d="M 313.5 200 L 316 200.5 L 313.5 201 L 313.5 200 Z " /><path fill="rgb(195,223,237)" stroke="rgb(195,223,237)" stroke-width="1" opacity="1" d="M 117.5 201 L 164 201.5 L 117.5 202 L 117.5 201 Z " /><path fill="rgb(195,223,237)" stroke="rgb(195,223,237)" stroke-width="1" opacity="1" d="M 215.5 201 L 263 201.5 L 215.5 202 L 215.5 201 Z " /><path fill="rgb(195,223,237)" stroke="rgb(195,223,237)" stroke-width="1" opacity="1" d="M 111.5 203 L 109.5 206 L 111.5 203 Z " /><path fill="rgb(195,223,237)" stroke="rgb(195,223,237)" stroke-width="1" opacity="1" d="M 268.5 203 L 270.5 206 L 268.5 203 Z " /><path fill="rgb(195,223,237)" stroke="rgb(195,223,237)" stroke-width="1" opacity="1" d="M 207.5 205 L 206.5 207 L 207.5 205 Z " /><path fill="rgb(195,223,237)" stroke="rgb(195,223,237)" stroke-width="1" opacity="1" d="M 294.5 207 L 293.5 209 L 294.5 207 Z " /><path fill="rgb(195,223,237)" stroke="rgb(195,223,237)" stroke-width="1" opacity="1" d="M 272.5 209 L 273 226.5 L 274 227.5 L 272 228 L 272.5 209 Z " /><path fill="rgb(195,223,237)" stroke="rgb(195,223,237)" stroke-width="1" opacity="1" d="M 380.5 209 L 381.5 211 L 380.5 209 Z " /><path fill="rgb(195,223,237)" stroke="rgb(195,223,237)" stroke-width="1" opacity="1" d="M 289.5 210 L 287.5 213 L 289.5 210 Z " /><path fill="rgb(195,223,237)" stroke="rgb(195,223,237)" stroke-width="1" opacity="1" d="M 174.5 211 L 175 406.5 L 174 406.5 L 174.5 211 Z " /><path fill="rgb(195,223,237)" stroke="rgb(195,223,237)" stroke-width="1" opacity="1" d="M 384.5 212 L 385.5 214 L 384.5 212 Z " /><path fill="rgb(195,223,237)" stroke="rgb(195,223,237)" stroke-width="1" opacity="1" d="M 284.5 214 L 278.5 221 L 284.5 214 Z " /><path fill="rgb(195,223,237)" stroke="rgb(195,223,237)" stroke-width="1" opacity="1" d="M 389.5 216 L 390.5 218 L 389.5 216 Z " /><path fill="rgb(195,223,237)" stroke="rgb(195,223,237)" stroke-width="1" opacity="1" d="M 394.5 222 L 396.5 225 L 394.5 222 Z " /><path fill="rgb(195,223,237)" stroke="rgb(195,223,237)" stroke-width="1" opacity="1" d="M 276.5 223 L 274.5 226 L 276.5 223 Z " /><path fill="rgb(195,223,237)" stroke="rgb(195,223,237)" stroke-width="1" opacity="1" d="M 397.5 226 L 398.5 228 L 397.5 226 Z " /><path fill="rgb(195,223,237)" stroke="rgb(195,223,237)" stroke-width="1" opacity="1" d="M 305.5 256 L 316 256.5 L 305.5 257 L 305.5 256 Z " /><path fill="rgb(195,223,237)" stroke="rgb(195,223,237)" stroke-width="1" opacity="1" d="M 410.5 256 L 411 258.5 L 410 258.5 L 410.5 256 Z " /><path fill="rgb(195,223,237)" stroke="rgb(195,223,237)" stroke-width="1" opacity="1" d="M 291.5 261 L 290.5 263 L 291.5 261 Z " /><path fill="rgb(195,223,237)" stroke="rgb(195,223,237)" stroke-width="1" opacity="1" d="M 411.5 261 L 412 263.5 L 411 263.5 L 411.5 261 Z " /><path fill="rgb(195,223,237)" stroke="rgb(195,223,237)" stroke-width="1" opacity="1" d="M 332.5 263 L 335.5 267 L 332.5 263 Z " /><path fill="rgb(195,223,237)" stroke="rgb(195,223,237)" stroke-width="1" opacity="1" d="M 287.5 264 L 285.5 267 L 287.5 264 Z " /><path fill="rgb(195,223,237)" stroke="rgb(195,223,237)" stroke-width="1" opacity="1" d="M 412.5 267 L 413 269.5 L 412 269.5 L 412.5 267 Z " /><path fill="rgb(195,223,237)" stroke="rgb(195,223,237)" stroke-width="1" opacity="1" d="M 413.5 274 L 414 278.5 L 413 278.5 L 413.5 274 Z " /><path fill="rgb(195,223,237)" stroke="rgb(195,223,237)" stroke-width="1" opacity="1" d="M 414.5 286 L 415 304.5 L 414 304.5 L 414.5 286 Z " /><path fill="rgb(195,223,237)" stroke="rgb(195,223,237)" stroke-width="1" opacity="1" d="M 344.5 287 L 345 289.5 L 344 289.5 L 344.5 287 Z " /><path fill="rgb(195,223,237)" stroke="rgb(195,223,237)" stroke-width="1" opacity="1" d="M 273.5 292 L 274 294.5 L 273 294.5 L 273.5 292 Z " /><path fill="rgb(195,223,237)" stroke="rgb(195,223,237)" stroke-width="1" opacity="1" d="M 345.5 294 L 346 301.5 L 345 301.5 L 345.5 294 Z " /><path fill="rgb(195,223,237)" stroke="rgb(195,223,237)" stroke-width="1" opacity="1" d="M 272.5 299 L 273 406.5 L 272 406.5 L 272.5 299 Z " /><path fill="rgb(195,223,237)" stroke="rgb(195,223,237)" stroke-width="1" opacity="1" d="M 345.5 314 L 346 405.5 L 345 405.5 L 345.5 314 Z " /><path fill="rgb(195,223,237)" stroke="rgb(195,223,237)" stroke-width="1" opacity="1" d="M 271.5 409 L 272 410.5 L 270 411.5 L 271.5 409 Z " /><path fill="rgb(195,223,237)" stroke="rgb(195,223,237)" stroke-width="1" opacity="1" d="M 172.5 411 L 170.5 414 L 172.5 411 Z " /><path fill="rgb(195,223,237)" stroke="rgb(195,223,237)" stroke-width="1" opacity="1" d="M 207.5 412 L 208.5 414 L 207.5 412 Z " /><path fill="rgb(195,223,237)" stroke="rgb(195,223,237)" stroke-width="1" opacity="1" d="M 412.5 412 L 411.5 414 L 412.5 412 Z " /><path fill="rgb(195,223,237)" stroke="rgb(195,223,237)" stroke-width="1" opacity="1" d="M 111.5 413 L 112.5 415 L 111.5 413 Z " /><path fill="rgb(195,223,237)" stroke="rgb(195,223,237)" stroke-width="1" opacity="1" d="M 268.5 413 L 267.5 415 L 268.5 413 Z " /><path fill="rgb(195,223,237)" stroke="rgb(195,223,237)" stroke-width="1" opacity="1" d="M 349.5 413 L 350.5 415 L 349.5 413 Z " /><path fill="rgb(195,223,237)" stroke="rgb(195,223,237)" stroke-width="1" opacity="1" d="M 114.5 415 L 117 415.5 L 114.5 416 L 114.5 415 Z " /><path fill="rgb(255,255,255)" stroke="rgb(255,255,255)" stroke-width="1" opacity="1" d="M 138.5 96 Q 163.2 96.8 174 111.5 Q 180.2 118.3 183 128.5 L 184 145.5 Q 180.5 164.5 167.5 174 L 151.5 182 L 135.5 183 L 124.5 180 L 110 171 L 103 161.5 L 98 148.5 L 98 131.5 Q 102.1 114.1 114.5 105 L 127.5 98 L 138.5 96 Z " /><path fill="rgb(255,255,255)" stroke="rgb(255,255,255)" stroke-width="1" opacity="1" d="M 322.5 199 Q 373.4 195.1 394 221.5 Q 402.2 231.3 407 244.5 L 413 270.5 L 413 278.5 L 414 279.5 L 414 304.5 L 415 305.5 L 415 406.5 L 410.5 414 L 405.5 416 L 354.5 416 L 348 413 L 346 408.5 L 346 294.5 L 341 274.5 L 332.5 263 Q 323.6 254.9 305.5 256 Q 292.2 258.2 285 266.5 L 276 281.5 L 272 299.5 L 272 408.5 L 270 413 L 263.5 416 L 214.5 416 L 207 411.5 L 205 406.5 L 205 210.5 L 208 204 L 212.5 202 L 265.5 202 L 271 206.5 L 272 208.5 L 272 228 Q 274.7 229.1 274 226.5 L 286.5 213 L 304.5 203 L 322.5 199 Z " /><path fill="rgb(255,255,255)" stroke="rgb(255,255,255)" stroke-width="1" opacity="1" d="M 114.5 202 L 166.5 202 L 172 205.5 L 174 209.5 L 174 408.5 L 169.5 414 L 164.5 416 L 117.5 416 L 113.5 415 L 109 411.5 L 107 406.5 L 107 211.5 Q 108.3 205.8 112.5 203 L 114.5 202 Z " /></svg>