<svg width="225" height="225" version="1.1" xmlns="http://www.w3.org/2000/svg" desc="Created with imagetracer.js version 1.2.6" ><path fill="rgb(0,30,43)" stroke="rgb(0,30,43)" stroke-width="1" opacity="1" d="M 0 0 L 225 0 L 225 225 L 0 225 L 0 0 Z M 113 35 L 96 56 L 87 70 L 82 80 L 76 102 L 76 118 L 78 128 Q 84 146 95 160 L 107 170 L 109 177 L 109 187 L 110 188 L 110 190 L 115 190 L 116 187 L 117 172 L 120 170 Q 142 152 149 118 L 149 102 L 143 80 L 129 56 L 113 35 Z " /><path fill="rgb(0,30,43)" stroke="rgb(0,30,43)" stroke-width="1" opacity="1" d="M 112.5 92 L 116 166.5 Q 112.5 173.5 109 166.5 L 112.5 92 Z " /><path fill="rgb(0,190,86)" stroke="rgb(0,190,86)" stroke-width="1" opacity="1" d="M 112.5 35 L 113.5 37 L 111 36.5 L 112.5 35 Z " /><path fill="rgb(0,190,86)" stroke="rgb(0,190,86)" stroke-width="1" opacity="1" d="M 110.5 38 L 108.5 41 L 110.5 38 Z " /><path fill="rgb(0,190,86)" stroke="rgb(0,190,86)" stroke-width="1" opacity="1" d="M 114.5 38 L 116.5 41 L 114.5 38 Z " /><path fill="rgb(0,190,86)" stroke="rgb(0,190,86)" stroke-width="1" opacity="1" d="M 107.5 42 L 105.5 45 L 107.5 42 Z " /><path fill="rgb(0,190,86)" stroke="rgb(0,190,86)" stroke-width="1" opacity="1" d="M 117.5 42 L 119.5 45 L 117.5 42 Z " /><path fill="rgb(0,190,86)" stroke="rgb(0,190,86)" stroke-width="1" opacity="1" d="M 103.5 47 L 100.5 51 L 103.5 47 Z " /><path fill="rgb(0,190,86)" stroke="rgb(0,190,86)" stroke-width="1" opacity="1" d="M 121.5 47 L 124.5 51 L 121.5 47 Z " /><path fill="rgb(0,190,86)" stroke="rgb(0,190,86)" stroke-width="1" opacity="1" d="M 98.5 53 L 96.5 56 L 98.5 53 Z " /><path fill="rgb(0,190,86)" stroke="rgb(0,190,86)" stroke-width="1" opacity="1" d="M 126.5 53 L 128.5 56 L 126.5 53 Z " /><path fill="rgb(0,190,86)" stroke="rgb(0,190,86)" stroke-width="1" opacity="1" d="M 95.5 57 L 94.5 59 L 95.5 57 Z " /><path fill="rgb(0,190,86)" stroke="rgb(0,190,86)" stroke-width="1" opacity="1" d="M 129.5 57 L 130.5 59 L 129.5 57 Z " /><path fill="rgb(0,190,86)" stroke="rgb(0,190,86)" stroke-width="1" opacity="1" d="M 93.5 60 L 92.5 62 L 93.5 60 Z " /><path fill="rgb(0,190,86)" stroke="rgb(0,190,86)" stroke-width="1" opacity="1" d="M 131.5 60 L 132.5 62 L 131.5 60 Z " /><path fill="rgb(0,190,86)" stroke="rgb(0,190,86)" stroke-width="1" opacity="1" d="M 91.5 63 L 90.5 65 L 91.5 63 Z " /><path fill="rgb(0,190,86)" stroke="rgb(0,190,86)" stroke-width="1" opacity="1" d="M 133.5 63 L 134.5 65 L 133.5 63 Z " /><path fill="rgb(0,190,86)" stroke="rgb(0,190,86)" stroke-width="1" opacity="1" d="M 88.5 68 L 87.5 70 L 88.5 68 Z " /><path fill="rgb(0,190,86)" stroke="rgb(0,190,86)" stroke-width="1" opacity="1" d="M 136.5 68 L 137.5 70 L 136.5 68 Z " /><path fill="rgb(0,190,86)" stroke="rgb(0,190,86)" stroke-width="1" opacity="1" d="M 83.5 77 L 84 78.5 L 82.5 81 L 82 79.5 L 83.5 77 Z " /><path fill="rgb(0,190,86)" stroke="rgb(0,190,86)" stroke-width="1" opacity="1" d="M 141.5 77 L 143 80.5 L 142 80.5 L 141.5 77 Z " /><path fill="rgb(0,190,86)" stroke="rgb(0,190,86)" stroke-width="1" opacity="1" d="M 77.5 95 L 78 97.5 L 77 97.5 L 77.5 95 Z " /><path fill="rgb(0,190,86)" stroke="rgb(0,190,86)" stroke-width="1" opacity="1" d="M 147.5 95 L 148 97.5 L 147 97.5 L 147.5 95 Z " /><path fill="rgb(0,190,86)" stroke="rgb(0,190,86)" stroke-width="1" opacity="1" d="M 111.5 100 L 112 111.5 L 111 111.5 L 111.5 100 Z " /><path fill="rgb(0,190,86)" stroke="rgb(0,190,86)" stroke-width="1" opacity="1" d="M 113.5 100 L 114 112.5 L 113 112.5 L 113.5 100 Z " /><path fill="rgb(0,190,86)" stroke="rgb(0,190,86)" stroke-width="1" opacity="1" d="M 76.5 101 L 77 117.5 L 76 117.5 L 76.5 101 Z " /><path fill="rgb(0,190,86)" stroke="rgb(0,190,86)" stroke-width="1" opacity="1" d="M 148.5 101 L 149 117.5 L 148 117.5 L 148.5 101 Z " /><path fill="rgb(0,190,86)" stroke="rgb(0,190,86)" stroke-width="1" opacity="1" d="M 77.5 121 L 78 123.5 L 77 123.5 L 77.5 121 Z " /><path fill="rgb(0,190,86)" stroke="rgb(0,190,86)" stroke-width="1" opacity="1" d="M 110.5 121 L 111 132.5 L 110 132.5 L 110.5 121 Z " /><path fill="rgb(0,190,86)" stroke="rgb(0,190,86)" stroke-width="1" opacity="1" d="M 147.5 121 L 148 123.5 L 147 123.5 L 147.5 121 Z " /><path fill="rgb(0,190,86)" stroke="rgb(0,190,86)" stroke-width="1" opacity="1" d="M 114.5 122 L 115 132.5 L 114 132.5 L 114.5 122 Z " /><path fill="rgb(0,190,86)" stroke="rgb(0,190,86)" stroke-width="1" opacity="1" d="M 109.5 140 L 110 153.5 L 109 153.5 L 109.5 140 Z " /><path fill="rgb(0,190,86)" stroke="rgb(0,190,86)" stroke-width="1" opacity="1" d="M 115.5 140 L 116 153.5 L 115 153.5 L 115.5 140 Z " /><path fill="rgb(0,190,86)" stroke="rgb(0,190,86)" stroke-width="1" opacity="1" d="M 86.5 146 L 87.5 148 L 86.5 146 Z " /><path fill="rgb(0,190,86)" stroke="rgb(0,190,86)" stroke-width="1" opacity="1" d="M 138.5 146 L 137.5 148 L 138.5 146 Z " /><path fill="rgb(0,190,86)" stroke="rgb(0,190,86)" stroke-width="1" opacity="1" d="M 89.5 151 L 90.5 153 L 89.5 151 Z " /><path fill="rgb(0,190,86)" stroke="rgb(0,190,86)" stroke-width="1" opacity="1" d="M 134.5 152 L 133.5 154 L 134.5 152 Z " /><path fill="rgb(0,190,86)" stroke="rgb(0,190,86)" stroke-width="1" opacity="1" d="M 92.5 155 L 93.5 157 L 92.5 155 Z " /><path fill="rgb(0,190,86)" stroke="rgb(0,190,86)" stroke-width="1" opacity="1" d="M 132.5 155 L 131.5 157 L 132.5 155 Z " /><path fill="rgb(0,190,86)" stroke="rgb(0,190,86)" stroke-width="1" opacity="1" d="M 95.5 159 L 105.5 170 L 95.5 159 Z " /><path fill="rgb(0,190,86)" stroke="rgb(0,190,86)" stroke-width="1" opacity="1" d="M 129.5 159 L 119.5 170 L 129.5 159 Z " /><path fill="rgb(0,190,86)" stroke="rgb(0,190,86)" stroke-width="1" opacity="1" d="M 108.5 163 Q 108.4 168.1 112 169.5 L 108 166.5 L 108.5 163 Z " /><path fill="rgb(0,190,86)" stroke="rgb(0,190,86)" stroke-width="1" opacity="1" d="M 116.5 163 L 117 166.5 L 113 169.5 Q 116.6 168.1 116.5 163 Z " /><path fill="rgb(0,190,86)" stroke="rgb(0,190,86)" stroke-width="1" opacity="1" d="M 108.5 171 L 109 175.5 L 108 175.5 L 108.5 171 Z " /><path fill="rgb(0,190,86)" stroke="rgb(0,190,86)" stroke-width="1" opacity="1" d="M 116.5 171 L 117 175.5 L 116 175.5 L 116.5 171 Z " /><path fill="rgb(0,190,86)" stroke="rgb(0,190,86)" stroke-width="1" opacity="1" d="M 109.5 181 L 110 186.5 L 109 186.5 L 109.5 181 Z " /><path fill="rgb(0,190,86)" stroke="rgb(0,190,86)" stroke-width="1" opacity="1" d="M 115.5 181 L 116 186.5 L 115 186.5 L 115.5 181 Z " /><path fill="rgb(0,190,86)" stroke="rgb(0,190,86)" stroke-width="1" opacity="1" d="M 110.5 189 L 115 189.5 L 110.5 190 L 110.5 189 Z " /><path fill="rgb(0,237,100)" stroke="rgb(0,237,100)" stroke-width="1" opacity="1" d="M 112.5 36 L 135 65.5 L 144 83.5 L 148 98.5 L 148 120.5 Q 140.4 153.4 117.5 171 L 116 171.5 L 116 180.5 L 115 181.5 L 115 189 L 110 189 L 110 181.5 L 109 180.5 L 109 171 L 107.5 171 L 94 157.5 Q 85.4 146.6 80 132.5 L 77 120.5 L 77 98.5 L 81 83.5 L 87 70.5 L 96 56.5 L 112.5 36 Z M 113 90 L 112 100 L 111 101 L 110 140 L 109 141 L 109 163 L 108 164 Q 107 169 112 170 Q 117 171 117 167 L 116 163 L 115 123 L 114 122 L 114 101 L 113 100 L 113 90 Z " /></svg>