<svg width="512" height="512" version="1.1" xmlns="http://www.w3.org/2000/svg" desc="Created with imagetracer.js version 1.2.6" ><path fill="rgb(179,179,179)" stroke="rgb(179,179,179)" stroke-width="1" opacity="1" d="M 320.5 30 L 327 30.5 L 320.5 31 L 320.5 30 Z " /><path fill="rgb(179,179,179)" stroke="rgb(179,179,179)" stroke-width="1" opacity="1" d="M 345.5 30 L 349 30.5 L 345.5 31 L 345.5 30 Z " /><path fill="rgb(179,179,179)" stroke="rgb(179,179,179)" stroke-width="1" opacity="1" d="M 307.5 31 L 314 31.5 L 307.5 32 L 307.5 31 Z " /><path fill="rgb(179,179,179)" stroke="rgb(179,179,179)" stroke-width="1" opacity="1" d="M 293.5 32 L 300 32.5 L 293.5 33 L 293.5 32 Z " /><path fill="rgb(179,179,179)" stroke="rgb(179,179,179)" stroke-width="1" opacity="1" d="M 279.5 33 L 286 33.5 L 279.5 34 L 279.5 33 Z " /><path fill="rgb(179,179,179)" stroke="rgb(179,179,179)" stroke-width="1" opacity="1" d="M 266.5 34 L 273 34.5 L 266.5 35 L 266.5 34 Z " /><path fill="rgb(179,179,179)" stroke="rgb(179,179,179)" stroke-width="1" opacity="1" d="M 252.5 35 L 259 35.5 L 252.5 36 L 252.5 35 Z " /><path fill="rgb(179,179,179)" stroke="rgb(179,179,179)" stroke-width="1" opacity="1" d="M 239.5 36 L 245 36.5 L 239.5 37 L 239.5 36 Z " /><path fill="rgb(179,179,179)" stroke="rgb(179,179,179)" stroke-width="1" opacity="1" d="M 364.5 36 L 365.5 38 L 364.5 36 Z " /><path fill="rgb(179,179,179)" stroke="rgb(179,179,179)" stroke-width="1" opacity="1" d="M 225.5 37 L 232 37.5 L 225.5 38 L 225.5 37 Z " /><path fill="rgb(179,179,179)" stroke="rgb(179,179,179)" stroke-width="1" opacity="1" d="M 211.5 38 L 218 38.5 L 211.5 39 L 211.5 38 Z " /><path fill="rgb(179,179,179)" stroke="rgb(179,179,179)" stroke-width="1" opacity="1" d="M 198.5 39 L 204 39.5 L 198.5 40 L 198.5 39 Z " /><path fill="rgb(179,179,179)" stroke="rgb(179,179,179)" stroke-width="1" opacity="1" d="M 184.5 40 L 191 40.5 L 184.5 41 L 184.5 40 Z " /><path fill="rgb(179,179,179)" stroke="rgb(179,179,179)" stroke-width="1" opacity="1" d="M 170.5 41 L 177 41.5 L 170.5 42 L 170.5 41 Z " /><path fill="rgb(179,179,179)" stroke="rgb(179,179,179)" stroke-width="1" opacity="1" d="M 157.5 42 L 163 42.5 L 157.5 43 L 157.5 42 Z " /><path fill="rgb(179,179,179)" stroke="rgb(179,179,179)" stroke-width="1" opacity="1" d="M 143.5 43 L 150 43.5 L 143.5 44 L 143.5 43 Z " /><path fill="rgb(179,179,179)" stroke="rgb(179,179,179)" stroke-width="1" opacity="1" d="M 129.5 44 L 136 44.5 L 129.5 45 L 129.5 44 Z " /><path fill="rgb(179,179,179)" stroke="rgb(179,179,179)" stroke-width="1" opacity="1" d="M 376.5 44 L 377.5 46 L 376.5 44 Z " /><path fill="rgb(179,179,179)" stroke="rgb(179,179,179)" stroke-width="1" opacity="1" d="M 116.5 45 L 123 45.5 L 116.5 46 L 116.5 45 Z " /><path fill="rgb(179,179,179)" stroke="rgb(179,179,179)" stroke-width="1" opacity="1" d="M 102.5 46 L 109 46.5 L 102.5 47 L 102.5 46 Z " /><path fill="rgb(179,179,179)" stroke="rgb(179,179,179)" stroke-width="1" opacity="1" d="M 88.5 47 L 95 47.5 L 88.5 48 L 88.5 47 Z " /><path fill="rgb(179,179,179)" stroke="rgb(179,179,179)" stroke-width="1" opacity="1" d="M 75.5 48 L 82 48.5 L 75.5 49 L 75.5 48 Z " /><path fill="rgb(179,179,179)" stroke="rgb(179,179,179)" stroke-width="1" opacity="1" d="M 63.5 49 L 68 49.5 L 63.5 50 L 63.5 49 Z " /><path fill="rgb(179,179,179)" stroke="rgb(179,179,179)" stroke-width="1" opacity="1" d="M 386.5 51 L 387.5 53 L 386.5 51 Z " /><path fill="rgb(179,179,179)" stroke="rgb(179,179,179)" stroke-width="1" opacity="1" d="M 389.5 53 L 390.5 55 L 389.5 53 Z " /><path fill="rgb(179,179,179)" stroke="rgb(179,179,179)" stroke-width="1" opacity="1" d="M 328.5 55 L 340 55.5 L 328.5 56 L 328.5 55 Z " /><path fill="rgb(179,179,179)" stroke="rgb(179,179,179)" stroke-width="1" opacity="1" d="M 314.5 56 L 321 56.5 L 314.5 57 L 314.5 56 Z " /><path fill="rgb(179,179,179)" stroke="rgb(179,179,179)" stroke-width="1" opacity="1" d="M 300.5 57 L 307 57.5 L 300.5 58 L 300.5 57 Z " /><path fill="rgb(179,179,179)" stroke="rgb(179,179,179)" stroke-width="1" opacity="1" d="M 286.5 58 L 293 58.5 L 286.5 59 L 286.5 58 Z " /><path fill="rgb(179,179,179)" stroke="rgb(179,179,179)" stroke-width="1" opacity="1" d="M 396.5 58 L 397.5 60 L 396.5 58 Z " /><path fill="rgb(179,179,179)" stroke="rgb(179,179,179)" stroke-width="1" opacity="1" d="M 273.5 59 L 279 59.5 L 273.5 60 L 273.5 59 Z " /><path fill="rgb(179,179,179)" stroke="rgb(179,179,179)" stroke-width="1" opacity="1" d="M 43.5 60 L 42.5 62 L 43.5 60 Z " /><path fill="rgb(179,179,179)" stroke="rgb(179,179,179)" stroke-width="1" opacity="1" d="M 259.5 60 L 266 60.5 L 259.5 61 L 259.5 60 Z " /><path fill="rgb(179,179,179)" stroke="rgb(179,179,179)" stroke-width="1" opacity="1" d="M 399.5 60 L 400.5 62 L 399.5 60 Z " /><path fill="rgb(179,179,179)" stroke="rgb(179,179,179)" stroke-width="1" opacity="1" d="M 245.5 61 L 252 61.5 L 245.5 62 L 245.5 61 Z " /><path fill="rgb(179,179,179)" stroke="rgb(179,179,179)" stroke-width="1" opacity="1" d="M 231.5 62 L 238 62.5 L 231.5 63 L 231.5 62 Z " /><path fill="rgb(179,179,179)" stroke="rgb(179,179,179)" stroke-width="1" opacity="1" d="M 217.5 63 L 224 63.5 L 217.5 64 L 217.5 63 Z " /><path fill="rgb(179,179,179)" stroke="rgb(179,179,179)" stroke-width="1" opacity="1" d="M 204.5 64 L 211 64.5 L 204.5 65 L 204.5 64 Z " /><path fill="rgb(179,179,179)" stroke="rgb(179,179,179)" stroke-width="1" opacity="1" d="M 363.5 64 L 364.5 66 L 363.5 64 Z " /><path fill="rgb(179,179,179)" stroke="rgb(179,179,179)" stroke-width="1" opacity="1" d="M 190.5 65 L 197 65.5 L 190.5 66 L 190.5 65 Z " /><path fill="rgb(179,179,179)" stroke="rgb(179,179,179)" stroke-width="1" opacity="1" d="M 406.5 65 L 407.5 67 L 406.5 65 Z " /><path fill="rgb(179,179,179)" stroke="rgb(179,179,179)" stroke-width="1" opacity="1" d="M 176.5 66 L 183 66.5 L 176.5 67 L 176.5 66 Z " /><path fill="rgb(179,179,179)" stroke="rgb(179,179,179)" stroke-width="1" opacity="1" d="M 162.5 67 L 169 67.5 L 162.5 68 L 162.5 67 Z " /><path fill="rgb(179,179,179)" stroke="rgb(179,179,179)" stroke-width="1" opacity="1" d="M 409.5 67 L 410.5 69 L 409.5 67 Z " /><path fill="rgb(179,179,179)" stroke="rgb(179,179,179)" stroke-width="1" opacity="1" d="M 149.5 68 L 155 68.5 L 149.5 69 L 149.5 68 Z " /><path fill="rgb(179,179,179)" stroke="rgb(179,179,179)" stroke-width="1" opacity="1" d="M 135.5 69 L 142 69.5 L 135.5 70 L 135.5 69 Z " /><path fill="rgb(179,179,179)" stroke="rgb(179,179,179)" stroke-width="1" opacity="1" d="M 370.5 69 L 371.5 71 L 370.5 69 Z " /><path fill="rgb(179,179,179)" stroke="rgb(179,179,179)" stroke-width="1" opacity="1" d="M 121.5 70 L 128 70.5 L 121.5 71 L 121.5 70 Z " /><path fill="rgb(179,179,179)" stroke="rgb(179,179,179)" stroke-width="1" opacity="1" d="M 38.5 71 L 39 73.5 L 38 73.5 L 38.5 71 Z " /><path fill="rgb(179,179,179)" stroke="rgb(179,179,179)" stroke-width="1" opacity="1" d="M 107.5 71 L 114 71.5 L 107.5 72 L 107.5 71 Z " /><path fill="rgb(179,179,179)" stroke="rgb(179,179,179)" stroke-width="1" opacity="1" d="M 93.5 72 L 100 72.5 L 93.5 73 L 93.5 72 Z " /><path fill="rgb(179,179,179)" stroke="rgb(179,179,179)" stroke-width="1" opacity="1" d="M 416.5 72 L 417.5 74 L 416.5 72 Z " /><path fill="rgb(179,179,179)" stroke="rgb(179,179,179)" stroke-width="1" opacity="1" d="M 83.5 73 L 87 73.5 L 83.5 74 L 83.5 73 Z " /><path fill="rgb(179,179,179)" stroke="rgb(179,179,179)" stroke-width="1" opacity="1" d="M 377.5 74 L 378.5 76 L 377.5 74 Z " /><path fill="rgb(179,179,179)" stroke="rgb(179,179,179)" stroke-width="1" opacity="1" d="M 419.5 74 L 420.5 76 L 419.5 74 Z " /><path fill="rgb(179,179,179)" stroke="rgb(179,179,179)" stroke-width="1" opacity="1" d="M 78.5 75 L 77.5 77 L 78.5 75 Z " /><path fill="rgb(179,179,179)" stroke="rgb(179,179,179)" stroke-width="1" opacity="1" d="M 381.5 77 L 382.5 79 L 381.5 77 Z " /><path fill="rgb(179,179,179)" stroke="rgb(179,179,179)" stroke-width="1" opacity="1" d="M 384.5 79 L 385.5 81 L 384.5 79 Z " /><path fill="rgb(179,179,179)" stroke="rgb(179,179,179)" stroke-width="1" opacity="1" d="M 426.5 79 L 427.5 81 L 426.5 79 Z " /><path fill="rgb(179,179,179)" stroke="rgb(179,179,179)" stroke-width="1" opacity="1" d="M 77.5 80 L 80.5 84 L 77.5 80 Z " /><path fill="rgb(179,179,179)" stroke="rgb(179,179,179)" stroke-width="1" opacity="1" d="M 429.5 81 L 430.5 83 L 429.5 81 Z " /><path fill="rgb(179,179,179)" stroke="rgb(179,179,179)" stroke-width="1" opacity="1" d="M 388.5 82 L 389.5 84 L 388.5 82 Z " /><path fill="rgb(179,179,179)" stroke="rgb(179,179,179)" stroke-width="1" opacity="1" d="M 84.5 86 L 85.5 88 L 84.5 86 Z " /><path fill="rgb(179,179,179)" stroke="rgb(179,179,179)" stroke-width="1" opacity="1" d="M 436.5 86 L 437.5 88 L 436.5 86 Z " /><path fill="rgb(179,179,179)" stroke="rgb(179,179,179)" stroke-width="1" opacity="1" d="M 395.5 87 L 396.5 89 L 395.5 87 Z " /><path fill="rgb(179,179,179)" stroke="rgb(179,179,179)" stroke-width="1" opacity="1" d="M 439.5 88 L 440.5 90 L 439.5 88 Z " /><path fill="rgb(179,179,179)" stroke="rgb(179,179,179)" stroke-width="1" opacity="1" d="M 88.5 89 L 90.5 92 L 88.5 89 Z " /><path fill="rgb(179,179,179)" stroke="rgb(179,179,179)" stroke-width="1" opacity="1" d="M 402.5 92 L 403.5 94 L 402.5 92 Z " /><path fill="rgb(179,179,179)" stroke="rgb(179,179,179)" stroke-width="1" opacity="1" d="M 93.5 93 L 95.5 96 L 93.5 93 Z " /><path fill="rgb(179,179,179)" stroke="rgb(179,179,179)" stroke-width="1" opacity="1" d="M 446.5 93 L 447.5 95 L 446.5 93 Z " /><path fill="rgb(179,179,179)" stroke="rgb(179,179,179)" stroke-width="1" opacity="1" d="M 406.5 95 L 407.5 97 L 406.5 95 Z " /><path fill="rgb(179,179,179)" stroke="rgb(179,179,179)" stroke-width="1" opacity="1" d="M 449.5 95 L 450.5 97 L 449.5 95 Z " /><path fill="rgb(179,179,179)" stroke="rgb(179,179,179)" stroke-width="1" opacity="1" d="M 98.5 97 L 99.5 99 L 98.5 97 Z " /><path fill="rgb(179,179,179)" stroke="rgb(179,179,179)" stroke-width="1" opacity="1" d="M 409.5 97 L 410.5 99 L 409.5 97 Z " /><path fill="rgb(179,179,179)" stroke="rgb(179,179,179)" stroke-width="1" opacity="1" d="M 456.5 100 L 457.5 102 L 456.5 100 Z " /><path fill="rgb(179,179,179)" stroke="rgb(179,179,179)" stroke-width="1" opacity="1" d="M 103.5 101 L 104.5 103 L 103.5 101 Z " /><path fill="rgb(179,179,179)" stroke="rgb(179,179,179)" stroke-width="1" opacity="1" d="M 398.5 103 L 406 103.5 L 398.5 104 L 398.5 103 Z " /><path fill="rgb(179,179,179)" stroke="rgb(179,179,179)" stroke-width="1" opacity="1" d="M 107.5 104 L 109.5 107 L 107.5 104 Z " /><path fill="rgb(179,179,179)" stroke="rgb(179,179,179)" stroke-width="1" opacity="1" d="M 381.5 104 L 390 104.5 L 381.5 105 L 381.5 104 Z " /><path fill="rgb(179,179,179)" stroke="rgb(179,179,179)" stroke-width="1" opacity="1" d="M 365.5 105 L 373 105.5 L 365.5 106 L 365.5 105 Z " /><path fill="rgb(179,179,179)" stroke="rgb(179,179,179)" stroke-width="1" opacity="1" d="M 463.5 105 L 465.5 108 L 463.5 105 Z " /><path fill="rgb(179,179,179)" stroke="rgb(179,179,179)" stroke-width="1" opacity="1" d="M 348.5 106 L 356 106.5 L 348.5 107 L 348.5 106 Z " /><path fill="rgb(179,179,179)" stroke="rgb(179,179,179)" stroke-width="1" opacity="1" d="M 331.5 107 L 339 107.5 L 331.5 108 L 331.5 107 Z " /><path fill="rgb(179,179,179)" stroke="rgb(179,179,179)" stroke-width="1" opacity="1" d="M 112.5 108 L 114.5 111 L 112.5 108 Z " /><path fill="rgb(179,179,179)" stroke="rgb(179,179,179)" stroke-width="1" opacity="1" d="M 314.5 108 L 323 108.5 L 314.5 109 L 314.5 108 Z " /><path fill="rgb(179,179,179)" stroke="rgb(179,179,179)" stroke-width="1" opacity="1" d="M 298.5 109 L 306 109.5 L 298.5 110 L 298.5 109 Z " /><path fill="rgb(179,179,179)" stroke="rgb(179,179,179)" stroke-width="1" opacity="1" d="M 281.5 110 L 289 110.5 L 281.5 111 L 281.5 110 Z " /><path fill="rgb(179,179,179)" stroke="rgb(179,179,179)" stroke-width="1" opacity="1" d="M 264.5 111 L 272 111.5 L 264.5 112 L 264.5 111 Z " /><path fill="rgb(179,179,179)" stroke="rgb(179,179,179)" stroke-width="1" opacity="1" d="M 117.5 112 L 118.5 114 L 117.5 112 Z " /><path fill="rgb(179,179,179)" stroke="rgb(179,179,179)" stroke-width="1" opacity="1" d="M 247.5 112 L 256 112.5 L 247.5 113 L 247.5 112 Z " /><path fill="rgb(179,179,179)" stroke="rgb(179,179,179)" stroke-width="1" opacity="1" d="M 231.5 113 L 239 113.5 L 231.5 114 L 231.5 113 Z " /><path fill="rgb(179,179,179)" stroke="rgb(179,179,179)" stroke-width="1" opacity="1" d="M 471.5 113 L 473 115.5 L 472 115.5 L 471.5 113 Z " /><path fill="rgb(179,179,179)" stroke="rgb(179,179,179)" stroke-width="1" opacity="1" d="M 214.5 114 L 222 114.5 L 214.5 115 L 214.5 114 Z " /><path fill="rgb(179,179,179)" stroke="rgb(179,179,179)" stroke-width="1" opacity="1" d="M 197.5 115 L 206 115.5 L 197.5 116 L 197.5 115 Z " /><path fill="rgb(179,179,179)" stroke="rgb(179,179,179)" stroke-width="1" opacity="1" d="M 180.5 116 L 189 116.5 L 180.5 117 L 180.5 116 Z " /><path fill="rgb(179,179,179)" stroke="rgb(179,179,179)" stroke-width="1" opacity="1" d="M 164.5 117 L 172 117.5 L 164.5 118 L 164.5 117 Z " /><path fill="rgb(179,179,179)" stroke="rgb(179,179,179)" stroke-width="1" opacity="1" d="M 130.5 118 L 133 118.5 L 130.5 119 L 130.5 118 Z " /><path fill="rgb(179,179,179)" stroke="rgb(179,179,179)" stroke-width="1" opacity="1" d="M 148.5 118 L 156 118.5 L 148.5 119 L 148.5 118 Z " /><path fill="rgb(179,179,179)" stroke="rgb(179,179,179)" stroke-width="1" opacity="1" d="M 419.5 133 L 427 133.5 L 419.5 134 L 419.5 133 Z " /><path fill="rgb(179,179,179)" stroke="rgb(179,179,179)" stroke-width="1" opacity="1" d="M 401.5 134 L 410 134.5 L 401.5 135 L 401.5 134 Z " /><path fill="rgb(179,179,179)" stroke="rgb(179,179,179)" stroke-width="1" opacity="1" d="M 384.5 135 L 393 135.5 L 384.5 136 L 384.5 135 Z " /><path fill="rgb(179,179,179)" stroke="rgb(179,179,179)" stroke-width="1" opacity="1" d="M 367.5 136 L 376 136.5 L 367.5 137 L 367.5 136 Z " /><path fill="rgb(179,179,179)" stroke="rgb(179,179,179)" stroke-width="1" opacity="1" d="M 350.5 137 L 358 137.5 L 350.5 138 L 350.5 137 Z " /><path fill="rgb(179,179,179)" stroke="rgb(179,179,179)" stroke-width="1" opacity="1" d="M 332.5 138 L 341 138.5 L 332.5 139 L 332.5 138 Z " /><path fill="rgb(179,179,179)" stroke="rgb(179,179,179)" stroke-width="1" opacity="1" d="M 315.5 139 L 324 139.5 L 315.5 140 L 315.5 139 Z " /><path fill="rgb(179,179,179)" stroke="rgb(179,179,179)" stroke-width="1" opacity="1" d="M 298.5 140 L 307 140.5 L 298.5 141 L 298.5 140 Z " /><path fill="rgb(179,179,179)" stroke="rgb(179,179,179)" stroke-width="1" opacity="1" d="M 281.5 141 L 289 141.5 L 281.5 142 L 281.5 141 Z " /><path fill="rgb(179,179,179)" stroke="rgb(179,179,179)" stroke-width="1" opacity="1" d="M 264.5 142 L 272 142.5 L 264.5 143 L 264.5 142 Z " /><path fill="rgb(179,179,179)" stroke="rgb(179,179,179)" stroke-width="1" opacity="1" d="M 246.5 143 L 255 143.5 L 246.5 144 L 246.5 143 Z " /><path fill="rgb(179,179,179)" stroke="rgb(179,179,179)" stroke-width="1" opacity="1" d="M 443.5 143 L 444 146.5 L 443 146.5 L 443.5 143 Z " /><path fill="rgb(179,179,179)" stroke="rgb(179,179,179)" stroke-width="1" opacity="1" d="M 229.5 144 L 238 144.5 L 229.5 145 L 229.5 144 Z " /><path fill="rgb(179,179,179)" stroke="rgb(179,179,179)" stroke-width="1" opacity="1" d="M 212.5 145 L 221 145.5 L 212.5 146 L 212.5 145 Z " /><path fill="rgb(179,179,179)" stroke="rgb(179,179,179)" stroke-width="1" opacity="1" d="M 195.5 146 L 203 146.5 L 195.5 147 L 195.5 146 Z " /><path fill="rgb(179,179,179)" stroke="rgb(179,179,179)" stroke-width="1" opacity="1" d="M 178.5 147 L 186 147.5 L 178.5 148 L 178.5 147 Z " /><path fill="rgb(179,179,179)" stroke="rgb(179,179,179)" stroke-width="1" opacity="1" d="M 160.5 148 L 169 148.5 L 160.5 149 L 160.5 148 Z " /><path fill="rgb(179,179,179)" stroke="rgb(179,179,179)" stroke-width="1" opacity="1" d="M 143.5 149 L 152 149.5 L 143.5 150 L 143.5 149 Z " /><path fill="rgb(179,179,179)" stroke="rgb(179,179,179)" stroke-width="1" opacity="1" d="M 133.5 152 L 130.5 156 L 133.5 152 Z " /><path fill="rgb(179,179,179)" stroke="rgb(179,179,179)" stroke-width="1" opacity="1" d="M 128.5 161 L 129 434.5 L 128 434.5 L 128.5 161 Z " /><path fill="rgb(179,179,179)" stroke="rgb(179,179,179)" stroke-width="1" opacity="1" d="M 392.5 181 L 400 181.5 L 392.5 182 L 392.5 181 Z " /><path fill="rgb(179,179,179)" stroke="rgb(179,179,179)" stroke-width="1" opacity="1" d="M 375.5 182 L 384 182.5 L 375.5 183 L 375.5 182 Z " /><path fill="rgb(179,179,179)" stroke="rgb(179,179,179)" stroke-width="1" opacity="1" d="M 358.5 183 L 366 183.5 L 358.5 184 L 358.5 183 Z " /><path fill="rgb(179,179,179)" stroke="rgb(179,179,179)" stroke-width="1" opacity="1" d="M 340.5 184 L 349 184.5 L 340.5 185 L 340.5 184 Z " /><path fill="rgb(179,179,179)" stroke="rgb(179,179,179)" stroke-width="1" opacity="1" d="M 400.5 184 L 401 189.5 L 400 189.5 L 400.5 184 Z " /><path fill="rgb(179,179,179)" stroke="rgb(179,179,179)" stroke-width="1" opacity="1" d="M 330.5 187 L 327.5 191 L 330.5 187 Z " /><path fill="rgb(179,179,179)" stroke="rgb(179,179,179)" stroke-width="1" opacity="1" d="M 250.5 189 L 258 189.5 L 250.5 190 L 250.5 189 Z " /><path fill="rgb(179,179,179)" stroke="rgb(179,179,179)" stroke-width="1" opacity="1" d="M 235.5 190 L 242 190.5 L 235.5 191 L 235.5 190 Z " /><path fill="rgb(179,179,179)" stroke="rgb(179,179,179)" stroke-width="1" opacity="1" d="M 220.5 191 L 227 191.5 L 220.5 192 L 220.5 191 Z " /><path fill="rgb(179,179,179)" stroke="rgb(179,179,179)" stroke-width="1" opacity="1" d="M 205.5 192 L 212 192.5 L 205.5 193 L 205.5 192 Z " /><path fill="rgb(179,179,179)" stroke="rgb(179,179,179)" stroke-width="1" opacity="1" d="M 191.5 193 L 198 193.5 L 191.5 194 L 191.5 193 Z " /><path fill="rgb(179,179,179)" stroke="rgb(179,179,179)" stroke-width="1" opacity="1" d="M 398.5 194 L 396.5 197 L 398.5 194 Z " /><path fill="rgb(179,179,179)" stroke="rgb(179,179,179)" stroke-width="1" opacity="1" d="M 379.5 200 L 381 200.5 L 379 201 L 378.5 395 L 378 201.5 L 379.5 200 Z " /><path fill="rgb(179,179,179)" stroke="rgb(179,179,179)" stroke-width="1" opacity="1" d="M 324.5 201 L 325.5 203 Q 322.7 203.7 324.5 201 Z " /><path fill="rgb(179,179,179)" stroke="rgb(179,179,179)" stroke-width="1" opacity="1" d="M 330.5 203 L 334 203.5 L 330.5 204 L 330.5 203 Z " /><path fill="rgb(179,179,179)" stroke="rgb(179,179,179)" stroke-width="1" opacity="1" d="M 339.5 204 L 343 204.5 L 339.5 205 L 339.5 204 Z " /><path fill="rgb(179,179,179)" stroke="rgb(179,179,179)" stroke-width="1" opacity="1" d="M 347.5 205 L 348 325.5 L 345 323.5 L 347 323.5 L 347.5 205 Z " /><path fill="rgb(179,179,179)" stroke="rgb(179,179,179)" stroke-width="1" opacity="1" d="M 268.5 206 L 269.5 208 L 268.5 206 Z " /><path fill="rgb(179,179,179)" stroke="rgb(179,179,179)" stroke-width="1" opacity="1" d="M 176.5 207 L 177 213.5 L 176 213.5 L 176.5 207 Z " /><path fill="rgb(179,179,179)" stroke="rgb(179,179,179)" stroke-width="1" opacity="1" d="M 270.5 209 L 271.5 211 L 270.5 209 Z " /><path fill="rgb(179,179,179)" stroke="rgb(179,179,179)" stroke-width="1" opacity="1" d="M 272.5 212 L 273.5 214 L 272.5 212 Z " /><path fill="rgb(179,179,179)" stroke="rgb(179,179,179)" stroke-width="1" opacity="1" d="M 180.5 214 L 186 214.5 L 180.5 215 L 180.5 214 Z " /><path fill="rgb(179,179,179)" stroke="rgb(179,179,179)" stroke-width="1" opacity="1" d="M 192.5 215 L 198 215.5 L 192.5 216 L 192.5 215 Z " /><path fill="rgb(179,179,179)" stroke="rgb(179,179,179)" stroke-width="1" opacity="1" d="M 274.5 215 L 275.5 217 L 274.5 215 Z " /><path fill="rgb(179,179,179)" stroke="rgb(179,179,179)" stroke-width="1" opacity="1" d="M 276.5 218 L 277.5 220 L 276.5 218 Z " /><path fill="rgb(179,179,179)" stroke="rgb(179,179,179)" stroke-width="1" opacity="1" d="M 278.5 221 L 279.5 223 L 278.5 221 Z " /><path fill="rgb(179,179,179)" stroke="rgb(179,179,179)" stroke-width="1" opacity="1" d="M 293.5 244 L 294.5 246 L 293.5 244 Z " /><path fill="rgb(179,179,179)" stroke="rgb(179,179,179)" stroke-width="1" opacity="1" d="M 295.5 247 L 296.5 249 L 295.5 247 Z " /><path fill="rgb(179,179,179)" stroke="rgb(179,179,179)" stroke-width="1" opacity="1" d="M 297.5 250 L 298.5 252 L 297.5 250 Z " /><path fill="rgb(179,179,179)" stroke="rgb(179,179,179)" stroke-width="1" opacity="1" d="M 232.5 251 Q 235.2 252.2 233 253.5 L 232.5 382 L 232.5 251 Z " /><path fill="rgb(179,179,179)" stroke="rgb(179,179,179)" stroke-width="1" opacity="1" d="M 299.5 253 L 300.5 255 L 299.5 253 Z " /><path fill="rgb(179,179,179)" stroke="rgb(179,179,179)" stroke-width="1" opacity="1" d="M 301.5 256 L 302.5 258 L 301.5 256 Z " /><path fill="rgb(179,179,179)" stroke="rgb(179,179,179)" stroke-width="1" opacity="1" d="M 236.5 257 L 237.5 259 L 236.5 257 Z " /><path fill="rgb(179,179,179)" stroke="rgb(179,179,179)" stroke-width="1" opacity="1" d="M 303.5 259 L 304.5 261 L 303.5 259 Z " /><path fill="rgb(179,179,179)" stroke="rgb(179,179,179)" stroke-width="1" opacity="1" d="M 238.5 260 L 239.5 262 L 238.5 260 Z " /><path fill="rgb(179,179,179)" stroke="rgb(179,179,179)" stroke-width="1" opacity="1" d="M 243.5 268 L 244.5 270 L 243.5 268 Z " /><path fill="rgb(179,179,179)" stroke="rgb(179,179,179)" stroke-width="1" opacity="1" d="M 245.5 271 L 246.5 273 L 245.5 271 Z " /><path fill="rgb(179,179,179)" stroke="rgb(179,179,179)" stroke-width="1" opacity="1" d="M 316.5 279 L 317.5 281 L 316.5 279 Z " /><path fill="rgb(179,179,179)" stroke="rgb(179,179,179)" stroke-width="1" opacity="1" d="M 252.5 282 L 253.5 284 L 252.5 282 Z " /><path fill="rgb(179,179,179)" stroke="rgb(179,179,179)" stroke-width="1" opacity="1" d="M 318.5 282 L 319.5 284 L 318.5 282 Z " /><path fill="rgb(179,179,179)" stroke="rgb(179,179,179)" stroke-width="1" opacity="1" d="M 254.5 285 L 255.5 287 L 254.5 285 Z " /><path fill="rgb(179,179,179)" stroke="rgb(179,179,179)" stroke-width="1" opacity="1" d="M 320.5 285 L 321.5 287 L 320.5 285 Z " /><path fill="rgb(179,179,179)" stroke="rgb(179,179,179)" stroke-width="1" opacity="1" d="M 322.5 288 L 323.5 290 L 322.5 288 Z " /><path fill="rgb(179,179,179)" stroke="rgb(179,179,179)" stroke-width="1" opacity="1" d="M 324.5 291 L 325.5 293 L 324.5 291 Z " /><path fill="rgb(179,179,179)" stroke="rgb(179,179,179)" stroke-width="1" opacity="1" d="M 259.5 293 L 260.5 295 L 259.5 293 Z " /><path fill="rgb(179,179,179)" stroke="rgb(179,179,179)" stroke-width="1" opacity="1" d="M 326.5 294 L 327.5 296 L 326.5 294 Z " /><path fill="rgb(179,179,179)" stroke="rgb(179,179,179)" stroke-width="1" opacity="1" d="M 261.5 296 L 262.5 298 L 261.5 296 Z " /><path fill="rgb(179,179,179)" stroke="rgb(179,179,179)" stroke-width="1" opacity="1" d="M 268.5 307 L 269.5 309 L 268.5 307 Z " /><path fill="rgb(179,179,179)" stroke="rgb(179,179,179)" stroke-width="1" opacity="1" d="M 270.5 310 L 271.5 312 L 270.5 310 Z " /><path fill="rgb(179,179,179)" stroke="rgb(179,179,179)" stroke-width="1" opacity="1" d="M 341.5 317 L 342.5 319 L 341.5 317 Z " /><path fill="rgb(179,179,179)" stroke="rgb(179,179,179)" stroke-width="1" opacity="1" d="M 343.5 320 L 344.5 322 L 343.5 320 Z " /><path fill="rgb(179,179,179)" stroke="rgb(179,179,179)" stroke-width="1" opacity="1" d="M 277.5 321 L 278.5 323 L 277.5 321 Z " /><path fill="rgb(179,179,179)" stroke="rgb(179,179,179)" stroke-width="1" opacity="1" d="M 284.5 332 L 285.5 334 L 284.5 332 Z " /><path fill="rgb(179,179,179)" stroke="rgb(179,179,179)" stroke-width="1" opacity="1" d="M 286.5 335 L 287.5 337 L 286.5 335 Z " /><path fill="rgb(179,179,179)" stroke="rgb(179,179,179)" stroke-width="1" opacity="1" d="M 293.5 346 L 294.5 348 L 293.5 346 Z " /><path fill="rgb(179,179,179)" stroke="rgb(179,179,179)" stroke-width="1" opacity="1" d="M 300.5 357 L 301.5 359 L 300.5 357 Z " /><path fill="rgb(179,179,179)" stroke="rgb(179,179,179)" stroke-width="1" opacity="1" d="M 38.5 360 L 39 362.5 L 38 362.5 L 38.5 360 Z " /><path fill="rgb(179,179,179)" stroke="rgb(179,179,179)" stroke-width="1" opacity="1" d="M 302.5 360 L 303.5 362 L 302.5 360 Z " /><path fill="rgb(179,179,179)" stroke="rgb(179,179,179)" stroke-width="1" opacity="1" d="M 309.5 371 L 310.5 373 L 309.5 371 Z " /><path fill="rgb(179,179,179)" stroke="rgb(179,179,179)" stroke-width="1" opacity="1" d="M 46.5 382 L 47.5 384 L 46.5 382 Z " /><path fill="rgb(179,179,179)" stroke="rgb(179,179,179)" stroke-width="1" opacity="1" d="M 316.5 382 L 317.5 384 L 316.5 382 Z " /><path fill="rgb(179,179,179)" stroke="rgb(179,179,179)" stroke-width="1" opacity="1" d="M 48.5 385 L 49.5 387 L 48.5 385 Z " /><path fill="rgb(179,179,179)" stroke="rgb(179,179,179)" stroke-width="1" opacity="1" d="M 318.5 385 L 319.5 387 L 318.5 385 Z " /><path fill="rgb(179,179,179)" stroke="rgb(179,179,179)" stroke-width="1" opacity="1" d="M 50.5 388 L 51.5 390 L 50.5 388 Z " /><path fill="rgb(179,179,179)" stroke="rgb(179,179,179)" stroke-width="1" opacity="1" d="M 321.5 389 L 324.5 393 L 321.5 389 Z " /><path fill="rgb(179,179,179)" stroke="rgb(179,179,179)" stroke-width="1" opacity="1" d="M 53.5 392 L 55.5 395 L 53.5 392 Z " /><path fill="rgb(179,179,179)" stroke="rgb(179,179,179)" stroke-width="1" opacity="1" d="M 180.5 394 L 178.5 397 L 180.5 394 Z " /><path fill="rgb(179,179,179)" stroke="rgb(179,179,179)" stroke-width="1" opacity="1" d="M 57.5 397 L 58.5 399 L 57.5 397 Z " /><path fill="rgb(179,179,179)" stroke="rgb(179,179,179)" stroke-width="1" opacity="1" d="M 331.5 399 L 332.5 401 L 331.5 399 Z " /><path fill="rgb(179,179,179)" stroke="rgb(179,179,179)" stroke-width="1" opacity="1" d="M 60.5 401 L 61.5 403 L 60.5 401 Z " /><path fill="rgb(179,179,179)" stroke="rgb(179,179,179)" stroke-width="1" opacity="1" d="M 242.5 403 L 245 403.5 L 242.5 404 L 242.5 403 Z " /><path fill="rgb(179,179,179)" stroke="rgb(179,179,179)" stroke-width="1" opacity="1" d="M 339.5 403 L 343 403.5 L 339.5 404 L 339.5 403 Z " /><path fill="rgb(179,179,179)" stroke="rgb(179,179,179)" stroke-width="1" opacity="1" d="M 351.5 403 L 355 403.5 L 351.5 404 L 351.5 403 Z " /><path fill="rgb(179,179,179)" stroke="rgb(179,179,179)" stroke-width="1" opacity="1" d="M 223.5 404 L 232 404.5 L 223.5 405 L 223.5 404 Z " /><path fill="rgb(179,179,179)" stroke="rgb(179,179,179)" stroke-width="1" opacity="1" d="M 63.5 405 L 65.5 408 L 63.5 405 Z " /><path fill="rgb(179,179,179)" stroke="rgb(179,179,179)" stroke-width="1" opacity="1" d="M 206.5 405 L 215 405.5 L 206.5 406 L 206.5 405 Z " /><path fill="rgb(179,179,179)" stroke="rgb(179,179,179)" stroke-width="1" opacity="1" d="M 176.5 406 L 180 407.5 L 177.5 408 L 176.5 406 Z " /><path fill="rgb(179,179,179)" stroke="rgb(179,179,179)" stroke-width="1" opacity="1" d="M 189.5 406 L 197 406.5 L 189.5 407 L 189.5 406 Z " /><path fill="rgb(179,179,179)" stroke="rgb(179,179,179)" stroke-width="1" opacity="1" d="M 67.5 410 L 68.5 412 L 67.5 410 Z " /><path fill="rgb(179,179,179)" stroke="rgb(179,179,179)" stroke-width="1" opacity="1" d="M 70.5 414 L 72.5 417 L 70.5 414 Z " /><path fill="rgb(179,179,179)" stroke="rgb(179,179,179)" stroke-width="1" opacity="1" d="M 443.5 414 L 444 417.5 L 443 417.5 L 443.5 414 Z " /><path fill="rgb(179,179,179)" stroke="rgb(179,179,179)" stroke-width="1" opacity="1" d="M 74.5 419 L 75.5 421 L 74.5 419 Z " /><path fill="rgb(179,179,179)" stroke="rgb(179,179,179)" stroke-width="1" opacity="1" d="M 77.5 423 L 79.5 426 L 77.5 423 Z " /><path fill="rgb(179,179,179)" stroke="rgb(179,179,179)" stroke-width="1" opacity="1" d="M 441.5 424 L 440.5 426 L 441.5 424 Z " /><path fill="rgb(179,179,179)" stroke="rgb(179,179,179)" stroke-width="1" opacity="1" d="M 81.5 428 L 82.5 430 L 81.5 428 Z " /><path fill="rgb(179,179,179)" stroke="rgb(179,179,179)" stroke-width="1" opacity="1" d="M 437.5 428 L 436.5 430 L 437.5 428 Z " /><path fill="rgb(179,179,179)" stroke="rgb(179,179,179)" stroke-width="1" opacity="1" d="M 428.5 431 L 431 431.5 L 428.5 432 L 428.5 431 Z " /><path fill="rgb(179,179,179)" stroke="rgb(179,179,179)" stroke-width="1" opacity="1" d="M 84.5 432 L 85.5 434 L 84.5 432 Z " /><path fill="rgb(179,179,179)" stroke="rgb(179,179,179)" stroke-width="1" opacity="1" d="M 412.5 432 L 421 432.5 L 412.5 433 L 412.5 432 Z " /><path fill="rgb(179,179,179)" stroke="rgb(179,179,179)" stroke-width="1" opacity="1" d="M 395.5 433 L 403 433.5 L 395.5 434 L 395.5 433 Z " /><path fill="rgb(179,179,179)" stroke="rgb(179,179,179)" stroke-width="1" opacity="1" d="M 377.5 434 L 386 434.5 L 377.5 435 L 377.5 434 Z " /><path fill="rgb(179,179,179)" stroke="rgb(179,179,179)" stroke-width="1" opacity="1" d="M 360.5 435 L 368 435.5 L 360.5 436 L 360.5 435 Z " /><path fill="rgb(179,179,179)" stroke="rgb(179,179,179)" stroke-width="1" opacity="1" d="M 87.5 436 L 89.5 439 L 87.5 436 Z " /><path fill="rgb(179,179,179)" stroke="rgb(179,179,179)" stroke-width="1" opacity="1" d="M 342.5 436 L 351 436.5 L 342.5 437 L 342.5 436 Z " /><path fill="rgb(179,179,179)" stroke="rgb(179,179,179)" stroke-width="1" opacity="1" d="M 325.5 437 L 334 437.5 L 325.5 438 L 325.5 437 Z " /><path fill="rgb(179,179,179)" stroke="rgb(179,179,179)" stroke-width="1" opacity="1" d="M 308.5 438 L 316 438.5 L 308.5 439 L 308.5 438 Z " /><path fill="rgb(179,179,179)" stroke="rgb(179,179,179)" stroke-width="1" opacity="1" d="M 290.5 439 L 299 439.5 L 290.5 440 L 290.5 439 Z " /><path fill="rgb(179,179,179)" stroke="rgb(179,179,179)" stroke-width="1" opacity="1" d="M 473.5 439 L 474 441.5 L 473 441.5 L 473.5 439 Z " /><path fill="rgb(179,179,179)" stroke="rgb(179,179,179)" stroke-width="1" opacity="1" d="M 130.5 440 L 131.5 442 L 130.5 440 Z " /><path fill="rgb(179,179,179)" stroke="rgb(179,179,179)" stroke-width="1" opacity="1" d="M 273.5 440 L 282 440.5 L 273.5 441 L 273.5 440 Z " /><path fill="rgb(179,179,179)" stroke="rgb(179,179,179)" stroke-width="1" opacity="1" d="M 91.5 441 L 92.5 443 L 91.5 441 Z " /><path fill="rgb(179,179,179)" stroke="rgb(179,179,179)" stroke-width="1" opacity="1" d="M 256.5 441 L 264 441.5 L 256.5 442 L 256.5 441 Z " /><path fill="rgb(179,179,179)" stroke="rgb(179,179,179)" stroke-width="1" opacity="1" d="M 238.5 442 L 247 442.5 L 238.5 443 L 238.5 442 Z " /><path fill="rgb(179,179,179)" stroke="rgb(179,179,179)" stroke-width="1" opacity="1" d="M 221.5 443 L 230 443.5 L 221.5 444 L 221.5 443 Z " /><path fill="rgb(179,179,179)" stroke="rgb(179,179,179)" stroke-width="1" opacity="1" d="M 134.5 444 L 135.5 446 L 134.5 444 Z " /><path fill="rgb(179,179,179)" stroke="rgb(179,179,179)" stroke-width="1" opacity="1" d="M 203.5 444 L 212 444.5 L 203.5 445 L 203.5 444 Z " /><path fill="rgb(179,179,179)" stroke="rgb(179,179,179)" stroke-width="1" opacity="1" d="M 94.5 445 L 96.5 448 L 94.5 445 Z " /><path fill="rgb(179,179,179)" stroke="rgb(179,179,179)" stroke-width="1" opacity="1" d="M 186.5 445 L 195 445.5 L 186.5 446 L 186.5 445 Z " /><path fill="rgb(179,179,179)" stroke="rgb(179,179,179)" stroke-width="1" opacity="1" d="M 169.5 446 L 177 446.5 L 169.5 447 L 169.5 446 Z " /><path fill="rgb(179,179,179)" stroke="rgb(179,179,179)" stroke-width="1" opacity="1" d="M 141.5 447 L 145 447.5 L 141.5 448 L 141.5 447 Z " /><path fill="rgb(179,179,179)" stroke="rgb(179,179,179)" stroke-width="1" opacity="1" d="M 151.5 447 L 160 447.5 L 151.5 448 L 151.5 447 Z " /><path fill="rgb(179,179,179)" stroke="rgb(179,179,179)" stroke-width="1" opacity="1" d="M 98.5 450 L 99.5 452 L 98.5 450 Z " /><path fill="rgb(179,179,179)" stroke="rgb(179,179,179)" stroke-width="1" opacity="1" d="M 468.5 453 L 467.5 455 L 468.5 453 Z " /><path fill="rgb(179,179,179)" stroke="rgb(179,179,179)" stroke-width="1" opacity="1" d="M 101.5 454 L 103.5 457 L 101.5 454 Z " /><path fill="rgb(179,179,179)" stroke="rgb(179,179,179)" stroke-width="1" opacity="1" d="M 465.5 456 L 463.5 459 L 465.5 456 Z " /><path fill="rgb(179,179,179)" stroke="rgb(179,179,179)" stroke-width="1" opacity="1" d="M 105.5 459 L 106.5 461 L 105.5 459 Z " /><path fill="rgb(179,179,179)" stroke="rgb(179,179,179)" stroke-width="1" opacity="1" d="M 108.5 463 L 109.5 465 L 108.5 463 Z " /><path fill="rgb(179,179,179)" stroke="rgb(179,179,179)" stroke-width="1" opacity="1" d="M 449.5 463 L 452 463.5 L 449.5 464 L 449.5 463 Z " /><path fill="rgb(179,179,179)" stroke="rgb(179,179,179)" stroke-width="1" opacity="1" d="M 439.5 464 L 446 464.5 L 439.5 465 L 439.5 464 Z " /><path fill="rgb(179,179,179)" stroke="rgb(179,179,179)" stroke-width="1" opacity="1" d="M 423.5 465 L 431 465.5 L 423.5 466 L 423.5 465 Z " /><path fill="rgb(179,179,179)" stroke="rgb(179,179,179)" stroke-width="1" opacity="1" d="M 406.5 466 L 415 466.5 L 406.5 467 L 406.5 466 Z " /><path fill="rgb(179,179,179)" stroke="rgb(179,179,179)" stroke-width="1" opacity="1" d="M 390.5 467 L 398 467.5 L 390.5 468 L 390.5 467 Z " /><path fill="rgb(179,179,179)" stroke="rgb(179,179,179)" stroke-width="1" opacity="1" d="M 112.5 468 L 114.5 471 L 112.5 468 Z " /><path fill="rgb(179,179,179)" stroke="rgb(179,179,179)" stroke-width="1" opacity="1" d="M 373.5 468 L 381 468.5 L 373.5 469 L 373.5 468 Z " /><path fill="rgb(179,179,179)" stroke="rgb(179,179,179)" stroke-width="1" opacity="1" d="M 356.5 469 L 365 469.5 L 356.5 470 L 356.5 469 Z " /><path fill="rgb(179,179,179)" stroke="rgb(179,179,179)" stroke-width="1" opacity="1" d="M 340.5 470 L 348 470.5 L 340.5 471 L 340.5 470 Z " /><path fill="rgb(179,179,179)" stroke="rgb(179,179,179)" stroke-width="1" opacity="1" d="M 323.5 471 L 331 471.5 L 323.5 472 L 323.5 471 Z " /><path fill="rgb(179,179,179)" stroke="rgb(179,179,179)" stroke-width="1" opacity="1" d="M 306.5 472 L 315 472.5 L 306.5 473 L 306.5 472 Z " /><path fill="rgb(179,179,179)" stroke="rgb(179,179,179)" stroke-width="1" opacity="1" d="M 290.5 473 L 298 473.5 L 290.5 474 L 290.5 473 Z " /><path fill="rgb(179,179,179)" stroke="rgb(179,179,179)" stroke-width="1" opacity="1" d="M 118.5 474 L 120.5 477 L 118.5 474 Z " /><path fill="rgb(179,179,179)" stroke="rgb(179,179,179)" stroke-width="1" opacity="1" d="M 273.5 474 L 281 474.5 L 273.5 475 L 273.5 474 Z " /><path fill="rgb(179,179,179)" stroke="rgb(179,179,179)" stroke-width="1" opacity="1" d="M 256.5 475 L 265 475.5 L 256.5 476 L 256.5 475 Z " /><path fill="rgb(179,179,179)" stroke="rgb(179,179,179)" stroke-width="1" opacity="1" d="M 240.5 476 L 248 476.5 L 240.5 477 L 240.5 476 Z " /><path fill="rgb(179,179,179)" stroke="rgb(179,179,179)" stroke-width="1" opacity="1" d="M 223.5 477 L 231 477.5 L 223.5 478 L 223.5 477 Z " /><path fill="rgb(179,179,179)" stroke="rgb(179,179,179)" stroke-width="1" opacity="1" d="M 206.5 478 L 215 478.5 L 206.5 479 L 206.5 478 Z " /><path fill="rgb(179,179,179)" stroke="rgb(179,179,179)" stroke-width="1" opacity="1" d="M 190.5 479 L 198 479.5 L 190.5 480 L 190.5 479 Z " /><path fill="rgb(179,179,179)" stroke="rgb(179,179,179)" stroke-width="1" opacity="1" d="M 173.5 480 L 182 480.5 L 173.5 481 L 173.5 480 Z " /><path fill="rgb(179,179,179)" stroke="rgb(179,179,179)" stroke-width="1" opacity="1" d="M 131.5 481 L 134 481.5 L 131.5 482 L 131.5 481 Z " /><path fill="rgb(179,179,179)" stroke="rgb(179,179,179)" stroke-width="1" opacity="1" d="M 157.5 481 L 165 481.5 L 157.5 482 L 157.5 481 Z " /><path fill="rgb(179,179,179)" stroke="rgb(179,179,179)" stroke-width="1" opacity="1" d="M 139.5 482 L 148 482.5 L 139.5 483 L 139.5 482 Z " /><path fill="rgb(255,255,255)" stroke="rgb(255,255,255)" stroke-width="1" opacity="0.9921568627450981" d="M 317.5 0 L 332 0.5 L 317.5 1 L 317.5 0 Z " /><path fill="rgb(255,255,255)" stroke="rgb(255,255,255)" stroke-width="1" opacity="0.9921568627450981" d="M 340.5 0 L 351 0.5 L 340.5 1 L 340.5 0 Z " /><path fill="rgb(255,255,255)" stroke="rgb(255,255,255)" stroke-width="1" opacity="0.9921568627450981" d="M 304.5 1 L 316 1.5 L 304.5 2 L 304.5 1 Z " /><path fill="rgb(255,255,255)" stroke="rgb(255,255,255)" stroke-width="1" opacity="0.9921568627450981" d="M 352.5 1 L 356.5 1 L 369.5 5 L 386.5 14 L 476.5 77 L 496 94.5 Q 504 103.5 504 120.5 L 503 120.5 L 503 113.5 L 500 103.5 Q 495 93 486.5 86 L 384.5 14 L 369.5 6 L 356.5 2 L 352.5 2 L 352.5 1 Z " /><path fill="rgb(255,255,255)" stroke="rgb(255,255,255)" stroke-width="1" opacity="0.9921568627450981" d="M 290.5 2 L 303 2.5 L 290.5 3 L 290.5 2 Z " /><path fill="rgb(255,255,255)" stroke="rgb(255,255,255)" stroke-width="1" opacity="0.9921568627450981" d="M 276.5 3 L 289 3.5 L 276.5 4 L 276.5 3 Z " /><path fill="rgb(255,255,255)" stroke="rgb(255,255,255)" stroke-width="1" opacity="0.9921568627450981" d="M 263.5 4 L 275 4.5 L 263.5 5 L 263.5 4 Z " /><path fill="rgb(255,255,255)" stroke="rgb(255,255,255)" stroke-width="1" opacity="0.9921568627450981" d="M 249.5 5 L 262 5.5 L 249.5 6 L 249.5 5 Z " /><path fill="rgb(255,255,255)" stroke="rgb(255,255,255)" stroke-width="1" opacity="0.9921568627450981" d="M 235.5 6 L 248 6.5 L 235.5 7 L 235.5 6 Z " /><path fill="rgb(255,255,255)" stroke="rgb(255,255,255)" stroke-width="1" opacity="0.9921568627450981" d="M 222.5 7 L 234 7.5 L 222.5 8 L 222.5 7 Z " /><path fill="rgb(255,255,255)" stroke="rgb(255,255,255)" stroke-width="1" opacity="0.9921568627450981" d="M 208.5 8 L 221 8.5 L 208.5 9 L 208.5 8 Z " /><path fill="rgb(255,255,255)" stroke="rgb(255,255,255)" stroke-width="1" opacity="0.9921568627450981" d="M 195.5 9 L 207 9.5 L 195.5 10 L 195.5 9 Z " /><path fill="rgb(255,255,255)" stroke="rgb(255,255,255)" stroke-width="1" opacity="0.9921568627450981" d="M 181.5 10 L 193 10.5 L 181.5 11 L 181.5 10 Z " /><path fill="rgb(255,255,255)" stroke="rgb(255,255,255)" stroke-width="1" opacity="0.9921568627450981" d="M 167.5 11 L 180 11.5 L 167.5 12 L 167.5 11 Z " /><path fill="rgb(255,255,255)" stroke="rgb(255,255,255)" stroke-width="1" opacity="0.9921568627450981" d="M 154.5 12 L 166 12.5 L 154.5 13 L 154.5 12 Z " /><path fill="rgb(255,255,255)" stroke="rgb(255,255,255)" stroke-width="1" opacity="0.9921568627450981" d="M 140.5 13 L 152 13.5 L 140.5 14 L 140.5 13 Z " /><path fill="rgb(255,255,255)" stroke="rgb(255,255,255)" stroke-width="1" opacity="0.9921568627450981" d="M 126.5 14 L 139 14.5 L 126.5 15 L 126.5 14 Z " /><path fill="rgb(255,255,255)" stroke="rgb(255,255,255)" stroke-width="1" opacity="0.9921568627450981" d="M 113.5 15 L 125 15.5 L 113.5 16 L 113.5 15 Z " /><path fill="rgb(255,255,255)" stroke="rgb(255,255,255)" stroke-width="1" opacity="0.9921568627450981" d="M 99.5 16 L 112 16.5 L 99.5 17 L 99.5 16 Z " /><path fill="rgb(255,255,255)" stroke="rgb(255,255,255)" stroke-width="1" opacity="0.9921568627450981" d="M 85.5 17 L 98 17.5 L 85.5 18 L 85.5 17 Z " /><path fill="rgb(255,255,255)" stroke="rgb(255,255,255)" stroke-width="1" opacity="0.9921568627450981" d="M 72.5 18 L 84 18.5 L 72.5 19 L 72.5 18 Z " /><path fill="rgb(255,255,255)" stroke="rgb(255,255,255)" stroke-width="1" opacity="0.9921568627450981" d="M 59.5 19 L 71 19.5 L 59.5 20 L 41.5 25 Q 30.1 30.6 22 39.5 Q 9.5 52.5 8.5 77 L 8 68.5 Q 12.6 43.6 29.5 31 L 43.5 23 L 59.5 19 Z " /><path fill="rgb(255,255,255)" stroke="rgb(255,255,255)" stroke-width="1" opacity="0.9921568627450981" d="M 8.5 357 L 11 375.5 L 21 397.5 L 85 481.5 L 102.5 500 Q 114.6 509.9 135 511.5 L 128.5 512 Q 103.1 506.9 90 489.5 L 21 399.5 Q 14 389 10 375.5 L 8 366.5 L 8.5 357 Z " /><path fill="rgb(255,255,255)" stroke="rgb(255,255,255)" stroke-width="1" opacity="0.9921568627450981" d="M 503.5 435 L 504 444.5 L 503 444.5 L 503.5 435 Z " /><path fill="rgb(255,255,255)" stroke="rgb(255,255,255)" stroke-width="1" opacity="0.9921568627450981" d="M 502.5 446 L 503 450.5 Q 498.2 470.2 484.5 481 Q 468.1 495.6 436.5 495 L 436.5 494 Q 476.8 494.3 493 470.5 Q 500.3 460.8 502.5 446 Z " /><path fill="rgb(255,255,255)" stroke="rgb(255,255,255)" stroke-width="1" opacity="0.9921568627450981" d="M 419.5 495 L 434 495.5 L 419.5 496 L 419.5 495 Z " /><path fill="rgb(255,255,255)" stroke="rgb(255,255,255)" stroke-width="1" opacity="0.9921568627450981" d="M 403.5 496 L 418 496.5 L 403.5 497 L 403.5 496 Z " /><path fill="rgb(255,255,255)" stroke="rgb(255,255,255)" stroke-width="1" opacity="0.9921568627450981" d="M 386.5 497 L 401 497.5 L 386.5 498 L 386.5 497 Z " /><path fill="rgb(255,255,255)" stroke="rgb(255,255,255)" stroke-width="1" opacity="0.9921568627450981" d="M 369.5 498 L 384 498.5 L 369.5 499 L 369.5 498 Z " /><path fill="rgb(255,255,255)" stroke="rgb(255,255,255)" stroke-width="1" opacity="0.9921568627450981" d="M 353.5 499 L 368 499.5 L 353.5 500 L 353.5 499 Z " /><path fill="rgb(255,255,255)" stroke="rgb(255,255,255)" stroke-width="1" opacity="0.9921568627450981" d="M 336.5 500 L 351 500.5 L 336.5 501 L 336.5 500 Z " /><path fill="rgb(255,255,255)" stroke="rgb(255,255,255)" stroke-width="1" opacity="0.9921568627450981" d="M 319.5 501 L 335 501.5 L 319.5 502 L 319.5 501 Z " /><path fill="rgb(255,255,255)" stroke="rgb(255,255,255)" stroke-width="1" opacity="0.9921568627450981" d="M 303.5 502 L 318 502.5 L 303.5 503 L 303.5 502 Z " /><path fill="rgb(255,255,255)" stroke="rgb(255,255,255)" stroke-width="1" opacity="0.9921568627450981" d="M 286.5 503 L 301 503.5 L 286.5 504 L 286.5 503 Z " /><path fill="rgb(255,255,255)" stroke="rgb(255,255,255)" stroke-width="1" opacity="0.9921568627450981" d="M 269.5 504 L 285 504.5 L 269.5 505 L 269.5 504 Z " /><path fill="rgb(255,255,255)" stroke="rgb(255,255,255)" stroke-width="1" opacity="0.9921568627450981" d="M 253.5 505 L 268 505.5 L 253.5 506 L 253.5 505 Z " /><path fill="rgb(255,255,255)" stroke="rgb(255,255,255)" stroke-width="1" opacity="0.9921568627450981" d="M 236.5 506 L 251 506.5 L 236.5 507 L 236.5 506 Z " /><path fill="rgb(255,255,255)" stroke="rgb(255,255,255)" stroke-width="1" opacity="0.9921568627450981" d="M 220.5 507 L 235 507.5 L 220.5 508 L 220.5 507 Z " /><path fill="rgb(255,255,255)" stroke="rgb(255,255,255)" stroke-width="1" opacity="0.9921568627450981" d="M 203.5 508 L 218 508.5 L 203.5 509 L 203.5 508 Z " /><path fill="rgb(255,255,255)" stroke="rgb(255,255,255)" stroke-width="1" opacity="0.9921568627450981" d="M 186.5 509 L 201 509.5 L 186.5 510 L 186.5 509 Z " /><path fill="rgb(255,255,255)" stroke="rgb(255,255,255)" stroke-width="1" opacity="0.9921568627450981" d="M 170.5 510 L 185 510.5 L 170.5 511 L 170.5 510 Z " /><path fill="rgb(255,255,255)" stroke="rgb(255,255,255)" stroke-width="1" opacity="0.9921568627450981" d="M 153.5 511 L 168 511.5 L 153.5 512 L 153.5 511 Z " /><path fill="rgb(0,0,0)" stroke="rgb(0,0,0)" stroke-width="1" opacity="0" d="M 0 0 L 317 0.5 L 290.5 2 L 289.5 3 L 276.5 3 L 275.5 4 L 263.5 4 L 262.5 5 L 249.5 5 L 248.5 6 L 235.5 6 L 234.5 7 L 222.5 7 L 221.5 8 L 208.5 8 L 207.5 9 L 195.5 9 L 194.5 10 L 181.5 10 L 180.5 11 L 167.5 11 L 166.5 12 L 154.5 12 L 153.5 13 L 140.5 13 L 139.5 14 L 126.5 14 L 125.5 15 L 113.5 15 L 112.5 16 L 99.5 16 L 98.5 17 L 85.5 17 L 84.5 18 L 72.5 18 L 71.5 19 L 59.5 19 L 49.5 21 L 35.5 27 L 20 40.5 Q 10.8 51.3 8 68.5 L 8 366.5 Q 12.7 389.8 25 405.5 L 86 484.5 L 99.5 499 Q 110.3 508.7 128 511.5 L 0 512 L 0 0 Z " /><path fill="rgb(0,0,0)" stroke="rgb(0,0,0)" stroke-width="1" opacity="0" d="M 351.5 0 L 511.5 0 L 512 0.5 L 512 512 L 168 511.5 L 200.5 510 L 201.5 509 L 217.5 509 L 218.5 508 L 234.5 508 L 235.5 507 L 250.5 507 L 251.5 506 L 267.5 506 L 268.5 505 L 284.5 505 L 285.5 504 L 300.5 504 L 301.5 503 L 317.5 503 L 318.5 502 L 334.5 502 L 335.5 501 L 350.5 501 L 351.5 500 L 367.5 500 L 368.5 499 L 383.5 499 L 384.5 498 L 400.5 498 L 401.5 497 L 417.5 497 L 418.5 496 L 433.5 496 L 434.5 495 L 448.5 495 L 469.5 490 Q 483.2 484.2 492 473.5 Q 501.1 462.1 504 444.5 L 504 113.5 Q 499.5 93 484.5 83 L 386.5 14 L 369.5 5 L 356.5 1 L 351.5 1 L 351.5 0 Z " /><path fill="rgb(0,0,0)" stroke="rgb(0,0,0)" stroke-width="1" opacity="1" d="M 327.5 30 L 344.5 30 L 354.5 32 L 363.5 36 L 454.5 99 L 471 112.5 L 474 119.5 L 474 438.5 L 472 447.5 L 467 456 L 453.5 463 L 439.5 464 L 438.5 465 L 406.5 466 L 405.5 467 L 373.5 468 L 372.5 469 L 356.5 469 L 355.5 470 L 323.5 471 L 322.5 472 L 306.5 472 L 305.5 473 L 273.5 474 L 272.5 475 L 256.5 475 L 255.5 476 L 223.5 477 L 222.5 478 L 206.5 478 L 205.5 479 L 173.5 480 L 172.5 481 L 157.5 481 L 156.5 482 L 134.5 482 Q 122 479.5 115 471.5 L 52 390.5 Q 43.7 379.8 39 365.5 Q 40.2 360.8 38 359.5 L 38 74.5 Q 40 61.5 48.5 55 L 56.5 51 L 67.5 50 L 68.5 49 L 122.5 46 L 123.5 45 L 149.5 44 L 150.5 43 L 176.5 42 L 177.5 41 L 190.5 41 L 191.5 40 L 217.5 39 L 218.5 38 L 231.5 38 L 232.5 37 L 258.5 36 L 259.5 35 L 272.5 35 L 273.5 34 L 299.5 33 L 300.5 32 L 313.5 32 L 314.5 31 L 326.5 31 L 327.5 30 Z M 329 55 L 328 56 L 287 58 L 286 59 L 274 59 L 273 60 L 232 62 L 231 63 L 218 63 L 217 64 L 205 64 L 204 65 L 150 68 L 149 69 L 94 72 L 93 73 L 84 73 L 79 75 Q 76 76 77 81 L 119 114 L 131 119 L 156 119 L 157 118 L 206 116 L 207 115 L 222 115 L 223 114 L 239 114 L 240 113 L 256 113 L 257 112 L 272 112 L 273 111 L 289 111 L 290 110 L 306 110 L 307 109 L 323 109 L 324 108 L 339 108 L 340 107 L 373 106 L 374 105 L 390 105 L 391 104 L 406 104 L 412 103 L 411 99 L 361 62 Q 349 54 329 55 Z M 420 133 L 419 134 L 402 134 L 401 135 L 385 135 L 384 136 L 368 136 L 367 137 L 351 137 L 350 138 L 333 138 L 332 139 L 265 142 L 264 143 L 247 143 L 246 144 L 230 144 L 229 145 L 213 145 L 212 146 L 196 146 L 195 147 L 179 147 L 178 148 L 144 149 L 134 152 Q 129 155 128 162 L 128 435 L 130 441 Q 133 447 142 448 L 160 448 L 161 447 L 177 447 L 178 446 L 195 446 L 196 445 L 212 445 L 213 444 L 230 444 L 231 443 L 247 443 L 248 442 L 264 442 L 265 441 L 282 441 L 283 440 L 299 440 L 300 439 L 316 439 L 317 438 L 368 436 L 369 435 L 421 433 L 422 432 L 431 432 L 437 430 L 442 425 L 444 418 L 444 144 L 442 139 L 436 133 L 420 133 Z " /><path fill="rgb(0,0,0)" stroke="rgb(0,0,0)" stroke-width="1" opacity="1" d="M 384.5 182 L 400 182 L 400 191.5 L 395.5 197 L 379.5 200 L 378 201.5 L 378 394.5 L 376.5 395 Q 364.2 403.7 343.5 404 L 333.5 401 L 325 393.5 L 312 375.5 L 232.5 251 L 232 382 L 260 388 Q 259.1 396 253.5 400 L 241.5 404 L 223.5 404 L 222.5 405 L 177.5 407 Q 175.3 406.3 176 402.5 Q 177.3 396.8 181.5 394 L 199 389 L 199 216.5 L 197.5 215 L 177 214 L 177 205.5 L 182.5 197 L 188.5 194 L 197.5 194 L 198.5 193 L 241.5 191 L 242.5 190 L 257.5 190 L 347.5 326 L 348 205 L 326.5 203 L 324 200.5 Q 324.6 190.6 331.5 187 L 336.5 185 L 383.5 183 L 384.5 182 Z " /><path fill="rgb(255,255,255)" stroke="rgb(255,255,255)" stroke-width="1" opacity="1" d="M 332.5 0 L 356.5 2 Q 369.6 4.9 379.5 11 L 477.5 79 L 493 92.5 L 500 103.5 L 504 121.5 L 504 434.5 L 503 435.5 L 503 445.5 L 499 459.5 Q 493.2 473.7 481.5 482 L 466.5 490 L 448.5 494 L 403.5 496 L 402.5 497 L 386.5 497 L 385.5 498 L 369.5 498 L 368.5 499 L 353.5 499 L 352.5 500 L 336.5 500 L 335.5 501 L 319.5 501 L 318.5 502 L 303.5 502 L 302.5 503 L 286.5 503 L 285.5 504 L 269.5 504 L 268.5 505 L 253.5 505 L 252.5 506 L 236.5 506 L 235.5 507 L 220.5 507 L 219.5 508 L 203.5 508 L 202.5 509 L 186.5 509 L 185.5 510 L 170.5 510 L 169.5 511 L 153.5 511 L 152.5 512 L 135.5 512 L 134.5 511 L 123.5 510 L 108.5 504 Q 96.9 497.1 89 486.5 L 27 406.5 L 16 388.5 L 9 366.5 L 9 357.5 L 8 356.5 L 8 77.5 L 12 56.5 Q 17.4 42.9 27.5 34 L 41.5 25 L 59.5 20 L 97.5 18 L 98.5 17 L 111.5 17 L 112.5 16 L 124.5 16 L 125.5 15 L 138.5 15 L 139.5 14 L 151.5 14 L 152.5 13 L 165.5 13 L 166.5 12 L 179.5 12 L 180.5 11 L 192.5 11 L 193.5 10 L 206.5 10 L 207.5 9 L 220.5 9 L 221.5 8 L 247.5 7 L 248.5 6 L 261.5 6 L 262.5 5 L 288.5 4 L 289.5 3 L 302.5 3 L 303.5 2 L 315.5 2 L 316.5 1 L 331.5 1 L 332.5 0 Z M 321 30 L 320 31 L 308 31 L 307 32 L 294 32 L 293 33 L 267 34 L 266 35 L 240 36 L 239 37 L 226 37 L 225 38 L 199 39 L 198 40 L 185 40 L 184 41 L 171 41 L 170 42 L 158 42 L 157 43 L 144 43 L 143 44 L 130 44 L 129 45 L 117 45 L 116 46 L 103 46 L 102 47 L 64 49 L 50 54 Q 41 60 38 72 L 38 363 L 40 371 L 50 389 L 112 469 L 121 477 L 132 482 Q 138 480 140 483 L 165 482 L 166 481 L 182 481 L 183 480 L 198 480 L 199 479 L 215 479 L 216 478 L 231 478 L 232 477 L 248 477 L 249 476 L 265 476 L 266 475 L 281 475 L 282 474 L 298 474 L 299 473 L 315 473 L 316 472 L 331 472 L 332 471 L 348 471 L 349 470 L 365 470 L 366 469 L 381 469 L 382 468 L 398 468 L 399 467 L 415 467 L 416 466 L 431 466 L 432 465 L 446 465 L 458 462 L 464 459 Q 472 453 474 442 L 474 118 L 473 115 L 464 105 L 365 36 L 349 30 L 321 30 Z " /><path fill="rgb(255,255,255)" stroke="rgb(255,255,255)" stroke-width="1" opacity="1" d="M 321.5 56 L 343.5 56 L 351.5 58 L 361.5 63 L 411 99.5 L 412 101.5 L 410.5 103 L 398.5 103 L 397.5 104 L 381.5 104 L 380.5 105 L 365.5 105 L 364.5 106 L 348.5 106 L 347.5 107 L 331.5 107 L 330.5 108 L 314.5 108 L 313.5 109 L 298.5 109 L 297.5 110 L 281.5 110 L 280.5 111 L 264.5 111 L 263.5 112 L 247.5 112 L 246.5 113 L 231.5 113 L 230.5 114 L 214.5 114 L 213.5 115 L 197.5 115 L 196.5 116 L 180.5 116 L 179.5 117 L 133.5 119 Q 123.1 117.4 116.5 112 L 77 79.5 Q 76.5 75.5 79.5 75 L 87.5 73 L 141.5 70 L 142.5 69 L 196.5 66 L 197.5 65 L 210.5 65 L 211.5 64 L 223.5 64 L 224.5 63 L 237.5 63 L 238.5 62 L 265.5 61 L 266.5 60 L 278.5 60 L 279.5 59 L 320.5 57 L 321.5 56 Z " /><path fill="rgb(255,255,255)" stroke="rgb(255,255,255)" stroke-width="1" opacity="1" d="M 427.5 133 Q 437.6 131.9 441 137.5 L 444 147.5 L 444 413.5 L 442 423.5 L 438.5 428 L 427.5 432 L 412.5 432 L 411.5 433 L 377.5 434 L 376.5 435 L 342.5 436 L 341.5 437 L 325.5 437 L 324.5 438 L 290.5 439 L 289.5 440 L 273.5 440 L 272.5 441 L 256.5 441 L 255.5 442 L 238.5 442 L 237.5 443 L 221.5 443 L 220.5 444 L 203.5 444 L 202.5 445 L 186.5 445 L 185.5 446 L 169.5 446 L 168.5 447 L 151.5 447 Q 150.3 449.2 145.5 448 L 136.5 446 L 132 442.5 L 129 436.5 L 129 159.5 L 134.5 152 L 139.5 150 L 151.5 150 L 152.5 149 L 168.5 149 L 169.5 148 L 185.5 148 L 186.5 147 L 202.5 147 L 203.5 146 L 220.5 146 L 221.5 145 L 237.5 145 L 238.5 144 L 254.5 144 L 255.5 143 L 288.5 142 L 289.5 141 L 306.5 141 L 307.5 140 L 323.5 140 L 324.5 139 L 340.5 139 L 341.5 138 L 357.5 138 L 358.5 137 L 375.5 137 L 376.5 136 L 392.5 136 L 393.5 135 L 409.5 135 L 410.5 134 L 426.5 134 L 427.5 133 Z M 393 181 L 392 182 L 376 182 L 375 183 L 359 183 L 358 184 L 341 184 L 331 187 Q 323 191 324 203 L 347 205 L 347 324 L 258 189 L 251 189 L 250 190 L 236 190 L 235 191 L 221 191 L 220 192 L 206 192 L 205 193 L 192 193 L 184 196 Q 175 201 176 214 Q 182 216 192 215 L 193 216 Q 199 215 199 217 L 199 389 L 181 394 L 176 401 Q 174 406 178 408 L 181 407 L 197 407 L 198 406 L 245 404 L 253 401 Q 259 398 260 389 L 255 386 L 233 382 L 234 253 L 321 390 L 333 401 L 340 404 L 355 404 Q 368 401 378 395 L 379 395 L 379 201 L 397 197 L 401 190 Q 402 185 400 184 L 400 181 L 393 181 Z " /></svg>