<svg width="1200" height="630" version="1.1" xmlns="http://www.w3.org/2000/svg" desc="Created with imagetracer.js version 1.2.6" ><path fill="rgb(206,206,206)" stroke="rgb(206,206,206)" stroke-width="1" opacity="1" d="M 501.5 165 L 509 165.5 L 501.5 166 L 501.5 165 Z " /><path fill="rgb(206,206,206)" stroke="rgb(206,206,206)" stroke-width="1" opacity="1" d="M 691.5 165 L 699 165.5 L 691.5 166 L 691.5 165 Z " /><path fill="rgb(206,206,206)" stroke="rgb(206,206,206)" stroke-width="1" opacity="1" d="M 519.5 169 L 520.5 171 L 519.5 169 Z " /><path fill="rgb(206,206,206)" stroke="rgb(206,206,206)" stroke-width="1" opacity="1" d="M 680.5 169 L 679.5 171 L 680.5 169 Z " /><path fill="rgb(206,206,206)" stroke="rgb(206,206,206)" stroke-width="1" opacity="1" d="M 488.5 170 L 486.5 173 L 488.5 170 Z " /><path fill="rgb(206,206,206)" stroke="rgb(206,206,206)" stroke-width="1" opacity="1" d="M 711.5 170 L 713.5 173 L 711.5 170 Z " /><path fill="rgb(206,206,206)" stroke="rgb(206,206,206)" stroke-width="1" opacity="1" d="M 522.5 171 L 530.5 180 L 522.5 171 Z " /><path fill="rgb(206,206,206)" stroke="rgb(206,206,206)" stroke-width="1" opacity="1" d="M 676.5 172 L 670.5 179 L 676.5 172 Z " /><path fill="rgb(206,206,206)" stroke="rgb(206,206,206)" stroke-width="1" opacity="1" d="M 480.5 178 L 479.5 180 L 480.5 178 Z " /><path fill="rgb(206,206,206)" stroke="rgb(206,206,206)" stroke-width="1" opacity="1" d="M 719.5 178 L 721.5 181 L 719.5 178 Z " /><path fill="rgb(206,206,206)" stroke="rgb(206,206,206)" stroke-width="1" opacity="1" d="M 531.5 181 L 532.5 183 L 531.5 181 Z " /><path fill="rgb(206,206,206)" stroke="rgb(206,206,206)" stroke-width="1" opacity="1" d="M 668.5 181 L 667.5 183 L 668.5 181 Z " /><path fill="rgb(206,206,206)" stroke="rgb(206,206,206)" stroke-width="1" opacity="1" d="M 691.5 195 L 689.5 198 L 691.5 195 Z " /><path fill="rgb(206,206,206)" stroke="rgb(206,206,206)" stroke-width="1" opacity="1" d="M 500.5 196 L 499.5 198 L 500.5 196 Z " /><path fill="rgb(206,206,206)" stroke="rgb(206,206,206)" stroke-width="1" opacity="1" d="M 509.5 196 L 510.5 198 L 509.5 196 Z " /><path fill="rgb(206,206,206)" stroke="rgb(206,206,206)" stroke-width="1" opacity="1" d="M 699.5 196 L 700.5 198 L 699.5 196 Z " /><path fill="rgb(206,206,206)" stroke="rgb(206,206,206)" stroke-width="1" opacity="1" d="M 512.5 201 L 513.5 203 L 512.5 201 Z " /><path fill="rgb(206,206,206)" stroke="rgb(206,206,206)" stroke-width="1" opacity="1" d="M 545.5 212 L 546 214.5 L 545 214.5 L 545.5 212 Z " /><path fill="rgb(206,206,206)" stroke="rgb(206,206,206)" stroke-width="1" opacity="1" d="M 654.5 212 L 655 214.5 L 654 214.5 L 654.5 212 Z " /><path fill="rgb(206,206,206)" stroke="rgb(206,206,206)" stroke-width="1" opacity="1" d="M 490.5 223 L 491 225.5 L 490 225.5 L 490.5 223 Z " /><path fill="rgb(206,206,206)" stroke="rgb(206,206,206)" stroke-width="1" opacity="1" d="M 709.5 223 L 710 225.5 L 709 225.5 L 709.5 223 Z " /><path fill="rgb(206,206,206)" stroke="rgb(206,206,206)" stroke-width="1" opacity="1" d="M 590.5 224 L 594 224.5 L 590.5 225 L 590.5 224 Z " /><path fill="rgb(206,206,206)" stroke="rgb(206,206,206)" stroke-width="1" opacity="1" d="M 606.5 224 L 610 224.5 L 606.5 225 L 606.5 224 Z " /><path fill="rgb(206,206,206)" stroke="rgb(206,206,206)" stroke-width="1" opacity="1" d="M 614.5 225 L 617 225.5 L 614.5 226 L 614.5 225 Z " /><path fill="rgb(206,206,206)" stroke="rgb(206,206,206)" stroke-width="1" opacity="1" d="M 651.5 227 L 652 229.5 L 651 229.5 L 651.5 227 Z " /><path fill="rgb(206,206,206)" stroke="rgb(206,206,206)" stroke-width="1" opacity="1" d="M 521.5 228 L 522 230.5 L 521 230.5 L 521.5 228 Z " /><path fill="rgb(206,206,206)" stroke="rgb(206,206,206)" stroke-width="1" opacity="1" d="M 678.5 228 L 679 230.5 L 678 230.5 L 678.5 228 Z " /><path fill="rgb(206,206,206)" stroke="rgb(206,206,206)" stroke-width="1" opacity="1" d="M 489.5 229 L 490 232.5 L 489 232.5 L 489.5 229 Z " /><path fill="rgb(206,206,206)" stroke="rgb(206,206,206)" stroke-width="1" opacity="1" d="M 710.5 229 L 711 232.5 L 710 232.5 L 710.5 229 Z " /><path fill="rgb(206,206,206)" stroke="rgb(206,206,206)" stroke-width="1" opacity="1" d="M 462.5 231 L 463 234.5 L 462 234.5 L 462.5 231 Z " /><path fill="rgb(206,206,206)" stroke="rgb(206,206,206)" stroke-width="1" opacity="1" d="M 737.5 231 L 738 234.5 L 737 234.5 L 737.5 231 Z " /><path fill="rgb(206,206,206)" stroke="rgb(206,206,206)" stroke-width="1" opacity="1" d="M 522.5 234 L 523 237.5 L 522 237.5 L 522.5 234 Z " /><path fill="rgb(206,206,206)" stroke="rgb(206,206,206)" stroke-width="1" opacity="1" d="M 677.5 234 L 678 237.5 L 677 237.5 L 677.5 234 Z " /><path fill="rgb(206,206,206)" stroke="rgb(206,206,206)" stroke-width="1" opacity="1" d="M 549.5 235 L 551 238.5 L 549 239 L 549.5 235 Z " /><path fill="rgb(206,206,206)" stroke="rgb(206,206,206)" stroke-width="1" opacity="1" d="M 650.5 235 L 651 239 L 649 238.5 L 650.5 235 Z " /><path fill="rgb(206,206,206)" stroke="rgb(206,206,206)" stroke-width="1" opacity="1" d="M 488.5 239 L 489 259.5 L 488 259.5 L 488.5 239 Z " /><path fill="rgb(206,206,206)" stroke="rgb(206,206,206)" stroke-width="1" opacity="1" d="M 711.5 239 L 712 259.5 L 711 259.5 L 711.5 239 Z " /><path fill="rgb(206,206,206)" stroke="rgb(206,206,206)" stroke-width="1" opacity="1" d="M 523.5 243 L 524 250.5 L 523 250.5 L 523.5 243 Z " /><path fill="rgb(206,206,206)" stroke="rgb(206,206,206)" stroke-width="1" opacity="1" d="M 676.5 243 L 677 250.5 L 676 250.5 L 676.5 243 Z " /><path fill="rgb(206,206,206)" stroke="rgb(206,206,206)" stroke-width="1" opacity="1" d="M 590.5 251 L 593 251.5 L 590.5 252 L 590.5 251 Z " /><path fill="rgb(206,206,206)" stroke="rgb(206,206,206)" stroke-width="1" opacity="1" d="M 607.5 251 L 610 251.5 L 607.5 252 L 607.5 251 Z " /><path fill="rgb(206,206,206)" stroke="rgb(206,206,206)" stroke-width="1" opacity="1" d="M 569.5 258 L 568.5 260 L 569.5 258 Z " /><path fill="rgb(206,206,206)" stroke="rgb(206,206,206)" stroke-width="1" opacity="1" d="M 523.5 261 L 524 263.5 L 522 264.5 L 523.5 261 Z " /><path fill="rgb(206,206,206)" stroke="rgb(206,206,206)" stroke-width="1" opacity="1" d="M 564.5 261 L 563.5 263 L 564.5 261 Z " /><path fill="rgb(206,206,206)" stroke="rgb(206,206,206)" stroke-width="1" opacity="1" d="M 635.5 261 L 636.5 263 L 635.5 261 Z " /><path fill="rgb(206,206,206)" stroke="rgb(206,206,206)" stroke-width="1" opacity="1" d="M 676.5 261 L 678 264.5 L 676 263.5 L 676.5 261 Z " /><path fill="rgb(206,206,206)" stroke="rgb(206,206,206)" stroke-width="1" opacity="1" d="M 561.5 263 L 560.5 265 L 561.5 263 Z " /><path fill="rgb(206,206,206)" stroke="rgb(206,206,206)" stroke-width="1" opacity="1" d="M 638.5 263 L 639.5 265 L 638.5 263 Z " /><path fill="rgb(206,206,206)" stroke="rgb(206,206,206)" stroke-width="1" opacity="1" d="M 737.5 263 L 738 267.5 L 737 267.5 L 737.5 263 Z " /><path fill="rgb(206,206,206)" stroke="rgb(206,206,206)" stroke-width="1" opacity="1" d="M 462.5 264 L 463 267.5 L 462 267.5 L 462.5 264 Z " /><path fill="rgb(206,206,206)" stroke="rgb(206,206,206)" stroke-width="1" opacity="1" d="M 558.5 265 L 556.5 268 L 558.5 265 Z " /><path fill="rgb(206,206,206)" stroke="rgb(206,206,206)" stroke-width="1" opacity="1" d="M 641.5 265 L 643.5 268 L 641.5 265 Z " /><path fill="rgb(206,206,206)" stroke="rgb(206,206,206)" stroke-width="1" opacity="1" d="M 489.5 266 L 490 268.5 L 489 268.5 L 489.5 266 Z " /><path fill="rgb(206,206,206)" stroke="rgb(206,206,206)" stroke-width="1" opacity="1" d="M 710.5 266 L 711 268.5 L 710 268.5 L 710.5 266 Z " /><path fill="rgb(206,206,206)" stroke="rgb(206,206,206)" stroke-width="1" opacity="1" d="M 512.5 269 L 518 269.5 L 512.5 270 L 512.5 269 Z " /><path fill="rgb(206,206,206)" stroke="rgb(206,206,206)" stroke-width="1" opacity="1" d="M 682.5 269 L 688 269.5 L 682.5 270 L 682.5 269 Z " /><path fill="rgb(206,206,206)" stroke="rgb(206,206,206)" stroke-width="1" opacity="1" d="M 502.5 270 L 505 270.5 L 502.5 271 L 502.5 270 Z " /><path fill="rgb(206,206,206)" stroke="rgb(206,206,206)" stroke-width="1" opacity="1" d="M 695.5 270 L 698 270.5 L 695.5 271 L 695.5 270 Z " /><path fill="rgb(206,206,206)" stroke="rgb(206,206,206)" stroke-width="1" opacity="1" d="M 551.5 271 L 549.5 274 L 551.5 271 Z " /><path fill="rgb(206,206,206)" stroke="rgb(206,206,206)" stroke-width="1" opacity="1" d="M 463.5 273 L 464 275.5 L 463 275.5 L 463.5 273 Z " /><path fill="rgb(206,206,206)" stroke="rgb(206,206,206)" stroke-width="1" opacity="1" d="M 736.5 273 L 737 275.5 L 736 275.5 L 736.5 273 Z " /><path fill="rgb(206,206,206)" stroke="rgb(206,206,206)" stroke-width="1" opacity="1" d="M 547.5 276 L 545.5 279 L 547.5 276 Z " /><path fill="rgb(206,206,206)" stroke="rgb(206,206,206)" stroke-width="1" opacity="1" d="M 652.5 276 L 654.5 279 L 652.5 276 Z " /><path fill="rgb(206,206,206)" stroke="rgb(206,206,206)" stroke-width="1" opacity="1" d="M 462.5 288 L 460.5 291 L 462.5 288 Z " /><path fill="rgb(206,206,206)" stroke="rgb(206,206,206)" stroke-width="1" opacity="1" d="M 737.5 288 L 739.5 291 L 737.5 288 Z " /><path fill="rgb(206,206,206)" stroke="rgb(206,206,206)" stroke-width="1" opacity="1" d="M 538.5 291 L 534.5 296 L 538.5 291 Z " /><path fill="rgb(206,206,206)" stroke="rgb(206,206,206)" stroke-width="1" opacity="1" d="M 661.5 291 L 665.5 296 L 661.5 291 Z " /><path fill="rgb(206,206,206)" stroke="rgb(206,206,206)" stroke-width="1" opacity="1" d="M 509.5 296 L 513 296.5 L 509.5 297 L 509.5 296 Z " /><path fill="rgb(206,206,206)" stroke="rgb(206,206,206)" stroke-width="1" opacity="1" d="M 517.5 296 L 521 296.5 L 517.5 297 L 517.5 296 Z " /><path fill="rgb(206,206,206)" stroke="rgb(206,206,206)" stroke-width="1" opacity="1" d="M 679.5 296 L 683 296.5 L 679.5 297 L 679.5 296 Z " /><path fill="rgb(206,206,206)" stroke="rgb(206,206,206)" stroke-width="1" opacity="1" d="M 687.5 296 L 691 296.5 L 687.5 297 L 687.5 296 Z " /><path fill="rgb(206,206,206)" stroke="rgb(206,206,206)" stroke-width="1" opacity="1" d="M 524.5 297 L 530 297.5 L 524.5 298 L 524.5 297 Z " /><path fill="rgb(206,206,206)" stroke="rgb(206,206,206)" stroke-width="1" opacity="1" d="M 670.5 297 L 676 297.5 L 670.5 298 L 670.5 297 Z " /><path fill="rgb(206,206,206)" stroke="rgb(206,206,206)" stroke-width="1" opacity="1" d="M 750.5 301 L 753.5 305 L 750.5 301 Z " /><path fill="rgb(206,206,206)" stroke="rgb(206,206,206)" stroke-width="1" opacity="1" d="M 448.5 302 L 446.5 305 L 448.5 302 Z " /><path fill="rgb(206,206,206)" stroke="rgb(206,206,206)" stroke-width="1" opacity="1" d="M 445.5 306 L 444.5 308 L 445.5 306 Z " /><path fill="rgb(206,206,206)" stroke="rgb(206,206,206)" stroke-width="1" opacity="1" d="M 754.5 306 L 755.5 308 L 754.5 306 Z " /><path fill="rgb(206,206,206)" stroke="rgb(206,206,206)" stroke-width="1" opacity="1" d="M 480.5 308 L 479.5 310 L 480.5 308 Z " /><path fill="rgb(206,206,206)" stroke="rgb(206,206,206)" stroke-width="1" opacity="1" d="M 719.5 308 L 720.5 310 L 719.5 308 Z " /><path fill="rgb(206,206,206)" stroke="rgb(206,206,206)" stroke-width="1" opacity="1" d="M 442.5 310 L 441.5 312 L 442.5 310 Z " /><path fill="rgb(206,206,206)" stroke="rgb(206,206,206)" stroke-width="1" opacity="1" d="M 757.5 310 L 758.5 312 L 757.5 310 Z " /><path fill="rgb(206,206,206)" stroke="rgb(206,206,206)" stroke-width="1" opacity="1" d="M 474.5 313 L 471.5 317 L 474.5 313 Z " /><path fill="rgb(206,206,206)" stroke="rgb(206,206,206)" stroke-width="1" opacity="1" d="M 725.5 313 L 728.5 317 L 725.5 313 Z " /><path fill="rgb(206,206,206)" stroke="rgb(206,206,206)" stroke-width="1" opacity="1" d="M 467.5 321 L 466.5 323 L 467.5 321 Z " /><path fill="rgb(206,206,206)" stroke="rgb(206,206,206)" stroke-width="1" opacity="1" d="M 732.5 321 L 733.5 323 L 732.5 321 Z " /><path fill="rgb(206,206,206)" stroke="rgb(206,206,206)" stroke-width="1" opacity="1" d="M 465.5 324 L 464.5 326 L 465.5 324 Z " /><path fill="rgb(206,206,206)" stroke="rgb(206,206,206)" stroke-width="1" opacity="1" d="M 460.5 332 L 459.5 334 L 460.5 332 Z " /><path fill="rgb(206,206,206)" stroke="rgb(206,206,206)" stroke-width="1" opacity="1" d="M 739.5 332 L 740.5 334 L 739.5 332 Z " /><path fill="rgb(206,206,206)" stroke="rgb(206,206,206)" stroke-width="1" opacity="1" d="M 774.5 350 L 775 353.5 L 774 353.5 L 774.5 350 Z " /><path fill="rgb(206,206,206)" stroke="rgb(206,206,206)" stroke-width="1" opacity="1" d="M 451.5 357 L 452 360.5 L 451 360.5 L 451.5 357 Z " /><path fill="rgb(206,206,206)" stroke="rgb(206,206,206)" stroke-width="1" opacity="1" d="M 748.5 357 L 749 360.5 L 748 360.5 L 748.5 357 Z " /><path fill="rgb(206,206,206)" stroke="rgb(206,206,206)" stroke-width="1" opacity="1" d="M 424.5 358 L 425 362.5 L 424 362.5 L 424.5 358 Z " /><path fill="rgb(206,206,206)" stroke="rgb(206,206,206)" stroke-width="1" opacity="1" d="M 775.5 358 L 776 363.5 L 775 363.5 L 775.5 358 Z " /><path fill="rgb(206,206,206)" stroke="rgb(206,206,206)" stroke-width="1" opacity="1" d="M 591.5 360 L 609 360.5 L 591.5 361 L 591.5 360 Z " /><path fill="rgb(206,206,206)" stroke="rgb(206,206,206)" stroke-width="1" opacity="1" d="M 583.5 361 L 586 361.5 L 583.5 362 L 583.5 361 Z " /><path fill="rgb(206,206,206)" stroke="rgb(206,206,206)" stroke-width="1" opacity="1" d="M 614.5 361 L 617 361.5 L 614.5 362 L 614.5 361 Z " /><path fill="rgb(206,206,206)" stroke="rgb(206,206,206)" stroke-width="1" opacity="1" d="M 508.5 363 L 514 363.5 L 508.5 364 L 508.5 363 Z " /><path fill="rgb(206,206,206)" stroke="rgb(206,206,206)" stroke-width="1" opacity="1" d="M 685.5 363 L 692 363.5 L 685.5 364 L 685.5 363 Z " /><path fill="rgb(206,206,206)" stroke="rgb(206,206,206)" stroke-width="1" opacity="1" d="M 502.5 365 L 501.5 367 L 502.5 365 Z " /><path fill="rgb(206,206,206)" stroke="rgb(206,206,206)" stroke-width="1" opacity="1" d="M 697.5 365 L 698.5 367 L 697.5 365 Z " /><path fill="rgb(206,206,206)" stroke="rgb(206,206,206)" stroke-width="1" opacity="1" d="M 450.5 366 L 451 372.5 L 450 372.5 L 450.5 366 Z " /><path fill="rgb(206,206,206)" stroke="rgb(206,206,206)" stroke-width="1" opacity="1" d="M 749.5 366 L 750 372.5 L 749 372.5 L 749.5 366 Z " /><path fill="rgb(206,206,206)" stroke="rgb(206,206,206)" stroke-width="1" opacity="1" d="M 499.5 367 L 498.5 369 L 499.5 367 Z " /><path fill="rgb(206,206,206)" stroke="rgb(206,206,206)" stroke-width="1" opacity="1" d="M 522.5 367 L 524.5 370 L 522.5 367 Z " /><path fill="rgb(206,206,206)" stroke="rgb(206,206,206)" stroke-width="1" opacity="1" d="M 677.5 367 L 675.5 370 L 677.5 367 Z " /><path fill="rgb(206,206,206)" stroke="rgb(206,206,206)" stroke-width="1" opacity="1" d="M 700.5 367 L 701.5 369 L 700.5 367 Z " /><path fill="rgb(206,206,206)" stroke="rgb(206,206,206)" stroke-width="1" opacity="1" d="M 525.5 371 L 526.5 373 L 525.5 371 Z " /><path fill="rgb(206,206,206)" stroke="rgb(206,206,206)" stroke-width="1" opacity="1" d="M 674.5 371 L 673.5 373 L 674.5 371 Z " /><path fill="rgb(206,206,206)" stroke="rgb(206,206,206)" stroke-width="1" opacity="1" d="M 554.5 373 L 553.5 375 L 554.5 373 Z " /><path fill="rgb(206,206,206)" stroke="rgb(206,206,206)" stroke-width="1" opacity="1" d="M 645.5 373 L 646.5 375 L 645.5 373 Z " /><path fill="rgb(206,206,206)" stroke="rgb(206,206,206)" stroke-width="1" opacity="1" d="M 551.5 375 L 549.5 378 L 551.5 375 Z " /><path fill="rgb(206,206,206)" stroke="rgb(206,206,206)" stroke-width="1" opacity="1" d="M 648.5 375 L 650.5 378 L 648.5 375 Z " /><path fill="rgb(206,206,206)" stroke="rgb(206,206,206)" stroke-width="1" opacity="1" d="M 424.5 376 L 425 380.5 L 424 380.5 L 424.5 376 Z " /><path fill="rgb(206,206,206)" stroke="rgb(206,206,206)" stroke-width="1" opacity="1" d="M 775.5 376 L 776 380.5 L 775 380.5 L 775.5 376 Z " /><path fill="rgb(206,206,206)" stroke="rgb(206,206,206)" stroke-width="1" opacity="1" d="M 593.5 378 L 606 378.5 L 593.5 379 L 593.5 378 Z " /><path fill="rgb(206,206,206)" stroke="rgb(206,206,206)" stroke-width="1" opacity="1" d="M 451.5 379 L 452 381.5 L 451 381.5 L 451.5 379 Z " /><path fill="rgb(206,206,206)" stroke="rgb(206,206,206)" stroke-width="1" opacity="1" d="M 748.5 379 L 749 381.5 L 748 381.5 L 748.5 379 Z " /><path fill="rgb(206,206,206)" stroke="rgb(206,206,206)" stroke-width="1" opacity="1" d="M 425.5 386 L 426 388.5 L 425 388.5 L 425.5 386 Z " /><path fill="rgb(206,206,206)" stroke="rgb(206,206,206)" stroke-width="1" opacity="1" d="M 774.5 386 L 775 388.5 L 774 388.5 L 774.5 386 Z " /><path fill="rgb(206,206,206)" stroke="rgb(206,206,206)" stroke-width="1" opacity="1" d="M 539.5 387 L 538.5 389 L 539.5 387 Z " /><path fill="rgb(206,206,206)" stroke="rgb(206,206,206)" stroke-width="1" opacity="1" d="M 566.5 387 L 565.5 389 L 566.5 387 Z " /><path fill="rgb(206,206,206)" stroke="rgb(206,206,206)" stroke-width="1" opacity="1" d="M 660.5 387 L 661.5 389 L 660.5 387 Z " /><path fill="rgb(206,206,206)" stroke="rgb(206,206,206)" stroke-width="1" opacity="1" d="M 563.5 389 L 562.5 391 L 563.5 389 Z " /><path fill="rgb(206,206,206)" stroke="rgb(206,206,206)" stroke-width="1" opacity="1" d="M 636.5 389 L 638.5 392 L 636.5 389 Z " /><path fill="rgb(206,206,206)" stroke="rgb(206,206,206)" stroke-width="1" opacity="1" d="M 537.5 390 L 536.5 392 L 537.5 390 Z " /><path fill="rgb(206,206,206)" stroke="rgb(206,206,206)" stroke-width="1" opacity="1" d="M 662.5 390 L 663.5 392 L 662.5 390 Z " /><path fill="rgb(206,206,206)" stroke="rgb(206,206,206)" stroke-width="1" opacity="1" d="M 523.5 393 L 519.5 398 L 523.5 393 Z " /><path fill="rgb(206,206,206)" stroke="rgb(206,206,206)" stroke-width="1" opacity="1" d="M 676.5 393 L 680.5 398 L 676.5 393 Z " /><path fill="rgb(206,206,206)" stroke="rgb(206,206,206)" stroke-width="1" opacity="1" d="M 645.5 398 L 647.5 401 L 645.5 398 Z " /><path fill="rgb(206,206,206)" stroke="rgb(206,206,206)" stroke-width="1" opacity="1" d="M 553.5 399 L 552.5 401 L 553.5 399 Z " /><path fill="rgb(206,206,206)" stroke="rgb(206,206,206)" stroke-width="1" opacity="1" d="M 506.5 400 L 514 400.5 L 506.5 401 L 506.5 400 Z " /><path fill="rgb(206,206,206)" stroke="rgb(206,206,206)" stroke-width="1" opacity="1" d="M 686.5 400 L 694 400.5 L 686.5 401 L 686.5 400 Z " /><path fill="rgb(206,206,206)" stroke="rgb(206,206,206)" stroke-width="1" opacity="1" d="M 551.5 402 L 551 403.5 L 549.5 406 L 550 404.5 L 551.5 402 Z " /><path fill="rgb(206,206,206)" stroke="rgb(206,206,206)" stroke-width="1" opacity="1" d="M 587.5 402 L 589 402.5 L 586.5 404 L 587.5 402 Z " /><path fill="rgb(206,206,206)" stroke="rgb(206,206,206)" stroke-width="1" opacity="1" d="M 459.5 403 L 460.5 405 L 459.5 403 Z " /><path fill="rgb(206,206,206)" stroke="rgb(206,206,206)" stroke-width="1" opacity="1" d="M 602.5 403 L 601.5 405 L 602.5 403 Z " /><path fill="rgb(206,206,206)" stroke="rgb(206,206,206)" stroke-width="1" opacity="1" d="M 740.5 403 L 739.5 405 L 740.5 403 Z " /><path fill="rgb(206,206,206)" stroke="rgb(206,206,206)" stroke-width="1" opacity="1" d="M 738.5 406 L 737.5 408 L 738.5 406 Z " /><path fill="rgb(206,206,206)" stroke="rgb(206,206,206)" stroke-width="1" opacity="1" d="M 464.5 410 L 468.5 415 L 464.5 410 Z " /><path fill="rgb(206,206,206)" stroke="rgb(206,206,206)" stroke-width="1" opacity="1" d="M 735.5 410 L 731.5 415 L 735.5 410 Z " /><path fill="rgb(206,206,206)" stroke="rgb(206,206,206)" stroke-width="1" opacity="1" d="M 584.5 413 L 588.5 418 L 584.5 413 Z " /><path fill="rgb(206,206,206)" stroke="rgb(206,206,206)" stroke-width="1" opacity="1" d="M 611.5 416 L 610.5 418 L 611.5 416 Z " /><path fill="rgb(206,206,206)" stroke="rgb(206,206,206)" stroke-width="1" opacity="1" d="M 730.5 416 L 730 417.5 L 729.5 419 L 729 417.5 L 730.5 416 Z " /><path fill="rgb(206,206,206)" stroke="rgb(206,206,206)" stroke-width="1" opacity="1" d="M 436.5 417 L 437.5 419 L 436.5 417 Z " /><path fill="rgb(206,206,206)" stroke="rgb(206,206,206)" stroke-width="1" opacity="1" d="M 763.5 417 L 762.5 419 L 763.5 417 Z " /><path fill="rgb(206,206,206)" stroke="rgb(206,206,206)" stroke-width="1" opacity="1" d="M 438.5 420 L 439.5 422 L 438.5 420 Z " /><path fill="rgb(206,206,206)" stroke="rgb(206,206,206)" stroke-width="1" opacity="1" d="M 471.5 420 L 472 426.5 L 471 426.5 L 471.5 420 Z " /><path fill="rgb(206,206,206)" stroke="rgb(206,206,206)" stroke-width="1" opacity="1" d="M 592.5 420 L 593 422.5 L 592 422.5 L 592.5 420 Z " /><path fill="rgb(206,206,206)" stroke="rgb(206,206,206)" stroke-width="1" opacity="1" d="M 728.5 420 L 729 426.5 L 728 426.5 L 728.5 420 Z " /><path fill="rgb(206,206,206)" stroke="rgb(206,206,206)" stroke-width="1" opacity="1" d="M 591.5 426 L 592 431.5 L 591 431.5 L 591.5 426 Z " /><path fill="rgb(206,206,206)" stroke="rgb(206,206,206)" stroke-width="1" opacity="1" d="M 671.5 426 L 672 428.5 L 671 428.5 L 671.5 426 Z " /><path fill="rgb(206,206,206)" stroke="rgb(206,206,206)" stroke-width="1" opacity="1" d="M 470.5 428 L 471 429.5 L 469 430.5 L 470.5 428 Z " /><path fill="rgb(206,206,206)" stroke="rgb(206,206,206)" stroke-width="1" opacity="1" d="M 729.5 428 L 731 430.5 L 729 429.5 L 729.5 428 Z " /><path fill="rgb(206,206,206)" stroke="rgb(206,206,206)" stroke-width="1" opacity="1" d="M 607.5 431 L 608 432.5 L 606 433.5 L 607.5 431 Z " /><path fill="rgb(206,206,206)" stroke="rgb(206,206,206)" stroke-width="1" opacity="1" d="M 468.5 432 L 466.5 435 L 468.5 432 Z " /><path fill="rgb(206,206,206)" stroke="rgb(206,206,206)" stroke-width="1" opacity="1" d="M 731.5 432 L 733.5 435 L 731.5 432 Z " /><path fill="rgb(206,206,206)" stroke="rgb(206,206,206)" stroke-width="1" opacity="1" d="M 592.5 433 L 594.5 436 L 592.5 433 Z " /><path fill="rgb(206,206,206)" stroke="rgb(206,206,206)" stroke-width="1" opacity="1" d="M 551.5 436 L 552.5 438 L 551.5 436 Z " /><path fill="rgb(206,206,206)" stroke="rgb(206,206,206)" stroke-width="1" opacity="1" d="M 648.5 436 L 647.5 438 L 648.5 436 Z " /><path fill="rgb(206,206,206)" stroke="rgb(206,206,206)" stroke-width="1" opacity="1" d="M 533.5 442 L 534.5 444 L 533.5 442 Z " /><path fill="rgb(206,206,206)" stroke="rgb(206,206,206)" stroke-width="1" opacity="1" d="M 666.5 442 L 665.5 444 L 666.5 442 Z " /><path fill="rgb(206,206,206)" stroke="rgb(206,206,206)" stroke-width="1" opacity="1" d="M 559.5 444 L 560.5 446 L 559.5 444 Z " /><path fill="rgb(206,206,206)" stroke="rgb(206,206,206)" stroke-width="1" opacity="1" d="M 640.5 444 L 639.5 446 L 640.5 444 Z " /><path fill="rgb(206,206,206)" stroke="rgb(206,206,206)" stroke-width="1" opacity="1" d="M 562.5 446 L 563.5 448 L 562.5 446 Z " /><path fill="rgb(206,206,206)" stroke="rgb(206,206,206)" stroke-width="1" opacity="1" d="M 637.5 446 L 636.5 448 L 637.5 446 Z " /><path fill="rgb(206,206,206)" stroke="rgb(206,206,206)" stroke-width="1" opacity="1" d="M 537.5 448 L 538.5 450 L 537.5 448 Z " /><path fill="rgb(206,206,206)" stroke="rgb(206,206,206)" stroke-width="1" opacity="1" d="M 662.5 448 L 660.5 451 L 662.5 448 Z " /><path fill="rgb(206,206,206)" stroke="rgb(206,206,206)" stroke-width="1" opacity="1" d="M 541.5 453 L 543.5 456 L 541.5 453 Z " /><path fill="rgb(206,206,206)" stroke="rgb(206,206,206)" stroke-width="1" opacity="1" d="M 587.5 454 L 613 454.5 L 587.5 455 L 587.5 454 Z " /><path fill="rgb(206,206,206)" stroke="rgb(206,206,206)" stroke-width="1" opacity="1" d="M 547.5 458 L 548.5 460 L 547.5 458 Z " /><path fill="rgb(206,206,206)" stroke="rgb(206,206,206)" stroke-width="1" opacity="1" d="M 652.5 458 L 651.5 460 L 652.5 458 Z " /><path fill="rgb(206,206,206)" stroke="rgb(206,206,206)" stroke-width="1" opacity="1" d="M 428.5 459 L 429 461.5 L 428 461.5 L 428.5 459 Z " /><path fill="rgb(206,206,206)" stroke="rgb(206,206,206)" stroke-width="1" opacity="1" d="M 771.5 459 L 772 461.5 L 771 461.5 L 771.5 459 Z " /><path fill="rgb(206,206,206)" stroke="rgb(206,206,206)" stroke-width="1" opacity="1" d="M 553.5 462 L 554.5 464 L 553.5 462 Z " /><path fill="rgb(206,206,206)" stroke="rgb(206,206,206)" stroke-width="1" opacity="1" d="M 427.5 466 L 428 469.5 L 427 469.5 L 427.5 466 Z " /><path fill="rgb(206,206,206)" stroke="rgb(206,206,206)" stroke-width="1" opacity="1" d="M 772.5 466 L 773 469.5 L 772 469.5 L 772.5 466 Z " /><path fill="rgb(206,206,206)" stroke="rgb(206,206,206)" stroke-width="1" opacity="1" d="M 576.5 471 L 579 471.5 L 576.5 472 L 576.5 471 Z " /><path fill="rgb(206,206,206)" stroke="rgb(206,206,206)" stroke-width="1" opacity="1" d="M 621.5 471 L 624 471.5 L 621.5 472 L 621.5 471 Z " /><path fill="rgb(206,206,206)" stroke="rgb(206,206,206)" stroke-width="1" opacity="1" d="M 584.5 472 L 615 472.5 L 584.5 473 L 584.5 472 Z " /><path fill="rgb(206,206,206)" stroke="rgb(206,206,206)" stroke-width="1" opacity="1" d="M 453.5 474 L 454 478.5 L 453 478.5 L 453.5 474 Z " /><path fill="rgb(206,206,206)" stroke="rgb(206,206,206)" stroke-width="1" opacity="1" d="M 746.5 474 L 747 477.5 L 746 477.5 L 746.5 474 Z " /><path fill="rgb(206,206,206)" stroke="rgb(206,206,206)" stroke-width="1" opacity="1" d="M 426.5 478 L 427 490.5 L 426 490.5 L 426.5 478 Z " /><path fill="rgb(206,206,206)" stroke="rgb(206,206,206)" stroke-width="1" opacity="1" d="M 773.5 478 L 774 490.5 L 773 490.5 L 773.5 478 Z " /><path fill="rgb(206,206,206)" stroke="rgb(206,206,206)" stroke-width="1" opacity="1" d="M 453.5 490 L 454 494.5 L 453 494.5 L 453.5 490 Z " /><path fill="rgb(206,206,206)" stroke="rgb(206,206,206)" stroke-width="1" opacity="1" d="M 746.5 490 L 747 494.5 L 746 494.5 L 746.5 490 Z " /><path fill="rgb(206,206,206)" stroke="rgb(206,206,206)" stroke-width="1" opacity="1" d="M 427.5 498 L 428 501.5 L 427 501.5 L 427.5 498 Z " /><path fill="rgb(206,206,206)" stroke="rgb(206,206,206)" stroke-width="1" opacity="1" d="M 772.5 498 L 773 501.5 L 772 501.5 L 772.5 498 Z " /><path fill="rgb(206,206,206)" stroke="rgb(206,206,206)" stroke-width="1" opacity="1" d="M 428.5 506 L 429 508.5 L 428 508.5 L 428.5 506 Z " /><path fill="rgb(206,206,206)" stroke="rgb(206,206,206)" stroke-width="1" opacity="1" d="M 771.5 506 L 772 508.5 L 771 508.5 L 771.5 506 Z " /><path fill="rgb(206,206,206)" stroke="rgb(206,206,206)" stroke-width="1" opacity="1" d="M 464.5 529 L 470.5 536 L 464.5 529 Z " /><path fill="rgb(206,206,206)" stroke="rgb(206,206,206)" stroke-width="1" opacity="1" d="M 735.5 529 L 729.5 536 L 735.5 529 Z " /><path fill="rgb(206,206,206)" stroke="rgb(206,206,206)" stroke-width="1" opacity="1" d="M 441.5 543 L 442.5 545 L 441.5 543 Z " /><path fill="rgb(206,206,206)" stroke="rgb(206,206,206)" stroke-width="1" opacity="1" d="M 758.5 543 L 757.5 545 L 758.5 543 Z " /><path fill="rgb(206,206,206)" stroke="rgb(206,206,206)" stroke-width="1" opacity="1" d="M 432.5 580 L 433 582.5 L 432 582.5 L 432.5 580 Z " /><path fill="rgb(206,206,206)" stroke="rgb(206,206,206)" stroke-width="1" opacity="1" d="M 767.5 580 L 768 582.5 L 767 582.5 L 767.5 580 Z " /><path fill="rgb(206,206,206)" stroke="rgb(206,206,206)" stroke-width="1" opacity="1" d="M 431.5 586 L 432 588.5 L 431 588.5 L 431.5 586 Z " /><path fill="rgb(206,206,206)" stroke="rgb(206,206,206)" stroke-width="1" opacity="1" d="M 458.5 586 L 459 588.5 L 458 588.5 L 458.5 586 Z " /><path fill="rgb(206,206,206)" stroke="rgb(206,206,206)" stroke-width="1" opacity="1" d="M 741.5 586 L 742 588.5 L 741 588.5 L 741.5 586 Z " /><path fill="rgb(206,206,206)" stroke="rgb(206,206,206)" stroke-width="1" opacity="1" d="M 768.5 586 L 769 589.5 L 768 589.5 L 768.5 586 Z " /><path fill="rgb(206,206,206)" stroke="rgb(206,206,206)" stroke-width="1" opacity="1" d="M 457.5 593 L 458 596.5 L 457 596.5 L 457.5 593 Z " /><path fill="rgb(206,206,206)" stroke="rgb(206,206,206)" stroke-width="1" opacity="1" d="M 742.5 593 L 743 597.5 L 742 597.5 L 742.5 593 Z " /><path fill="rgb(206,206,206)" stroke="rgb(206,206,206)" stroke-width="1" opacity="1" d="M 430.5 596 L 431 611.5 L 430 611.5 L 430.5 596 Z " /><path fill="rgb(206,206,206)" stroke="rgb(206,206,206)" stroke-width="1" opacity="1" d="M 769.5 597 L 770 611.5 L 769 611.5 L 769.5 597 Z " /><path fill="rgb(206,206,206)" stroke="rgb(206,206,206)" stroke-width="1" opacity="1" d="M 457.5 610 L 458 613.5 L 457 613.5 L 457.5 610 Z " /><path fill="rgb(206,206,206)" stroke="rgb(206,206,206)" stroke-width="1" opacity="1" d="M 742.5 610 L 743 613.5 L 742 613.5 L 742.5 610 Z " /><path fill="rgb(206,206,206)" stroke="rgb(206,206,206)" stroke-width="1" opacity="1" d="M 458.5 617 L 459 619.5 L 458 619.5 L 458.5 617 Z " /><path fill="rgb(206,206,206)" stroke="rgb(206,206,206)" stroke-width="1" opacity="1" d="M 431.5 618 L 432 620.5 L 431 620.5 L 431.5 618 Z " /><path fill="rgb(206,206,206)" stroke="rgb(206,206,206)" stroke-width="1" opacity="1" d="M 768.5 618 L 769 620.5 L 768 620.5 L 768.5 618 Z " /><path fill="rgb(255,255,255)" stroke="rgb(255,255,255)" stroke-width="1" opacity="1" d="M 0 0 L 1200 0 L 1200 630 L 766 629.5 L 769 620.5 L 770 597.5 L 769 596.5 L 769 586.5 L 766 571.5 L 757 545.5 Q 765.2 535.7 769 521.5 L 773 501.5 L 774 478.5 L 773 477.5 L 772 459.5 L 769 446.5 Q 765.6 433.4 759 423.5 Q 778.5 402 776 358.5 L 773 342.5 Q 769 328 762 316.5 Q 752.4 299.6 737.5 288 L 735 286.5 L 737 268.5 L 738 267.5 L 738 231.5 L 737 230.5 L 735 212.5 L 729 193.5 Q 723.3 178.7 711.5 170 Q 704.3 164.7 691.5 165 Q 677.1 168.1 670 178.5 L 659 197.5 L 654 212.5 L 650 238 L 621.5 226 L 610.5 225 L 609.5 224 L 590.5 224 L 589.5 225 L 578.5 226 L 566.5 230 L 550 238 L 546 212.5 L 541 197.5 Q 535 181 522.5 171 Q 515.4 164.6 501.5 165 Q 486.1 168.1 479 179.5 Q 467.9 194.9 464 217.5 L 463 230.5 L 462 231.5 L 462 267.5 L 463 268.5 L 465 286.5 L 446 304.5 Q 433.6 320.6 427 342.5 L 424 358.5 L 424 380.5 L 429 402.5 L 436 417.5 L 441 424.5 L 436 432.5 L 429 454.5 L 428 465.5 L 427 466.5 L 426 490.5 L 427 491.5 L 428 508.5 L 431 521.5 L 435 532.5 L 443 547.5 L 439 555.5 L 432 580.5 L 431 595.5 L 430 596.5 L 430 611.5 L 431 612.5 L 432 625.5 L 434 629.5 L 0 630 L 0 0 Z " /><path fill="rgb(255,255,255)" stroke="rgb(255,255,255)" stroke-width="1" opacity="1" d="M 504.5 192 L 509 195.5 L 514 203.5 L 521 225.5 L 522 237.5 L 523 238.5 L 524 260.5 L 518.5 270 Q 517.3 267.8 512.5 269 L 511.5 270 L 502.5 270 L 490 273 L 490 266.5 L 489 265.5 L 489 233.5 L 490 232.5 L 491 220.5 L 495 206.5 Q 498.3 197.8 504.5 192 Z " /><path fill="rgb(255,255,255)" stroke="rgb(255,255,255)" stroke-width="1" opacity="1" d="M 695.5 192 Q 701.8 197.8 705 206.5 L 709 220.5 L 710 232.5 L 711 233.5 L 711 265.5 L 710 266.5 L 710 273 L 697.5 270 L 682.5 269 Q 681.3 271.3 680 268.5 Q 674.5 263.5 676 251.5 L 677 250.5 L 678 231.5 L 682 213.5 L 687 201.5 L 693.5 193 L 695.5 192 Z " /><path fill="rgb(255,255,255)" stroke="rgb(255,255,255)" stroke-width="1" opacity="1" d="M 593.5 251 L 606.5 251 L 622.5 255 Q 640.3 262.2 652 275.5 Q 658.4 281.6 661 291.5 L 665.5 296 Q 668.8 298.7 675.5 298 L 686.5 296 L 687.5 297 L 698.5 298 L 714.5 305 L 732 320.5 Q 742.2 332.8 747 350.5 L 749 361.5 L 749 378.5 L 745 394.5 Q 739.1 408.1 729 417.5 L 728 426.5 L 737 439.5 L 743 454.5 L 746 468.5 L 747 489.5 L 746 490.5 L 745 505.5 L 741 519.5 L 737 527.5 Q 730.2 531.7 727 539.5 L 727 548.5 L 738 571.5 L 742 589.5 L 743 609.5 L 742 610.5 L 741 621.5 L 736.5 630 L 463.5 630 L 462 628.5 L 458 616.5 L 457 597.5 L 462 571.5 L 468 556.5 L 473 548.5 L 473 539.5 Q 469.8 531.7 463 527.5 L 459 519.5 L 454 499.5 L 453 479.5 L 454 478.5 L 454 468.5 L 457 454.5 Q 460.9 438.9 471 429.5 L 472 420.5 Q 468.9 412.1 462 407.5 L 455 394.5 L 451 378.5 L 451 361.5 L 453 350.5 L 459 334.5 Q 466.4 319.9 478.5 310 Q 492 297.5 516.5 296 L 517.5 297 L 529.5 298 Q 536 296.5 539 291.5 Q 543.9 276.4 555.5 268 L 572.5 257 L 593.5 251 Z M 592 360 L 576 363 L 568 366 L 558 371 L 543 382 L 534 395 L 528 412 L 528 428 L 529 433 Q 533 445 541 454 Q 549 462 561 467 L 572 471 L 584 472 L 585 473 L 615 473 L 616 472 L 624 472 Q 640 469 652 460 Q 667 450 672 429 L 672 412 L 671 407 L 666 395 L 657 382 L 643 371 L 628 364 L 609 360 L 592 360 Z M 509 363 L 500 367 Q 494 372 492 381 Q 491 389 494 393 Q 498 399 507 401 L 514 401 L 520 398 Q 526 394 528 386 Q 530 374 525 370 Q 520 363 509 363 Z M 686 363 L 678 367 L 672 375 L 672 386 L 676 394 Q 680 399 687 401 Q 695 402 700 399 Q 706 395 708 388 Q 709 374 702 369 Q 697 362 686 363 Z " /><path fill="rgb(255,255,255)" stroke="rgb(255,255,255)" stroke-width="1" opacity="1" d="M 589.5 379 L 610.5 379 L 615.5 380 Q 634.1 384.9 645 397.5 Q 653.6 405.9 654 422.5 Q 651.5 437 641.5 444 Q 632.1 451.6 617.5 454 L 582.5 454 Q 563.2 450.8 553 438.5 L 547 427.5 L 546 416.5 Q 549.9 399.9 561.5 391 Q 572.7 382.2 589.5 379 Z M 588 402 L 583 408 L 584 414 Q 587 418 592 419 L 592 426 L 591 427 L 592 434 Q 594 437 599 437 L 601 437 Q 606 437 608 433 L 607 419 L 611 418 L 616 412 L 616 407 L 612 402 Q 603 401 601 405 L 595 402 L 588 402 Z " /><path fill="rgb(50,50,50)" stroke="rgb(50,50,50)" stroke-width="1" opacity="1" d="M 521.5 171 L 522.5 173 L 521.5 171 Z " /><path fill="rgb(50,50,50)" stroke="rgb(50,50,50)" stroke-width="1" opacity="1" d="M 678.5 171 L 677.5 173 L 678.5 171 Z " /><path fill="rgb(50,50,50)" stroke="rgb(50,50,50)" stroke-width="1" opacity="1" d="M 485.5 173 L 481.5 178 L 485.5 173 Z " /><path fill="rgb(50,50,50)" stroke="rgb(50,50,50)" stroke-width="1" opacity="1" d="M 714.5 173 L 718.5 178 L 714.5 173 Z " /><path fill="rgb(50,50,50)" stroke="rgb(50,50,50)" stroke-width="1" opacity="1" d="M 529.5 179 L 530.5 181 L 529.5 179 Z " /><path fill="rgb(50,50,50)" stroke="rgb(50,50,50)" stroke-width="1" opacity="1" d="M 670.5 179 L 669.5 181 L 670.5 179 Z " /><path fill="rgb(50,50,50)" stroke="rgb(50,50,50)" stroke-width="1" opacity="1" d="M 479.5 180 L 478.5 182 L 479.5 180 Z " /><path fill="rgb(50,50,50)" stroke="rgb(50,50,50)" stroke-width="1" opacity="1" d="M 720.5 180 L 721.5 182 L 720.5 180 Z " /><path fill="rgb(50,50,50)" stroke="rgb(50,50,50)" stroke-width="1" opacity="1" d="M 477.5 183 L 476.5 185 L 477.5 183 Z " /><path fill="rgb(50,50,50)" stroke="rgb(50,50,50)" stroke-width="1" opacity="1" d="M 532.5 183 L 533.5 185 L 532.5 183 Z " /><path fill="rgb(50,50,50)" stroke="rgb(50,50,50)" stroke-width="1" opacity="1" d="M 667.5 183 L 666.5 185 L 667.5 183 Z " /><path fill="rgb(50,50,50)" stroke="rgb(50,50,50)" stroke-width="1" opacity="1" d="M 722.5 183 L 723.5 185 L 722.5 183 Z " /><path fill="rgb(50,50,50)" stroke="rgb(50,50,50)" stroke-width="1" opacity="1" d="M 503.5 192 L 499.5 197 L 503.5 192 Z " /><path fill="rgb(50,50,50)" stroke="rgb(50,50,50)" stroke-width="1" opacity="1" d="M 506.5 192 L 509.5 196 L 506.5 192 Z " /><path fill="rgb(50,50,50)" stroke="rgb(50,50,50)" stroke-width="1" opacity="1" d="M 693.5 192 L 690.5 196 L 693.5 192 Z " /><path fill="rgb(50,50,50)" stroke="rgb(50,50,50)" stroke-width="1" opacity="1" d="M 696.5 192 L 700.5 197 L 696.5 192 Z " /><path fill="rgb(50,50,50)" stroke="rgb(50,50,50)" stroke-width="1" opacity="1" d="M 512.5 200 L 513.5 202 L 512.5 200 Z " /><path fill="rgb(50,50,50)" stroke="rgb(50,50,50)" stroke-width="1" opacity="1" d="M 464.5 219 L 465 221.5 L 464 221.5 L 464.5 219 Z " /><path fill="rgb(50,50,50)" stroke="rgb(50,50,50)" stroke-width="1" opacity="1" d="M 594.5 224 L 606 224.5 L 594.5 225 L 594.5 224 Z " /><path fill="rgb(50,50,50)" stroke="rgb(50,50,50)" stroke-width="1" opacity="1" d="M 652.5 224 L 653 226.5 L 652 226.5 L 652.5 224 Z " /><path fill="rgb(50,50,50)" stroke="rgb(50,50,50)" stroke-width="1" opacity="1" d="M 463.5 225 L 464 228.5 L 463 228.5 L 463.5 225 Z " /><path fill="rgb(50,50,50)" stroke="rgb(50,50,50)" stroke-width="1" opacity="1" d="M 736.5 225 L 737 227.5 L 736 227.5 L 736.5 225 Z " /><path fill="rgb(50,50,50)" stroke="rgb(50,50,50)" stroke-width="1" opacity="1" d="M 489.5 226 L 490 228.5 L 489 228.5 L 489.5 226 Z " /><path fill="rgb(50,50,50)" stroke="rgb(50,50,50)" stroke-width="1" opacity="1" d="M 617.5 226 L 620 226.5 L 617.5 227 L 617.5 226 Z " /><path fill="rgb(50,50,50)" stroke="rgb(50,50,50)" stroke-width="1" opacity="1" d="M 710.5 226 L 711 228.5 L 710 228.5 L 710.5 226 Z " /><path fill="rgb(50,50,50)" stroke="rgb(50,50,50)" stroke-width="1" opacity="1" d="M 548.5 230 L 549 232.5 L 548 232.5 L 548.5 230 Z " /><path fill="rgb(50,50,50)" stroke="rgb(50,50,50)" stroke-width="1" opacity="1" d="M 651.5 230 L 652 232.5 L 651 232.5 L 651.5 230 Z " /><path fill="rgb(50,50,50)" stroke="rgb(50,50,50)" stroke-width="1" opacity="1" d="M 522.5 231 L 523 233.5 L 522 233.5 L 522.5 231 Z " /><path fill="rgb(50,50,50)" stroke="rgb(50,50,50)" stroke-width="1" opacity="1" d="M 677.5 231 L 678 233.5 L 677 233.5 L 677.5 231 Z " /><path fill="rgb(50,50,50)" stroke="rgb(50,50,50)" stroke-width="1" opacity="1" d="M 488.5 234 L 489 238.5 L 488 238.5 L 488.5 234 Z " /><path fill="rgb(50,50,50)" stroke="rgb(50,50,50)" stroke-width="1" opacity="1" d="M 711.5 234 L 712 238.5 L 711 238.5 L 711.5 234 Z " /><path fill="rgb(50,50,50)" stroke="rgb(50,50,50)" stroke-width="1" opacity="1" d="M 462.5 235 L 463 241.5 L 462 241.5 L 462.5 235 Z " /><path fill="rgb(50,50,50)" stroke="rgb(50,50,50)" stroke-width="1" opacity="1" d="M 737.5 235 L 738 241.5 L 737 241.5 L 737.5 235 Z " /><path fill="rgb(50,50,50)" stroke="rgb(50,50,50)" stroke-width="1" opacity="1" d="M 523.5 238 L 524 242.5 L 523 242.5 L 523.5 238 Z " /><path fill="rgb(50,50,50)" stroke="rgb(50,50,50)" stroke-width="1" opacity="1" d="M 551.5 238 L 550.5 240 L 549 239.5 L 551.5 238 Z " /><path fill="rgb(50,50,50)" stroke="rgb(50,50,50)" stroke-width="1" opacity="1" d="M 648.5 238 L 651 239.5 L 649.5 240 L 648.5 238 Z " /><path fill="rgb(50,50,50)" stroke="rgb(50,50,50)" stroke-width="1" opacity="1" d="M 676.5 238 L 677 242.5 L 676 242.5 L 676.5 238 Z " /><path fill="rgb(50,50,50)" stroke="rgb(50,50,50)" stroke-width="1" opacity="1" d="M 594.5 250 L 606 250.5 L 594.5 251 L 594.5 250 Z " /><path fill="rgb(50,50,50)" stroke="rgb(50,50,50)" stroke-width="1" opacity="1" d="M 587.5 251 L 590 251.5 L 587.5 252 L 587.5 251 Z " /><path fill="rgb(50,50,50)" stroke="rgb(50,50,50)" stroke-width="1" opacity="1" d="M 524.5 252 L 525 259.5 L 524 259.5 L 524.5 252 Z " /><path fill="rgb(50,50,50)" stroke="rgb(50,50,50)" stroke-width="1" opacity="1" d="M 675.5 252 L 676 259.5 L 675 259.5 L 675.5 252 Z " /><path fill="rgb(50,50,50)" stroke="rgb(50,50,50)" stroke-width="1" opacity="1" d="M 462.5 256 L 463 263.5 L 462 263.5 L 462.5 256 Z " /><path fill="rgb(50,50,50)" stroke="rgb(50,50,50)" stroke-width="1" opacity="1" d="M 737.5 256 L 738 262.5 L 737 262.5 L 737.5 256 Z " /><path fill="rgb(50,50,50)" stroke="rgb(50,50,50)" stroke-width="1" opacity="1" d="M 488.5 260 L 489 264.5 L 488 264.5 L 488.5 260 Z " /><path fill="rgb(50,50,50)" stroke="rgb(50,50,50)" stroke-width="1" opacity="1" d="M 711.5 260 L 712 264.5 L 711 264.5 L 711.5 260 Z " /><path fill="rgb(50,50,50)" stroke="rgb(50,50,50)" stroke-width="1" opacity="1" d="M 563.5 261 L 562.5 263 L 563.5 261 Z " /><path fill="rgb(50,50,50)" stroke="rgb(50,50,50)" stroke-width="1" opacity="1" d="M 636.5 261 L 637.5 263 L 636.5 261 Z " /><path fill="rgb(50,50,50)" stroke="rgb(50,50,50)" stroke-width="1" opacity="1" d="M 560.5 263 L 559.5 265 L 560.5 263 Z " /><path fill="rgb(50,50,50)" stroke="rgb(50,50,50)" stroke-width="1" opacity="1" d="M 522.5 265 L 521.5 267 L 522.5 265 Z " /><path fill="rgb(50,50,50)" stroke="rgb(50,50,50)" stroke-width="1" opacity="1" d="M 677.5 265 L 678.5 267 L 677.5 265 Z " /><path fill="rgb(50,50,50)" stroke="rgb(50,50,50)" stroke-width="1" opacity="1" d="M 556.5 266 L 552.5 271 L 556.5 266 Z " /><path fill="rgb(50,50,50)" stroke="rgb(50,50,50)" stroke-width="1" opacity="1" d="M 643.5 266 L 647.5 271 L 643.5 266 Z " /><path fill="rgb(50,50,50)" stroke="rgb(50,50,50)" stroke-width="1" opacity="1" d="M 489.5 269 L 490 272.5 L 489 272.5 L 489.5 269 Z " /><path fill="rgb(50,50,50)" stroke="rgb(50,50,50)" stroke-width="1" opacity="1" d="M 710.5 269 L 711 272.5 L 710 272.5 L 710.5 269 Z " /><path fill="rgb(50,50,50)" stroke="rgb(50,50,50)" stroke-width="1" opacity="1" d="M 463.5 270 L 464 272.5 L 463 272.5 L 463.5 270 Z " /><path fill="rgb(50,50,50)" stroke="rgb(50,50,50)" stroke-width="1" opacity="1" d="M 505.5 270 L 511 270.5 L 505.5 271 L 505.5 270 Z " /><path fill="rgb(50,50,50)" stroke="rgb(50,50,50)" stroke-width="1" opacity="1" d="M 689.5 270 L 695 270.5 L 689.5 271 L 689.5 270 Z " /><path fill="rgb(50,50,50)" stroke="rgb(50,50,50)" stroke-width="1" opacity="1" d="M 736.5 270 L 737 272.5 L 736 272.5 L 736.5 270 Z " /><path fill="rgb(50,50,50)" stroke="rgb(50,50,50)" stroke-width="1" opacity="1" d="M 548.5 274 L 546.5 277 L 548.5 274 Z " /><path fill="rgb(50,50,50)" stroke="rgb(50,50,50)" stroke-width="1" opacity="1" d="M 651.5 274 L 653.5 277 L 651.5 274 Z " /><path fill="rgb(50,50,50)" stroke="rgb(50,50,50)" stroke-width="1" opacity="1" d="M 544.5 279 L 543.5 281 L 544.5 279 Z " /><path fill="rgb(50,50,50)" stroke="rgb(50,50,50)" stroke-width="1" opacity="1" d="M 655.5 279 L 656.5 281 L 655.5 279 Z " /><path fill="rgb(50,50,50)" stroke="rgb(50,50,50)" stroke-width="1" opacity="1" d="M 542.5 282 L 541.5 284 L 542.5 282 Z " /><path fill="rgb(50,50,50)" stroke="rgb(50,50,50)" stroke-width="1" opacity="1" d="M 657.5 282 L 658.5 284 L 657.5 282 Z " /><path fill="rgb(50,50,50)" stroke="rgb(50,50,50)" stroke-width="1" opacity="1" d="M 464.5 287 L 463.5 289 L 464.5 287 Z " /><path fill="rgb(50,50,50)" stroke="rgb(50,50,50)" stroke-width="1" opacity="1" d="M 735.5 287 L 736.5 289 L 735.5 287 Z " /><path fill="rgb(50,50,50)" stroke="rgb(50,50,50)" stroke-width="1" opacity="1" d="M 459.5 291 L 449.5 302 L 459.5 291 Z " /><path fill="rgb(50,50,50)" stroke="rgb(50,50,50)" stroke-width="1" opacity="1" d="M 740.5 291 L 749.5 301 L 740.5 291 Z " /><path fill="rgb(50,50,50)" stroke="rgb(50,50,50)" stroke-width="1" opacity="1" d="M 506.5 296 L 509 296.5 L 506.5 297 L 506.5 296 Z " /><path fill="rgb(50,50,50)" stroke="rgb(50,50,50)" stroke-width="1" opacity="1" d="M 691.5 296 L 694 296.5 L 691.5 297 L 691.5 296 Z " /><path fill="rgb(50,50,50)" stroke="rgb(50,50,50)" stroke-width="1" opacity="1" d="M 447.5 304 L 446.5 306 L 447.5 304 Z " /><path fill="rgb(50,50,50)" stroke="rgb(50,50,50)" stroke-width="1" opacity="1" d="M 485.5 304 L 484.5 306 L 485.5 304 Z " /><path fill="rgb(50,50,50)" stroke="rgb(50,50,50)" stroke-width="1" opacity="1" d="M 714.5 304 L 715.5 306 L 714.5 304 Z " /><path fill="rgb(50,50,50)" stroke="rgb(50,50,50)" stroke-width="1" opacity="1" d="M 752.5 304 L 753.5 306 L 752.5 304 Z " /><path fill="rgb(50,50,50)" stroke="rgb(50,50,50)" stroke-width="1" opacity="1" d="M 482.5 306 L 481.5 308 L 482.5 306 Z " /><path fill="rgb(50,50,50)" stroke="rgb(50,50,50)" stroke-width="1" opacity="1" d="M 717.5 306 L 718.5 308 L 717.5 306 Z " /><path fill="rgb(50,50,50)" stroke="rgb(50,50,50)" stroke-width="1" opacity="1" d="M 444.5 308 L 443.5 310 L 444.5 308 Z " /><path fill="rgb(50,50,50)" stroke="rgb(50,50,50)" stroke-width="1" opacity="1" d="M 755.5 308 L 756.5 310 L 755.5 308 Z " /><path fill="rgb(50,50,50)" stroke="rgb(50,50,50)" stroke-width="1" opacity="1" d="M 478.5 309 L 475.5 313 L 478.5 309 Z " /><path fill="rgb(50,50,50)" stroke="rgb(50,50,50)" stroke-width="1" opacity="1" d="M 721.5 309 L 724.5 313 L 721.5 309 Z " /><path fill="rgb(50,50,50)" stroke="rgb(50,50,50)" stroke-width="1" opacity="1" d="M 440.5 314 L 439.5 316 L 440.5 314 Z " /><path fill="rgb(50,50,50)" stroke="rgb(50,50,50)" stroke-width="1" opacity="1" d="M 759.5 314 L 760.5 316 L 759.5 314 Z " /><path fill="rgb(50,50,50)" stroke="rgb(50,50,50)" stroke-width="1" opacity="1" d="M 470.5 317 L 467.5 321 L 470.5 317 Z " /><path fill="rgb(50,50,50)" stroke="rgb(50,50,50)" stroke-width="1" opacity="1" d="M 729.5 317 L 732.5 321 L 729.5 317 Z " /><path fill="rgb(50,50,50)" stroke="rgb(50,50,50)" stroke-width="1" opacity="1" d="M 437.5 319 L 436.5 321 L 437.5 319 Z " /><path fill="rgb(50,50,50)" stroke="rgb(50,50,50)" stroke-width="1" opacity="1" d="M 762.5 319 L 763.5 321 L 762.5 319 Z " /><path fill="rgb(50,50,50)" stroke="rgb(50,50,50)" stroke-width="1" opacity="1" d="M 465.5 323 L 464.5 325 L 465.5 323 Z " /><path fill="rgb(50,50,50)" stroke="rgb(50,50,50)" stroke-width="1" opacity="1" d="M 463.5 326 L 462.5 328 L 463.5 326 Z " /><path fill="rgb(50,50,50)" stroke="rgb(50,50,50)" stroke-width="1" opacity="1" d="M 736.5 326 L 737.5 328 L 736.5 326 Z " /><path fill="rgb(50,50,50)" stroke="rgb(50,50,50)" stroke-width="1" opacity="1" d="M 425.5 353 L 426 355.5 L 425 355.5 L 425.5 353 Z " /><path fill="rgb(50,50,50)" stroke="rgb(50,50,50)" stroke-width="1" opacity="1" d="M 586.5 361 L 589 361.5 L 586.5 362 L 586.5 361 Z " /><path fill="rgb(50,50,50)" stroke="rgb(50,50,50)" stroke-width="1" opacity="1" d="M 611.5 361 L 614 361.5 L 611.5 362 L 611.5 361 Z " /><path fill="rgb(50,50,50)" stroke="rgb(50,50,50)" stroke-width="1" opacity="1" d="M 749.5 361 L 750 365.5 L 749 365.5 L 749.5 361 Z " /><path fill="rgb(50,50,50)" stroke="rgb(50,50,50)" stroke-width="1" opacity="1" d="M 450.5 362 L 451 365.5 L 450 365.5 L 450.5 362 Z " /><path fill="rgb(50,50,50)" stroke="rgb(50,50,50)" stroke-width="1" opacity="1" d="M 424.5 363 L 425 375.5 L 424 375.5 L 424.5 363 Z " /><path fill="rgb(50,50,50)" stroke="rgb(50,50,50)" stroke-width="1" opacity="1" d="M 775.5 364 L 776 375.5 L 775 375.5 L 775.5 364 Z " /><path fill="rgb(50,50,50)" stroke="rgb(50,50,50)" stroke-width="1" opacity="1" d="M 520.5 366 L 521.5 368 L 520.5 366 Z " /><path fill="rgb(50,50,50)" stroke="rgb(50,50,50)" stroke-width="1" opacity="1" d="M 679.5 366 L 678.5 368 L 679.5 366 Z " /><path fill="rgb(50,50,50)" stroke="rgb(50,50,50)" stroke-width="1" opacity="1" d="M 699.5 367 L 703.5 372 L 699.5 367 Z " /><path fill="rgb(50,50,50)" stroke="rgb(50,50,50)" stroke-width="1" opacity="1" d="M 498.5 369 L 496.5 372 L 498.5 369 Z " /><path fill="rgb(50,50,50)" stroke="rgb(50,50,50)" stroke-width="1" opacity="1" d="M 556.5 372 L 555.5 374 L 556.5 372 Z " /><path fill="rgb(50,50,50)" stroke="rgb(50,50,50)" stroke-width="1" opacity="1" d="M 643.5 372 L 644.5 374 L 643.5 372 Z " /><path fill="rgb(50,50,50)" stroke="rgb(50,50,50)" stroke-width="1" opacity="1" d="M 450.5 373 L 451 377.5 L 450 377.5 L 450.5 373 Z " /><path fill="rgb(50,50,50)" stroke="rgb(50,50,50)" stroke-width="1" opacity="1" d="M 749.5 373 L 750 377.5 L 749 377.5 L 749.5 373 Z " /><path fill="rgb(50,50,50)" stroke="rgb(50,50,50)" stroke-width="1" opacity="1" d="M 552.5 375 L 551.5 377 L 552.5 375 Z " /><path fill="rgb(50,50,50)" stroke="rgb(50,50,50)" stroke-width="1" opacity="1" d="M 647.5 375 L 648.5 377 L 647.5 375 Z " /><path fill="rgb(50,50,50)" stroke="rgb(50,50,50)" stroke-width="1" opacity="1" d="M 548.5 378 L 540.5 387 L 548.5 378 Z " /><path fill="rgb(50,50,50)" stroke="rgb(50,50,50)" stroke-width="1" opacity="1" d="M 590.5 378 L 593 378.5 L 590.5 379 L 590.5 378 Z " /><path fill="rgb(50,50,50)" stroke="rgb(50,50,50)" stroke-width="1" opacity="1" d="M 606.5 378 L 610 378.5 L 606.5 379 L 606.5 378 Z " /><path fill="rgb(50,50,50)" stroke="rgb(50,50,50)" stroke-width="1" opacity="1" d="M 651.5 378 L 659.5 387 L 651.5 378 Z " /><path fill="rgb(50,50,50)" stroke="rgb(50,50,50)" stroke-width="1" opacity="1" d="M 492.5 382 L 493 385.5 L 492 385.5 L 492.5 382 Z " /><path fill="rgb(50,50,50)" stroke="rgb(50,50,50)" stroke-width="1" opacity="1" d="M 707.5 382 L 708 385.5 L 707 385.5 L 707.5 382 Z " /><path fill="rgb(50,50,50)" stroke="rgb(50,50,50)" stroke-width="1" opacity="1" d="M 425.5 383 L 426 385.5 L 425 385.5 L 425.5 383 Z " /><path fill="rgb(50,50,50)" stroke="rgb(50,50,50)" stroke-width="1" opacity="1" d="M 774.5 383 L 775 385.5 L 774 385.5 L 774.5 383 Z " /><path fill="rgb(50,50,50)" stroke="rgb(50,50,50)" stroke-width="1" opacity="1" d="M 632.5 386 L 633.5 388 L 632.5 386 Z " /><path fill="rgb(50,50,50)" stroke="rgb(50,50,50)" stroke-width="1" opacity="1" d="M 561.5 390 L 553.5 399 L 561.5 390 Z " /><path fill="rgb(50,50,50)" stroke="rgb(50,50,50)" stroke-width="1" opacity="1" d="M 638.5 390 L 646.5 399 L 638.5 390 Z " /><path fill="rgb(50,50,50)" stroke="rgb(50,50,50)" stroke-width="1" opacity="1" d="M 524.5 391 L 522.5 394 L 524.5 391 Z " /><path fill="rgb(50,50,50)" stroke="rgb(50,50,50)" stroke-width="1" opacity="1" d="M 675.5 391 L 677.5 394 L 675.5 391 Z " /><path fill="rgb(50,50,50)" stroke="rgb(50,50,50)" stroke-width="1" opacity="1" d="M 536.5 392 L 535.5 394 L 536.5 392 Z " /><path fill="rgb(50,50,50)" stroke="rgb(50,50,50)" stroke-width="1" opacity="1" d="M 663.5 392 L 664.5 394 L 663.5 392 Z " /><path fill="rgb(50,50,50)" stroke="rgb(50,50,50)" stroke-width="1" opacity="1" d="M 495.5 393 L 499.5 398 L 495.5 393 Z " /><path fill="rgb(50,50,50)" stroke="rgb(50,50,50)" stroke-width="1" opacity="1" d="M 704.5 393 L 700.5 398 L 704.5 393 Z " /><path fill="rgb(50,50,50)" stroke="rgb(50,50,50)" stroke-width="1" opacity="1" d="M 589.5 402 L 593 402.5 L 589.5 403 L 589.5 402 Z " /><path fill="rgb(50,50,50)" stroke="rgb(50,50,50)" stroke-width="1" opacity="1" d="M 606.5 402 L 611 402.5 L 606.5 403 L 606.5 402 Z " /><path fill="rgb(50,50,50)" stroke="rgb(50,50,50)" stroke-width="1" opacity="1" d="M 612.5 403 L 614.5 406 L 612.5 403 Z " /><path fill="rgb(50,50,50)" stroke="rgb(50,50,50)" stroke-width="1" opacity="1" d="M 597.5 404 L 598.5 406 L 597.5 404 Z " /><path fill="rgb(50,50,50)" stroke="rgb(50,50,50)" stroke-width="1" opacity="1" d="M 462.5 408 L 463.5 410 L 462.5 408 Z " /><path fill="rgb(50,50,50)" stroke="rgb(50,50,50)" stroke-width="1" opacity="1" d="M 615.5 408 L 616 410.5 L 615 410.5 L 615.5 408 Z " /><path fill="rgb(50,50,50)" stroke="rgb(50,50,50)" stroke-width="1" opacity="1" d="M 737.5 408 L 736.5 410 L 737.5 408 Z " /><path fill="rgb(50,50,50)" stroke="rgb(50,50,50)" stroke-width="1" opacity="1" d="M 528.5 413 L 529 425.5 L 528 425.5 L 528.5 413 Z " /><path fill="rgb(50,50,50)" stroke="rgb(50,50,50)" stroke-width="1" opacity="1" d="M 671.5 413 L 672 425.5 L 671 425.5 L 671.5 413 Z " /><path fill="rgb(50,50,50)" stroke="rgb(50,50,50)" stroke-width="1" opacity="1" d="M 467.5 414 L 468.5 416 L 467.5 414 Z " /><path fill="rgb(50,50,50)" stroke="rgb(50,50,50)" stroke-width="1" opacity="1" d="M 613.5 414 L 612.5 416 L 613.5 414 Z " /><path fill="rgb(50,50,50)" stroke="rgb(50,50,50)" stroke-width="1" opacity="1" d="M 732.5 414 L 731.5 416 L 732.5 414 Z " /><path fill="rgb(50,50,50)" stroke="rgb(50,50,50)" stroke-width="1" opacity="1" d="M 436.5 416 L 437.5 418 L 436.5 416 Z " /><path fill="rgb(50,50,50)" stroke="rgb(50,50,50)" stroke-width="1" opacity="1" d="M 763.5 416 L 762.5 418 L 763.5 416 Z " /><path fill="rgb(50,50,50)" stroke="rgb(50,50,50)" stroke-width="1" opacity="1" d="M 545.5 418 L 546 420.5 L 545 420.5 L 545.5 418 Z " /><path fill="rgb(50,50,50)" stroke="rgb(50,50,50)" stroke-width="1" opacity="1" d="M 654.5 418 L 655 420.5 L 654 420.5 L 654.5 418 Z " /><path fill="rgb(50,50,50)" stroke="rgb(50,50,50)" stroke-width="1" opacity="1" d="M 438.5 419 L 439.5 421 L 438.5 419 Z " /><path fill="rgb(50,50,50)" stroke="rgb(50,50,50)" stroke-width="1" opacity="1" d="M 440.5 422 L 442 424.5 L 441 424.5 L 440.5 422 Z " /><path fill="rgb(50,50,50)" stroke="rgb(50,50,50)" stroke-width="1" opacity="1" d="M 606.5 422 L 607 424.5 L 606 424.5 L 606.5 422 Z " /><path fill="rgb(50,50,50)" stroke="rgb(50,50,50)" stroke-width="1" opacity="1" d="M 759.5 422 L 759 423.5 L 758.5 425 L 758 423.5 L 759.5 422 Z " /><path fill="rgb(50,50,50)" stroke="rgb(50,50,50)" stroke-width="1" opacity="1" d="M 440.5 426 L 439.5 428 L 440.5 426 Z " /><path fill="rgb(50,50,50)" stroke="rgb(50,50,50)" stroke-width="1" opacity="1" d="M 759.5 426 L 760.5 428 L 759.5 426 Z " /><path fill="rgb(50,50,50)" stroke="rgb(50,50,50)" stroke-width="1" opacity="1" d="M 607.5 427 L 608 430.5 L 607 430.5 L 607.5 427 Z " /><path fill="rgb(50,50,50)" stroke="rgb(50,50,50)" stroke-width="1" opacity="1" d="M 465.5 435 L 464.5 437 L 465.5 435 Z " /><path fill="rgb(50,50,50)" stroke="rgb(50,50,50)" stroke-width="1" opacity="1" d="M 734.5 435 L 735.5 437 L 734.5 435 Z " /><path fill="rgb(50,50,50)" stroke="rgb(50,50,50)" stroke-width="1" opacity="1" d="M 551.5 437 L 558.5 445 L 551.5 437 Z " /><path fill="rgb(50,50,50)" stroke="rgb(50,50,50)" stroke-width="1" opacity="1" d="M 648.5 437 L 641.5 445 L 648.5 437 Z " /><path fill="rgb(50,50,50)" stroke="rgb(50,50,50)" stroke-width="1" opacity="1" d="M 463.5 438 L 462.5 440 L 463.5 438 Z " /><path fill="rgb(50,50,50)" stroke="rgb(50,50,50)" stroke-width="1" opacity="1" d="M 736.5 438 L 737.5 440 L 736.5 438 Z " /><path fill="rgb(50,50,50)" stroke="rgb(50,50,50)" stroke-width="1" opacity="1" d="M 536.5 446 L 537.5 448 L 536.5 446 Z " /><path fill="rgb(50,50,50)" stroke="rgb(50,50,50)" stroke-width="1" opacity="1" d="M 663.5 446 L 662.5 448 L 663.5 446 Z " /><path fill="rgb(50,50,50)" stroke="rgb(50,50,50)" stroke-width="1" opacity="1" d="M 539.5 450 L 546.5 458 L 539.5 450 Z " /><path fill="rgb(50,50,50)" stroke="rgb(50,50,50)" stroke-width="1" opacity="1" d="M 659.5 451 L 653.5 458 L 659.5 451 Z " /><path fill="rgb(50,50,50)" stroke="rgb(50,50,50)" stroke-width="1" opacity="1" d="M 583.5 454 L 587 454.5 L 583.5 455 L 583.5 454 Z " /><path fill="rgb(50,50,50)" stroke="rgb(50,50,50)" stroke-width="1" opacity="1" d="M 613.5 454 L 617 454.5 L 613.5 455 L 613.5 454 Z " /><path fill="rgb(50,50,50)" stroke="rgb(50,50,50)" stroke-width="1" opacity="1" d="M 429.5 456 L 430 458.5 L 429 458.5 L 429.5 456 Z " /><path fill="rgb(50,50,50)" stroke="rgb(50,50,50)" stroke-width="1" opacity="1" d="M 770.5 456 L 771 458.5 L 770 458.5 L 770.5 456 Z " /><path fill="rgb(50,50,50)" stroke="rgb(50,50,50)" stroke-width="1" opacity="1" d="M 549.5 459 L 550.5 461 L 549.5 459 Z " /><path fill="rgb(50,50,50)" stroke="rgb(50,50,50)" stroke-width="1" opacity="1" d="M 650.5 459 L 649.5 461 L 650.5 459 Z " /><path fill="rgb(50,50,50)" stroke="rgb(50,50,50)" stroke-width="1" opacity="1" d="M 428.5 462 L 429 464.5 L 428 464.5 L 428.5 462 Z " /><path fill="rgb(50,50,50)" stroke="rgb(50,50,50)" stroke-width="1" opacity="1" d="M 771.5 462 L 772 464.5 L 771 464.5 L 771.5 462 Z " /><path fill="rgb(50,50,50)" stroke="rgb(50,50,50)" stroke-width="1" opacity="1" d="M 454.5 463 L 455 465.5 L 454 465.5 L 454.5 463 Z " /><path fill="rgb(50,50,50)" stroke="rgb(50,50,50)" stroke-width="1" opacity="1" d="M 745.5 463 L 746 465.5 L 745 465.5 L 745.5 463 Z " /><path fill="rgb(50,50,50)" stroke="rgb(50,50,50)" stroke-width="1" opacity="1" d="M 427.5 470 L 428 476.5 L 427 476.5 L 427.5 470 Z " /><path fill="rgb(50,50,50)" stroke="rgb(50,50,50)" stroke-width="1" opacity="1" d="M 453.5 470 L 454 473.5 L 453 473.5 L 453.5 470 Z " /><path fill="rgb(50,50,50)" stroke="rgb(50,50,50)" stroke-width="1" opacity="1" d="M 746.5 470 L 747 473.5 L 746 473.5 L 746.5 470 Z " /><path fill="rgb(50,50,50)" stroke="rgb(50,50,50)" stroke-width="1" opacity="1" d="M 772.5 470 L 773 476.5 L 772 476.5 L 772.5 470 Z " /><path fill="rgb(50,50,50)" stroke="rgb(50,50,50)" stroke-width="1" opacity="1" d="M 579.5 471 L 582 471.5 L 579.5 472 L 579.5 471 Z " /><path fill="rgb(50,50,50)" stroke="rgb(50,50,50)" stroke-width="1" opacity="1" d="M 618.5 471 L 621 471.5 L 618.5 472 L 618.5 471 Z " /><path fill="rgb(50,50,50)" stroke="rgb(50,50,50)" stroke-width="1" opacity="1" d="M 427.5 492 L 428 497.5 L 427 497.5 L 427.5 492 Z " /><path fill="rgb(50,50,50)" stroke="rgb(50,50,50)" stroke-width="1" opacity="1" d="M 772.5 492 L 773 497.5 L 772 497.5 L 772.5 492 Z " /><path fill="rgb(50,50,50)" stroke="rgb(50,50,50)" stroke-width="1" opacity="1" d="M 453.5 495 L 454 497.5 L 453 497.5 L 453.5 495 Z " /><path fill="rgb(50,50,50)" stroke="rgb(50,50,50)" stroke-width="1" opacity="1" d="M 746.5 495 L 747 497.5 L 746 497.5 L 746.5 495 Z " /><path fill="rgb(50,50,50)" stroke="rgb(50,50,50)" stroke-width="1" opacity="1" d="M 454.5 502 L 455 504.5 L 454 504.5 L 454.5 502 Z " /><path fill="rgb(50,50,50)" stroke="rgb(50,50,50)" stroke-width="1" opacity="1" d="M 745.5 502 L 746 504.5 L 745 504.5 L 745.5 502 Z " /><path fill="rgb(50,50,50)" stroke="rgb(50,50,50)" stroke-width="1" opacity="1" d="M 428.5 503 L 429 505.5 L 428 505.5 L 428.5 503 Z " /><path fill="rgb(50,50,50)" stroke="rgb(50,50,50)" stroke-width="1" opacity="1" d="M 771.5 503 L 772 505.5 L 771 505.5 L 771.5 503 Z " /><path fill="rgb(50,50,50)" stroke="rgb(50,50,50)" stroke-width="1" opacity="1" d="M 429.5 509 L 430 511.5 L 429 511.5 L 429.5 509 Z " /><path fill="rgb(50,50,50)" stroke="rgb(50,50,50)" stroke-width="1" opacity="1" d="M 770.5 509 L 771 511.5 L 770 511.5 L 770.5 509 Z " /><path fill="rgb(50,50,50)" stroke="rgb(50,50,50)" stroke-width="1" opacity="1" d="M 462.5 527 L 463.5 529 L 462.5 527 Z " /><path fill="rgb(50,50,50)" stroke="rgb(50,50,50)" stroke-width="1" opacity="1" d="M 737.5 527 L 736.5 529 L 737.5 527 Z " /><path fill="rgb(50,50,50)" stroke="rgb(50,50,50)" stroke-width="1" opacity="1" d="M 465.5 531 L 467.5 534 L 465.5 531 Z " /><path fill="rgb(50,50,50)" stroke="rgb(50,50,50)" stroke-width="1" opacity="1" d="M 734.5 531 L 732.5 534 L 734.5 531 Z " /><path fill="rgb(50,50,50)" stroke="rgb(50,50,50)" stroke-width="1" opacity="1" d="M 439.5 539 L 440.5 541 L 439.5 539 Z " /><path fill="rgb(50,50,50)" stroke="rgb(50,50,50)" stroke-width="1" opacity="1" d="M 760.5 539 L 759.5 541 L 760.5 539 Z " /><path fill="rgb(50,50,50)" stroke="rgb(50,50,50)" stroke-width="1" opacity="1" d="M 727.5 540 L 728 542.5 L 727 542.5 L 727.5 540 Z " /><path fill="rgb(50,50,50)" stroke="rgb(50,50,50)" stroke-width="1" opacity="1" d="M 472.5 545 L 473 547.5 L 472 547.5 L 472.5 545 Z " /><path fill="rgb(50,50,50)" stroke="rgb(50,50,50)" stroke-width="1" opacity="1" d="M 431.5 589 L 432 592.5 L 431 592.5 L 431.5 589 Z " /><path fill="rgb(50,50,50)" stroke="rgb(50,50,50)" stroke-width="1" opacity="1" d="M 457.5 590 L 458 592.5 L 457 592.5 L 457.5 590 Z " /><path fill="rgb(50,50,50)" stroke="rgb(50,50,50)" stroke-width="1" opacity="1" d="M 742.5 590 L 743 592.5 L 742 592.5 L 742.5 590 Z " /><path fill="rgb(50,50,50)" stroke="rgb(50,50,50)" stroke-width="1" opacity="1" d="M 768.5 590 L 769 592.5 L 768 592.5 L 768.5 590 Z " /><path fill="rgb(50,50,50)" stroke="rgb(50,50,50)" stroke-width="1" opacity="1" d="M 743.5 598 L 744 608.5 L 743 608.5 L 743.5 598 Z " /><path fill="rgb(50,50,50)" stroke="rgb(50,50,50)" stroke-width="1" opacity="1" d="M 456.5 599 L 457 608.5 L 456 608.5 L 456.5 599 Z " /><path fill="rgb(50,50,50)" stroke="rgb(50,50,50)" stroke-width="1" opacity="1" d="M 457.5 614 L 458 616.5 L 457 616.5 L 457.5 614 Z " /><path fill="rgb(50,50,50)" stroke="rgb(50,50,50)" stroke-width="1" opacity="1" d="M 742.5 614 L 743 616.5 L 742 616.5 L 742.5 614 Z " /><path fill="rgb(50,50,50)" stroke="rgb(50,50,50)" stroke-width="1" opacity="1" d="M 768.5 614 L 769 617.5 L 768 617.5 L 768.5 614 Z " /><path fill="rgb(50,50,50)" stroke="rgb(50,50,50)" stroke-width="1" opacity="1" d="M 431.5 615 L 432 617.5 L 431 617.5 L 431.5 615 Z " /><path fill="rgb(0,0,0)" stroke="rgb(0,0,0)" stroke-width="1" opacity="1" d="M 500.5 166 Q 510.1 164.9 515.5 168 L 529 178.5 Q 538.2 189.8 543 205.5 L 548 226.5 L 549 240 L 561.5 233 L 582.5 226 Q 587.3 227.3 588.5 225 L 611.5 225 Q 635 229.2 651 240 L 653 221.5 L 658 202.5 Q 664 184.5 676.5 173 L 690.5 166 L 699.5 166 Q 713.3 169.3 720 179.5 Q 729.8 192.7 734 211.5 L 737 228.5 L 738 255.5 L 737 256.5 L 737 269.5 L 734 286.5 L 752 303.5 L 764 321.5 L 771 338.5 L 775 356.5 L 775 382.5 L 769 405.5 L 758 424.5 L 763 432.5 L 769 449.5 L 772 465.5 L 773 491.5 L 772 492.5 L 772 502.5 L 769 518.5 L 764 532.5 L 756 547.5 L 760 555.5 L 767 579.5 L 768 592.5 L 769 593.5 L 769 613.5 L 766 630 L 738 629.5 L 743 616.5 L 744 598.5 L 739 572.5 Q 735 559 728 548.5 L 727 543.5 L 731.5 534 L 735 531.5 L 741 521.5 L 746 504.5 Q 744.5 499 747 497.5 L 747 470.5 L 742 448.5 Q 738.1 436.9 730 429.5 L 729 420.5 L 742 402.5 L 747 391.5 L 750 377.5 L 750 361.5 L 747 347.5 L 742 334.5 Q 734.3 319.3 721.5 309 Q 713.1 301.9 701.5 298 L 693.5 296 L 677.5 296 Q 676 298.5 670.5 297 Q 664.8 295.8 662 291.5 Q 656.5 275 643.5 266 Q 632.2 256.8 616.5 252 L 605.5 250 L 594.5 250 L 583.5 252 L 570.5 257 Q 555.9 264.4 546 276.5 Q 540.3 282.3 538 291.5 L 534.5 295 Q 531.2 298.2 523.5 297 L 522.5 296 L 506.5 296 Q 480.5 302 467 320.5 Q 457.7 331.7 453 347.5 L 450 362.5 L 450 377.5 L 455 396.5 Q 460.7 408.8 470 417.5 L 471 426.5 L 462 439.5 L 456 454.5 L 453 470.5 L 453 497.5 L 457 516.5 L 462 527.5 L 467.5 534 L 470 535.5 L 473 544.5 L 461 572.5 L 457 590.5 L 456 608.5 L 457 609.5 L 458 620.5 L 462 629.5 L 434 630 L 431 614.5 L 431 593.5 L 436 567.5 L 444 545.5 Q 435.1 534.4 431 518.5 L 428 502.5 L 427 477.5 L 428 476.5 L 428 465.5 L 431 449.5 L 436 434.5 L 442 423.5 Q 422.1 401.4 425 356.5 L 429 338.5 L 436 321.5 Q 446.3 302.3 462.5 289 L 466 286.5 L 463 269.5 L 462 242.5 L 463 241.5 L 463 229.5 L 464 228.5 L 465 216.5 L 471 195.5 Q 476.8 180.3 488.5 171 L 500.5 166 Z M 504 192 L 499 197 L 494 207 L 488 235 L 488 265 Q 491 266 489 273 L 491 274 L 502 271 L 520 270 Q 524 266 525 260 L 524 239 L 521 222 Q 518 206 510 196 Q 509 191 504 192 Z M 694 192 L 688 199 L 680 218 L 676 239 L 676 252 L 675 253 Q 674 263 679 269 L 681 270 L 699 271 L 710 274 L 711 273 Q 709 266 712 265 L 712 235 Q 709 233 711 227 L 707 210 L 701 197 L 697 192 L 694 192 Z " /><path fill="rgb(0,0,0)" stroke="rgb(0,0,0)" stroke-width="1" opacity="1" d="M 589.5 361 L 610.5 361 L 630.5 366 Q 649.3 373.7 661 388.5 L 670 406.5 Q 672.8 415.2 671 428.5 Q 666.5 449 651.5 459 Q 640.5 467.5 624.5 471 Q 619 469.5 617.5 472 L 582.5 472 L 571.5 470 L 554.5 463 L 538 448.5 Q 531.8 440.7 529 429.5 L 529 410.5 Q 534.3 388.3 550.5 377 L 569.5 366 L 589.5 361 Z M 591 378 Q 573 381 562 390 Q 548 399 545 419 L 546 427 L 551 438 L 565 449 L 584 455 L 617 455 L 632 451 L 642 445 L 649 438 L 653 430 L 655 421 Q 654 407 647 399 Q 638 388 625 382 L 610 378 L 591 378 Z " /><path fill="rgb(0,0,0)" stroke="rgb(0,0,0)" stroke-width="1" opacity="1" d="M 507.5 364 Q 519.8 362.7 524 369.5 Q 528.2 373.8 528 382.5 Q 525.9 391.9 519.5 397 Q 515.3 401.3 505.5 400 Q 498.3 398.2 495 392.5 Q 491.9 388.1 493 379.5 L 499 368 L 507.5 364 Z " /><path fill="rgb(0,0,0)" stroke="rgb(0,0,0)" stroke-width="1" opacity="1" d="M 685.5 364 Q 699.9 363.1 704 372.5 Q 708.2 377.3 707 387.5 Q 705.2 394.7 699.5 398 Q 695.1 401.1 686.5 400 L 678 394.5 Q 672.4 389.1 672 378.5 Q 673.3 371.8 677.5 368 L 685.5 364 Z " /><path fill="rgb(0,0,0)" stroke="rgb(0,0,0)" stroke-width="1" opacity="1" d="M 587.5 403 L 594.5 403 L 600.5 406 Q 603 401.5 611.5 403 Q 616.2 404.3 615 411.5 L 610.5 417 L 606 419 L 607 432.5 Q 604.7 436.7 597.5 436 L 593 433.5 L 592 425.5 L 593 419 L 585 413.5 L 584 407.5 L 587.5 403 Z " /></svg>