<?xml version="1.0" encoding="UTF-8"?>
<svg version="1.1" xmlns="http://www.w3.org/2000/svg" width="1280" height="1212">
<path d="M0 0 C1.0307666 0.24137695 2.0615332 0.48275391 3.12353516 0.73144531 C18.06973514 4.34801174 32.13167433 9.37462176 46 16 C46.64485352 16.30454102 47.28970703 16.60908203 47.95410156 16.92285156 C61.32766194 23.34534645 73.60397627 31.91085537 86 40 C87.65708984 41.07991211 87.65708984 41.07991211 89.34765625 42.18164062 C94.84564607 45.76658721 100.33883335 49.35878148 105.828125 52.95703125 C118.04432719 60.96421027 130.3024427 68.90703188 142.56860352 76.83740234 C148.90557572 80.93557289 155.23224377 85.04952037 161.55859375 89.1640625 C166.86790805 92.61634391 172.18166054 96.06164046 177.5 99.5 C187.86644966 106.20260378 198.21320566 112.93546659 208.56152344 119.66601562 C217.89016111 125.73301651 227.22207646 131.7947498 236.56713867 137.83642578 C242.05027214 141.38248873 247.52600961 144.93984246 253 148.5 C261.99103982 154.34722938 270.99308549 160.17726208 280 166 C293.20101296 174.53411439 306.38415154 183.09544892 319.56152344 191.66601562 C328.89016111 197.73301651 338.22207646 203.7947498 347.56713867 209.83642578 C353.90456318 213.93497752 360.23175179 218.0492004 366.55859375 222.1640625 C371.86790796 225.61634385 377.18164325 229.06166728 382.5 232.5 C389.5271171 237.04305113 396.54391069 241.60184115 403.55859375 246.1640625 C408.86790796 249.61634385 414.18164325 253.06166728 419.5 256.5 C426.5271171 261.04305113 433.54391069 265.60184115 440.55859375 270.1640625 C445.86790796 273.61634385 451.18164325 277.06166728 456.5 280.5 C463.52796665 285.04360036 470.54622045 289.6020073 477.56079102 294.16625977 C482.16203925 297.15921875 486.76920613 300.1425551 491.38452148 303.11376953 C494.16180801 304.90452319 496.93342109 306.70389207 499.703125 308.50634766 C501.33976399 309.5706501 502.97795431 310.63256858 504.6171875 311.69287109 C524.77734834 324.76056742 524.77734834 324.76056742 533 333 C533.88558594 333.77923828 533.88558594 333.77923828 534.7890625 334.57421875 C550.24439356 348.58281791 559.57932233 371.29389497 561.22541583 391.80938904 C561.59423529 399.46495158 561.53793248 407.12397322 561.50793457 414.78623962 C561.51255047 417.36878531 561.51890799 419.95132837 561.52684355 422.53386599 C561.54119872 428.12152971 561.54090904 433.70903847 561.53065491 439.29670906 C561.51544711 447.60659437 561.52330031 455.91635034 561.53548814 464.22623493 C561.55649752 479.07515636 561.55474636 493.92400873 561.54317249 508.77293665 C561.53308986 521.773488 561.5304929 534.7740141 561.53526306 547.77456856 C561.53572137 549.07069418 561.53572137 549.07069418 561.53618894 550.39300416 C561.53743442 553.901153 561.53870803 557.40930182 561.540028 560.91745063 C561.55225339 593.80236032 561.54118877 626.6872262 561.51964041 659.57212913 C561.50067439 688.7376441 561.50234498 717.90308917 561.52148438 747.06860352 C561.54294579 779.88175117 561.55137105 812.69486008 561.53903532 845.50801378 C561.53775259 849.01237237 561.53650122 852.51673096 561.53526306 856.02108955 C561.53494675 856.88386748 561.53463044 857.7466454 561.53430455 858.63556811 C561.52977081 871.61626261 561.53504581 884.59692896 561.54518127 897.57761955 C561.55666394 912.35682929 561.55366316 927.13595952 561.5320583 941.91515946 C561.52038905 950.16800817 561.51943511 958.42068438 561.534643 966.67352829 C561.54478389 972.86422342 561.53363663 979.05471947 561.5147447 985.24539024 C561.51032432 987.72848979 561.51244014 990.21161279 561.52224785 992.6946969 C561.61120726 1017.11586188 558.84646929 1040.79667733 551 1064 C550.71141113 1064.85754883 550.42282227 1065.71509766 550.12548828 1066.59863281 C532.50453989 1117.88902992 495.74201342 1159.6234274 448 1185 C447.32356445 1185.36287109 446.64712891 1185.72574219 445.95019531 1186.09960938 C417.78289394 1200.95678071 385.64354387 1208.17484454 353.93381977 1208.13142776 C352.52044105 1208.13308015 351.10706278 1208.13516767 349.69368526 1208.13764787 C345.8158451 1208.14318894 341.93802713 1208.14254682 338.06018429 1208.14087028 C333.83881968 1208.14013699 329.61746123 1208.14516725 325.39609927 1208.1494453 C317.02610444 1208.15701394 308.65611599 1208.15921778 300.2861181 1208.15977435 C290.25907268 1208.16068912 280.23203315 1208.16736007 270.20499026 1208.17412117 C245.9701381 1208.19017254 221.73528658 1208.19608364 197.50043005 1208.20086992 C186.03171632 1208.20320691 174.56300309 1208.20680969 163.09428975 1208.2105653 C123.82262255 1208.22340054 84.55095563 1208.23411936 45.27928638 1208.2375679 C42.81452906 1208.23778953 40.34977173 1208.23801132 37.8850144 1208.23823325 C35.41435735 1208.23845389 32.94370031 1208.23867437 30.47304326 1208.2388947 C25.51661543 1208.23933725 20.5601876 1208.23978437 15.60375977 1208.24023438 C14.37485602 1208.24034377 13.14595228 1208.24045316 11.87980903 1208.24056586 C-27.95509853 1208.24419538 -67.78998788 1208.26011161 -107.62488847 1208.28342474 C-149.75707565 1208.30803718 -191.88925243 1208.32174141 -234.021447 1208.32293582 C-238.649255 1208.32310727 -243.27706299 1208.32332269 -247.90487099 1208.32357025 C-249.04433755 1208.32362602 -250.18380412 1208.32368179 -251.35779997 1208.32373925 C-269.67228872 1208.32488851 -287.98675873 1208.33589998 -306.30124116 1208.35045731 C-324.72111667 1208.36484486 -343.14096825 1208.36804656 -361.56084784 1208.36001733 C-372.49393945 1208.3555716 -383.42695364 1208.35937925 -394.36003503 1208.37525584 C-401.67672766 1208.38504539 -408.99336639 1208.38378984 -416.31005859 1208.37381961 C-420.47002235 1208.36845609 -424.62983806 1208.36762426 -428.78978922 1208.38032833 C-488.83969622 1208.55193668 -542.91977496 1192.20033309 -587 1150 C-588.66793748 1148.33460511 -590.33466827 1146.66800053 -592 1145 C-593.09828125 1143.97132813 -593.09828125 1143.97132813 -594.21875 1142.921875 C-599.57221636 1137.82508168 -604.19556406 1132.4224434 -608.6875 1126.5625 C-609.25235107 1125.8298291 -609.81720215 1125.0971582 -610.39916992 1124.34228516 C-613.4925436 1120.25032794 -615.98610265 1116.21080421 -618.3125 1111.625 C-620.43847514 1108.15135512 -621.4625528 1107.17832063 -625.37890625 1105.87890625 C-628.10745643 1105.34251288 -630.84674244 1104.99411614 -633.60546875 1104.65234375 C-658.92618643 1101.39335332 -682.67848489 1083.46347254 -697.98291016 1063.75097656 C-712.54828017 1044.03089302 -719.32468164 1021.86701213 -719.26742554 997.51097107 C-719.27116901 996.07062339 -719.27577329 994.63027775 -719.28115618 993.18993527 C-719.29331581 989.25896469 -719.29313408 985.32807967 -719.29076743 981.39709461 C-719.29035746 977.14672038 -719.30141557 972.89637293 -719.31088257 968.64601135 C-719.3274555 960.32821469 -719.33299046 952.01044638 -719.33410732 943.69263458 C-719.33505968 936.92626608 -719.33917932 930.15990689 -719.34550858 923.39354134 C-719.36311185 904.18157324 -719.37234902 884.96962743 -719.37084763 865.7576512 C-719.37076772 864.72315121 -719.3706878 863.68865121 -719.37060547 862.62280273 C-719.37052371 861.58702967 -719.37044195 860.5512566 -719.37035771 859.48409647 C-719.36954535 842.70981466 -719.38867277 825.93562276 -719.4168822 809.16136693 C-719.44566321 791.91015607 -719.45941959 774.65898899 -719.45769465 757.40775353 C-719.45703249 747.73362908 -719.46244814 738.05959886 -719.48405075 728.38549614 C-719.50233146 720.14660654 -719.50655373 711.90785388 -719.4930319 703.6689527 C-719.48653648 699.47222322 -719.48625965 695.27575592 -719.5037384 691.07905197 C-719.63028239 658.62939722 -714.83337472 632.06861174 -694 606 C-693.07767578 604.82630859 -693.07767578 604.82630859 -692.13671875 603.62890625 C-681.94733437 591.38855371 -667.15259254 580.87971556 -652 576 C-652.00276538 575.06646194 -652.00553076 574.13292389 -652.00837994 573.1710968 C-652.07513734 550.39979672 -652.12435238 527.62850941 -652.15543652 504.85713196 C-652.17087017 493.84482331 -652.19189238 482.83257951 -652.22631836 471.8203125 C-652.25632831 462.21603442 -652.27560042 452.61180334 -652.28226548 443.00747967 C-652.28615818 437.92750412 -652.2952327 432.84766296 -652.31719017 427.76773071 C-652.33773899 422.97430054 -652.34379711 418.18105854 -652.33932304 413.3875885 C-652.3401401 411.63983636 -652.34599514 409.8920771 -652.35761642 408.1443634 C-652.54274183 378.83541371 -643.68772724 353.16853083 -623 332 C-616.01790996 325.24440936 -608.27958288 320.10542704 -600.05126953 315.02734375 C-592.68733756 310.48160071 -585.4951502 305.69898684 -578.3125 300.875 C-570.58975611 295.69585037 -562.85015757 290.56738765 -554.93066406 285.69262695 C-546.0799792 280.23020401 -537.41868022 274.46990601 -528.71679688 268.77490234 C-524.92301181 266.2963961 -521.11915276 263.83368145 -517.3125 261.375 C-511.20173749 257.42676722 -505.09874707 253.46676858 -499 249.5 C-492.83819558 245.49244658 -486.6727179 241.49072373 -480.5 237.5 C-470.98888496 231.35042732 -461.4944802 225.17521282 -452 219 C-441.81768137 212.37741686 -431.63328284 205.75824853 -421.43286133 199.16357422 C-415.94972791 195.61751131 -410.47397869 192.06017545 -405 188.5 C-398.83818242 184.49246674 -392.67271796 180.49072377 -386.5 176.5 C-376.98888496 170.35042732 -367.4944802 164.17521282 -358 158 C-347.81768137 151.37741686 -337.63328284 144.75824853 -327.43286133 138.16357422 C-321.94972791 134.61751131 -316.47397869 131.06017545 -311 127.5 C-304.15059012 123.0452693 -297.29514037 118.60007185 -290.43359375 114.1640625 C-284.95023145 110.61781324 -279.47422466 107.06033543 -274 103.5 C-267.83818242 99.49246674 -261.67271796 95.49072377 -255.5 91.5 C-245.98888496 85.35042732 -236.4944802 79.17521282 -227 73 C-216.81632176 66.37653257 -206.63169897 59.75469716 -196.4284668 53.16137695 C-191.83216447 50.18994874 -187.24479349 47.20511354 -182.66088867 44.21459961 C-179.27399584 42.00808148 -175.88134915 39.81051047 -172.48779297 37.61425781 C-170.86717791 36.56268698 -169.24888704 35.5075228 -167.63330078 34.44824219 C-142.19474248 17.77513021 -115.89222654 5.2057489 -86 -1 C-85.25186035 -1.16371094 -84.5037207 -1.32742188 -83.73291016 -1.49609375 C-57.22659452 -7.07758462 -26.25467511 -6.19576747 0 0 Z " fill="#1465D0" transform="translate(719,4)"/>
<path d="M0 0 C0.33 0 0.66 0 1 0 C1.06853124 57.29773344 1.13220612 114.59547091 1.16937256 171.89323425 C1.16992479 172.74239793 1.17047702 173.5915616 1.17104598 174.4664575 C1.18301995 192.9248077 1.19410035 211.38315834 1.20426132 229.84150963 C1.2092503 238.89458399 1.21443656 247.94765823 1.21972656 257.00073242 C1.2202496 257.90158176 1.22077263 258.80243109 1.22131152 259.73057889 C1.2383313 288.88546622 1.26835732 318.04032236 1.30518888 347.19519083 C1.34299557 377.17667048 1.36755943 407.15813291 1.37565996 437.139636 C1.37681244 441.38249081 1.37811498 445.62534557 1.37950897 449.8682003 C1.37977866 450.70318592 1.38004836 451.53817154 1.38032622 452.39845976 C1.38503762 465.79390762 1.40354785 479.18930192 1.42732814 492.58472802 C1.45098583 506.07922507 1.45984489 519.57366947 1.45400551 533.0681865 C1.45098262 541.06767688 1.4588982 549.06697329 1.48319017 557.06642833 C1.50015928 563.06925026 1.49573684 569.07186944 1.48359558 575.07471081 C1.4819235 577.48164082 1.48683855 579.88858788 1.49953273 582.295485 C1.61962212 606.49989879 -1.22524207 630.00873982 -9 653 C-9.28858887 653.85754883 -9.57717773 654.71509766 -9.87451172 655.59863281 C-27.49546011 706.88902992 -64.25798658 748.6234274 -112 774 C-113.01465332 774.54430664 -113.01465332 774.54430664 -114.04980469 775.09960938 C-142.21710606 789.95678071 -174.35645613 797.17484454 -206.06618023 797.13142776 C-207.47955895 797.13308015 -208.89293722 797.13516767 -210.30631474 797.13764787 C-214.1841549 797.14318894 -218.06197287 797.14254682 -221.93981571 797.14087028 C-226.16118032 797.14013699 -230.38253877 797.14516725 -234.60390073 797.1494453 C-242.97389556 797.15701394 -251.34388401 797.15921778 -259.7138819 797.15977435 C-269.74092732 797.16068912 -279.76796685 797.16736007 -289.79500974 797.17412117 C-314.0298619 797.19017254 -338.26471342 797.19608364 -362.49956995 797.20086992 C-373.96828368 797.20320691 -385.43699691 797.20680969 -396.90571025 797.2105653 C-436.17737745 797.22340054 -475.44904437 797.23411936 -514.72071362 797.2375679 C-517.18547094 797.23778953 -519.65022827 797.23801132 -522.1149856 797.23823325 C-524.58564265 797.23845389 -527.05629969 797.23867437 -529.52695674 797.2388947 C-534.48338457 797.23933725 -539.4398124 797.23978437 -544.39624023 797.24023438 C-545.62514398 797.24034377 -546.85404772 797.24045316 -548.12019097 797.24056586 C-587.95509853 797.24419538 -627.78998788 797.26011161 -667.62488847 797.28342474 C-709.75707565 797.30803718 -751.88925243 797.32174141 -794.021447 797.32293582 C-798.649255 797.32310727 -803.27706299 797.32332269 -807.90487099 797.32357025 C-809.04433755 797.32362602 -810.18380412 797.32368179 -811.35779997 797.32373925 C-829.67228872 797.32488851 -847.98675873 797.33589998 -866.30124116 797.35045731 C-884.72111667 797.36484486 -903.14096825 797.36804656 -921.56084784 797.36001733 C-932.49393945 797.3555716 -943.42695364 797.35937925 -954.36003503 797.37525584 C-961.67672766 797.38504539 -968.99336639 797.38378984 -976.31005859 797.37381961 C-980.47002235 797.36845609 -984.62983806 797.36762426 -988.78978922 797.38032833 C-1048.83969622 797.55193668 -1102.91977496 781.20033309 -1147 739 C-1148.66793748 737.33460511 -1150.33466827 735.66800053 -1152 734 C-1153.09828125 732.97132813 -1153.09828125 732.97132813 -1154.21875 731.921875 C-1165.18993097 721.47670956 -1174.27730672 709.00220724 -1182 696 C-1178.71043198 695.01432203 -1175.74320903 694.87851459 -1172.3162384 694.88533211 C-1170.56716171 694.88512068 -1170.56716171 694.88512068 -1168.78275013 694.88490498 C-1167.50068526 694.88986418 -1166.2186204 694.89482338 -1164.89770508 694.89993286 C-1163.52257426 694.90164478 -1162.14744283 694.90290713 -1160.77231121 694.90375793 C-1156.98901481 694.90734956 -1153.20575578 694.91715659 -1149.42247391 694.92791152 C-1145.34305607 694.93838705 -1141.26363146 694.94302469 -1137.1842041 694.94824219 C-1130.11031379 694.95796091 -1123.03643598 694.97100627 -1115.96255493 694.98596573 C-1104.76630262 695.00934787 -1093.57004938 695.02234377 -1082.3737793 695.03366089 C-1078.54078669 695.0376627 -1074.70779415 695.04173141 -1070.87480164 695.04582024 C-1069.91676197 695.04683946 -1068.95872231 695.04785869 -1067.97165114 695.04890881 C-1057.06182764 695.06065572 -1046.15200722 695.07453062 -1035.2421875 695.08935547 C-1034.24484915 695.0907079 -1033.2475108 695.09206033 -1032.21995008 695.09345375 C-1016.09325303 695.11558743 -999.96657711 695.14545362 -983.8398968 695.17732288 C-967.26465742 695.2097966 -950.68942901 695.2306086 -934.11416149 695.24159515 C-923.90300931 695.24879298 -913.69196122 695.26540752 -903.48084724 695.29439591 C-896.46686802 695.31350314 -889.45292988 695.32147861 -882.43892491 695.32099093 C-878.40202129 695.3210535 -874.36528046 695.32584193 -870.32841492 695.34415817 C-840.68175406 695.84568907 -840.68175406 695.84568907 -812.125 688.8125 C-811.34946777 688.51061768 -810.57393555 688.20873535 -809.77490234 687.89770508 C-783.22269635 677.22153979 -761.93787159 657.12457576 -749.89941406 631.14550781 C-744.05657672 617.20770798 -740.69073587 602.20529386 -740.7215271 587.11030579 C-740.7128385 585.55262498 -740.7128385 585.55262498 -740.70397437 583.96347588 C-740.68709105 580.51508768 -740.68410796 577.06683426 -740.68115234 573.6184082 C-740.67184612 571.13405534 -740.66167641 568.64970559 -740.65071106 566.1653595 C-740.62910579 560.8327706 -740.61346131 555.50021615 -740.60334396 550.16759682 C-740.58870586 542.45770722 -740.56315495 534.74788352 -740.53501268 527.03803279 C-740.4896375 514.52675617 -740.45298454 502.01547002 -740.421875 489.50415039 C-740.39165135 477.35667244 -740.35728366 465.20921776 -740.31738281 453.06176758 C-740.31492126 452.31193465 -740.31245972 451.56210172 -740.30992357 450.78954659 C-740.29754823 447.02753738 -740.28509184 443.26552846 -740.27259517 439.50351965 C-740.16916636 408.3357114 -740.08006377 377.16787746 -740 346 C-736.95807722 347.19552316 -734.1337649 348.39731371 -731.34765625 350.109375 C-730.66517822 350.52695068 -729.9827002 350.94452637 -729.27954102 351.37475586 C-728.54791748 351.82858643 -727.81629395 352.28241699 -727.0625 352.75 C-726.28253662 353.23025635 -725.50257324 353.7105127 -724.69897461 354.20532227 C-715.63605055 359.80686771 -706.66381515 365.55183382 -697.68554688 371.28759766 C-693.56900821 373.9124524 -689.44165305 376.52004823 -685.3125 379.125 C-684.53680664 379.61436035 -683.76111328 380.1037207 -682.96191406 380.60791016 C-681.40954581 381.58714119 -679.85713725 382.56630833 -678.3046875 383.54541016 C-676.01454836 384.99081789 -673.72580343 386.43840684 -671.4375 387.88671875 C-662.70534917 393.41170788 -653.95473697 398.90584047 -645.1875 404.375 C-617.86193325 421.42537783 -617.86193325 421.42537783 -608 428 C-604.28962869 427.66532285 -601.70554879 426.45192313 -598.5859375 424.48046875 C-597.75239746 423.9589624 -596.91885742 423.43745605 -596.06005859 422.90014648 C-595.17398926 422.33497314 -594.28791992 421.7697998 -593.375 421.1875 C-591.9820874 420.31170288 -591.9820874 420.31170288 -590.56103516 419.41821289 C-587.70291096 417.61907592 -584.85129476 415.80993501 -582 414 C-580.35465236 412.96277082 -578.70884418 411.9262717 -577.0625 410.890625 C-572.36941289 407.93588029 -567.68438306 404.9685171 -563 402 C-551.65779465 394.81813787 -540.29174991 387.67588773 -528.90356445 380.56713867 C-522.75779152 376.72903409 -516.62248977 372.87512646 -510.5 369 C-502.32086989 363.82315779 -494.11366027 358.69200736 -485.90234375 353.56640625 C-479.75700037 349.72850981 -473.62208883 345.87487269 -467.5 342 C-460.34938334 337.47413799 -453.17873534 332.98112022 -446 328.5 C-435.64435712 322.03499255 -425.31507724 315.52948379 -415 309 C-403.65679314 301.81970618 -392.29176255 294.67589562 -380.90356445 287.56713867 C-374.75779152 283.72903409 -368.62248977 279.87512646 -362.5 276 C-355.34938334 271.47413799 -348.17873534 266.98112022 -341 262.5 C-330.64435712 256.03499255 -320.31507724 249.52948379 -310 243 C-298.66039948 235.82198902 -287.29868526 228.68093264 -275.91455078 221.57373047 C-266.58864874 215.7489592 -257.29054283 209.88094955 -248 204 C-236.65679314 196.81970618 -225.29176255 189.67589562 -213.90356445 182.56713867 C-207.75779152 178.72903409 -201.62248977 174.87512646 -195.5 171 C-187.32086989 165.82315779 -179.11366027 160.69200736 -170.90234375 155.56640625 C-164.75700037 151.72850981 -158.62208883 147.87487269 -152.5 144 C-144.32086989 138.82315779 -136.11366027 133.69200736 -127.90234375 128.56640625 C-121.75700037 124.72850981 -115.62208883 120.87487269 -109.5 117 C-102.34938268 112.47413758 -95.17867251 107.98122164 -88 103.5 C-78.39004259 97.49881947 -68.78723786 91.48738105 -59.22607422 85.40869141 C-56.99186942 83.99485485 -54.74853587 82.59643105 -52.50390625 81.19921875 C-28.32318458 66.03648701 -9.90166797 46.52956934 -3 18 C-1.77280454 12.03554019 -0.84934989 6.02831261 0 0 Z " fill="#2DAAFB" transform="translate(1279,415)"/>
<path d="M0 0 C1.0307666 0.24137695 2.0615332 0.48275391 3.12353516 0.73144531 C26.82487334 6.46651269 54.04106693 15.94225598 73 32 C73.36304889 33.3255506 73.69237558 34.66050155 74 36 C75.6434622 38.16336237 77.31596994 40.23657287 79.0625 42.3125 C96.04532098 63.293717 103.53390794 90.3965713 100.77294922 117.20458984 C97.35891329 144.11345506 84.57222565 169.47989631 62.9921875 186.3515625 C54.16059946 192.90149305 44.78261953 198.66025864 35.45556641 204.46777344 C31.4594726 206.96125969 27.48049569 209.48171882 23.5 212 C21.9167518 213.00013478 20.33341838 214.00013466 18.75 215 C17.96625 215.495 17.1825 215.99 16.375 216.5 C9.24999999 221.00000001 9.24999999 221.00000001 6.87573242 222.49951172 C5.28992675 223.50109035 3.70415209 224.50271808 2.1184082 225.50439453 C-1.80184757 227.98064184 -5.72261107 230.45607701 -9.64453125 232.9296875 C-18.10764415 238.26883255 -26.55998748 243.62440199 -35 249 C-45.7529006 255.84871863 -56.53005331 262.65846334 -67.31347656 269.45898438 C-76.55419528 275.28744612 -85.7850656 281.13084011 -95 287 C-104.21048386 292.86632526 -113.43699003 298.70673018 -122.67333984 304.53222656 C-126.61660243 307.01983356 -130.55822684 309.51003385 -134.5 312 C-139.21405863 314.97780871 -143.92840236 317.95515835 -148.64453125 320.9296875 C-158.04621046 326.86094821 -167.43214608 332.81635529 -176.80786133 338.78857422 C-182.697161 342.5386094 -188.59456801 346.27542768 -194.5 350 C-205.01968952 356.63575161 -215.50993603 363.31754869 -226 370 C-237.26028234 377.17310101 -248.5245995 384.33919004 -259.81713867 391.46142578 C-265.88787522 395.29230702 -271.94557374 399.14340259 -278 403 C-288.75286255 409.84877801 -299.53005362 416.65846353 -310.31347656 423.45898438 C-319.55419528 429.28744612 -328.7850656 435.13084011 -338 441 C-347.21769077 446.87091547 -356.45160154 452.71556972 -365.6953125 458.54541016 C-367.98545164 459.99081789 -370.27419657 461.43840684 -372.5625 462.88671875 C-380.23042126 467.73826779 -387.90917982 472.5711866 -395.60986328 477.37060547 C-406.11500254 483.91866717 -416.56955427 490.54003132 -426.98803711 497.22509766 C-433.20679413 501.21489378 -439.4366064 505.18574512 -445.6875 509.125 C-454.25541342 514.52472274 -462.80218018 519.9571523 -471.34375 525.3984375 C-475.21651999 527.86550541 -479.09174498 530.32865547 -482.96875 532.7890625 C-483.94739014 533.41055176 -484.92603027 534.03204102 -485.93432617 534.67236328 C-487.79076641 535.85120047 -489.64766608 537.02931462 -491.50512695 538.20654297 C-497.05340997 541.7315819 -502.54668547 545.32973829 -508 549 C-505.04291734 550.87697794 -502.0843 552.75152 -499.125 554.625 C-498.25834717 555.17389893 -497.39169434 555.72279785 -496.4987793 556.28833008 C-491.22246418 559.62170287 -485.92440428 562.89033552 -480.51953125 566.01171875 C-480.01808594 566.33785156 -479.51664063 566.66398438 -479 567 C-479 567.33 -479 567.66 -479 568 C-479.71100577 568.00238835 -480.42201155 568.00477671 -481.15456295 568.00723743 C-498.52698866 568.06660581 -515.89926849 568.14229343 -533.27154446 568.23571491 C-541.67296016 568.28050889 -550.07433502 568.31996042 -558.47583008 568.34643555 C-565.80624812 568.36954945 -573.1365351 568.40309419 -580.46684891 568.44870156 C-584.34123972 568.47245505 -588.21550219 568.49129992 -592.08996391 568.49761391 C-610.89249012 568.53234513 -628.79641876 568.58028386 -646.6796875 575.23046875 C-649 576 -649 576 -652 576 C-652.07024774 552.28573318 -652.12306518 528.57148207 -652.15543652 504.85713196 C-652.17087017 493.84482331 -652.19189238 482.83257951 -652.22631836 471.8203125 C-652.25632831 462.21603442 -652.27560042 452.61180334 -652.28226548 443.00747967 C-652.28615818 437.92750412 -652.2952327 432.84766296 -652.31719017 427.76773071 C-652.33773899 422.97430054 -652.34379711 418.18105854 -652.33932304 413.3875885 C-652.3401401 411.63983636 -652.34599514 409.8920771 -652.35761642 408.1443634 C-652.54274183 378.83541371 -643.68772724 353.16853083 -623 332 C-616.01790996 325.24440936 -608.27958288 320.10542704 -600.05126953 315.02734375 C-592.68733756 310.48160071 -585.4951502 305.69898684 -578.3125 300.875 C-570.58975611 295.69585037 -562.85015757 290.56738765 -554.93066406 285.69262695 C-546.0799792 280.23020401 -537.41868022 274.46990601 -528.71679688 268.77490234 C-524.92301181 266.2963961 -521.11915276 263.83368145 -517.3125 261.375 C-511.20173749 257.42676722 -505.09874707 253.46676858 -499 249.5 C-492.83819558 245.49244658 -486.6727179 241.49072373 -480.5 237.5 C-470.98888496 231.35042732 -461.4944802 225.17521282 -452 219 C-441.81768137 212.37741686 -431.63328284 205.75824853 -421.43286133 199.16357422 C-415.94972791 195.61751131 -410.47397869 192.06017545 -405 188.5 C-398.83818242 184.49246674 -392.67271796 180.49072377 -386.5 176.5 C-376.98888496 170.35042732 -367.4944802 164.17521282 -358 158 C-347.81768137 151.37741686 -337.63328284 144.75824853 -327.43286133 138.16357422 C-321.94972791 134.61751131 -316.47397869 131.06017545 -311 127.5 C-304.15059012 123.0452693 -297.29514037 118.60007185 -290.43359375 114.1640625 C-284.95023145 110.61781324 -279.47422466 107.06033543 -274 103.5 C-267.83818242 99.49246674 -261.67271796 95.49072377 -255.5 91.5 C-245.98888496 85.35042732 -236.4944802 79.17521282 -227 73 C-216.81632176 66.37653257 -206.63169897 59.75469716 -196.4284668 53.16137695 C-191.83216447 50.18994874 -187.24479349 47.20511354 -182.66088867 44.21459961 C-179.27399584 42.00808148 -175.88134915 39.81051047 -172.48779297 37.61425781 C-170.86717791 36.56268698 -169.24888704 35.5075228 -167.63330078 34.44824219 C-142.19474248 17.77513021 -115.89222654 5.2057489 -86 -1 C-85.25186035 -1.16371094 -84.5037207 -1.32742188 -83.73291016 -1.49609375 C-57.22659452 -7.07758462 -26.25467511 -6.19576747 0 0 Z " fill="#51BCFB" transform="translate(719,4)"/>
<path d="M0 0 C5.2170202 1.71792786 9.52212048 4.80428485 14.0625 7.8125 C15.8619052 8.99360228 17.66138651 10.1745886 19.4609375 11.35546875 C20.3797168 11.96052246 21.29849609 12.56557617 22.24511719 13.18896484 C26.54829951 16.01783816 30.86803577 18.8210781 35.1875 21.625 C36.85807678 22.71093156 38.52864974 23.79686899 40.19921875 24.8828125 C45.31737813 28.20762121 50.4417345 31.52280083 55.56713867 34.83642578 C61.90456318 38.93497752 68.23175179 43.0492004 74.55859375 47.1640625 C79.86790796 50.61634385 85.18164325 54.06166728 90.5 57.5 C97.5271171 62.04305113 104.54391069 66.60184115 111.55859375 71.1640625 C116.86790796 74.61634385 122.18164325 78.06166728 127.5 81.5 C134.5271171 86.04305113 141.54391069 90.60184115 148.55859375 95.1640625 C153.86790796 98.61634385 159.18164325 102.06166728 164.5 105.5 C171.52796665 110.04360036 178.54622045 114.6020073 185.56079102 119.16625977 C190.16203925 122.15921875 194.76920613 125.1425551 199.38452148 128.11376953 C202.16180801 129.90452319 204.93342109 131.70389207 207.703125 133.50634766 C209.33976399 134.5706501 210.97795431 135.63256858 212.6171875 136.69287109 C232.77734834 149.76056742 232.77734834 149.76056742 241 158 C241.59039063 158.51949219 242.18078125 159.03898438 242.7890625 159.57421875 C258.94234161 174.21543292 268.2771316 197.96702639 269.34375 219.3984375 C270.13764547 248.54793054 262.05196437 276.12279941 242.05859375 297.83984375 C231.51822504 308.87413789 218.89530615 316.28655864 205.95654297 324.18652344 C201.77786596 326.74962937 197.63764978 329.37137544 193.5 332 C185.3218398 337.17836085 177.11364817 342.3080002 168.90234375 347.43359375 C162.75700037 351.27149019 156.62208883 355.12512731 150.5 359 C142.32086989 364.17684221 134.11366027 369.30799264 125.90234375 374.43359375 C119.75700037 378.27149019 113.62208883 382.12512731 107.5 386 C99.32086989 391.17684221 91.11366027 396.30799264 82.90234375 401.43359375 C76.75700037 405.27149019 70.62208883 409.12512731 64.5 413 C57.34938334 417.52586201 50.17873534 422.01887978 43 426.5 C32.64435712 432.96500745 22.31507724 439.47051621 12 446 C0.66039948 453.17801098 -10.70131474 460.31906736 -22.08544922 467.42626953 C-31.41135126 473.2510408 -40.70945717 479.11905045 -50 485 C-61.34320686 492.18029382 -72.70823745 499.32410438 -84.09643555 506.43286133 C-90.24220848 510.27096591 -96.37751023 514.12487354 -102.5 518 C-109.65061666 522.52586201 -116.82126466 527.01887978 -124 531.5 C-134.35564288 537.96500745 -144.68492276 544.47051621 -155 551 C-166.34320686 558.18029382 -177.70823745 565.32410438 -189.09643555 572.43286133 C-195.24220848 576.27096591 -201.37751023 580.12487354 -207.5 584 C-215.67913011 589.17684221 -223.88633973 594.30799264 -232.09765625 599.43359375 C-238.24299963 603.27149019 -244.37791117 607.12512731 -250.5 611 C-257.65061666 615.52586201 -264.82126466 620.01887978 -272 624.5 C-279.28145853 629.04580022 -286.5564403 633.60125148 -293.8125 638.1875 C-294.57401367 638.66872314 -295.33552734 639.14994629 -296.12011719 639.64575195 C-300.03980829 642.1241835 -303.95657655 644.60715519 -307.87109375 647.09375 C-311.82293532 649.60254318 -315.7824916 652.09868347 -319.74853516 654.58496094 C-321.24298365 655.52421744 -322.73487972 656.46754806 -324.22412109 657.41503906 C-326.28793924 658.72630216 -328.36109254 660.02129511 -330.4375 661.3125 C-331.04625977 661.70397217 -331.65501953 662.09544434 -332.28222656 662.4987793 C-336.47947868 665.07512679 -336.47947868 665.07512679 -338.96557617 664.71630859 C-341.02522561 663.99111821 -342.69881974 663.13502703 -344.5546875 661.98828125 C-345.24038818 661.56748291 -345.92608887 661.14668457 -346.63256836 660.71313477 C-347.3725708 660.25092529 -348.11257324 659.78871582 -348.875 659.3125 C-349.6594751 658.82773193 -350.4439502 658.34296387 -351.25219727 657.84350586 C-359.39514506 652.79352306 -367.47236602 647.63888947 -375.546875 642.48046875 C-380.58372955 639.26267582 -385.63242962 636.06408366 -390.6875 632.875 C-391.46319336 632.38563965 -392.23888672 631.8962793 -393.03808594 631.39208984 C-394.59045419 630.41285881 -396.14286275 629.43369167 -397.6953125 628.45458984 C-399.98545164 627.00918211 -402.27419657 625.56159316 -404.5625 624.11328125 C-413.29465244 618.5882911 -422.04542155 613.09441515 -430.8125 607.625 C-438.91250352 602.56787218 -446.99933316 597.49068666 -455.0625 592.375 C-455.96009033 591.8073291 -456.85768066 591.2396582 -457.7824707 590.65478516 C-459.05223755 589.84726807 -459.05223755 589.84726807 -460.34765625 589.0234375 C-461.07992432 588.55856934 -461.81219238 588.09370117 -462.56665039 587.61474609 C-463.77115845 586.81544678 -463.77115845 586.81544678 -465 586 C-465.86072207 585.52712728 -465.86072207 585.52712728 -466.73883247 585.04470158 C-468.743858 583.83818179 -470.36620875 582.68048159 -472 581 C-472.70899844 577.85076211 -472.93085857 575.71993107 -472.85473633 572.57641602 C-472.8622995 571.73985977 -472.86986267 570.90330353 -472.87765503 570.04139709 C-472.8948492 567.2779284 -472.86321866 564.51721629 -472.83203125 561.75390625 C-472.83634217 559.82159926 -472.84401933 557.88929713 -472.85490417 555.95701599 C-472.87584079 550.86408723 -472.85677584 545.7721195 -472.82763672 540.67926025 C-472.78821195 532.56141371 -472.81135493 524.44348221 -472.83063316 516.32560539 C-472.83199871 513.50853389 -472.81771202 510.691905 -472.80049133 507.87489319 C-472.75756357 494.92658033 -473.58393926 482.78102953 -477.4140625 470.3046875 C-478 468 -478 468 -478 464 C-476.32958984 462.48291016 -476.32958984 462.48291016 -473.9609375 461.0390625 C-473.08155518 460.49233887 -472.20217285 459.94561523 -471.29614258 459.38232422 C-470.33216553 458.80240723 -469.36818848 458.22249023 -468.375 457.625 C-466.34480714 456.37018788 -464.31486614 455.1149682 -462.28515625 453.859375 C-461.2398877 453.21935547 -460.19461914 452.57933594 -459.11767578 451.91992188 C-454.31321391 448.96124622 -449.56488888 445.91632534 -444.8125 442.875 C-435.66532675 437.04914587 -426.4994503 431.25318184 -417.32666016 425.46777344 C-413.38339755 422.98016643 -409.44179232 420.48993586 -405.5 418 C-403.9166744 416.99998776 -402.33334107 415.99998775 -400.75 415 C-399.96625 414.505 -399.1825 414.01 -398.375 413.5 C-372.25 397 -372.25 397 -369.87573242 395.50048828 C-368.28992675 394.49890965 -366.70415209 393.49728192 -365.1184082 392.49560547 C-361.19815243 390.01935816 -357.27738893 387.54392299 -353.35546875 385.0703125 C-344.89235585 379.73116745 -336.44001252 374.37559801 -328 369 C-318.78951614 363.13367474 -309.56300997 357.29326982 -300.32666016 351.46777344 C-296.38339755 348.98016643 -292.44179232 346.48993586 -288.5 344 C-286.9166744 342.99998776 -285.33334107 341.99998775 -283.75 341 C-282.96625 340.505 -282.1825 340.01 -281.375 339.5 C-274.25000001 335.00000001 -274.25000001 335.00000001 -271.87573242 333.50048828 C-270.28992675 332.49890965 -268.70415209 331.49728192 -267.1184082 330.49560547 C-263.19815243 328.01935816 -259.27738893 325.54392299 -255.35546875 323.0703125 C-246.89235585 317.73116745 -238.44001252 312.37559801 -230 307 C-220.78951614 301.13367474 -211.56300997 295.29326982 -202.32666016 289.46777344 C-198.38339757 286.98016644 -194.44177316 284.48996615 -190.5 282 C-185.78594137 279.02219129 -181.07159764 276.04484165 -176.35546875 273.0703125 C-167.89235585 267.73116745 -159.44001252 262.37559801 -151 257 C-140.2470994 250.15128137 -129.46994669 243.34153666 -118.68652344 236.54101562 C-109.44580472 230.71255388 -100.2149344 224.86915989 -91 219 C-80.2470994 212.15128137 -69.46994669 205.34153666 -58.68652344 198.54101562 C-48.51461863 192.12522051 -38.35224454 185.69493883 -28.21630859 179.22241211 C-23.7511336 176.37366671 -19.27667911 173.54366699 -14.76953125 170.76171875 C10.82146874 154.932926 29.29536718 135.34067179 37.1875 105.44921875 C42.95775255 80.95338703 40.43047 57.4049536 29 35 C28.19755859 33.41445312 28.19755859 33.41445312 27.37890625 31.796875 C21.01500099 20.13734593 12.52222601 10.6589928 2.01953125 2.609375 C1.35308594 2.07828125 0.68664062 1.5471875 0 1 C0 0.67 0 0.34 0 0 Z " fill="#2443BE" transform="translate(1011,179)"/>
<path d="M0 0 C5.33953973 0.44145801 8.98414823 3.41288259 13.25 6.375 C14.87169025 7.47890184 16.49410264 8.58174346 18.1171875 9.68359375 C19.34453613 10.52059814 19.34453613 10.52059814 20.59667969 11.37451172 C24.15572126 13.78167332 27.761118 16.11379962 31.375 18.4375 C32.77872075 19.3423317 34.18236528 20.24728166 35.5859375 21.15234375 C36.29975586 21.61237793 37.01357422 22.07241211 37.74902344 22.54638672 C41.83913322 25.18765718 45.91897646 27.84472116 50 30.5 C56.16173646 34.50765737 62.32726233 38.5093076 68.5 42.5 C75.5271171 47.04305113 82.54391069 51.60184115 89.55859375 56.1640625 C94.86790805 59.61634391 100.18166054 63.06164046 105.5 66.5 C115.86644966 73.20260378 126.21320566 79.93546659 136.56152344 86.66601562 C145.89016111 92.73301651 155.22207646 98.7947498 164.56713867 104.83642578 C170.89876135 108.93122535 177.22047253 113.04120095 183.54101562 117.15307617 C188.30298235 120.25010662 193.06980466 123.33938703 197.84277344 126.41943359 C200.60017114 128.20007091 203.35434671 129.98563751 206.10742188 131.77294922 C207.34189202 132.57331647 208.57751763 133.37190519 209.81445312 134.16845703 C211.46346308 135.23138989 213.10688931 136.30297046 214.75 137.375 C215.65234375 137.96023437 216.5546875 138.54546875 217.484375 139.1484375 C220.2814842 141.20717937 222.57268975 143.51942589 225 146 C226.70577065 147.46133 228.41420882 148.91955078 230.125 150.375 C244.90276256 163.84006764 254.15663105 181.72848984 259 201 C259.22429688 201.85078125 259.44859375 202.7015625 259.6796875 203.578125 C265.28506771 228.61037086 258.47978081 256.64309823 245 278 C232.65462142 296.28631168 216.27291278 307.11562162 197.76953125 318.44140625 C191.5866674 322.23550899 185.47825791 326.14200285 179.375 330.0625 C169.70229415 336.27208371 160.00441784 342.43890229 150.27832031 348.56445312 C146.35008374 351.03959576 142.42523535 353.52010169 138.5 356 C133.78596427 358.97784493 129.07159761 361.95515837 124.35546875 364.9296875 C115.89235585 370.26883255 107.44001252 375.62440199 99 381 C89.78951614 386.86632526 80.56300997 392.70673018 71.32666016 398.53222656 C67.38339755 401.01983357 63.44179232 403.51006414 59.5 406 C57.9166744 407.00001224 56.33334107 408.00001225 54.75 409 C53.96625 409.495 53.1825 409.99 52.375 410.5 C45.25 415 45.25 415 42.87573242 416.49951172 C41.28992675 417.50109035 39.70415209 418.50271808 38.1184082 419.50439453 C34.19815243 421.98064184 30.27738893 424.45607701 26.35546875 426.9296875 C17.89235585 432.26883255 9.44001252 437.62440199 1 443 C-9.7529006 449.84871863 -20.53005331 456.65846334 -31.31347656 463.45898438 C-33.64670626 464.93063831 -35.97969015 466.40268064 -38.3125 467.875 C-39.09238281 468.36718018 -39.87226562 468.85936035 -40.67578125 469.36645508 C-45.77298221 472.58598607 -50.86024849 475.82077636 -55.94335938 479.0625 C-64.53928608 484.54431518 -73.15920236 489.98416646 -81.8125 495.375 C-91.24745619 501.25439963 -100.62561593 507.2179441 -109.98217773 513.22119141 C-118.53685731 518.70925122 -127.12152081 524.14802477 -135.72167969 529.56445312 C-139.64991631 532.03959579 -143.57474565 534.52013168 -147.5 537 C-149.08331787 538.00002448 -150.66665119 539.00002451 -152.25 540 C-153.03375 540.495 -153.8175 540.99 -154.625 541.5 C-218.75 582 -218.75 582 -221.12866211 583.50219727 C-222.69992788 584.49465227 -224.27105593 585.48732535 -225.84204102 586.48022461 C-229.98386085 589.09753797 -234.12854015 591.71017488 -238.27734375 594.31640625 C-239.14101563 594.85974609 -240.0046875 595.40308594 -240.89453125 595.96289062 C-242.54859949 597.0033529 -244.20350369 598.0424878 -245.859375 599.08007812 C-246.60574219 599.54994141 -247.35210938 600.01980469 -248.12109375 600.50390625 C-248.7752124 600.91455322 -249.42933105 601.3252002 -250.10327148 601.74829102 C-252.07221061 603.00461514 -252.07221061 603.00461514 -254.05493164 604.65600586 C-256 606 -256 606 -259 606 C-260.81774879 602.45538987 -262.54109259 598.87678358 -264.1875 595.25 C-264.53167969 594.49203125 -264.87585938 593.7340625 -265.23046875 592.953125 C-266 591 -266 591 -266 589 C-266.66 589 -267.32 589 -268 589 C-268 588.01 -268 587.02 -268 586 C-268.66 585.67 -269.32 585.34 -270 585 C-270.66666667 583.66666667 -271.33333333 582.33333333 -272 581 C-272.66 580.67 -273.32 580.34 -274 580 C-274.33 579.01 -274.66 578.02 -275 577 C-275.99 576.34 -276.98 575.68 -278 575 C-278.31066406 574.37222656 -278.62132812 573.74445312 -278.94140625 573.09765625 C-280.22447497 570.55519166 -281.75613387 569.25327404 -283.9375 567.4375 C-286.3995807 565.37119302 -288.73741001 563.2814449 -291 561 C-294.31393725 558.21788481 -294.31393725 558.21788481 -298 556 C-298 555.34 -298 554.68 -298 554 C-298.99 554 -299.98 554 -301 554 C-301 553.34 -301 552.68 -301 552 C-301.66 551.938125 -302.32 551.87625 -303 551.8125 C-305.83080043 551.04582488 -307.45118971 550.19528954 -309.875 548.625 C-329.85999761 535.68480674 -355.37167229 534.6468751 -378.43701172 534.87158203 C-380.31999164 534.88195945 -382.2029778 534.89124998 -384.08596802 534.89955139 C-388.10558211 534.91838752 -392.12511719 534.94248217 -396.14468002 534.97012711 C-402.51939126 535.01157409 -408.89399915 535.02647207 -415.26882935 535.03536987 C-416.8915275 535.03779306 -416.8915275 535.03779306 -418.54700744 535.0402652 C-420.75713975 535.04350167 -422.96727215 535.04667143 -425.17740464 535.04977584 C-439.99018243 535.07149425 -454.80235463 535.10969133 -469.61474609 535.22265625 C-479.647124 535.29896698 -489.6786519 535.33215881 -499.711321 535.31675422 C-505.00260723 535.31031811 -510.29183099 535.32501703 -515.58272934 535.39282608 C-556.98761567 535.89991938 -556.98761567 535.89991938 -570.18014908 523.59884262 C-573.50428612 520.67839902 -577.27617065 518.37506685 -581 516 C-576.42324355 512.07571502 -571.38366272 509.06147305 -566.25 505.9375 C-559.57631823 501.84288817 -552.9344971 497.71287951 -546.375 493.4375 C-540.54852181 489.64249168 -534.69588026 485.89374358 -528.8125 482.1875 C-521.92705699 477.84960739 -515.0520268 473.49592693 -508.1875 469.125 C-507.26735107 468.53928223 -506.34720215 467.95356445 -505.39916992 467.35009766 C-500.78403604 464.41169521 -496.17043412 461.47091256 -491.55859375 458.52734375 C-481.06413745 451.83317414 -470.53517694 445.19816854 -459.97241211 438.61230469 C-451.36283622 433.23924899 -442.7987392 427.79680064 -434.2421875 422.33984375 C-429.27386888 419.17178633 -424.29557113 416.01979148 -419.3125 412.875 C-418.53777344 412.38604248 -417.76304687 411.89708496 -416.96484375 411.39331055 C-413.87237436 409.44206337 -410.77944148 407.49155153 -407.68652344 405.54101562 C-397.50717391 399.12052485 -387.34275863 392.67724978 -377.19213867 386.21142578 C-370.53280243 381.97106673 -363.86120069 377.75057176 -357.18359375 373.5390625 C-351.11263987 369.70797641 -345.05465239 365.85678831 -339 362 C-331.40541918 357.1622837 -323.79984917 352.34256929 -316.18359375 347.5390625 C-310.11263987 343.70797641 -304.05465239 339.85678831 -298 336 C-290.40541918 331.1622837 -282.79984917 326.34256929 -275.18359375 321.5390625 C-269.11263971 317.70797631 -263.05467372 313.85675504 -257 310 C-246.24713745 303.15122199 -235.46994638 296.34153647 -224.68652344 289.54101562 C-215.44580472 283.71255388 -206.2149344 277.86915989 -197 272 C-186.2470994 265.15128137 -175.46994669 258.34153666 -164.68652344 251.54101562 C-155.44580472 245.71255388 -146.2149344 239.86915989 -137 234 C-126.2470994 227.15128137 -115.46994669 220.34153666 -104.68652344 213.54101562 C-95.44580472 207.71255388 -86.2149344 201.86915989 -77 196 C-70.11182881 191.61279806 -63.21821422 187.23454132 -56.3125 182.875 C-55.54107666 182.38773438 -54.76965332 181.90046875 -53.97485352 181.3984375 C-50.06270245 178.928556 -46.14710891 176.46434729 -42.2265625 174.0078125 C-37.47140124 171.02542572 -32.73222131 168.01862813 -28 165 C-27.21141602 164.49968262 -26.42283203 163.99936523 -25.61035156 163.48388672 C1.11115378 146.45590575 18.75260879 125.13089132 26.203125 93.859375 C31.60164146 67.71361879 26.57458001 39.44170637 12 17 C9.22516 13.15108993 6.25326203 9.47683616 3.22265625 5.828125 C1 3 1 3 0 0 Z " fill="#3578E8" transform="translate(791,37)"/>
<path d="M0 0 C3.04192278 1.19552316 5.8662351 2.39731371 8.65234375 4.109375 C9.33482178 4.52695068 10.0172998 4.94452637 10.72045898 5.37475586 C11.81789429 6.05550171 11.81789429 6.05550171 12.9375 6.75 C14.10744507 7.47038452 14.10744507 7.47038452 15.30102539 8.20532227 C24.36394945 13.80686771 33.33618485 19.55183382 42.31445312 25.28759766 C46.43099179 27.9124524 50.55834695 30.52004823 54.6875 33.125 C55.46319336 33.61436035 56.23888672 34.1037207 57.03808594 34.60791016 C58.59045419 35.58714119 60.14286275 36.56630833 61.6953125 37.54541016 C63.98545164 38.99081789 66.27419657 40.43840684 68.5625 41.88671875 C77.29465086 47.4117079 86.04526901 52.90583093 94.8125 58.375 C104.49524107 64.41686985 114.13513447 70.52319989 123.7578125 76.66015625 C131.04761989 81.30851522 138.36063971 85.92000322 145.67333984 90.53222656 C149.61660245 93.01983357 153.55820768 95.51006414 157.5 98 C159.0833256 99.00001224 160.66665893 100.00001225 162.25 101 C209.75 131 209.75 131 212.1237793 132.49926758 C213.71113526 133.50178243 215.29853779 134.50422354 216.88598633 135.5065918 C220.78315395 137.96751963 224.67957101 140.42961712 228.57421875 142.89453125 C237.30270013 148.41653701 246.0492527 153.90831604 254.8125 159.375 C263.58449645 164.84858031 272.32678595 170.36638719 281.04199219 175.92993164 C286.22449938 179.23784497 291.42039799 182.52268697 296.63085938 185.78637695 C333.25896293 208.77455721 361.89833972 237.34390499 371.9296875 280.91015625 C379.6469412 317.62223457 373.57329559 355.87250401 353.28515625 387.63671875 C349.89283859 392.73750198 346.0449278 397.40636895 342 402 C341.26910156 402.85207031 340.53820312 403.70414063 339.78515625 404.58203125 C319.87491097 427.36159131 294.16632753 441.00556722 265 448 C264.40664327 448.16118608 263.81328654 448.32237216 263.2019493 448.48844266 C256.70332668 450.13007969 250.46841657 450.30430918 243.78913879 450.31488037 C242.57866829 450.32452655 241.36819779 450.33417272 240.12104636 450.3441112 C236.76868092 450.36872012 233.41648802 450.38455897 230.06406763 450.39649355 C226.41500323 450.41152652 222.7660137 450.43761202 219.11700249 450.46205902 C211.88809599 450.50853639 204.65917393 450.54379061 197.43018742 450.57509732 C191.42897431 450.60126618 185.42779468 450.6316288 179.42661476 450.66451263 C99.7985768 451.09869272 20.16921853 451.22015279 -59.45988655 451.23741913 C-63.64130783 451.23834547 -67.82272911 451.23928437 -72.00415039 451.24023438 C-73.04072658 451.24045926 -74.07730277 451.24068414 -75.14529036 451.24091583 C-92.29456871 451.24494071 -109.44380677 451.2627278 -126.59306929 451.2855939 C-144.55740772 451.3093434 -162.52172552 451.32176864 -180.48607987 451.32293582 C-190.4348538 451.32384192 -200.38357235 451.32933519 -210.3323307 451.34775543 C-218.69014376 451.36319446 -227.04788353 451.36824812 -235.40570817 451.36001733 C-239.64047954 451.35614679 -243.87510306 451.35686765 -248.10985565 451.37107468 C-308.44106932 451.5615997 -362.67931357 435.4305395 -407 393 C-408.66793748 391.33460511 -410.33466827 389.66800053 -412 388 C-413.09828125 386.97132813 -413.09828125 386.97132813 -414.21875 385.921875 C-425.18993097 375.47670956 -434.27730672 363.00220724 -442 350 C-438.71043198 349.01432203 -435.74320903 348.87851459 -432.3162384 348.88533211 C-430.56716171 348.88512068 -430.56716171 348.88512068 -428.78275013 348.88490498 C-427.50068526 348.88986418 -426.2186204 348.89482338 -424.89770508 348.89993286 C-423.52257426 348.90164478 -422.14744283 348.90290713 -420.77231121 348.90375793 C-416.98901481 348.90734956 -413.20575578 348.91715659 -409.42247391 348.92791152 C-405.34305607 348.93838705 -401.26363146 348.94302469 -397.1842041 348.94824219 C-390.11031379 348.95796091 -383.03643598 348.97100627 -375.96255493 348.98596573 C-364.76630262 349.00934787 -353.57004938 349.02234377 -342.3737793 349.03366089 C-338.54078669 349.0376627 -334.70779415 349.04173141 -330.87480164 349.04582024 C-329.91676197 349.04683946 -328.95872231 349.04785869 -327.97165114 349.04890881 C-317.06182764 349.06065572 -306.15200722 349.07453062 -295.2421875 349.08935547 C-294.24484915 349.0907079 -293.2475108 349.09206033 -292.21995008 349.09345375 C-276.09325303 349.11558743 -259.96657711 349.14545362 -243.8398968 349.17732288 C-227.26465742 349.2097966 -210.68942901 349.2306086 -194.11416149 349.24159515 C-183.90300931 349.24879298 -173.69196122 349.26540752 -163.48084724 349.29439591 C-156.46686802 349.31350314 -149.45292988 349.32147861 -142.43892491 349.32099093 C-138.40202129 349.3210535 -134.36528046 349.32584193 -130.32841492 349.34415817 C-100.68175406 349.84568907 -100.68175406 349.84568907 -72.125 342.8125 C-71.34946777 342.51061768 -70.57393555 342.20873535 -69.77490234 341.89770508 C-43.22269635 331.22153979 -21.93787159 311.12457576 -9.89941406 285.14550781 C-4.05657672 271.20770798 -0.69073587 256.20529386 -0.7215271 241.11030579 C-0.7128385 239.55262498 -0.7128385 239.55262498 -0.70397437 237.96347588 C-0.68709105 234.51508768 -0.68410796 231.06683426 -0.68115234 227.6184082 C-0.67184612 225.13405534 -0.66167641 222.64970559 -0.65071106 220.1653595 C-0.62910579 214.8327706 -0.61346131 209.50021615 -0.60334396 204.16759682 C-0.58870586 196.45770722 -0.56315495 188.74788352 -0.53501268 181.03803279 C-0.4896375 168.52675617 -0.45298454 156.01547002 -0.421875 143.50415039 C-0.39165135 131.35667244 -0.35728366 119.20921776 -0.31738281 107.06176758 C-0.31492126 106.31193465 -0.31245972 105.56210172 -0.30992357 104.78954659 C-0.29754823 101.02753738 -0.28509184 97.26552846 -0.27259517 93.50351965 C-0.16916636 62.3357114 -0.08006377 31.16787746 0 0 Z " fill="#3AD0FE" transform="translate(539,761)"/>
<path d="M0 0 C0.80308594 0.57878906 1.60617187 1.15757812 2.43359375 1.75390625 C26.43290892 19.99969102 41.70813114 44.01291321 52 72 C52.4125 73.10859375 52.825 74.2171875 53.25 75.359375 C54.33009956 78.54904402 55.19332372 81.73008006 56 85 C56.27070312 86.02770508 56.27070312 86.02770508 56.546875 87.07617188 C60.1633204 101.35868765 60.40130004 115.60420368 60.4375 130.25 C60.44358276 131.18167999 60.44966553 132.11335999 60.45593262 133.07327271 C60.52826053 150.03360936 58.85134771 166.43849857 54 182.75 C53.70585205 183.74314209 53.4117041 184.73628418 53.10864258 185.75952148 C41.10109103 224.31808345 14.90395625 256.18886064 -20.7890625 275.02734375 C-55.29580772 292.56183892 -99.52524086 296.96833472 -137 287 C-137.7233252 286.81276367 -138.44665039 286.62552734 -139.19189453 286.43261719 C-159.28935765 281.08376352 -178.28599059 271.68724438 -194 258 C-195.26263672 256.90171875 -195.26263672 256.90171875 -196.55078125 255.78125 C-199.06536077 253.55285176 -201.53838766 251.28665477 -204 249 C-204.66644531 248.39929688 -205.33289063 247.79859375 -206.01953125 247.1796875 C-230.46796287 224.17525693 -245.90227023 186.27721297 -247.07043457 152.99313354 C-248.11126901 111.68515988 -248.11126901 111.68515988 -244 94 C-243.70996094 92.74195557 -243.70996094 92.74195557 -243.4140625 91.45849609 C-234.19476155 53.08031041 -212.05032195 17.81776539 -178.35546875 -3.56494141 C-125.17303723 -35.96609527 -51.23287726 -37.22676693 0 0 Z " fill="#FEFEFE" transform="translate(363,709)"/>
<path d="M0 0 C19.91251247 17.48707862 28.00746032 42.0078224 30.1875 67.875 C31.79374036 96.97336 28.39168738 128.57086558 8.48828125 151.41796875 C-4.71022153 165.51280449 -22.44602314 174.90870156 -42.01953125 175.99780273 C-65.54921189 176.75973826 -85.19057953 171.90834482 -103.4375 156.25 C-122.86624708 137.95759904 -130.09911417 111.86543442 -131.06640625 85.90234375 C-131.79171246 56.22891669 -125.35674806 29.77563109 -105.8125 6.875 C-77.92515483 -22.21854522 -31.4976808 -24.02592981 0 0 Z " fill="#0E63D2" transform="translate(319.8125,761.125)"/>
<path d="M0 0 C0.33 0 0.66 0 1 0 C1.21914062 1.11375 1.43828125 2.2275 1.6640625 3.375 C6.43067866 26.70334999 14.96235784 45.14985053 32 62 C32.69222656 62.71414063 33.38445312 63.42828125 34.09765625 64.1640625 C40.92333413 70.75905146 49.29675083 75.40163784 57.33496094 80.34960938 C61.85470599 83.14857205 66.33164772 86.0143474 70.8125 88.875 C72.67568646 90.0613468 74.53896829 91.24754383 76.40234375 92.43359375 C80.08323134 94.77807145 83.76273846 97.12469733 87.44140625 99.47265625 C99.89838271 107.41898093 112.40737477 115.27859854 124.94580078 123.09570312 C133.01493587 128.12681853 141.07987238 133.16464616 149.14013672 138.20996094 C151.04764789 139.40390595 152.95552603 140.59726486 154.86376953 141.79003906 C157.53595554 143.46138013 160.20582693 145.13635261 162.875 146.8125 C163.67204346 147.31031982 164.46908691 147.80813965 165.2902832 148.32104492 C166.01691162 148.77842041 166.74354004 149.2357959 167.4921875 149.70703125 C168.12495605 150.1038208 168.75772461 150.50061035 169.40966797 150.90942383 C171 152 171 152 173 154 C172.28899423 154.00238835 171.57798845 154.00477671 170.84543705 154.00723743 C153.47301134 154.06660581 136.10073151 154.14229343 118.72845554 154.23571491 C110.32703984 154.28050889 101.92566498 154.31996042 93.52416992 154.34643555 C86.19375188 154.36954945 78.8634649 154.40309419 71.53315109 154.44870156 C67.65876028 154.47245505 63.78449781 154.49129992 59.91003609 154.49761391 C41.10750988 154.53234513 23.20358124 154.58028386 5.3203125 161.23046875 C3 162 3 162 0 162 C0 108.54 0 55.08 0 0 Z " fill="#62DDFE" transform="translate(67,418)"/>
<path d="M0 0 C0.33 0 0.66 0 1 0 C1 26.07 1 52.14 1 79 C0.67 79 0.34 79 0 79 C-0.33 58.87 -0.66 38.74 -1 18 C-1.33 18 -1.66 18 -2 18 C-1.48758893 11.97099313 -0.930215 5.97995357 0 0 Z " fill="#93A9F6" transform="translate(1279,415)"/>
<path d="M0 0 C4.10958767 1.45044271 7.43258745 3.51110752 11 6 C10.01 7.485 10.01 7.485 9 9 C7.49704815 7.69088122 5.99770689 6.37761608 4.5 5.0625 C3.6646875 4.33160156 2.829375 3.60070313 1.96875 2.84765625 C1.3190625 2.23792969 0.669375 1.62820312 0 1 C0 0.67 0 0.34 0 0 Z " fill="#888FF8" transform="translate(781,30)"/>
<path d="M0 0 C4.10958767 1.45044271 7.43258745 3.51110752 11 6 C10.01 6.66 9.02 7.32 8 8 C6.66372225 6.85760183 5.33104612 5.71098945 4 4.5625 C3.2575 3.92441406 2.515 3.28632813 1.75 2.62890625 C1.1725 2.09136719 0.595 1.55382812 0 1 C0 0.67 0 0.34 0 0 Z " fill="#5249D6" transform="translate(1011,179)"/>
</svg>
