<svg width="200" height="200" version="1.1" xmlns="http://www.w3.org/2000/svg" desc="Created with imagetracer.js version 1.2.6" ><path fill="rgb(0,8,3)" stroke="rgb(0,8,3)" stroke-width="1" opacity="0.0196078431372549" d="M 0 0 L 87 0.5 Q 43.9 7.9 22 36.5 Q 5.1 55.6 0.5 87 L 0 0 Z " /><path fill="rgb(0,8,3)" stroke="rgb(0,8,3)" stroke-width="1" opacity="0.0196078431372549" d="M 113.5 0 L 200 0 L 200 86.5 L 199 86.5 L 199 81.5 L 196 69.5 L 187 49.5 Q 177.6 33.4 163.5 22 Q 152.6 12.9 138.5 7 L 123.5 2 L 113.5 1 L 113.5 0 Z " /><path fill="rgb(0,8,3)" stroke="rgb(0,8,3)" stroke-width="1" opacity="0.0196078431372549" d="M 0.5 113 Q 7.9 156.1 36.5 178 Q 55.6 194.9 87 199.5 L 0 200 L 0.5 113 Z " /><path fill="rgb(0,8,3)" stroke="rgb(0,8,3)" stroke-width="1" opacity="0.0196078431372549" d="M 199.5 113 L 200 200 L 113 199.5 Q 156.1 192.1 178 163.5 Q 194.9 144.4 199.5 113 Z " /><path fill="rgb(1,119,55)" stroke="rgb(1,119,55)" stroke-width="1" opacity="0.996078431372549" d="M 87.5 0 L 98 0.5 L 88.5 1 L 73.5 4 L 73.5 3 L 87.5 0 Z " /><path fill="rgb(1,119,55)" stroke="rgb(1,119,55)" stroke-width="1" opacity="0.996078431372549" d="M 102.5 0 L 112.5 0 L 119 1.5 L 112.5 2 L 111.5 1 L 102.5 1 L 102.5 0 Z " /><path fill="rgb(1,119,55)" stroke="rgb(1,119,55)" stroke-width="1" opacity="0.996078431372549" d="M 120.5 2 L 127 3.5 L 123.5 4 L 120.5 3 L 120.5 2 Z " /><path fill="rgb(1,119,55)" stroke="rgb(1,119,55)" stroke-width="1" opacity="0.996078431372549" d="M 69.5 4 L 72 4.5 Q 43.4 13.4 26 33.5 Q 11.5 49 4.5 72 L 4 69.5 Q 14.2 39.7 36.5 22 Q 50.5 10.5 69.5 4 Z " /><path fill="rgb(1,119,55)" stroke="rgb(1,119,55)" stroke-width="1" opacity="0.996078431372549" d="M 128.5 4 Q 160.2 13.3 178 36.5 Q 190.1 50.9 196 71.5 L 195 71.5 Q 186.5 43 166.5 26 L 148.5 13 Q 141.2 7.8 130.5 6 L 128.5 4 Z " /><path fill="rgb(1,119,55)" stroke="rgb(1,119,55)" stroke-width="1" opacity="0.996078431372549" d="M 3.5 73 L 4 76.5 L 2.5 80 L 2 76.5 L 3.5 73 Z " /><path fill="rgb(1,119,55)" stroke="rgb(1,119,55)" stroke-width="1" opacity="0.996078431372549" d="M 196.5 73 L 200 87.5 L 200 97.5 L 199 97.5 L 199 88.5 L 196 76.5 L 196.5 73 Z " /><path fill="rgb(1,119,55)" stroke="rgb(1,119,55)" stroke-width="1" opacity="0.996078431372549" d="M 1.5 81 L 2 87.5 L 1 88.5 L 0.5 98 L 0 87.5 L 1.5 81 Z " /><path fill="rgb(1,119,55)" stroke="rgb(1,119,55)" stroke-width="1" opacity="0.996078431372549" d="M 0.5 102 L 1 111.5 L 4 126.5 L 3 126.5 L 0 112.5 L 0.5 102 Z " /><path fill="rgb(1,119,55)" stroke="rgb(1,119,55)" stroke-width="1" opacity="0.996078431372549" d="M 199.5 102 L 200 112.5 L 198.5 119 L 198 112.5 L 199 111.5 L 199.5 102 Z " /><path fill="rgb(1,119,55)" stroke="rgb(1,119,55)" stroke-width="1" opacity="0.996078431372549" d="M 197.5 120 L 198 123.5 L 196.5 127 L 196 123.5 L 197.5 120 Z " /><path fill="rgb(1,119,55)" stroke="rgb(1,119,55)" stroke-width="1" opacity="0.996078431372549" d="M 4.5 128 Q 13.4 156.6 33.5 174 Q 49 188.5 72 195.5 L 69.5 196 Q 39.7 185.8 22 163.5 Q 12.9 152.6 7 138.5 L 4 130.5 L 4.5 128 Z " /><path fill="rgb(1,119,55)" stroke="rgb(1,119,55)" stroke-width="1" opacity="0.996078431372549" d="M 195.5 128 L 196 130.5 Q 185.8 160.3 163.5 178 Q 149.1 190.1 128.5 196 L 128.5 195 Q 157 186.5 174 166.5 Q 188.5 151 195.5 128 Z " /><path fill="rgb(1,119,55)" stroke="rgb(1,119,55)" stroke-width="1" opacity="0.996078431372549" d="M 73.5 196 L 80 197.5 L 76.5 198 L 73.5 197 L 73.5 196 Z " /><path fill="rgb(1,119,55)" stroke="rgb(1,119,55)" stroke-width="1" opacity="0.996078431372549" d="M 123.5 196 L 127 196.5 L 112.5 200 L 102.5 200 L 102.5 199 L 111.5 199 L 123.5 196 Z " /><path fill="rgb(1,119,55)" stroke="rgb(1,119,55)" stroke-width="1" opacity="0.996078431372549" d="M 81.5 198 L 98 199.5 L 87.5 200 Q 86.2 197.7 81.5 199 L 81.5 198 Z " /><path fill="rgb(208,229,218)" stroke="rgb(208,229,218)" stroke-width="1" opacity="1" d="M 106.5 38 L 110 38.5 L 106.5 39 L 106.5 38 Z " /><path fill="rgb(208,229,218)" stroke="rgb(208,229,218)" stroke-width="1" opacity="1" d="M 118.5 38 L 122 38.5 L 118.5 39 L 118.5 38 Z " /><path fill="rgb(208,229,218)" stroke="rgb(208,229,218)" stroke-width="1" opacity="1" d="M 51.5 40 L 52 60.5 L 51 60.5 L 51.5 40 Z " /><path fill="rgb(208,229,218)" stroke="rgb(208,229,218)" stroke-width="1" opacity="1" d="M 80.5 42 L 82.5 45 L 80.5 42 Z " /><path fill="rgb(208,229,218)" stroke="rgb(208,229,218)" stroke-width="1" opacity="1" d="M 95.5 42 L 94.5 44 L 95.5 42 Z " /><path fill="rgb(208,229,218)" stroke="rgb(208,229,218)" stroke-width="1" opacity="1" d="M 133.5 42 L 134.5 44 L 133.5 42 Z " /><path fill="rgb(208,229,218)" stroke="rgb(208,229,218)" stroke-width="1" opacity="1" d="M 92.5 44 L 91.5 46 L 92.5 44 Z " /><path fill="rgb(208,229,218)" stroke="rgb(208,229,218)" stroke-width="1" opacity="1" d="M 136.5 44 L 137.5 46 L 136.5 44 Z " /><path fill="rgb(208,229,218)" stroke="rgb(208,229,218)" stroke-width="1" opacity="1" d="M 139.5 46 L 144.5 52 L 139.5 46 Z " /><path fill="rgb(208,229,218)" stroke="rgb(208,229,218)" stroke-width="1" opacity="1" d="M 87.5 49 L 85.5 52 L 87.5 49 Z " /><path fill="rgb(208,229,218)" stroke="rgb(208,229,218)" stroke-width="1" opacity="1" d="M 146.5 54 L 147.5 56 L 146.5 54 Z " /><path fill="rgb(208,229,218)" stroke="rgb(208,229,218)" stroke-width="1" opacity="1" d="M 101.5 59 L 104 59.5 L 101.5 60 L 101.5 59 Z " /><path fill="rgb(208,229,218)" stroke="rgb(208,229,218)" stroke-width="1" opacity="1" d="M 111.5 59 L 114 59.5 L 111.5 60 L 111.5 59 Z " /><path fill="rgb(208,229,218)" stroke="rgb(208,229,218)" stroke-width="1" opacity="1" d="M 95.5 62 L 91.5 67 L 95.5 62 Z " /><path fill="rgb(208,229,218)" stroke="rgb(208,229,218)" stroke-width="1" opacity="1" d="M 119.5 62 L 124.5 68 L 119.5 62 Z " /><path fill="rgb(208,229,218)" stroke="rgb(208,229,218)" stroke-width="1" opacity="1" d="M 90.5 68 L 89.5 70 L 90.5 68 Z " /><path fill="rgb(208,229,218)" stroke="rgb(208,229,218)" stroke-width="1" opacity="1" d="M 87.5 74 L 88 76.5 L 87 76.5 L 87.5 74 Z " /><path fill="rgb(208,229,218)" stroke="rgb(208,229,218)" stroke-width="1" opacity="1" d="M 154.5 76 L 155 90.5 L 154 90.5 L 154.5 76 Z " /><path fill="rgb(208,229,218)" stroke="rgb(208,229,218)" stroke-width="1" opacity="1" d="M 86.5 80 L 87 85.5 L 86 85.5 L 86.5 80 Z " /><path fill="rgb(208,229,218)" stroke="rgb(208,229,218)" stroke-width="1" opacity="1" d="M 128.5 88 L 129 90.5 L 128 90.5 L 128.5 88 Z " /><path fill="rgb(208,229,218)" stroke="rgb(208,229,218)" stroke-width="1" opacity="1" d="M 124.5 99 L 119.5 105 L 124.5 99 Z " /><path fill="rgb(208,229,218)" stroke="rgb(208,229,218)" stroke-width="1" opacity="1" d="M 91.5 100 L 95.5 105 L 91.5 100 Z " /><path fill="rgb(208,229,218)" stroke="rgb(208,229,218)" stroke-width="1" opacity="1" d="M 147.5 110 L 146.5 112 L 147.5 110 Z " /><path fill="rgb(208,229,218)" stroke="rgb(208,229,218)" stroke-width="1" opacity="1" d="M 144.5 114 L 138.5 121 L 144.5 114 Z " /><path fill="rgb(208,229,218)" stroke="rgb(208,229,218)" stroke-width="1" opacity="1" d="M 87.5 118 L 91.5 123 L 87.5 118 Z " /><path fill="rgb(208,229,218)" stroke="rgb(208,229,218)" stroke-width="1" opacity="1" d="M 136.5 121 L 135.5 123 L 136.5 121 Z " /><path fill="rgb(208,229,218)" stroke="rgb(208,229,218)" stroke-width="1" opacity="1" d="M 106.5 128 L 119 128.5 L 106.5 129 L 106.5 128 Z " /><path fill="rgb(1,119,55)" stroke="rgb(1,119,55)" stroke-width="1" opacity="1" d="M 98.5 0 L 119.5 2 L 138.5 8 Q 159.6 17.4 174 33.5 Q 186.7 47.3 194 66.5 L 198 81.5 L 200 101.5 L 199 102.5 L 198 119.5 L 192 138.5 Q 182.6 159.6 166.5 174 Q 152.7 186.7 133.5 194 L 118.5 198 L 98.5 200 L 97.5 199 L 80.5 198 L 61.5 192 Q 40.4 182.6 26 166.5 Q 13.3 152.7 6 133.5 L 2 118.5 L 0 98.5 L 1 97.5 L 2 80.5 L 8 61.5 Q 17.4 40.4 33.5 26 Q 45.5 15 61.5 8 L 81.5 2 L 97.5 1 L 98.5 0 Z M 107 38 Q 92 41 86 51 L 83 45 L 77 40 L 51 40 L 51 61 L 61 61 L 62 63 L 62 163 L 63 163 L 87 163 L 88 119 Q 94 127 107 129 Q 128 130 139 121 L 148 111 L 152 103 L 155 91 Q 157 64 145 52 Q 134 36 107 38 Z " /><path fill="rgb(1,119,55)" stroke="rgb(1,119,55)" stroke-width="1" opacity="1" d="M 104.5 59 Q 120.1 58.4 125 68.5 L 129 79.5 L 129 87.5 Q 127 99.5 118.5 105 L 110.5 108 L 103.5 108 Q 95.2 105.9 91 99.5 Q 85.3 92.2 87 77.5 Q 88.7 66.7 96.5 62 L 104.5 59 Z " /><path fill="rgb(254,254,254)" stroke="rgb(254,254,254)" stroke-width="1" opacity="1" d="M 110.5 38 L 113 38.5 L 110.5 39 L 110.5 38 Z " /><path fill="rgb(254,254,254)" stroke="rgb(254,254,254)" stroke-width="1" opacity="1" d="M 115.5 38 L 118 38.5 L 115.5 39 L 115.5 38 Z " /><path fill="rgb(254,254,254)" stroke="rgb(254,254,254)" stroke-width="1" opacity="1" d="M 81.5 44 L 82.5 46 L 81.5 44 Z " /><path fill="rgb(254,254,254)" stroke="rgb(254,254,254)" stroke-width="1" opacity="1" d="M 90.5 46 L 88.5 49 L 90.5 46 Z " /><path fill="rgb(254,254,254)" stroke="rgb(254,254,254)" stroke-width="1" opacity="1" d="M 138.5 46 L 140.5 49 L 138.5 46 Z " /><path fill="rgb(254,254,254)" stroke="rgb(254,254,254)" stroke-width="1" opacity="1" d="M 143.5 51 L 145.5 54 L 143.5 51 Z " /><path fill="rgb(254,254,254)" stroke="rgb(254,254,254)" stroke-width="1" opacity="1" d="M 146.5 55 L 147.5 57 L 146.5 55 Z " /><path fill="rgb(254,254,254)" stroke="rgb(254,254,254)" stroke-width="1" opacity="1" d="M 93.5 63 L 92.5 65 L 93.5 63 Z " /><path fill="rgb(254,254,254)" stroke="rgb(254,254,254)" stroke-width="1" opacity="1" d="M 90.5 67 L 89.5 69 L 90.5 67 Z " /><path fill="rgb(254,254,254)" stroke="rgb(254,254,254)" stroke-width="1" opacity="1" d="M 153.5 72 L 154 74.5 L 153 74.5 L 153.5 72 Z " /><path fill="rgb(254,254,254)" stroke="rgb(254,254,254)" stroke-width="1" opacity="1" d="M 129.5 81 L 130 85.5 L 129 85.5 L 129.5 81 Z " /><path fill="rgb(254,254,254)" stroke="rgb(254,254,254)" stroke-width="1" opacity="1" d="M 153.5 91 L 154 93.5 L 153 93.5 L 153.5 91 Z " /><path fill="rgb(254,254,254)" stroke="rgb(254,254,254)" stroke-width="1" opacity="1" d="M 123.5 101 L 121.5 104 L 123.5 101 Z " /><path fill="rgb(254,254,254)" stroke="rgb(254,254,254)" stroke-width="1" opacity="1" d="M 105.5 108 L 109 108.5 L 105.5 109 L 105.5 108 Z " /><path fill="rgb(254,254,254)" stroke="rgb(254,254,254)" stroke-width="1" opacity="1" d="M 145.5 112 L 144.5 114 L 145.5 112 Z " /><path fill="rgb(254,254,254)" stroke="rgb(254,254,254)" stroke-width="1" opacity="1" d="M 87.5 117 L 88.5 119 L 87.5 117 Z " /><path fill="rgb(254,254,254)" stroke="rgb(254,254,254)" stroke-width="1" opacity="1" d="M 139.5 118 L 137.5 121 L 139.5 118 Z " /><path fill="rgb(254,254,254)" stroke="rgb(254,254,254)" stroke-width="1" opacity="1" d="M 92.5 122 L 93.5 124 L 92.5 122 Z " /><path fill="rgb(254,254,254)" stroke="rgb(254,254,254)" stroke-width="1" opacity="1" d="M 103.5 127 L 106 127.5 L 103.5 128 L 103.5 127 Z " /><path fill="rgb(254,254,254)" stroke="rgb(254,254,254)" stroke-width="1" opacity="1" d="M 62.5 162 L 87 162.5 L 62.5 163 L 62.5 162 Z " /><path fill="rgb(255,255,255)" stroke="rgb(255,255,255)" stroke-width="1" opacity="1" d="M 113.5 38 Q 116.7 40.3 123.5 39 L 129.5 41 L 143 50.5 Q 149.8 58.2 153 69.5 L 154 90.5 L 151 102.5 L 144 115 Q 141.3 113.9 142 116.5 Q 135.3 123.8 124.5 127 L 106.5 128 L 98.5 126 L 89 119.5 L 87.5 117 L 87 162 L 62.5 162 L 62 161.5 L 62 61.5 L 61.5 61 L 52 61 L 52 40 L 73.5 40 L 81 43 L 85.5 52 Q 87.8 52.8 87 50.5 Q 91.8 44.3 99.5 41 L 104.5 39 L 112.5 39 L 113.5 38 Z M 101 59 L 94 63 L 88 71 L 86 80 L 87 93 L 93 104 L 101 108 L 106 109 L 115 108 L 122 104 L 128 95 L 130 86 L 128 73 L 123 64 L 115 59 L 101 59 Z " /></svg>