<svg width="120" height="120" viewBox="0 0 24 24" xmlns="http://www.w3.org/2000/svg">
  <!-- Elephant head -->
  <path d="M12 3C8 3 6 6 6 9V15C6 17 7.5 19 10 19H11V16H10.5C9.5 16 9 15.5 9 14.5V13H11C14 13 17 11 17 8C17 5 15 3 12 3Z" fill="#336791"></path>

  <!-- Trunk -->
  <path d="M11 13H14C15.5 13 16.5 14 16.5 15.5C16.5 17 15.5 18 14 18H12V16H14C14.5 16 15 15.5 15 15C15 14.5 14.5 14 14 14H11V13Z" fill="#336791"></path>

  <!-- Eye -->
  <circle cx="11" cy="8" r="0.6" fill="white"></circle>
</svg>