<svg width="512" height="512" version="1.1" xmlns="http://www.w3.org/2000/svg" desc="Created with imagetracer.js version 1.2.6" ><path fill="rgb(93,120,142)" stroke="rgb(93,120,142)" stroke-width="1" opacity="1" d="M 360.5 13 L 370 13.5 L 360.5 14 L 360.5 13 Z " /><path fill="rgb(93,120,142)" stroke="rgb(93,120,142)" stroke-width="1" opacity="1" d="M 345.5 14 L 349 14.5 L 345.5 15 L 345.5 14 Z " /><path fill="rgb(93,120,142)" stroke="rgb(93,120,142)" stroke-width="1" opacity="1" d="M 381.5 14 L 385 14.5 L 381.5 15 L 381.5 14 Z " /><path fill="rgb(93,120,142)" stroke="rgb(93,120,142)" stroke-width="1" opacity="1" d="M 337.5 15 L 340 15.5 L 337.5 16 L 337.5 15 Z " /><path fill="rgb(93,120,142)" stroke="rgb(93,120,142)" stroke-width="1" opacity="1" d="M 253.5 19 L 257 19.5 L 253.5 20 L 253.5 19 Z " /><path fill="rgb(93,120,142)" stroke="rgb(93,120,142)" stroke-width="1" opacity="1" d="M 274.5 19 L 279 19.5 L 274.5 20 L 274.5 19 Z " /><path fill="rgb(93,120,142)" stroke="rgb(93,120,142)" stroke-width="1" opacity="1" d="M 110.5 20 L 116 20.5 L 110.5 21 L 110.5 20 Z " /><path fill="rgb(93,120,142)" stroke="rgb(93,120,142)" stroke-width="1" opacity="1" d="M 132.5 20 L 137 20.5 L 132.5 21 L 132.5 20 Z " /><path fill="rgb(93,120,142)" stroke="rgb(93,120,142)" stroke-width="1" opacity="1" d="M 285.5 20 L 288 20.5 L 285.5 21 L 285.5 20 Z " /><path fill="rgb(93,120,142)" stroke="rgb(93,120,142)" stroke-width="1" opacity="1" d="M 144.5 21 L 148 21.5 L 144.5 22 L 144.5 21 Z " /><path fill="rgb(93,120,142)" stroke="rgb(93,120,142)" stroke-width="1" opacity="1" d="M 152.5 22 L 155 22.5 L 152.5 23 L 152.5 22 Z " /><path fill="rgb(93,120,142)" stroke="rgb(93,120,142)" stroke-width="1" opacity="1" d="M 352.5 28 L 358 28.5 L 352.5 29 L 352.5 28 Z " /><path fill="rgb(93,120,142)" stroke="rgb(93,120,142)" stroke-width="1" opacity="1" d="M 372.5 28 L 378 28.5 L 372.5 29 L 372.5 28 Z " /><path fill="rgb(93,120,142)" stroke="rgb(93,120,142)" stroke-width="1" opacity="1" d="M 343.5 29 L 346 29.5 L 343.5 30 L 343.5 29 Z " /><path fill="rgb(93,120,142)" stroke="rgb(93,120,142)" stroke-width="1" opacity="1" d="M 330.5 31 L 332 31.5 L 329.5 33 L 330.5 31 Z " /><path fill="rgb(93,120,142)" stroke="rgb(93,120,142)" stroke-width="1" opacity="1" d="M 262.5 33 L 268 33.5 L 262.5 34 L 262.5 33 Z " /><path fill="rgb(93,120,142)" stroke="rgb(93,120,142)" stroke-width="1" opacity="1" d="M 250.5 34 L 253 34.5 L 250.5 35 L 250.5 34 Z " /><path fill="rgb(93,120,142)" stroke="rgb(93,120,142)" stroke-width="1" opacity="1" d="M 279.5 34 L 283 34.5 L 279.5 35 L 279.5 34 Z " /><path fill="rgb(93,120,142)" stroke="rgb(93,120,142)" stroke-width="1" opacity="1" d="M 107.5 35 L 111 35.5 L 107.5 36 L 107.5 35 Z " /><path fill="rgb(93,120,142)" stroke="rgb(93,120,142)" stroke-width="1" opacity="1" d="M 137.5 35 L 141 35.5 L 137.5 36 L 137.5 35 Z " /><path fill="rgb(93,120,142)" stroke="rgb(93,120,142)" stroke-width="1" opacity="1" d="M 451.5 39 L 452.5 41 L 451.5 39 Z " /><path fill="rgb(93,120,142)" stroke="rgb(93,120,142)" stroke-width="1" opacity="1" d="M 455.5 42 L 456.5 44 L 455.5 42 Z " /><path fill="rgb(93,120,142)" stroke="rgb(93,120,142)" stroke-width="1" opacity="1" d="M 52.5 43 L 46.5 50 L 52.5 43 Z " /><path fill="rgb(93,120,142)" stroke="rgb(93,120,142)" stroke-width="1" opacity="1" d="M 349.5 43 L 350.5 45 L 349.5 43 Z " /><path fill="rgb(93,120,142)" stroke="rgb(93,120,142)" stroke-width="1" opacity="1" d="M 219.5 44 L 218.5 46 L 219.5 44 Z " /><path fill="rgb(93,120,142)" stroke="rgb(93,120,142)" stroke-width="1" opacity="1" d="M 352.5 45 L 353.5 47 L 352.5 45 Z " /><path fill="rgb(93,120,142)" stroke="rgb(93,120,142)" stroke-width="1" opacity="1" d="M 434.5 45 L 435.5 47 L 434.5 45 Z " /><path fill="rgb(93,120,142)" stroke="rgb(93,120,142)" stroke-width="1" opacity="1" d="M 461.5 47 L 472.5 59 L 461.5 47 Z " /><path fill="rgb(93,120,142)" stroke="rgb(93,120,142)" stroke-width="1" opacity="1" d="M 356.5 48 L 357.5 50 L 356.5 48 Z " /><path fill="rgb(93,120,142)" stroke="rgb(93,120,142)" stroke-width="1" opacity="1" d="M 210.5 50 L 209.5 52 L 210.5 50 Z " /><path fill="rgb(93,120,142)" stroke="rgb(93,120,142)" stroke-width="1" opacity="1" d="M 65.5 51 L 62.5 55 L 65.5 51 Z " /><path fill="rgb(93,120,142)" stroke="rgb(93,120,142)" stroke-width="1" opacity="1" d="M 360.5 51 L 361.5 53 L 360.5 51 Z " /><path fill="rgb(93,120,142)" stroke="rgb(93,120,142)" stroke-width="1" opacity="1" d="M 443.5 51 L 445.5 54 L 443.5 51 Z " /><path fill="rgb(93,120,142)" stroke="rgb(93,120,142)" stroke-width="1" opacity="1" d="M 43.5 53 L 42.5 55 L 43.5 53 Z " /><path fill="rgb(93,120,142)" stroke="rgb(93,120,142)" stroke-width="1" opacity="1" d="M 185.5 54 L 184.5 56 L 185.5 54 Z " /><path fill="rgb(93,120,142)" stroke="rgb(93,120,142)" stroke-width="1" opacity="1" d="M 204.5 55 L 200.5 60 L 204.5 55 Z " /><path fill="rgb(93,120,142)" stroke="rgb(93,120,142)" stroke-width="1" opacity="1" d="M 448.5 55 L 450.5 58 L 448.5 55 Z " /><path fill="rgb(93,120,142)" stroke="rgb(93,120,142)" stroke-width="1" opacity="1" d="M 366.5 56 L 370.5 61 L 366.5 56 Z " /><path fill="rgb(93,120,142)" stroke="rgb(93,120,142)" stroke-width="1" opacity="1" d="M 57.5 59 L 55.5 62 L 57.5 59 Z " /><path fill="rgb(93,120,142)" stroke="rgb(93,120,142)" stroke-width="1" opacity="1" d="M 346.5 59 L 347.5 61 L 346.5 59 Z " /><path fill="rgb(93,120,142)" stroke="rgb(93,120,142)" stroke-width="1" opacity="1" d="M 179.5 62 L 178.5 64 L 179.5 62 Z " /><path fill="rgb(93,120,142)" stroke="rgb(93,120,142)" stroke-width="1" opacity="1" d="M 350.5 62 L 351.5 64 L 350.5 62 Z " /><path fill="rgb(93,120,142)" stroke="rgb(93,120,142)" stroke-width="1" opacity="1" d="M 476.5 63 L 477.5 65 L 476.5 63 Z " /><path fill="rgb(93,120,142)" stroke="rgb(93,120,142)" stroke-width="1" opacity="1" d="M 53.5 64 L 52.5 66 L 53.5 64 Z " /><path fill="rgb(93,120,142)" stroke="rgb(93,120,142)" stroke-width="1" opacity="1" d="M 196.5 64 L 195.5 66 L 196.5 64 Z " /><path fill="rgb(93,120,142)" stroke="rgb(93,120,142)" stroke-width="1" opacity="1" d="M 355.5 66 L 358.5 70 L 355.5 66 Z " /><path fill="rgb(93,120,142)" stroke="rgb(93,120,142)" stroke-width="1" opacity="1" d="M 51.5 67 L 50.5 69 L 51.5 67 Z " /><path fill="rgb(93,120,142)" stroke="rgb(93,120,142)" stroke-width="1" opacity="1" d="M 378.5 68 L 382.5 73 L 378.5 68 Z " /><path fill="rgb(93,120,142)" stroke="rgb(93,120,142)" stroke-width="1" opacity="1" d="M 461.5 68 L 464.5 72 L 461.5 68 Z " /><path fill="rgb(93,120,142)" stroke="rgb(93,120,142)" stroke-width="1" opacity="1" d="M 466.5 74 L 467.5 76 L 466.5 74 Z " /><path fill="rgb(93,120,142)" stroke="rgb(93,120,142)" stroke-width="1" opacity="1" d="M 385.5 76 L 387.5 79 L 385.5 76 Z " /><path fill="rgb(93,120,142)" stroke="rgb(93,120,142)" stroke-width="1" opacity="1" d="M 368.5 79 L 372.5 84 L 368.5 79 Z " /><path fill="rgb(93,120,142)" stroke="rgb(93,120,142)" stroke-width="1" opacity="1" d="M 389.5 81 L 390.5 83 L 389.5 81 Z " /><path fill="rgb(93,120,142)" stroke="rgb(93,120,142)" stroke-width="1" opacity="1" d="M 392.5 85 L 393.5 87 L 392.5 85 Z " /><path fill="rgb(93,120,142)" stroke="rgb(93,120,142)" stroke-width="1" opacity="1" d="M 374.5 86 L 376.5 89 L 374.5 86 Z " /><path fill="rgb(93,120,142)" stroke="rgb(93,120,142)" stroke-width="1" opacity="1" d="M 486.5 88 L 487 90.5 L 486 90.5 L 486.5 88 Z " /><path fill="rgb(93,120,142)" stroke="rgb(93,120,142)" stroke-width="1" opacity="1" d="M 378.5 91 L 379.5 93 L 378.5 91 Z " /><path fill="rgb(93,120,142)" stroke="rgb(93,120,142)" stroke-width="1" opacity="1" d="M 472.5 93 L 473 96.5 L 472 96.5 L 472.5 93 Z " /><path fill="rgb(93,120,142)" stroke="rgb(93,120,142)" stroke-width="1" opacity="1" d="M 381.5 95 L 382.5 97 L 381.5 95 Z " /><path fill="rgb(93,120,142)" stroke="rgb(93,120,142)" stroke-width="1" opacity="1" d="M 383.5 98 L 384.5 100 L 383.5 98 Z " /><path fill="rgb(93,120,142)" stroke="rgb(93,120,142)" stroke-width="1" opacity="1" d="M 385.5 101 L 386.5 103 L 385.5 101 Z " /><path fill="rgb(93,120,142)" stroke="rgb(93,120,142)" stroke-width="1" opacity="1" d="M 23.5 103 L 24 105.5 L 23 105.5 L 23.5 103 Z " /><path fill="rgb(93,120,142)" stroke="rgb(93,120,142)" stroke-width="1" opacity="1" d="M 37.5 109 L 38 111.5 L 37 111.5 L 37.5 109 Z " /><path fill="rgb(93,120,142)" stroke="rgb(93,120,142)" stroke-width="1" opacity="1" d="M 472.5 109 L 473 114.5 L 472 114.5 L 472.5 109 Z " /><path fill="rgb(93,120,142)" stroke="rgb(93,120,142)" stroke-width="1" opacity="1" d="M 22.5 112 L 23 115.5 L 22 115.5 L 22.5 112 Z " /><path fill="rgb(93,120,142)" stroke="rgb(93,120,142)" stroke-width="1" opacity="1" d="M 486.5 117 L 487 120.5 L 486 120.5 L 486.5 117 Z " /><path fill="rgb(93,120,142)" stroke="rgb(93,120,142)" stroke-width="1" opacity="1" d="M 36.5 121 L 37 137.5 L 36 137.5 L 36.5 121 Z " /><path fill="rgb(93,120,142)" stroke="rgb(93,120,142)" stroke-width="1" opacity="1" d="M 471.5 121 L 472 124.5 L 471 124.5 L 471.5 121 Z " /><path fill="rgb(93,120,142)" stroke="rgb(93,120,142)" stroke-width="1" opacity="1" d="M 470.5 129 L 471 131.5 L 470 131.5 L 470.5 129 Z " /><path fill="rgb(93,120,142)" stroke="rgb(93,120,142)" stroke-width="1" opacity="1" d="M 386.5 132 L 393 132.5 L 386.5 133 L 386.5 132 Z " /><path fill="rgb(93,120,142)" stroke="rgb(93,120,142)" stroke-width="1" opacity="1" d="M 375.5 133 L 378 133.5 L 375.5 134 L 375.5 133 Z " /><path fill="rgb(93,120,142)" stroke="rgb(93,120,142)" stroke-width="1" opacity="1" d="M 168.5 135 L 169 137.5 L 168 137.5 L 168.5 135 Z " /><path fill="rgb(93,120,142)" stroke="rgb(93,120,142)" stroke-width="1" opacity="1" d="M 203.5 135 L 206 135.5 L 203.5 136 L 203.5 135 Z " /><path fill="rgb(93,120,142)" stroke="rgb(93,120,142)" stroke-width="1" opacity="1" d="M 22.5 142 L 23 145.5 L 22 145.5 L 22.5 142 Z " /><path fill="rgb(93,120,142)" stroke="rgb(93,120,142)" stroke-width="1" opacity="1" d="M 353.5 142 L 349.5 147 L 353.5 142 Z " /><path fill="rgb(93,120,142)" stroke="rgb(93,120,142)" stroke-width="1" opacity="1" d="M 152.5 143 L 153 146.5 L 152 146.5 L 152.5 143 Z " /><path fill="rgb(93,120,142)" stroke="rgb(93,120,142)" stroke-width="1" opacity="1" d="M 167.5 143 L 168 145.5 L 167 145.5 L 167.5 143 Z " /><path fill="rgb(93,120,142)" stroke="rgb(93,120,142)" stroke-width="1" opacity="1" d="M 239.5 144 L 240.5 146 L 239.5 144 Z " /><path fill="rgb(93,120,142)" stroke="rgb(93,120,142)" stroke-width="1" opacity="1" d="M 37.5 146 L 38 148.5 L 37 148.5 L 37.5 146 Z " /><path fill="rgb(93,120,142)" stroke="rgb(93,120,142)" stroke-width="1" opacity="1" d="M 382.5 147 L 396 147.5 L 382.5 148 L 382.5 147 Z " /><path fill="rgb(93,120,142)" stroke="rgb(93,120,142)" stroke-width="1" opacity="1" d="M 243.5 149 L 244.5 151 L 243.5 149 Z " /><path fill="rgb(93,120,142)" stroke="rgb(93,120,142)" stroke-width="1" opacity="1" d="M 347.5 149 L 346.5 151 L 347.5 149 Z " /><path fill="rgb(93,120,142)" stroke="rgb(93,120,142)" stroke-width="1" opacity="1" d="M 363.5 153 L 360.5 157 L 363.5 153 Z " /><path fill="rgb(93,120,142)" stroke="rgb(93,120,142)" stroke-width="1" opacity="1" d="M 417.5 155 L 418 158.5 L 417 158.5 L 417.5 155 Z " /><path fill="rgb(93,120,142)" stroke="rgb(93,120,142)" stroke-width="1" opacity="1" d="M 210.5 157 L 213 157.5 L 210.5 158 L 210.5 157 Z " /><path fill="rgb(93,120,142)" stroke="rgb(93,120,142)" stroke-width="1" opacity="1" d="M 214.5 157 L 218 157.5 L 214.5 158 L 214.5 157 Z " /><path fill="rgb(93,120,142)" stroke="rgb(93,120,142)" stroke-width="1" opacity="1" d="M 367.5 157 L 366.5 159 L 367.5 157 Z " /><path fill="rgb(93,120,142)" stroke="rgb(93,120,142)" stroke-width="1" opacity="1" d="M 402.5 157 L 403 159.5 L 402 159.5 L 402.5 157 Z " /><path fill="rgb(93,120,142)" stroke="rgb(93,120,142)" stroke-width="1" opacity="1" d="M 151.5 160 L 152 163.5 L 151 163.5 L 151.5 160 Z " /><path fill="rgb(93,120,142)" stroke="rgb(93,120,142)" stroke-width="1" opacity="1" d="M 168.5 164 L 167 166.5 L 166.5 169 L 166 166.5 L 168.5 164 Z " /><path fill="rgb(93,120,142)" stroke="rgb(93,120,142)" stroke-width="1" opacity="1" d="M 341.5 164 L 342 166.5 L 341 166.5 L 341.5 164 Z " /><path fill="rgb(93,120,142)" stroke="rgb(93,120,142)" stroke-width="1" opacity="1" d="M 367.5 164 L 369.5 167 L 367.5 164 Z " /><path fill="rgb(93,120,142)" stroke="rgb(93,120,142)" stroke-width="1" opacity="1" d="M 416.5 164 L 417 166.5 L 416 166.5 L 416.5 164 Z " /><path fill="rgb(93,120,142)" stroke="rgb(93,120,142)" stroke-width="1" opacity="1" d="M 384.5 166 L 383.5 168 L 384.5 166 Z " /><path fill="rgb(93,120,142)" stroke="rgb(93,120,142)" stroke-width="1" opacity="1" d="M 204.5 167 L 205.5 169 L 204.5 167 Z " /><path fill="rgb(93,120,142)" stroke="rgb(93,120,142)" stroke-width="1" opacity="1" d="M 228.5 169 L 225.5 173 L 228.5 169 Z " /><path fill="rgb(93,120,142)" stroke="rgb(93,120,142)" stroke-width="1" opacity="1" d="M 355.5 170 L 356 175.5 L 355 175.5 L 355.5 170 Z " /><path fill="rgb(93,120,142)" stroke="rgb(93,120,142)" stroke-width="1" opacity="1" d="M 208.5 171 L 209.5 173 L 208.5 171 Z " /><path fill="rgb(93,120,142)" stroke="rgb(93,120,142)" stroke-width="1" opacity="1" d="M 415.5 171 L 416 173.5 L 415 173.5 L 415.5 171 Z " /><path fill="rgb(93,120,142)" stroke="rgb(93,120,142)" stroke-width="1" opacity="1" d="M 152.5 177 L 153 185.5 L 152 185.5 L 152.5 177 Z " /><path fill="rgb(93,120,142)" stroke="rgb(93,120,142)" stroke-width="1" opacity="1" d="M 414.5 178 L 415 180.5 L 414 180.5 L 414.5 178 Z " /><path fill="rgb(93,120,142)" stroke="rgb(93,120,142)" stroke-width="1" opacity="1" d="M 399.5 179 L 400 181.5 L 399 181.5 L 399.5 179 Z " /><path fill="rgb(93,120,142)" stroke="rgb(93,120,142)" stroke-width="1" opacity="1" d="M 341.5 180 L 342 182.5 L 341 182.5 L 341.5 180 Z " /><path fill="rgb(93,120,142)" stroke="rgb(93,120,142)" stroke-width="1" opacity="1" d="M 167.5 181 L 168 207.5 L 167 207.5 L 167.5 181 Z " /><path fill="rgb(93,120,142)" stroke="rgb(93,120,142)" stroke-width="1" opacity="1" d="M 254.5 186 L 255 188.5 L 254 188.5 L 254.5 186 Z " /><path fill="rgb(93,120,142)" stroke="rgb(93,120,142)" stroke-width="1" opacity="1" d="M 413.5 187 L 414 202.5 L 413 202.5 L 413.5 187 Z " /><path fill="rgb(93,120,142)" stroke="rgb(93,120,142)" stroke-width="1" opacity="1" d="M 398.5 190 L 399 199.5 L 398 199.5 L 398.5 190 Z " /><path fill="rgb(93,120,142)" stroke="rgb(93,120,142)" stroke-width="1" opacity="1" d="M 240.5 193 L 241 195.5 L 240 195.5 L 240.5 193 Z " /><path fill="rgb(93,120,142)" stroke="rgb(93,120,142)" stroke-width="1" opacity="1" d="M 255.5 194 L 256 197.5 L 255 197.5 L 255.5 194 Z " /><path fill="rgb(93,120,142)" stroke="rgb(93,120,142)" stroke-width="1" opacity="1" d="M 152.5 204 L 153 211.5 L 152 211.5 L 152.5 204 Z " /><path fill="rgb(93,120,142)" stroke="rgb(93,120,142)" stroke-width="1" opacity="1" d="M 241.5 204 L 242 221.5 L 241 221.5 L 241.5 204 Z " /><path fill="rgb(93,120,142)" stroke="rgb(93,120,142)" stroke-width="1" opacity="1" d="M 399.5 209 L 400 211.5 L 399 211.5 L 399.5 209 Z " /><path fill="rgb(93,120,142)" stroke="rgb(93,120,142)" stroke-width="1" opacity="1" d="M 256.5 210 L 257 215.5 L 256 215.5 L 256.5 210 Z " /><path fill="rgb(93,120,142)" stroke="rgb(93,120,142)" stroke-width="1" opacity="1" d="M 414.5 210 L 415 212.5 L 414 212.5 L 414.5 210 Z " /><path fill="rgb(93,120,142)" stroke="rgb(93,120,142)" stroke-width="1" opacity="1" d="M 166.5 218 L 167 222.5 L 166 222.5 L 166.5 218 Z " /><path fill="rgb(93,120,142)" stroke="rgb(93,120,142)" stroke-width="1" opacity="1" d="M 400.5 218 L 401 220.5 L 400 220.5 L 400.5 218 Z " /><path fill="rgb(93,120,142)" stroke="rgb(93,120,142)" stroke-width="1" opacity="1" d="M 415.5 219 L 416 221.5 L 415 221.5 L 415.5 219 Z " /><path fill="rgb(93,120,142)" stroke="rgb(93,120,142)" stroke-width="1" opacity="1" d="M 151.5 220 L 152 223.5 L 151 223.5 L 151.5 220 Z " /><path fill="rgb(93,120,142)" stroke="rgb(93,120,142)" stroke-width="1" opacity="1" d="M 401.5 226 L 402 229.5 L 401 229.5 L 401.5 226 Z " /><path fill="rgb(93,120,142)" stroke="rgb(93,120,142)" stroke-width="1" opacity="1" d="M 165.5 228 L 166 230.5 L 165 230.5 L 165.5 228 Z " /><path fill="rgb(93,120,142)" stroke="rgb(93,120,142)" stroke-width="1" opacity="1" d="M 255.5 228 L 256 230.5 L 255 230.5 L 255.5 228 Z " /><path fill="rgb(93,120,142)" stroke="rgb(93,120,142)" stroke-width="1" opacity="1" d="M 416.5 228 L 417 231.5 L 416 231.5 L 416.5 228 Z " /><path fill="rgb(93,120,142)" stroke="rgb(93,120,142)" stroke-width="1" opacity="1" d="M 150.5 229 L 151 231.5 L 150 231.5 L 150.5 229 Z " /><path fill="rgb(93,120,142)" stroke="rgb(93,120,142)" stroke-width="1" opacity="1" d="M 164.5 238 L 165 244.5 L 164 244.5 L 164.5 238 Z " /><path fill="rgb(93,120,142)" stroke="rgb(93,120,142)" stroke-width="1" opacity="1" d="M 402.5 240 L 403 247.5 L 402 247.5 L 402.5 240 Z " /><path fill="rgb(93,120,142)" stroke="rgb(93,120,142)" stroke-width="1" opacity="1" d="M 150.5 250 L 151 252.5 L 150 252.5 L 150.5 250 Z " /><path fill="rgb(93,120,142)" stroke="rgb(93,120,142)" stroke-width="1" opacity="1" d="M 416.5 254 L 417 256.5 L 416 256.5 L 416.5 254 Z " /><path fill="rgb(93,120,142)" stroke="rgb(93,120,142)" stroke-width="1" opacity="1" d="M 176.5 277 L 177.5 279 L 176.5 277 Z " /><path fill="rgb(93,120,142)" stroke="rgb(93,120,142)" stroke-width="1" opacity="1" d="M 162.5 283 L 163.5 285 L 162.5 283 Z " /><path fill="rgb(93,120,142)" stroke="rgb(93,120,142)" stroke-width="1" opacity="1" d="M 386.5 285 L 387.5 287 L 386.5 285 Z " /><path fill="rgb(93,120,142)" stroke="rgb(93,120,142)" stroke-width="1" opacity="1" d="M 165.5 287 L 167.5 290 L 165.5 287 Z " /><path fill="rgb(93,120,142)" stroke="rgb(93,120,142)" stroke-width="1" opacity="1" d="M 186.5 287 L 187.5 289 L 186.5 287 Z " /><path fill="rgb(93,120,142)" stroke="rgb(93,120,142)" stroke-width="1" opacity="1" d="M 406.5 287 L 408.5 288 L 410 287.5 L 407.5 289 L 406.5 287 Z " /><path fill="rgb(93,120,142)" stroke="rgb(93,120,142)" stroke-width="1" opacity="1" d="M 391.5 292 L 392.5 294 L 391.5 292 Z " /><path fill="rgb(93,120,142)" stroke="rgb(93,120,142)" stroke-width="1" opacity="1" d="M 395.5 297 L 396.5 299 L 395.5 297 Z " /><path fill="rgb(93,120,142)" stroke="rgb(93,120,142)" stroke-width="1" opacity="1" d="M 174.5 298 L 169.5 304 L 174.5 298 Z " /><path fill="rgb(93,120,142)" stroke="rgb(93,120,142)" stroke-width="1" opacity="1" d="M 211.5 298 L 216 298.5 L 211.5 299 L 211.5 298 Z " /><path fill="rgb(93,120,142)" stroke="rgb(93,120,142)" stroke-width="1" opacity="1" d="M 418.5 300 L 417.5 302 L 418.5 300 Z " /><path fill="rgb(93,120,142)" stroke="rgb(93,120,142)" stroke-width="1" opacity="1" d="M 234.5 301 L 238 301.5 L 234.5 302 L 234.5 301 Z " /><path fill="rgb(93,120,142)" stroke="rgb(93,120,142)" stroke-width="1" opacity="1" d="M 470.5 303 L 473 303.5 L 470.5 304 L 470.5 303 Z " /><path fill="rgb(93,120,142)" stroke="rgb(93,120,142)" stroke-width="1" opacity="1" d="M 250.5 306 L 251.5 308 L 250.5 306 Z " /><path fill="rgb(93,120,142)" stroke="rgb(93,120,142)" stroke-width="1" opacity="1" d="M 386.5 307 L 384.5 310 L 386.5 307 Z " /><path fill="rgb(93,120,142)" stroke="rgb(93,120,142)" stroke-width="1" opacity="1" d="M 429.5 307 L 434 307.5 L 429.5 308 L 429.5 307 Z " /><path fill="rgb(93,120,142)" stroke="rgb(93,120,142)" stroke-width="1" opacity="1" d="M 441.5 307 L 447 307.5 L 441.5 308 L 441.5 307 Z " /><path fill="rgb(93,120,142)" stroke="rgb(93,120,142)" stroke-width="1" opacity="1" d="M 163.5 310 L 159.5 315 L 163.5 310 Z " /><path fill="rgb(93,120,142)" stroke="rgb(93,120,142)" stroke-width="1" opacity="1" d="M 255.5 311 L 256.5 313 L 255.5 311 Z " /><path fill="rgb(93,120,142)" stroke="rgb(93,120,142)" stroke-width="1" opacity="1" d="M 206.5 312 L 209 312.5 L 206.5 313 L 206.5 312 Z " /><path fill="rgb(93,120,142)" stroke="rgb(93,120,142)" stroke-width="1" opacity="1" d="M 215.5 313 L 216 314.5 L 214 315.5 L 215.5 313 Z " /><path fill="rgb(93,120,142)" stroke="rgb(93,120,142)" stroke-width="1" opacity="1" d="M 179.5 314 L 176.5 318 L 179.5 314 Z " /><path fill="rgb(93,120,142)" stroke="rgb(93,120,142)" stroke-width="1" opacity="1" d="M 489.5 314 L 490 316.5 L 489 316.5 L 489.5 314 Z " /><path fill="rgb(93,120,142)" stroke="rgb(93,120,142)" stroke-width="1" opacity="1" d="M 234.5 316 L 238 316.5 L 234.5 317 L 234.5 316 Z " /><path fill="rgb(93,120,142)" stroke="rgb(93,120,142)" stroke-width="1" opacity="1" d="M 232.5 317 L 228.5 322 L 232.5 317 Z " /><path fill="rgb(93,120,142)" stroke="rgb(93,120,142)" stroke-width="1" opacity="1" d="M 396.5 318 L 395.5 320 L 396.5 318 Z " /><path fill="rgb(93,120,142)" stroke="rgb(93,120,142)" stroke-width="1" opacity="1" d="M 469 318 L 471 318.5 L 469 319.5 L 469 318 Z " /><path fill="rgb(93,120,142)" stroke="rgb(93,120,142)" stroke-width="1" opacity="1" d="M 155.5 319 L 152.5 323 L 155.5 319 Z " /><path fill="rgb(93,120,142)" stroke="rgb(93,120,142)" stroke-width="1" opacity="1" d="M 211.5 319 L 210.5 321 L 211.5 319 Z " /><path fill="rgb(93,120,142)" stroke="rgb(93,120,142)" stroke-width="1" opacity="1" d="M 450.5 321 L 453 321.5 L 450.5 322 L 450.5 321 Z " /><path fill="rgb(93,120,142)" stroke="rgb(93,120,142)" stroke-width="1" opacity="1" d="M 170.5 324 L 167.5 328 L 170.5 324 Z " /><path fill="rgb(93,120,142)" stroke="rgb(93,120,142)" stroke-width="1" opacity="1" d="M 207.5 324 L 205.5 327 L 207.5 324 Z " /><path fill="rgb(93,120,142)" stroke="rgb(93,120,142)" stroke-width="1" opacity="1" d="M 225.5 325 L 223.5 328 L 225.5 325 Z " /><path fill="rgb(93,120,142)" stroke="rgb(93,120,142)" stroke-width="1" opacity="1" d="M 392.5 326 L 393 328.5 L 392 328.5 L 392.5 326 Z " /><path fill="rgb(93,120,142)" stroke="rgb(93,120,142)" stroke-width="1" opacity="1" d="M 148.5 327 L 145.5 331 L 148.5 327 Z " /><path fill="rgb(93,120,142)" stroke="rgb(93,120,142)" stroke-width="1" opacity="1" d="M 377.5 327 L 378 334.5 L 377 334.5 L 377.5 327 Z " /><path fill="rgb(93,120,142)" stroke="rgb(93,120,142)" stroke-width="1" opacity="1" d="M 92.5 328 L 93.5 330 L 92.5 328 Z " /><path fill="rgb(93,120,142)" stroke="rgb(93,120,142)" stroke-width="1" opacity="1" d="M 221.5 330 L 219.5 333 L 221.5 330 Z " /><path fill="rgb(93,120,142)" stroke="rgb(93,120,142)" stroke-width="1" opacity="1" d="M 477.5 331 L 476.5 333 L 477.5 331 Z " /><path fill="rgb(93,120,142)" stroke="rgb(93,120,142)" stroke-width="1" opacity="1" d="M 162.5 333 L 160.5 336 L 162.5 333 Z " /><path fill="rgb(93,120,142)" stroke="rgb(93,120,142)" stroke-width="1" opacity="1" d="M 96.5 334 L 97.5 336 L 96.5 334 Z " /><path fill="rgb(93,120,142)" stroke="rgb(93,120,142)" stroke-width="1" opacity="1" d="M 142.5 334 L 140.5 337 L 142.5 334 Z " /><path fill="rgb(93,120,142)" stroke="rgb(93,120,142)" stroke-width="1" opacity="1" d="M 245.5 337 L 244.5 339 L 245.5 337 Z " /><path fill="rgb(93,120,142)" stroke="rgb(93,120,142)" stroke-width="1" opacity="1" d="M 423.5 337 L 427 337.5 L 423.5 338 L 423.5 337 Z " /><path fill="rgb(93,120,142)" stroke="rgb(93,120,142)" stroke-width="1" opacity="1" d="M 99.5 338 L 101.5 341 L 99.5 338 Z " /><path fill="rgb(93,120,142)" stroke="rgb(93,120,142)" stroke-width="1" opacity="1" d="M 213.5 338 L 212.5 340 L 213.5 338 Z " /><path fill="rgb(93,120,142)" stroke="rgb(93,120,142)" stroke-width="1" opacity="1" d="M 406.5 338 L 416 338.5 L 406.5 339 L 406.5 338 Z " /><path fill="rgb(93,120,142)" stroke="rgb(93,120,142)" stroke-width="1" opacity="1" d="M 137.5 340 L 130.5 348 L 137.5 340 Z " /><path fill="rgb(93,120,142)" stroke="rgb(93,120,142)" stroke-width="1" opacity="1" d="M 155.5 341 L 154.5 343 L 155.5 341 Z " /><path fill="rgb(93,120,142)" stroke="rgb(93,120,142)" stroke-width="1" opacity="1" d="M 262.5 344 L 263 390.5 L 262 390.5 L 262.5 344 Z " /><path fill="rgb(93,120,142)" stroke="rgb(93,120,142)" stroke-width="1" opacity="1" d="M 376.5 344 L 377 346.5 L 376 346.5 L 376.5 344 Z " /><path fill="rgb(93,120,142)" stroke="rgb(93,120,142)" stroke-width="1" opacity="1" d="M 86.5 345 L 87.5 347 L 86.5 345 Z " /><path fill="rgb(93,120,142)" stroke="rgb(93,120,142)" stroke-width="1" opacity="1" d="M 107.5 346 L 108.5 348 L 107.5 346 Z " /><path fill="rgb(93,120,142)" stroke="rgb(93,120,142)" stroke-width="1" opacity="1" d="M 150.5 347 L 149.5 349 L 150.5 347 Z " /><path fill="rgb(93,120,142)" stroke="rgb(93,120,142)" stroke-width="1" opacity="1" d="M 235.5 347 L 234.5 349 L 235.5 347 Z " /><path fill="rgb(93,120,142)" stroke="rgb(93,120,142)" stroke-width="1" opacity="1" d="M 157.5 349 L 158 353.5 L 157 353.5 L 157.5 349 Z " /><path fill="rgb(93,120,142)" stroke="rgb(93,120,142)" stroke-width="1" opacity="1" d="M 91.5 351 L 95.5 356 L 91.5 351 Z " /><path fill="rgb(93,120,142)" stroke="rgb(93,120,142)" stroke-width="1" opacity="1" d="M 390.5 351 L 391 353.5 L 390 353.5 L 390.5 351 Z " /><path fill="rgb(93,120,142)" stroke="rgb(93,120,142)" stroke-width="1" opacity="1" d="M 399.5 352 L 403 352.5 L 399.5 353 L 399.5 352 Z " /><path fill="rgb(93,120,142)" stroke="rgb(93,120,142)" stroke-width="1" opacity="1" d="M 419.5 352 L 424 352.5 L 419.5 353 L 419.5 352 Z " /><path fill="rgb(93,120,142)" stroke="rgb(93,120,142)" stroke-width="1" opacity="1" d="M 375.5 353 L 376 356.5 L 375 356.5 L 375.5 353 Z " /><path fill="rgb(93,120,142)" stroke="rgb(93,120,142)" stroke-width="1" opacity="1" d="M 247.5 356 L 245.5 359 L 247.5 356 Z " /><path fill="rgb(93,120,142)" stroke="rgb(93,120,142)" stroke-width="1" opacity="1" d="M 194.5 358 L 199 358.5 L 194.5 359 L 194.5 358 Z " /><path fill="rgb(93,120,142)" stroke="rgb(93,120,142)" stroke-width="1" opacity="1" d="M 205.5 358 L 209 358.5 L 205.5 359 L 205.5 358 Z " /><path fill="rgb(93,120,142)" stroke="rgb(93,120,142)" stroke-width="1" opacity="1" d="M 389.5 359 L 390 361.5 L 389 361.5 L 389.5 359 Z " /><path fill="rgb(93,120,142)" stroke="rgb(93,120,142)" stroke-width="1" opacity="1" d="M 374.5 362 L 375 364.5 L 374 364.5 L 374.5 362 Z " /><path fill="rgb(93,120,142)" stroke="rgb(93,120,142)" stroke-width="1" opacity="1" d="M 117.5 366 L 122 366.5 L 117.5 367 L 117.5 366 Z " /><path fill="rgb(93,120,142)" stroke="rgb(93,120,142)" stroke-width="1" opacity="1" d="M 388.5 368 L 389 370.5 L 388 370.5 L 388.5 368 Z " /><path fill="rgb(93,120,142)" stroke="rgb(93,120,142)" stroke-width="1" opacity="1" d="M 373.5 370 L 374 372.5 L 373 372.5 L 373.5 370 Z " /><path fill="rgb(93,120,142)" stroke="rgb(93,120,142)" stroke-width="1" opacity="1" d="M 189.5 372 L 192 372.5 L 189.5 373 L 189.5 372 Z " /><path fill="rgb(93,120,142)" stroke="rgb(93,120,142)" stroke-width="1" opacity="1" d="M 212.5 372 L 215 372.5 L 212.5 373 L 212.5 372 Z " /><path fill="rgb(93,120,142)" stroke="rgb(93,120,142)" stroke-width="1" opacity="1" d="M 387.5 376 L 388 378.5 L 387 378.5 L 387.5 376 Z " /><path fill="rgb(93,120,142)" stroke="rgb(93,120,142)" stroke-width="1" opacity="1" d="M 372.5 379 L 373 381.5 L 372 381.5 L 372.5 379 Z " /><path fill="rgb(93,120,142)" stroke="rgb(93,120,142)" stroke-width="1" opacity="1" d="M 371.5 387 L 372 389.5 L 371 389.5 L 371.5 387 Z " /><path fill="rgb(93,120,142)" stroke="rgb(93,120,142)" stroke-width="1" opacity="1" d="M 385.5 392 L 386 394.5 L 385 394.5 L 385.5 392 Z " /><path fill="rgb(93,120,142)" stroke="rgb(93,120,142)" stroke-width="1" opacity="1" d="M 248.5 399 L 249 409.5 L 248 409.5 L 248.5 399 Z " /><path fill="rgb(93,120,142)" stroke="rgb(93,120,142)" stroke-width="1" opacity="1" d="M 384.5 400 L 385 402.5 L 384 402.5 L 384.5 400 Z " /><path fill="rgb(93,120,142)" stroke="rgb(93,120,142)" stroke-width="1" opacity="1" d="M 369.5 402 L 370 404.5 L 369 404.5 L 369.5 402 Z " /><path fill="rgb(93,120,142)" stroke="rgb(93,120,142)" stroke-width="1" opacity="1" d="M 368.5 410 L 369 412.5 L 368 412.5 L 368.5 410 Z " /><path fill="rgb(93,120,142)" stroke="rgb(93,120,142)" stroke-width="1" opacity="1" d="M 263.5 411 L 264 416.5 L 263 416.5 L 263.5 411 Z " /><path fill="rgb(93,120,142)" stroke="rgb(93,120,142)" stroke-width="1" opacity="1" d="M 382.5 415 L 383 417.5 L 382 417.5 L 382.5 415 Z " /><path fill="rgb(93,120,142)" stroke="rgb(93,120,142)" stroke-width="1" opacity="1" d="M 367.5 417 L 368 419.5 L 367 419.5 L 367.5 417 Z " /><path fill="rgb(93,120,142)" stroke="rgb(93,120,142)" stroke-width="1" opacity="1" d="M 249.5 421 L 250 426.5 L 249 426.5 L 249.5 421 Z " /><path fill="rgb(93,120,142)" stroke="rgb(93,120,142)" stroke-width="1" opacity="1" d="M 381.5 422 L 382 424.5 L 381 424.5 L 381.5 422 Z " /><path fill="rgb(93,120,142)" stroke="rgb(93,120,142)" stroke-width="1" opacity="1" d="M 366.5 424 L 367 426.5 L 366 426.5 L 366.5 424 Z " /><path fill="rgb(93,120,142)" stroke="rgb(93,120,142)" stroke-width="1" opacity="1" d="M 264.5 427 L 265 430.5 L 264 430.5 L 264.5 427 Z " /><path fill="rgb(93,120,142)" stroke="rgb(93,120,142)" stroke-width="1" opacity="1" d="M 250.5 435 L 251 437.5 L 250 437.5 L 250.5 435 Z " /><path fill="rgb(93,120,142)" stroke="rgb(93,120,142)" stroke-width="1" opacity="1" d="M 265.5 438 L 266 440.5 L 265 440.5 L 265.5 438 Z " /><path fill="rgb(93,120,142)" stroke="rgb(93,120,142)" stroke-width="1" opacity="1" d="M 355.5 462 L 354.5 464 L 355.5 462 Z " /><path fill="rgb(93,120,142)" stroke="rgb(93,120,142)" stroke-width="1" opacity="1" d="M 352.5 466 L 349.5 470 L 352.5 466 Z " /><path fill="rgb(93,120,142)" stroke="rgb(93,120,142)" stroke-width="1" opacity="1" d="M 274.5 467 L 275.5 469 L 274.5 467 Z " /><path fill="rgb(93,120,142)" stroke="rgb(93,120,142)" stroke-width="1" opacity="1" d="M 277.5 471 L 283.5 478 L 277.5 471 Z " /><path fill="rgb(93,120,142)" stroke="rgb(93,120,142)" stroke-width="1" opacity="1" d="M 346.5 471 L 345.5 473 L 346.5 471 Z " /><path fill="rgb(93,120,142)" stroke="rgb(93,120,142)" stroke-width="1" opacity="1" d="M 364.5 474 L 363.5 476 L 364.5 474 Z " /><path fill="rgb(93,120,142)" stroke="rgb(93,120,142)" stroke-width="1" opacity="1" d="M 359.5 479 L 357.5 482 L 359.5 479 Z " /><path fill="rgb(93,120,142)" stroke="rgb(93,120,142)" stroke-width="1" opacity="1" d="M 267.5 482 L 272.5 488 L 267.5 482 Z " /><path fill="rgb(93,120,142)" stroke="rgb(93,120,142)" stroke-width="1" opacity="1" d="M 311.5 483 L 314 483.5 L 311.5 484 L 311.5 483 Z " /><path fill="rgb(93,120,142)" stroke="rgb(93,120,142)" stroke-width="1" opacity="1" d="M 298.5 498 L 304 498.5 L 298.5 499 L 298.5 498 Z " /><path fill="rgb(93,120,142)" stroke="rgb(93,120,142)" stroke-width="1" opacity="1" d="M 306.5 498 L 312 498.5 L 306.5 499 L 306.5 498 Z " /><path fill="rgb(51,103,145)" stroke="rgb(51,103,145)" stroke-width="1" opacity="1" d="M 357.5 13 L 360 13.5 L 357.5 14 L 357.5 13 Z " /><path fill="rgb(51,103,145)" stroke="rgb(51,103,145)" stroke-width="1" opacity="1" d="M 370.5 13 L 373 13.5 L 370.5 14 L 370.5 13 Z " /><path fill="rgb(51,103,145)" stroke="rgb(51,103,145)" stroke-width="1" opacity="1" d="M 358.5 28 L 384.5 29 L 414.5 36 Q 442.9 46.6 461 67.5 Q 467.8 73.7 471 83.5 L 472 96.5 L 473 97.5 L 473 108.5 L 472 109.5 L 471 128.5 L 466 154.5 L 451 203.5 Q 438.8 235.8 423 264.5 L 408.5 288 L 406 286.5 L 410 280.5 L 416 262.5 Q 414.7 257.8 417 256.5 L 417 228.5 L 416 227.5 L 416 219.5 L 414 209.5 L 414 181.5 L 418 158.5 L 418 135.5 Q 402 86 366.5 56 Q 350.8 41.8 330 32.5 L 338.5 30 L 357.5 29 L 358.5 28 Z " /><path fill="rgb(51,103,145)" stroke="rgb(51,103,145)" stroke-width="1" opacity="1" d="M 253.5 34 L 278.5 34 L 279.5 35 L 297.5 37 L 311.5 41 Q 345.8 53.7 368 78.5 Q 389.8 101 401 133 L 386.5 132 L 385.5 133 L 375.5 133 L 364.5 136 Q 354.8 139.3 349 146.5 Q 343 153.5 341 164.5 L 341 182.5 L 346 203.5 L 357 230.5 L 377 266.5 L 383 280.5 L 398 302 Q 389.3 303.6 384 309.5 L 379 318.5 L 377 327.5 L 377 343.5 L 376 344.5 L 375 361.5 L 374 362.5 L 371 394.5 L 370 395.5 L 369 409.5 L 368 410.5 L 364 441.5 Q 360.3 460.8 347.5 471 Q 330.1 484.1 299.5 484 Q 283.3 481.3 276 469.5 L 267 450.5 L 266 438.5 L 265 437.5 L 265 427.5 L 264 426.5 L 264 411.5 L 263 410.5 L 263 325.5 Q 259.7 312.8 250.5 306 Q 244.4 301.6 234.5 301 L 232 302 L 238 282.5 L 252 249.5 L 256 230.5 L 257 210.5 L 256 209.5 L 255 186.5 L 251 164.5 Q 247.8 151.7 239.5 144 Q 228.3 132.7 203.5 135 L 183.5 140 L 167.5 148 L 167 146.5 L 168 145.5 L 168 138.5 L 172 116.5 L 181 89.5 Q 190.8 66.8 208.5 52 L 226.5 41 L 237.5 37 L 253.5 34 Z " /><path fill="rgb(51,103,145)" stroke="rgb(51,103,145)" stroke-width="1" opacity="1" d="M 111.5 35 L 136.5 35 L 137.5 36 L 145.5 36 L 172.5 41 L 191 46 L 191 48.5 Q 179.3 58.8 172 73.5 L 163 93.5 L 154 128.5 L 151 163.5 L 152 164.5 L 153 203.5 L 152 204.5 L 152 219.5 L 150 229.5 L 150 252.5 Q 155.5 282 175 297.5 L 128.5 349 L 121.5 352 L 117.5 352 Q 107.6 348.9 102 341.5 Q 88 324.5 79 302.5 L 67 271.5 L 56 235.5 L 44 186.5 L 38 153.5 Q 39.8 147.3 37 145.5 L 37 112.5 L 38 111.5 L 39 98.5 L 44 81.5 Q 50.4 65.9 61.5 55 Q 69.9 46.9 81.5 42 L 97.5 37 L 110.5 36 L 111.5 35 Z " /><path fill="rgb(51,103,145)" stroke="rgb(51,103,145)" stroke-width="1" opacity="1" d="M 54.5 41 L 53.5 43 L 54.5 41 Z " /><path fill="rgb(51,103,145)" stroke="rgb(51,103,145)" stroke-width="1" opacity="1" d="M 487.5 98 L 488 108.5 L 487 108.5 L 487.5 98 Z " /><path fill="rgb(51,103,145)" stroke="rgb(51,103,145)" stroke-width="1" opacity="1" d="M 377.5 148 L 402.5 148 L 403 148.5 L 403 156.5 L 399 179.5 L 398 199.5 L 399 200.5 L 399 211.5 L 400 212.5 L 400 220.5 L 402 230.5 L 402 254.5 L 396.5 273 L 370 222.5 L 362 203.5 L 356 181.5 L 356 166.5 Q 357.8 157.3 364.5 153 L 377.5 148 Z M 375 154 L 366 159 L 367 165 L 374 169 L 384 168 Q 389 165 391 159 L 390 157 L 387 154 L 375 154 Z " /><path fill="rgb(51,103,145)" stroke="rgb(51,103,145)" stroke-width="1" opacity="1" d="M 204.5 150 Q 224.8 147.8 232 158.5 L 236 167.5 L 240 188.5 Q 238.3 194.8 241 196.5 L 241 228.5 L 235 252.5 Q 223.7 273.7 216.5 299 L 215.5 298 L 204.5 297 L 192.5 292 L 178 279.5 Q 169.7 269.7 166 255.5 L 165 250.5 L 165 231.5 L 166 230.5 L 167 208.5 L 168 207.5 L 168 181.5 L 167 180.5 L 167 166.5 Q 181.6 154.1 204.5 150 Z M 211 157 L 207 158 L 203 162 L 204 168 L 214 175 Q 222 176 226 173 Q 231 171 230 164 Q 224 156 211 157 Z " /><path fill="rgb(51,103,145)" stroke="rgb(51,103,145)" stroke-width="1" opacity="1" d="M 434.5 307 L 441 307.5 L 434.5 308 L 434.5 307 Z " /><path fill="rgb(51,103,145)" stroke="rgb(51,103,145)" stroke-width="1" opacity="1" d="M 181.5 312 L 180.5 314 L 181.5 312 Z " /><path fill="rgb(51,103,145)" stroke="rgb(51,103,145)" stroke-width="1" opacity="1" d="M 404.5 315 L 407.5 315 L 419.5 321 L 437.5 323 L 438.5 322 L 452.5 322 L 468.5 319 L 466.5 322 Q 454.1 332.1 435.5 336 L 423.5 337 L 422.5 338 L 400.5 338 L 395.5 337 L 392 334.5 L 393 324.5 L 397.5 318 L 404.5 315 Z " /><path fill="rgb(51,103,145)" stroke="rgb(51,103,145)" stroke-width="1" opacity="1" d="M 233.5 317 L 238.5 317 L 245 321.5 L 248 328.5 L 248 333.5 L 236.5 347 Q 228.8 353.8 217.5 357 L 199.5 359 L 198.5 358 L 190.5 358 L 181.5 356 L 174 352.5 L 205.5 344 Q 215.8 339.3 222 330.5 L 233.5 317 Z " /><path fill="rgb(51,103,145)" stroke="rgb(51,103,145)" stroke-width="1" opacity="1" d="M 483.5 326 L 481.5 329 L 483.5 326 Z " /><path fill="rgb(51,103,145)" stroke="rgb(51,103,145)" stroke-width="1" opacity="1" d="M 157.5 339 L 156.5 341 L 157.5 339 Z " /><path fill="rgb(51,103,145)" stroke="rgb(51,103,145)" stroke-width="1" opacity="1" d="M 145.5 353 L 143.5 356 L 145.5 353 Z " /><path fill="rgb(51,103,145)" stroke="rgb(51,103,145)" stroke-width="1" opacity="1" d="M 96.5 356 L 97.5 358 L 96.5 356 Z " /><path fill="rgb(51,103,145)" stroke="rgb(51,103,145)" stroke-width="1" opacity="1" d="M 198.5 373 L 201 373.5 L 198.5 374 L 198.5 373 Z " /><path fill="rgb(51,103,145)" stroke="rgb(51,103,145)" stroke-width="1" opacity="1" d="M 203.5 373 L 207 373.5 L 203.5 374 L 203.5 373 Z " /><path fill="rgb(0,0,0)" stroke="rgb(0,0,0)" stroke-width="1" opacity="0.9725490196078431" d="M 352.5 0 L 379.5 0 L 380.5 1 L 389.5 1 L 406.5 4 L 423.5 9 Q 457.5 21.5 480 45.5 L 493 61.5 L 499 75.5 L 502 91.5 L 502 118.5 L 501 119.5 L 501 127.5 L 496 156.5 L 481 207.5 Q 464.4 254.4 440 293.5 L 447.5 294 L 467.5 290 L 484.5 290 Q 493.9 292.1 499 298.5 L 504 307.5 L 505 316.5 L 501 328.5 L 490.5 341 Q 474.1 355.6 450.5 363 L 422.5 368 L 401 368 L 400 374.5 L 400 394.5 L 399 395.5 L 398 415.5 L 392 445.5 Q 383.6 476.6 361.5 494 Q 337.4 511.9 295.5 512 L 285.5 510 L 275.5 506 L 261 494.5 Q 253.5 486 249 474.5 L 242 452.5 L 240 435.5 L 239 434.5 L 239 424.5 L 238 423.5 L 237 382 L 214.5 388 L 190.5 388 L 168.5 383 Q 157.2 378.3 149.5 370 Q 142.6 376.6 132.5 380 Q 124.2 382.7 111.5 381 Q 89.8 374.7 78 358.5 L 68 344.5 L 53 315.5 L 43 290.5 L 29 246.5 L 18 202.5 L 10 160.5 L 9 145.5 L 8 144.5 L 8 115.5 L 9 114.5 L 9 105.5 L 12 88.5 L 19 67.5 Q 27.3 48.3 41.5 35 Q 58.8 18.3 85.5 11 L 108.5 7 L 138.5 7 L 139.5 8 L 148.5 8 L 171.5 12 L 204.5 21 L 217.5 14 L 232.5 9 L 248.5 6 L 265.5 6 L 268.5 5 L 269.5 6 L 286.5 6 L 287.5 7 L 295.5 7 L 305.5 9 L 322.5 4 L 340.5 2 L 341.5 1 L 351.5 1 L 352.5 0 Z M 358 13 L 357 14 L 345 14 L 337 16 L 331 16 L 313 20 L 306 23 L 301 23 L 289 20 L 281 20 L 280 19 L 252 19 L 251 20 L 240 21 L 217 29 L 206 36 L 197 32 L 171 25 L 148 21 L 140 21 L 139 20 L 110 20 L 88 24 Q 68 30 55 41 Q 39 54 31 74 L 25 93 L 23 111 L 22 112 L 22 148 L 24 156 L 24 162 L 33 207 L 42 242 L 63 304 L 75 329 L 90 351 Q 99 363 117 367 L 123 367 L 133 364 L 144 356 L 188 306 L 202 312 L 214 313 L 215 315 L 210 322 Q 206 328 198 331 L 175 336 L 164 341 Q 158 343 157 350 Q 156 356 159 359 Q 164 366 174 369 L 184 372 L 198 373 L 199 374 L 215 373 L 227 370 Q 239 365 248 357 L 248 412 L 249 413 L 249 429 L 250 430 L 251 447 Q 255 468 266 482 Q 277 495 298 499 Q 335 499 357 483 Q 372 470 378 448 L 383 419 L 383 412 L 385 404 L 385 397 L 386 396 L 386 389 L 387 388 L 387 381 L 388 380 L 389 364 L 391 351 L 400 353 L 425 353 L 446 349 Q 467 342 482 329 L 490 317 L 489 309 L 482 303 L 471 303 L 452 307 L 427 307 L 417 304 Q 444 262 464 212 L 474 183 L 481 157 L 485 137 L 486 123 L 487 122 L 487 110 L 488 109 L 487 88 L 485 79 Q 482 67 474 60 Q 453 35 420 22 L 393 15 L 374 14 L 373 13 L 358 13 Z " /><path fill="rgb(0,0,0)" stroke="rgb(0,0,0)" stroke-width="1" opacity="0" d="M 0 0 L 352 0.5 L 322.5 4 L 303.5 9 L 286.5 6 L 269.5 6 L 266.5 5 L 265.5 6 L 248.5 6 L 232.5 9 L 217.5 14 L 204.5 21 L 201.5 21 L 187.5 16 L 155.5 9 L 139.5 8 L 138.5 7 L 108.5 7 L 107.5 8 L 89.5 10 L 68.5 17 Q 50.6 25.1 38 38.5 Q 20.7 56.7 13 84.5 L 9 105.5 L 9 114.5 L 8 115.5 L 8 144.5 L 9 145.5 L 9 153.5 L 14 178.5 L 14 183.5 L 21 211.5 L 21 215.5 L 29 246.5 L 43 290.5 Q 53.3 319.7 68 344.5 Q 76.8 359.2 89.5 370 Q 97 376.5 107.5 380 Q 115.8 382.7 128.5 381 Q 141.4 377.9 149.5 370 L 160.5 379 L 178.5 386 L 189.5 387 L 190.5 388 L 214.5 388 L 237 382 L 238 423.5 L 239 424.5 L 239 434.5 L 240 435.5 L 242 452.5 L 249 474.5 L 255 486.5 L 265.5 499 L 279.5 508 L 295 511.5 L 0 512 L 0 0 Z " /><path fill="rgb(0,0,0)" stroke="rgb(0,0,0)" stroke-width="1" opacity="0" d="M 380.5 0 L 511.5 0 L 512 0.5 L 512 512 L 312 511.5 Q 330.9 509.4 345.5 503 Q 363.9 495.4 375 480.5 Q 383.1 470.6 388 457.5 L 395 433.5 L 395 428.5 L 398 415.5 L 398 407.5 L 399 406.5 L 400 374.5 L 401 368 L 431.5 367 L 459.5 360 Q 480.5 351.5 495 336.5 L 503 324.5 L 505 313.5 Q 502.7 312.2 504 307.5 L 501 301.5 L 495.5 295 Q 486.7 287.3 467.5 290 L 455.5 293 L 440.5 294 L 441 292.5 Q 469.8 244.8 488 186.5 L 499 141.5 L 501 119.5 L 502 118.5 L 502 91.5 L 499 75.5 L 493 61.5 L 476.5 42 Q 458.4 24.1 433.5 13 L 410.5 5 L 389.5 1 L 380.5 1 L 380.5 0 Z " /><path fill="rgb(212,221,228)" stroke="rgb(212,221,228)" stroke-width="1" opacity="1" d="M 349.5 14 L 353 14.5 L 349.5 15 L 349.5 14 Z " /><path fill="rgb(212,221,228)" stroke="rgb(212,221,228)" stroke-width="1" opacity="1" d="M 378.5 14 L 381 14.5 L 378.5 15 L 378.5 14 Z " /><path fill="rgb(212,221,228)" stroke="rgb(212,221,228)" stroke-width="1" opacity="1" d="M 257.5 19 L 265 19.5 L 257.5 20 L 257.5 19 Z " /><path fill="rgb(212,221,228)" stroke="rgb(212,221,228)" stroke-width="1" opacity="1" d="M 267.5 19 L 274 19.5 L 267.5 20 L 267.5 19 Z " /><path fill="rgb(212,221,228)" stroke="rgb(212,221,228)" stroke-width="1" opacity="1" d="M 116.5 20 L 132 20.5 L 116.5 21 L 116.5 20 Z " /><path fill="rgb(212,221,228)" stroke="rgb(212,221,228)" stroke-width="1" opacity="1" d="M 104.5 21 L 107 21.5 L 104.5 22 L 104.5 21 Z " /><path fill="rgb(212,221,228)" stroke="rgb(212,221,228)" stroke-width="1" opacity="1" d="M 347.5 28 L 352 28.5 L 347.5 29 L 347.5 28 Z " /><path fill="rgb(212,221,228)" stroke="rgb(212,221,228)" stroke-width="1" opacity="1" d="M 378.5 28 L 383 28.5 L 378.5 29 L 378.5 28 Z " /><path fill="rgb(212,221,228)" stroke="rgb(212,221,228)" stroke-width="1" opacity="1" d="M 339.5 29 L 343 29.5 L 339.5 30 L 339.5 29 Z " /><path fill="rgb(212,221,228)" stroke="rgb(212,221,228)" stroke-width="1" opacity="1" d="M 387.5 29 L 391 29.5 L 387.5 30 L 387.5 29 Z " /><path fill="rgb(212,221,228)" stroke="rgb(212,221,228)" stroke-width="1" opacity="1" d="M 333.5 30 L 336 30.5 L 333.5 31 L 333.5 30 Z " /><path fill="rgb(212,221,228)" stroke="rgb(212,221,228)" stroke-width="1" opacity="1" d="M 328 31 L 330 31.5 L 328 32.5 L 328 31 Z " /><path fill="rgb(212,221,228)" stroke="rgb(212,221,228)" stroke-width="1" opacity="1" d="M 255.5 33 L 262 33.5 L 255.5 34 L 255.5 33 Z " /><path fill="rgb(212,221,228)" stroke="rgb(212,221,228)" stroke-width="1" opacity="1" d="M 268.5 33 L 277 33.5 L 268.5 34 L 268.5 33 Z " /><path fill="rgb(212,221,228)" stroke="rgb(212,221,228)" stroke-width="1" opacity="1" d="M 113.5 34 L 134 34.5 L 113.5 35 L 113.5 34 Z " /><path fill="rgb(212,221,228)" stroke="rgb(212,221,228)" stroke-width="1" opacity="1" d="M 247.5 34 L 250 34.5 L 247.5 35 L 247.5 34 Z " /><path fill="rgb(212,221,228)" stroke="rgb(212,221,228)" stroke-width="1" opacity="1" d="M 283.5 34 L 286 34.5 L 283.5 35 L 283.5 34 Z " /><path fill="rgb(212,221,228)" stroke="rgb(212,221,228)" stroke-width="1" opacity="1" d="M 104.5 35 L 107 35.5 L 104.5 36 L 104.5 35 Z " /><path fill="rgb(212,221,228)" stroke="rgb(212,221,228)" stroke-width="1" opacity="1" d="M 141.5 35 L 144 35.5 L 141.5 36 L 141.5 35 Z " /><path fill="rgb(212,221,228)" stroke="rgb(212,221,228)" stroke-width="1" opacity="1" d="M 289.5 35 L 292 35.5 L 289.5 36 L 289.5 35 Z " /><path fill="rgb(212,221,228)" stroke="rgb(212,221,228)" stroke-width="1" opacity="1" d="M 98.5 36 L 101 36.5 L 98.5 37 L 98.5 36 Z " /><path fill="rgb(212,221,228)" stroke="rgb(212,221,228)" stroke-width="1" opacity="1" d="M 148.5 36 L 152 36.5 L 148.5 37 L 148.5 36 Z " /><path fill="rgb(212,221,228)" stroke="rgb(212,221,228)" stroke-width="1" opacity="1" d="M 60.5 37 L 59.5 39 L 60.5 37 Z " /><path fill="rgb(212,221,228)" stroke="rgb(212,221,228)" stroke-width="1" opacity="1" d="M 155.5 37 L 158 37.5 L 155.5 38 L 155.5 37 Z " /><path fill="rgb(212,221,228)" stroke="rgb(212,221,228)" stroke-width="1" opacity="1" d="M 56.5 40 L 55.5 42 L 56.5 40 Z " /><path fill="rgb(212,221,228)" stroke="rgb(212,221,228)" stroke-width="1" opacity="1" d="M 457.5 44 L 459.5 47 L 457.5 44 Z " /><path fill="rgb(212,221,228)" stroke="rgb(212,221,228)" stroke-width="1" opacity="1" d="M 192.5 46 L 193 47.5 L 186 53.5 L 192.5 46 Z " /><path fill="rgb(212,221,228)" stroke="rgb(212,221,228)" stroke-width="1" opacity="1" d="M 215.5 46 L 214.5 48 L 215.5 46 Z " /><path fill="rgb(212,221,228)" stroke="rgb(212,221,228)" stroke-width="1" opacity="1" d="M 70.5 47 L 69.5 49 L 70.5 47 Z " /><path fill="rgb(212,221,228)" stroke="rgb(212,221,228)" stroke-width="1" opacity="1" d="M 354.5 47 L 355.5 49 L 354.5 47 Z " /><path fill="rgb(212,221,228)" stroke="rgb(212,221,228)" stroke-width="1" opacity="1" d="M 212.5 48 L 211.5 50 L 212.5 48 Z " /><path fill="rgb(212,221,228)" stroke="rgb(212,221,228)" stroke-width="1" opacity="1" d="M 67.5 49 L 66.5 51 L 67.5 49 Z " /><path fill="rgb(212,221,228)" stroke="rgb(212,221,228)" stroke-width="1" opacity="1" d="M 358.5 50 L 359.5 52 L 358.5 50 Z " /><path fill="rgb(212,221,228)" stroke="rgb(212,221,228)" stroke-width="1" opacity="1" d="M 45.5 51 L 44.5 53 L 45.5 51 Z " /><path fill="rgb(212,221,228)" stroke="rgb(212,221,228)" stroke-width="1" opacity="1" d="M 208.5 51 L 205.5 55 L 208.5 51 Z " /><path fill="rgb(212,221,228)" stroke="rgb(212,221,228)" stroke-width="1" opacity="1" d="M 445.5 52 L 447.5 55 L 445.5 52 Z " /><path fill="rgb(212,221,228)" stroke="rgb(212,221,228)" stroke-width="1" opacity="1" d="M 62.5 53 L 57.5 59 L 62.5 53 Z " /><path fill="rgb(212,221,228)" stroke="rgb(212,221,228)" stroke-width="1" opacity="1" d="M 338.5 53 L 339.5 55 L 338.5 53 Z " /><path fill="rgb(212,221,228)" stroke="rgb(212,221,228)" stroke-width="1" opacity="1" d="M 362.5 53 L 365.5 57 L 362.5 53 Z " /><path fill="rgb(212,221,228)" stroke="rgb(212,221,228)" stroke-width="1" opacity="1" d="M 341.5 55 L 342.5 57 L 341.5 55 Z " /><path fill="rgb(212,221,228)" stroke="rgb(212,221,228)" stroke-width="1" opacity="1" d="M 184.5 56 L 182.5 59 L 184.5 56 Z " /><path fill="rgb(212,221,228)" stroke="rgb(212,221,228)" stroke-width="1" opacity="1" d="M 344.5 57 L 345.5 59 L 344.5 57 Z " /><path fill="rgb(212,221,228)" stroke="rgb(212,221,228)" stroke-width="1" opacity="1" d="M 451.5 57 L 462.5 69 L 451.5 57 Z " /><path fill="rgb(212,221,228)" stroke="rgb(212,221,228)" stroke-width="1" opacity="1" d="M 199.5 60 L 196.5 64 L 199.5 60 Z " /><path fill="rgb(212,221,228)" stroke="rgb(212,221,228)" stroke-width="1" opacity="1" d="M 348.5 60 L 349.5 62 L 348.5 60 Z " /><path fill="rgb(212,221,228)" stroke="rgb(212,221,228)" stroke-width="1" opacity="1" d="M 473.5 60 L 475.5 63 L 473.5 60 Z " /><path fill="rgb(212,221,228)" stroke="rgb(212,221,228)" stroke-width="1" opacity="1" d="M 371.5 61 L 377.5 68 L 371.5 61 Z " /><path fill="rgb(212,221,228)" stroke="rgb(212,221,228)" stroke-width="1" opacity="1" d="M 54.5 62 L 53.5 64 L 54.5 62 Z " /><path fill="rgb(212,221,228)" stroke="rgb(212,221,228)" stroke-width="1" opacity="1" d="M 352.5 63 L 354.5 66 L 352.5 63 Z " /><path fill="rgb(212,221,228)" stroke="rgb(212,221,228)" stroke-width="1" opacity="1" d="M 194.5 66 L 193.5 68 L 194.5 66 Z " /><path fill="rgb(212,221,228)" stroke="rgb(212,221,228)" stroke-width="1" opacity="1" d="M 359.5 69 L 369.5 80 L 359.5 69 Z " /><path fill="rgb(212,221,228)" stroke="rgb(212,221,228)" stroke-width="1" opacity="1" d="M 191.5 70 L 190.5 72 L 191.5 70 Z " /><path fill="rgb(212,221,228)" stroke="rgb(212,221,228)" stroke-width="1" opacity="1" d="M 465.5 72 L 466.5 74 L 465.5 72 Z " /><path fill="rgb(212,221,228)" stroke="rgb(212,221,228)" stroke-width="1" opacity="1" d="M 382.5 73 L 384.5 76 L 382.5 73 Z " /><path fill="rgb(212,221,228)" stroke="rgb(212,221,228)" stroke-width="1" opacity="1" d="M 387.5 79 L 388.5 81 L 387.5 79 Z " /><path fill="rgb(212,221,228)" stroke="rgb(212,221,228)" stroke-width="1" opacity="1" d="M 390.5 83 L 391.5 85 L 390.5 83 Z " /><path fill="rgb(212,221,228)" stroke="rgb(212,221,228)" stroke-width="1" opacity="1" d="M 373.5 84 L 374.5 86 L 373.5 84 Z " /><path fill="rgb(212,221,228)" stroke="rgb(212,221,228)" stroke-width="1" opacity="1" d="M 393.5 87 L 394.5 89 L 393.5 87 Z " /><path fill="rgb(212,221,228)" stroke="rgb(212,221,228)" stroke-width="1" opacity="1" d="M 377.5 89 L 378.5 91 L 377.5 89 Z " /><path fill="rgb(212,221,228)" stroke="rgb(212,221,228)" stroke-width="1" opacity="1" d="M 472.5 89 L 473 92.5 L 472 92.5 L 472.5 89 Z " /><path fill="rgb(212,221,228)" stroke="rgb(212,221,228)" stroke-width="1" opacity="1" d="M 395.5 90 L 396.5 92 L 395.5 90 Z " /><path fill="rgb(212,221,228)" stroke="rgb(212,221,228)" stroke-width="1" opacity="1" d="M 380.5 93 L 381.5 95 L 380.5 93 Z " /><path fill="rgb(212,221,228)" stroke="rgb(212,221,228)" stroke-width="1" opacity="1" d="M 397.5 93 L 398.5 95 L 397.5 93 Z " /><path fill="rgb(212,221,228)" stroke="rgb(212,221,228)" stroke-width="1" opacity="1" d="M 38.5 99 L 39 101.5 L 38 101.5 L 38.5 99 Z " /><path fill="rgb(212,221,228)" stroke="rgb(212,221,228)" stroke-width="1" opacity="1" d="M 37.5 105 L 38 108.5 L 37 108.5 L 37.5 105 Z " /><path fill="rgb(212,221,228)" stroke="rgb(212,221,228)" stroke-width="1" opacity="1" d="M 36.5 114 L 37 120.5 L 36 120.5 L 36.5 114 Z " /><path fill="rgb(212,221,228)" stroke="rgb(212,221,228)" stroke-width="1" opacity="1" d="M 486.5 114 L 487 116.5 L 486 116.5 L 486.5 114 Z " /><path fill="rgb(212,221,228)" stroke="rgb(212,221,228)" stroke-width="1" opacity="1" d="M 472.5 115 L 473 119.5 L 472 119.5 L 472.5 115 Z " /><path fill="rgb(212,221,228)" stroke="rgb(212,221,228)" stroke-width="1" opacity="1" d="M 22.5 116 L 23 121.5 L 22 121.5 L 22.5 116 Z " /><path fill="rgb(212,221,228)" stroke="rgb(212,221,228)" stroke-width="1" opacity="1" d="M 156.5 119 L 157 121.5 L 156 121.5 L 156.5 119 Z " /><path fill="rgb(212,221,228)" stroke="rgb(212,221,228)" stroke-width="1" opacity="1" d="M 485.5 124 L 486 126.5 L 485 126.5 L 485.5 124 Z " /><path fill="rgb(212,221,228)" stroke="rgb(212,221,228)" stroke-width="1" opacity="1" d="M 471.5 125 L 472 127.5 L 471 127.5 L 471.5 125 Z " /><path fill="rgb(212,221,228)" stroke="rgb(212,221,228)" stroke-width="1" opacity="1" d="M 169.5 126 L 170 128.5 L 169 128.5 L 169.5 126 Z " /><path fill="rgb(212,221,228)" stroke="rgb(212,221,228)" stroke-width="1" opacity="1" d="M 154.5 130 L 155 132.5 L 154 132.5 L 154.5 130 Z " /><path fill="rgb(212,221,228)" stroke="rgb(212,221,228)" stroke-width="1" opacity="1" d="M 401.5 131 L 402 134 L 397 133.5 L 401 133 L 401.5 131 Z " /><path fill="rgb(212,221,228)" stroke="rgb(212,221,228)" stroke-width="1" opacity="1" d="M 168.5 132 L 169 134.5 L 168 134.5 L 168.5 132 Z " /><path fill="rgb(212,221,228)" stroke="rgb(212,221,228)" stroke-width="1" opacity="1" d="M 378.5 133 L 382 133.5 L 378.5 134 L 378.5 133 Z " /><path fill="rgb(212,221,228)" stroke="rgb(212,221,228)" stroke-width="1" opacity="1" d="M 206.5 135 L 218 135.5 L 206.5 136 L 206.5 135 Z " /><path fill="rgb(212,221,228)" stroke="rgb(212,221,228)" stroke-width="1" opacity="1" d="M 417.5 136 L 418 138.5 L 417 138.5 L 417.5 136 Z " /><path fill="rgb(212,221,228)" stroke="rgb(212,221,228)" stroke-width="1" opacity="1" d="M 22.5 137 L 23 141.5 L 22 141.5 L 22.5 137 Z " /><path fill="rgb(212,221,228)" stroke="rgb(212,221,228)" stroke-width="1" opacity="1" d="M 153.5 137 L 154 140.5 L 153 140.5 L 153.5 137 Z " /><path fill="rgb(212,221,228)" stroke="rgb(212,221,228)" stroke-width="1" opacity="1" d="M 469.5 137 L 470 139.5 L 469 139.5 L 469.5 137 Z " /><path fill="rgb(212,221,228)" stroke="rgb(212,221,228)" stroke-width="1" opacity="1" d="M 36.5 138 L 37 143.5 L 36 143.5 L 36.5 138 Z " /><path fill="rgb(212,221,228)" stroke="rgb(212,221,228)" stroke-width="1" opacity="1" d="M 167.5 139 L 168 142.5 L 167 142.5 L 167.5 139 Z " /><path fill="rgb(212,221,228)" stroke="rgb(212,221,228)" stroke-width="1" opacity="1" d="M 358.5 139 L 357.5 141 L 358.5 139 Z " /><path fill="rgb(212,221,228)" stroke="rgb(212,221,228)" stroke-width="1" opacity="1" d="M 233.5 140 L 234.5 142 L 233.5 140 Z " /><path fill="rgb(212,221,228)" stroke="rgb(212,221,228)" stroke-width="1" opacity="1" d="M 355.5 141 L 353.5 144 L 355.5 141 Z " /><path fill="rgb(212,221,228)" stroke="rgb(212,221,228)" stroke-width="1" opacity="1" d="M 236.5 142 L 242.5 149 L 236.5 142 Z " /><path fill="rgb(212,221,228)" stroke="rgb(212,221,228)" stroke-width="1" opacity="1" d="M 417.5 144 L 418 154.5 L 417 154.5 L 417.5 144 Z " /><path fill="rgb(212,221,228)" stroke="rgb(212,221,228)" stroke-width="1" opacity="1" d="M 170.5 146 L 169.5 148 L 170.5 146 Z " /><path fill="rgb(212,221,228)" stroke="rgb(212,221,228)" stroke-width="1" opacity="1" d="M 152.5 147 L 153 154.5 L 152 154.5 L 152.5 147 Z " /><path fill="rgb(212,221,228)" stroke="rgb(212,221,228)" stroke-width="1" opacity="1" d="M 349.5 147 L 348.5 149 L 349.5 147 Z " /><path fill="rgb(212,221,228)" stroke="rgb(212,221,228)" stroke-width="1" opacity="1" d="M 378.5 147 L 382 147.5 L 378.5 148 L 378.5 147 Z " /><path fill="rgb(212,221,228)" stroke="rgb(212,221,228)" stroke-width="1" opacity="1" d="M 396.5 147 L 401 147.5 L 396.5 148 L 396.5 147 Z " /><path fill="rgb(212,221,228)" stroke="rgb(212,221,228)" stroke-width="1" opacity="1" d="M 403.5 148 L 404 154.5 L 403 154.5 L 403.5 148 Z " /><path fill="rgb(212,221,228)" stroke="rgb(212,221,228)" stroke-width="1" opacity="1" d="M 37.5 149 L 38 151.5 L 37 151.5 L 37.5 149 Z " /><path fill="rgb(212,221,228)" stroke="rgb(212,221,228)" stroke-width="1" opacity="1" d="M 206.5 149 L 217 149.5 L 206.5 150 L 206.5 149 Z " /><path fill="rgb(212,221,228)" stroke="rgb(212,221,228)" stroke-width="1" opacity="1" d="M 227.5 153 L 232.5 159 L 227.5 153 Z " /><path fill="rgb(212,221,228)" stroke="rgb(212,221,228)" stroke-width="1" opacity="1" d="M 245.5 153 L 246.5 155 L 245.5 153 Z " /><path fill="rgb(212,221,228)" stroke="rgb(212,221,228)" stroke-width="1" opacity="1" d="M 375.5 154 L 378 154.5 L 375.5 155 L 375.5 154 Z " /><path fill="rgb(212,221,228)" stroke="rgb(212,221,228)" stroke-width="1" opacity="1" d="M 38.5 156 L 39 158.5 L 38 158.5 L 38.5 156 Z " /><path fill="rgb(212,221,228)" stroke="rgb(212,221,228)" stroke-width="1" opacity="1" d="M 359.5 157 L 358.5 159 L 359.5 157 Z " /><path fill="rgb(212,221,228)" stroke="rgb(212,221,228)" stroke-width="1" opacity="1" d="M 368.5 157 L 366.5 160 L 368.5 157 Z " /><path fill="rgb(212,221,228)" stroke="rgb(212,221,228)" stroke-width="1" opacity="1" d="M 205.5 159 L 204.5 161 L 205.5 159 Z " /><path fill="rgb(212,221,228)" stroke="rgb(212,221,228)" stroke-width="1" opacity="1" d="M 402.5 160 L 403 162.5 L 402 162.5 L 402.5 160 Z " /><path fill="rgb(212,221,228)" stroke="rgb(212,221,228)" stroke-width="1" opacity="1" d="M 227.5 161 L 228.5 163 L 227.5 161 Z " /><path fill="rgb(212,221,228)" stroke="rgb(212,221,228)" stroke-width="1" opacity="1" d="M 416.5 161 L 417 163.5 L 416 163.5 L 416.5 161 Z " /><path fill="rgb(212,221,228)" stroke="rgb(212,221,228)" stroke-width="1" opacity="1" d="M 39.5 162 L 40 164.5 L 39 164.5 L 39.5 162 Z " /><path fill="rgb(212,221,228)" stroke="rgb(212,221,228)" stroke-width="1" opacity="1" d="M 388.5 162 L 385.5 166 L 388.5 162 Z " /><path fill="rgb(212,221,228)" stroke="rgb(212,221,228)" stroke-width="1" opacity="1" d="M 341.5 167 L 342 179.5 L 341 179.5 L 341.5 167 Z " /><path fill="rgb(212,221,228)" stroke="rgb(212,221,228)" stroke-width="1" opacity="1" d="M 355.5 167 L 356 169.5 L 355 169.5 L 355.5 167 Z " /><path fill="rgb(212,221,228)" stroke="rgb(212,221,228)" stroke-width="1" opacity="1" d="M 401.5 167 L 402 169.5 L 401 169.5 L 401.5 167 Z " /><path fill="rgb(212,221,228)" stroke="rgb(212,221,228)" stroke-width="1" opacity="1" d="M 152.5 168 L 153 176.5 L 152 176.5 L 152.5 168 Z " /><path fill="rgb(212,221,228)" stroke="rgb(212,221,228)" stroke-width="1" opacity="1" d="M 375.5 168 L 380 168.5 L 375.5 169 L 375.5 168 Z " /><path fill="rgb(212,221,228)" stroke="rgb(212,221,228)" stroke-width="1" opacity="1" d="M 415.5 168 L 416 170.5 L 415 170.5 L 415.5 168 Z " /><path fill="rgb(212,221,228)" stroke="rgb(212,221,228)" stroke-width="1" opacity="1" d="M 166.5 169 L 167 176.5 L 166 176.5 L 166.5 169 Z " /><path fill="rgb(212,221,228)" stroke="rgb(212,221,228)" stroke-width="1" opacity="1" d="M 206.5 169 L 207.5 171 L 206.5 169 Z " /><path fill="rgb(212,221,228)" stroke="rgb(212,221,228)" stroke-width="1" opacity="1" d="M 41.5 173 L 42 175.5 L 41 175.5 L 41.5 173 Z " /><path fill="rgb(212,221,228)" stroke="rgb(212,221,228)" stroke-width="1" opacity="1" d="M 215.5 174 L 220 174.5 L 215.5 175 L 215.5 174 Z " /><path fill="rgb(212,221,228)" stroke="rgb(212,221,228)" stroke-width="1" opacity="1" d="M 400.5 174 L 401 176.5 L 400 176.5 L 400.5 174 Z " /><path fill="rgb(212,221,228)" stroke="rgb(212,221,228)" stroke-width="1" opacity="1" d="M 414.5 175 L 415 177.5 L 414 177.5 L 414.5 175 Z " /><path fill="rgb(212,221,228)" stroke="rgb(212,221,228)" stroke-width="1" opacity="1" d="M 355.5 176 L 356 179.5 L 355 179.5 L 355.5 176 Z " /><path fill="rgb(212,221,228)" stroke="rgb(212,221,228)" stroke-width="1" opacity="1" d="M 238.5 177 L 239 179.5 L 238 179.5 L 238.5 177 Z " /><path fill="rgb(212,221,228)" stroke="rgb(212,221,228)" stroke-width="1" opacity="1" d="M 253.5 182 L 254 184.5 L 253 184.5 L 253.5 182 Z " /><path fill="rgb(212,221,228)" stroke="rgb(212,221,228)" stroke-width="1" opacity="1" d="M 399.5 182 L 400 186.5 L 399 186.5 L 399.5 182 Z " /><path fill="rgb(212,221,228)" stroke="rgb(212,221,228)" stroke-width="1" opacity="1" d="M 239.5 183 L 240 185.5 L 239 185.5 L 239.5 183 Z " /><path fill="rgb(212,221,228)" stroke="rgb(212,221,228)" stroke-width="1" opacity="1" d="M 413.5 183 L 414 186.5 L 413 186.5 L 413.5 183 Z " /><path fill="rgb(212,221,228)" stroke="rgb(212,221,228)" stroke-width="1" opacity="1" d="M 342.5 184 L 343 186.5 L 342 186.5 L 342.5 184 Z " /><path fill="rgb(212,221,228)" stroke="rgb(212,221,228)" stroke-width="1" opacity="1" d="M 254.5 189 L 255 192.5 L 254 192.5 L 254.5 189 Z " /><path fill="rgb(212,221,228)" stroke="rgb(212,221,228)" stroke-width="1" opacity="1" d="M 240.5 190 L 241 192.5 L 240 192.5 L 240.5 190 Z " /><path fill="rgb(212,221,228)" stroke="rgb(212,221,228)" stroke-width="1" opacity="1" d="M 241.5 198 L 242 203.5 L 241 203.5 L 241.5 198 Z " /><path fill="rgb(212,221,228)" stroke="rgb(212,221,228)" stroke-width="1" opacity="1" d="M 255.5 198 L 256 203.5 L 255 203.5 L 255.5 198 Z " /><path fill="rgb(212,221,228)" stroke="rgb(212,221,228)" stroke-width="1" opacity="1" d="M 399.5 203 L 400 208.5 L 399 208.5 L 399.5 203 Z " /><path fill="rgb(212,221,228)" stroke="rgb(212,221,228)" stroke-width="1" opacity="1" d="M 413.5 203 L 414 207.5 L 413 207.5 L 413.5 203 Z " /><path fill="rgb(212,221,228)" stroke="rgb(212,221,228)" stroke-width="1" opacity="1" d="M 152.5 212 L 153 217.5 L 152 217.5 L 152.5 212 Z " /><path fill="rgb(212,221,228)" stroke="rgb(212,221,228)" stroke-width="1" opacity="1" d="M 166.5 213 L 167 217.5 L 166 217.5 L 166.5 213 Z " /><path fill="rgb(212,221,228)" stroke="rgb(212,221,228)" stroke-width="1" opacity="1" d="M 414.5 213 L 415 216.5 L 414 216.5 L 414.5 213 Z " /><path fill="rgb(212,221,228)" stroke="rgb(212,221,228)" stroke-width="1" opacity="1" d="M 400.5 214 L 401 217.5 L 400 217.5 L 400.5 214 Z " /><path fill="rgb(212,221,228)" stroke="rgb(212,221,228)" stroke-width="1" opacity="1" d="M 241.5 222 L 242 226.5 L 241 226.5 L 241.5 222 Z " /><path fill="rgb(212,221,228)" stroke="rgb(212,221,228)" stroke-width="1" opacity="1" d="M 255.5 222 L 256 227.5 L 255 227.5 L 255.5 222 Z " /><path fill="rgb(212,221,228)" stroke="rgb(212,221,228)" stroke-width="1" opacity="1" d="M 415.5 222 L 416 225.5 L 415 225.5 L 415.5 222 Z " /><path fill="rgb(212,221,228)" stroke="rgb(212,221,228)" stroke-width="1" opacity="1" d="M 401.5 223 L 402 225.5 L 401 225.5 L 401.5 223 Z " /><path fill="rgb(212,221,228)" stroke="rgb(212,221,228)" stroke-width="1" opacity="1" d="M 151.5 224 L 152 226.5 L 151 226.5 L 151.5 224 Z " /><path fill="rgb(212,221,228)" stroke="rgb(212,221,228)" stroke-width="1" opacity="1" d="M 165.5 224 L 166 227.5 L 165 227.5 L 165.5 224 Z " /><path fill="rgb(212,221,228)" stroke="rgb(212,221,228)" stroke-width="1" opacity="1" d="M 240.5 231 L 241 233.5 L 240 233.5 L 240.5 231 Z " /><path fill="rgb(212,221,228)" stroke="rgb(212,221,228)" stroke-width="1" opacity="1" d="M 150.5 232 L 151 236.5 L 150 236.5 L 150.5 232 Z " /><path fill="rgb(212,221,228)" stroke="rgb(212,221,228)" stroke-width="1" opacity="1" d="M 254.5 232 L 255 234.5 L 254 234.5 L 254.5 232 Z " /><path fill="rgb(212,221,228)" stroke="rgb(212,221,228)" stroke-width="1" opacity="1" d="M 416.5 232 L 417 238.5 L 416 238.5 L 416.5 232 Z " /><path fill="rgb(212,221,228)" stroke="rgb(212,221,228)" stroke-width="1" opacity="1" d="M 164.5 233 L 165 237.5 L 164 237.5 L 164.5 233 Z " /><path fill="rgb(212,221,228)" stroke="rgb(212,221,228)" stroke-width="1" opacity="1" d="M 402.5 233 L 403 239.5 L 402 239.5 L 402.5 233 Z " /><path fill="rgb(212,221,228)" stroke="rgb(212,221,228)" stroke-width="1" opacity="1" d="M 150.5 245 L 151 249.5 L 150 249.5 L 150.5 245 Z " /><path fill="rgb(212,221,228)" stroke="rgb(212,221,228)" stroke-width="1" opacity="1" d="M 164.5 245 L 165 249.5 L 164 249.5 L 164.5 245 Z " /><path fill="rgb(212,221,228)" stroke="rgb(212,221,228)" stroke-width="1" opacity="1" d="M 402.5 248 L 403 252.5 L 402 252.5 L 402.5 248 Z " /><path fill="rgb(212,221,228)" stroke="rgb(212,221,228)" stroke-width="1" opacity="1" d="M 416.5 248 L 417 253.5 L 416 253.5 L 416.5 248 Z " /><path fill="rgb(212,221,228)" stroke="rgb(212,221,228)" stroke-width="1" opacity="1" d="M 151.5 254 L 152 256.5 L 151 256.5 L 151.5 254 Z " /><path fill="rgb(212,221,228)" stroke="rgb(212,221,228)" stroke-width="1" opacity="1" d="M 401.5 257 L 402 259.5 L 401 259.5 L 401.5 257 Z " /><path fill="rgb(212,221,228)" stroke="rgb(212,221,228)" stroke-width="1" opacity="1" d="M 172.5 272 L 173.5 274 L 172.5 272 Z " /><path fill="rgb(212,221,228)" stroke="rgb(212,221,228)" stroke-width="1" opacity="1" d="M 395.5 272 L 396.5 274 L 395.5 272 Z " /><path fill="rgb(212,221,228)" stroke="rgb(212,221,228)" stroke-width="1" opacity="1" d="M 174.5 275 L 175.5 277 L 174.5 275 Z " /><path fill="rgb(212,221,228)" stroke="rgb(212,221,228)" stroke-width="1" opacity="1" d="M 415.5 278 L 414.5 280 L 415.5 278 Z " /><path fill="rgb(212,221,228)" stroke="rgb(212,221,228)" stroke-width="1" opacity="1" d="M 177.5 279 L 185.5 288 L 177.5 279 Z " /><path fill="rgb(212,221,228)" stroke="rgb(212,221,228)" stroke-width="1" opacity="1" d="M 384.5 281 L 385.5 283 L 384.5 281 Z " /><path fill="rgb(212,221,228)" stroke="rgb(212,221,228)" stroke-width="1" opacity="1" d="M 412.5 283 L 411.5 285 L 412.5 283 Z " /><path fill="rgb(212,221,228)" stroke="rgb(212,221,228)" stroke-width="1" opacity="1" d="M 164.5 285 L 165.5 287 L 164.5 285 Z " /><path fill="rgb(212,221,228)" stroke="rgb(212,221,228)" stroke-width="1" opacity="1" d="M 388.5 287 L 389.5 289 L 388.5 287 Z " /><path fill="rgb(212,221,228)" stroke="rgb(212,221,228)" stroke-width="1" opacity="1" d="M 188.5 289 L 189.5 291 L 188.5 289 Z " /><path fill="rgb(212,221,228)" stroke="rgb(212,221,228)" stroke-width="1" opacity="1" d="M 168.5 290 L 175.5 298 L 168.5 290 Z " /><path fill="rgb(212,221,228)" stroke="rgb(212,221,228)" stroke-width="1" opacity="1" d="M 390.5 290 L 391.5 292 L 390.5 290 Z " /><path fill="rgb(212,221,228)" stroke="rgb(212,221,228)" stroke-width="1" opacity="1" d="M 393.5 294 L 395.5 297 L 393.5 294 Z " /><path fill="rgb(212,221,228)" stroke="rgb(212,221,228)" stroke-width="1" opacity="1" d="M 397.5 299 L 398.5 301 L 397.5 299 Z " /><path fill="rgb(212,221,228)" stroke="rgb(212,221,228)" stroke-width="1" opacity="1" d="M 231.5 300 L 233 302.5 L 231 303 L 231.5 300 Z " /><path fill="rgb(212,221,228)" stroke="rgb(212,221,228)" stroke-width="1" opacity="1" d="M 473.5 303 L 480 303.5 L 473.5 304 L 473.5 303 Z " /><path fill="rgb(212,221,228)" stroke="rgb(212,221,228)" stroke-width="1" opacity="1" d="M 169.5 304 L 164.5 310 L 169.5 304 Z " /><path fill="rgb(212,221,228)" stroke="rgb(212,221,228)" stroke-width="1" opacity="1" d="M 391.5 304 L 390.5 306 L 391.5 304 Z " /><path fill="rgb(212,221,228)" stroke="rgb(212,221,228)" stroke-width="1" opacity="1" d="M 187.5 305 L 181.5 312 L 187.5 305 Z " /><path fill="rgb(212,221,228)" stroke="rgb(212,221,228)" stroke-width="1" opacity="1" d="M 248.5 305 L 249.5 307 L 248.5 305 Z " /><path fill="rgb(212,221,228)" stroke="rgb(212,221,228)" stroke-width="1" opacity="1" d="M 388.5 306 L 383.5 312 L 388.5 306 Z " /><path fill="rgb(212,221,228)" stroke="rgb(212,221,228)" stroke-width="1" opacity="1" d="M 486.5 306 L 487.5 308 L 486.5 306 Z " /><path fill="rgb(212,221,228)" stroke="rgb(212,221,228)" stroke-width="1" opacity="1" d="M 252.5 308 L 254.5 311 L 252.5 308 Z " /><path fill="rgb(212,221,228)" stroke="rgb(212,221,228)" stroke-width="1" opacity="1" d="M 382.5 313 L 381.5 315 L 382.5 313 Z " /><path fill="rgb(212,221,228)" stroke="rgb(212,221,228)" stroke-width="1" opacity="1" d="M 160.5 314 L 156.5 319 L 160.5 314 Z " /><path fill="rgb(212,221,228)" stroke="rgb(212,221,228)" stroke-width="1" opacity="1" d="M 409.5 315 L 410.5 317 L 409.5 315 Z " /><path fill="rgb(212,221,228)" stroke="rgb(212,221,228)" stroke-width="1" opacity="1" d="M 213.5 317 L 212.5 319 L 213.5 317 Z " /><path fill="rgb(212,221,228)" stroke="rgb(212,221,228)" stroke-width="1" opacity="1" d="M 175.5 318 L 172.5 322 L 175.5 318 Z " /><path fill="rgb(212,221,228)" stroke="rgb(212,221,228)" stroke-width="1" opacity="1" d="M 242.5 318 L 244.5 321 L 242.5 318 Z " /><path fill="rgb(212,221,228)" stroke="rgb(212,221,228)" stroke-width="1" opacity="1" d="M 461.5 319 L 464 319.5 L 461.5 320 L 461.5 319 Z " /><path fill="rgb(212,221,228)" stroke="rgb(212,221,228)" stroke-width="1" opacity="1" d="M 454.5 320 L 458 320.5 L 454.5 321 L 454.5 320 Z " /><path fill="rgb(212,221,228)" stroke="rgb(212,221,228)" stroke-width="1" opacity="1" d="M 468.5 320 L 467.5 322 L 468.5 320 Z " /><path fill="rgb(212,221,228)" stroke="rgb(212,221,228)" stroke-width="1" opacity="1" d="M 426.5 321 L 431 321.5 L 426.5 322 L 426.5 321 Z " /><path fill="rgb(212,221,228)" stroke="rgb(212,221,228)" stroke-width="1" opacity="1" d="M 444.5 321 L 450 321.5 L 444.5 322 L 444.5 321 Z " /><path fill="rgb(212,221,228)" stroke="rgb(212,221,228)" stroke-width="1" opacity="1" d="M 209.5 322 L 208.5 324 L 209.5 322 Z " /><path fill="rgb(212,221,228)" stroke="rgb(212,221,228)" stroke-width="1" opacity="1" d="M 227.5 322 L 225.5 325 L 227.5 322 Z " /><path fill="rgb(212,221,228)" stroke="rgb(212,221,228)" stroke-width="1" opacity="1" d="M 152.5 323 L 149.5 327 L 152.5 323 Z " /><path fill="rgb(212,221,228)" stroke="rgb(212,221,228)" stroke-width="1" opacity="1" d="M 378.5 323 L 379 325.5 L 378 325.5 L 378.5 323 Z " /><path fill="rgb(212,221,228)" stroke="rgb(212,221,228)" stroke-width="1" opacity="1" d="M 464.5 323 L 463.5 325 L 464.5 323 Z " /><path fill="rgb(212,221,228)" stroke="rgb(212,221,228)" stroke-width="1" opacity="1" d="M 485.5 323 L 483.5 326 L 485.5 323 Z " /><path fill="rgb(212,221,228)" stroke="rgb(212,221,228)" stroke-width="1" opacity="1" d="M 461.5 325 L 460.5 327 L 461.5 325 Z " /><path fill="rgb(212,221,228)" stroke="rgb(212,221,228)" stroke-width="1" opacity="1" d="M 204.5 327 L 203.5 329 L 204.5 327 Z " /><path fill="rgb(212,221,228)" stroke="rgb(212,221,228)" stroke-width="1" opacity="1" d="M 166.5 328 L 163.5 332 L 166.5 328 Z " /><path fill="rgb(212,221,228)" stroke="rgb(212,221,228)" stroke-width="1" opacity="1" d="M 222.5 328 L 221.5 330 L 222.5 328 Z " /><path fill="rgb(212,221,228)" stroke="rgb(212,221,228)" stroke-width="1" opacity="1" d="M 480.5 328 L 478.5 331 L 480.5 328 Z " /><path fill="rgb(212,221,228)" stroke="rgb(212,221,228)" stroke-width="1" opacity="1" d="M 145.5 331 L 143.5 334 L 145.5 331 Z " /><path fill="rgb(212,221,228)" stroke="rgb(212,221,228)" stroke-width="1" opacity="1" d="M 94.5 332 L 95.5 334 L 94.5 332 Z " /><path fill="rgb(212,221,228)" stroke="rgb(212,221,228)" stroke-width="1" opacity="1" d="M 262.5 332 L 263 343.5 L 262 343.5 L 262.5 332 Z " /><path fill="rgb(212,221,228)" stroke="rgb(212,221,228)" stroke-width="1" opacity="1" d="M 218.5 333 L 214.5 338 L 218.5 333 Z " /><path fill="rgb(212,221,228)" stroke="rgb(212,221,228)" stroke-width="1" opacity="1" d="M 247.5 335 L 246.5 337 L 247.5 335 Z " /><path fill="rgb(212,221,228)" stroke="rgb(212,221,228)" stroke-width="1" opacity="1" d="M 377.5 335 L 378 341.5 L 377 341.5 L 377.5 335 Z " /><path fill="rgb(212,221,228)" stroke="rgb(212,221,228)" stroke-width="1" opacity="1" d="M 97.5 336 L 98.5 338 L 97.5 336 Z " /><path fill="rgb(212,221,228)" stroke="rgb(212,221,228)" stroke-width="1" opacity="1" d="M 159.5 336 L 157.5 339 L 159.5 336 Z " /><path fill="rgb(212,221,228)" stroke="rgb(212,221,228)" stroke-width="1" opacity="1" d="M 140.5 337 L 138.5 340 L 140.5 337 Z " /><path fill="rgb(212,221,228)" stroke="rgb(212,221,228)" stroke-width="1" opacity="1" d="M 427.5 337 L 430 337.5 L 427.5 338 L 427.5 337 Z " /><path fill="rgb(212,221,228)" stroke="rgb(212,221,228)" stroke-width="1" opacity="1" d="M 401.5 338 L 406 338.5 L 401.5 339 L 401.5 338 Z " /><path fill="rgb(212,221,228)" stroke="rgb(212,221,228)" stroke-width="1" opacity="1" d="M 416.5 338 L 422 338.5 L 416.5 339 L 416.5 338 Z " /><path fill="rgb(212,221,228)" stroke="rgb(212,221,228)" stroke-width="1" opacity="1" d="M 244.5 339 L 236.5 348 L 244.5 339 Z " /><path fill="rgb(212,221,228)" stroke="rgb(212,221,228)" stroke-width="1" opacity="1" d="M 101.5 341 L 106.5 347 L 101.5 341 Z " /><path fill="rgb(212,221,228)" stroke="rgb(212,221,228)" stroke-width="1" opacity="1" d="M 162.5 342 L 160.5 345 L 162.5 342 Z " /><path fill="rgb(212,221,228)" stroke="rgb(212,221,228)" stroke-width="1" opacity="1" d="M 153.5 343 L 151.5 346 L 153.5 343 Z " /><path fill="rgb(212,221,228)" stroke="rgb(212,221,228)" stroke-width="1" opacity="1" d="M 88.5 347 L 89.5 349 L 88.5 347 Z " /><path fill="rgb(212,221,228)" stroke="rgb(212,221,228)" stroke-width="1" opacity="1" d="M 376.5 347 L 377 351.5 L 376 351.5 L 376.5 347 Z " /><path fill="rgb(212,221,228)" stroke="rgb(212,221,228)" stroke-width="1" opacity="1" d="M 109.5 348 L 110.5 350 L 109.5 348 Z " /><path fill="rgb(212,221,228)" stroke="rgb(212,221,228)" stroke-width="1" opacity="1" d="M 148.5 349 L 145.5 353 L 148.5 349 Z " /><path fill="rgb(212,221,228)" stroke="rgb(212,221,228)" stroke-width="1" opacity="1" d="M 233.5 349 L 232.5 351 L 233.5 349 Z " /><path fill="rgb(212,221,228)" stroke="rgb(212,221,228)" stroke-width="1" opacity="1" d="M 174.5 351 L 176 351.5 L 174 352.5 L 174.5 354 Q 171.5 352.5 174.5 351 Z " /><path fill="rgb(212,221,228)" stroke="rgb(212,221,228)" stroke-width="1" opacity="1" d="M 403.5 352 L 407 352.5 L 403.5 353 L 403.5 352 Z " /><path fill="rgb(212,221,228)" stroke="rgb(212,221,228)" stroke-width="1" opacity="1" d="M 414.5 352 L 419 352.5 L 414.5 353 L 414.5 352 Z " /><path fill="rgb(212,221,228)" stroke="rgb(212,221,228)" stroke-width="1" opacity="1" d="M 141.5 356 L 139.5 359 L 141.5 356 Z " /><path fill="rgb(212,221,228)" stroke="rgb(212,221,228)" stroke-width="1" opacity="1" d="M 375.5 357 L 376 359.5 L 375 359.5 L 375.5 357 Z " /><path fill="rgb(212,221,228)" stroke="rgb(212,221,228)" stroke-width="1" opacity="1" d="M 191.5 358 L 194 358.5 L 191.5 359 L 191.5 358 Z " /><path fill="rgb(212,221,228)" stroke="rgb(212,221,228)" stroke-width="1" opacity="1" d="M 209.5 358 L 212 358.5 L 209.5 359 L 209.5 358 Z " /><path fill="rgb(212,221,228)" stroke="rgb(212,221,228)" stroke-width="1" opacity="1" d="M 160.5 359 L 164.5 364 L 160.5 359 Z " /><path fill="rgb(212,221,228)" stroke="rgb(212,221,228)" stroke-width="1" opacity="1" d="M 243.5 359 L 242.5 361 L 243.5 359 Z " /><path fill="rgb(212,221,228)" stroke="rgb(212,221,228)" stroke-width="1" opacity="1" d="M 374.5 365 L 375 368.5 L 374 368.5 L 374.5 365 Z " /><path fill="rgb(212,221,228)" stroke="rgb(212,221,228)" stroke-width="1" opacity="1" d="M 388.5 365 L 389 367.5 L 388 367.5 L 388.5 365 Z " /><path fill="rgb(212,221,228)" stroke="rgb(212,221,228)" stroke-width="1" opacity="1" d="M 192.5 372 L 195 372.5 L 192.5 373 L 192.5 372 Z " /><path fill="rgb(212,221,228)" stroke="rgb(212,221,228)" stroke-width="1" opacity="1" d="M 373.5 373 L 374 376.5 L 373 376.5 L 373.5 373 Z " /><path fill="rgb(212,221,228)" stroke="rgb(212,221,228)" stroke-width="1" opacity="1" d="M 372.5 382 L 373 384.5 L 372 384.5 L 372.5 382 Z " /><path fill="rgb(212,221,228)" stroke="rgb(212,221,228)" stroke-width="1" opacity="1" d="M 386.5 382 L 387 384.5 L 386 384.5 L 386.5 382 Z " /><path fill="rgb(212,221,228)" stroke="rgb(212,221,228)" stroke-width="1" opacity="1" d="M 248.5 389 L 249 398.5 L 248 398.5 L 248.5 389 Z " /><path fill="rgb(212,221,228)" stroke="rgb(212,221,228)" stroke-width="1" opacity="1" d="M 371.5 390 L 372 392.5 L 371 392.5 L 371.5 390 Z " /><path fill="rgb(212,221,228)" stroke="rgb(212,221,228)" stroke-width="1" opacity="1" d="M 262.5 391 L 263 404.5 L 262 404.5 L 262.5 391 Z " /><path fill="rgb(212,221,228)" stroke="rgb(212,221,228)" stroke-width="1" opacity="1" d="M 370.5 397 L 371 400.5 L 370 400.5 L 370.5 397 Z " /><path fill="rgb(212,221,228)" stroke="rgb(212,221,228)" stroke-width="1" opacity="1" d="M 369.5 405 L 370 407.5 L 369 407.5 L 369.5 405 Z " /><path fill="rgb(212,221,228)" stroke="rgb(212,221,228)" stroke-width="1" opacity="1" d="M 368.5 413 L 369 415.5 L 368 415.5 L 368.5 413 Z " /><path fill="rgb(212,221,228)" stroke="rgb(212,221,228)" stroke-width="1" opacity="1" d="M 249.5 417 L 250 420.5 L 249 420.5 L 249.5 417 Z " /><path fill="rgb(212,221,228)" stroke="rgb(212,221,228)" stroke-width="1" opacity="1" d="M 263.5 417 L 264 424.5 L 263 424.5 L 263.5 417 Z " /><path fill="rgb(212,221,228)" stroke="rgb(212,221,228)" stroke-width="1" opacity="1" d="M 367.5 420 L 368 422.5 L 367 422.5 L 367.5 420 Z " /><path fill="rgb(212,221,228)" stroke="rgb(212,221,228)" stroke-width="1" opacity="1" d="M 264.5 431 L 265 435.5 L 264 435.5 L 264.5 431 Z " /><path fill="rgb(212,221,228)" stroke="rgb(212,221,228)" stroke-width="1" opacity="1" d="M 250.5 432 L 251 434.5 L 250 434.5 L 250.5 432 Z " /><path fill="rgb(212,221,228)" stroke="rgb(212,221,228)" stroke-width="1" opacity="1" d="M 365.5 433 L 366 435.5 L 365 435.5 L 365.5 433 Z " /><path fill="rgb(212,221,228)" stroke="rgb(212,221,228)" stroke-width="1" opacity="1" d="M 265.5 441 L 266 444.5 L 265 444.5 L 265.5 441 Z " /><path fill="rgb(212,221,228)" stroke="rgb(212,221,228)" stroke-width="1" opacity="1" d="M 358.5 458 L 357.5 460 L 358.5 458 Z " /><path fill="rgb(212,221,228)" stroke="rgb(212,221,228)" stroke-width="1" opacity="1" d="M 354.5 464 L 353.5 466 L 354.5 464 Z " /><path fill="rgb(212,221,228)" stroke="rgb(212,221,228)" stroke-width="1" opacity="1" d="M 275.5 469 L 276.5 471 L 275.5 469 Z " /><path fill="rgb(212,221,228)" stroke="rgb(212,221,228)" stroke-width="1" opacity="1" d="M 348.5 470 L 347.5 472 L 348.5 470 Z " /><path fill="rgb(212,221,228)" stroke="rgb(212,221,228)" stroke-width="1" opacity="1" d="M 366.5 471 L 365.5 473 L 366.5 471 Z " /><path fill="rgb(212,221,228)" stroke="rgb(212,221,228)" stroke-width="1" opacity="1" d="M 278.5 473 L 281.5 477 L 278.5 473 Z " /><path fill="rgb(212,221,228)" stroke="rgb(212,221,228)" stroke-width="1" opacity="1" d="M 362.5 476 L 360.5 479 L 362.5 476 Z " /><path fill="rgb(212,221,228)" stroke="rgb(212,221,228)" stroke-width="1" opacity="1" d="M 355.5 482 L 354.5 484 L 355.5 482 Z " /><path fill="rgb(212,221,228)" stroke="rgb(212,221,228)" stroke-width="1" opacity="1" d="M 314.5 483 L 317 483.5 L 314.5 484 L 314.5 483 Z " /><path fill="rgb(212,221,228)" stroke="rgb(212,221,228)" stroke-width="1" opacity="1" d="M 301.5 484 L 309 484.5 L 301.5 485 L 301.5 484 Z " /><path fill="rgb(212,221,228)" stroke="rgb(212,221,228)" stroke-width="1" opacity="1" d="M 352.5 484 L 351.5 486 L 352.5 484 Z " /><path fill="rgb(212,221,228)" stroke="rgb(212,221,228)" stroke-width="1" opacity="1" d="M 274.5 488 L 275.5 490 L 274.5 488 Z " /><path fill="rgb(254,254,254)" stroke="rgb(254,254,254)" stroke-width="1" opacity="1" d="M 353.5 14 L 387.5 15 L 417.5 22 Q 451.6 34.4 473 59.5 Q 480.4 66.6 484 77.5 L 487 93.5 L 487 113.5 L 486 114.5 L 485 131.5 L 480 157.5 L 465 206.5 Q 444.8 260.2 416 304 L 427.5 308 L 448.5 308 L 468.5 304 L 482.5 304 L 488 308.5 L 489 317.5 L 481.5 328 Q 469.1 339.1 452.5 346 L 433.5 351 L 407.5 353 L 406.5 352 L 397.5 352 L 390 350 L 384 405.5 L 382 413.5 L 382 420.5 L 377 448.5 Q 371.6 470.1 356.5 482 Q 344.8 490.8 328.5 495 L 314.5 498 L 295.5 498 Q 276.1 493.9 266 480.5 L 255 460.5 L 252 448.5 L 251 432.5 L 250 431.5 L 250 417.5 L 249 416.5 L 247.5 356 Q 237 366.5 220.5 371 L 209.5 373 L 195.5 373 L 172.5 368 Q 164.1 364.4 159 357.5 L 158 348.5 L 164.5 341 L 173.5 337 L 199.5 331 L 210 322.5 L 216 313 L 200.5 311 L 187.5 305 L 142.5 356 L 130.5 364 Q 124.8 367.3 114.5 366 Q 98.8 361.2 90 349.5 Q 75.6 331.4 66 308.5 Q 54.5 282 46 252.5 L 34 207.5 L 27 174.5 L 24 150.5 L 23 149.5 L 22 122.5 L 23 121.5 L 23 108.5 L 24 107.5 L 25 95.5 L 31 75.5 Q 39.2 55.2 54.5 42 L 75.5 29 L 94.5 23 L 106.5 22 L 107.5 21 L 141.5 21 L 142.5 22 L 149.5 22 L 150.5 23 L 167.5 25 L 206.5 36 Q 218.4 27.4 234.5 23 L 249.5 20 L 264.5 20 L 266.5 19 L 267.5 20 L 282.5 20 L 304.5 24 L 319.5 19 L 342.5 15 L 352.5 15 L 353.5 14 Z M 348 28 L 333 31 Q 327 29 328 33 Q 350 42 367 57 Q 387 75 401 99 L 413 123 L 418 140 L 417 145 L 417 161 L 413 184 L 413 208 L 415 218 L 415 226 L 416 227 L 416 239 L 417 240 L 415 264 Q 412 276 406 286 L 407 289 Q 406 291 409 290 Q 433 252 451 206 L 464 166 L 470 140 L 472 121 L 473 120 L 473 90 L 470 79 L 463 69 Q 445 47 417 36 L 401 31 L 391 29 L 384 29 L 383 28 L 348 28 Z M 256 33 L 255 34 L 243 35 L 230 39 Q 217 43 209 51 Q 192 65 182 86 L 173 110 L 167 140 L 168 149 Q 181 139 202 136 L 222 136 L 236 142 Q 245 149 249 161 L 253 179 L 254 193 L 255 194 L 255 204 L 256 205 L 256 222 L 255 223 L 255 232 L 252 247 L 247 262 L 236 286 L 231 303 L 234 302 Q 245 302 251 307 L 257 314 Q 261 320 263 330 L 262 333 L 262 405 L 263 406 L 263 425 L 264 426 L 265 445 Q 268 462 278 474 L 290 482 L 302 485 Q 330 484 348 472 L 359 459 L 365 441 L 370 402 L 371 401 L 374 370 L 375 369 L 376 353 L 377 352 L 378 327 L 383 313 Q 388 304 399 302 L 384 281 L 356 227 L 345 198 L 342 184 L 342 164 Q 344 153 350 147 L 362 138 L 370 135 L 382 134 L 383 133 L 397 133 L 402 134 Q 391 102 370 80 Q 349 56 319 43 L 305 38 L 286 34 L 256 33 Z M 114 34 L 113 35 L 99 36 L 85 40 Q 72 45 63 53 Q 51 64 44 80 L 38 100 L 37 114 L 36 115 L 36 144 L 37 145 L 39 165 L 46 200 L 58 246 L 69 280 L 80 307 L 94 333 L 101 342 Q 107 351 120 353 L 125 352 L 130 349 L 176 298 Q 162 286 155 269 L 152 259 L 151 246 L 150 245 L 152 219 L 153 218 L 153 169 L 152 168 L 153 142 L 154 141 L 155 128 L 160 106 L 165 91 L 177 67 L 193 46 L 168 39 L 152 36 L 135 35 L 134 34 L 114 34 Z M 379 147 L 365 152 Q 357 157 355 168 L 356 186 L 362 206 L 374 233 L 397 274 L 401 264 L 403 253 L 403 234 L 402 233 L 402 224 L 400 214 L 400 204 L 399 203 L 399 188 L 400 187 L 400 178 L 403 163 L 404 148 L 401 147 L 379 147 Z M 207 149 Q 182 153 166 165 L 166 177 L 167 178 L 167 213 L 166 214 L 165 233 L 164 234 L 164 250 L 166 259 Q 170 271 177 280 Q 185 289 197 295 L 210 299 L 218 299 L 223 282 L 237 250 L 242 227 L 242 199 Q 239 197 241 191 L 236 165 L 233 159 Q 226 148 207 149 Z M 406 314 L 398 317 Q 390 321 392 336 L 402 339 Q 445 341 468 322 L 471 318 L 454 321 L 445 321 L 444 322 L 424 321 L 406 314 Z M 234 316 L 221 331 Q 215 340 204 344 L 178 350 L 173 353 L 177 355 L 192 359 L 212 359 L 217 358 Q 229 355 237 348 Q 245 342 249 332 L 248 326 L 245 321 L 239 316 L 234 316 Z " /><path fill="rgb(254,254,254)" stroke="rgb(254,254,254)" stroke-width="1" opacity="1" d="M 378.5 154 L 387.5 155 L 390 157.5 Q 389.1 164.7 383.5 167 Q 380.3 169.3 373.5 168 L 367 163.5 L 366 160.5 L 369.5 157 L 378.5 154 Z " /><path fill="rgb(254,254,254)" stroke="rgb(254,254,254)" stroke-width="1" opacity="1" d="M 209.5 158 Q 223.5 156.5 229 163.5 L 230 165.5 L 225.5 172 Q 221.8 175.3 213.5 174 L 205 167.5 L 204 161.5 L 209.5 158 Z " /></svg>