<svg width="512" height="512" version="1.1" xmlns="http://www.w3.org/2000/svg" desc="Created with imagetracer.js version 1.2.6" ><path fill="rgb(255,68,55)" stroke="rgb(255,68,55)" stroke-width="1" opacity="0.4392156862745098" d="M 280.5 25 L 318 25.5 L 280.5 26 L 280.5 25 Z " /><path fill="rgb(255,68,55)" stroke="rgb(255,68,55)" stroke-width="1" opacity="0.4392156862745098" d="M 266.5 26 L 275 26.5 L 266.5 27 L 266.5 26 Z " /><path fill="rgb(255,68,55)" stroke="rgb(255,68,55)" stroke-width="1" opacity="0.4392156862745098" d="M 322.5 26 L 328 26.5 L 322.5 27 L 322.5 26 Z " /><path fill="rgb(255,68,55)" stroke="rgb(255,68,55)" stroke-width="1" opacity="0.4392156862745098" d="M 257.5 27 L 264 27.5 L 257.5 28 L 257.5 27 Z " /><path fill="rgb(255,68,55)" stroke="rgb(255,68,55)" stroke-width="1" opacity="0.4392156862745098" d="M 331.5 27 L 337 27.5 L 331.5 28 L 331.5 27 Z " /><path fill="rgb(255,68,55)" stroke="rgb(255,68,55)" stroke-width="1" opacity="0.4392156862745098" d="M 249.5 28 L 254 28.5 L 249.5 29 L 249.5 28 Z " /><path fill="rgb(255,68,55)" stroke="rgb(255,68,55)" stroke-width="1" opacity="0.4392156862745098" d="M 339.5 28 L 343 28.5 L 339.5 29 L 339.5 28 Z " /><path fill="rgb(255,68,55)" stroke="rgb(255,68,55)" stroke-width="1" opacity="0.4392156862745098" d="M 243.5 29 L 247 29.5 L 243.5 30 L 243.5 29 Z " /><path fill="rgb(255,68,55)" stroke="rgb(255,68,55)" stroke-width="1" opacity="0.4392156862745098" d="M 344.5 29 L 348 29.5 L 344.5 30 L 344.5 29 Z " /><path fill="rgb(255,68,55)" stroke="rgb(255,68,55)" stroke-width="1" opacity="0.4392156862745098" d="M 236.5 30 L 241 30.5 L 236.5 31 L 236.5 30 Z " /><path fill="rgb(255,68,55)" stroke="rgb(255,68,55)" stroke-width="1" opacity="0.4392156862745098" d="M 350.5 30 L 353 30.5 L 350.5 31 L 350.5 30 Z " /><path fill="rgb(255,68,55)" stroke="rgb(255,68,55)" stroke-width="1" opacity="0.4392156862745098" d="M 231.5 31 L 235 31.5 L 231.5 32 L 231.5 31 Z " /><path fill="rgb(255,68,55)" stroke="rgb(255,68,55)" stroke-width="1" opacity="0.4392156862745098" d="M 355.5 31 L 358 31.5 L 355.5 32 L 355.5 31 Z " /><path fill="rgb(255,68,55)" stroke="rgb(255,68,55)" stroke-width="1" opacity="0.4392156862745098" d="M 226.5 32 L 229 32.5 L 226.5 33 L 226.5 32 Z " /><path fill="rgb(255,68,55)" stroke="rgb(255,68,55)" stroke-width="1" opacity="0.4392156862745098" d="M 221.5 33 L 224 33.5 L 221.5 34 L 221.5 33 Z " /><path fill="rgb(255,68,55)" stroke="rgb(255,68,55)" stroke-width="1" opacity="0.4392156862745098" d="M 362.5 33 L 365 33.5 L 362.5 34 L 362.5 33 Z " /><path fill="rgb(255,68,55)" stroke="rgb(255,68,55)" stroke-width="1" opacity="0.4392156862745098" d="M 216.5 34 L 219 34.5 L 216.5 35 L 216.5 34 Z " /><path fill="rgb(255,68,55)" stroke="rgb(255,68,55)" stroke-width="1" opacity="0.4392156862745098" d="M 212.5 35 L 215 35.5 L 212.5 36 L 212.5 35 Z " /><path fill="rgb(255,68,55)" stroke="rgb(255,68,55)" stroke-width="1" opacity="0.4392156862745098" d="M 369.5 35 L 372 35.5 L 369.5 36 L 369.5 35 Z " /><path fill="rgb(255,68,55)" stroke="rgb(255,68,55)" stroke-width="1" opacity="0.4392156862745098" d="M 207.5 36 L 210 36.5 L 207.5 37 L 207.5 36 Z " /><path fill="rgb(255,68,55)" stroke="rgb(255,68,55)" stroke-width="1" opacity="0.4392156862745098" d="M 373.5 36 L 377 37.5 L 375.5 38 L 373.5 36 Z " /><path fill="rgb(255,68,55)" stroke="rgb(255,68,55)" stroke-width="1" opacity="0.4392156862745098" d="M 203.5 37 L 206 37.5 L 203.5 38 L 203.5 37 Z " /><path fill="rgb(255,68,55)" stroke="rgb(255,68,55)" stroke-width="1" opacity="0.4392156862745098" d="M 199.5 38 L 202 38.5 L 199.5 39 L 199.5 38 Z " /><path fill="rgb(255,68,55)" stroke="rgb(255,68,55)" stroke-width="1" opacity="0.4392156862745098" d="M 195.5 39 L 198 39.5 L 195.5 40 L 195.5 39 Z " /><path fill="rgb(255,68,55)" stroke="rgb(255,68,55)" stroke-width="1" opacity="0.4392156862745098" d="M 381.5 39 L 385 40.5 L 383.5 41 L 381.5 39 Z " /><path fill="rgb(255,68,55)" stroke="rgb(255,68,55)" stroke-width="1" opacity="0.4392156862745098" d="M 188.5 41 L 191 41.5 L 188.5 42 L 188.5 41 Z " /><path fill="rgb(255,68,55)" stroke="rgb(255,68,55)" stroke-width="1" opacity="0.4392156862745098" d="M 386.5 41 L 403.5 49 L 408 52.5 L 406.5 52 L 386.5 42 L 386.5 41 Z " /><path fill="rgb(255,68,55)" stroke="rgb(255,68,55)" stroke-width="1" opacity="0.4392156862745098" d="M 181.5 43 L 184 43.5 L 181.5 44 L 181.5 43 Z " /><path fill="rgb(255,68,55)" stroke="rgb(255,68,55)" stroke-width="1" opacity="0.4392156862745098" d="M 154.5 52 L 156 52.5 L 152.5 54 L 152.5 53 L 154.5 52 Z " /><path fill="rgb(255,68,55)" stroke="rgb(255,68,55)" stroke-width="1" opacity="0.4392156862745098" d="M 409.5 53 L 422 62.5 L 418.5 60 L 410.5 55 L 409.5 53 Z " /><path fill="rgb(255,68,55)" stroke="rgb(255,68,55)" stroke-width="1" opacity="0.4392156862745098" d="M 146.5 55 L 148 55.5 L 144.5 57 L 144.5 56 L 146.5 55 Z " /><path fill="rgb(255,68,55)" stroke="rgb(255,68,55)" stroke-width="1" opacity="0.4392156862745098" d="M 141.5 57 L 143 57.5 L 139.5 59 L 139.5 58 L 141.5 57 Z " /><path fill="rgb(255,68,55)" stroke="rgb(255,68,55)" stroke-width="1" opacity="0.4392156862745098" d="M 136.5 59 L 138 59.5 L 132.5 62 L 132.5 61 L 136.5 59 Z " /><path fill="rgb(255,68,55)" stroke="rgb(255,68,55)" stroke-width="1" opacity="0.4392156862745098" d="M 129.5 62 L 131 62.5 L 125.5 65 L 125.5 64 L 129.5 62 Z " /><path fill="rgb(255,68,55)" stroke="rgb(255,68,55)" stroke-width="1" opacity="0.4392156862745098" d="M 423.5 63 L 438 76.5 L 442 81.5 L 437 77.5 L 433.5 73 L 423.5 63 Z " /><path fill="rgb(255,68,55)" stroke="rgb(255,68,55)" stroke-width="1" opacity="0.4392156862745098" d="M 118.5 67 L 120 67.5 L 99.5 78 L 100.5 76 L 118.5 67 Z " /><path fill="rgb(255,68,55)" stroke="rgb(255,68,55)" stroke-width="1" opacity="0.4392156862745098" d="M 97.5 78 L 96.5 80 L 92.5 82 L 93.5 80 L 97.5 78 Z " /><path fill="rgb(255,68,55)" stroke="rgb(255,68,55)" stroke-width="1" opacity="0.4392156862745098" d="M 88.5 83 L 87.5 85 L 85.5 86 L 86.5 84 L 88.5 83 Z " /><path fill="rgb(255,68,55)" stroke="rgb(255,68,55)" stroke-width="1" opacity="0.4392156862745098" d="M 442.5 83 L 445.5 87 L 442.5 83 Z " /><path fill="rgb(255,68,55)" stroke="rgb(255,68,55)" stroke-width="1" opacity="0.4392156862745098" d="M 83.5 86 L 82.5 88 L 77.5 91 L 78.5 89 L 83.5 86 Z " /><path fill="rgb(255,68,55)" stroke="rgb(255,68,55)" stroke-width="1" opacity="0.4392156862745098" d="M 446.5 88 L 447.5 90 L 446.5 88 Z " /><path fill="rgb(255,68,55)" stroke="rgb(255,68,55)" stroke-width="1" opacity="0.4392156862745098" d="M 75.5 91 L 74.5 93 L 71.5 95 L 73.5 92 L 75.5 91 Z " /><path fill="rgb(255,68,55)" stroke="rgb(255,68,55)" stroke-width="1" opacity="0.4392156862745098" d="M 448.5 91 L 449.5 93 L 448.5 91 Z " /><path fill="rgb(255,68,55)" stroke="rgb(255,68,55)" stroke-width="1" opacity="0.4392156862745098" d="M 450.5 94 L 461 113.5 L 460 113.5 L 450.5 94 Z " /><path fill="rgb(255,68,55)" stroke="rgb(255,68,55)" stroke-width="1" opacity="0.4392156862745098" d="M 69.5 95 L 67.5 98 L 61 102.5 L 60.5 113 L 60 102.5 L 69.5 95 Z " /><path fill="rgb(255,68,55)" stroke="rgb(255,68,55)" stroke-width="1" opacity="0.4392156862745098" d="M 61.5 117 L 62 122.5 L 61 122.5 L 61.5 117 Z " /><path fill="rgb(255,68,55)" stroke="rgb(255,68,55)" stroke-width="1" opacity="0.4392156862745098" d="M 462.5 118 L 464 121.5 L 463 121.5 L 462.5 118 Z " /><path fill="rgb(255,68,55)" stroke="rgb(255,68,55)" stroke-width="1" opacity="0.4392156862745098" d="M 331.5 121 L 332 122.5 L 330 123.5 L 331.5 121 Z " /><path fill="rgb(255,68,55)" stroke="rgb(255,68,55)" stroke-width="1" opacity="0.4392156862745098" d="M 333.5 121 L 336 121.5 L 333.5 122 L 333.5 121 Z " /><path fill="rgb(255,68,55)" stroke="rgb(255,68,55)" stroke-width="1" opacity="0.4392156862745098" d="M 337.5 122 L 340 122.5 L 337.5 123 L 337.5 122 Z " /><path fill="rgb(255,68,55)" stroke="rgb(255,68,55)" stroke-width="1" opacity="0.4392156862745098" d="M 341.5 123 L 344 123.5 L 341.5 124 L 341.5 123 Z " /><path fill="rgb(255,68,55)" stroke="rgb(255,68,55)" stroke-width="1" opacity="0.4392156862745098" d="M 345.5 124 L 348 124.5 L 345.5 125 L 345.5 124 Z " /><path fill="rgb(255,68,55)" stroke="rgb(255,68,55)" stroke-width="1" opacity="0.4392156862745098" d="M 62.5 125 L 63 129.5 L 62 129.5 L 62.5 125 Z " /><path fill="rgb(255,68,55)" stroke="rgb(255,68,55)" stroke-width="1" opacity="0.4392156862745098" d="M 329.5 125 L 328.5 127 L 329.5 125 Z " /><path fill="rgb(255,68,55)" stroke="rgb(255,68,55)" stroke-width="1" opacity="0.4392156862745098" d="M 349.5 125 L 353 126.5 L 351.5 127 L 349.5 125 Z " /><path fill="rgb(255,68,55)" stroke="rgb(255,68,55)" stroke-width="1" opacity="0.4392156862745098" d="M 465.5 126 L 466 128.5 L 465 128.5 L 465.5 126 Z " /><path fill="rgb(255,68,55)" stroke="rgb(255,68,55)" stroke-width="1" opacity="0.4392156862745098" d="M 354.5 127 Q 368.4 132.1 377 142.5 L 370.5 137 L 354.5 128 L 354.5 127 Z " /><path fill="rgb(255,68,55)" stroke="rgb(255,68,55)" stroke-width="1" opacity="0.4392156862745098" d="M 327.5 128 L 327 129.5 L 321.5 138 L 322 136.5 L 327.5 128 Z " /><path fill="rgb(255,68,55)" stroke="rgb(255,68,55)" stroke-width="1" opacity="0.4392156862745098" d="M 234.5 129 L 237 129.5 L 196.5 174 L 205 164.5 L 234 132.5 L 234 131 L 232 130.5 L 234.5 129 Z " /><path fill="rgb(255,68,55)" stroke="rgb(255,68,55)" stroke-width="1" opacity="0.4392156862745098" d="M 466.5 130 L 467 132.5 L 466 132.5 L 466.5 130 Z " /><path fill="rgb(255,68,55)" stroke="rgb(255,68,55)" stroke-width="1" opacity="0.4392156862745098" d="M 63.5 131 L 64 135.5 L 63 135.5 L 63.5 131 Z " /><path fill="rgb(255,68,55)" stroke="rgb(255,68,55)" stroke-width="1" opacity="0.4392156862745098" d="M 220.5 134 L 222 134.5 L 218.5 136 L 218.5 135 L 220.5 134 Z " /><path fill="rgb(255,68,55)" stroke="rgb(255,68,55)" stroke-width="1" opacity="0.4392156862745098" d="M 467.5 134 L 468 136.5 L 467 136.5 L 467.5 134 Z " /><path fill="rgb(255,68,55)" stroke="rgb(255,68,55)" stroke-width="1" opacity="0.4392156862745098" d="M 215.5 136 L 217 136.5 L 213.5 138 L 213.5 137 L 215.5 136 Z " /><path fill="rgb(255,68,55)" stroke="rgb(255,68,55)" stroke-width="1" opacity="0.4392156862745098" d="M 64.5 138 L 65 140.5 L 64 140.5 L 64.5 138 Z " /><path fill="rgb(255,68,55)" stroke="rgb(255,68,55)" stroke-width="1" opacity="0.4392156862745098" d="M 210.5 138 L 212 138.5 L 208.5 140 L 208.5 139 L 210.5 138 Z " /><path fill="rgb(255,68,55)" stroke="rgb(255,68,55)" stroke-width="1" opacity="0.4392156862745098" d="M 468.5 138 L 469 140.5 L 468 140.5 L 468.5 138 Z " /><path fill="rgb(255,68,55)" stroke="rgb(255,68,55)" stroke-width="1" opacity="0.4392156862745098" d="M 320.5 139 L 319.5 141 L 320.5 139 Z " /><path fill="rgb(255,68,55)" stroke="rgb(255,68,55)" stroke-width="1" opacity="0.4392156862745098" d="M 205.5 140 L 207 140.5 L 197.5 145 L 197.5 144 L 205.5 140 Z " /><path fill="rgb(255,68,55)" stroke="rgb(255,68,55)" stroke-width="1" opacity="0.4392156862745098" d="M 318.5 142 L 318 143.5 L 314.5 149 L 315 147.5 L 318.5 142 Z " /><path fill="rgb(255,68,55)" stroke="rgb(255,68,55)" stroke-width="1" opacity="0.4392156862745098" d="M 469.5 143 L 470 147.5 L 469 147.5 L 469.5 143 Z " /><path fill="rgb(255,68,55)" stroke="rgb(255,68,55)" stroke-width="1" opacity="0.4392156862745098" d="M 377.5 144 L 382 149.5 L 380 148.5 L 377.5 144 Z " /><path fill="rgb(255,68,55)" stroke="rgb(255,68,55)" stroke-width="1" opacity="0.4392156862745098" d="M 66.5 147 L 67 149.5 L 66 149.5 L 66.5 147 Z " /><path fill="rgb(255,68,55)" stroke="rgb(255,68,55)" stroke-width="1" opacity="0.4392156862745098" d="M 313.5 150 L 312.5 152 L 313.5 150 Z " /><path fill="rgb(255,68,55)" stroke="rgb(255,68,55)" stroke-width="1" opacity="0.4392156862745098" d="M 470.5 150 L 471 154.5 L 470 154.5 L 470.5 150 Z " /><path fill="rgb(255,68,55)" stroke="rgb(255,68,55)" stroke-width="1" opacity="0.4392156862745098" d="M 67.5 151 L 68 153.5 L 67 153.5 L 67.5 151 Z " /><path fill="rgb(255,68,55)" stroke="rgb(255,68,55)" stroke-width="1" opacity="0.4392156862745098" d="M 183.5 151 L 182.5 153 L 172.5 158 L 173.5 156 L 183.5 151 Z " /><path fill="rgb(255,68,55)" stroke="rgb(255,68,55)" stroke-width="1" opacity="0.4392156862745098" d="M 311.5 153 L 311 154.5 L 305.5 163 L 306 161.5 L 311.5 153 Z " /><path fill="rgb(255,68,55)" stroke="rgb(255,68,55)" stroke-width="1" opacity="0.4392156862745098" d="M 383.5 153 L 386 158.5 L 385 158.5 L 383.5 153 Z " /><path fill="rgb(255,68,55)" stroke="rgb(255,68,55)" stroke-width="1" opacity="0.4392156862745098" d="M 68.5 155 L 69 157.5 L 68 157.5 L 68.5 155 Z " /><path fill="rgb(255,68,55)" stroke="rgb(255,68,55)" stroke-width="1" opacity="0.4392156862745098" d="M 170.5 158 L 169.5 160 L 167.5 161 L 168.5 159 L 170.5 158 Z " /><path fill="rgb(255,68,55)" stroke="rgb(255,68,55)" stroke-width="1" opacity="0.4392156862745098" d="M 471.5 160 L 472 179.5 L 471 179.5 L 471.5 160 Z " /><path fill="rgb(255,68,55)" stroke="rgb(255,68,55)" stroke-width="1" opacity="0.4392156862745098" d="M 165.5 161 L 164.5 163 L 160.5 165 L 161.5 163 L 165.5 161 Z " /><path fill="rgb(255,68,55)" stroke="rgb(255,68,55)" stroke-width="1" opacity="0.4392156862745098" d="M 304.5 164 L 303.5 166 L 304.5 164 Z " /><path fill="rgb(255,68,55)" stroke="rgb(255,68,55)" stroke-width="1" opacity="0.4392156862745098" d="M 387.5 164 L 388 168.5 L 387 168.5 L 387.5 164 Z " /><path fill="rgb(255,68,55)" stroke="rgb(255,68,55)" stroke-width="1" opacity="0.4392156862745098" d="M 158.5 165 L 157.5 167 L 155.5 168 L 156.5 166 L 158.5 165 Z " /><path fill="rgb(255,68,55)" stroke="rgb(255,68,55)" stroke-width="1" opacity="0.4392156862745098" d="M 302.5 167 L 302 168.5 L 296.5 177 L 297 175.5 L 302.5 167 Z " /><path fill="rgb(255,68,55)" stroke="rgb(255,68,55)" stroke-width="1" opacity="0.4392156862745098" d="M 153.5 168 L 152.5 170 L 147.5 173 L 148.5 171 L 153.5 168 Z " /><path fill="rgb(255,68,55)" stroke="rgb(255,68,55)" stroke-width="1" opacity="0.4392156862745098" d="M 388.5 172 L 389 178.5 L 388 178.5 L 388.5 172 Z " /><path fill="rgb(255,68,55)" stroke="rgb(255,68,55)" stroke-width="1" opacity="0.4392156862745098" d="M 145.5 173 L 144.5 175 L 139.5 178 L 140.5 176 L 145.5 173 Z " /><path fill="rgb(255,68,55)" stroke="rgb(255,68,55)" stroke-width="1" opacity="0.4392156862745098" d="M 74.5 174 L 76 177.5 L 75 177.5 L 74.5 174 Z " /><path fill="rgb(255,68,55)" stroke="rgb(255,68,55)" stroke-width="1" opacity="0.4392156862745098" d="M 195.5 175 L 187 184.5 L 157.5 217 L 166 207.5 L 195.5 175 Z " /><path fill="rgb(255,68,55)" stroke="rgb(255,68,55)" stroke-width="1" opacity="0.4392156862745098" d="M 137.5 178 L 136.5 180 L 137.5 178 Z " /><path fill="rgb(255,68,55)" stroke="rgb(255,68,55)" stroke-width="1" opacity="0.4392156862745098" d="M 295.5 178 L 294.5 180 L 295.5 178 Z " /><path fill="rgb(255,68,55)" stroke="rgb(255,68,55)" stroke-width="1" opacity="0.4392156862745098" d="M 134.5 180 L 133.5 182 L 134.5 180 Z " /><path fill="rgb(255,68,55)" stroke="rgb(255,68,55)" stroke-width="1" opacity="0.4392156862745098" d="M 77.5 181 L 79 184.5 L 78 184.5 L 77.5 181 Z " /><path fill="rgb(255,68,55)" stroke="rgb(255,68,55)" stroke-width="1" opacity="0.4392156862745098" d="M 293.5 181 L 292.5 183 L 293.5 181 Z " /><path fill="rgb(255,68,55)" stroke="rgb(255,68,55)" stroke-width="1" opacity="0.4392156862745098" d="M 131.5 182 L 130.5 184 L 131.5 182 Z " /><path fill="rgb(255,68,55)" stroke="rgb(255,68,55)" stroke-width="1" opacity="0.4392156862745098" d="M 387.5 183 L 388 186.5 L 387 186.5 L 387.5 183 Z " /><path fill="rgb(255,68,55)" stroke="rgb(255,68,55)" stroke-width="1" opacity="0.4392156862745098" d="M 128.5 184 L 127.5 186 L 128.5 184 Z " /><path fill="rgb(255,68,55)" stroke="rgb(255,68,55)" stroke-width="1" opacity="0.4392156862745098" d="M 291.5 184 L 291 185.5 L 283.5 197 L 284 195.5 L 291.5 184 Z " /><path fill="rgb(255,68,55)" stroke="rgb(255,68,55)" stroke-width="1" opacity="0.4392156862745098" d="M 470.5 185 L 471 188.5 L 470 188.5 L 470.5 185 Z " /><path fill="rgb(255,68,55)" stroke="rgb(255,68,55)" stroke-width="1" opacity="0.4392156862745098" d="M 79.5 186 L 83 192.5 L 81 191.5 L 79.5 186 Z " /><path fill="rgb(255,68,55)" stroke="rgb(255,68,55)" stroke-width="1" opacity="0.4392156862745098" d="M 125.5 186 L 124.5 188 L 125.5 186 Z " /><path fill="rgb(255,68,55)" stroke="rgb(255,68,55)" stroke-width="1" opacity="0.4392156862745098" d="M 122.5 188 L 121.5 190 L 122.5 188 Z " /><path fill="rgb(255,68,55)" stroke="rgb(255,68,55)" stroke-width="1" opacity="0.4392156862745098" d="M 386.5 188 L 387 190.5 L 386 190.5 L 386.5 188 Z " /><path fill="rgb(255,68,55)" stroke="rgb(255,68,55)" stroke-width="1" opacity="0.4392156862745098" d="M 119.5 190 L 117.5 193 L 111.5 197 L 113.5 194 L 119.5 190 Z " /><path fill="rgb(255,68,55)" stroke="rgb(255,68,55)" stroke-width="1" opacity="0.4392156862745098" d="M 469.5 191 L 470 195.5 L 469 195.5 L 469.5 191 Z " /><path fill="rgb(255,68,55)" stroke="rgb(255,68,55)" stroke-width="1" opacity="0.4392156862745098" d="M 83.5 194 L 87 199.5 L 85 198.5 L 83.5 194 Z " /><path fill="rgb(255,68,55)" stroke="rgb(255,68,55)" stroke-width="1" opacity="0.4392156862745098" d="M 384.5 195 L 385 196.5 Q 378.9 210.4 367.5 219 L 361.5 223 L 362.5 221 L 377 208.5 L 384.5 195 Z " /><path fill="rgb(255,68,55)" stroke="rgb(255,68,55)" stroke-width="1" opacity="0.4392156862745098" d="M 109.5 197 L 107.5 200 L 101.5 204 L 103.5 201 L 109.5 197 Z " /><path fill="rgb(255,68,55)" stroke="rgb(255,68,55)" stroke-width="1" opacity="0.4392156862745098" d="M 282.5 198 L 281.5 200 L 282.5 198 Z " /><path fill="rgb(255,68,55)" stroke="rgb(255,68,55)" stroke-width="1" opacity="0.4392156862745098" d="M 468.5 198 L 469 200.5 L 468 200.5 L 468.5 198 Z " /><path fill="rgb(255,68,55)" stroke="rgb(255,68,55)" stroke-width="1" opacity="0.4392156862745098" d="M 87.5 201 L 94 206.5 L 92.5 207 L 87.5 201 Z " /><path fill="rgb(255,68,55)" stroke="rgb(255,68,55)" stroke-width="1" opacity="0.4392156862745098" d="M 280.5 201 L 279.5 203 L 280.5 201 Z " /><path fill="rgb(255,68,55)" stroke="rgb(255,68,55)" stroke-width="1" opacity="0.4392156862745098" d="M 467.5 202 L 468 204.5 L 467 204.5 L 467.5 202 Z " /><path fill="rgb(255,68,55)" stroke="rgb(255,68,55)" stroke-width="1" opacity="0.4392156862745098" d="M 99.5 204 L 97.5 207 L 96 206.5 L 99.5 204 Z " /><path fill="rgb(255,68,55)" stroke="rgb(255,68,55)" stroke-width="1" opacity="0.4392156862745098" d="M 278.5 204 L 278 205.5 L 268.5 220 L 269 218.5 L 278.5 204 Z " /><path fill="rgb(255,68,55)" stroke="rgb(255,68,55)" stroke-width="1" opacity="0.4392156862745098" d="M 466.5 206 L 467 208.5 L 466 208.5 L 466.5 206 Z " /><path fill="rgb(255,68,55)" stroke="rgb(255,68,55)" stroke-width="1" opacity="0.4392156862745098" d="M 156.5 218 L 148 227.5 L 108.5 271 L 117 261.5 L 156.5 218 Z " /><path fill="rgb(255,68,55)" stroke="rgb(255,68,55)" stroke-width="1" opacity="0.4392156862745098" d="M 462.5 219 L 463 220.5 L 459.5 228 L 459 226.5 L 462.5 219 Z " /><path fill="rgb(255,68,55)" stroke="rgb(255,68,55)" stroke-width="1" opacity="0.4392156862745098" d="M 267.5 221 L 266.5 223 L 267.5 221 Z " /><path fill="rgb(255,68,55)" stroke="rgb(255,68,55)" stroke-width="1" opacity="0.4392156862745098" d="M 359.5 223 L 358.5 225 L 349.5 229 L 349.5 228 L 359.5 223 Z " /><path fill="rgb(255,68,55)" stroke="rgb(255,68,55)" stroke-width="1" opacity="0.4392156862745098" d="M 267.5 225 L 277 229.5 L 275.5 230 L 267.5 226 L 267.5 225 Z " /><path fill="rgb(255,68,55)" stroke="rgb(255,68,55)" stroke-width="1" opacity="0.4392156862745098" d="M 457.5 231 L 458 232.5 L 452.5 242 L 453 240.5 L 457.5 231 Z " /><path fill="rgb(255,68,55)" stroke="rgb(255,68,55)" stroke-width="1" opacity="0.4392156862745098" d="M 337.5 232 L 340 232.5 L 337.5 233 L 337.5 232 Z " /><path fill="rgb(255,68,55)" stroke="rgb(255,68,55)" stroke-width="1" opacity="0.4392156862745098" d="M 288.5 233 L 291 233.5 L 288.5 234 L 288.5 233 Z " /><path fill="rgb(255,68,55)" stroke="rgb(255,68,55)" stroke-width="1" opacity="0.4392156862745098" d="M 332.5 233 L 335 233.5 L 332.5 234 L 332.5 233 Z " /><path fill="rgb(255,68,55)" stroke="rgb(255,68,55)" stroke-width="1" opacity="0.4392156862745098" d="M 293.5 234 L 296 234.5 L 293.5 235 L 293.5 234 Z " /><path fill="rgb(255,68,55)" stroke="rgb(255,68,55)" stroke-width="1" opacity="0.4392156862745098" d="M 327.5 234 L 331 234.5 L 327.5 235 L 327.5 234 Z " /><path fill="rgb(255,68,55)" stroke="rgb(255,68,55)" stroke-width="1" opacity="0.4392156862745098" d="M 297.5 235 L 307 235.5 L 297.5 236 L 297.5 235 Z " /><path fill="rgb(255,68,55)" stroke="rgb(255,68,55)" stroke-width="1" opacity="0.4392156862745098" d="M 316.5 235 L 326 235.5 L 316.5 236 L 316.5 235 Z " /><path fill="rgb(255,68,55)" stroke="rgb(255,68,55)" stroke-width="1" opacity="0.4392156862745098" d="M 451.5 243 L 451 244.5 L 448.5 249 L 449 247.5 L 451.5 243 Z " /><path fill="rgb(255,68,55)" stroke="rgb(255,68,55)" stroke-width="1" opacity="0.4392156862745098" d="M 447.5 250 L 446.5 252 L 447.5 250 Z " /><path fill="rgb(255,68,55)" stroke="rgb(255,68,55)" stroke-width="1" opacity="0.4392156862745098" d="M 445.5 253 L 444 255.5 L 434.5 268 L 438 263.5 L 445.5 253 Z " /><path fill="rgb(255,68,55)" stroke="rgb(255,68,55)" stroke-width="1" opacity="0.4392156862745098" d="M 239.5 267 L 247 279.5 L 244 277.5 L 240.5 270 L 239.5 275 L 239.5 267 Z " /><path fill="rgb(255,68,55)" stroke="rgb(255,68,55)" stroke-width="1" opacity="0.4392156862745098" d="M 433.5 269 L 416.5 287 L 407.5 294 L 409.5 291 Q 423.4 281.9 433.5 269 Z " /><path fill="rgb(255,68,55)" stroke="rgb(255,68,55)" stroke-width="1" opacity="0.4392156862745098" d="M 107.5 272 L 100 280.5 L 67.5 317 L 75 308.5 L 107.5 272 Z " /><path fill="rgb(255,68,55)" stroke="rgb(255,68,55)" stroke-width="1" opacity="0.4392156862745098" d="M 486.5 274 L 494 274.5 L 486.5 275 L 486.5 274 Z " /><path fill="rgb(255,68,55)" stroke="rgb(255,68,55)" stroke-width="1" opacity="0.4392156862745098" d="M 495.5 275 Q 501.6 276.4 504 281.5 L 505 284.5 L 504 284.5 L 498.5 277 Q 494.8 276.8 495.5 275 Z " /><path fill="rgb(255,68,55)" stroke="rgb(255,68,55)" stroke-width="1" opacity="0.4392156862745098" d="M 482.5 276 L 476.5 283 L 482.5 276 Z " /><path fill="rgb(255,68,55)" stroke="rgb(255,68,55)" stroke-width="1" opacity="0.4392156862745098" d="M 240.5 278 L 241 282.5 L 240 282.5 L 240.5 278 Z " /><path fill="rgb(255,68,55)" stroke="rgb(255,68,55)" stroke-width="1" opacity="0.4392156862745098" d="M 247.5 281 Q 255 293 266 301.5 L 251 287.5 L 247.5 281 Z " /><path fill="rgb(255,68,55)" stroke="rgb(255,68,55)" stroke-width="1" opacity="0.4392156862745098" d="M 475.5 284 L 472.5 288 L 475.5 284 Z " /><path fill="rgb(255,68,55)" stroke="rgb(255,68,55)" stroke-width="1" opacity="0.4392156862745098" d="M 241.5 285 L 242 288.5 L 241 288.5 L 241.5 285 Z " /><path fill="rgb(255,68,55)" stroke="rgb(255,68,55)" stroke-width="1" opacity="0.4392156862745098" d="M 471.5 289 L 468.5 293 L 471.5 289 Z " /><path fill="rgb(255,68,55)" stroke="rgb(255,68,55)" stroke-width="1" opacity="0.4392156862745098" d="M 242.5 290 L 243 293.5 L 242 293.5 L 242.5 290 Z " /><path fill="rgb(255,68,55)" stroke="rgb(255,68,55)" stroke-width="1" opacity="0.4392156862745098" d="M 505.5 293 L 506 296.5 L 504.5 300 L 504 297.5 L 505.5 293 Z " /><path fill="rgb(255,68,55)" stroke="rgb(255,68,55)" stroke-width="1" opacity="0.4392156862745098" d="M 405.5 294 L 403.5 297 L 393.5 303 L 394.5 301 L 405.5 294 Z " /><path fill="rgb(255,68,55)" stroke="rgb(255,68,55)" stroke-width="1" opacity="0.4392156862745098" d="M 467.5 294 L 464 298.5 L 453.5 311 L 458 305.5 L 467.5 294 Z " /><path fill="rgb(255,68,55)" stroke="rgb(255,68,55)" stroke-width="1" opacity="0.4392156862745098" d="M 243.5 295 L 244 297.5 L 243 297.5 L 243.5 295 Z " /><path fill="rgb(255,68,55)" stroke="rgb(255,68,55)" stroke-width="1" opacity="0.4392156862745098" d="M 244.5 299 L 245 301.5 L 244 301.5 L 244.5 299 Z " /><path fill="rgb(255,68,55)" stroke="rgb(255,68,55)" stroke-width="1" opacity="0.4392156862745098" d="M 267.5 302 L 270.5 306 L 267.5 302 Z " /><path fill="rgb(255,68,55)" stroke="rgb(255,68,55)" stroke-width="1" opacity="0.4392156862745098" d="M 389.5 304 L 388.5 306 L 381.5 309 L 381.5 308 L 389.5 304 Z " /><path fill="rgb(255,68,55)" stroke="rgb(255,68,55)" stroke-width="1" opacity="0.4392156862745098" d="M 272.5 306 L 288 314.5 L 286.5 315 L 273.5 308 L 272.5 306 Z " /><path fill="rgb(255,68,55)" stroke="rgb(255,68,55)" stroke-width="1" opacity="0.4392156862745098" d="M 501.5 307 L 502 309.5 L 500.5 313 L 500 310.5 L 501.5 307 Z " /><path fill="rgb(255,68,55)" stroke="rgb(255,68,55)" stroke-width="1" opacity="0.4392156862745098" d="M 378.5 309 L 380 309.5 L 374.5 312 L 374.5 311 L 378.5 309 Z " /><path fill="rgb(255,68,55)" stroke="rgb(255,68,55)" stroke-width="1" opacity="0.4392156862745098" d="M 248.5 312 L 250 315.5 L 249 315.5 L 248.5 312 Z " /><path fill="rgb(255,68,55)" stroke="rgb(255,68,55)" stroke-width="1" opacity="0.4392156862745098" d="M 371.5 312 L 373 312.5 L 368.5 314 L 368.5 313 L 371.5 312 Z " /><path fill="rgb(255,68,55)" stroke="rgb(255,68,55)" stroke-width="1" opacity="0.4392156862745098" d="M 452.5 312 L 438.5 327 L 452.5 312 Z " /><path fill="rgb(255,68,55)" stroke="rgb(255,68,55)" stroke-width="1" opacity="0.4392156862745098" d="M 289.5 315 L 297 317.5 L 294.5 318 L 289.5 316 L 289.5 315 Z " /><path fill="rgb(255,68,55)" stroke="rgb(255,68,55)" stroke-width="1" opacity="0.4392156862745098" d="M 250.5 317 L 257 329.5 L 255 328.5 L 250 318.5 L 250.5 317 Z " /><path fill="rgb(255,68,55)" stroke="rgb(255,68,55)" stroke-width="1" opacity="0.4392156862745098" d="M 354.5 317 L 358 317.5 L 354.5 318 L 354.5 317 Z " /><path fill="rgb(255,68,55)" stroke="rgb(255,68,55)" stroke-width="1" opacity="0.4392156862745098" d="M 66.5 318 L 59.5 326 L 66.5 318 Z " /><path fill="rgb(255,68,55)" stroke="rgb(255,68,55)" stroke-width="1" opacity="0.4392156862745098" d="M 298.5 318 L 301 318.5 L 298.5 319 L 298.5 318 Z " /><path fill="rgb(255,68,55)" stroke="rgb(255,68,55)" stroke-width="1" opacity="0.4392156862745098" d="M 349.5 318 L 353 318.5 L 349.5 319 L 349.5 318 Z " /><path fill="rgb(255,68,55)" stroke="rgb(255,68,55)" stroke-width="1" opacity="0.4392156862745098" d="M 302.5 319 L 306 319.5 L 302.5 320 L 302.5 319 Z " /><path fill="rgb(255,68,55)" stroke="rgb(255,68,55)" stroke-width="1" opacity="0.4392156862745098" d="M 344.5 319 L 348 319.5 L 344.5 320 L 344.5 319 Z " /><path fill="rgb(255,68,55)" stroke="rgb(255,68,55)" stroke-width="1" opacity="0.4392156862745098" d="M 307.5 320 L 312 320.5 L 307.5 321 L 307.5 320 Z " /><path fill="rgb(255,68,55)" stroke="rgb(255,68,55)" stroke-width="1" opacity="0.4392156862745098" d="M 334.5 320 L 342 320.5 L 334.5 321 L 334.5 320 Z " /><path fill="rgb(255,68,55)" stroke="rgb(255,68,55)" stroke-width="1" opacity="0.4392156862745098" d="M 497.5 320 L 498 321.5 L 496.5 324 L 496 322.5 L 497.5 320 Z " /><path fill="rgb(255,68,55)" stroke="rgb(255,68,55)" stroke-width="1" opacity="0.4392156862745098" d="M 316.5 321 L 331 321.5 L 316.5 322 L 316.5 321 Z " /><path fill="rgb(255,68,55)" stroke="rgb(255,68,55)" stroke-width="1" opacity="0.4392156862745098" d="M 58.5 327 L 51.5 335 L 58.5 327 Z " /><path fill="rgb(255,68,55)" stroke="rgb(255,68,55)" stroke-width="1" opacity="0.4392156862745098" d="M 436.5 328 L 438 328.5 L 427.5 338 L 436.5 328 Z " /><path fill="rgb(255,68,55)" stroke="rgb(255,68,55)" stroke-width="1" opacity="0.4392156862745098" d="M 494.5 328 L 495 329.5 L 493.5 332 L 493 330.5 L 494.5 328 Z " /><path fill="rgb(255,68,55)" stroke="rgb(255,68,55)" stroke-width="1" opacity="0.4392156862745098" d="M 257.5 331 L 263 338.5 L 260 336.5 L 257.5 331 Z " /><path fill="rgb(255,68,55)" stroke="rgb(255,68,55)" stroke-width="1" opacity="0.4392156862745098" d="M 50.5 336 L 43 344.5 L 31.5 358 L 36 352.5 L 50.5 336 Z " /><path fill="rgb(255,68,55)" stroke="rgb(255,68,55)" stroke-width="1" opacity="0.4392156862745098" d="M 491.5 336 L 492 337.5 L 490.5 340 L 490 338.5 L 491.5 336 Z " /><path fill="rgb(255,68,55)" stroke="rgb(255,68,55)" stroke-width="1" opacity="0.4392156862745098" d="M 185.5 338 L 186 341 L 182 343.5 L 175.5 352 L 178 348.5 L 185.5 338 Z " /><path fill="rgb(255,68,55)" stroke="rgb(255,68,55)" stroke-width="1" opacity="0.4392156862745098" d="M 425.5 338 L 421.5 343 L 414.5 348 L 416.5 345 L 425.5 338 Z " /><path fill="rgb(255,68,55)" stroke="rgb(255,68,55)" stroke-width="1" opacity="0.4392156862745098" d="M 263.5 340 L 266.5 344 L 263.5 340 Z " /><path fill="rgb(255,68,55)" stroke="rgb(255,68,55)" stroke-width="1" opacity="0.4392156862745098" d="M 489.5 341 L 490 342.5 L 487.5 347 L 487 345.5 L 489.5 341 Z " /><path fill="rgb(255,68,55)" stroke="rgb(255,68,55)" stroke-width="1" opacity="0.4392156862745098" d="M 186.5 344 L 187 350.5 L 186 350.5 L 186.5 344 Z " /><path fill="rgb(255,68,55)" stroke="rgb(255,68,55)" stroke-width="1" opacity="0.4392156862745098" d="M 267.5 345 L 274.5 353 L 267.5 345 Z " /><path fill="rgb(255,68,55)" stroke="rgb(255,68,55)" stroke-width="1" opacity="0.4392156862745098" d="M 412.5 348 L 411.5 350 L 412.5 348 Z " /><path fill="rgb(255,68,55)" stroke="rgb(255,68,55)" stroke-width="1" opacity="0.4392156862745098" d="M 409.5 350 L 408.5 352 L 409.5 350 Z " /><path fill="rgb(255,68,55)" stroke="rgb(255,68,55)" stroke-width="1" opacity="0.4392156862745098" d="M 485.5 350 L 486 351.5 L 482.5 358 L 482 356.5 L 485.5 350 Z " /><path fill="rgb(255,68,55)" stroke="rgb(255,68,55)" stroke-width="1" opacity="0.4392156862745098" d="M 406.5 352 L 405.5 354 L 403.5 355 L 404.5 353 L 406.5 352 Z " /><path fill="rgb(255,68,55)" stroke="rgb(255,68,55)" stroke-width="1" opacity="0.4392156862745098" d="M 174.5 353 L 172.5 356 L 174.5 353 Z " /><path fill="rgb(255,68,55)" stroke="rgb(255,68,55)" stroke-width="1" opacity="0.4392156862745098" d="M 187.5 353 L 188 356.5 L 187 356.5 L 187.5 353 Z " /><path fill="rgb(255,68,55)" stroke="rgb(255,68,55)" stroke-width="1" opacity="0.4392156862745098" d="M 276.5 353 L 279.5 357 L 276.5 353 Z " /><path fill="rgb(255,68,55)" stroke="rgb(255,68,55)" stroke-width="1" opacity="0.4392156862745098" d="M 399.5 356 L 398.5 358 L 391.5 361 L 391.5 360 L 399.5 356 Z " /><path fill="rgb(255,68,55)" stroke="rgb(255,68,55)" stroke-width="1" opacity="0.4392156862745098" d="M 171.5 357 L 169 360.5 L 162.5 369 L 165 365.5 L 171.5 357 Z " /><path fill="rgb(255,68,55)" stroke="rgb(255,68,55)" stroke-width="1" opacity="0.4392156862745098" d="M 281.5 357 L 282.5 359 L 281.5 357 Z " /><path fill="rgb(255,68,55)" stroke="rgb(255,68,55)" stroke-width="1" opacity="0.4392156862745098" d="M 30.5 359 L 26 364.5 L 6.5 389 L 8 386.5 L 30.5 359 Z " /><path fill="rgb(255,68,55)" stroke="rgb(255,68,55)" stroke-width="1" opacity="0.4392156862745098" d="M 188.5 359 L 189 363.5 L 188 363.5 L 188.5 359 Z " /><path fill="rgb(255,68,55)" stroke="rgb(255,68,55)" stroke-width="1" opacity="0.4392156862745098" d="M 284.5 359 L 285.5 361 L 284.5 359 Z " /><path fill="rgb(255,68,55)" stroke="rgb(255,68,55)" stroke-width="1" opacity="0.4392156862745098" d="M 287.5 361 L 296 365.5 L 294.5 366 L 288.5 363 L 287.5 361 Z " /><path fill="rgb(255,68,55)" stroke="rgb(255,68,55)" stroke-width="1" opacity="0.4392156862745098" d="M 386.5 362 L 388 362.5 L 384.5 364 L 384.5 363 L 386.5 362 Z " /><path fill="rgb(255,68,55)" stroke="rgb(255,68,55)" stroke-width="1" opacity="0.4392156862745098" d="M 189.5 365 L 190 368.5 L 189 368.5 L 189.5 365 Z " /><path fill="rgb(255,68,55)" stroke="rgb(255,68,55)" stroke-width="1" opacity="0.4392156862745098" d="M 478.5 365 L 478 366.5 L 473.5 375 L 474 373.5 L 478.5 365 Z " /><path fill="rgb(255,68,55)" stroke="rgb(255,68,55)" stroke-width="1" opacity="0.4392156862745098" d="M 368.5 368 L 371 368.5 L 368.5 369 L 368.5 368 Z " /><path fill="rgb(255,68,55)" stroke="rgb(255,68,55)" stroke-width="1" opacity="0.4392156862745098" d="M 363.5 369 L 367 369.5 L 363.5 370 L 363.5 369 Z " /><path fill="rgb(255,68,55)" stroke="rgb(255,68,55)" stroke-width="1" opacity="0.4392156862745098" d="M 161.5 370 L 159 373.5 L 135.5 403 L 138 399.5 L 161.5 370 Z " /><path fill="rgb(255,68,55)" stroke="rgb(255,68,55)" stroke-width="1" opacity="0.4392156862745098" d="M 190.5 370 L 191 372.5 L 190 372.5 L 190.5 370 Z " /><path fill="rgb(255,68,55)" stroke="rgb(255,68,55)" stroke-width="1" opacity="0.4392156862745098" d="M 308.5 370 L 312 370.5 L 308.5 371 L 308.5 370 Z " /><path fill="rgb(255,68,55)" stroke="rgb(255,68,55)" stroke-width="1" opacity="0.4392156862745098" d="M 359.5 370 L 362 370.5 L 359.5 371 L 359.5 370 Z " /><path fill="rgb(255,68,55)" stroke="rgb(255,68,55)" stroke-width="1" opacity="0.4392156862745098" d="M 313.5 371 L 317 371.5 L 313.5 372 L 313.5 371 Z " /><path fill="rgb(255,68,55)" stroke="rgb(255,68,55)" stroke-width="1" opacity="0.4392156862745098" d="M 351.5 371 L 357 371.5 L 351.5 372 L 351.5 371 Z " /><path fill="rgb(255,68,55)" stroke="rgb(255,68,55)" stroke-width="1" opacity="0.4392156862745098" d="M 319.5 372 L 328 372.5 L 319.5 373 L 319.5 372 Z " /><path fill="rgb(255,68,55)" stroke="rgb(255,68,55)" stroke-width="1" opacity="0.4392156862745098" d="M 339.5 372 L 349 372.5 L 339.5 373 L 339.5 372 Z " /><path fill="rgb(255,68,55)" stroke="rgb(255,68,55)" stroke-width="1" opacity="0.4392156862745098" d="M 191.5 375 L 192 377.5 L 191 377.5 L 191.5 375 Z " /><path fill="rgb(255,68,55)" stroke="rgb(255,68,55)" stroke-width="1" opacity="0.4392156862745098" d="M 471.5 378 L 471 379.5 L 469.5 382 L 470 380.5 L 471.5 378 Z " /><path fill="rgb(255,68,55)" stroke="rgb(255,68,55)" stroke-width="1" opacity="0.4392156862745098" d="M 193.5 382 L 194 384.5 L 193 384.5 L 193.5 382 Z " /><path fill="rgb(255,68,55)" stroke="rgb(255,68,55)" stroke-width="1" opacity="0.4392156862745098" d="M 468.5 383 L 468 384.5 L 464.5 390 L 465 388.5 L 468.5 383 Z " /><path fill="rgb(255,68,55)" stroke="rgb(255,68,55)" stroke-width="1" opacity="0.4392156862745098" d="M 194.5 386 L 198 396.5 L 197 396.5 L 194 388.5 L 194.5 386 Z " /><path fill="rgb(255,68,55)" stroke="rgb(255,68,55)" stroke-width="1" opacity="0.4392156862745098" d="M 6.5 391 L 7 394.5 L 6 394.5 L 6.5 391 Z " /><path fill="rgb(255,68,55)" stroke="rgb(255,68,55)" stroke-width="1" opacity="0.4392156862745098" d="M 463.5 391 L 462.5 393 L 463.5 391 Z " /><path fill="rgb(255,68,55)" stroke="rgb(255,68,55)" stroke-width="1" opacity="0.4392156862745098" d="M 461.5 394 L 461 395.5 Q 445.4 420.4 423.5 439 L 418.5 443 L 422.5 438 L 441 420.5 L 461.5 394 Z " /><path fill="rgb(255,68,55)" stroke="rgb(255,68,55)" stroke-width="1" opacity="0.4392156862745098" d="M 7.5 397 L 8 400.5 L 7 400.5 L 7.5 397 Z " /><path fill="rgb(255,68,55)" stroke="rgb(255,68,55)" stroke-width="1" opacity="0.4392156862745098" d="M 199.5 401 L 201 404.5 L 200 404.5 L 199.5 401 Z " /><path fill="rgb(255,68,55)" stroke="rgb(255,68,55)" stroke-width="1" opacity="0.4392156862745098" d="M 8.5 402 L 10 407.5 L 9 407.5 L 8.5 402 Z " /><path fill="rgb(255,68,55)" stroke="rgb(255,68,55)" stroke-width="1" opacity="0.4392156862745098" d="M 134.5 404 L 131 408.5 L 110.5 433 L 115 427.5 L 134.5 404 Z " /><path fill="rgb(255,68,55)" stroke="rgb(255,68,55)" stroke-width="1" opacity="0.4392156862745098" d="M 202.5 408 L 204 411.5 L 203 411.5 L 202.5 408 Z " /><path fill="rgb(255,68,55)" stroke="rgb(255,68,55)" stroke-width="1" opacity="0.4392156862745098" d="M 205.5 415 L 211 424.5 L 209 423.5 L 205.5 415 Z " /><path fill="rgb(255,68,55)" stroke="rgb(255,68,55)" stroke-width="1" opacity="0.4392156862745098" d="M 14.5 421 L 16 424.5 L 15 424.5 L 14.5 421 Z " /><path fill="rgb(255,68,55)" stroke="rgb(255,68,55)" stroke-width="1" opacity="0.4392156862745098" d="M 16.5 426 L 18 429.5 L 17 429.5 L 16.5 426 Z " /><path fill="rgb(255,68,55)" stroke="rgb(255,68,55)" stroke-width="1" opacity="0.4392156862745098" d="M 211.5 426 L 223 441.5 L 219 438.5 L 211.5 426 Z " /><path fill="rgb(255,68,55)" stroke="rgb(255,68,55)" stroke-width="1" opacity="0.4392156862745098" d="M 18.5 431 L 20 434.5 L 19 434.5 L 18.5 431 Z " /><path fill="rgb(255,68,55)" stroke="rgb(255,68,55)" stroke-width="1" opacity="0.4392156862745098" d="M 109.5 434 L 105.5 439 L 109.5 434 Z " /><path fill="rgb(255,68,55)" stroke="rgb(255,68,55)" stroke-width="1" opacity="0.4392156862745098" d="M 22.5 440 L 26 447.5 L 25 447.5 L 22.5 440 Z " /><path fill="rgb(255,68,55)" stroke="rgb(255,68,55)" stroke-width="1" opacity="0.4392156862745098" d="M 104.5 440 L 99.5 446 L 104.5 440 Z " /><path fill="rgb(255,68,55)" stroke="rgb(255,68,55)" stroke-width="1" opacity="0.4392156862745098" d="M 223.5 443 L 245 462.5 L 242.5 461 Q 230.4 453.9 223.5 443 Z " /><path fill="rgb(255,68,55)" stroke="rgb(255,68,55)" stroke-width="1" opacity="0.4392156862745098" d="M 416.5 443 L 412.5 448 L 409.5 450 L 411.5 447 L 416.5 443 Z " /><path fill="rgb(255,68,55)" stroke="rgb(255,68,55)" stroke-width="1" opacity="0.4392156862745098" d="M 98.5 447 L 92.5 454 L 98.5 447 Z " /><path fill="rgb(255,68,55)" stroke="rgb(255,68,55)" stroke-width="1" opacity="0.4392156862745098" d="M 26.5 449 L 31 456.5 L 29 455.5 L 26.5 449 Z " /><path fill="rgb(255,68,55)" stroke="rgb(255,68,55)" stroke-width="1" opacity="0.4392156862745098" d="M 407.5 450 L 406.5 452 L 407.5 450 Z " /><path fill="rgb(255,68,55)" stroke="rgb(255,68,55)" stroke-width="1" opacity="0.4392156862745098" d="M 404.5 452 L 403.5 454 L 404.5 452 Z " /><path fill="rgb(255,68,55)" stroke="rgb(255,68,55)" stroke-width="1" opacity="0.4392156862745098" d="M 401.5 454 L 399.5 457 L 395.5 459 L 396.5 457 L 401.5 454 Z " /><path fill="rgb(255,68,55)" stroke="rgb(255,68,55)" stroke-width="1" opacity="0.4392156862745098" d="M 91.5 455 L 86 461.5 L 68.5 482 L 60.5 487 L 54.5 487 L 54.5 486 L 60.5 486 L 71 478.5 L 91.5 455 Z " /><path fill="rgb(255,68,55)" stroke="rgb(255,68,55)" stroke-width="1" opacity="0.4392156862745098" d="M 393.5 459 L 392.5 461 L 386.5 464 L 387.5 462 L 393.5 459 Z " /><path fill="rgb(255,68,55)" stroke="rgb(255,68,55)" stroke-width="1" opacity="0.4392156862745098" d="M 33.5 462 L 43 476.5 L 50.5 484 L 53 485.5 L 51.5 485 L 42 476.5 L 33.5 462 Z " /><path fill="rgb(255,68,55)" stroke="rgb(255,68,55)" stroke-width="1" opacity="0.4392156862745098" d="M 246.5 463 L 253 467.5 L 251.5 467 Q 246.9 465.8 246.5 463 Z " /><path fill="rgb(255,68,55)" stroke="rgb(255,68,55)" stroke-width="1" opacity="0.4392156862745098" d="M 379.5 466 L 381 466.5 L 375.5 469 L 375.5 468 L 379.5 466 Z " /><path fill="rgb(255,68,55)" stroke="rgb(255,68,55)" stroke-width="1" opacity="0.4392156862745098" d="M 370.5 470 L 372 470.5 L 355.5 476 L 355.5 475 L 370.5 470 Z " /><path fill="rgb(255,68,55)" stroke="rgb(255,68,55)" stroke-width="1" opacity="0.4392156862745098" d="M 260.5 471 L 269 474.5 L 266.5 475 L 260.5 472 L 260.5 471 Z " /><path fill="rgb(255,68,55)" stroke="rgb(255,68,55)" stroke-width="1" opacity="0.4392156862745098" d="M 351.5 476 L 354 476.5 L 351.5 477 L 351.5 476 Z " /><path fill="rgb(255,68,55)" stroke="rgb(255,68,55)" stroke-width="1" opacity="0.4392156862745098" d="M 347.5 477 L 350 477.5 L 347.5 478 L 347.5 477 Z " /><path fill="rgb(255,68,55)" stroke="rgb(255,68,55)" stroke-width="1" opacity="0.4392156862745098" d="M 279.5 478 L 283 478.5 L 279.5 479 L 279.5 478 Z " /><path fill="rgb(255,68,55)" stroke="rgb(255,68,55)" stroke-width="1" opacity="0.4392156862745098" d="M 343.5 478 L 346 478.5 L 343.5 479 L 343.5 478 Z " /><path fill="rgb(255,68,55)" stroke="rgb(255,68,55)" stroke-width="1" opacity="0.4392156862745098" d="M 284.5 479 L 288 479.5 L 284.5 480 L 284.5 479 Z " /><path fill="rgb(255,68,55)" stroke="rgb(255,68,55)" stroke-width="1" opacity="0.4392156862745098" d="M 337.5 479 L 341 479.5 L 337.5 480 L 337.5 479 Z " /><path fill="rgb(255,68,55)" stroke="rgb(255,68,55)" stroke-width="1" opacity="0.4392156862745098" d="M 290.5 480 L 294 480.5 L 290.5 481 L 290.5 480 Z " /><path fill="rgb(255,68,55)" stroke="rgb(255,68,55)" stroke-width="1" opacity="0.4392156862745098" d="M 329.5 480 L 334 480.5 L 329.5 481 L 329.5 480 Z " /><path fill="rgb(255,68,55)" stroke="rgb(255,68,55)" stroke-width="1" opacity="0.4392156862745098" d="M 296.5 481 L 309 481.5 L 296.5 482 L 296.5 481 Z " /><path fill="rgb(255,68,55)" stroke="rgb(255,68,55)" stroke-width="1" opacity="0.4392156862745098" d="M 314.5 481 L 327 481.5 L 314.5 482 L 314.5 481 Z " /><path fill="rgb(255,68,56)" stroke="rgb(255,68,56)" stroke-width="1" opacity="1" d="M 275.5 26 L 321.5 26 L 322.5 27 L 330.5 27 L 331.5 28 L 349.5 30 L 372.5 36 Q 411.6 49.4 437 76.5 Q 455.4 96.6 465 125.5 L 471 155.5 L 471 184.5 L 466 209.5 Q 460.5 227.5 452 242.5 Q 437.8 267.8 416.5 286 Q 398.1 302.1 373.5 312 L 358.5 317 L 343.5 320 L 312.5 321 L 297.5 318 L 276.5 309 Q 262.2 300.3 252 287.5 L 239.5 267 L 239 274.5 L 240 275.5 L 242 293.5 L 250 318.5 Q 259 339 274.5 353 Q 288.1 365.4 308.5 371 L 319.5 373 L 348.5 373 L 370.5 369 L 392.5 361 L 417.5 346 L 438 329 L 438 327.5 L 453 312.5 L 483.5 276 Q 487 273.5 494.5 275 L 503 281.5 L 506 288.5 L 506 292.5 Q 493.6 339.6 472 377.5 Q 452.3 412.3 423.5 438 Q 401.6 457.6 372.5 470 L 342.5 479 L 309.5 482 L 308.5 481 L 294.5 481 L 278.5 478 L 259.5 471 Q 237.8 460.2 223 442.5 Q 208 424.5 199 400.5 L 191 374.5 L 185.5 338 Q 130.4 412.9 68.5 481 L 60.5 486 L 53.5 486 L 43 476.5 Q 16.7 440.8 6 389.5 L 43 344.5 L 237 129.5 L 234.5 129 L 205.5 140 L 173.5 156 L 143.5 174 L 94.5 207 L 87 200.5 Q 75.7 181.8 69 158.5 L 62 124.5 L 61 102.5 Q 78.1 88.6 98.5 78 Q 125.6 63.1 156.5 52 L 180.5 44 L 219.5 34 L 247.5 29 L 274.5 27 L 275.5 26 Z M 331 121 L 330 125 L 265 225 L 276 230 L 298 236 L 326 236 L 340 233 Q 356 228 368 219 L 382 203 L 387 191 L 388 180 L 389 179 Q 389 155 377 143 Q 361 124 331 121 Z " /><path fill="rgb(0,0,0)" stroke="rgb(0,0,0)" stroke-width="1" opacity="0" d="M 0 0 L 512 0 L 512 512 L 0 512 L 0 0 Z M 281 25 L 280 26 L 267 26 L 266 27 L 250 28 L 217 34 L 182 43 L 155 52 Q 126 62 101 76 L 74 92 L 60 103 L 62 130 L 68 158 L 79 188 L 87 202 L 93 207 L 98 207 Q 132 180 172 158 L 208 140 L 234 131 L 235 131 L 42 345 L 6 389 L 8 405 L 18 433 Q 28 457 42 477 Q 46 484 55 487 L 61 487 L 69 482 Q 129 416 182 344 L 186 341 L 188 364 L 196 395 Q 206 423 223 444 Q 235 457 251 467 L 267 475 L 280 479 L 297 482 L 327 482 L 328 481 L 346 479 L 370 472 Q 401 460 424 439 Q 452 414 471 381 L 490 343 L 506 297 Q 507 287 504 282 Q 501 276 494 274 Q 486 273 483 276 L 453 312 L 438 327 L 438 328 L 414 348 L 389 362 L 359 371 L 340 372 L 339 373 L 318 372 L 308 370 Q 289 364 276 353 Q 259 338 250 317 L 245 303 L 240 278 L 241 270 L 251 288 Q 262 301 277 310 L 295 318 L 317 322 L 342 321 L 371 314 Q 397 304 417 287 Q 439 268 454 241 L 462 224 L 467 209 L 472 180 L 471 151 L 466 127 Q 457 97 438 77 Q 412 48 372 35 L 358 31 L 337 27 L 329 27 L 328 26 L 319 26 L 318 25 L 281 25 Z " /><path fill="rgb(0,0,0)" stroke="rgb(0,0,0)" stroke-width="1" opacity="0" d="M 332.5 121 L 348.5 125 L 363.5 132 L 377 143.5 L 386 159.5 L 388 169.5 L 388 182.5 Q 383.5 206 367.5 218 Q 356.2 227.2 340.5 232 L 326.5 235 L 307.5 236 L 306.5 235 L 296.5 235 L 286.5 233 L 266 225 L 332.5 121 Z " /></svg>