<svg width="1280" height="896" version="1.1" xmlns="http://www.w3.org/2000/svg" desc="Created with imagetracer.js version 1.2.6" ><path fill="rgb(244,251,252)" stroke="rgb(244,251,252)" stroke-width="1" opacity="1" d="M 737.5 314 L 749.5 314 L 762 317 L 756 336 L 741.5 334 L 731.5 337 L 726 342.5 L 723 348.5 L 720 364 L 744.5 364 L 746 365.5 L 744 379.5 L 741.5 384 L 716.5 384 Q 715.5 384 716 388.5 L 697 492.5 L 688 514.5 L 679.5 524 Q 673.7 529.2 664.5 531 L 644.5 532 L 636.5 530 L 633 527.5 Q 634.6 517.1 639.5 510 L 653.5 512 Q 654.8 509.7 659.5 511 L 665 508 Q 672 498.8 675 484.5 L 683 435.5 L 689 407.5 L 690 396.5 L 693 384.5 L 675.5 384 L 674 382.5 L 676 367.5 L 678.5 364 L 695.5 364 L 696 361.5 L 703 337.5 Q 707.6 328.1 715.5 322 L 724.5 317 L 737.5 314 Z " /><path fill="rgb(244,251,252)" stroke="rgb(244,251,252)" stroke-width="1" opacity="1" d="M 407.5 317 L 429.5 317 L 430 317.5 L 430 477.5 L 428.5 479 L 407.5 479 L 406 477.5 L 406 318.5 L 407.5 317 Z " /><path fill="rgb(244,251,252)" stroke="rgb(244,251,252)" stroke-width="1" opacity="1" d="M 225.5 361 L 234.5 361 L 235.5 362 L 243.5 362 L 252.5 364 L 270 372.5 L 270 375.5 L 263.5 390 L 240.5 382 L 224.5 381 Q 216.7 382.2 213 387.5 Q 210.3 389.8 211 395.5 L 216.5 403 L 226.5 408 L 255.5 418 L 269 429.5 Q 274.9 437.1 273 452.5 Q 269.9 466.9 259.5 474 Q 253.1 479.1 243.5 481 L 223.5 482 L 200.5 477 L 185 469 L 184 466.5 L 190 450 L 193.5 450 L 212.5 460 L 221.5 462 L 237.5 462 L 247 456.5 Q 250.7 453.7 250 446.5 Q 248.6 440.4 243.5 438 L 234.5 434 L 210.5 427 Q 199.5 423 193 414.5 Q 185.8 406.7 188 389.5 Q 191.5 376 201.5 369 L 208.5 365 L 217.5 362 Q 223.8 363.8 225.5 361 Z " /><path fill="rgb(244,251,252)" stroke="rgb(244,251,252)" stroke-width="1" opacity="1" d="M 607.5 361 Q 636.8 360.2 653 372.5 L 653 375.5 L 646.5 390 L 623.5 382 L 606.5 381 Q 599.5 382.6 596 387.5 Q 593.3 389.8 594 395.5 L 599.5 403 L 609.5 408 Q 626.7 411.8 640.5 419 L 652 429.5 Q 658.2 436.8 656 452.5 Q 653.1 467.1 642.5 474 L 626.5 481 L 606.5 482 L 586.5 478 L 568 469 L 568 463.5 L 573 450 L 576.5 450 L 595.5 460 L 604.5 462 L 620.5 462 L 630 456.5 Q 633.7 453.7 633 446.5 Q 631.6 440.4 626.5 438 L 617.5 434 L 593.5 427 Q 582.5 423 576 414.5 L 571 403.5 L 571 389.5 Q 574.5 376 584.5 369 L 596.5 363 L 607.5 361 Z " /><path fill="rgb(244,251,252)" stroke="rgb(244,251,252)" stroke-width="1" opacity="1" d="M 999.5 361 L 1018.5 362 L 1031.5 365 L 1035 367.5 L 1031 381.5 L 1028.5 385 L 1013.5 382 L 997.5 382 Q 984.8 384.3 979 393.5 L 973 406.5 L 971 422.5 L 972 423.5 L 972 432.5 L 974 440.5 Q 977.1 448.9 983.5 454 L 992.5 459 L 1008.5 461 L 1009.5 460 L 1018.5 460 L 1029.5 457 L 1035 468.5 L 1036 474.5 L 1029.5 478 L 1014.5 481 L 994.5 481 L 980.5 478 L 973.5 475 L 958 461.5 L 952 451.5 L 948 439.5 Q 949.3 434.8 947 433.5 L 947 409.5 Q 951.1 385.6 966.5 373 L 980.5 365 L 990.5 362 L 998.5 362 L 999.5 361 Z " /><path fill="rgb(244,251,252)" stroke="rgb(244,251,252)" stroke-width="1" opacity="1" d="M 322.5 362 L 348.5 362 L 353.5 363 Q 367.8 366.3 375 376.5 L 379 383.5 L 382 395.5 L 382 474 L 375.5 476 L 346.5 481 L 323.5 481 L 306.5 477 Q 298.1 473.4 293 466.5 L 288 457.5 L 286 443.5 L 287 442.5 L 288 431.5 L 291 425.5 L 300.5 415 L 317.5 407 L 329.5 406 L 330.5 405 L 342.5 405 L 343.5 406 L 359 407 L 358 394.5 L 353.5 387 Q 344.7 379.3 325.5 382 L 314.5 384 L 299.5 390 L 293 375.5 L 293 372.5 L 299.5 368 L 322.5 362 Z M 333 424 L 319 428 L 313 434 L 310 443 L 311 451 L 314 456 L 321 460 L 329 462 L 344 462 L 345 461 L 358 460 L 359 459 L 359 426 L 347 424 L 333 424 Z " /><path fill="rgb(244,251,252)" stroke="rgb(244,251,252)" stroke-width="1" opacity="1" d="M 494.5 362 L 514.5 362 L 519.5 363 Q 533.9 367.1 542 377.5 Q 549.3 385.7 552 398.5 Q 550.8 403.3 553 404.5 L 553 425.5 L 550.5 428 L 477 428 Q 476.3 446 486.5 454 L 498.5 460 L 520.5 461 L 531.5 459 L 541.5 455 L 544 457.5 L 549 472.5 L 546.5 475 L 530.5 480 Q 525.7 478.8 524.5 481 L 498.5 481 L 488.5 479 L 476.5 474 L 462 461.5 Q 454.7 452.3 452 438.5 L 451 412.5 L 453 401.5 L 459 386.5 L 471.5 372 Q 480.5 364.5 494.5 362 Z M 501 381 L 490 385 Q 479 392 477 407 L 478 409 L 529 409 Q 530 397 524 391 Q 517 381 501 381 Z " /><path fill="rgb(244,251,252)" stroke="rgb(244,251,252)" stroke-width="1" opacity="1" d="M 791.5 362 L 810.5 362 L 819.5 364 Q 833.4 369.1 842 379.5 Q 849.8 389.2 853 403.5 Q 851.7 408.2 854 409.5 L 854 433.5 L 850 449.5 L 845 459.5 L 834.5 471 Q 820.5 484 790.5 481 Q 770.5 477 760 463.5 Q 752.2 453.8 749 439.5 Q 750.2 434.8 748 433.5 L 748 409.5 L 752 393.5 Q 756.8 381.8 765.5 374 Q 775.1 364.6 791.5 362 Z M 795 382 L 786 386 L 778 395 L 773 413 L 773 431 Q 775 432 774 437 Q 776 447 781 454 L 788 459 L 798 462 Q 811 463 818 457 L 826 445 L 829 433 L 829 411 L 826 399 L 823 393 Q 816 380 795 382 Z " /><path fill="rgb(244,251,252)" stroke="rgb(244,251,252)" stroke-width="1" opacity="1" d="M 1087.5 362 L 1106.5 362 L 1117.5 365 Q 1128.2 369.8 1135 378.5 Q 1141.3 386.3 1144 397.5 L 1146 418.5 Q 1143.3 420.3 1145 426.5 L 1143.5 428 L 1069.5 428 L 1069 428.5 L 1069 435.5 Q 1071.2 449.8 1081.5 456 L 1087.5 459 L 1096.5 461 L 1112.5 461 L 1123.5 459 L 1133.5 455 L 1136 456 L 1141 472.5 L 1136.5 476 L 1122.5 480 Q 1117.8 478.8 1116.5 481 L 1090.5 481 L 1080.5 479 L 1068.5 474 L 1055 462.5 Q 1041.3 446.2 1043 414.5 L 1044 413.5 L 1045 402.5 L 1049 390.5 Q 1054.4 379.4 1063.5 372 L 1075.5 365 L 1087.5 362 Z M 1093 381 L 1082 385 L 1075 392 L 1071 400 L 1069 409 L 1122 409 L 1119 396 L 1116 391 Q 1110 380 1093 381 Z " /><path fill="rgb(244,251,252)" stroke="rgb(244,251,252)" stroke-width="1" opacity="1" d="M 916.5 363 L 933.5 363 L 938.5 364 L 942 366.5 L 937 381.5 L 934.5 385 Q 928.6 382.4 918.5 384 Q 907.8 386.3 903 394.5 L 899 403.5 L 898 420.5 L 897 421.5 L 897 478 L 894.5 479 L 876.5 479 L 874 478 L 874 364.5 L 874.5 364 L 895.5 364 L 897 365.5 L 897.5 374 Q 904.5 366 916.5 363 Z " /><path fill="rgb(0,162,225)" stroke="rgb(0,162,225)" stroke-width="1" opacity="0.996078431372549" d="M 319.5 2 L 346.5 2 L 347.5 3 L 358.5 3 L 359.5 4 L 367.5 4 L 368.5 5 L 379.5 6 L 404.5 12 L 429.5 21 Q 483.9 44.6 520 86.5 L 529.5 99 Q 562.8 63.3 612.5 44 L 630.5 38 L 658.5 32 L 675.5 31 L 676.5 30 L 706.5 30 L 707.5 31 L 717.5 31 L 745.5 36 L 765.5 42 L 787.5 51 Q 829.6 71.4 859 104.5 Q 876.5 122.9 888 146 L 921.5 134 L 950.5 127 L 970.5 125 L 971.5 124 L 983.5 124 L 984.5 123 L 1014.5 123 L 1015.5 124 L 1036.5 125 L 1067.5 131 L 1093.5 139 L 1121.5 151 Q 1167.6 174.4 1201 210.5 Q 1237.4 248.6 1258 302.5 L 1265 323.5 L 1273 361.5 L 1274 378.5 L 1275 379.5 L 1275 422.5 L 1274 423.5 L 1274 432.5 L 1273 433.5 L 1273 440.5 L 1272 441.5 L 1270 458.5 L 1262 488.5 L 1252 514.5 Q 1226.8 569.8 1184.5 608 Q 1143.7 645.7 1085.5 666 L 1055.5 674 L 1050.5 674 L 1037.5 677 L 1019.5 678 L 1018.5 679 L 981.5 679 L 981.5 678 L 1018.5 678 L 1019.5 677 L 1037.5 676 L 1067.5 670 L 1103.5 658 Q 1163.6 632.1 1204 586.5 Q 1239.2 547.7 1259 493.5 L 1267 466.5 L 1272 440.5 L 1273 423.5 L 1274 422.5 L 1274 380.5 L 1273 379.5 L 1273 369.5 L 1272 368.5 L 1271 355.5 L 1266 331.5 L 1260 311.5 L 1251 288.5 Q 1226.2 233.8 1184.5 196 Q 1146.3 160.2 1092.5 140 L 1070.5 133 L 1042.5 127 L 1028.5 126 L 1027.5 125 L 1015.5 125 L 1014.5 124 L 984.5 124 L 983.5 125 L 963.5 126 L 941.5 130 L 909.5 139 L 888.5 148 Q 869.1 113.4 840.5 88 Q 809.9 60.1 767.5 44 L 748.5 38 L 724.5 33 L 707.5 32 L 706.5 31 L 676.5 31 L 675.5 32 L 658.5 33 L 634.5 38 L 618.5 43 L 594.5 53 Q 556.7 71.7 529.5 101 L 507 74 L 505.5 74 L 483.5 54 L 463.5 40 Q 442.9 27.1 418.5 18 L 396.5 11 L 373.5 6 L 359.5 5 L 358.5 4 L 347.5 4 L 346.5 3 L 319.5 3 L 318.5 4 L 307.5 4 L 306.5 5 L 299.5 5 L 298.5 6 L 281.5 8 L 265.5 12 L 232.5 24 Q 183.1 46.6 149 84.5 Q 118 118.5 100 165.5 L 95 180.5 L 88 211.5 L 87 226.5 L 86 227.5 L 85 256.5 L 86 257.5 L 87 281.5 L 92 308.5 L 101 337.5 L 106 348.5 Q 75.1 367.1 52 393.5 Q 22.8 426.3 8 473.5 L 1 505.5 L 1 564.5 L 7 593.5 L 13 611.5 L 27 641.5 Q 43.3 670.2 66.5 692 Q 96.2 720.8 138.5 737 L 160.5 744 L 180.5 748 L 198.5 749 L 199.5 750 L 224.5 750 L 225.5 749 L 242.5 748 L 255.5 745 Q 275.8 798.7 314.5 834 Q 350.8 868.7 404.5 886 L 435.5 893 L 506.5 893 Q 549.4 885.4 581.5 867 Q 615 848 640 820.5 Q 665.4 792.9 681.5 756 L 712.5 768 L 733.5 773 L 745.5 774 L 746.5 775 L 756.5 775 L 757.5 776 L 782.5 776 L 783.5 775 L 792.5 775 L 815.5 771 L 848.5 760 Q 889.1 742.1 917 711.5 Q 933.5 694.6 944 673 L 962.5 676 L 980 677.5 L 969.5 678 L 968.5 677 L 961.5 677 L 945 674 Q 931.3 700.9 909.5 721 Q 880.7 749.2 839.5 765 L 827.5 769 L 800.5 775 L 783.5 776 L 782.5 777 L 757.5 777 L 756.5 776 L 738.5 775 L 715.5 770 Q 697.3 765.2 682.5 757 Q 661.9 803.9 626.5 836 Q 590.5 870 537.5 887 L 506.5 894 L 434.5 894 L 400.5 886 L 362.5 870 Q 329.8 852.2 305 826.5 Q 272.6 794.1 256 747 L 243.5 749 L 236.5 749 L 235.5 750 L 225.5 750 L 224.5 751 L 199.5 751 L 198.5 750 L 187.5 750 L 186.5 749 L 168.5 747 Q 146.4 742.1 127.5 734 Q 88.1 716.4 60 687.5 Q 24.1 651.9 7 597.5 L 0 565.5 L 0 504.5 L 7 472.5 Q 13.9 450.4 24 431.5 Q 43.1 397.1 71.5 372 Q 86.2 358.7 104 348.5 L 94 320.5 L 89 300.5 L 89 295.5 L 86 282.5 L 86 274.5 L 85 273.5 L 84 243.5 L 85 242.5 L 86 218.5 L 90 195.5 Q 96.1 168.1 107 145.5 Q 128.5 100 163.5 68 Q 194.4 38.9 236.5 21 L 276.5 8 L 298.5 4 L 318.5 3 L 319.5 2 Z " /><path fill="rgb(0,162,225)" stroke="rgb(0,162,225)" stroke-width="1" opacity="1" d="M 319.5 3 L 346.5 3 L 347.5 4 L 358.5 4 L 359.5 5 L 373.5 6 L 396.5 11 L 418.5 18 Q 442.9 27.1 463.5 40 L 483.5 54 L 505.5 74 L 507 74 L 529.5 101 Q 562.2 65.7 610.5 46 L 634.5 38 L 658.5 33 L 675.5 32 L 676.5 31 L 706.5 31 L 707.5 32 L 724.5 33 L 748.5 38 L 784.5 51 Q 828.5 72 859 106.5 Q 875.8 125.2 888.5 148 L 915.5 137 L 951.5 128 L 956.5 128 L 963.5 126 L 971.5 126 L 972.5 125 L 983.5 125 L 984.5 124 L 1014.5 124 L 1015.5 125 L 1027.5 125 L 1028.5 126 L 1042.5 127 L 1070.5 133 Q 1095.2 139.8 1116.5 150 Q 1166.6 174.4 1202 213.5 Q 1239.7 253.8 1260 311.5 L 1269 344.5 L 1272 368.5 L 1273 369.5 L 1273 379.5 L 1274 380.5 L 1274 422.5 L 1273 423.5 L 1272 440.5 L 1266 470.5 L 1259 493.5 L 1245 526.5 Q 1220.5 574 1182.5 608 Q 1144.2 643.2 1090.5 663 L 1063.5 671 L 1037.5 676 L 1019.5 677 L 1018.5 678 L 980.5 678 L 979.5 677 L 970.5 677 L 969.5 676 L 962.5 676 L 944 673 Q 929.5 701.2 906.5 722 Q 878.4 748.9 838.5 764 L 823.5 769 L 800.5 774 L 783.5 775 L 782.5 776 L 757.5 776 L 756.5 775 L 746.5 775 L 719.5 770 L 700.5 764 L 681.5 756 Q 660.3 804.3 623.5 837 Q 587.1 870.6 533.5 887 L 506.5 893 L 435.5 893 Q 393.2 885.8 361.5 868 Q 328.7 849.8 304 823.5 Q 272.9 791.1 255.5 745 L 242.5 748 L 225.5 749 L 224.5 750 L 199.5 750 L 198.5 749 L 180.5 748 L 160.5 744 Q 138.5 738 119.5 729 Q 83.9 711.1 58 683.5 Q 23.3 647.7 7 593.5 L 1 564.5 L 1 505.5 L 8 473.5 Q 14.7 451.2 25 432.5 Q 44.3 397.3 73.5 372 L 106 348.5 L 95 319.5 L 90 299.5 L 88 282.5 L 87 281.5 L 87 273.5 L 86 272.5 L 85 244.5 L 86 243.5 L 87 218.5 L 88 217.5 L 90 200.5 L 95 180.5 L 107 148.5 Q 129.4 100.4 166.5 67 Q 197.5 38.5 239.5 21 L 265.5 12 L 281.5 8 L 298.5 6 L 299.5 5 L 306.5 5 L 307.5 4 L 318.5 4 L 319.5 3 Z M 738 314 L 725 317 L 716 322 Q 708 328 703 338 L 696 362 L 696 364 L 679 364 L 676 368 L 674 383 L 676 384 L 693 385 L 690 397 L 689 408 L 683 436 L 675 485 Q 672 499 665 508 L 660 511 Q 655 510 654 512 L 640 510 Q 635 517 633 528 L 637 530 L 645 532 L 665 531 Q 674 529 680 524 L 688 515 L 697 493 L 716 389 Q 715 384 717 384 L 742 384 L 744 380 L 746 366 L 745 364 L 720 364 L 723 349 L 726 343 L 732 337 L 742 334 L 756 336 L 762 317 L 750 314 L 738 314 Z M 408 317 L 406 319 L 406 478 L 408 479 L 429 479 L 430 478 L 430 318 L 430 317 L 408 317 Z M 226 361 Q 224 364 218 362 L 209 365 L 202 369 Q 192 376 188 390 Q 186 407 193 415 Q 200 423 211 427 L 235 434 L 244 438 Q 249 440 250 447 Q 251 454 247 457 L 238 462 L 222 462 L 213 460 L 194 450 L 190 450 L 184 467 L 185 469 L 201 477 L 224 482 L 244 481 Q 253 479 260 474 Q 270 467 273 453 Q 275 437 269 430 L 256 418 L 227 408 L 217 403 L 211 396 Q 210 390 213 388 Q 217 382 225 381 L 241 382 L 264 390 L 270 376 L 270 373 L 253 364 L 244 362 L 236 362 L 235 361 L 226 361 Z M 608 361 L 597 363 L 585 369 Q 575 376 571 390 L 571 404 L 576 415 Q 583 423 594 427 L 618 434 L 627 438 Q 632 440 633 447 Q 634 454 630 457 L 621 462 L 605 462 L 596 460 L 577 450 L 573 450 L 568 464 L 568 469 L 587 478 L 607 482 L 627 481 L 643 474 Q 653 467 656 453 Q 658 437 652 430 L 641 419 Q 627 412 610 408 L 600 403 L 594 396 Q 593 390 596 388 Q 600 383 607 381 L 624 382 L 647 390 L 653 376 L 653 373 Q 637 360 608 361 Z M 1000 361 L 999 362 L 991 362 L 981 365 L 967 373 Q 951 386 947 410 L 947 434 Q 949 435 948 440 L 952 452 L 958 462 L 974 475 L 981 478 L 995 481 L 1015 481 L 1030 478 L 1036 475 L 1035 469 L 1030 457 L 1019 460 L 1010 460 L 1009 461 L 993 459 L 984 454 Q 977 449 974 441 L 972 433 L 972 424 L 971 423 L 973 407 L 979 394 Q 985 384 998 382 L 1014 382 L 1029 385 L 1031 382 L 1035 368 L 1032 365 L 1019 362 L 1000 361 Z M 323 362 L 300 368 L 293 373 L 293 376 L 300 390 L 315 384 L 326 382 Q 345 379 354 387 L 358 395 L 359 407 L 344 406 L 343 405 L 331 405 L 330 406 L 318 407 L 301 415 L 291 426 L 288 432 L 287 443 L 286 444 L 288 458 L 293 467 Q 298 473 307 477 L 324 481 L 347 481 L 376 476 L 382 474 L 382 396 L 379 384 L 375 377 Q 368 366 354 363 L 349 362 L 323 362 Z M 495 362 Q 480 364 472 372 L 459 387 L 453 402 L 451 413 L 452 439 Q 455 452 462 462 L 477 474 L 489 479 L 499 481 L 525 481 Q 526 479 531 480 L 547 475 L 549 473 L 544 458 L 542 455 L 532 459 L 521 461 L 499 460 L 487 454 Q 476 446 477 428 L 551 428 L 553 426 L 553 405 Q 551 403 552 399 Q 549 386 542 378 Q 534 367 520 363 L 515 362 L 495 362 Z M 792 362 Q 775 365 766 374 Q 757 382 752 394 L 748 410 L 748 434 Q 750 435 749 440 Q 752 454 760 464 Q 770 477 791 481 Q 821 484 835 471 L 845 460 L 850 450 L 854 434 L 854 410 Q 852 408 853 404 Q 850 389 842 380 Q 833 369 820 364 L 811 362 L 792 362 Z M 1088 362 L 1076 365 L 1064 372 Q 1054 379 1049 391 L 1045 403 L 1044 414 L 1043 415 Q 1041 446 1055 463 L 1069 474 L 1081 479 L 1091 481 L 1117 481 Q 1118 479 1123 480 L 1137 476 L 1141 473 L 1136 456 L 1134 455 L 1124 459 L 1113 461 L 1097 461 L 1088 459 L 1082 456 Q 1071 450 1069 436 L 1069 429 L 1070 428 L 1144 428 L 1145 427 Q 1143 420 1146 419 L 1144 398 Q 1141 386 1135 379 Q 1128 370 1118 365 L 1107 362 L 1088 362 Z M 917 363 Q 904 366 898 374 L 897 366 L 896 364 L 875 364 L 874 365 L 874 478 L 877 479 L 895 479 L 897 478 L 897 422 L 898 421 L 899 404 L 903 395 Q 908 386 919 384 Q 929 382 935 385 L 937 382 L 942 367 L 939 364 L 934 363 L 917 363 Z " /><path fill="rgb(0,162,225)" stroke="rgb(0,162,225)" stroke-width="1" opacity="1" d="M 500.5 381 Q 517.5 380.5 524 390.5 Q 529.5 397.3 529 409 L 477.5 409 L 477 406.5 Q 479.5 392 489.5 385 L 500.5 381 Z " /><path fill="rgb(0,162,225)" stroke="rgb(0,162,225)" stroke-width="1" opacity="1" d="M 1092.5 381 Q 1110 380 1116 390.5 L 1119 395.5 L 1122 408.5 L 1069 409 L 1071 399.5 L 1075 391.5 L 1081.5 385 L 1092.5 381 Z " /><path fill="rgb(0,162,225)" stroke="rgb(0,162,225)" stroke-width="1" opacity="1" d="M 794.5 382 Q 816.1 379.9 823 392.5 L 826 398.5 L 829 410.5 L 829 432.5 L 826 444.5 L 817.5 457 Q 810.7 462.7 797.5 462 L 787.5 459 L 781 453.5 Q 775.9 446.6 774 436.5 Q 775.2 431.8 773 430.5 L 773 412.5 L 778 394.5 L 785.5 386 L 794.5 382 Z " /><path fill="rgb(0,162,225)" stroke="rgb(0,162,225)" stroke-width="1" opacity="1" d="M 332.5 424 L 346.5 424 L 359 426 L 359 458.5 L 357.5 460 L 344.5 461 L 343.5 462 L 328.5 462 L 320.5 460 L 314 456 L 311 450.5 L 310 442.5 L 313 433.5 L 318.5 428 L 332.5 424 Z " /><path fill="rgb(0,0,0)" stroke="rgb(0,0,0)" stroke-width="1" opacity="0" d="M 0 0 L 1280 0 L 1280 896 L 0.5 896 L 0 895.5 L 0 566.5 L 1 566.5 L 2 577.5 L 5 590.5 L 17 624.5 Q 34 662 61.5 689 Q 92.4 720.6 137.5 738 L 156.5 744 L 180.5 749 L 198.5 750 L 199.5 751 L 224.5 751 L 225.5 750 L 235.5 750 L 236.5 749 L 243.5 749 L 256 747 Q 274.4 798.8 311.5 833 Q 347.4 868.1 400.5 886 L 434.5 894 L 506.5 894 Q 548.8 886.8 580.5 869 Q 614.8 850.3 640 822.5 Q 666.1 794.6 682.5 757 L 702.5 766 L 727.5 773 L 744.5 775 L 745.5 776 L 756.5 776 L 757.5 777 L 782.5 777 L 783.5 776 L 793.5 776 L 794.5 775 L 811.5 773 L 827.5 769 L 849.5 761 Q 888.5 743.5 916 714.5 Q 933.5 696.8 945 674 L 961.5 677 L 980.5 678 L 981.5 679 L 1018.5 679 L 1019.5 678 L 1029.5 678 L 1030.5 677 L 1044.5 676 L 1068.5 671 L 1085.5 666 L 1113.5 655 Q 1167 630 1204 588.5 Q 1241 548.5 1261 491.5 L 1270 458.5 L 1270 453.5 L 1273 440.5 L 1274 423.5 L 1275 422.5 L 1275 379.5 L 1274 378.5 L 1272 354.5 L 1265 323.5 L 1251 285.5 Q 1226.6 232.9 1186.5 196 Q 1148 159.5 1093.5 139 L 1063.5 130 L 1036.5 125 L 1015.5 124 L 1014.5 123 L 984.5 123 L 983.5 124 L 971.5 124 L 970.5 125 L 963.5 125 L 940.5 129 L 921.5 134 L 888 146 Q 870.5 112.4 842.5 88 Q 810.7 58.3 765.5 42 L 745.5 36 L 717.5 31 L 707.5 31 L 706.5 30 L 676.5 30 L 675.5 31 L 665.5 31 L 642.5 35 L 602.5 48 Q 559.7 67.2 529.5 99 Q 515.4 78.6 496.5 63 Q 463.9 34.1 419.5 17 L 393.5 9 L 367.5 4 L 347.5 3 L 346.5 2 L 319.5 2 L 318.5 3 L 298.5 4 L 276.5 8 Q 251.1 14.1 229.5 24 Q 182.7 45.7 150 81.5 Q 117.5 116 99 164.5 L 93 183.5 L 87 211.5 L 86 226.5 L 85 227.5 L 84 256.5 L 85 257.5 L 86 282.5 L 87 283.5 L 89 300.5 L 94 320.5 L 104 348.5 Q 74 366 52 391.5 Q 31.7 414.2 18 443.5 L 7 472.5 L 0.5 504 L 0 0 Z " /></svg>