<svg width="300" height="210" viewBox="0 0 300 210" fill="none" xmlns="http://www.w3.org/2000/svg">
  <path d="M205.5 87.2c-3.1-23.3-22.8-41.2-46.9-41.2-17.3 0-32.5 9.2-40.9 22.9-5.2-2.4-10.9-3.7-16.9-3.7-21.9 0-39.7 17.8-39.7 39.7 0 1.2.1 2.4.2 3.6C44.8 112.2 33 127.4 33 145.4c0 20.9 16.9 37.8 37.8 37.8h129.7c23.7 0 42.9-19.2 42.9-42.9 0-21.5-15.8-39.3-36.4-42.1-.5-3.7-1-7.4-1.5-11z" fill="#00A1E0"></path>
  <text x="150" y="132" text-anchor="middle" fill="white" font-size="28" font-family="Arial, sans-serif" font-weight="bold">salesforce</text>
</svg>