<svg width="512" height="512" viewBox="0 0 512 512" fill="none" xmlns="http://www.w3.org/2000/svg">
  <rect width="512" height="512" rx="96" fill="#95BF47"></rect>
  <path d="M364 170H332.5C329.8 140.6 312.3 120 286.4 120C284.9 120 283.3 120.1 281.8 120.3C274.6 110 264.1 105 252 105C215.8 105 188.4 136.2 181.1 180.1L146 191.1V386.8L397 430V170H364ZM276.2 132.8C281.6 139.5 285.1 149.4 286.4 162.1H244.4C252.5 142.5 264.9 134.7 276.2 132.8ZM252 118.8C256.5 118.8 260.6 120.1 264.2 122.5C249.4 129.4 233.5 145.6 225.9 162.1H194.9C201.9 136.3 220.2 118.8 252 118.8ZM193.1 174.9H223.1C221.1 181.1 219.5 187.8 218.3 194.9L193.1 202.8V174.9ZM352.1 170V183.4L329.8 176.5C329.9 174.3 329.9 172.1 329.8 170H352.1Z" fill="white"></path>
  <path d="M287.4 215.8L274.5 254.1C274.5 254.1 263.2 248 249.4 248C229.3 248 228.3 260.6 228.3 263.8C228.3 281.2 273.7 287.8 273.7 325.8C273.7 355.7 254.8 375 229.2 375C198.5 375 182.8 356 182.8 356L191.7 326.7C191.7 326.7 207.8 340.5 221.5 340.5C230.4 340.5 234 333.5 234 328.4C234 305.8 196.7 304.8 196.7 270C196.7 240.7 217.8 212.3 260.5 212.3C277 212.3 285.1 217.1 287.4 215.8Z" fill="#5E8E3E"></path>
  <path d="M312.8 176.5C310.9 176 308.8 175.4 306.6 174.8C306 145.1 298.4 121 282.7 121C282.3 121 281.9 121 281.5 121.1C277.1 121.7 272.7 126.5 268.8 134.8C262.8 147.7 258.2 167.8 256.8 191.6C242.9 187.4 228.7 183 228.7 183C228.7 183 237.5 150.3 257.5 131.1C269.2 120 282.8 115 298.1 115C344.4 115 352.4 173.2 352.4 173.2L312.8 176.5Z" fill="#7BA93C"></path>
  <path d="M303.5 184.3L287.4 215.8C285.1 217.1 277 212.3 260.5 212.3C217.8 212.3 196.7 240.7 196.7 270C196.7 304.8 234 305.8 234 328.4C234 333.5 230.4 340.5 221.5 340.5C207.8 340.5 191.7 326.7 191.7 326.7L182.8 356C182.8 356 198.5 375 229.2 375C254.8 375 273.7 355.7 273.7 325.8C273.7 287.8 228.3 281.2 228.3 263.8C228.3 260.6 229.3 248 249.4 248C263.2 248 274.5 254.1 274.5 254.1L287.4 215.8L303.5 184.3Z" fill="white" fill-opacity="0.15"></path>
</svg>