<svg width="500" height="500" version="1.1" xmlns="http://www.w3.org/2000/svg" desc="Created with imagetracer.js version 1.2.6" ><path fill="rgb(0,0,0)" stroke="rgb(0,0,0)" stroke-width="1" opacity="0" d="M 0 0 L 500 0 L 500 500 L 0 500 L 0 0 Z M 178 2 Q 159 5 149 16 Q 137 27 133 45 L 133 64 L 134 69 L 143 87 Q 154 101 174 106 Q 178 105 180 107 L 238 107 L 238 55 L 237 54 L 237 45 Q 233 29 224 19 Q 216 10 205 5 L 193 2 L 178 2 Z M 308 2 Q 292 5 283 13 Q 267 25 263 48 L 263 192 L 266 204 L 274 218 Q 286 233 309 237 L 323 237 L 332 235 Q 342 231 350 225 Q 364 213 368 191 L 368 49 L 364 34 L 356 21 Q 348 10 335 5 L 323 2 L 308 2 Z M 50 132 L 40 134 L 30 138 L 19 146 L 8 160 L 4 170 L 2 181 L 2 190 L 4 200 Q 7 211 14 219 Q 26 233 48 237 L 193 237 Q 211 234 222 223 Q 233 212 237 195 L 237 175 Q 234 161 227 153 L 214 140 L 204 135 L 191 132 L 50 132 Z M 440 132 L 425 136 L 412 144 Q 399 154 394 172 L 393 177 L 393 237 L 453 237 L 465 234 L 480 225 L 492 210 L 496 200 L 498 189 L 498 181 L 495 167 L 490 157 L 483 147 L 471 138 L 464 135 L 451 132 L 440 132 Z M 46 263 L 38 265 L 22 274 Q 7 285 3 307 L 3 324 L 4 329 Q 8 342 16 351 Q 27 363 46 367 L 65 367 L 73 365 L 89 356 Q 98 348 104 336 L 107 326 L 107 318 L 108 317 L 108 263 L 46 263 Z M 176 263 Q 161 266 152 274 Q 137 285 133 306 L 133 455 Q 136 470 145 480 Q 156 493 177 497 L 194 497 L 199 496 Q 211 492 220 485 Q 230 476 235 463 L 237 455 L 237 446 L 238 445 L 238 316 L 237 315 L 237 306 L 235 298 L 226 282 Q 217 270 203 265 L 195 263 L 176 263 Z M 306 263 Q 290 267 280 276 Q 267 287 263 308 L 263 323 L 265 332 Q 269 343 277 352 Q 288 363 306 367 L 456 367 Q 472 363 483 353 Q 494 342 498 323 L 498 308 L 496 299 Q 492 287 485 280 Q 474 267 456 263 L 306 263 Z M 263 392 L 263 453 Q 265 467 273 477 Q 284 492 307 497 L 325 497 Q 338 494 348 487 Q 364 475 368 451 L 368 440 L 366 430 L 358 414 Q 347 398 326 393 L 318 393 L 317 392 L 263 392 Z " /><path fill="rgb(47,202,241)" stroke="rgb(47,202,241)" stroke-width="1" opacity="0.44313725490196076" d="M 177.5 2 L 193 2.5 L 177.5 3 L 177.5 2 Z " /><path fill="rgb(47,202,241)" stroke="rgb(47,202,241)" stroke-width="1" opacity="0.44313725490196076" d="M 172.5 3 L 175 3.5 L 172.5 4 L 172.5 3 Z " /><path fill="rgb(47,202,241)" stroke="rgb(47,202,241)" stroke-width="1" opacity="0.44313725490196076" d="M 195.5 3 L 198 3.5 L 195.5 4 L 195.5 3 Z " /><path fill="rgb(47,202,241)" stroke="rgb(47,202,241)" stroke-width="1" opacity="0.44313725490196076" d="M 168.5 4 L 171 4.5 L 166.5 6 L 166.5 5 L 168.5 4 Z " /><path fill="rgb(47,202,241)" stroke="rgb(47,202,241)" stroke-width="1" opacity="0.44313725490196076" d="M 199.5 4 Q 215.2 7.8 224 18.5 Q 230.6 25.4 234 35.5 L 233 35.5 Q 227.7 20.3 215.5 12 L 204.5 6 L 199.5 5 L 199.5 4 Z " /><path fill="rgb(47,202,241)" stroke="rgb(47,202,241)" stroke-width="1" opacity="0.44313725490196076" d="M 163.5 6 L 165 6.5 L 158.5 10 L 159.5 8 L 163.5 6 Z " /><path fill="rgb(47,202,241)" stroke="rgb(47,202,241)" stroke-width="1" opacity="0.44313725490196076" d="M 156.5 10 L 154.5 13 L 143 23.5 L 136.5 36 L 136 34.5 Q 140.5 23.5 148.5 16 L 156.5 10 Z " /><path fill="rgb(47,202,241)" stroke="rgb(47,202,241)" stroke-width="1" opacity="0.44313725490196076" d="M 134.5 40 L 135 42.5 L 134 42.5 L 134.5 40 Z " /><path fill="rgb(47,202,241)" stroke="rgb(47,202,241)" stroke-width="1" opacity="0.44313725490196076" d="M 235.5 40 L 236 42.5 L 235 42.5 L 235.5 40 Z " /><path fill="rgb(47,202,241)" stroke="rgb(47,202,241)" stroke-width="1" opacity="0.44313725490196076" d="M 133.5 44 L 134 49.5 L 133 49.5 L 133.5 44 Z " /><path fill="rgb(47,202,241)" stroke="rgb(47,202,241)" stroke-width="1" opacity="0.44313725490196076" d="M 236.5 44 L 237 48.5 L 236 48.5 L 236.5 44 Z " /><path fill="rgb(47,202,241)" stroke="rgb(47,202,241)" stroke-width="1" opacity="0.44313725490196076" d="M 237.5 54 L 238 107 L 179 106.5 L 237 106 L 237.5 54 Z " /><path fill="rgb(47,202,241)" stroke="rgb(47,202,241)" stroke-width="1" opacity="0.44313725490196076" d="M 133.5 59 L 134 63.5 L 133 63.5 L 133.5 59 Z " /><path fill="rgb(47,202,241)" stroke="rgb(47,202,241)" stroke-width="1" opacity="0.44313725490196076" d="M 134.5 66 Q 139.1 84.9 152.5 95 L 156 97.5 L 153.5 96 L 143 86.5 Q 135.3 78.4 134.5 66 Z " /><path fill="rgb(47,202,241)" stroke="rgb(47,202,241)" stroke-width="1" opacity="0.44313725490196076" d="M 157.5 98 L 166 102.5 L 164.5 103 L 158.5 100 L 157.5 98 Z " /><path fill="rgb(47,202,241)" stroke="rgb(47,202,241)" stroke-width="1" opacity="0.44313725490196076" d="M 167.5 103 L 178 105.5 L 173.5 106 L 167.5 104 L 167.5 103 Z " /><path fill="rgb(47,202,241)" stroke="rgb(47,202,241)" stroke-width="1" opacity="0.44313725490196076" d="M 49.5 132 L 191 132.5 L 49.5 133 L 49.5 132 Z " /><path fill="rgb(47,202,241)" stroke="rgb(47,202,241)" stroke-width="1" opacity="0.44313725490196076" d="M 43.5 133 L 47 133.5 L 43.5 134 L 43.5 133 Z " /><path fill="rgb(47,202,241)" stroke="rgb(47,202,241)" stroke-width="1" opacity="0.44313725490196076" d="M 193.5 133 L 197 133.5 L 193.5 134 L 193.5 133 Z " /><path fill="rgb(47,202,241)" stroke="rgb(47,202,241)" stroke-width="1" opacity="0.44313725490196076" d="M 39.5 134 L 42 134.5 L 34.5 137 L 34.5 136 L 39.5 134 Z " /><path fill="rgb(47,202,241)" stroke="rgb(47,202,241)" stroke-width="1" opacity="0.44313725490196076" d="M 198.5 134 L 208 137.5 L 206.5 138 L 198.5 135 L 198.5 134 Z " /><path fill="rgb(47,202,241)" stroke="rgb(47,202,241)" stroke-width="1" opacity="0.44313725490196076" d="M 29.5 138 L 31 138.5 Q 19.9 143.9 13 153.5 L 8.5 161 L 8 159.5 L 18.5 146 L 29.5 138 Z " /><path fill="rgb(47,202,241)" stroke="rgb(47,202,241)" stroke-width="1" opacity="0.44313725490196076" d="M 209.5 138 Q 220.4 143.1 227 152.5 L 229 155.5 L 226 153.5 L 217.5 144 L 210.5 140 L 209.5 138 Z " /><path fill="rgb(47,202,241)" stroke="rgb(47,202,241)" stroke-width="1" opacity="0.44313725490196076" d="M 229.5 157 L 235 168.5 L 234 168.5 L 229.5 157 Z " /><path fill="rgb(47,202,241)" stroke="rgb(47,202,241)" stroke-width="1" opacity="0.44313725490196076" d="M 6.5 164 L 7 165.5 L 4.5 172 L 4 169.5 L 6.5 164 Z " /><path fill="rgb(47,202,241)" stroke="rgb(47,202,241)" stroke-width="1" opacity="0.44313725490196076" d="M 235.5 170 L 236 172.5 L 235 172.5 L 235.5 170 Z " /><path fill="rgb(47,202,241)" stroke="rgb(47,202,241)" stroke-width="1" opacity="0.44313725490196076" d="M 3.5 173 L 4 177.5 L 3 177.5 L 3.5 173 Z " /><path fill="rgb(47,202,241)" stroke="rgb(47,202,241)" stroke-width="1" opacity="0.44313725490196076" d="M 236.5 174 L 237 178.5 L 236 178.5 L 236.5 174 Z " /><path fill="rgb(47,202,241)" stroke="rgb(47,202,241)" stroke-width="1" opacity="0.44313725490196076" d="M 2.5 180 L 3 189.5 L 2 189.5 L 2.5 180 Z " /><path fill="rgb(47,202,241)" stroke="rgb(47,202,241)" stroke-width="1" opacity="0.44313725490196076" d="M 236.5 190 L 237 194.5 L 236 194.5 L 236.5 190 Z " /><path fill="rgb(47,202,241)" stroke="rgb(47,202,241)" stroke-width="1" opacity="0.44313725490196076" d="M 3.5 192 L 4 195.5 L 3 195.5 L 3.5 192 Z " /><path fill="rgb(47,202,241)" stroke="rgb(47,202,241)" stroke-width="1" opacity="0.44313725490196076" d="M 235.5 196 L 236 198.5 L 235 198.5 L 235.5 196 Z " /><path fill="rgb(47,202,241)" stroke="rgb(47,202,241)" stroke-width="1" opacity="0.44313725490196076" d="M 4.5 197 L 5 199.5 L 4 199.5 L 4.5 197 Z " /><path fill="rgb(47,202,241)" stroke="rgb(47,202,241)" stroke-width="1" opacity="0.44313725490196076" d="M 5.5 201 L 10 210.5 L 8 209.5 L 5.5 201 Z " /><path fill="rgb(47,202,241)" stroke="rgb(47,202,241)" stroke-width="1" opacity="0.44313725490196076" d="M 233.5 203 L 234 204.5 Q 229.5 215.5 221.5 223 L 213.5 229 L 215.5 226 L 227 215.5 L 233.5 203 Z " /><path fill="rgb(47,202,241)" stroke="rgb(47,202,241)" stroke-width="1" opacity="0.44313725490196076" d="M 10.5 212 L 19.5 223 Q 28 231 41 234.5 L 38.5 235 Q 23.3 229.7 14 218.5 L 10.5 212 Z " /><path fill="rgb(47,202,241)" stroke="rgb(47,202,241)" stroke-width="1" opacity="0.44313725490196076" d="M 211.5 229 L 210.5 231 L 205.5 233 L 205.5 232 L 211.5 229 Z " /><path fill="rgb(47,202,241)" stroke="rgb(47,202,241)" stroke-width="1" opacity="0.44313725490196076" d="M 202.5 233 L 204 233.5 L 199.5 235 L 199.5 234 L 202.5 233 Z " /><path fill="rgb(47,202,241)" stroke="rgb(47,202,241)" stroke-width="1" opacity="0.44313725490196076" d="M 42.5 235 L 45 235.5 L 42.5 236 L 42.5 235 Z " /><path fill="rgb(47,202,241)" stroke="rgb(47,202,241)" stroke-width="1" opacity="0.44313725490196076" d="M 195.5 235 L 198 235.5 L 195.5 236 L 195.5 235 Z " /><path fill="rgb(47,202,241)" stroke="rgb(47,202,241)" stroke-width="1" opacity="0.44313725490196076" d="M 47.5 236 L 193 236.5 L 47.5 237 L 47.5 236 Z " /><path fill="rgb(42,182,125)" stroke="rgb(42,182,125)" stroke-width="1" opacity="0.49411764705882355" d="M 307.5 2 L 323 2.5 L 307.5 3 L 307.5 2 Z " /><path fill="rgb(42,182,125)" stroke="rgb(42,182,125)" stroke-width="1" opacity="0.49411764705882355" d="M 302.5 3 L 306 3.5 L 299.5 5 L 299.5 4 L 302.5 3 Z " /><path fill="rgb(42,182,125)" stroke="rgb(42,182,125)" stroke-width="1" opacity="0.49411764705882355" d="M 325.5 3 L 328 3.5 L 325.5 4 L 325.5 3 Z " /><path fill="rgb(42,182,125)" stroke="rgb(42,182,125)" stroke-width="1" opacity="0.49411764705882355" d="M 329.5 4 Q 346.7 8.3 356 20.5 L 364 34.5 L 363 34.5 Q 358.5 22.5 349.5 15 Q 341.6 7.9 329.5 5 L 329.5 4 Z " /><path fill="rgb(42,182,125)" stroke="rgb(42,182,125)" stroke-width="1" opacity="0.49411764705882355" d="M 296.5 5 L 298 5.5 L 294.5 7 L 294.5 6 L 296.5 5 Z " /><path fill="rgb(42,182,125)" stroke="rgb(42,182,125)" stroke-width="1" opacity="0.49411764705882355" d="M 290.5 8 L 289.5 10 Q 280.5 14 275 21.5 L 269.5 30 L 270 28.5 Q 274.3 18.8 282.5 13 L 290.5 8 Z " /><path fill="rgb(42,182,125)" stroke="rgb(42,182,125)" stroke-width="1" opacity="0.49411764705882355" d="M 267.5 33 L 268 34.5 L 266.5 37 L 266 35.5 L 267.5 33 Z " /><path fill="rgb(42,182,125)" stroke="rgb(42,182,125)" stroke-width="1" opacity="0.49411764705882355" d="M 265.5 38 L 266 40.5 L 264.5 45 L 264 41.5 L 265.5 38 Z " /><path fill="rgb(42,182,125)" stroke="rgb(42,182,125)" stroke-width="1" opacity="0.49411764705882355" d="M 365.5 39 L 366 41.5 L 365 41.5 L 365.5 39 Z " /><path fill="rgb(42,182,125)" stroke="rgb(42,182,125)" stroke-width="1" opacity="0.49411764705882355" d="M 366.5 43 L 367 46.5 L 366 46.5 L 366.5 43 Z " /><path fill="rgb(42,182,125)" stroke="rgb(42,182,125)" stroke-width="1" opacity="0.49411764705882355" d="M 263.5 47 L 264 191.5 L 263 191.5 L 263.5 47 Z " /><path fill="rgb(42,182,125)" stroke="rgb(42,182,125)" stroke-width="1" opacity="0.49411764705882355" d="M 367.5 48 L 368 190.5 L 367 190.5 L 367.5 48 Z " /><path fill="rgb(42,182,125)" stroke="rgb(42,182,125)" stroke-width="1" opacity="0.49411764705882355" d="M 439.5 132 L 451 132.5 L 439.5 133 L 439.5 132 Z " /><path fill="rgb(42,182,125)" stroke="rgb(42,182,125)" stroke-width="1" opacity="0.49411764705882355" d="M 433.5 133 L 438 133.5 L 430.5 135 L 430.5 134 L 433.5 133 Z " /><path fill="rgb(42,182,125)" stroke="rgb(42,182,125)" stroke-width="1" opacity="0.49411764705882355" d="M 453.5 133 L 457 133.5 L 453.5 134 L 453.5 133 Z " /><path fill="rgb(42,182,125)" stroke="rgb(42,182,125)" stroke-width="1" opacity="0.49411764705882355" d="M 458.5 134 L 461 134.5 L 458.5 135 L 458.5 134 Z " /><path fill="rgb(42,182,125)" stroke="rgb(42,182,125)" stroke-width="1" opacity="0.49411764705882355" d="M 462.5 135 L 466 136.5 L 464.5 137 L 462.5 135 Z " /><path fill="rgb(42,182,125)" stroke="rgb(42,182,125)" stroke-width="1" opacity="0.49411764705882355" d="M 424.5 136 L 426 136.5 Q 413.1 141.6 405 151.5 L 399.5 160 L 400 158.5 Q 404 149.5 411.5 144 L 424.5 136 Z " /><path fill="rgb(42,182,125)" stroke="rgb(42,182,125)" stroke-width="1" opacity="0.49411764705882355" d="M 469.5 138 L 483 147 L 491 158.5 L 489 157.5 Q 485 148 476.5 143 L 469.5 139 L 469.5 138 Z " /><path fill="rgb(42,182,125)" stroke="rgb(42,182,125)" stroke-width="1" opacity="0.49411764705882355" d="M 398.5 161 L 399 162.5 L 396.5 167 L 396 165.5 L 398.5 161 Z " /><path fill="rgb(42,182,125)" stroke="rgb(42,182,125)" stroke-width="1" opacity="0.49411764705882355" d="M 492.5 162 L 496 171.5 L 495 171.5 L 492.5 162 Z " /><path fill="rgb(42,182,125)" stroke="rgb(42,182,125)" stroke-width="1" opacity="0.49411764705882355" d="M 395.5 168 L 396 170.5 L 394.5 175 L 394 171.5 L 395.5 168 Z " /><path fill="rgb(42,182,125)" stroke="rgb(42,182,125)" stroke-width="1" opacity="0.49411764705882355" d="M 496.5 173 L 497 177.5 L 496 177.5 L 496.5 173 Z " /><path fill="rgb(42,182,125)" stroke="rgb(42,182,125)" stroke-width="1" opacity="0.49411764705882355" d="M 393.5 176 L 394 236 L 453 236.5 L 393 237 L 393.5 176 Z " /><path fill="rgb(42,182,125)" stroke="rgb(42,182,125)" stroke-width="1" opacity="0.49411764705882355" d="M 497.5 180 L 498 188.5 L 497 188.5 L 497.5 180 Z " /><path fill="rgb(42,182,125)" stroke="rgb(42,182,125)" stroke-width="1" opacity="0.49411764705882355" d="M 496.5 191 L 497 195.5 L 496 195.5 L 496.5 191 Z " /><path fill="rgb(42,182,125)" stroke="rgb(42,182,125)" stroke-width="1" opacity="0.49411764705882355" d="M 366.5 192 L 367 195.5 L 366 195.5 L 366.5 192 Z " /><path fill="rgb(42,182,125)" stroke="rgb(42,182,125)" stroke-width="1" opacity="0.49411764705882355" d="M 264.5 194 L 266 200.5 L 265 200.5 L 264.5 194 Z " /><path fill="rgb(42,182,125)" stroke="rgb(42,182,125)" stroke-width="1" opacity="0.49411764705882355" d="M 365.5 197 L 366 199.5 L 365 199.5 L 365.5 197 Z " /><path fill="rgb(42,182,125)" stroke="rgb(42,182,125)" stroke-width="1" opacity="0.49411764705882355" d="M 495.5 197 L 496 199.5 L 495 199.5 L 495.5 197 Z " /><path fill="rgb(42,182,125)" stroke="rgb(42,182,125)" stroke-width="1" opacity="0.49411764705882355" d="M 494.5 201 L 495 202.5 Q 489.9 216.4 479.5 225 Q 471.6 232.1 459.5 235 L 459.5 234 Q 475.2 230.2 484 219.5 Q 491 212 494.5 201 Z " /><path fill="rgb(42,182,125)" stroke="rgb(42,182,125)" stroke-width="1" opacity="0.49411764705882355" d="M 266.5 202 L 268 205.5 L 267 205.5 L 266.5 202 Z " /><path fill="rgb(42,182,125)" stroke="rgb(42,182,125)" stroke-width="1" opacity="0.49411764705882355" d="M 363.5 204 L 364 205.5 Q 358.8 217.3 349.5 225 Q 341.6 232.1 329.5 235 L 329.5 234 Q 345.2 230.2 354 219.5 L 363.5 204 Z " /><path fill="rgb(42,182,125)" stroke="rgb(42,182,125)" stroke-width="1" opacity="0.49411764705882355" d="M 269.5 209 Q 274.4 218.6 282.5 225 L 291 230.5 L 289.5 230 Q 279.8 225.7 274 217.5 L 269.5 209 Z " /><path fill="rgb(42,182,125)" stroke="rgb(42,182,125)" stroke-width="1" opacity="0.49411764705882355" d="M 292.5 231 L 306 235.5 L 302.5 236 L 292.5 232 L 292.5 231 Z " /><path fill="rgb(42,182,125)" stroke="rgb(42,182,125)" stroke-width="1" opacity="0.49411764705882355" d="M 325.5 235 L 328 235.5 L 325.5 236 L 325.5 235 Z " /><path fill="rgb(42,182,125)" stroke="rgb(42,182,125)" stroke-width="1" opacity="0.49411764705882355" d="M 455.5 235 L 458 235.5 L 455.5 236 L 455.5 235 Z " /><path fill="rgb(42,182,125)" stroke="rgb(42,182,125)" stroke-width="1" opacity="0.49411764705882355" d="M 308.5 236 L 323 236.5 L 308.5 237 L 308.5 236 Z " /><path fill="rgb(51,198,240)" stroke="rgb(51,198,240)" stroke-width="1" opacity="0.996078431372549" d="M 175.5 3 L 178 3.5 L 175.5 4 L 175.5 3 Z " /><path fill="rgb(51,198,240)" stroke="rgb(51,198,240)" stroke-width="1" opacity="0.996078431372549" d="M 157.5 10 L 156.5 12 L 157.5 10 Z " /><path fill="rgb(51,198,240)" stroke="rgb(51,198,240)" stroke-width="1" opacity="0.996078431372549" d="M 212.5 10 L 213.5 12 L 212.5 10 Z " /><path fill="rgb(51,198,240)" stroke="rgb(51,198,240)" stroke-width="1" opacity="0.996078431372549" d="M 215.5 12 L 217.5 15 L 215.5 12 Z " /><path fill="rgb(51,198,240)" stroke="rgb(51,198,240)" stroke-width="1" opacity="0.996078431372549" d="M 153.5 13 L 151.5 16 L 153.5 13 Z " /><path fill="rgb(51,198,240)" stroke="rgb(51,198,240)" stroke-width="1" opacity="0.996078431372549" d="M 145.5 21 L 143.5 24 L 145.5 21 Z " /><path fill="rgb(51,198,240)" stroke="rgb(51,198,240)" stroke-width="1" opacity="0.996078431372549" d="M 224.5 21 L 226.5 24 L 224.5 21 Z " /><path fill="rgb(51,198,240)" stroke="rgb(51,198,240)" stroke-width="1" opacity="0.996078431372549" d="M 142.5 25 L 141.5 27 L 142.5 25 Z " /><path fill="rgb(51,198,240)" stroke="rgb(51,198,240)" stroke-width="1" opacity="0.996078431372549" d="M 236.5 49 L 237 53.5 L 236 53.5 L 236.5 49 Z " /><path fill="rgb(51,198,240)" stroke="rgb(51,198,240)" stroke-width="1" opacity="0.996078431372549" d="M 133.5 50 L 134 58.5 L 133 58.5 L 133.5 50 Z " /><path fill="rgb(51,198,240)" stroke="rgb(51,198,240)" stroke-width="1" opacity="0.996078431372549" d="M 140.5 80 L 141.5 82 L 140.5 80 Z " /><path fill="rgb(51,198,240)" stroke="rgb(51,198,240)" stroke-width="1" opacity="0.996078431372549" d="M 142.5 83 L 143.5 85 L 142.5 83 Z " /><path fill="rgb(51,198,240)" stroke="rgb(51,198,240)" stroke-width="1" opacity="0.996078431372549" d="M 144.5 86 L 152.5 95 L 144.5 86 Z " /><path fill="rgb(51,198,240)" stroke="rgb(51,198,240)" stroke-width="1" opacity="0.996078431372549" d="M 155.5 96 L 156.5 98 L 155.5 96 Z " /><path fill="rgb(51,198,240)" stroke="rgb(51,198,240)" stroke-width="1" opacity="0.996078431372549" d="M 190.5 133 L 193 133.5 L 190.5 134 L 190.5 133 Z " /><path fill="rgb(51,198,240)" stroke="rgb(51,198,240)" stroke-width="1" opacity="0.996078431372549" d="M 29.5 139 L 28.5 141 L 29.5 139 Z " /><path fill="rgb(51,198,240)" stroke="rgb(51,198,240)" stroke-width="1" opacity="0.996078431372549" d="M 213.5 141 L 214.5 143 L 213.5 141 Z " /><path fill="rgb(51,198,240)" stroke="rgb(51,198,240)" stroke-width="1" opacity="0.996078431372549" d="M 23.5 143 L 21.5 146 L 23.5 143 Z " /><path fill="rgb(51,198,240)" stroke="rgb(51,198,240)" stroke-width="1" opacity="0.996078431372549" d="M 217.5 144 L 225.5 153 L 217.5 144 Z " /><path fill="rgb(51,198,240)" stroke="rgb(51,198,240)" stroke-width="1" opacity="0.996078431372549" d="M 15.5 151 L 13.5 154 L 15.5 151 Z " /><path fill="rgb(51,198,240)" stroke="rgb(51,198,240)" stroke-width="1" opacity="0.996078431372549" d="M 227.5 155 L 228.5 157 L 227.5 155 Z " /><path fill="rgb(51,198,240)" stroke="rgb(51,198,240)" stroke-width="1" opacity="0.996078431372549" d="M 10.5 158 L 9.5 160 L 10.5 158 Z " /><path fill="rgb(51,198,240)" stroke="rgb(51,198,240)" stroke-width="1" opacity="0.996078431372549" d="M 236.5 179 L 237 189.5 L 236 189.5 L 236.5 179 Z " /><path fill="rgb(51,198,240)" stroke="rgb(51,198,240)" stroke-width="1" opacity="0.996078431372549" d="M 3.5 189 L 4 191.5 L 3 191.5 L 3.5 189 Z " /><path fill="rgb(51,198,240)" stroke="rgb(51,198,240)" stroke-width="1" opacity="0.996078431372549" d="M 10.5 211 L 11.5 213 L 10.5 211 Z " /><path fill="rgb(51,198,240)" stroke="rgb(51,198,240)" stroke-width="1" opacity="0.996078431372549" d="M 228.5 212 L 227.5 214 L 228.5 212 Z " /><path fill="rgb(51,198,240)" stroke="rgb(51,198,240)" stroke-width="1" opacity="0.996078431372549" d="M 12.5 214 L 14.5 217 L 12.5 214 Z " /><path fill="rgb(51,198,240)" stroke="rgb(51,198,240)" stroke-width="1" opacity="0.996078431372549" d="M 226.5 215 L 224.5 218 L 226.5 215 Z " /><path fill="rgb(51,198,240)" stroke="rgb(51,198,240)" stroke-width="1" opacity="0.996078431372549" d="M 16.5 219 L 19.5 223 L 16.5 219 Z " /><path fill="rgb(51,198,240)" stroke="rgb(51,198,240)" stroke-width="1" opacity="0.996078431372549" d="M 217.5 224 L 216.5 226 L 217.5 224 Z " /><path fill="rgb(51,198,240)" stroke="rgb(51,198,240)" stroke-width="1" opacity="0.996078431372549" d="M 23.5 225 L 24.5 227 L 23.5 225 Z " /><path fill="rgb(51,198,240)" stroke="rgb(51,198,240)" stroke-width="1" opacity="0.996078431372549" d="M 213.5 227 L 212.5 229 L 213.5 227 Z " /><path fill="rgb(51,198,240)" stroke="rgb(51,198,240)" stroke-width="1" opacity="0.996078431372549" d="M 192.5 235 L 195 235.5 L 192.5 236 L 192.5 235 Z " /><path fill="rgb(51,198,240)" stroke="rgb(51,198,240)" stroke-width="1" opacity="1" d="M 178.5 3 L 192.5 3 L 203.5 6 Q 215.8 11.2 224 20.5 L 231 30.5 L 236 44.5 L 236 53.5 L 237 54.5 L 237 106 L 180.5 106 Q 179.2 103.8 174.5 105 Q 154.5 100 144 85.5 L 135 67.5 Q 132.2 58.8 134 45.5 Q 138.3 26.8 150.5 16 L 166.5 6 L 178.5 3 Z " /><path fill="rgb(51,198,240)" stroke="rgb(51,198,240)" stroke-width="1" opacity="1" d="M 49.5 133 L 189.5 133 L 199.5 135 L 209.5 139 L 227 154.5 Q 233.3 163.2 236 175.5 L 236 193.5 Q 232 213.5 218.5 224 L 203.5 233 L 191.5 236 L 47.5 236 Q 26.1 231.9 15 217.5 Q 3 205 3 180.5 L 5 170.5 L 9 160.5 L 20.5 146 L 34.5 137 L 49.5 133 Z " /><path fill="rgb(41,183,126)" stroke="rgb(41,183,126)" stroke-width="1" opacity="0.996078431372549" d="M 286.5 11 L 285.5 13 L 286.5 11 Z " /><path fill="rgb(41,183,126)" stroke="rgb(41,183,126)" stroke-width="1" opacity="0.996078431372549" d="M 345.5 12 L 346.5 14 L 345.5 12 Z " /><path fill="rgb(41,183,126)" stroke="rgb(41,183,126)" stroke-width="1" opacity="0.996078431372549" d="M 282.5 14 L 275.5 22 L 282.5 14 Z " /><path fill="rgb(41,183,126)" stroke="rgb(41,183,126)" stroke-width="1" opacity="0.996078431372549" d="M 349.5 15 L 354.5 21 L 349.5 15 Z " /><path fill="rgb(41,183,126)" stroke="rgb(41,183,126)" stroke-width="1" opacity="0.996078431372549" d="M 356.5 23 L 357.5 25 L 356.5 23 Z " /><path fill="rgb(41,183,126)" stroke="rgb(41,183,126)" stroke-width="1" opacity="0.996078431372549" d="M 273.5 24 L 272.5 26 L 273.5 24 Z " /><path fill="rgb(41,183,126)" stroke="rgb(41,183,126)" stroke-width="1" opacity="0.996078431372549" d="M 358.5 26 L 359.5 28 L 358.5 26 Z " /><path fill="rgb(41,183,126)" stroke="rgb(41,183,126)" stroke-width="1" opacity="0.996078431372549" d="M 470.5 139 L 471.5 141 L 470.5 139 Z " /><path fill="rgb(41,183,126)" stroke="rgb(41,183,126)" stroke-width="1" opacity="0.996078431372549" d="M 415.5 142 L 414.5 144 L 415.5 142 Z " /><path fill="rgb(41,183,126)" stroke="rgb(41,183,126)" stroke-width="1" opacity="0.996078431372549" d="M 476.5 143 L 478.5 146 L 476.5 143 Z " /><path fill="rgb(41,183,126)" stroke="rgb(41,183,126)" stroke-width="1" opacity="0.996078431372549" d="M 411.5 145 L 405.5 152 L 411.5 145 Z " /><path fill="rgb(41,183,126)" stroke="rgb(41,183,126)" stroke-width="1" opacity="0.996078431372549" d="M 484.5 151 L 486.5 154 L 484.5 151 Z " /><path fill="rgb(41,183,126)" stroke="rgb(41,183,126)" stroke-width="1" opacity="0.996078431372549" d="M 404.5 153 L 402.5 156 L 404.5 153 Z " /><path fill="rgb(41,183,126)" stroke="rgb(41,183,126)" stroke-width="1" opacity="0.996078431372549" d="M 489.5 158 L 490.5 160 L 489.5 158 Z " /><path fill="rgb(41,183,126)" stroke="rgb(41,183,126)" stroke-width="1" opacity="0.996078431372549" d="M 400.5 159 L 399.5 161 L 400.5 159 Z " /><path fill="rgb(41,183,126)" stroke="rgb(41,183,126)" stroke-width="1" opacity="0.996078431372549" d="M 359.5 211 L 358.5 213 L 359.5 211 Z " /><path fill="rgb(41,183,126)" stroke="rgb(41,183,126)" stroke-width="1" opacity="0.996078431372549" d="M 272.5 213 L 273.5 215 L 272.5 213 Z " /><path fill="rgb(41,183,126)" stroke="rgb(41,183,126)" stroke-width="1" opacity="0.996078431372549" d="M 357.5 214 L 356.5 216 L 357.5 214 Z " /><path fill="rgb(41,183,126)" stroke="rgb(41,183,126)" stroke-width="1" opacity="0.996078431372549" d="M 487.5 214 L 485.5 217 L 487.5 214 Z " /><path fill="rgb(41,183,126)" stroke="rgb(41,183,126)" stroke-width="1" opacity="0.996078431372549" d="M 275.5 217 L 282.5 225 L 275.5 217 Z " /><path fill="rgb(41,183,126)" stroke="rgb(41,183,126)" stroke-width="1" opacity="0.996078431372549" d="M 353.5 219 L 349.5 224 L 353.5 219 Z " /><path fill="rgb(41,183,126)" stroke="rgb(41,183,126)" stroke-width="1" opacity="0.996078431372549" d="M 483.5 219 L 480.5 223 L 483.5 219 Z " /><path fill="rgb(41,183,126)" stroke="rgb(41,183,126)" stroke-width="1" opacity="0.996078431372549" d="M 346.5 225 L 345.5 227 L 346.5 225 Z " /><path fill="rgb(41,183,126)" stroke="rgb(41,183,126)" stroke-width="1" opacity="0.996078431372549" d="M 476.5 225 L 475.5 227 L 476.5 225 Z " /><path fill="rgb(41,183,126)" stroke="rgb(41,183,126)" stroke-width="1" opacity="0.996078431372549" d="M 285.5 226 L 286.5 228 L 285.5 226 Z " /><path fill="rgb(42,183,126)" stroke="rgb(42,183,126)" stroke-width="1" opacity="1" d="M 308.5 3 L 322.5 3 L 333.5 6 Q 347.6 11.4 356 22.5 L 363 34.5 L 367 49.5 L 367 189.5 Q 363.1 213.1 347.5 225 L 327.5 235 L 308.5 236 Q 285.3 231.7 274 215.5 Q 266.4 206.1 264 191.5 L 264 47.5 Q 268.3 24.3 284.5 13 Q 293.9 5.4 308.5 3 Z " /><path fill="rgb(42,183,126)" stroke="rgb(42,183,126)" stroke-width="1" opacity="1" d="M 440.5 133 L 450.5 133 L 465.5 137 Q 476.6 141.9 484 150.5 L 493 164.5 Q 497.3 174.2 497 188.5 L 495 198.5 L 490 210.5 L 477.5 225 Q 467.7 233.2 452.5 236 L 394 236 L 394 177.5 L 395 172.5 Q 400.1 154.1 413.5 144 L 427.5 136 L 440.5 133 Z " /><path fill="rgb(228,21,95)" stroke="rgb(228,21,95)" stroke-width="1" opacity="0.4745098039215686" d="M 45.5 263 L 50 263.5 L 45.5 264 L 45.5 263 Z " /><path fill="rgb(228,21,95)" stroke="rgb(228,21,95)" stroke-width="1" opacity="0.4745098039215686" d="M 107.5 263 L 108 316.5 L 107 316.5 L 107.5 263 Z " /><path fill="rgb(228,21,95)" stroke="rgb(228,21,95)" stroke-width="1" opacity="0.4745098039215686" d="M 175.5 263 L 180 263.5 L 175.5 264 L 175.5 263 Z " /><path fill="rgb(228,21,95)" stroke="rgb(228,21,95)" stroke-width="1" opacity="0.4745098039215686" d="M 190.5 263 L 195 263.5 L 190.5 264 L 190.5 263 Z " /><path fill="rgb(228,21,95)" stroke="rgb(228,21,95)" stroke-width="1" opacity="0.4745098039215686" d="M 41.5 264 L 44 264.5 L 41.5 265 L 41.5 264 Z " /><path fill="rgb(228,21,95)" stroke="rgb(228,21,95)" stroke-width="1" opacity="0.4745098039215686" d="M 171.5 264 L 174 264.5 L 171.5 265 L 171.5 264 Z " /><path fill="rgb(228,21,95)" stroke="rgb(228,21,95)" stroke-width="1" opacity="0.4745098039215686" d="M 196.5 264 L 205 266.5 L 203.5 267 L 196.5 265 L 196.5 264 Z " /><path fill="rgb(228,21,95)" stroke="rgb(228,21,95)" stroke-width="1" opacity="0.4745098039215686" d="M 37.5 265 L 40 265.5 L 35.5 267 L 35.5 266 L 37.5 265 Z " /><path fill="rgb(228,21,95)" stroke="rgb(228,21,95)" stroke-width="1" opacity="0.4745098039215686" d="M 167.5 265 L 170 265.5 L 165.5 267 L 165.5 266 L 167.5 265 Z " /><path fill="rgb(228,21,95)" stroke="rgb(228,21,95)" stroke-width="1" opacity="0.4745098039215686" d="M 162.5 267 L 164 267.5 Q 153 272 146 280.5 L 139.5 290 L 140 288.5 Q 144 279.5 151.5 274 L 162.5 267 Z " /><path fill="rgb(228,21,95)" stroke="rgb(228,21,95)" stroke-width="1" opacity="0.4745098039215686" d="M 206.5 267 L 211 269.5 L 209.5 269 Q 205.7 268.8 206.5 267 Z " /><path fill="rgb(228,21,95)" stroke="rgb(228,21,95)" stroke-width="1" opacity="0.4745098039215686" d="M 29.5 269 L 28.5 271 L 17 279.5 L 9.5 290 L 10 288.5 Q 14 279.5 21.5 274 L 29.5 269 Z " /><path fill="rgb(228,21,95)" stroke="rgb(228,21,95)" stroke-width="1" opacity="0.4745098039215686" d="M 212.5 270 L 226 281.5 L 230 287.5 L 228 286.5 L 218.5 275 Q 213.2 273.2 212.5 270 Z " /><path fill="rgb(228,21,95)" stroke="rgb(228,21,95)" stroke-width="1" opacity="0.4745098039215686" d="M 230.5 289 L 233 293.5 L 232 293.5 L 230.5 289 Z " /><path fill="rgb(228,21,95)" stroke="rgb(228,21,95)" stroke-width="1" opacity="0.4745098039215686" d="M 7.5 293 L 8 294.5 L 6.5 297 L 6 295.5 L 7.5 293 Z " /><path fill="rgb(228,21,95)" stroke="rgb(228,21,95)" stroke-width="1" opacity="0.4745098039215686" d="M 233.5 295 L 236 303.5 L 235 303.5 L 233.5 295 Z " /><path fill="rgb(228,21,95)" stroke="rgb(228,21,95)" stroke-width="1" opacity="0.4745098039215686" d="M 4.5 301 L 5 303.5 L 4 303.5 L 4.5 301 Z " /><path fill="rgb(228,21,95)" stroke="rgb(228,21,95)" stroke-width="1" opacity="0.4745098039215686" d="M 134.5 301 L 135 303.5 L 134 303.5 L 134.5 301 Z " /><path fill="rgb(228,21,95)" stroke="rgb(228,21,95)" stroke-width="1" opacity="0.4745098039215686" d="M 133.5 305 L 134 310.5 L 133 310.5 L 133.5 305 Z " /><path fill="rgb(228,21,95)" stroke="rgb(228,21,95)" stroke-width="1" opacity="0.4745098039215686" d="M 236.5 305 L 237 309.5 L 236 309.5 L 236.5 305 Z " /><path fill="rgb(228,21,95)" stroke="rgb(228,21,95)" stroke-width="1" opacity="0.4745098039215686" d="M 3.5 306 L 4 311.5 L 3 311.5 L 3.5 306 Z " /><path fill="rgb(228,21,95)" stroke="rgb(228,21,95)" stroke-width="1" opacity="0.4745098039215686" d="M 237.5 315 L 238 444.5 L 237 444.5 L 237.5 315 Z " /><path fill="rgb(228,21,95)" stroke="rgb(228,21,95)" stroke-width="1" opacity="0.4745098039215686" d="M 3.5 318 L 4 323.5 L 3 323.5 L 3.5 318 Z " /><path fill="rgb(228,21,95)" stroke="rgb(228,21,95)" stroke-width="1" opacity="0.4745098039215686" d="M 106.5 321 L 107 325.5 L 106 325.5 L 106.5 321 Z " /><path fill="rgb(228,21,95)" stroke="rgb(228,21,95)" stroke-width="1" opacity="0.4745098039215686" d="M 4.5 326 L 5 328.5 L 4 328.5 L 4.5 326 Z " /><path fill="rgb(228,21,95)" stroke="rgb(228,21,95)" stroke-width="1" opacity="0.4745098039215686" d="M 105.5 327 L 106 329.5 L 100.5 341 L 101 339.5 L 105.5 327 Z " /><path fill="rgb(228,21,95)" stroke="rgb(228,21,95)" stroke-width="1" opacity="0.4745098039215686" d="M 6.5 333 Q 10.9 345.1 19.5 353 L 30 360.5 L 28.5 360 L 16 350.5 Q 8.8 343.3 6.5 333 Z " /><path fill="rgb(228,21,95)" stroke="rgb(228,21,95)" stroke-width="1" opacity="0.4745098039215686" d="M 99.5 342 L 99 343.5 L 88.5 356 L 78.5 362 L 78.5 361 Q 88.6 356.6 95 348.5 L 99.5 342 Z " /><path fill="rgb(228,21,95)" stroke="rgb(228,21,95)" stroke-width="1" opacity="0.4745098039215686" d="M 31.5 361 L 37 363.5 L 35.5 364 L 31.5 362 L 31.5 361 Z " /><path fill="rgb(228,21,95)" stroke="rgb(228,21,95)" stroke-width="1" opacity="0.4745098039215686" d="M 73.5 363 L 75 363.5 L 70.5 365 L 70.5 364 L 73.5 363 Z " /><path fill="rgb(228,21,95)" stroke="rgb(228,21,95)" stroke-width="1" opacity="0.4745098039215686" d="M 41.5 365 L 44 365.5 L 41.5 366 L 41.5 365 Z " /><path fill="rgb(228,21,95)" stroke="rgb(228,21,95)" stroke-width="1" opacity="0.4745098039215686" d="M 66.5 365 L 69 365.5 L 66.5 366 L 66.5 365 Z " /><path fill="rgb(228,21,95)" stroke="rgb(228,21,95)" stroke-width="1" opacity="0.4745098039215686" d="M 45.5 366 L 51 366.5 L 45.5 367 L 45.5 366 Z " /><path fill="rgb(228,21,95)" stroke="rgb(228,21,95)" stroke-width="1" opacity="0.4745098039215686" d="M 59.5 366 L 65 366.5 L 59.5 367 L 59.5 366 Z " /><path fill="rgb(228,21,95)" stroke="rgb(228,21,95)" stroke-width="1" opacity="0.4745098039215686" d="M 133.5 449 L 134 454.5 L 133 454.5 L 133.5 449 Z " /><path fill="rgb(228,21,95)" stroke="rgb(228,21,95)" stroke-width="1" opacity="0.4745098039215686" d="M 236.5 450 L 237 454.5 L 236 454.5 L 236.5 450 Z " /><path fill="rgb(228,21,95)" stroke="rgb(228,21,95)" stroke-width="1" opacity="0.4745098039215686" d="M 134.5 456 L 135 458.5 L 134 458.5 L 134.5 456 Z " /><path fill="rgb(228,21,95)" stroke="rgb(228,21,95)" stroke-width="1" opacity="0.4745098039215686" d="M 235.5 456 L 236 458.5 L 235 458.5 L 235.5 456 Z " /><path fill="rgb(228,21,95)" stroke="rgb(228,21,95)" stroke-width="1" opacity="0.4745098039215686" d="M 234.5 460 L 235 462.5 L 233.5 465 L 233 463.5 L 234.5 460 Z " /><path fill="rgb(228,21,95)" stroke="rgb(228,21,95)" stroke-width="1" opacity="0.4745098039215686" d="M 136.5 463 L 139 468.5 L 138 468.5 L 136.5 463 Z " /><path fill="rgb(228,21,95)" stroke="rgb(228,21,95)" stroke-width="1" opacity="0.4745098039215686" d="M 139.5 470 L 148.5 482 Q 156 489.5 167 493.5 L 165.5 494 Q 153.2 488.8 145 479.5 L 139.5 470 Z " /><path fill="rgb(228,21,95)" stroke="rgb(228,21,95)" stroke-width="1" opacity="0.4745098039215686" d="M 230.5 470 L 230 471.5 Q 226.4 479.9 219.5 485 L 210.5 491 L 211.5 489 L 224 479.5 L 230.5 470 Z " /><path fill="rgb(228,21,95)" stroke="rgb(228,21,95)" stroke-width="1" opacity="0.4745098039215686" d="M 205.5 492 L 207 492.5 L 203.5 494 L 203.5 493 L 205.5 492 Z " /><path fill="rgb(228,21,95)" stroke="rgb(228,21,95)" stroke-width="1" opacity="0.4745098039215686" d="M 171.5 495 L 174 495.5 L 171.5 496 L 171.5 495 Z " /><path fill="rgb(228,21,95)" stroke="rgb(228,21,95)" stroke-width="1" opacity="0.4745098039215686" d="M 196.5 495 L 199 495.5 L 196.5 496 L 196.5 495 Z " /><path fill="rgb(228,21,95)" stroke="rgb(228,21,95)" stroke-width="1" opacity="0.4745098039215686" d="M 176.5 496 L 182 496.5 L 176.5 497 L 176.5 496 Z " /><path fill="rgb(228,21,95)" stroke="rgb(228,21,95)" stroke-width="1" opacity="0.4745098039215686" d="M 188.5 496 L 194 496.5 L 188.5 497 L 188.5 496 Z " /><path fill="rgb(225,24,90)" stroke="rgb(225,24,90)" stroke-width="1" opacity="0.996078431372549" d="M 50.5 263 L 55 263.5 L 50.5 264 L 50.5 263 Z " /><path fill="rgb(225,24,90)" stroke="rgb(225,24,90)" stroke-width="1" opacity="0.996078431372549" d="M 180.5 263 L 190 263.5 L 180.5 264 L 180.5 263 Z " /><path fill="rgb(225,24,90)" stroke="rgb(225,24,90)" stroke-width="1" opacity="0.996078431372549" d="M 30.5 269 L 29.5 271 L 30.5 269 Z " /><path fill="rgb(225,24,90)" stroke="rgb(225,24,90)" stroke-width="1" opacity="0.996078431372549" d="M 211.5 270 L 212.5 272 L 211.5 270 Z " /><path fill="rgb(225,24,90)" stroke="rgb(225,24,90)" stroke-width="1" opacity="0.996078431372549" d="M 25.5 272 L 23.5 275 L 25.5 272 Z " /><path fill="rgb(225,24,90)" stroke="rgb(225,24,90)" stroke-width="1" opacity="0.996078431372549" d="M 155.5 272 L 153.5 275 L 155.5 272 Z " /><path fill="rgb(225,24,90)" stroke="rgb(225,24,90)" stroke-width="1" opacity="0.996078431372549" d="M 214.5 272 L 215.5 274 L 214.5 272 Z " /><path fill="rgb(225,24,90)" stroke="rgb(225,24,90)" stroke-width="1" opacity="0.996078431372549" d="M 218.5 275 L 224.5 282 L 218.5 275 Z " /><path fill="rgb(225,24,90)" stroke="rgb(225,24,90)" stroke-width="1" opacity="0.996078431372549" d="M 20.5 276 L 17.5 280 L 20.5 276 Z " /><path fill="rgb(225,24,90)" stroke="rgb(225,24,90)" stroke-width="1" opacity="0.996078431372549" d="M 150.5 276 L 146.5 281 L 150.5 276 Z " /><path fill="rgb(225,24,90)" stroke="rgb(225,24,90)" stroke-width="1" opacity="0.996078431372549" d="M 14.5 283 L 13.5 285 L 14.5 283 Z " /><path fill="rgb(225,24,90)" stroke="rgb(225,24,90)" stroke-width="1" opacity="0.996078431372549" d="M 144.5 283 L 142.5 286 L 144.5 283 Z " /><path fill="rgb(225,24,90)" stroke="rgb(225,24,90)" stroke-width="1" opacity="0.996078431372549" d="M 226.5 284 L 227.5 286 L 226.5 284 Z " /><path fill="rgb(225,24,90)" stroke="rgb(225,24,90)" stroke-width="1" opacity="0.996078431372549" d="M 228.5 287 L 229.5 289 L 228.5 287 Z " /><path fill="rgb(225,24,90)" stroke="rgb(225,24,90)" stroke-width="1" opacity="0.996078431372549" d="M 10.5 289 L 9.5 291 L 10.5 289 Z " /><path fill="rgb(225,24,90)" stroke="rgb(225,24,90)" stroke-width="1" opacity="0.996078431372549" d="M 236.5 310 L 237 314.5 L 236 314.5 L 236.5 310 Z " /><path fill="rgb(225,24,90)" stroke="rgb(225,24,90)" stroke-width="1" opacity="0.996078431372549" d="M 133.5 311 L 134 448.5 L 133 448.5 L 133.5 311 Z " /><path fill="rgb(225,24,90)" stroke="rgb(225,24,90)" stroke-width="1" opacity="0.996078431372549" d="M 3.5 312 L 4 317.5 L 3 317.5 L 3.5 312 Z " /><path fill="rgb(225,24,90)" stroke="rgb(225,24,90)" stroke-width="1" opacity="0.996078431372549" d="M 106.5 316 L 107 320.5 L 106 320.5 L 106.5 316 Z " /><path fill="rgb(225,24,90)" stroke="rgb(225,24,90)" stroke-width="1" opacity="0.996078431372549" d="M 99.5 341 L 98.5 343 L 99.5 341 Z " /><path fill="rgb(225,24,90)" stroke="rgb(225,24,90)" stroke-width="1" opacity="0.996078431372549" d="M 97.5 344 L 96.5 346 L 97.5 344 Z " /><path fill="rgb(225,24,90)" stroke="rgb(225,24,90)" stroke-width="1" opacity="0.996078431372549" d="M 13.5 345 L 14.5 347 L 13.5 345 Z " /><path fill="rgb(225,24,90)" stroke="rgb(225,24,90)" stroke-width="1" opacity="0.996078431372549" d="M 94.5 348 L 88.5 355 L 94.5 348 Z " /><path fill="rgb(225,24,90)" stroke="rgb(225,24,90)" stroke-width="1" opacity="0.996078431372549" d="M 17.5 350 L 19.5 353 L 17.5 350 Z " /><path fill="rgb(225,24,90)" stroke="rgb(225,24,90)" stroke-width="1" opacity="0.996078431372549" d="M 23.5 355 L 24.5 357 L 23.5 355 Z " /><path fill="rgb(225,24,90)" stroke="rgb(225,24,90)" stroke-width="1" opacity="0.996078431372549" d="M 85.5 356 L 84.5 358 L 85.5 356 Z " /><path fill="rgb(225,24,90)" stroke="rgb(225,24,90)" stroke-width="1" opacity="0.996078431372549" d="M 29.5 359 L 30.5 361 L 29.5 359 Z " /><path fill="rgb(225,24,90)" stroke="rgb(225,24,90)" stroke-width="1" opacity="0.996078431372549" d="M 51.5 366 L 59 366.5 L 51.5 367 L 51.5 366 Z " /><path fill="rgb(225,24,90)" stroke="rgb(225,24,90)" stroke-width="1" opacity="0.996078431372549" d="M 236.5 445 L 237 449.5 L 236 449.5 L 236.5 445 Z " /><path fill="rgb(225,24,90)" stroke="rgb(225,24,90)" stroke-width="1" opacity="0.996078431372549" d="M 139.5 469 L 140.5 471 L 139.5 469 Z " /><path fill="rgb(225,24,90)" stroke="rgb(225,24,90)" stroke-width="1" opacity="0.996078431372549" d="M 230.5 469 L 229.5 471 L 230.5 469 Z " /><path fill="rgb(225,24,90)" stroke="rgb(225,24,90)" stroke-width="1" opacity="0.996078431372549" d="M 143.5 475 L 144.5 477 L 143.5 475 Z " /><path fill="rgb(225,24,90)" stroke="rgb(225,24,90)" stroke-width="1" opacity="0.996078431372549" d="M 226.5 475 L 225.5 477 L 226.5 475 Z " /><path fill="rgb(225,24,90)" stroke="rgb(225,24,90)" stroke-width="1" opacity="0.996078431372549" d="M 223.5 479 L 219.5 484 L 223.5 479 Z " /><path fill="rgb(225,24,90)" stroke="rgb(225,24,90)" stroke-width="1" opacity="0.996078431372549" d="M 147.5 480 L 148.5 482 L 147.5 480 Z " /><path fill="rgb(225,24,90)" stroke="rgb(225,24,90)" stroke-width="1" opacity="0.996078431372549" d="M 153.5 485 L 154.5 487 L 153.5 485 Z " /><path fill="rgb(225,24,90)" stroke="rgb(225,24,90)" stroke-width="1" opacity="0.996078431372549" d="M 216.5 485 L 215.5 487 L 216.5 485 Z " /><path fill="rgb(225,24,90)" stroke="rgb(225,24,90)" stroke-width="1" opacity="0.996078431372549" d="M 210.5 489 L 209.5 491 L 210.5 489 Z " /><path fill="rgb(225,24,90)" stroke="rgb(225,24,90)" stroke-width="1" opacity="0.996078431372549" d="M 182.5 496 L 188 496.5 L 182.5 497 L 182.5 496 Z " /><path fill="rgb(237,179,42)" stroke="rgb(237,179,42)" stroke-width="1" opacity="0.5411764705882353" d="M 305.5 263 L 311 263.5 L 305.5 264 L 305.5 263 Z " /><path fill="rgb(237,179,42)" stroke="rgb(237,179,42)" stroke-width="1" opacity="0.5411764705882353" d="M 450.5 263 L 456 263.5 L 450.5 264 L 450.5 263 Z " /><path fill="rgb(237,179,42)" stroke="rgb(237,179,42)" stroke-width="1" opacity="0.5411764705882353" d="M 301.5 264 L 304 264.5 L 301.5 265 L 301.5 264 Z " /><path fill="rgb(237,179,42)" stroke="rgb(237,179,42)" stroke-width="1" opacity="0.5411764705882353" d="M 457.5 264 L 460 264.5 L 457.5 265 L 457.5 264 Z " /><path fill="rgb(237,179,42)" stroke="rgb(237,179,42)" stroke-width="1" opacity="0.5411764705882353" d="M 298.5 265 L 300 265.5 Q 283.2 270.7 274 283.5 L 267.5 295 L 267 293.5 Q 271.6 283.1 279.5 276 Q 287.3 268.8 298.5 265 Z " /><path fill="rgb(237,179,42)" stroke="rgb(237,179,42)" stroke-width="1" opacity="0.5411764705882353" d="M 464.5 266 Q 477.2 270.3 485 279.5 Q 491 285.5 494 294.5 L 493 294.5 Q 487.5 281 476.5 273 L 464.5 267 L 464.5 266 Z " /><path fill="rgb(237,179,42)" stroke="rgb(237,179,42)" stroke-width="1" opacity="0.5411764705882353" d="M 266.5 296 L 267 297.5 L 265.5 301 L 265 298.5 L 266.5 296 Z " /><path fill="rgb(237,179,42)" stroke="rgb(237,179,42)" stroke-width="1" opacity="0.5411764705882353" d="M 494.5 296 L 496 300.5 L 495 300.5 L 494.5 296 Z " /><path fill="rgb(237,179,42)" stroke="rgb(237,179,42)" stroke-width="1" opacity="0.5411764705882353" d="M 264.5 302 L 265 305.5 L 264 305.5 L 264.5 302 Z " /><path fill="rgb(237,179,42)" stroke="rgb(237,179,42)" stroke-width="1" opacity="0.5411764705882353" d="M 496.5 302 L 497 305.5 L 496 305.5 L 496.5 302 Z " /><path fill="rgb(237,179,42)" stroke="rgb(237,179,42)" stroke-width="1" opacity="0.5411764705882353" d="M 263.5 307 L 264 322.5 L 263 322.5 L 263.5 307 Z " /><path fill="rgb(237,179,42)" stroke="rgb(237,179,42)" stroke-width="1" opacity="0.5411764705882353" d="M 497.5 307 L 498 322.5 L 497 322.5 L 497.5 307 Z " /><path fill="rgb(237,179,42)" stroke="rgb(237,179,42)" stroke-width="1" opacity="0.5411764705882353" d="M 264.5 324 L 265 327.5 L 264 327.5 L 264.5 324 Z " /><path fill="rgb(237,179,42)" stroke="rgb(237,179,42)" stroke-width="1" opacity="0.5411764705882353" d="M 496.5 324 L 497 327.5 L 496 327.5 L 496.5 324 Z " /><path fill="rgb(237,179,42)" stroke="rgb(237,179,42)" stroke-width="1" opacity="0.5411764705882353" d="M 265.5 329 L 267 333.5 L 266 333.5 L 265.5 329 Z " /><path fill="rgb(237,179,42)" stroke="rgb(237,179,42)" stroke-width="1" opacity="0.5411764705882353" d="M 495.5 329 L 496 331.5 L 494.5 334 L 494 332.5 L 495.5 329 Z " /><path fill="rgb(237,179,42)" stroke="rgb(237,179,42)" stroke-width="1" opacity="0.5411764705882353" d="M 267.5 335 Q 272.9 348.1 283.5 356 Q 291.6 362.9 304 365.5 L 301.5 366 Q 286.4 361.6 277 351.5 L 269 340.5 L 267.5 335 Z " /><path fill="rgb(237,179,42)" stroke="rgb(237,179,42)" stroke-width="1" opacity="0.5411764705882353" d="M 493.5 335 L 494 336.5 L 482.5 353 Q 473.1 362.6 457.5 366 L 457.5 365 Q 477.2 360.7 487 346.5 L 493.5 335 Z " /><path fill="rgb(237,179,42)" stroke="rgb(237,179,42)" stroke-width="1" opacity="0.5411764705882353" d="M 305.5 366 L 312 366.5 L 305.5 367 L 305.5 366 Z " /><path fill="rgb(237,179,42)" stroke="rgb(237,179,42)" stroke-width="1" opacity="0.5411764705882353" d="M 449.5 366 L 456 366.5 L 449.5 367 L 449.5 366 Z " /><path fill="rgb(237,179,42)" stroke="rgb(237,179,42)" stroke-width="1" opacity="0.5411764705882353" d="M 263 392 L 317 392.5 L 264 393 L 263.5 453 L 263 392 Z " /><path fill="rgb(237,179,42)" stroke="rgb(237,179,42)" stroke-width="1" opacity="0.5411764705882353" d="M 321.5 393 L 326 393.5 L 321.5 394 L 321.5 393 Z " /><path fill="rgb(237,179,42)" stroke="rgb(237,179,42)" stroke-width="1" opacity="0.5411764705882353" d="M 327.5 394 L 330 394.5 L 327.5 395 L 327.5 394 Z " /><path fill="rgb(237,179,42)" stroke="rgb(237,179,42)" stroke-width="1" opacity="0.5411764705882353" d="M 334.5 396 Q 349.8 401.2 358 413.5 L 365 426.5 L 366 431.5 L 365 431.5 Q 360.6 413.4 347.5 404 L 334.5 397 L 334.5 396 Z " /><path fill="rgb(237,179,42)" stroke="rgb(237,179,42)" stroke-width="1" opacity="0.5411764705882353" d="M 366.5 433 L 367 437.5 L 366 437.5 L 366.5 433 Z " /><path fill="rgb(237,179,42)" stroke="rgb(237,179,42)" stroke-width="1" opacity="0.5411764705882353" d="M 367.5 439 L 368 450.5 L 367 450.5 L 367.5 439 Z " /><path fill="rgb(237,179,42)" stroke="rgb(237,179,42)" stroke-width="1" opacity="0.5411764705882353" d="M 366.5 452 L 367 456.5 L 364.5 463 L 364 461.5 L 366.5 452 Z " /><path fill="rgb(237,179,42)" stroke="rgb(237,179,42)" stroke-width="1" opacity="0.5411764705882353" d="M 264.5 454 Q 268.5 475.5 283.5 486 Q 291.8 493.2 305 495.5 L 301.5 496 Q 283.3 490.3 273 476.5 L 265 461.5 L 264.5 454 Z " /><path fill="rgb(237,179,42)" stroke="rgb(237,179,42)" stroke-width="1" opacity="0.5411764705882353" d="M 363.5 464 L 364 465.5 Q 358.3 478.8 347.5 487 L 336.5 493 L 336.5 492 Q 348.7 487.2 356 477.5 L 363.5 464 Z " /><path fill="rgb(237,179,42)" stroke="rgb(237,179,42)" stroke-width="1" opacity="0.5411764705882353" d="M 333.5 493 L 335 493.5 L 330.5 495 L 330.5 494 L 333.5 493 Z " /><path fill="rgb(237,179,42)" stroke="rgb(237,179,42)" stroke-width="1" opacity="0.5411764705882353" d="M 326.5 495 L 329 495.5 L 326.5 496 L 326.5 495 Z " /><path fill="rgb(237,179,42)" stroke="rgb(237,179,42)" stroke-width="1" opacity="0.5411764705882353" d="M 306.5 496 L 314 496.5 L 306.5 497 L 306.5 496 Z " /><path fill="rgb(237,179,42)" stroke="rgb(237,179,42)" stroke-width="1" opacity="0.5411764705882353" d="M 317.5 496 L 325 496.5 L 317.5 497 L 317.5 496 Z " /><path fill="rgb(237,179,42)" stroke="rgb(237,179,42)" stroke-width="1" opacity="0.996078431372549" d="M 311.5 263 L 315 263.5 L 311.5 264 L 311.5 263 Z " /><path fill="rgb(237,179,42)" stroke="rgb(237,179,42)" stroke-width="1" opacity="0.996078431372549" d="M 446.5 263 L 450 263.5 L 446.5 264 L 446.5 263 Z " /><path fill="rgb(237,179,42)" stroke="rgb(237,179,42)" stroke-width="1" opacity="0.996078431372549" d="M 287.5 271 L 286.5 273 L 287.5 271 Z " /><path fill="rgb(237,179,42)" stroke="rgb(237,179,42)" stroke-width="1" opacity="0.996078431372549" d="M 284.5 273 L 282.5 276 L 284.5 273 Z " /><path fill="rgb(237,179,42)" stroke="rgb(237,179,42)" stroke-width="1" opacity="0.996078431372549" d="M 476.5 273 L 478.5 276 L 476.5 273 Z " /><path fill="rgb(237,179,42)" stroke="rgb(237,179,42)" stroke-width="1" opacity="0.996078431372549" d="M 275.5 282 L 274.5 284 L 275.5 282 Z " /><path fill="rgb(237,179,42)" stroke="rgb(237,179,42)" stroke-width="1" opacity="0.996078431372549" d="M 485.5 282 L 486.5 284 L 485.5 282 Z " /><path fill="rgb(237,179,42)" stroke="rgb(237,179,42)" stroke-width="1" opacity="0.996078431372549" d="M 274.5 346 L 276.5 349 L 274.5 346 Z " /><path fill="rgb(237,179,42)" stroke="rgb(237,179,42)" stroke-width="1" opacity="0.996078431372549" d="M 486.5 346 L 484.5 349 L 486.5 346 Z " /><path fill="rgb(237,179,42)" stroke="rgb(237,179,42)" stroke-width="1" opacity="0.996078431372549" d="M 281.5 353 L 283.5 356 L 281.5 353 Z " /><path fill="rgb(237,179,42)" stroke="rgb(237,179,42)" stroke-width="1" opacity="0.996078431372549" d="M 479.5 353 L 477.5 356 L 479.5 353 Z " /><path fill="rgb(237,179,42)" stroke="rgb(237,179,42)" stroke-width="1" opacity="0.996078431372549" d="M 286.5 357 L 287.5 359 L 286.5 357 Z " /><path fill="rgb(237,179,42)" stroke="rgb(237,179,42)" stroke-width="1" opacity="0.996078431372549" d="M 474.5 357 L 473.5 359 L 474.5 357 Z " /><path fill="rgb(237,179,42)" stroke="rgb(237,179,42)" stroke-width="1" opacity="0.996078431372549" d="M 312.5 366 L 449 366.5 L 312.5 367 L 312.5 366 Z " /><path fill="rgb(237,179,42)" stroke="rgb(237,179,42)" stroke-width="1" opacity="0.996078431372549" d="M 317.5 393 L 321 393.5 L 317.5 394 L 317.5 393 Z " /><path fill="rgb(237,179,42)" stroke="rgb(237,179,42)" stroke-width="1" opacity="0.996078431372549" d="M 343.5 401 L 344.5 403 L 343.5 401 Z " /><path fill="rgb(237,179,42)" stroke="rgb(237,179,42)" stroke-width="1" opacity="0.996078431372549" d="M 347.5 404 L 350.5 408 L 347.5 404 Z " /><path fill="rgb(237,179,42)" stroke="rgb(237,179,42)" stroke-width="1" opacity="0.996078431372549" d="M 352.5 409 L 355.5 413 L 352.5 409 Z " /><path fill="rgb(237,179,42)" stroke="rgb(237,179,42)" stroke-width="1" opacity="0.996078431372549" d="M 357.5 415 L 358.5 417 L 357.5 415 Z " /><path fill="rgb(237,179,42)" stroke="rgb(237,179,42)" stroke-width="1" opacity="0.996078431372549" d="M 270.5 470 L 271.5 472 L 270.5 470 Z " /><path fill="rgb(237,179,42)" stroke="rgb(237,179,42)" stroke-width="1" opacity="0.996078431372549" d="M 357.5 474 L 356.5 476 L 357.5 474 Z " /><path fill="rgb(237,179,42)" stroke="rgb(237,179,42)" stroke-width="1" opacity="0.996078431372549" d="M 274.5 476 L 277.5 480 L 274.5 476 Z " /><path fill="rgb(237,179,42)" stroke="rgb(237,179,42)" stroke-width="1" opacity="0.996078431372549" d="M 355.5 477 L 348.5 485 L 355.5 477 Z " /><path fill="rgb(237,179,42)" stroke="rgb(237,179,42)" stroke-width="1" opacity="0.996078431372549" d="M 280.5 482 L 283.5 486 L 280.5 482 Z " /><path fill="rgb(237,179,42)" stroke="rgb(237,179,42)" stroke-width="1" opacity="0.996078431372549" d="M 345.5 486 L 344.5 488 L 345.5 486 Z " /><path fill="rgb(237,179,42)" stroke="rgb(237,179,42)" stroke-width="1" opacity="0.996078431372549" d="M 314.5 496 L 317 496.5 L 314.5 497 L 314.5 496 Z " /><path fill="rgb(225,24,90)" stroke="rgb(225,24,90)" stroke-width="1" opacity="1" d="M 55.5 263 L 107 263 L 107 315.5 L 106 316.5 L 105 328.5 L 100 340.5 L 86.5 356 L 68.5 365 L 63.5 366 L 46.5 366 Q 25.8 361.8 15 347.5 L 5 327.5 Q 2.3 319.2 4 306.5 Q 8.2 285.8 22.5 275 L 35.5 267 L 45.5 264 L 54.5 264 L 55.5 263 Z " /><path fill="rgb(225,24,90)" stroke="rgb(225,24,90)" stroke-width="1" opacity="1" d="M 175.5 264 Q 193.7 261.8 204.5 267 Q 217.8 272.8 226 283.5 L 233 295.5 L 236 305.5 L 236 314.5 L 237 315.5 L 237 444.5 L 236 445.5 L 236 454.5 L 233 464.5 Q 227.4 476.9 217.5 485 L 201.5 494 L 193.5 496 L 176.5 496 Q 156 491.5 145 477.5 Q 136.9 468.1 134 453.5 L 134 306.5 Q 138.2 285.7 152.5 275 Q 161.4 266.9 175.5 264 Z " /><path fill="rgb(237,179,42)" stroke="rgb(237,179,42)" stroke-width="1" opacity="1" d="M 315.5 263 L 445.5 263 L 446.5 264 L 455.5 264 Q 474.6 268.4 485 281.5 Q 491.5 289 495 299.5 L 497 308.5 L 497 321.5 Q 493.4 341.9 480.5 353 Q 470.4 362.4 454.5 366 L 306.5 366 Q 287.8 361.7 277 349.5 Q 269.8 341.7 266 330.5 L 264 321.5 L 264 308.5 Q 267.8 287.3 281.5 276 L 298.5 266 L 315.5 263 Z " /><path fill="rgb(237,179,42)" stroke="rgb(237,179,42)" stroke-width="1" opacity="1" d="M 264 393 L 316.5 393 L 317.5 394 L 325.5 394 L 342.5 401 L 352 408 L 361 420.5 L 364 427.5 L 367 440.5 L 367 449.5 L 364 462.5 L 359 472.5 L 346.5 486 L 328.5 495 L 323.5 496 L 306.5 496 Q 288.6 491.9 278 480.5 Q 267.2 469.8 264 451.5 L 264 393 Z " /></svg>