<svg width="256" height="256" version="1.1" xmlns="http://www.w3.org/2000/svg" desc="Created with imagetracer.js version 1.2.6" ><path fill="rgb(15,9,48)" stroke="rgb(15,9,48)" stroke-width="1" opacity="0.09803921568627451" d="M 0 0 L 24 0.5 Q 13.7 2.7 8 9.5 Q 2.4 14.9 0.5 24 L 0 0 Z " /><path fill="rgb(15,9,48)" stroke="rgb(15,9,48)" stroke-width="1" opacity="0.09803921568627451" d="M 232.5 0 L 256 0 L 256 23.5 L 255 23.5 Q 253.3 13.2 246.5 8 Q 241.5 2.5 232.5 1 L 232.5 0 Z " /><path fill="rgb(15,9,48)" stroke="rgb(15,9,48)" stroke-width="1" opacity="0.09803921568627451" d="M 0.5 232 Q 2.7 242.3 9.5 248 Q 14.9 253.6 24 255.5 L 0 256 L 0.5 232 Z " /><path fill="rgb(15,9,48)" stroke="rgb(15,9,48)" stroke-width="1" opacity="0.09803921568627451" d="M 255.5 232 L 256 256 L 232 255.5 Q 242.3 253.3 248 246.5 Q 253.6 241.1 255.5 232 Z " /><path fill="rgb(83,58,253)" stroke="rgb(83,58,253)" stroke-width="1" opacity="0.996078431372549" d="M 24.5 0 L 32 0.5 L 21.5 2 Q 12.5 5.5 7 12.5 Q 0.7 19.2 0.5 32 L 0 24.5 Q 2.7 14.2 9.5 8 Q 15.3 2.3 24.5 0 Z " /><path fill="rgb(83,58,253)" stroke="rgb(83,58,253)" stroke-width="1" opacity="0.996078431372549" d="M 224.5 0 Q 232.9 -0.9 237.5 2 L 248 9.5 Q 256 16.5 256 31.5 L 255 31.5 L 254 21.5 Q 250.5 12.5 243.5 7 L 234.5 2 L 224.5 1 L 224.5 0 Z " /><path fill="rgb(83,58,253)" stroke="rgb(83,58,253)" stroke-width="1" opacity="0.996078431372549" d="M 0.5 224 L 2 234.5 Q 5.5 243.5 12.5 249 Q 19.2 255.3 32 255.5 L 24.5 256 Q 14.2 253.3 8 246.5 Q -0.5 239 0.5 224 Z " /><path fill="rgb(83,58,253)" stroke="rgb(83,58,253)" stroke-width="1" opacity="0.996078431372549" d="M 255.5 224 L 256 231.5 Q 253.3 241.8 246.5 248 Q 239.5 256 224.5 256 L 224.5 255 L 234.5 254 Q 243.4 250.4 249 243.5 Q 255.3 236.8 255.5 224 Z " /><path fill="rgb(83,58,253)" stroke="rgb(83,58,253)" stroke-width="1" opacity="1" d="M 32.5 0 L 223.5 0 L 234.5 2 Q 243.5 5.5 249 12.5 L 254 21.5 L 256 32.5 L 256 223.5 L 254 234.5 Q 250.9 242.9 244.5 248 L 234.5 254 L 223.5 256 L 32.5 256 L 21.5 254 Q 12.5 250.5 7 243.5 L 2 234.5 L 0 223.5 L 0 32.5 L 2 21.5 Q 5.5 12.5 12.5 7 L 21.5 2 L 32.5 0 Z M 194 60 L 119 77 L 110 78 L 105 80 L 96 81 L 91 83 L 82 84 L 77 86 L 68 87 L 63 89 L 60 90 L 60 196 L 101 188 L 106 186 L 120 184 L 125 182 L 134 181 L 139 179 L 153 177 L 158 175 L 167 174 L 172 172 L 186 170 Q 188 167 195 168 L 196 167 L 196 61 L 194 60 Z " /><path fill="rgb(214,208,254)" stroke="rgb(214,208,254)" stroke-width="1" opacity="1" d="M 193.5 60 L 196 60.5 L 193.5 61 L 193.5 60 Z " /><path fill="rgb(214,208,254)" stroke="rgb(214,208,254)" stroke-width="1" opacity="1" d="M 179.5 63 L 182 63.5 L 179.5 64 L 179.5 63 Z " /><path fill="rgb(214,208,254)" stroke="rgb(214,208,254)" stroke-width="1" opacity="1" d="M 165.5 66 L 168 66.5 L 165.5 67 L 165.5 66 Z " /><path fill="rgb(214,208,254)" stroke="rgb(214,208,254)" stroke-width="1" opacity="1" d="M 151.5 69 L 154 69.5 L 151.5 70 L 151.5 69 Z " /><path fill="rgb(214,208,254)" stroke="rgb(214,208,254)" stroke-width="1" opacity="1" d="M 137.5 72 L 140 72.5 L 137.5 73 L 137.5 72 Z " /><path fill="rgb(214,208,254)" stroke="rgb(214,208,254)" stroke-width="1" opacity="1" d="M 123.5 75 L 126 75.5 L 123.5 76 L 123.5 75 Z " /><path fill="rgb(214,208,254)" stroke="rgb(214,208,254)" stroke-width="1" opacity="1" d="M 109.5 78 L 112 78.5 L 109.5 79 L 109.5 78 Z " /><path fill="rgb(214,208,254)" stroke="rgb(214,208,254)" stroke-width="1" opacity="1" d="M 95.5 81 L 98 81.5 L 95.5 82 L 95.5 81 Z " /><path fill="rgb(214,208,254)" stroke="rgb(214,208,254)" stroke-width="1" opacity="1" d="M 81.5 84 L 84 84.5 L 81.5 85 L 81.5 84 Z " /><path fill="rgb(214,208,254)" stroke="rgb(214,208,254)" stroke-width="1" opacity="1" d="M 67.5 87 L 70 87.5 L 67.5 88 L 67.5 87 Z " /><path fill="rgb(214,208,254)" stroke="rgb(214,208,254)" stroke-width="1" opacity="1" d="M 183.5 169 L 186 169.5 L 183.5 170 L 183.5 169 Z " /><path fill="rgb(214,208,254)" stroke="rgb(214,208,254)" stroke-width="1" opacity="1" d="M 150.5 176 L 153 176.5 L 150.5 177 L 150.5 176 Z " /><path fill="rgb(214,208,254)" stroke="rgb(214,208,254)" stroke-width="1" opacity="1" d="M 131.5 180 L 134 180.5 L 131.5 181 L 131.5 180 Z " /><path fill="rgb(214,208,254)" stroke="rgb(214,208,254)" stroke-width="1" opacity="1" d="M 117.5 183 L 120 183.5 L 117.5 184 L 117.5 183 Z " /><path fill="rgb(214,208,254)" stroke="rgb(214,208,254)" stroke-width="1" opacity="1" d="M 98.5 187 L 101 187.5 L 98.5 188 L 98.5 187 Z " /><path fill="rgb(214,208,254)" stroke="rgb(214,208,254)" stroke-width="1" opacity="1" d="M 84.5 190 L 87 190.5 L 84.5 191 L 84.5 190 Z " /><path fill="rgb(214,208,254)" stroke="rgb(214,208,254)" stroke-width="1" opacity="1" d="M 65.5 194 L 68 194.5 L 65.5 195 L 65.5 194 Z " /><path fill="rgb(255,255,255)" stroke="rgb(255,255,255)" stroke-width="1" opacity="1" d="M 191.5 61 Q 196 60.5 196 61.5 L 196 167 L 150.5 176 L 145.5 178 L 131.5 180 L 126.5 182 L 117.5 183 L 112.5 185 L 98.5 187 L 93.5 189 L 84.5 190 L 79.5 192 L 65.5 194 L 60.5 196 L 60 89 L 69.5 88 L 74.5 86 L 83.5 85 L 88.5 83 L 97.5 82 L 102.5 80 L 111.5 79 L 116.5 77 L 125.5 76 L 191.5 61 Z " /></svg>