<svg width="225" height="225" version="1.1" xmlns="http://www.w3.org/2000/svg" desc="Created with imagetracer.js version 1.2.6" ><path fill="rgb(231,60,81)" stroke="rgb(231,60,81)" stroke-width="1" opacity="1" d="M 103.5 0 L 110 0.5 L 103.5 1 L 103.5 0 Z " /><path fill="rgb(231,60,81)" stroke="rgb(231,60,81)" stroke-width="1" opacity="1" d="M 115.5 0 L 122 0.5 L 115.5 1 L 115.5 0 Z " /><path fill="rgb(231,60,81)" stroke="rgb(231,60,81)" stroke-width="1" opacity="1" d="M 94.5 1 L 98 1.5 L 94.5 2 L 94.5 1 Z " /><path fill="rgb(231,60,81)" stroke="rgb(231,60,81)" stroke-width="1" opacity="1" d="M 127.5 1 L 131 1.5 L 127.5 2 L 127.5 1 Z " /><path fill="rgb(231,60,81)" stroke="rgb(231,60,81)" stroke-width="1" opacity="1" d="M 169.5 15 L 170.5 17 L 169.5 15 Z " /><path fill="rgb(231,60,81)" stroke="rgb(231,60,81)" stroke-width="1" opacity="1" d="M 46.5 21 L 45.5 23 L 46.5 21 Z " /><path fill="rgb(231,60,81)" stroke="rgb(231,60,81)" stroke-width="1" opacity="1" d="M 178.5 21 L 179.5 23 L 178.5 21 Z " /><path fill="rgb(231,60,81)" stroke="rgb(231,60,81)" stroke-width="1" opacity="1" d="M 42.5 24 L 40.5 27 L 42.5 24 Z " /><path fill="rgb(231,60,81)" stroke="rgb(231,60,81)" stroke-width="1" opacity="1" d="M 182.5 24 L 184.5 27 L 182.5 24 Z " /><path fill="rgb(231,60,81)" stroke="rgb(231,60,81)" stroke-width="1" opacity="1" d="M 35.5 30 L 30.5 36 L 35.5 30 Z " /><path fill="rgb(231,60,81)" stroke="rgb(231,60,81)" stroke-width="1" opacity="1" d="M 99.5 30 L 103 30.5 L 99.5 31 L 99.5 30 Z " /><path fill="rgb(231,60,81)" stroke="rgb(231,60,81)" stroke-width="1" opacity="1" d="M 123.5 30 L 126 30.5 L 123.5 31 L 123.5 30 Z " /><path fill="rgb(231,60,81)" stroke="rgb(231,60,81)" stroke-width="1" opacity="1" d="M 189.5 30 L 194.5 36 L 189.5 30 Z " /><path fill="rgb(231,60,81)" stroke="rgb(231,60,81)" stroke-width="1" opacity="1" d="M 26.5 40 L 24.5 43 L 26.5 40 Z " /><path fill="rgb(231,60,81)" stroke="rgb(231,60,81)" stroke-width="1" opacity="1" d="M 198.5 40 L 200.5 43 L 198.5 40 Z " /><path fill="rgb(231,60,81)" stroke="rgb(231,60,81)" stroke-width="1" opacity="1" d="M 155.5 41 L 156.5 43 L 155.5 41 Z " /><path fill="rgb(231,60,81)" stroke="rgb(231,60,81)" stroke-width="1" opacity="1" d="M 66.5 43 L 65.5 45 L 66.5 43 Z " /><path fill="rgb(231,60,81)" stroke="rgb(231,60,81)" stroke-width="1" opacity="1" d="M 158.5 43 L 159.5 45 L 158.5 43 Z " /><path fill="rgb(231,60,81)" stroke="rgb(231,60,81)" stroke-width="1" opacity="1" d="M 22.5 45 L 21.5 47 L 22.5 45 Z " /><path fill="rgb(231,60,81)" stroke="rgb(231,60,81)" stroke-width="1" opacity="1" d="M 63.5 45 L 62.5 47 L 63.5 45 Z " /><path fill="rgb(231,60,81)" stroke="rgb(231,60,81)" stroke-width="1" opacity="1" d="M 161.5 45 L 162.5 47 L 161.5 45 Z " /><path fill="rgb(231,60,81)" stroke="rgb(231,60,81)" stroke-width="1" opacity="1" d="M 202.5 45 L 203.5 47 L 202.5 45 Z " /><path fill="rgb(231,60,81)" stroke="rgb(231,60,81)" stroke-width="1" opacity="1" d="M 58.5 49 L 49.5 59 L 58.5 49 Z " /><path fill="rgb(231,60,81)" stroke="rgb(231,60,81)" stroke-width="1" opacity="1" d="M 166.5 49 L 175.5 59 L 166.5 49 Z " /><path fill="rgb(231,60,81)" stroke="rgb(231,60,81)" stroke-width="1" opacity="1" d="M 16.5 54 L 15.5 56 L 16.5 54 Z " /><path fill="rgb(231,60,81)" stroke="rgb(231,60,81)" stroke-width="1" opacity="1" d="M 208.5 54 L 209.5 56 L 208.5 54 Z " /><path fill="rgb(231,60,81)" stroke="rgb(231,60,81)" stroke-width="1" opacity="1" d="M 46.5 62 L 45.5 64 L 46.5 62 Z " /><path fill="rgb(231,60,81)" stroke="rgb(231,60,81)" stroke-width="1" opacity="1" d="M 178.5 62 L 179.5 64 L 178.5 62 Z " /><path fill="rgb(231,60,81)" stroke="rgb(231,60,81)" stroke-width="1" opacity="1" d="M 44.5 65 L 43.5 67 L 44.5 65 Z " /><path fill="rgb(231,60,81)" stroke="rgb(231,60,81)" stroke-width="1" opacity="1" d="M 180.5 65 L 181.5 67 L 180.5 65 Z " /><path fill="rgb(231,60,81)" stroke="rgb(231,60,81)" stroke-width="1" opacity="1" d="M 154.5 66 L 157.5 70 L 154.5 66 Z " /><path fill="rgb(231,60,81)" stroke="rgb(231,60,81)" stroke-width="1" opacity="1" d="M 69.5 67 L 67.5 70 L 69.5 67 Z " /><path fill="rgb(231,60,81)" stroke="rgb(231,60,81)" stroke-width="1" opacity="1" d="M 42.5 68 L 41.5 70 L 42.5 68 Z " /><path fill="rgb(231,60,81)" stroke="rgb(231,60,81)" stroke-width="1" opacity="1" d="M 182.5 68 L 183.5 70 L 182.5 68 Z " /><path fill="rgb(231,60,81)" stroke="rgb(231,60,81)" stroke-width="1" opacity="1" d="M 107.5 80 L 108 82.5 L 107 82.5 L 107.5 80 Z " /><path fill="rgb(231,60,81)" stroke="rgb(231,60,81)" stroke-width="1" opacity="1" d="M 117.5 80 L 118 82.5 L 117 82.5 L 117.5 80 Z " /><path fill="rgb(231,60,81)" stroke="rgb(231,60,81)" stroke-width="1" opacity="1" d="M 1.5 94 L 2 96.5 L 1 96.5 L 1.5 94 Z " /><path fill="rgb(231,60,81)" stroke="rgb(231,60,81)" stroke-width="1" opacity="1" d="M 223.5 95 L 224 97.5 L 223 97.5 L 223.5 95 Z " /><path fill="rgb(231,60,81)" stroke="rgb(231,60,81)" stroke-width="1" opacity="1" d="M 30.5 99 L 31 101.5 L 30 101.5 L 30.5 99 Z " /><path fill="rgb(231,60,81)" stroke="rgb(231,60,81)" stroke-width="1" opacity="1" d="M 102.5 99 L 99.5 103 L 102.5 99 Z " /><path fill="rgb(231,60,81)" stroke="rgb(231,60,81)" stroke-width="1" opacity="1" d="M 122.5 99 L 125.5 103 L 122.5 99 Z " /><path fill="rgb(231,60,81)" stroke="rgb(231,60,81)" stroke-width="1" opacity="1" d="M 194.5 99 L 195 102.5 L 194 102.5 L 194.5 99 Z " /><path fill="rgb(231,60,81)" stroke="rgb(231,60,81)" stroke-width="1" opacity="1" d="M 0.5 103 L 1 109.5 L 0 109.5 L 0.5 103 Z " /><path fill="rgb(231,60,81)" stroke="rgb(231,60,81)" stroke-width="1" opacity="1" d="M 224.5 103 L 225 109.5 L 224 109.5 L 224.5 103 Z " /><path fill="rgb(231,60,81)" stroke="rgb(231,60,81)" stroke-width="1" opacity="1" d="M 80.5 107 L 83 107.5 L 80.5 108 L 80.5 107 Z " /><path fill="rgb(231,60,81)" stroke="rgb(231,60,81)" stroke-width="1" opacity="1" d="M 142.5 107 L 145 107.5 L 142.5 108 L 142.5 107 Z " /><path fill="rgb(231,60,81)" stroke="rgb(231,60,81)" stroke-width="1" opacity="1" d="M 0.5 115 L 1 121.5 L 0 121.5 L 0.5 115 Z " /><path fill="rgb(231,60,81)" stroke="rgb(231,60,81)" stroke-width="1" opacity="1" d="M 224.5 115 L 225 121.5 L 224 121.5 L 224.5 115 Z " /><path fill="rgb(231,60,81)" stroke="rgb(231,60,81)" stroke-width="1" opacity="1" d="M 80.5 117 L 83 117.5 L 80.5 118 L 80.5 117 Z " /><path fill="rgb(231,60,81)" stroke="rgb(231,60,81)" stroke-width="1" opacity="1" d="M 142.5 117 L 145 117.5 L 142.5 118 L 142.5 117 Z " /><path fill="rgb(231,60,81)" stroke="rgb(231,60,81)" stroke-width="1" opacity="1" d="M 71.5 121 L 70.5 123 L 71.5 121 Z " /><path fill="rgb(231,60,81)" stroke="rgb(231,60,81)" stroke-width="1" opacity="1" d="M 30.5 122 L 31 125.5 L 30 125.5 L 30.5 122 Z " /><path fill="rgb(231,60,81)" stroke="rgb(231,60,81)" stroke-width="1" opacity="1" d="M 99.5 122 L 102.5 126 L 99.5 122 Z " /><path fill="rgb(231,60,81)" stroke="rgb(231,60,81)" stroke-width="1" opacity="1" d="M 125.5 122 L 122.5 126 L 125.5 122 Z " /><path fill="rgb(231,60,81)" stroke="rgb(231,60,81)" stroke-width="1" opacity="1" d="M 194.5 123 L 195 125.5 L 194 125.5 L 194.5 123 Z " /><path fill="rgb(231,60,81)" stroke="rgb(231,60,81)" stroke-width="1" opacity="1" d="M 1.5 127 L 2 130.5 L 1 130.5 L 1.5 127 Z " /><path fill="rgb(231,60,81)" stroke="rgb(231,60,81)" stroke-width="1" opacity="1" d="M 223.5 127 L 224 129.5 L 223 129.5 L 223.5 127 Z " /><path fill="rgb(231,60,81)" stroke="rgb(231,60,81)" stroke-width="1" opacity="1" d="M 107.5 142 L 108 144.5 L 107 144.5 L 107.5 142 Z " /><path fill="rgb(231,60,81)" stroke="rgb(231,60,81)" stroke-width="1" opacity="1" d="M 117.5 142 L 118 144.5 L 117 144.5 L 117.5 142 Z " /><path fill="rgb(231,60,81)" stroke="rgb(231,60,81)" stroke-width="1" opacity="1" d="M 41.5 155 L 42.5 157 L 41.5 155 Z " /><path fill="rgb(231,60,81)" stroke="rgb(231,60,81)" stroke-width="1" opacity="1" d="M 67.5 155 L 69.5 158 L 67.5 155 Z " /><path fill="rgb(231,60,81)" stroke="rgb(231,60,81)" stroke-width="1" opacity="1" d="M 157.5 155 L 154.5 159 L 157.5 155 Z " /><path fill="rgb(231,60,81)" stroke="rgb(231,60,81)" stroke-width="1" opacity="1" d="M 183.5 155 L 182.5 157 L 183.5 155 Z " /><path fill="rgb(231,60,81)" stroke="rgb(231,60,81)" stroke-width="1" opacity="1" d="M 43.5 158 L 44.5 160 L 43.5 158 Z " /><path fill="rgb(231,60,81)" stroke="rgb(231,60,81)" stroke-width="1" opacity="1" d="M 181.5 158 L 180.5 160 L 181.5 158 Z " /><path fill="rgb(231,60,81)" stroke="rgb(231,60,81)" stroke-width="1" opacity="1" d="M 45.5 161 L 46.5 163 L 45.5 161 Z " /><path fill="rgb(231,60,81)" stroke="rgb(231,60,81)" stroke-width="1" opacity="1" d="M 179.5 161 L 178.5 163 L 179.5 161 Z " /><path fill="rgb(231,60,81)" stroke="rgb(231,60,81)" stroke-width="1" opacity="1" d="M 49.5 166 L 58.5 176 L 49.5 166 Z " /><path fill="rgb(231,60,81)" stroke="rgb(231,60,81)" stroke-width="1" opacity="1" d="M 175.5 166 L 166.5 176 L 175.5 166 Z " /><path fill="rgb(231,60,81)" stroke="rgb(231,60,81)" stroke-width="1" opacity="1" d="M 15.5 169 L 16.5 171 L 15.5 169 Z " /><path fill="rgb(231,60,81)" stroke="rgb(231,60,81)" stroke-width="1" opacity="1" d="M 21.5 178 L 22.5 180 L 21.5 178 Z " /><path fill="rgb(231,60,81)" stroke="rgb(231,60,81)" stroke-width="1" opacity="1" d="M 62.5 178 L 63.5 180 L 62.5 178 Z " /><path fill="rgb(231,60,81)" stroke="rgb(231,60,81)" stroke-width="1" opacity="1" d="M 162.5 178 L 161.5 180 L 162.5 178 Z " /><path fill="rgb(231,60,81)" stroke="rgb(231,60,81)" stroke-width="1" opacity="1" d="M 203.5 178 L 202.5 180 L 203.5 178 Z " /><path fill="rgb(231,60,81)" stroke="rgb(231,60,81)" stroke-width="1" opacity="1" d="M 65.5 180 L 66.5 182 L 65.5 180 Z " /><path fill="rgb(231,60,81)" stroke="rgb(231,60,81)" stroke-width="1" opacity="1" d="M 159.5 180 L 158.5 182 L 159.5 180 Z " /><path fill="rgb(231,60,81)" stroke="rgb(231,60,81)" stroke-width="1" opacity="1" d="M 24.5 182 L 26.5 185 L 24.5 182 Z " /><path fill="rgb(231,60,81)" stroke="rgb(231,60,81)" stroke-width="1" opacity="1" d="M 68.5 182 L 69.5 184 L 68.5 182 Z " /><path fill="rgb(231,60,81)" stroke="rgb(231,60,81)" stroke-width="1" opacity="1" d="M 156.5 182 L 155.5 184 L 156.5 182 Z " /><path fill="rgb(231,60,81)" stroke="rgb(231,60,81)" stroke-width="1" opacity="1" d="M 200.5 182 L 198.5 185 L 200.5 182 Z " /><path fill="rgb(231,60,81)" stroke="rgb(231,60,81)" stroke-width="1" opacity="1" d="M 30.5 189 L 35.5 195 L 30.5 189 Z " /><path fill="rgb(231,60,81)" stroke="rgb(231,60,81)" stroke-width="1" opacity="1" d="M 194.5 189 L 189.5 195 L 194.5 189 Z " /><path fill="rgb(231,60,81)" stroke="rgb(231,60,81)" stroke-width="1" opacity="1" d="M 99.5 194 L 102 194.5 L 99.5 195 L 99.5 194 Z " /><path fill="rgb(231,60,81)" stroke="rgb(231,60,81)" stroke-width="1" opacity="1" d="M 122.5 194 L 126 194.5 L 122.5 195 L 122.5 194 Z " /><path fill="rgb(231,60,81)" stroke="rgb(231,60,81)" stroke-width="1" opacity="1" d="M 40.5 198 L 42.5 201 L 40.5 198 Z " /><path fill="rgb(231,60,81)" stroke="rgb(231,60,81)" stroke-width="1" opacity="1" d="M 184.5 198 L 182.5 201 L 184.5 198 Z " /><path fill="rgb(231,60,81)" stroke="rgb(231,60,81)" stroke-width="1" opacity="1" d="M 45.5 202 L 46.5 204 L 45.5 202 Z " /><path fill="rgb(231,60,81)" stroke="rgb(231,60,81)" stroke-width="1" opacity="1" d="M 179.5 202 L 178.5 204 L 179.5 202 Z " /><path fill="rgb(231,60,81)" stroke="rgb(231,60,81)" stroke-width="1" opacity="1" d="M 95.5 223 L 98 223.5 L 95.5 224 L 95.5 223 Z " /><path fill="rgb(231,60,81)" stroke="rgb(231,60,81)" stroke-width="1" opacity="1" d="M 127.5 223 L 130 223.5 L 127.5 224 L 127.5 223 Z " /><path fill="rgb(231,60,81)" stroke="rgb(231,60,81)" stroke-width="1" opacity="1" d="M 103.5 224 L 110 224.5 L 103.5 225 L 103.5 224 Z " /><path fill="rgb(231,60,81)" stroke="rgb(231,60,81)" stroke-width="1" opacity="1" d="M 115.5 224 L 122 224.5 L 115.5 225 L 115.5 224 Z " /><path fill="rgb(247,232,233)" stroke="rgb(247,232,233)" stroke-width="1" opacity="1" d="M 97.5 0 L 103 0.5 L 97.5 1 L 97.5 0 Z " /><path fill="rgb(247,232,233)" stroke="rgb(247,232,233)" stroke-width="1" opacity="1" d="M 122.5 0 L 128 0.5 L 122.5 1 L 122.5 0 Z " /><path fill="rgb(247,232,233)" stroke="rgb(247,232,233)" stroke-width="1" opacity="1" d="M 91.5 1 L 94 1.5 L 91.5 2 L 91.5 1 Z " /><path fill="rgb(247,232,233)" stroke="rgb(247,232,233)" stroke-width="1" opacity="1" d="M 131.5 1 L 134 1.5 L 131.5 2 L 131.5 1 Z " /><path fill="rgb(247,232,233)" stroke="rgb(247,232,233)" stroke-width="1" opacity="1" d="M 54.5 15 L 53.5 17 L 54.5 15 Z " /><path fill="rgb(247,232,233)" stroke="rgb(247,232,233)" stroke-width="1" opacity="1" d="M 170.5 15 L 171.5 17 L 170.5 15 Z " /><path fill="rgb(247,232,233)" stroke="rgb(247,232,233)" stroke-width="1" opacity="1" d="M 51.5 17 L 50.5 19 L 51.5 17 Z " /><path fill="rgb(247,232,233)" stroke="rgb(247,232,233)" stroke-width="1" opacity="1" d="M 173.5 17 L 174.5 19 L 173.5 17 Z " /><path fill="rgb(247,232,233)" stroke="rgb(247,232,233)" stroke-width="1" opacity="1" d="M 48.5 19 L 47.5 21 L 48.5 19 Z " /><path fill="rgb(247,232,233)" stroke="rgb(247,232,233)" stroke-width="1" opacity="1" d="M 176.5 19 L 177.5 21 L 176.5 19 Z " /><path fill="rgb(247,232,233)" stroke="rgb(247,232,233)" stroke-width="1" opacity="1" d="M 45.5 21 L 43.5 24 L 45.5 21 Z " /><path fill="rgb(247,232,233)" stroke="rgb(247,232,233)" stroke-width="1" opacity="1" d="M 179.5 21 L 181.5 24 L 179.5 21 Z " /><path fill="rgb(247,232,233)" stroke="rgb(247,232,233)" stroke-width="1" opacity="1" d="M 40.5 25 L 36.5 30 L 40.5 25 Z " /><path fill="rgb(247,232,233)" stroke="rgb(247,232,233)" stroke-width="1" opacity="1" d="M 184.5 25 L 188.5 30 L 184.5 25 Z " /><path fill="rgb(247,232,233)" stroke="rgb(247,232,233)" stroke-width="1" opacity="1" d="M 103.5 30 L 109 30.5 L 103.5 31 L 103.5 30 Z " /><path fill="rgb(247,232,233)" stroke="rgb(247,232,233)" stroke-width="1" opacity="1" d="M 117.5 30 L 123 30.5 L 117.5 31 L 117.5 30 Z " /><path fill="rgb(247,232,233)" stroke="rgb(247,232,233)" stroke-width="1" opacity="1" d="M 96.5 31 L 100 31.5 L 96.5 32 L 96.5 31 Z " /><path fill="rgb(247,232,233)" stroke="rgb(247,232,233)" stroke-width="1" opacity="1" d="M 126.5 31 L 129 31.5 L 126.5 32 L 126.5 31 Z " /><path fill="rgb(247,232,233)" stroke="rgb(247,232,233)" stroke-width="1" opacity="1" d="M 29.5 36 L 25.5 41 L 29.5 36 Z " /><path fill="rgb(247,232,233)" stroke="rgb(247,232,233)" stroke-width="1" opacity="1" d="M 195.5 36 L 199.5 41 L 195.5 36 Z " /><path fill="rgb(247,232,233)" stroke="rgb(247,232,233)" stroke-width="1" opacity="1" d="M 23.5 43 L 21.5 46 L 23.5 43 Z " /><path fill="rgb(247,232,233)" stroke="rgb(247,232,233)" stroke-width="1" opacity="1" d="M 201.5 43 L 203.5 46 L 201.5 43 Z " /><path fill="rgb(247,232,233)" stroke="rgb(247,232,233)" stroke-width="1" opacity="1" d="M 64.5 45 L 63.5 47 L 64.5 45 Z " /><path fill="rgb(247,232,233)" stroke="rgb(247,232,233)" stroke-width="1" opacity="1" d="M 160.5 45 L 161.5 47 L 160.5 45 Z " /><path fill="rgb(247,232,233)" stroke="rgb(247,232,233)" stroke-width="1" opacity="1" d="M 20.5 47 L 19.5 49 L 20.5 47 Z " /><path fill="rgb(247,232,233)" stroke="rgb(247,232,233)" stroke-width="1" opacity="1" d="M 61.5 47 L 58.5 51 L 61.5 47 Z " /><path fill="rgb(247,232,233)" stroke="rgb(247,232,233)" stroke-width="1" opacity="1" d="M 163.5 47 L 166.5 51 L 163.5 47 Z " /><path fill="rgb(247,232,233)" stroke="rgb(247,232,233)" stroke-width="1" opacity="1" d="M 204.5 47 L 205.5 49 L 204.5 47 Z " /><path fill="rgb(247,232,233)" stroke="rgb(247,232,233)" stroke-width="1" opacity="1" d="M 18.5 50 L 17.5 52 L 18.5 50 Z " /><path fill="rgb(247,232,233)" stroke="rgb(247,232,233)" stroke-width="1" opacity="1" d="M 206.5 50 L 207.5 52 L 206.5 50 Z " /><path fill="rgb(247,232,233)" stroke="rgb(247,232,233)" stroke-width="1" opacity="1" d="M 16.5 53 L 15.5 55 L 16.5 53 Z " /><path fill="rgb(247,232,233)" stroke="rgb(247,232,233)" stroke-width="1" opacity="1" d="M 50.5 58 L 47.5 62 L 50.5 58 Z " /><path fill="rgb(247,232,233)" stroke="rgb(247,232,233)" stroke-width="1" opacity="1" d="M 174.5 58 L 177.5 62 L 174.5 58 Z " /><path fill="rgb(247,232,233)" stroke="rgb(247,232,233)" stroke-width="1" opacity="1" d="M 80.5 61 L 89 61.5 L 80.5 62 L 80.5 61 Z " /><path fill="rgb(247,232,233)" stroke="rgb(247,232,233)" stroke-width="1" opacity="1" d="M 136.5 61 L 145 61.5 L 136.5 62 L 136.5 61 Z " /><path fill="rgb(247,232,233)" stroke="rgb(247,232,233)" stroke-width="1" opacity="1" d="M 46.5 63 L 45.5 65 L 46.5 63 Z " /><path fill="rgb(247,232,233)" stroke="rgb(247,232,233)" stroke-width="1" opacity="1" d="M 74.5 63 L 73.5 65 L 74.5 63 Z " /><path fill="rgb(247,232,233)" stroke="rgb(247,232,233)" stroke-width="1" opacity="1" d="M 150.5 63 L 151.5 65 L 150.5 63 Z " /><path fill="rgb(247,232,233)" stroke="rgb(247,232,233)" stroke-width="1" opacity="1" d="M 178.5 63 L 179.5 65 L 178.5 63 Z " /><path fill="rgb(247,232,233)" stroke="rgb(247,232,233)" stroke-width="1" opacity="1" d="M 71.5 65 L 70.5 67 L 71.5 65 Z " /><path fill="rgb(247,232,233)" stroke="rgb(247,232,233)" stroke-width="1" opacity="1" d="M 99.5 66 L 103.5 71 L 99.5 66 Z " /><path fill="rgb(247,232,233)" stroke="rgb(247,232,233)" stroke-width="1" opacity="1" d="M 125.5 66 L 121.5 71 L 125.5 66 Z " /><path fill="rgb(247,232,233)" stroke="rgb(247,232,233)" stroke-width="1" opacity="1" d="M 66.5 70 L 65.5 72 L 66.5 70 Z " /><path fill="rgb(247,232,233)" stroke="rgb(247,232,233)" stroke-width="1" opacity="1" d="M 158.5 70 L 159.5 72 L 158.5 70 Z " /><path fill="rgb(247,232,233)" stroke="rgb(247,232,233)" stroke-width="1" opacity="1" d="M 104.5 72 L 105.5 74 L 104.5 72 Z " /><path fill="rgb(247,232,233)" stroke="rgb(247,232,233)" stroke-width="1" opacity="1" d="M 120.5 72 L 119.5 74 L 120.5 72 Z " /><path fill="rgb(247,232,233)" stroke="rgb(247,232,233)" stroke-width="1" opacity="1" d="M 64.5 73 L 64 74.5 L 63.5 76 L 63 74.5 L 64.5 73 Z " /><path fill="rgb(247,232,233)" stroke="rgb(247,232,233)" stroke-width="1" opacity="1" d="M 160.5 73 L 161.5 75 L 160.5 73 Z " /><path fill="rgb(247,232,233)" stroke="rgb(247,232,233)" stroke-width="1" opacity="1" d="M 163.5 80 L 164 88.5 L 163 88.5 L 163.5 80 Z " /><path fill="rgb(247,232,233)" stroke="rgb(247,232,233)" stroke-width="1" opacity="1" d="M 61.5 81 L 62 88.5 L 61 88.5 L 61.5 81 Z " /><path fill="rgb(247,232,233)" stroke="rgb(247,232,233)" stroke-width="1" opacity="1" d="M 1.5 91 L 2 93.5 L 1 93.5 L 1.5 91 Z " /><path fill="rgb(247,232,233)" stroke="rgb(247,232,233)" stroke-width="1" opacity="1" d="M 223.5 91 L 224 94.5 L 223 94.5 L 223.5 91 Z " /><path fill="rgb(247,232,233)" stroke="rgb(247,232,233)" stroke-width="1" opacity="1" d="M 31.5 96 L 32 98.5 L 31 98.5 L 31.5 96 Z " /><path fill="rgb(247,232,233)" stroke="rgb(247,232,233)" stroke-width="1" opacity="1" d="M 193.5 96 L 194 98.5 L 193 98.5 L 193.5 96 Z " /><path fill="rgb(247,232,233)" stroke="rgb(247,232,233)" stroke-width="1" opacity="1" d="M 0.5 97 L 1 102.5 L 0 102.5 L 0.5 97 Z " /><path fill="rgb(247,232,233)" stroke="rgb(247,232,233)" stroke-width="1" opacity="1" d="M 104.5 97 L 103.5 99 L 104.5 97 Z " /><path fill="rgb(247,232,233)" stroke="rgb(247,232,233)" stroke-width="1" opacity="1" d="M 120.5 97 L 121.5 99 L 120.5 97 Z " /><path fill="rgb(247,232,233)" stroke="rgb(247,232,233)" stroke-width="1" opacity="1" d="M 224.5 97 L 225 102.5 L 224 102.5 L 224.5 97 Z " /><path fill="rgb(247,232,233)" stroke="rgb(247,232,233)" stroke-width="1" opacity="1" d="M 66.5 99 L 70.5 104 L 66.5 99 Z " /><path fill="rgb(247,232,233)" stroke="rgb(247,232,233)" stroke-width="1" opacity="1" d="M 158.5 99 L 154.5 104 L 158.5 99 Z " /><path fill="rgb(247,232,233)" stroke="rgb(247,232,233)" stroke-width="1" opacity="1" d="M 30.5 102 L 31 107.5 L 30 107.5 L 30.5 102 Z " /><path fill="rgb(247,232,233)" stroke="rgb(247,232,233)" stroke-width="1" opacity="1" d="M 98.5 103 L 97.5 105 L 98.5 103 Z " /><path fill="rgb(247,232,233)" stroke="rgb(247,232,233)" stroke-width="1" opacity="1" d="M 126.5 103 L 127.5 105 L 126.5 103 Z " /><path fill="rgb(247,232,233)" stroke="rgb(247,232,233)" stroke-width="1" opacity="1" d="M 194.5 103 L 195 107.5 L 194 107.5 L 194.5 103 Z " /><path fill="rgb(247,232,233)" stroke="rgb(247,232,233)" stroke-width="1" opacity="1" d="M 152.5 104 L 151.5 106 L 152.5 104 Z " /><path fill="rgb(247,232,233)" stroke="rgb(247,232,233)" stroke-width="1" opacity="1" d="M 194.5 116 L 195 122.5 L 194 122.5 L 194.5 116 Z " /><path fill="rgb(247,232,233)" stroke="rgb(247,232,233)" stroke-width="1" opacity="1" d="M 30.5 117 L 31 121.5 L 30 121.5 L 30.5 117 Z " /><path fill="rgb(247,232,233)" stroke="rgb(247,232,233)" stroke-width="1" opacity="1" d="M 151.5 119 L 152.5 121 L 151.5 119 Z " /><path fill="rgb(247,232,233)" stroke="rgb(247,232,233)" stroke-width="1" opacity="1" d="M 97.5 120 L 98.5 122 L 97.5 120 Z " /><path fill="rgb(247,232,233)" stroke="rgb(247,232,233)" stroke-width="1" opacity="1" d="M 127.5 120 L 126.5 122 L 127.5 120 Z " /><path fill="rgb(247,232,233)" stroke="rgb(247,232,233)" stroke-width="1" opacity="1" d="M 70.5 121 L 66.5 126 L 70.5 121 Z " /><path fill="rgb(247,232,233)" stroke="rgb(247,232,233)" stroke-width="1" opacity="1" d="M 154.5 121 L 158.5 126 L 154.5 121 Z " /><path fill="rgb(247,232,233)" stroke="rgb(247,232,233)" stroke-width="1" opacity="1" d="M 0.5 122 L 1 127.5 L 0 127.5 L 0.5 122 Z " /><path fill="rgb(247,232,233)" stroke="rgb(247,232,233)" stroke-width="1" opacity="1" d="M 224.5 122 L 225 127.5 L 224 127.5 L 224.5 122 Z " /><path fill="rgb(247,232,233)" stroke="rgb(247,232,233)" stroke-width="1" opacity="1" d="M 31.5 126 L 32 128.5 L 31 128.5 L 31.5 126 Z " /><path fill="rgb(247,232,233)" stroke="rgb(247,232,233)" stroke-width="1" opacity="1" d="M 103.5 126 L 104.5 128 L 103.5 126 Z " /><path fill="rgb(247,232,233)" stroke="rgb(247,232,233)" stroke-width="1" opacity="1" d="M 121.5 126 L 120.5 128 L 121.5 126 Z " /><path fill="rgb(247,232,233)" stroke="rgb(247,232,233)" stroke-width="1" opacity="1" d="M 193.5 126 L 194 128.5 L 193 128.5 L 193.5 126 Z " /><path fill="rgb(247,232,233)" stroke="rgb(247,232,233)" stroke-width="1" opacity="1" d="M 223.5 130 L 224 133.5 L 223 133.5 L 223.5 130 Z " /><path fill="rgb(247,232,233)" stroke="rgb(247,232,233)" stroke-width="1" opacity="1" d="M 1.5 131 L 2 133.5 L 1 133.5 L 1.5 131 Z " /><path fill="rgb(247,232,233)" stroke="rgb(247,232,233)" stroke-width="1" opacity="1" d="M 163.5 135 L 164 144.5 L 163 144.5 L 163.5 135 Z " /><path fill="rgb(247,232,233)" stroke="rgb(247,232,233)" stroke-width="1" opacity="1" d="M 61.5 136 L 62 144.5 L 61 144.5 L 61.5 136 Z " /><path fill="rgb(247,232,233)" stroke="rgb(247,232,233)" stroke-width="1" opacity="1" d="M 63.5 149 L 65 151.5 L 63 150.5 L 63.5 149 Z " /><path fill="rgb(247,232,233)" stroke="rgb(247,232,233)" stroke-width="1" opacity="1" d="M 161.5 150 L 160.5 152 L 161.5 150 Z " /><path fill="rgb(247,232,233)" stroke="rgb(247,232,233)" stroke-width="1" opacity="1" d="M 105.5 151 L 104.5 153 L 105.5 151 Z " /><path fill="rgb(247,232,233)" stroke="rgb(247,232,233)" stroke-width="1" opacity="1" d="M 119.5 151 L 120.5 153 L 119.5 151 Z " /><path fill="rgb(247,232,233)" stroke="rgb(247,232,233)" stroke-width="1" opacity="1" d="M 65.5 153 L 66.5 155 L 65.5 153 Z " /><path fill="rgb(247,232,233)" stroke="rgb(247,232,233)" stroke-width="1" opacity="1" d="M 159.5 153 L 158.5 155 L 159.5 153 Z " /><path fill="rgb(247,232,233)" stroke="rgb(247,232,233)" stroke-width="1" opacity="1" d="M 103.5 154 L 99.5 159 L 103.5 154 Z " /><path fill="rgb(247,232,233)" stroke="rgb(247,232,233)" stroke-width="1" opacity="1" d="M 121.5 154 L 125.5 159 L 121.5 154 Z " /><path fill="rgb(247,232,233)" stroke="rgb(247,232,233)" stroke-width="1" opacity="1" d="M 70.5 158 L 71.5 160 L 70.5 158 Z " /><path fill="rgb(247,232,233)" stroke="rgb(247,232,233)" stroke-width="1" opacity="1" d="M 45.5 160 L 46.5 162 L 45.5 160 Z " /><path fill="rgb(247,232,233)" stroke="rgb(247,232,233)" stroke-width="1" opacity="1" d="M 73.5 160 L 76 161.5 L 74.5 162 L 73.5 160 Z " /><path fill="rgb(247,232,233)" stroke="rgb(247,232,233)" stroke-width="1" opacity="1" d="M 151.5 160 L 150.5 162 L 151.5 160 Z " /><path fill="rgb(247,232,233)" stroke="rgb(247,232,233)" stroke-width="1" opacity="1" d="M 179.5 160 L 178.5 162 L 179.5 160 Z " /><path fill="rgb(247,232,233)" stroke="rgb(247,232,233)" stroke-width="1" opacity="1" d="M 47.5 163 L 50.5 167 L 47.5 163 Z " /><path fill="rgb(247,232,233)" stroke="rgb(247,232,233)" stroke-width="1" opacity="1" d="M 80.5 163 L 89 163.5 L 80.5 164 L 80.5 163 Z " /><path fill="rgb(247,232,233)" stroke="rgb(247,232,233)" stroke-width="1" opacity="1" d="M 136.5 163 L 145 163.5 L 136.5 164 L 136.5 163 Z " /><path fill="rgb(247,232,233)" stroke="rgb(247,232,233)" stroke-width="1" opacity="1" d="M 177.5 163 L 174.5 167 L 177.5 163 Z " /><path fill="rgb(247,232,233)" stroke="rgb(247,232,233)" stroke-width="1" opacity="1" d="M 15.5 170 L 16.5 172 L 15.5 170 Z " /><path fill="rgb(247,232,233)" stroke="rgb(247,232,233)" stroke-width="1" opacity="1" d="M 209.5 170 L 208.5 172 L 209.5 170 Z " /><path fill="rgb(247,232,233)" stroke="rgb(247,232,233)" stroke-width="1" opacity="1" d="M 17.5 173 L 18.5 175 L 17.5 173 Z " /><path fill="rgb(247,232,233)" stroke="rgb(247,232,233)" stroke-width="1" opacity="1" d="M 207.5 173 L 206.5 175 L 207.5 173 Z " /><path fill="rgb(247,232,233)" stroke="rgb(247,232,233)" stroke-width="1" opacity="1" d="M 58.5 174 L 61.5 178 L 58.5 174 Z " /><path fill="rgb(247,232,233)" stroke="rgb(247,232,233)" stroke-width="1" opacity="1" d="M 166.5 174 L 163.5 178 L 166.5 174 Z " /><path fill="rgb(247,232,233)" stroke="rgb(247,232,233)" stroke-width="1" opacity="1" d="M 19.5 176 L 20.5 178 L 19.5 176 Z " /><path fill="rgb(247,232,233)" stroke="rgb(247,232,233)" stroke-width="1" opacity="1" d="M 205.5 176 L 204.5 178 L 205.5 176 Z " /><path fill="rgb(247,232,233)" stroke="rgb(247,232,233)" stroke-width="1" opacity="1" d="M 63.5 178 L 64.5 180 L 63.5 178 Z " /><path fill="rgb(247,232,233)" stroke="rgb(247,232,233)" stroke-width="1" opacity="1" d="M 161.5 178 L 160.5 180 L 161.5 178 Z " /><path fill="rgb(247,232,233)" stroke="rgb(247,232,233)" stroke-width="1" opacity="1" d="M 203.5 179 L 201.5 182 L 203.5 179 Z " /><path fill="rgb(247,232,233)" stroke="rgb(247,232,233)" stroke-width="1" opacity="1" d="M 22.5 180 L 23.5 182 L 22.5 180 Z " /><path fill="rgb(247,232,233)" stroke="rgb(247,232,233)" stroke-width="1" opacity="1" d="M 25.5 184 L 29.5 189 L 25.5 184 Z " /><path fill="rgb(247,232,233)" stroke="rgb(247,232,233)" stroke-width="1" opacity="1" d="M 199.5 184 L 195.5 189 L 199.5 184 Z " /><path fill="rgb(247,232,233)" stroke="rgb(247,232,233)" stroke-width="1" opacity="1" d="M 96.5 193 L 99 193.5 L 96.5 194 L 96.5 193 Z " /><path fill="rgb(247,232,233)" stroke="rgb(247,232,233)" stroke-width="1" opacity="1" d="M 126.5 193 L 129 193.5 L 126.5 194 L 126.5 193 Z " /><path fill="rgb(247,232,233)" stroke="rgb(247,232,233)" stroke-width="1" opacity="1" d="M 102.5 194 L 108 194.5 L 102.5 195 L 102.5 194 Z " /><path fill="rgb(247,232,233)" stroke="rgb(247,232,233)" stroke-width="1" opacity="1" d="M 116.5 194 L 122 194.5 L 116.5 195 L 116.5 194 Z " /><path fill="rgb(247,232,233)" stroke="rgb(247,232,233)" stroke-width="1" opacity="1" d="M 36.5 195 L 40.5 200 L 36.5 195 Z " /><path fill="rgb(247,232,233)" stroke="rgb(247,232,233)" stroke-width="1" opacity="1" d="M 188.5 195 L 184.5 200 L 188.5 195 Z " /><path fill="rgb(247,232,233)" stroke="rgb(247,232,233)" stroke-width="1" opacity="1" d="M 43.5 201 L 45.5 204 L 43.5 201 Z " /><path fill="rgb(247,232,233)" stroke="rgb(247,232,233)" stroke-width="1" opacity="1" d="M 181.5 201 L 179.5 204 L 181.5 201 Z " /><path fill="rgb(247,232,233)" stroke="rgb(247,232,233)" stroke-width="1" opacity="1" d="M 47.5 204 L 48.5 206 L 47.5 204 Z " /><path fill="rgb(247,232,233)" stroke="rgb(247,232,233)" stroke-width="1" opacity="1" d="M 177.5 204 L 176.5 206 L 177.5 204 Z " /><path fill="rgb(247,232,233)" stroke="rgb(247,232,233)" stroke-width="1" opacity="1" d="M 50.5 206 L 51.5 208 L 50.5 206 Z " /><path fill="rgb(247,232,233)" stroke="rgb(247,232,233)" stroke-width="1" opacity="1" d="M 174.5 206 L 173.5 208 L 174.5 206 Z " /><path fill="rgb(247,232,233)" stroke="rgb(247,232,233)" stroke-width="1" opacity="1" d="M 53.5 208 L 54.5 210 L 53.5 208 Z " /><path fill="rgb(247,232,233)" stroke="rgb(247,232,233)" stroke-width="1" opacity="1" d="M 171.5 208 L 170.5 210 L 171.5 208 Z " /><path fill="rgb(247,232,233)" stroke="rgb(247,232,233)" stroke-width="1" opacity="1" d="M 91.5 223 L 95 223.5 L 91.5 224 L 91.5 223 Z " /><path fill="rgb(247,232,233)" stroke="rgb(247,232,233)" stroke-width="1" opacity="1" d="M 130.5 223 L 134 223.5 L 130.5 224 L 130.5 223 Z " /><path fill="rgb(247,232,233)" stroke="rgb(247,232,233)" stroke-width="1" opacity="1" d="M 97.5 224 L 103 224.5 L 97.5 225 L 97.5 224 Z " /><path fill="rgb(247,232,233)" stroke="rgb(247,232,233)" stroke-width="1" opacity="1" d="M 122.5 224 L 128 224.5 L 122.5 225 L 122.5 224 Z " /><path fill="rgb(254,255,255)" stroke="rgb(254,255,255)" stroke-width="1" opacity="1" d="M 86.5 0 L 94 0.5 L 86.5 3 L 84 2.5 L 86.5 0 Z " /><path fill="rgb(254,255,255)" stroke="rgb(254,255,255)" stroke-width="1" opacity="1" d="M 131.5 0 Q 139.1 -1.5 138 2 L 131.5 1 L 131.5 0 Z " /><path fill="rgb(254,255,255)" stroke="rgb(254,255,255)" stroke-width="1" opacity="1" d="M 140.5 0 L 141 2.5 L 140 2.5 L 140.5 0 Z " /><path fill="rgb(254,255,255)" stroke="rgb(254,255,255)" stroke-width="1" opacity="1" d="M 75 3 L 83 3.5 L 78.5 5 L 77.5 4 L 75 5.5 L 75 3 Z " /><path fill="rgb(254,255,255)" stroke="rgb(254,255,255)" stroke-width="1" opacity="1" d="M 142.5 3 L 149.5 3 L 150 5.5 L 145.5 4 Q 141.5 4.8 142.5 3 Z " /><path fill="rgb(254,255,255)" stroke="rgb(254,255,255)" stroke-width="1" opacity="1" d="M 66.5 6 L 73 6.5 L 67.5 9 L 66.5 6 Z " /><path fill="rgb(254,255,255)" stroke="rgb(254,255,255)" stroke-width="1" opacity="1" d="M 152.5 6 L 159 6.5 L 157.5 9 L 152.5 7 L 152.5 6 Z " /><path fill="rgb(254,255,255)" stroke="rgb(254,255,255)" stroke-width="1" opacity="1" d="M 60 9 Q 65.2 7.3 64 11 L 61.5 12 L 60 9 Z " /><path fill="rgb(254,255,255)" stroke="rgb(254,255,255)" stroke-width="1" opacity="1" d="M 161 9 L 165 9 L 165 10.5 Q 163.8 13.3 162.5 11 Q 159.9 11.7 161 9 Z " /><path fill="rgb(254,255,255)" stroke="rgb(254,255,255)" stroke-width="1" opacity="1" d="M 54 12 L 60 12.5 L 51 17 Q 49.9 13.7 54 15 L 54 12 Z " /><path fill="rgb(254,255,255)" stroke="rgb(254,255,255)" stroke-width="1" opacity="1" d="M 165.5 12 L 171 12 L 171 15 Q 175.1 13.7 174 17 L 165.5 13 L 165.5 12 Z " /><path fill="rgb(254,255,255)" stroke="rgb(254,255,255)" stroke-width="1" opacity="1" d="M 46.5 18 L 50 18.5 L 41.5 25 L 42 23.5 L 42 21 Q 45.7 22.5 45 19.5 L 46.5 18 Z " /><path fill="rgb(254,255,255)" stroke="rgb(254,255,255)" stroke-width="1" opacity="1" d="M 175.5 18 Q 179.3 17.3 180 19.5 L 180 21 L 183 21 L 183 24 Q 186.8 22.5 186 25.5 L 184.5 25 L 175.5 19 L 175.5 18 Z " /><path fill="rgb(254,255,255)" stroke="rgb(254,255,255)" stroke-width="1" opacity="1" d="M 37.5 27 L 36.5 29 L 37.5 27 Z " /><path fill="rgb(254,255,255)" stroke="rgb(254,255,255)" stroke-width="1" opacity="1" d="M 187.5 27 Q 189.8 26.3 189 28.5 L 187.5 27 Z " /><path fill="rgb(254,255,255)" stroke="rgb(254,255,255)" stroke-width="1" opacity="1" d="M 32.5 30 L 35 30.5 Q 32.9 33.8 32.5 30 Z " /><path fill="rgb(254,255,255)" stroke="rgb(254,255,255)" stroke-width="1" opacity="1" d="M 109.5 30 L 114.5 31 L 116.5 30 L 121.5 32 L 123.5 31 L 127 32.5 L 121.5 33 L 119.5 33 L 115.5 32 L 113.5 32 L 105.5 33 L 103.5 33 L 98 32.5 L 102.5 31 L 104.5 31 L 109.5 30 Z " /><path fill="rgb(254,255,255)" stroke="rgb(254,255,255)" stroke-width="1" opacity="1" d="M 190.5 30 L 193 30.5 Q 190.7 31.7 193.5 33 L 195 32.5 L 194.5 35 L 190.5 30 Z " /><path fill="rgb(254,255,255)" stroke="rgb(254,255,255)" stroke-width="1" opacity="1" d="M 30.5 32 Q 33.5 33.5 30.5 35 L 30.5 32 Z " /><path fill="rgb(254,255,255)" stroke="rgb(254,255,255)" stroke-width="1" opacity="1" d="M 87.5 34 Q 91.3 33 90 36 L 84 35.5 L 87.5 34 Z " /><path fill="rgb(254,255,255)" stroke="rgb(254,255,255)" stroke-width="1" opacity="1" d="M 136.5 34 L 140 35.5 L 137.5 36 L 135 35.5 L 136.5 34 Z " /><path fill="rgb(254,255,255)" stroke="rgb(254,255,255)" stroke-width="1" opacity="1" d="M 27 36 L 29 36.5 L 27 37.5 L 27 36 Z " /><path fill="rgb(254,255,255)" stroke="rgb(254,255,255)" stroke-width="1" opacity="1" d="M 81.5 36 L 81.5 39 L 77 38.5 L 81.5 36 Z " /><path fill="rgb(254,255,255)" stroke="rgb(254,255,255)" stroke-width="1" opacity="1" d="M 143.5 36 L 148 38.5 L 143.5 39 L 143.5 36 Z " /><path fill="rgb(254,255,255)" stroke="rgb(254,255,255)" stroke-width="1" opacity="1" d="M 196.5 36 L 197.5 38 L 196.5 36 Z " /><path fill="rgb(254,255,255)" stroke="rgb(254,255,255)" stroke-width="1" opacity="1" d="M 24 39 L 26 39.5 L 18.5 50 L 18 46.5 L 21 45 L 21 42 Q 25.5 43.5 24 39 Z " /><path fill="rgb(254,255,255)" stroke="rgb(254,255,255)" stroke-width="1" opacity="1" d="M 199.5 39 L 201 39 L 201 42 L 204 42 Q 202.5 45.7 205.5 45 Q 207.8 45.8 207 49.5 L 206 49.5 L 199.5 39 Z " /><path fill="rgb(254,255,255)" stroke="rgb(254,255,255)" stroke-width="1" opacity="1" d="M 73.5 40 Q 76.1 39.3 75 42 L 66.5 45 L 66.5 44 L 73.5 40 Z " /><path fill="rgb(254,255,255)" stroke="rgb(254,255,255)" stroke-width="1" opacity="1" d="M 150 40 L 159 44.5 L 156.5 45 L 153 43.5 L 153.5 42 Q 148.7 43.3 150 40 Z " /><path fill="rgb(254,255,255)" stroke="rgb(254,255,255)" stroke-width="1" opacity="1" d="M 64.5 46 Q 67.1 45.3 66 48 L 63 48 Q 64.5 51.7 61.5 51 Q 60.3 48.8 59 51.5 L 57 54.5 L 55 53.5 L 64.5 46 Z " /><path fill="rgb(254,255,255)" stroke="rgb(254,255,255)" stroke-width="1" opacity="1" d="M 159 46 L 162.5 47 L 170 53.5 L 168 54.5 L 167.5 53 Q 166.3 55.3 165 52.5 L 165 51 Q 161.2 52.5 162 49.5 L 162.5 48 Q 157.7 49.3 159 46 Z " /><path fill="rgb(254,255,255)" stroke="rgb(254,255,255)" stroke-width="1" opacity="1" d="M 209.5 51 L 210 54 Q 215.3 52.2 213 59.5 L 212 59.5 L 208 52.5 L 209.5 51 Z " /><path fill="rgb(254,255,255)" stroke="rgb(254,255,255)" stroke-width="1" opacity="1" d="M 15 52 L 17 52.5 L 12.5 60 L 12 54 Q 16.1 55.3 15 52 Z " /><path fill="rgb(254,255,255)" stroke="rgb(254,255,255)" stroke-width="1" opacity="1" d="M 53.5 55 L 54.5 57 L 53 57.5 Q 55.3 58.8 52.5 60 L 51 59.5 L 51 63 L 48 63 Q 49.3 67.1 46 66 L 47 62.5 L 53.5 55 Z " /><path fill="rgb(254,255,255)" stroke="rgb(254,255,255)" stroke-width="1" opacity="1" d="M 171.5 55 L 178 62.5 L 179 66 Q 175.7 67.1 177 63 L 174 63 L 174 59 Q 170.2 60.5 171 57.5 Q 168.8 56.3 171.5 55 Z " /><path fill="rgb(254,255,255)" stroke="rgb(254,255,255)" stroke-width="1" opacity="1" d="M 9 60 L 12 61.5 L 11 64 Q 7.3 65.2 9 60 Z " /><path fill="rgb(254,255,255)" stroke="rgb(254,255,255)" stroke-width="1" opacity="1" d="M 75 60 L 82 60.5 L 75 63 L 75 60 Z " /><path fill="rgb(254,255,255)" stroke="rgb(254,255,255)" stroke-width="1" opacity="1" d="M 86.5 60 Q 93.5 58.5 93 61.5 L 90.5 62 L 86.5 61 L 86.5 60 Z " /><path fill="rgb(254,255,255)" stroke="rgb(254,255,255)" stroke-width="1" opacity="1" d="M 132 60 L 139 60.5 L 132 62 L 132 60 Z " /><path fill="rgb(254,255,255)" stroke="rgb(254,255,255)" stroke-width="1" opacity="1" d="M 143.5 60 L 150 60 L 150 63 L 143.5 61 L 143.5 60 Z " /><path fill="rgb(254,255,255)" stroke="rgb(254,255,255)" stroke-width="1" opacity="1" d="M 215.5 60 L 216 66 L 219 66 L 219 72.5 L 218 72.5 L 215 63.5 L 213 61.5 L 215.5 60 Z " /><path fill="rgb(254,255,255)" stroke="rgb(254,255,255)" stroke-width="1" opacity="1" d="M 69 63 L 74 63.5 L 65 71.5 L 63.5 74 L 63 69 L 66 69 L 66 66 Q 70.5 67.5 69 63 Z " /><path fill="rgb(254,255,255)" stroke="rgb(254,255,255)" stroke-width="1" opacity="1" d="M 95.5 63 Q 100.3 61.3 99 65.5 L 96.5 64 L 95.5 63 Z " /><path fill="rgb(254,255,255)" stroke="rgb(254,255,255)" stroke-width="1" opacity="1" d="M 126 63 L 130 63.5 L 126.5 66 L 126 63 Z " /><path fill="rgb(254,255,255)" stroke="rgb(254,255,255)" stroke-width="1" opacity="1" d="M 152 63 L 156 63 L 156 66 L 159 66 Q 157.5 70.5 162 69 L 162 73.5 L 160 72.5 L 153.5 65 Q 150.9 65.7 152 63 Z " /><path fill="rgb(254,255,255)" stroke="rgb(254,255,255)" stroke-width="1" opacity="1" d="M 6.5 66 L 9 67.5 L 6.5 73 L 6.5 66 Z " /><path fill="rgb(254,255,255)" stroke="rgb(254,255,255)" stroke-width="1" opacity="1" d="M 44.5 66 L 45 68.5 L 44 71 L 42 71 Q 43.7 76.2 40 75 L 44.5 66 Z " /><path fill="rgb(254,255,255)" stroke="rgb(254,255,255)" stroke-width="1" opacity="1" d="M 100.5 66 Q 102.8 65.3 102 67.5 L 100.5 66 Z " /><path fill="rgb(254,255,255)" stroke="rgb(254,255,255)" stroke-width="1" opacity="1" d="M 123 66 L 125 66.5 L 123 67.5 L 123 66 Z " /><path fill="rgb(254,255,255)" stroke="rgb(254,255,255)" stroke-width="1" opacity="1" d="M 180.5 66 L 185 75 Q 182 76.3 183 72.5 L 180 71 L 180.5 66 Z " /><path fill="rgb(254,255,255)" stroke="rgb(254,255,255)" stroke-width="1" opacity="1" d="M 103.5 69 L 105 72 Q 110.3 70.2 108 77.5 L 107 77.5 L 103.5 69 Z " /><path fill="rgb(254,255,255)" stroke="rgb(254,255,255)" stroke-width="1" opacity="1" d="M 120 69 L 122 69.5 L 119 75 Q 115.7 76.1 117 72 Q 121.5 73.5 120 69 Z " /><path fill="rgb(254,255,255)" stroke="rgb(254,255,255)" stroke-width="1" opacity="1" d="M 3 75 L 6 75.5 L 4 79.5 L 3.5 83 L 3 75 Z " /><path fill="rgb(254,255,255)" stroke="rgb(254,255,255)" stroke-width="1" opacity="1" d="M 60 75 Q 63.7 73.5 63 76.5 L 60.5 84 L 60 78.5 L 60 76.5 L 60 75 Z " /><path fill="rgb(254,255,255)" stroke="rgb(254,255,255)" stroke-width="1" opacity="1" d="M 162 75 L 165 75 L 165 81.5 L 164 81.5 L 162 75 Z " /><path fill="rgb(254,255,255)" stroke="rgb(254,255,255)" stroke-width="1" opacity="1" d="M 219.5 75 L 222 75.5 L 222 82.5 L 221 82.5 L 220 78.5 L 221 77.5 L 219.5 75 Z " /><path fill="rgb(254,255,255)" stroke="rgb(254,255,255)" stroke-width="1" opacity="1" d="M 38.5 77 L 39 78.5 L 39 80.5 L 38.5 82 L 36 81.5 L 38.5 77 Z " /><path fill="rgb(254,255,255)" stroke="rgb(254,255,255)" stroke-width="1" opacity="1" d="M 186.5 77 L 189 81.5 Q 187.5 84.5 186 81.5 L 186.5 77 Z " /><path fill="rgb(254,255,255)" stroke="rgb(254,255,255)" stroke-width="1" opacity="1" d="M 0 84 L 3 85.5 L 0.5 97 L 0 84 Z " /><path fill="rgb(254,255,255)" stroke="rgb(254,255,255)" stroke-width="1" opacity="1" d="M 35.5 84 L 36 87.5 L 35.5 90 Q 32.9 90.8 34 87.5 L 35.5 84 Z " /><path fill="rgb(254,255,255)" stroke="rgb(254,255,255)" stroke-width="1" opacity="1" d="M 109.5 84 L 110 86.5 L 109 86.5 L 109.5 84 Z " /><path fill="rgb(254,255,255)" stroke="rgb(254,255,255)" stroke-width="1" opacity="1" d="M 115.5 84 L 116 86.5 L 115 86.5 L 115.5 84 Z " /><path fill="rgb(254,255,255)" stroke="rgb(254,255,255)" stroke-width="1" opacity="1" d="M 189.5 84 L 191 90 L 189 90 L 189.5 84 Z " /><path fill="rgb(254,255,255)" stroke="rgb(254,255,255)" stroke-width="1" opacity="1" d="M 60.5 85 L 62 93 L 60 92.5 L 60.5 85 Z " /><path fill="rgb(254,255,255)" stroke="rgb(254,255,255)" stroke-width="1" opacity="1" d="M 164.5 86 L 165 93 Q 161.7 94.3 163 89.5 L 164.5 86 Z " /><path fill="rgb(254,255,255)" stroke="rgb(254,255,255)" stroke-width="1" opacity="1" d="M 222.5 86 L 225 86.5 L 224.5 93 L 222.5 86 Z " /><path fill="rgb(254,255,255)" stroke="rgb(254,255,255)" stroke-width="1" opacity="1" d="M 107.5 91 L 108 96 Q 105.3 97.1 106 94.5 L 107.5 91 Z " /><path fill="rgb(254,255,255)" stroke="rgb(254,255,255)" stroke-width="1" opacity="1" d="M 117.5 91 L 119 96 Q 114.9 97.2 117.5 91 Z " /><path fill="rgb(254,255,255)" stroke="rgb(254,255,255)" stroke-width="1" opacity="1" d="M 32.5 94 L 33 96.5 L 32 96.5 L 32.5 94 Z " /><path fill="rgb(254,255,255)" stroke="rgb(254,255,255)" stroke-width="1" opacity="1" d="M 192.5 94 L 193 96.5 L 192 96.5 L 192.5 94 Z " /><path fill="rgb(254,255,255)" stroke="rgb(254,255,255)" stroke-width="1" opacity="1" d="M 63.5 95 L 66 98.5 L 63 99 L 63.5 95 Z " /><path fill="rgb(254,255,255)" stroke="rgb(254,255,255)" stroke-width="1" opacity="1" d="M 161.5 95 L 162 99 L 159 98.5 L 161.5 95 Z " /><path fill="rgb(254,255,255)" stroke="rgb(254,255,255)" stroke-width="1" opacity="1" d="M 32.5 98 L 33 103.5 L 33 105.5 L 32 109.5 L 32.5 111 L 30 109.5 L 32 106.5 L 31 104.5 L 31 102.5 Q 30.3 98.8 32.5 98 Z " /><path fill="rgb(254,255,255)" stroke="rgb(254,255,255)" stroke-width="1" opacity="1" d="M 104.5 98 L 104 99.5 L 105 101.5 L 103.5 102 Q 102.3 99.8 101 102.5 L 102 104.5 L 100.5 104 L 98.5 105 L 104.5 98 Z " /><path fill="rgb(254,255,255)" stroke="rgb(254,255,255)" stroke-width="1" opacity="1" d="M 120.5 98 L 126.5 105 L 124.5 104 L 123 104.5 L 124 102.5 Q 122.8 99.8 121.5 102 L 120 101.5 L 121 99.5 L 120.5 98 Z " /><path fill="rgb(254,255,255)" stroke="rgb(254,255,255)" stroke-width="1" opacity="1" d="M 192.5 98 L 194 100.5 L 194 104.5 L 193 106.5 L 195 110 L 193 110 L 193 115 L 195 115.5 L 193 118.5 L 194 120.5 L 194 124.5 L 192.5 127 L 192 121.5 L 192 119.5 L 193 115.5 L 192 114.5 L 192 105.5 L 192 103.5 L 192.5 98 Z " /><path fill="rgb(254,255,255)" stroke="rgb(254,255,255)" stroke-width="1" opacity="1" d="M 66.5 100 L 67.5 102 Q 64.7 102.7 66.5 100 Z " /><path fill="rgb(254,255,255)" stroke="rgb(254,255,255)" stroke-width="1" opacity="1" d="M 158.5 100 L 159 102 L 157 101.5 L 158.5 100 Z " /><path fill="rgb(254,255,255)" stroke="rgb(254,255,255)" stroke-width="1" opacity="1" d="M 69.5 103 L 70.5 105 Q 67.7 105.7 69.5 103 Z " /><path fill="rgb(254,255,255)" stroke="rgb(254,255,255)" stroke-width="1" opacity="1" d="M 155.5 103 L 156 105 Q 151.5 103.5 153 108 L 147.5 108 L 147.5 107 L 150.5 107 L 155.5 103 Z " /><path fill="rgb(254,255,255)" stroke="rgb(254,255,255)" stroke-width="1" opacity="1" d="M 72 105 L 78 107.5 L 72 108 L 72 105 Z " /><path fill="rgb(254,255,255)" stroke="rgb(254,255,255)" stroke-width="1" opacity="1" d="M 94.5 106 Q 97.1 105.3 96 108 L 91 107.5 L 94.5 106 Z " /><path fill="rgb(254,255,255)" stroke="rgb(254,255,255)" stroke-width="1" opacity="1" d="M 129 106 L 134 107.5 L 129 108 L 129 106 Z " /><path fill="rgb(254,255,255)" stroke="rgb(254,255,255)" stroke-width="1" opacity="1" d="M 32.5 114 L 33 119.5 L 33 121.5 L 32.5 127 Q 30.3 126.3 31 122.5 L 31 120.5 L 30 115 L 32.5 114 Z " /><path fill="rgb(254,255,255)" stroke="rgb(254,255,255)" stroke-width="1" opacity="1" d="M 72 117 L 78 117.5 L 72 120 L 72 117 Z " /><path fill="rgb(254,255,255)" stroke="rgb(254,255,255)" stroke-width="1" opacity="1" d="M 91.5 117 Q 97.3 115.3 96 119 L 91.5 118 L 91.5 117 Z " /><path fill="rgb(254,255,255)" stroke="rgb(254,255,255)" stroke-width="1" opacity="1" d="M 129 117 L 134 117.5 L 129 119 L 129 117 Z " /><path fill="rgb(254,255,255)" stroke="rgb(254,255,255)" stroke-width="1" opacity="1" d="M 147.5 117 L 153 117 L 153 119.5 L 150.5 118 Q 146.5 118.8 147.5 117 Z " /><path fill="rgb(254,255,255)" stroke="rgb(254,255,255)" stroke-width="1" opacity="1" d="M 70.5 120 L 69.5 122 L 70.5 120 Z " /><path fill="rgb(254,255,255)" stroke="rgb(254,255,255)" stroke-width="1" opacity="1" d="M 98.5 120 L 100.5 121 L 102 120.5 L 101 122.5 Q 102.3 125.2 103.5 123 L 105 123.5 L 104 125.5 L 104.5 127 L 98.5 120 Z " /><path fill="rgb(254,255,255)" stroke="rgb(254,255,255)" stroke-width="1" opacity="1" d="M 123.5 120 L 125.5 121 L 127 120.5 L 120 126.5 L 121 124.5 L 120.5 123 L 122.5 124 Q 125.2 122.8 123 121.5 L 123.5 120 Z " /><path fill="rgb(254,255,255)" stroke="rgb(254,255,255)" stroke-width="1" opacity="1" d="M 154.5 120 Q 156.8 119.3 156 121.5 L 154.5 120 Z " /><path fill="rgb(254,255,255)" stroke="rgb(254,255,255)" stroke-width="1" opacity="1" d="M 66 123 L 68 123.5 L 66 124.5 L 66 123 Z " /><path fill="rgb(254,255,255)" stroke="rgb(254,255,255)" stroke-width="1" opacity="1" d="M 157.5 123 Q 159.8 122.3 159 124.5 L 157.5 123 Z " /><path fill="rgb(254,255,255)" stroke="rgb(254,255,255)" stroke-width="1" opacity="1" d="M 63 126 L 66 126.5 L 63 128 L 63 126 Z " /><path fill="rgb(254,255,255)" stroke="rgb(254,255,255)" stroke-width="1" opacity="1" d="M 159.5 126 Q 163.7 124.7 162 129.5 L 161 129.5 L 159.5 126 Z " /><path fill="rgb(254,255,255)" stroke="rgb(254,255,255)" stroke-width="1" opacity="1" d="M 106 129 Q 109.7 127.7 108 133.5 L 107 133.5 L 106 129 Z " /><path fill="rgb(254,255,255)" stroke="rgb(254,255,255)" stroke-width="1" opacity="1" d="M 117 129 Q 119.7 127.9 119 130.5 L 117.5 134 L 117 129 Z " /><path fill="rgb(254,255,255)" stroke="rgb(254,255,255)" stroke-width="1" opacity="1" d="M 0.5 130 L 2 138 L 0 137.5 L 0.5 130 Z " /><path fill="rgb(254,255,255)" stroke="rgb(254,255,255)" stroke-width="1" opacity="1" d="M 60 132 Q 63.3 130.7 62 135.5 L 60.5 139 L 60 132 Z " /><path fill="rgb(254,255,255)" stroke="rgb(254,255,255)" stroke-width="1" opacity="1" d="M 163 132 Q 166.7 130.7 165 136.5 L 164 136.5 L 163 132 Z " /><path fill="rgb(254,255,255)" stroke="rgb(254,255,255)" stroke-width="1" opacity="1" d="M 224.5 132 L 225 139 L 222 138.5 L 224.5 132 Z " /><path fill="rgb(254,255,255)" stroke="rgb(254,255,255)" stroke-width="1" opacity="1" d="M 34 135 Q 38 133.6 36 140.5 L 35 140.5 L 34 135 Z " /><path fill="rgb(254,255,255)" stroke="rgb(254,255,255)" stroke-width="1" opacity="1" d="M 189.5 135 L 191 137.5 L 188.5 142 L 189 140.5 L 190 136.5 L 189.5 135 Z " /><path fill="rgb(254,255,255)" stroke="rgb(254,255,255)" stroke-width="1" opacity="1" d="M 109.5 138 L 110 140.5 L 109 140.5 L 109.5 138 Z " /><path fill="rgb(254,255,255)" stroke="rgb(254,255,255)" stroke-width="1" opacity="1" d="M 0.5 140 L 3 140.5 L 0.5 141 L 0.5 140 Z " /><path fill="rgb(254,255,255)" stroke="rgb(254,255,255)" stroke-width="1" opacity="1" d="M 38.5 141 L 39 147.5 L 38 147.5 L 37 143.5 L 38.5 141 Z " /><path fill="rgb(254,255,255)" stroke="rgb(254,255,255)" stroke-width="1" opacity="1" d="M 60.5 141 L 63 150 Q 59.3 151.5 60 148.5 L 60 146.5 L 60.5 141 Z " /><path fill="rgb(254,255,255)" stroke="rgb(254,255,255)" stroke-width="1" opacity="1" d="M 3.5 142 L 5 146.5 L 4 147.5 L 5.5 150 L 3 149.5 L 3.5 142 Z " /><path fill="rgb(254,255,255)" stroke="rgb(254,255,255)" stroke-width="1" opacity="1" d="M 221.5 142 L 222 146.5 L 222 148.5 Q 222.7 151.1 220 150 L 221.5 142 Z " /><path fill="rgb(254,255,255)" stroke="rgb(254,255,255)" stroke-width="1" opacity="1" d="M 164.5 143 L 165 150 Q 161.2 151.5 162 148.5 L 164.5 143 Z " /><path fill="rgb(254,255,255)" stroke="rgb(254,255,255)" stroke-width="1" opacity="1" d="M 187.5 143 L 189 143.5 L 186.5 148 L 186 144.5 L 187.5 143 Z " /><path fill="rgb(254,255,255)" stroke="rgb(254,255,255)" stroke-width="1" opacity="1" d="M 107.5 147 L 108 153 Q 104.3 151.5 105 154.5 L 103 155.5 L 107.5 147 Z " /><path fill="rgb(254,255,255)" stroke="rgb(254,255,255)" stroke-width="1" opacity="1" d="M 40 150 L 42 150 L 42 154 Q 44.7 152.9 44 155.5 L 45 158.5 L 44 158.5 L 40 150 Z " /><path fill="rgb(254,255,255)" stroke="rgb(254,255,255)" stroke-width="1" opacity="1" d="M 117.5 150 L 122 155.5 L 120 156 Q 121.5 151.5 117 153 L 117.5 150 Z " /><path fill="rgb(254,255,255)" stroke="rgb(254,255,255)" stroke-width="1" opacity="1" d="M 183 150 Q 185.7 148.9 185 151.5 L 180.5 159 L 180 154 Q 184.9 155.6 183 150 Z " /><path fill="rgb(254,255,255)" stroke="rgb(254,255,255)" stroke-width="1" opacity="1" d="M 6.5 152 L 9 157.5 L 6 159 L 6.5 152 Z " /><path fill="rgb(254,255,255)" stroke="rgb(254,255,255)" stroke-width="1" opacity="1" d="M 63 152 Q 65.7 150.9 65 153.5 L 73 160 Q 74.2 163.7 69 162 L 69 159 L 66 159 Q 67.5 154.5 63 156 L 63 152 Z " /><path fill="rgb(254,255,255)" stroke="rgb(254,255,255)" stroke-width="1" opacity="1" d="M 160 152 Q 163.7 150.8 162 156 L 159 156 L 159 159 Q 154.5 157.5 156 162 L 151.5 162 L 152.5 160 L 160 153.5 L 160 152 Z " /><path fill="rgb(254,255,255)" stroke="rgb(254,255,255)" stroke-width="1" opacity="1" d="M 218.5 152 L 219 158.5 L 217.5 158 L 216 157.5 L 218.5 152 Z " /><path fill="rgb(254,255,255)" stroke="rgb(254,255,255)" stroke-width="1" opacity="1" d="M 101.5 157 L 102 159 L 100 158.5 L 101.5 157 Z " /><path fill="rgb(254,255,255)" stroke="rgb(254,255,255)" stroke-width="1" opacity="1" d="M 123.5 157 L 124.5 159 Q 121.7 159.7 123.5 157 Z " /><path fill="rgb(254,255,255)" stroke="rgb(254,255,255)" stroke-width="1" opacity="1" d="M 46 159 Q 49.3 157.9 48 162 L 51 162 L 51 165.5 L 54 166.5 L 53.5 168 L 55 168.5 Q 53 172 51 167.5 L 46 159 Z " /><path fill="rgb(254,255,255)" stroke="rgb(254,255,255)" stroke-width="1" opacity="1" d="M 98.5 159 L 99 162 L 95 161.5 L 98.5 159 Z " /><path fill="rgb(254,255,255)" stroke="rgb(254,255,255)" stroke-width="1" opacity="1" d="M 126.5 159 L 128 162 Q 124.5 163.1 126.5 159 Z " /><path fill="rgb(254,255,255)" stroke="rgb(254,255,255)" stroke-width="1" opacity="1" d="M 177 159 Q 179.7 157.9 179 160.5 L 171.5 170 Q 168.8 168.8 171 167.5 L 172.5 165 L 174 165.5 L 174.5 162 Q 175.8 164.3 177 161.5 L 177 159 Z " /><path fill="rgb(254,255,255)" stroke="rgb(254,255,255)" stroke-width="1" opacity="1" d="M 9.5 161 Q 14 163 10.5 165 Q 7 165.8 9.5 161 Z " /><path fill="rgb(254,255,255)" stroke="rgb(254,255,255)" stroke-width="1" opacity="1" d="M 214 161 Q 217.3 159.7 216 164.5 L 214.5 164 L 213 163.5 L 214 161 Z " /><path fill="rgb(254,255,255)" stroke="rgb(254,255,255)" stroke-width="1" opacity="1" d="M 75 162 L 84 164.5 L 75 165 L 75 162 Z " /><path fill="rgb(254,255,255)" stroke="rgb(254,255,255)" stroke-width="1" opacity="1" d="M 148.5 162 Q 151.5 161.2 150 165 L 143 164.5 L 148.5 162 Z " /><path fill="rgb(254,255,255)" stroke="rgb(254,255,255)" stroke-width="1" opacity="1" d="M 89.5 163 L 91.5 164 L 93 163.5 Q 93.5 166.5 86.5 165 L 86.5 164 L 89.5 163 Z " /><path fill="rgb(254,255,255)" stroke="rgb(254,255,255)" stroke-width="1" opacity="1" d="M 132 163 Q 135.8 162 137 164.5 L 132 165 L 132 163 Z " /><path fill="rgb(254,255,255)" stroke="rgb(254,255,255)" stroke-width="1" opacity="1" d="M 12.5 165 L 17 172.5 L 15 173 Q 16.1 170.3 13.5 171 Q 10.6 169.6 12.5 165 Z " /><path fill="rgb(254,255,255)" stroke="rgb(254,255,255)" stroke-width="1" opacity="1" d="M 212.5 165 L 213 171 Q 208.9 169.3 210 173.5 L 208 172.5 L 212.5 165 Z " /><path fill="rgb(254,255,255)" stroke="rgb(254,255,255)" stroke-width="1" opacity="1" d="M 56.5 170 L 57 172 Q 59.7 170.9 59 173.5 Q 60.3 176.3 61.5 174 Q 64.5 173.3 63 177 L 66 177 L 66 180 L 68.5 180 Q 70.4 183.6 75 183 Q 76.1 185.7 73.5 185 L 55 171.5 L 56.5 170 Z " /><path fill="rgb(254,255,255)" stroke="rgb(254,255,255)" stroke-width="1" opacity="1" d="M 168.5 170 Q 172 172 167.5 174 L 159 179 Q 157.7 175.7 162.5 177 L 162 175.5 L 162 174 Q 165.8 175.5 165 172.5 L 168 171.5 L 168.5 170 Z " /><path fill="rgb(254,255,255)" stroke="rgb(254,255,255)" stroke-width="1" opacity="1" d="M 18.5 175 L 26 185.5 L 24 186 L 24 183 L 21 183 Q 22.5 179.2 19.5 180 Q 16.8 178.8 18.5 175 Z " /><path fill="rgb(254,255,255)" stroke="rgb(254,255,255)" stroke-width="1" opacity="1" d="M 206.5 175 L 207 178.5 L 204 180 L 204 183 Q 199.9 181.3 201 185.5 L 200 185.5 L 200 183.5 L 206.5 175 Z " /><path fill="rgb(254,255,255)" stroke="rgb(254,255,255)" stroke-width="1" opacity="1" d="M 156.5 180 L 159 180.5 L 150 185 Q 148.7 181.7 153.5 183 L 153.5 181 L 156.5 180 Z " /><path fill="rgb(254,255,255)" stroke="rgb(254,255,255)" stroke-width="1" opacity="1" d="M 77.5 186 Q 82.3 184.7 81 188 Q 76.8 188 77.5 186 Z " /><path fill="rgb(254,255,255)" stroke="rgb(254,255,255)" stroke-width="1" opacity="1" d="M 83.5 186 L 84 189 L 88 189 L 88 190.5 L 86.5 190 L 83 188.5 L 83.5 186 Z " /><path fill="rgb(254,255,255)" stroke="rgb(254,255,255)" stroke-width="1" opacity="1" d="M 144.5 186 L 148 186.5 L 143.5 189 L 143 187.5 L 144.5 186 Z " /><path fill="rgb(254,255,255)" stroke="rgb(254,255,255)" stroke-width="1" opacity="1" d="M 27.5 187 L 28.5 189 Q 25.7 189.7 27.5 187 Z " /><path fill="rgb(254,255,255)" stroke="rgb(254,255,255)" stroke-width="1" opacity="1" d="M 197.5 187 L 198 189 L 196 188.5 L 197.5 187 Z " /><path fill="rgb(254,255,255)" stroke="rgb(254,255,255)" stroke-width="1" opacity="1" d="M 141.5 188 L 140.5 190 L 135 191 L 135.5 189 L 137.5 189 L 141.5 188 Z " /><path fill="rgb(254,255,255)" stroke="rgb(254,255,255)" stroke-width="1" opacity="1" d="M 30.5 190 L 34.5 195 L 32 194.5 Q 34.3 193.3 31.5 192 L 30 192.5 L 30.5 190 Z " /><path fill="rgb(254,255,255)" stroke="rgb(254,255,255)" stroke-width="1" opacity="1" d="M 194.5 190 L 194.5 193 Q 193.3 190.7 192 193.5 L 192.5 195 L 190 194.5 L 194.5 190 Z " /><path fill="rgb(254,255,255)" stroke="rgb(254,255,255)" stroke-width="1" opacity="1" d="M 94.5 192 L 97 192.5 L 94.5 193 L 94.5 192 Z " /><path fill="rgb(254,255,255)" stroke="rgb(254,255,255)" stroke-width="1" opacity="1" d="M 98.5 192 Q 103.3 190.7 104.5 193 Q 105.8 190.7 110.5 192 L 113.5 193 Q 114.8 190.7 119.5 192 L 121.5 192 L 127 192.5 Q 126.3 194.8 122.5 194 L 120.5 194 L 118.5 193 L 115.5 195 L 114.5 193 L 111.5 194 L 110 193.5 Q 110.8 195.8 108.5 195 L 103.5 193 L 99.5 194 L 98.5 192 Z " /><path fill="rgb(254,255,255)" stroke="rgb(254,255,255)" stroke-width="1" opacity="1" d="M 36.5 196 L 37.5 198 Q 34.7 198.7 36.5 196 Z " /><path fill="rgb(254,255,255)" stroke="rgb(254,255,255)" stroke-width="1" opacity="1" d="M 188.5 196 L 189 198 L 187 197.5 L 188.5 196 Z " /><path fill="rgb(254,255,255)" stroke="rgb(254,255,255)" stroke-width="1" opacity="1" d="M 39.5 199 L 50 206.5 L 47.5 207 L 45 206.5 Q 46.1 202.3 42 204 L 42 201 L 39 201 L 39.5 199 Z " /><path fill="rgb(254,255,255)" stroke="rgb(254,255,255)" stroke-width="1" opacity="1" d="M 185.5 199 L 186 201 L 183 201 L 183 204 Q 179.2 202.5 180 205.5 Q 179.3 207.8 175.5 207 L 175.5 206 L 185.5 199 Z " /><path fill="rgb(254,255,255)" stroke="rgb(254,255,255)" stroke-width="1" opacity="1" d="M 51 208 L 64 215.5 L 60.5 216 L 59.5 213 L 54 213 L 54 210.5 L 51 209.5 L 51 208 Z " /><path fill="rgb(254,255,255)" stroke="rgb(254,255,255)" stroke-width="1" opacity="1" d="M 172.5 208 L 173.5 210 Q 169.3 208.9 171 213 L 165.5 213 L 165.5 212 L 172.5 208 Z " /><path fill="rgb(254,255,255)" stroke="rgb(254,255,255)" stroke-width="1" opacity="1" d="M 163.5 213 L 165 216 Q 159.8 217.7 161 214 L 163.5 213 Z " /><path fill="rgb(254,255,255)" stroke="rgb(254,255,255)" stroke-width="1" opacity="1" d="M 67.5 216 L 73 218.5 L 66.5 219 L 67 217.5 L 67.5 216 Z " /><path fill="rgb(254,255,255)" stroke="rgb(254,255,255)" stroke-width="1" opacity="1" d="M 157.5 216 L 159 218.5 L 152.5 219 L 152.5 218 L 157.5 216 Z " /><path fill="rgb(254,255,255)" stroke="rgb(254,255,255)" stroke-width="1" opacity="1" d="M 75.5 219 L 79.5 221 L 83 221.5 L 79.5 222 L 77.5 222 Q 73.1 223.1 75.5 219 Z " /><path fill="rgb(254,255,255)" stroke="rgb(254,255,255)" stroke-width="1" opacity="1" d="M 149.5 219 L 150 222 L 142 221.5 L 146.5 220 Q 148 222.5 149.5 219 Z " /><path fill="rgb(254,255,255)" stroke="rgb(254,255,255)" stroke-width="1" opacity="1" d="M 84.5 222 Q 87.5 223.5 84.5 225 L 84.5 222 Z " /><path fill="rgb(254,255,255)" stroke="rgb(254,255,255)" stroke-width="1" opacity="1" d="M 140.5 222 L 141 224.5 L 140 224.5 L 140.5 222 Z " /><path fill="rgb(254,255,255)" stroke="rgb(254,255,255)" stroke-width="1" opacity="1" d="M 87 223 L 93 224.5 L 87 225 L 87 223 Z " /><path fill="rgb(254,255,255)" stroke="rgb(254,255,255)" stroke-width="1" opacity="1" d="M 134.5 223 Q 139.3 221.7 138 225 L 131 224.5 L 134.5 223 Z " /><path fill="rgb(235,44,70)" stroke="rgb(235,44,70)" stroke-width="1" opacity="1" d="M 98.5 1 L 105 1.5 L 92.5 3 L 92.5 2 Q 97.3 3.2 98.5 1 Z " /><path fill="rgb(235,44,70)" stroke="rgb(235,44,70)" stroke-width="1" opacity="1" d="M 118.5 1 L 126 1.5 L 122.5 3 L 119.5 2 L 118.5 1 Z " /><path fill="rgb(235,44,70)" stroke="rgb(235,44,70)" stroke-width="1" opacity="1" d="M 127.5 2 L 133 2.5 L 127.5 3 L 127.5 2 Z " /><path fill="rgb(235,44,70)" stroke="rgb(235,44,70)" stroke-width="1" opacity="1" d="M 86.5 3 L 91 3.5 L 83.5 5 L 83.5 4 L 86.5 3 Z " /><path fill="rgb(235,44,70)" stroke="rgb(235,44,70)" stroke-width="1" opacity="1" d="M 134.5 3 L 142 4 L 141.5 6 L 134.5 4 L 134.5 3 Z " /><path fill="rgb(235,44,70)" stroke="rgb(235,44,70)" stroke-width="1" opacity="1" d="M 79.5 5 L 82 5.5 L 77.5 8 L 75.5 8 L 74 7.5 L 79.5 5 Z " /><path fill="rgb(235,44,70)" stroke="rgb(235,44,70)" stroke-width="1" opacity="1" d="M 143.5 5 L 151 7.5 L 149.5 8 L 145.5 6 Q 142.5 6.5 143.5 5 Z " /><path fill="rgb(235,44,70)" stroke="rgb(235,44,70)" stroke-width="1" opacity="1" d="M 71.5 8 L 73 8.5 L 68.5 11 L 68 9 L 71.5 8 Z " /><path fill="rgb(235,44,70)" stroke="rgb(235,44,70)" stroke-width="1" opacity="1" d="M 152.5 8 L 157 9 L 157.5 11 L 159.5 11 L 163 12.5 L 161.5 13 L 152.5 9 L 152.5 8 Z " /><path fill="rgb(235,44,70)" stroke="rgb(235,44,70)" stroke-width="1" opacity="1" d="M 66.5 10 L 67 12 L 62 13.5 L 62.5 15 L 60.5 14 L 56 16 L 55.5 18 L 55 16.5 L 66.5 10 Z " /><path fill="rgb(235,44,70)" stroke="rgb(235,44,70)" stroke-width="1" opacity="1" d="M 164.5 13 L 170 16.5 L 169.5 18 L 169 16 L 164 15 L 164.5 13 Z " /><path fill="rgb(235,44,70)" stroke="rgb(235,44,70)" stroke-width="1" opacity="1" d="M 53.5 17 L 54 19 L 49.5 21 L 51.5 18 L 53.5 17 Z " /><path fill="rgb(235,44,70)" stroke="rgb(235,44,70)" stroke-width="1" opacity="1" d="M 171.5 17 L 176 20.5 L 173.5 21 L 173.5 19 Q 169.5 20 171.5 17 Z " /><path fill="rgb(235,44,70)" stroke="rgb(235,44,70)" stroke-width="1" opacity="1" d="M 47.5 21 L 48 22.5 L 44 24 L 45 26.5 L 43.5 26 Q 41.3 25.3 42 27.5 L 41 27.5 L 44.5 23 L 47.5 21 Z " /><path fill="rgb(235,44,70)" stroke="rgb(235,44,70)" stroke-width="1" opacity="1" d="M 177.5 21 L 184 26.5 L 183.5 28 L 182 25 L 177 22.5 L 177.5 21 Z " /><path fill="rgb(235,44,70)" stroke="rgb(235,44,70)" stroke-width="1" opacity="1" d="M 39.5 27 L 40 29 L 38.5 29 L 27.5 40 L 39.5 27 Z " /><path fill="rgb(235,44,70)" stroke="rgb(235,44,70)" stroke-width="1" opacity="1" d="M 185.5 27 L 197.5 40 L 195 39.5 L 196 38.5 L 185.5 27 Z " /><path fill="rgb(235,44,70)" stroke="rgb(235,44,70)" stroke-width="1" opacity="1" d="M 111.5 28 L 116.5 29 L 119.5 28 L 125 29.5 L 100.5 30 L 100.5 29 L 110.5 29 L 111.5 28 Z " /><path fill="rgb(235,44,70)" stroke="rgb(235,44,70)" stroke-width="1" opacity="1" d="M 90.5 30 L 93.5 31 L 98.5 30 L 98.5 31 Q 77.2 33.7 64.5 45 L 63 42.5 L 64.5 43 L 82.5 33 L 90 32 L 90.5 30 Z " /><path fill="rgb(235,44,70)" stroke="rgb(235,44,70)" stroke-width="1" opacity="1" d="M 126.5 30 L 130 30.5 L 126.5 31 L 126.5 30 Z " /><path fill="rgb(235,44,70)" stroke="rgb(235,44,70)" stroke-width="1" opacity="1" d="M 134.5 31 Q 137.5 33.8 143 33 Q 144.1 35.7 141.5 35 L 135.5 33 L 134.5 31 Z " /><path fill="rgb(235,44,70)" stroke="rgb(235,44,70)" stroke-width="1" opacity="1" d="M 144.5 35 L 148 36.5 L 146.5 37 L 144.5 35 Z " /><path fill="rgb(235,44,70)" stroke="rgb(235,44,70)" stroke-width="1" opacity="1" d="M 149.5 36 L 150 38 Q 153.8 37.3 155 40.5 L 153.5 40 L 149 37.5 L 149.5 36 Z " /><path fill="rgb(235,44,70)" stroke="rgb(235,44,70)" stroke-width="1" opacity="1" d="M 26.5 41 L 26 42.5 L 27 44.5 L 24 45.5 L 22.5 48 L 21 47.5 L 26.5 41 Z " /><path fill="rgb(235,44,70)" stroke="rgb(235,44,70)" stroke-width="1" opacity="1" d="M 156.5 41 L 160.5 43 L 162 42.5 L 160.5 45 L 156.5 41 Z " /><path fill="rgb(235,44,70)" stroke="rgb(235,44,70)" stroke-width="1" opacity="1" d="M 197.5 41 L 202 44.5 L 200.5 44 L 197.5 42 L 197.5 41 Z " /><path fill="rgb(235,44,70)" stroke="rgb(235,44,70)" stroke-width="1" opacity="1" d="M 61.5 45 L 63 45.5 L 59 48.5 L 61.5 45 Z " /><path fill="rgb(235,44,70)" stroke="rgb(235,44,70)" stroke-width="1" opacity="1" d="M 162.5 45 L 164.5 48 L 162.5 45 Z " /><path fill="rgb(235,44,70)" stroke="rgb(235,44,70)" stroke-width="1" opacity="1" d="M 202.5 46 L 203.5 48 Q 200.7 48.7 202.5 46 Z " /><path fill="rgb(235,44,70)" stroke="rgb(235,44,70)" stroke-width="1" opacity="1" d="M 20.5 49 L 21 50.5 L 19 54 L 17 53.5 L 20.5 49 Z " /><path fill="rgb(235,44,70)" stroke="rgb(235,44,70)" stroke-width="1" opacity="1" d="M 57.5 49 L 49.5 58 L 57.5 49 Z " /><path fill="rgb(235,44,70)" stroke="rgb(235,44,70)" stroke-width="1" opacity="1" d="M 167.5 49 L 175.5 58 L 167.5 49 Z " /><path fill="rgb(235,44,70)" stroke="rgb(235,44,70)" stroke-width="1" opacity="1" d="M 204.5 49 L 208 53.5 L 206 54 L 204.5 49 Z " /><path fill="rgb(235,44,70)" stroke="rgb(235,44,70)" stroke-width="1" opacity="1" d="M 16.5 55 L 18 55.5 L 16 56 L 14 60.5 L 15 62.5 L 14 62.5 L 13 60.5 L 16.5 55 Z " /><path fill="rgb(235,44,70)" stroke="rgb(235,44,70)" stroke-width="1" opacity="1" d="M 207.5 55 L 210 56.5 L 215 66.5 L 214.5 68 Q 217.1 67.2 216 70.5 L 217 72.5 L 216 72.5 L 209 56 L 207.5 55 Z " /><path fill="rgb(235,44,70)" stroke="rgb(235,44,70)" stroke-width="1" opacity="1" d="M 48.5 59 L 45.5 63 L 45 61.5 L 48.5 59 Z " /><path fill="rgb(235,44,70)" stroke="rgb(235,44,70)" stroke-width="1" opacity="1" d="M 177.5 60 L 180 61.5 L 179.5 63 L 177.5 60 Z " /><path fill="rgb(235,44,70)" stroke="rgb(235,44,70)" stroke-width="1" opacity="1" d="M 12.5 62 L 13 63.5 L 12 69 L 9.5 70 L 9 68 L 11 67.5 L 11 65.5 L 12.5 62 Z " /><path fill="rgb(235,44,70)" stroke="rgb(235,44,70)" stroke-width="1" opacity="1" d="M 80.5 62 L 89 62.5 L 80.5 63 L 75 66 L 76.5 63 L 80.5 62 Z " /><path fill="rgb(235,44,70)" stroke="rgb(235,44,70)" stroke-width="1" opacity="1" d="M 136.5 62 Q 144.2 61.2 148 63 L 148.5 65 L 150.5 64 L 159 71.5 L 160 73.5 L 158 72.5 L 158 71 L 156 71 L 156 69 L 154 69 Q 155.1 66.3 152.5 67 Q 151 63.5 149.5 66 Q 146 61.5 136.5 63 L 136.5 62 Z " /><path fill="rgb(235,44,70)" stroke="rgb(235,44,70)" stroke-width="1" opacity="1" d="M 42.5 63 L 45 64.5 L 41.5 69 L 42 67.5 L 43 64.5 L 42.5 63 Z " /><path fill="rgb(235,44,70)" stroke="rgb(235,44,70)" stroke-width="1" opacity="1" d="M 90.5 63 Q 98.1 64.5 102 69.5 L 99 69.5 L 96.5 66 L 93.5 65 L 92 65.5 L 92.5 64 Q 89.5 64.5 90.5 63 Z " /><path fill="rgb(235,44,70)" stroke="rgb(235,44,70)" stroke-width="1" opacity="1" d="M 132.5 63 L 135 63.5 L 132 64.5 L 132.5 66 L 130.5 65 L 126.5 68 L 128.5 65 L 132.5 63 Z " /><path fill="rgb(235,44,70)" stroke="rgb(235,44,70)" stroke-width="1" opacity="1" d="M 182.5 63 L 182 64.5 L 184 68.5 L 182 67.5 L 180 64.5 L 182.5 63 Z " /><path fill="rgb(235,44,70)" stroke="rgb(235,44,70)" stroke-width="1" opacity="1" d="M 73.5 65 L 72.5 67 L 71 67 L 71 69 L 69 69 L 69 71 Q 66.3 69.9 67 72.5 L 65 73.5 L 71.5 66 L 73.5 65 Z " /><path fill="rgb(235,44,70)" stroke="rgb(235,44,70)" stroke-width="1" opacity="1" d="M 124.5 68 L 125.5 70 L 123 69.5 L 124.5 68 Z " /><path fill="rgb(235,44,70)" stroke="rgb(235,44,70)" stroke-width="1" opacity="1" d="M 40.5 70 L 40 71.5 L 35.5 81 L 35 79.5 L 40.5 70 Z " /><path fill="rgb(235,44,70)" stroke="rgb(235,44,70)" stroke-width="1" opacity="1" d="M 184.5 70 L 189 76.5 L 190 80.5 L 189 80.5 L 184.5 70 Z " /><path fill="rgb(235,44,70)" stroke="rgb(235,44,70)" stroke-width="1" opacity="1" d="M 101.5 71 L 105 73.5 L 104.5 75 L 103 72 L 101.5 71 Z " /><path fill="rgb(235,44,70)" stroke="rgb(235,44,70)" stroke-width="1" opacity="1" d="M 122.5 71 L 124 71.5 L 122 72 L 120.5 75 L 120 73.5 L 122.5 71 Z " /><path fill="rgb(235,44,70)" stroke="rgb(235,44,70)" stroke-width="1" opacity="1" d="M 7.5 74 L 8 75.5 L 6 79.5 L 5.5 82 L 5 79.5 L 7.5 74 Z " /><path fill="rgb(235,44,70)" stroke="rgb(235,44,70)" stroke-width="1" opacity="1" d="M 216 74 Q 218.7 72.9 218 75.5 L 220 81.5 L 219 81.5 L 217 77.5 L 217.5 76 Q 214.9 76.7 216 74 Z " /><path fill="rgb(235,44,70)" stroke="rgb(235,44,70)" stroke-width="1" opacity="1" d="M 64.5 75 L 65.5 77 L 64 76.5 L 62.5 89 L 62 80.5 L 64.5 75 Z " /><path fill="rgb(235,44,70)" stroke="rgb(235,44,70)" stroke-width="1" opacity="1" d="M 159 75 L 162 76.5 L 163 88.5 L 162 88.5 Q 163 80.5 160.5 76 L 159 76.5 L 159 75 Z " /><path fill="rgb(235,44,70)" stroke="rgb(235,44,70)" stroke-width="1" opacity="1" d="M 119.5 76 L 120 79.5 L 119.5 82 L 118 79.5 L 119.5 76 Z " /><path fill="rgb(235,44,70)" stroke="rgb(235,44,70)" stroke-width="1" opacity="1" d="M 106.5 79 L 107 81.5 L 106 81.5 L 106.5 79 Z " /><path fill="rgb(235,44,70)" stroke="rgb(235,44,70)" stroke-width="1" opacity="1" d="M 33 82 Q 35.7 80.9 35 83.5 L 31.5 91 L 32 89.5 L 33 82 Z " /><path fill="rgb(235,44,70)" stroke="rgb(235,44,70)" stroke-width="1" opacity="1" d="M 190.5 82 Q 193.9 81.1 192 86.5 L 195 92.5 L 195 94.5 L 194.5 99 L 190.5 82 Z " /><path fill="rgb(235,44,70)" stroke="rgb(235,44,70)" stroke-width="1" opacity="1" d="M 4.5 83 Q 7.3 84.3 5 85.5 L 3.5 91 L 3 86.5 L 4.5 83 Z " /><path fill="rgb(235,44,70)" stroke="rgb(235,44,70)" stroke-width="1" opacity="1" d="M 107.5 83 L 108 86.5 L 106.5 91 L 106 87.5 L 107.5 83 Z " /><path fill="rgb(235,44,70)" stroke="rgb(235,44,70)" stroke-width="1" opacity="1" d="M 117 83 L 120 84.5 L 118 84.5 L 117.5 86 L 117 83 Z " /><path fill="rgb(235,44,70)" stroke="rgb(235,44,70)" stroke-width="1" opacity="1" d="M 220.5 83 L 222 90.5 L 221 90.5 Q 221.6 85.9 219 84.5 L 220.5 83 Z " /><path fill="rgb(235,44,70)" stroke="rgb(235,44,70)" stroke-width="1" opacity="1" d="M 118 88 Q 120.7 86.9 120 89.5 L 118 90.5 L 118 88 Z " /><path fill="rgb(235,44,70)" stroke="rgb(235,44,70)" stroke-width="1" opacity="1" d="M 63.5 90 L 64.5 93 L 66 92.5 L 65 94.5 L 70 101.5 L 68 100.5 L 63 92.5 L 63.5 90 Z " /><path fill="rgb(235,44,70)" stroke="rgb(235,44,70)" stroke-width="1" opacity="1" d="M 161.5 90 L 162 92.5 L 157.5 99 L 159 96.5 L 160 93.5 L 159.5 92 L 161 92.5 L 161.5 90 Z " /><path fill="rgb(235,44,70)" stroke="rgb(235,44,70)" stroke-width="1" opacity="1" d="M 2.5 92 L 3 97.5 Q 0.7 98.8 2 103.5 L 2 105.5 L 1.5 108 L 1 98.5 L 2.5 92 Z " /><path fill="rgb(235,44,70)" stroke="rgb(235,44,70)" stroke-width="1" opacity="1" d="M 105.5 92 L 106 93.5 L 97.5 104 L 92.5 106 L 92.5 105 L 100 100.5 Q 99.3 98.3 101.5 99 L 105.5 92 Z " /><path fill="rgb(235,44,70)" stroke="rgb(235,44,70)" stroke-width="1" opacity="1" d="M 119.5 92 L 123.5 99 L 126 100.5 L 127.5 103 L 133 105.5 L 131.5 106 L 121 97.5 L 119.5 92 Z " /><path fill="rgb(235,44,70)" stroke="rgb(235,44,70)" stroke-width="1" opacity="1" d="M 222.5 92 L 223 96.5 L 222 96.5 L 222.5 92 Z " /><path fill="rgb(235,44,70)" stroke="rgb(235,44,70)" stroke-width="1" opacity="1" d="M 30.5 95 L 31 98.5 L 30 98.5 L 30.5 95 Z " /><path fill="rgb(235,44,70)" stroke="rgb(235,44,70)" stroke-width="1" opacity="1" d="M 155.5 99 Q 158.5 100.5 155.5 102 Q 151.9 106.4 144.5 107 L 143.5 105 L 145.5 105 L 149.5 105 L 153 103 Q 151.8 100 155.5 101 L 155.5 99 Z " /><path fill="rgb(235,44,70)" stroke="rgb(235,44,70)" stroke-width="1" opacity="1" d="M 223.5 99 L 224 105.5 L 223 105.5 L 223.5 99 Z " /><path fill="rgb(235,44,70)" stroke="rgb(235,44,70)" stroke-width="1" opacity="1" d="M 29.5 100 L 30 124.5 L 29 124.5 L 28 117.5 L 29 116.5 L 29 108.5 L 28 105.5 L 29.5 100 Z " /><path fill="rgb(235,44,70)" stroke="rgb(235,44,70)" stroke-width="1" opacity="1" d="M 195.5 100 L 197 113.5 L 196 114.5 L 195.5 125 L 195.5 100 Z " /><path fill="rgb(235,44,70)" stroke="rgb(235,44,70)" stroke-width="1" opacity="1" d="M 71.5 102 L 75 104.5 L 73.5 105 L 71.5 102 Z " /><path fill="rgb(235,44,70)" stroke="rgb(235,44,70)" stroke-width="1" opacity="1" d="M 76.5 105 L 80.5 106 L 82 105.5 Q 82.9 108.5 78.5 107 L 76.5 105 Z " /><path fill="rgb(235,44,70)" stroke="rgb(235,44,70)" stroke-width="1" opacity="1" d="M 87.5 105 L 91 106.5 L 88.5 107 Q 87 104.5 85.5 108 L 83 107.5 L 87.5 105 Z " /><path fill="rgb(235,44,70)" stroke="rgb(235,44,70)" stroke-width="1" opacity="1" d="M 135.5 105 L 136.5 107 L 134 106.5 L 135.5 105 Z " /><path fill="rgb(235,44,70)" stroke="rgb(235,44,70)" stroke-width="1" opacity="1" d="M 139.5 107 L 142 107.5 L 139.5 108 L 139.5 107 Z " /><path fill="rgb(235,44,70)" stroke="rgb(235,44,70)" stroke-width="1" opacity="1" d="M 1.5 115 L 3 123.5 L 1.5 126 L 1.5 115 Z " /><path fill="rgb(235,44,70)" stroke="rgb(235,44,70)" stroke-width="1" opacity="1" d="M 83.5 117 L 86 117.5 L 76.5 120 L 76.5 119 L 83.5 117 Z " /><path fill="rgb(235,44,70)" stroke="rgb(235,44,70)" stroke-width="1" opacity="1" d="M 139.5 117 L 142 117.5 L 138.5 119 L 139.5 117 Z " /><path fill="rgb(235,44,70)" stroke="rgb(235,44,70)" stroke-width="1" opacity="1" d="M 88.5 118 L 91 118.5 L 89.5 120 L 87 119.5 L 88.5 118 Z " /><path fill="rgb(235,44,70)" stroke="rgb(235,44,70)" stroke-width="1" opacity="1" d="M 134.5 118 L 137 118.5 Q 134.9 121.8 134.5 118 Z " /><path fill="rgb(235,44,70)" stroke="rgb(235,44,70)" stroke-width="1" opacity="1" d="M 144.5 118 L 149 119.5 L 145.5 120 L 144.5 118 Z " /><path fill="rgb(235,44,70)" stroke="rgb(235,44,70)" stroke-width="1" opacity="1" d="M 92.5 119 Q 100.4 121.1 104 127.5 L 106 132.5 L 105 132.5 L 101.5 126 L 99 124.5 L 97.5 122 L 92.5 120 L 92.5 119 Z " /><path fill="rgb(235,44,70)" stroke="rgb(235,44,70)" stroke-width="1" opacity="1" d="M 131.5 119 L 133 119.5 L 126 123.5 L 124.5 126 L 122 127.5 L 119.5 133 L 119 131.5 L 127.5 121 L 131.5 119 Z " /><path fill="rgb(235,44,70)" stroke="rgb(235,44,70)" stroke-width="1" opacity="1" d="M 223.5 119 L 224 121.5 L 222.5 133 L 222 127.5 L 223 124.5 L 223 122.5 L 222 120.5 L 223.5 119 Z " /><path fill="rgb(235,44,70)" stroke="rgb(235,44,70)" stroke-width="1" opacity="1" d="M 73.5 120 L 75 120.5 L 71.5 123 L 73.5 120 Z " /><path fill="rgb(235,44,70)" stroke="rgb(235,44,70)" stroke-width="1" opacity="1" d="M 150.5 120 L 154 122.5 L 153.5 124 L 153 122 L 150.5 120 Z " /><path fill="rgb(235,44,70)" stroke="rgb(235,44,70)" stroke-width="1" opacity="1" d="M 69.5 123 L 70 124.5 L 65 130.5 L 66 132.5 L 64 132.5 L 63.5 135 L 63 132.5 L 69.5 123 Z " /><path fill="rgb(235,44,70)" stroke="rgb(235,44,70)" stroke-width="1" opacity="1" d="M 155.5 123 Q 158.5 124.5 155.5 126 L 155.5 123 Z " /><path fill="rgb(235,44,70)" stroke="rgb(235,44,70)" stroke-width="1" opacity="1" d="M 30.5 126 L 35 143 Q 31.3 144.3 33 138.5 L 32 135 L 30 134.5 L 31 132.5 Q 28.4 130.9 30.5 126 Z " /><path fill="rgb(235,44,70)" stroke="rgb(235,44,70)" stroke-width="1" opacity="1" d="M 157.5 126 Q 161.4 128.6 162 134.5 L 161 134.5 L 160.5 132 L 159 132.5 L 160 130.5 L 157.5 126 Z " /><path fill="rgb(235,44,70)" stroke="rgb(235,44,70)" stroke-width="1" opacity="1" d="M 194.5 126 L 195 129.5 L 194 129.5 L 194.5 126 Z " /><path fill="rgb(235,44,70)" stroke="rgb(235,44,70)" stroke-width="1" opacity="1" d="M 2.5 127 L 3 132.5 L 2 132.5 L 2.5 127 Z " /><path fill="rgb(235,44,70)" stroke="rgb(235,44,70)" stroke-width="1" opacity="1" d="M 193.5 131 L 195 132.5 L 194.5 135 Q 191.9 134.2 193 137.5 L 192 143 L 190 142.5 L 193.5 131 Z " /><path fill="rgb(235,44,70)" stroke="rgb(235,44,70)" stroke-width="1" opacity="1" d="M 3.5 134 L 6 140.5 L 4 141.5 L 3.5 134 Z " /><path fill="rgb(235,44,70)" stroke="rgb(235,44,70)" stroke-width="1" opacity="1" d="M 106.5 134 L 108 141.5 L 107 141.5 L 106.5 134 Z " /><path fill="rgb(235,44,70)" stroke="rgb(235,44,70)" stroke-width="1" opacity="1" d="M 118.5 134 L 120 137.5 L 118 136.5 L 118.5 134 Z " /><path fill="rgb(235,44,70)" stroke="rgb(235,44,70)" stroke-width="1" opacity="1" d="M 221.5 134 L 222 138.5 L 220.5 142 Q 217.7 140.8 220 139.5 L 221.5 134 Z " /><path fill="rgb(235,44,70)" stroke="rgb(235,44,70)" stroke-width="1" opacity="1" d="M 62.5 136 L 64 147.5 L 63 147.5 Q 60.8 143 62.5 136 Z " /><path fill="rgb(235,44,70)" stroke="rgb(235,44,70)" stroke-width="1" opacity="1" d="M 162.5 136 L 163 144.5 L 160.5 150 Q 158.3 150.8 159 148.5 L 161 148.5 L 162.5 136 Z " /><path fill="rgb(235,44,70)" stroke="rgb(235,44,70)" stroke-width="1" opacity="1" d="M 117.5 138 L 118 141.5 L 117 141.5 L 117.5 138 Z " /><path fill="rgb(235,44,70)" stroke="rgb(235,44,70)" stroke-width="1" opacity="1" d="M 5.5 143 L 8 147.5 L 8 149.5 L 7.5 151 L 5 145.5 L 5.5 143 Z " /><path fill="rgb(235,44,70)" stroke="rgb(235,44,70)" stroke-width="1" opacity="1" d="M 219.5 143 L 220 145.5 L 218 151 Q 215 152 216 149 L 218 148.5 Q 215.5 147 219 145.5 L 219.5 143 Z " /><path fill="rgb(235,44,70)" stroke="rgb(235,44,70)" stroke-width="1" opacity="1" d="M 35.5 144 L 41 154.5 L 39 153.5 L 35 145.5 L 35.5 144 Z " /><path fill="rgb(235,44,70)" stroke="rgb(235,44,70)" stroke-width="1" opacity="1" d="M 118.5 144 Q 120.8 144.8 120 148.5 L 119 148.5 L 118.5 144 Z " /><path fill="rgb(235,44,70)" stroke="rgb(235,44,70)" stroke-width="1" opacity="1" d="M 189.5 144 L 190 145.5 L 184.5 155 L 185 153.5 L 189.5 144 Z " /><path fill="rgb(235,44,70)" stroke="rgb(235,44,70)" stroke-width="1" opacity="1" d="M 65.5 147 L 66 150 L 64 149.5 L 65.5 147 Z " /><path fill="rgb(235,44,70)" stroke="rgb(235,44,70)" stroke-width="1" opacity="1" d="M 103 150 Q 105.7 148.9 105 151.5 L 101.5 154 L 101.5 153 Q 104.5 153.7 103 150 Z " /><path fill="rgb(235,44,70)" stroke="rgb(235,44,70)" stroke-width="1" opacity="1" d="M 120.5 150 L 122 153 L 124 153.5 L 122.5 154 Q 118.9 152.9 120.5 150 Z " /><path fill="rgb(235,44,70)" stroke="rgb(235,44,70)" stroke-width="1" opacity="1" d="M 65.5 151 L 67 154 L 69 154 L 69 156 L 71 156 Q 69.9 158.7 72.5 158 L 73.5 160 L 66 153.5 L 65.5 151 Z " /><path fill="rgb(235,44,70)" stroke="rgb(235,44,70)" stroke-width="1" opacity="1" d="M 159.5 151 L 159 152.5 L 153.5 159 L 149.5 161 L 148 160.5 Q 148.8 163.1 145.5 162 L 144.5 163 L 136.5 163 L 136.5 162 L 144.5 162 L 148.5 159 L 154 158 L 154 156 L 156 156 L 156 154 Q 158.7 155.1 158 152.5 L 159.5 151 Z " /><path fill="rgb(235,44,70)" stroke="rgb(235,44,70)" stroke-width="1" opacity="1" d="M 8.5 152 L 12 157.5 L 12 160.5 L 16 169 L 18 169.5 L 16.5 170 L 10 158.5 L 10.5 157 Q 7.9 157.8 9 154.5 L 8.5 152 Z " /><path fill="rgb(235,44,70)" stroke="rgb(235,44,70)" stroke-width="1" opacity="1" d="M 216.5 152 L 217 153.5 L 216 157 L 214 157.5 L 214 159.5 L 208.5 170 L 207 169.5 L 209 169 L 213 160.5 L 213 157.5 L 216.5 152 Z " /><path fill="rgb(235,44,70)" stroke="rgb(235,44,70)" stroke-width="1" opacity="1" d="M 99.5 155 L 102 155.5 Q 98.1 160.6 90.5 162 L 90.5 161 L 93 160.5 L 92.5 159 L 94.5 160 L 99 156.5 L 99.5 155 Z " /><path fill="rgb(235,44,70)" stroke="rgb(235,44,70)" stroke-width="1" opacity="1" d="M 123.5 155 L 126 155.5 Q 123.9 158.8 123.5 155 Z " /><path fill="rgb(235,44,70)" stroke="rgb(235,44,70)" stroke-width="1" opacity="1" d="M 41.5 156 L 45 160.5 L 42.5 162 L 43 160.5 L 41.5 156 Z " /><path fill="rgb(235,44,70)" stroke="rgb(235,44,70)" stroke-width="1" opacity="1" d="M 183.5 156 L 183 157.5 L 182 160.5 L 182.5 162 L 180 160.5 L 183.5 156 Z " /><path fill="rgb(235,44,70)" stroke="rgb(235,44,70)" stroke-width="1" opacity="1" d="M 126.5 157 L 130.5 160 L 132 159.5 Q 131.2 162.1 134.5 161 L 134.5 162 Q 127.6 161.3 126.5 157 Z " /><path fill="rgb(235,44,70)" stroke="rgb(235,44,70)" stroke-width="1" opacity="1" d="M 75 159 L 78 159.5 L 75.5 161 L 75 159 Z " /><path fill="rgb(235,44,70)" stroke="rgb(235,44,70)" stroke-width="1" opacity="1" d="M 77.5 161 L 89 162.5 L 80.5 163 L 77.5 162 L 77.5 161 Z " /><path fill="rgb(235,44,70)" stroke="rgb(235,44,70)" stroke-width="1" opacity="1" d="M 45.5 162 L 48.5 166 L 45 163.5 L 45.5 162 Z " /><path fill="rgb(235,44,70)" stroke="rgb(235,44,70)" stroke-width="1" opacity="1" d="M 179.5 162 L 180 163.5 L 176.5 166 L 179.5 162 Z " /><path fill="rgb(235,44,70)" stroke="rgb(235,44,70)" stroke-width="1" opacity="1" d="M 49.5 167 L 57.5 176 L 49.5 167 Z " /><path fill="rgb(235,44,70)" stroke="rgb(235,44,70)" stroke-width="1" opacity="1" d="M 175.5 167 L 167.5 176 L 175.5 167 Z " /><path fill="rgb(235,44,70)" stroke="rgb(235,44,70)" stroke-width="1" opacity="1" d="M 17.5 171 Q 19.8 170.3 19 172.5 L 21 175.5 L 18 173.5 L 17.5 171 Z " /><path fill="rgb(235,44,70)" stroke="rgb(235,44,70)" stroke-width="1" opacity="1" d="M 206 171 L 208 171.5 L 204.5 176 L 204 174.5 L 206 171 Z " /><path fill="rgb(235,44,70)" stroke="rgb(235,44,70)" stroke-width="1" opacity="1" d="M 59.5 176 L 62.5 180 L 60 178.5 L 59.5 176 Z " /><path fill="rgb(235,44,70)" stroke="rgb(235,44,70)" stroke-width="1" opacity="1" d="M 165.5 176 L 165 177.5 L 163.5 180 L 162 179.5 L 165.5 176 Z " /><path fill="rgb(235,44,70)" stroke="rgb(235,44,70)" stroke-width="1" opacity="1" d="M 21.5 177 Q 23.8 176.3 23 178.5 L 21.5 177 Z " /><path fill="rgb(235,44,70)" stroke="rgb(235,44,70)" stroke-width="1" opacity="1" d="M 202 177 L 204 177.5 L 202 178.5 L 202 177 Z " /><path fill="rgb(235,44,70)" stroke="rgb(235,44,70)" stroke-width="1" opacity="1" d="M 23.5 180 L 28 183.5 L 26.5 184 L 23.5 180 Z " /><path fill="rgb(235,44,70)" stroke="rgb(235,44,70)" stroke-width="1" opacity="1" d="M 64.5 180 L 69 183.5 L 67.5 183 L 64.5 182 L 63 182.5 L 64.5 180 Z " /><path fill="rgb(235,44,70)" stroke="rgb(235,44,70)" stroke-width="1" opacity="1" d="M 160.5 180 L 162 182.5 L 160.5 182 L 156.5 184 L 157.5 182 L 160.5 180 Z " /><path fill="rgb(235,44,70)" stroke="rgb(235,44,70)" stroke-width="1" opacity="1" d="M 201.5 180 L 198.5 184 L 197 183.5 L 199 183 Q 197.9 180.3 200.5 181 L 201.5 180 Z " /><path fill="rgb(235,44,70)" stroke="rgb(235,44,70)" stroke-width="1" opacity="1" d="M 70.5 184 L 83.5 191 L 94 193.5 L 90.5 195 L 90 193 L 82.5 192 L 71.5 186 L 70.5 184 Z " /><path fill="rgb(235,44,70)" stroke="rgb(235,44,70)" stroke-width="1" opacity="1" d="M 154.5 184 L 153.5 186 L 144.5 190 L 144.5 189 L 154.5 184 Z " /><path fill="rgb(235,44,70)" stroke="rgb(235,44,70)" stroke-width="1" opacity="1" d="M 27.5 185 Q 29.8 184.3 29 186.5 L 39.5 198 L 27.5 185 Z " /><path fill="rgb(235,44,70)" stroke="rgb(235,44,70)" stroke-width="1" opacity="1" d="M 196 185 L 198 185.5 L 185 197.5 Q 184.3 195.3 186.5 196 L 196 186.5 L 196 185 Z " /><path fill="rgb(235,44,70)" stroke="rgb(235,44,70)" stroke-width="1" opacity="1" d="M 141.5 190 Q 144.1 189.3 143 192 Q 137.5 191.2 134.5 194 L 135.5 192 L 141.5 190 Z " /><path fill="rgb(235,44,70)" stroke="rgb(235,44,70)" stroke-width="1" opacity="1" d="M 131.5 193 L 133 193.5 Q 131.3 195.8 126.5 195 L 126.5 194 L 131.5 193 Z " /><path fill="rgb(235,44,70)" stroke="rgb(235,44,70)" stroke-width="1" opacity="1" d="M 95.5 194 L 99 194.5 L 95.5 195 L 95.5 194 Z " /><path fill="rgb(235,44,70)" stroke="rgb(235,44,70)" stroke-width="1" opacity="1" d="M 100.5 195 L 125 195.5 L 117.5 197 L 114.5 196 L 111.5 197 L 110.5 196 L 100.5 196 L 100.5 195 Z " /><path fill="rgb(235,44,70)" stroke="rgb(235,44,70)" stroke-width="1" opacity="1" d="M 183.5 197 L 184 198.5 L 177.5 204 L 177 202.5 L 181 199.5 L 180.5 198 Q 182 200.5 183.5 197 Z " /><path fill="rgb(235,44,70)" stroke="rgb(235,44,70)" stroke-width="1" opacity="1" d="M 41.5 198 L 43.5 199 L 45 198.5 Q 42.8 199.8 45.5 201 L 48 202.5 L 47.5 204 L 41.5 198 Z " /><path fill="rgb(235,44,70)" stroke="rgb(235,44,70)" stroke-width="1" opacity="1" d="M 49.5 204 L 54 206 L 53.5 208 L 49.5 204 Z " /><path fill="rgb(235,44,70)" stroke="rgb(235,44,70)" stroke-width="1" opacity="1" d="M 175.5 204 L 173.5 207 L 171.5 208 L 172.5 206 L 175.5 204 Z " /><path fill="rgb(235,44,70)" stroke="rgb(235,44,70)" stroke-width="1" opacity="1" d="M 55.5 207 L 56 209 L 61.5 211 L 63 210.5 L 62.5 212 L 69 213 Q 67.9 215.7 70.5 215 L 73 216.5 L 71.5 217 L 68 216 L 67.5 214 L 65.5 214 L 55 208.5 L 55.5 207 Z " /><path fill="rgb(235,44,70)" stroke="rgb(235,44,70)" stroke-width="1" opacity="1" d="M 169.5 207 L 170 208.5 L 158.5 215 L 157 214.5 Q 157.8 217.1 154.5 216 L 152.5 217 L 152.5 216 L 163 211.5 L 162.5 210 L 164.5 211 L 169 209 L 169.5 207 Z " /><path fill="rgb(235,44,70)" stroke="rgb(235,44,70)" stroke-width="1" opacity="1" d="M 74.5 216 L 76.5 216 L 79.5 219 L 82 219.5 L 79.5 220 L 74 218 L 74.5 216 Z " /><path fill="rgb(235,44,70)" stroke="rgb(235,44,70)" stroke-width="1" opacity="1" d="M 148.5 216 L 151 217.5 L 143.5 220 L 143.5 219 Q 148 219.5 148.5 216 Z " /><path fill="rgb(235,44,70)" stroke="rgb(235,44,70)" stroke-width="1" opacity="1" d="M 84.5 219 L 91 221.5 L 86.5 222 L 83 220.5 L 84.5 219 Z " /><path fill="rgb(235,44,70)" stroke="rgb(235,44,70)" stroke-width="1" opacity="1" d="M 140.5 219 L 141.5 221 L 134.5 222 L 134.5 221 Q 139.1 221.6 140.5 219 Z " /><path fill="rgb(235,44,70)" stroke="rgb(235,44,70)" stroke-width="1" opacity="1" d="M 92.5 222 L 98 222.5 L 92.5 223 L 92.5 222 Z " /><path fill="rgb(235,44,70)" stroke="rgb(235,44,70)" stroke-width="1" opacity="1" d="M 101.5 222 L 105 223.5 L 99.5 224 L 99.5 223 L 101.5 222 Z " /><path fill="rgb(235,44,70)" stroke="rgb(235,44,70)" stroke-width="1" opacity="1" d="M 120.5 222 L 123.5 223 L 126 223.5 L 120 224 L 120.5 222 Z " /><path fill="rgb(235,44,70)" stroke="rgb(235,44,70)" stroke-width="1" opacity="1" d="M 127.5 222 L 133 222.5 L 127.5 223 L 127.5 222 Z " /><path fill="rgb(255,255,255)" stroke="rgb(255,255,255)" stroke-width="1" opacity="1" d="M 0 0 L 86 0.5 L 85.5 3 L 83.5 3 L 75.5 3 L 74.5 6 L 66.5 6 L 67 7.5 Q 67.8 9.8 65.5 9 L 63.5 9 Q 59.1 7.5 60 10.5 L 60.5 12 L 54 12 L 54 15 Q 49.5 13.5 51 18 L 46.5 18 L 45 21 Q 40.9 19.3 42 23.5 L 36 28.5 Q 36.9 31.5 32.5 30 L 33 31.5 Q 33.8 33.8 31.5 33 L 30 32.5 L 30 36 L 27 36 L 27 39 L 24 39 L 24 42 L 21 42 Q 22.5 45.7 19.5 45 L 16.5 52 Q 13.9 51.3 15 54 L 12 54 L 12 60.5 L 10.5 60 Q 7.5 59.1 9 63.5 L 9 65.5 Q 9.8 67.8 7.5 67 L 6 66.5 L 6 74.5 L 3 75.5 L 3 84.5 L 1 85.5 L 1.5 84 L 0 83.5 L 0 0 Z " /><path fill="rgb(255,255,255)" stroke="rgb(255,255,255)" stroke-width="1" opacity="1" d="M 138 0 Q 141.3 -1.1 140 3 Q 136.7 4.1 138 0 Z " /><path fill="rgb(255,255,255)" stroke="rgb(255,255,255)" stroke-width="1" opacity="1" d="M 141 0 L 225 0 L 225 85.5 Q 223.5 88.5 222 85.5 L 222 83.5 L 222 75.5 L 219 75 L 219 66.5 L 216 66 L 216 60.5 L 214.5 61 L 213 60.5 L 213 54 Q 208.9 55.7 210 51.5 L 207 50.5 Q 208 46 205.5 45 L 204 45 L 204 42 L 201 42 L 201 39 Q 197.2 40.5 198 37.5 L 195 36 L 192 31.5 L 192.5 30 L 189 30 L 189 27 L 186 27 L 186 24 L 183 24 L 183 21 Q 179.2 22.5 180 19.5 Q 178.6 16.8 174 18 L 174 15 Q 169.5 16.5 171 12 L 164.5 12 L 165 10.5 Q 165.9 7.5 161.5 9 L 159.5 9 Q 157.3 9.8 158 7.5 L 158.5 6 L 150.5 6 L 150 3 L 141 3 L 141 0 Z " /><path fill="rgb(255,255,255)" stroke="rgb(255,255,255)" stroke-width="1" opacity="1" d="M 110.5 30 L 115 30.5 L 110.5 31 L 110.5 30 Z " /><path fill="rgb(255,255,255)" stroke="rgb(255,255,255)" stroke-width="1" opacity="1" d="M 103.5 31 Q 104.8 34.3 110.5 33 L 113.5 32 L 116.5 33 Q 120.8 33.8 121.5 31 L 121.5 33 L 128.5 32 Q 129.7 34.3 134.5 33 Q 135 36.5 139.5 36 L 141.5 36 L 144 37.5 L 143.5 39 L 149.5 39 L 150 42 L 153.5 42 L 153.5 44 L 160 45.5 L 159 48 L 163 48.5 L 162 51 Q 165.8 49.5 165 52.5 L 168 53.5 L 168.5 55 L 171 54 L 170 56.5 L 171 59 L 174 59 L 174 63 L 177 63 Q 175.5 66.7 178.5 66 L 180 65.5 Q 178.8 71.6 181.5 71 L 183 75 L 186 75 L 186 81.5 L 189 82.5 L 189 89.5 L 192 90 L 192 96.5 L 192 98.5 L 192.5 104 L 194 103.5 L 192 105.5 L 192 114.5 L 193 114.5 Q 191.3 108.7 195 110 L 195 115 L 193.5 115 Q 191.3 115.8 192 119.5 L 193.5 122 L 192 121.5 L 193 128.5 Q 190.7 129.7 192 134.5 L 189 137.5 L 188 141.5 L 188.5 143 L 186 144.5 L 186 150 L 183 150 Q 184.9 155.6 180 154 L 180 159.5 L 178.5 159 Q 175.9 158.2 177 161.5 L 174 162.5 L 173.5 166 Q 172.3 163.8 171 166.5 L 170 168.5 L 171 171 L 168.5 170 L 167.5 172 Q 166.3 169.8 165 172.5 L 165 174 Q 161.2 172.5 162 175.5 L 162.5 177 Q 158.1 175.5 159 178.5 L 159.5 180 L 153 181.5 L 153.5 183 Q 148.3 181.5 150 186 L 144.5 186 L 142.5 189 L 140.5 189 L 136.5 190 L 135 189.5 L 135 192 L 129.5 192 L 127.5 193 Q 126.2 190.7 121.5 192 L 121.5 194 Q 120.2 190.7 114.5 192 L 115 193.5 L 115 195 L 110 195 L 111 192.5 L 105.5 192 L 103 193.5 L 103.5 192 Q 98.8 190.7 97.5 193 L 96.5 192 L 90 192 L 89.5 189 L 88.5 191 L 88 189 Q 82.8 191.1 84 186.5 L 83 186.5 Q 84 190.3 81 189 L 81 186 L 75 186 Q 76.7 181.9 72.5 183 Q 70.6 179.4 66 180 L 66 177 L 63 177 Q 64.5 173.3 61.5 174 Q 60.3 176.3 59 173.5 L 57 170.5 L 55.5 171 Q 53.3 171.8 54 169.5 L 54.5 168 L 53 167.5 Q 55.3 166.3 52.5 165 L 51 165.5 L 51 162 L 48 162 Q 49.5 158.3 46.5 159 L 45 159.5 L 44 154 Q 40.3 155.2 42 150 L 39 150 L 39 141.5 L 38 141.5 L 36.5 144 L 36 135 Q 31.1 136.8 33 130.5 L 32 127.5 Q 34.3 126.2 33 121.5 L 31 121.5 Q 34.3 120.2 33 114.5 L 31.5 115 Q 28.1 115.9 30 110.5 L 31.5 111 L 33 110.5 L 33 108.5 Q 33.8 104.3 31 103.5 L 33 103.5 Q 34.3 98.8 32 97.5 L 33 96.5 L 33 90 L 36 89.5 L 36 87.5 Q 34.8 82.3 37.5 81 L 39 81.5 L 38 79.5 L 39 75 L 42 75 L 42 71 Q 44.7 72.1 44 69.5 L 45.5 65 L 48 66 Q 46.5 61.5 51 63 L 51 59.5 L 54 58.5 L 53.5 57 L 55 56.5 L 54 54 L 56.5 55 L 57 53 Q 59.7 54.1 59 51.5 Q 60.3 48.8 61.5 51 L 63 51 L 63 48 Q 66.7 49.5 66 46.5 L 65.5 45 L 68.5 45 Q 70.4 41.4 75 42 L 75 39 L 81.5 39 L 82.5 36 L 89.5 36 L 90 33 L 94.5 33 L 97.5 32 Q 98.8 34.3 103.5 33 L 103.5 31 Z M 75 60 L 75 63 L 69 63 Q 71 68 66 66 L 66 69 L 63 69 L 63 75 L 60 75 L 61 78 Q 59 79 60 84 L 60 86 L 60 93 L 63 93 L 63 99 Q 68 98 66 102 L 69 102 L 69 105 L 72 104 L 72 108 L 96 108 L 96 105 L 100 104 L 102 105 L 102 104 Q 100 102 103 101 L 105 102 L 104 101 L 105 99 Q 104 94 108 96 L 108 73 L 105 72 L 104 69 Q 100 70 102 66 L 99 66 L 99 63 L 93 63 L 93 60 L 87 60 L 86 61 L 75 60 Z M 132 60 L 132 63 L 126 63 L 126 66 L 123 66 L 123 69 L 120 69 L 120 72 Q 116 70 117 75 L 117 77 L 117 96 L 120 96 L 121 100 L 120 102 L 122 102 Q 123 100 124 103 L 123 105 L 125 104 L 127 105 Q 131 104 129 108 L 153 108 Q 152 104 156 105 L 156 102 L 159 102 L 159 99 L 162 99 L 162 93 L 165 93 L 165 87 L 164 86 L 165 82 L 165 75 L 162 75 L 162 69 Q 158 71 159 66 L 156 66 L 156 63 L 152 64 L 150 60 L 144 60 L 143 61 L 132 60 Z M 110 84 L 109 87 L 110 87 L 110 84 Z M 116 84 L 115 87 L 116 87 L 116 84 Z M 72 117 L 72 121 L 69 122 Q 70 124 66 123 L 66 126 L 63 126 L 63 128 L 63 130 Q 64 134 60 132 L 60 139 L 61 140 L 60 147 L 60 149 Q 59 151 63 150 Q 65 151 63 153 L 63 156 Q 68 155 66 159 L 69 159 L 69 162 L 74 161 L 75 165 L 84 165 L 85 164 L 87 165 L 93 165 L 93 162 L 99 162 Q 98 158 102 159 L 102 156 L 105 155 Q 104 152 108 153 L 108 130 L 105 129 L 104 126 L 105 124 L 104 123 Q 102 125 101 123 L 102 121 L 101 121 L 99 120 L 96 120 L 96 117 L 72 117 Z M 129 117 L 129 120 L 126 121 L 124 120 L 123 122 Q 125 123 123 124 L 121 123 L 121 125 L 120 127 Q 121 131 117 129 L 117 149 L 119 151 L 117 151 L 117 153 L 120 153 L 120 156 L 123 156 L 123 159 L 126 159 Q 124 163 128 162 L 130 162 Q 134 161 132 165 L 137 165 L 140 164 L 144 165 L 150 165 L 150 162 L 156 162 Q 155 158 159 159 L 159 156 L 162 156 L 161 152 L 165 150 L 164 140 L 165 137 L 165 132 L 162 132 L 162 126 L 159 126 L 159 123 L 156 123 Q 157 119 155 120 L 153 121 L 153 117 L 129 117 Z M 110 138 L 109 141 L 110 141 L 110 138 Z M 112 193 L 112 194 L 114 194 L 112 193 Z " /><path fill="rgb(255,255,255)" stroke="rgb(255,255,255)" stroke-width="1" opacity="1" d="M 0 138 Q 4.1 136.7 3 140 Q -1.1 141.3 0 138 Z " /><path fill="rgb(255,255,255)" stroke="rgb(255,255,255)" stroke-width="1" opacity="1" d="M 222.5 139 L 225 139.5 L 225 225 L 141.5 225 L 141 222 L 150 222 L 150.5 219 L 158.5 219 L 158 217.5 Q 157.3 215.3 159.5 216 L 161.5 216 Q 165.9 217.5 165 214.5 L 164.5 213 L 171 213 Q 169.3 208.9 173.5 210 L 174.5 207 Q 179 208 180 205.5 L 180 204 L 183 204 L 183 201 L 186 201 L 186 198 L 189 198 Q 187.5 194.3 190.5 195 L 195 189 Q 199.1 190.7 198 186.5 L 201 185.5 L 201 183 L 204 183 Q 202.5 179.2 205.5 180 L 208.5 173 L 210 173.5 Q 208.9 169.3 213 171 L 213 164.5 L 214.5 164 L 216 164.5 L 215 160.5 L 216 158 L 218.5 159 L 219.5 149 L 222 150 L 221 147.5 L 223 140.5 L 222.5 139 Z " /><path fill="rgb(255,255,255)" stroke="rgb(255,255,255)" stroke-width="1" opacity="1" d="M 0 141 L 3 141 L 3 149.5 L 6 150 L 6 158.5 L 7.5 159 L 9 158.5 L 11 161.5 L 9 161.5 Q 7.5 165.9 10.5 165 L 12 164.5 Q 10.8 169.8 13.5 171 L 16.5 173 L 19.5 180 L 21 180 L 21 183 L 24 183 L 24 186 L 27 186 L 27 189 Q 30.8 187.5 30 190.5 Q 34.2 192.8 32.5 195 L 36 195 L 36 198 L 39 198 L 39 201 L 42 201 L 42 204 Q 46.1 202.3 45 206.5 L 47.5 207 Q 52.3 205.3 51 209.5 L 54 210.5 L 54 213 L 59.5 213 L 60.5 216 L 64 215.5 L 63.5 214 L 67 216 L 66 218.5 L 75 219 Q 73.3 223.1 77.5 222 L 77.5 220 Q 79 223.3 84 222 L 83.5 225 L 0 225 L 0 141 Z " /><path fill="rgb(255,255,255)" stroke="rgb(255,255,255)" stroke-width="1" opacity="1" d="M 85.5 222 Q 88.5 221.2 87 225 L 85 224.5 L 85.5 222 Z " /><path fill="rgb(255,255,255)" stroke="rgb(255,255,255)" stroke-width="1" opacity="1" d="M 138 222 Q 141.3 220.9 140 225 Q 136.7 226.1 138 222 Z " /><path fill="rgb(235,45,70)" stroke="rgb(235,45,70)" stroke-width="1" opacity="1" d="M 110.5 0 L 112.5 0 L 115 0 Q 113.9 2.7 116.5 2 L 118.5 2 L 120.5 3 L 123.5 2 L 126.5 1 L 127 3 L 133.5 2 L 134 4 L 141.5 6 L 142.5 4 L 143 6 Q 146.4 5.3 147.5 8 L 149.5 8 L 151.5 7 L 152 9 L 156.5 11 L 158 10.5 L 157.5 12 L 164 13 Q 162.8 16 166.5 15 L 169 16 L 169.5 18 L 171 17.5 Q 170.2 20.1 173.5 19 L 173.5 21 L 176.5 20 L 178.5 24 L 182 25 L 183.5 28 L 184.5 27 L 198 40.5 L 197.5 42 L 200.5 44 L 202 48 L 205 48.5 L 205 50.5 L 206 54 L 208 54.5 L 207.5 56 Q 209.8 55.3 209 57.5 L 213.5 68 L 215 67.5 L 215 69.5 L 216 73 L 218 73.5 L 216 74 Q 214.9 76.7 217.5 76 Q 215.9 77.8 219 79.5 Q 217.9 82.8 220.5 82 L 219 84.5 L 220 85.5 L 221 91 L 223 91.5 L 222 96.5 Q 225.5 98 223 99.5 L 224 107.5 L 223 110 L 225 110 L 225 115 Q 222.3 113.9 223 116.5 L 224 118.5 L 223 121.5 L 222 123.5 L 223 126.5 Q 220.8 127.7 222 132.5 L 222.5 134 Q 219.5 133.1 221 137.5 L 219 140.5 L 220 142.5 L 217 147.5 L 217.5 149 Q 214.9 148.3 216 151 L 218 151.5 L 216 152 L 214 156.5 L 214.5 158 L 213 157.5 L 213 160.5 L 209 169 L 207 169.5 L 209 170.5 L 206 171 L 204 175.5 L 204.5 177 Q 200.8 175.8 202 179.5 L 199 181 Q 200.1 183.7 197.5 183 L 197.5 185 Q 195.3 184.3 196 186.5 L 186.5 196 L 185 196 L 184.5 198 L 183.5 197 L 179.5 201 L 177 202.5 L 176.5 205 Q 175 202.5 173.5 206 L 171 207.5 L 170.5 209 L 169.5 207 L 169 209 L 157 213.5 L 157.5 215 L 155.5 215 L 152 216 L 151.5 218 L 149.5 217 L 145.5 219 Q 142.2 217.9 143 220.5 L 140.5 219 L 139.5 220 L 134 221 L 133.5 223 L 127 222 L 126.5 224 L 122.5 222 L 120 222.5 Q 120.8 225.1 117.5 224 L 115 223 L 115 225 L 110 225 Q 111.1 222.3 108.5 223 L 105.5 224 L 101.5 222 L 98.5 224 L 98 222 L 91.5 223 L 91 221 Q 86.5 221.8 84.5 219 L 82.5 220 L 77.5 217 L 76.5 218 L 74 216.5 L 73.5 218 L 73 216 L 69 215 Q 70.3 211.3 64.5 213 L 56 209 L 55.5 207 L 54.5 209 L 54 206 L 49.5 204 L 48 204.5 L 46.5 201 L 40.5 198 L 29 186.5 Q 29.8 184.3 27.5 185 L 26.5 182 L 23 179.5 Q 24.3 175.8 20.5 177 L 21 175.5 L 19 171 L 17 170.5 L 17.5 169 Q 15.3 169.8 16 167.5 L 11.5 157 L 10 157.5 L 10 155.5 L 9 152 L 7 151.5 L 8 149.5 L 6 145.5 Q 7.1 142.2 4.5 143 L 6 140.5 L 5 139.5 L 4 134 L 2 133.5 L 3 127 L 1 126.5 L 3 123.5 L 2 122.5 L 2 115 Q -1.3 116.3 0 111.5 L 3 104.5 L 1 97.5 L 3 97.5 Q 4.3 92.7 2 91.5 L 4 91 Q 3.2 86.5 6 84.5 L 4.5 82 Q 7.1 82.8 6 79.5 L 8 75.5 L 7 73.5 L 9 73 L 10.5 69 Q 13.9 69.9 12 64.5 L 16 56 L 18 55.5 L 17.5 54 Q 19.8 54.8 19 52.5 L 21 49.5 L 20.5 48 L 24 46.5 Q 28.6 35.1 38.5 29 Q 40.8 29.8 40 27.5 L 42 27.5 Q 41.3 24.9 44 26 L 44 24 L 46.5 24 L 48.5 20 L 50.5 21 L 54 19 L 54.5 16 L 55.5 18 L 56 16 L 67 12 L 67.5 10 L 69.5 10 L 73 9 L 73.5 7 L 75.5 8 L 79.5 6 Q 82.8 7.1 82 4.5 L 83.5 5 L 91 4 L 91.5 2 Q 92.7 4.3 97.5 3 L 106.5 1 L 108.5 1 L 110.5 0 Z M 112 28 L 111 29 L 101 29 L 92 31 L 90 31 L 91 33 L 90 32 L 83 33 Q 80 34 82 36 L 81 35 L 71 39 Q 68 40 70 42 L 69 41 L 66 43 Q 63 42 64 45 L 62 45 L 60 48 L 58 49 L 48 60 L 45 60 Q 47 65 43 64 L 35 80 L 36 82 L 33 82 L 32 90 L 32 92 L 28 106 L 29 109 L 29 117 L 28 118 L 31 134 L 31 135 L 33 134 L 32 136 L 33 139 Q 31 144 36 143 L 35 145 L 37 151 L 43 160 Q 42 162 45 161 L 45 164 L 48 165 L 49 168 L 59 176 L 62 180 Q 65 179 64 182 L 80 190 L 82 189 L 81 191 L 83 192 L 90 193 L 91 193 L 90 195 L 92 194 L 101 196 L 111 196 L 112 197 L 115 196 L 118 197 L 133 194 L 135 194 L 139 192 Q 144 194 143 190 L 145 190 L 149 189 L 160 182 Q 162 183 161 180 L 164 180 L 165 178 L 168 176 L 176 167 L 180 164 Q 179 160 182 161 L 190 146 L 189 144 L 192 143 L 193 136 L 193 134 L 195 135 L 194 132 L 196 125 L 196 115 L 197 114 L 195 95 L 195 93 L 194 91 L 193 91 L 193 90 L 192 87 Q 194 81 190 82 L 190 81 L 189 77 L 182 66 Q 183 63 180 64 L 180 60 Q 175 62 176 58 L 168 49 L 165 49 L 163 45 Q 160 46 161 43 Q 155 42 153 38 L 150 38 L 150 36 L 149 38 L 148 36 L 146 35 L 144 36 L 143 33 L 136 32 L 134 32 L 120 28 L 117 29 L 112 28 Z " /><path fill="rgb(235,45,70)" stroke="rgb(235,45,70)" stroke-width="1" opacity="1" d="M 89.5 62 L 90 64 L 97.5 67 L 99 66.5 L 99 68.5 L 99.5 70 L 101.5 70 L 103 70.5 L 101 71.5 L 103 72 L 104.5 75 L 106 75.5 L 105 78 L 107 78.5 L 106 81.5 L 107 86.5 L 106 90.5 L 106.5 92 Q 104.3 91.3 105 93.5 L 101.5 99 Q 99.3 98.3 100 100.5 L 92 105 L 91.5 107 L 87.5 105 L 86.5 108 L 82 107 L 81.5 105 L 79.5 106 L 76.5 105 L 75 105.5 L 73.5 103 L 71.5 102 L 70 102.5 L 68.5 99 Q 67.3 101.2 66 98.5 L 67 96.5 Q 63.5 95 66 93.5 L 65.5 92 L 64 92.5 Q 65.1 89.2 62.5 90 L 63 88.5 Q 61.9 79.9 65 75.5 L 64.5 74 L 67 72.5 L 67 71 L 69 71 L 69 69 L 71 69 Q 69.9 66.3 72.5 67 L 74.5 64 L 75 66 L 77 65.5 L 76.5 64 L 78.5 64 L 89.5 62 Z " /><path fill="rgb(235,45,70)" stroke="rgb(235,45,70)" stroke-width="1" opacity="1" d="M 135.5 62 L 136.5 63 L 144.5 63 L 147.5 65 L 148.5 63 L 149 64.5 L 148.5 66 L 150.5 65 L 154 67 L 154 69 L 156 69 L 156 71 Q 158.7 69.9 158 72.5 L 161 74.5 L 159 75 L 159.5 77 L 161 76.5 L 162 88.5 L 163 89.5 L 161 90 L 158 97.5 Q 160.3 98.7 157.5 100 L 153 101 Q 154.1 103.7 151.5 103 L 149.5 105 L 145.5 105 L 143.5 107 L 138.5 108 L 135.5 105 L 134.5 106 L 126 101.5 L 124.5 99 L 122 97.5 L 119 90.5 L 120 88 L 117 86.5 L 119 83.5 L 118 81.5 Q 120.8 80.8 120 76.5 L 119.5 75 L 122 73.5 Q 121.3 71.3 123.5 72 L 123.5 71 L 122 70.5 L 125 68.5 L 126.5 66 L 128.5 66 L 135 64 L 135.5 62 Z " /><path fill="rgb(235,45,70)" stroke="rgb(235,45,70)" stroke-width="1" opacity="1" d="M 86.5 117 L 89.5 120 L 92 118.5 Q 91.3 120.8 93.5 120 L 99 123.5 L 100.5 126 L 103 127.5 L 105 133 L 107 133.5 L 106 137.5 Q 108.3 138.8 107 143.5 L 106 145.5 L 106.5 147 Q 104.3 146.3 105 148.5 L 105.5 150 L 103 150 Q 104.5 153.7 101.5 153 L 101.5 154 L 103 154.5 L 100.5 156 L 99 155.5 L 98 157.5 L 98.5 159 L 96.5 159 L 90 161 L 89.5 163 L 88.5 162 L 77.5 161 L 76 161.5 Q 75.3 159.3 77.5 160 L 77.5 159 Q 74.2 157.9 75 160.5 L 74 160.5 L 72.5 158 L 71 158 L 71 156 L 69 156 L 69 154 Q 66.3 155.1 67 152.5 L 64 150.5 L 66 150 L 65.5 147 L 65 149 L 63 148.5 L 64 145.5 L 62 135.5 L 64 135 L 64.5 132 L 66 132.5 L 65 130.5 L 67 127.5 Q 64.8 126.2 67.5 125 Q 68.8 127.3 70 124.5 Q 69.3 122.3 71.5 123 L 75 120.5 L 75.5 119 L 79.5 120 L 86.5 117 Z " /><path fill="rgb(235,45,70)" stroke="rgb(235,45,70)" stroke-width="1" opacity="1" d="M 138.5 117 L 148.5 120 L 150 119.5 L 151.5 122 Q 153.8 121.3 153 123.5 L 154 123.5 L 154.5 122 L 156.5 125 L 159 126.5 L 159 128.5 L 161 135 L 163 135.5 L 160.5 149 L 159 148.5 Q 158.3 150.8 160.5 150 L 160.5 151 L 158 152.5 L 158 154 L 156 154 L 156 156 L 154 156 Q 155.1 158.7 152.5 158 L 148 159.5 L 149 161.5 L 148 161.5 L 147.5 160 L 144.5 162 L 136.5 162 L 135.5 163 L 135 161 Q 131.2 162.5 132 159.5 Q 130.3 161.1 128.5 158 L 126.5 159 L 123.5 155 L 122 154.5 L 124 153.5 L 122 153 L 120.5 150 L 119 149.5 L 120 145.5 Q 116.5 144 118 137.5 L 120 137.5 L 118 133.5 L 120 133 L 123.5 126 L 126 124.5 L 127.5 122 L 134.5 119 L 135.5 120 L 138.5 117 Z " /></svg>