<svg xmlns="http://www.w3.org/2000/svg" viewBox="0 0 32 32">
  <path d="M19.11 17.21c-.27-.13-1.6-.79-1.85-.88-.25-.09-.43-.13-.61.13-.18.27-.7.88-.86 1.06-.16.18-.31.2-.58.07-.27-.13-1.13-.42-2.15-1.35-.8-.71-1.34-1.59-1.5-1.86-.16-.27-.02-.41.11-.54.12-.12.27-.31.4-.47.13-.16.18-.27.27-.45.09-.18.04-.34-.02-.47-.07-.13-.61-1.47-.84-2.01-.22-.53-.44-.46-.61-.47h-.52c-.18 0-.47.07-.72.34-.25.27-.95.93-.95 2.27s.97 2.63 1.11 2.81c.13.18 1.9 2.9 4.6 4.06.64.27 1.14.44 1.53.56.64.2 1.22.17 1.68.1.51-.08 1.6-.65 1.83-1.28.22-.63.22-1.17.16-1.28-.07-.11-.25-.18-.52-.31z"></path>
  <path d="M16 3C8.83 3 3 8.74 3 15.82c0 2.49.72 4.91 2.09 7L3 29l6.37-2.03a13.1 13.1 0 0 0 6.63 1.79h.01C23.17 28.76 29 23.02 29 15.94 29 8.86 23.17 3 16 3zm0 23.42h-.01a10.9 10.9 0 0 1-5.56-1.52l-.4-.24-3.78 1.2 1.23-3.68-.26-.38a10.75 10.75 0 0 1-1.68-5.78C5.54 10.05 10.27 5.35 16 5.35c5.73 0 10.46 4.7 10.46 10.47 0 5.77-4.73 10.6-10.46 10.6z"></path>
</svg>