<svg width="250" height="250" version="1.1" xmlns="http://www.w3.org/2000/svg" desc="Created with imagetracer.js version 1.2.6" ><path fill="rgb(213,243,217)" stroke="rgb(213,243,217)" stroke-width="1" opacity="1" d="M 115.5 56 L 118 56.5 L 115.5 57 L 115.5 56 Z " /><path fill="rgb(213,243,217)" stroke="rgb(213,243,217)" stroke-width="1" opacity="1" d="M 133.5 56 L 136 56.5 L 133.5 57 L 133.5 56 Z " /><path fill="rgb(213,243,217)" stroke="rgb(213,243,217)" stroke-width="1" opacity="1" d="M 91.5 64 L 90.5 66 L 91.5 64 Z " /><path fill="rgb(213,243,217)" stroke="rgb(213,243,217)" stroke-width="1" opacity="1" d="M 85.5 68 L 84.5 70 L 85.5 68 Z " /><path fill="rgb(213,243,217)" stroke="rgb(213,243,217)" stroke-width="1" opacity="1" d="M 115.5 68 L 118 68.5 L 115.5 69 L 115.5 68 Z " /><path fill="rgb(213,243,217)" stroke="rgb(213,243,217)" stroke-width="1" opacity="1" d="M 132.5 68 L 135 68.5 L 132.5 69 L 132.5 68 Z " /><path fill="rgb(213,243,217)" stroke="rgb(213,243,217)" stroke-width="1" opacity="1" d="M 166.5 69 L 167.5 71 L 166.5 69 Z " /><path fill="rgb(213,243,217)" stroke="rgb(213,243,217)" stroke-width="1" opacity="1" d="M 81.5 71 L 71.5 82 L 81.5 71 Z " /><path fill="rgb(213,243,217)" stroke="rgb(213,243,217)" stroke-width="1" opacity="1" d="M 171.5 73 L 176.5 79 L 171.5 73 Z " /><path fill="rgb(213,243,217)" stroke="rgb(213,243,217)" stroke-width="1" opacity="1" d="M 96.5 75 L 95.5 77 L 96.5 75 Z " /><path fill="rgb(213,243,217)" stroke="rgb(213,243,217)" stroke-width="1" opacity="1" d="M 93.5 77 L 92.5 79 L 93.5 77 Z " /><path fill="rgb(213,243,217)" stroke="rgb(213,243,217)" stroke-width="1" opacity="1" d="M 158.5 78 L 159.5 80 L 158.5 78 Z " /><path fill="rgb(213,243,217)" stroke="rgb(213,243,217)" stroke-width="1" opacity="1" d="M 89.5 80 L 86.5 84 L 89.5 80 Z " /><path fill="rgb(213,243,217)" stroke="rgb(213,243,217)" stroke-width="1" opacity="1" d="M 162.5 81 L 168.5 88 L 162.5 81 Z " /><path fill="rgb(213,243,217)" stroke="rgb(213,243,217)" stroke-width="1" opacity="1" d="M 179.5 82 L 180.5 84 L 179.5 82 Z " /><path fill="rgb(213,243,217)" stroke="rgb(213,243,217)" stroke-width="1" opacity="1" d="M 70.5 83 L 68.5 86 L 70.5 83 Z " /><path fill="rgb(213,243,217)" stroke="rgb(213,243,217)" stroke-width="1" opacity="1" d="M 84.5 85 L 80.5 90 L 84.5 85 Z " /><path fill="rgb(213,243,217)" stroke="rgb(213,243,217)" stroke-width="1" opacity="1" d="M 66.5 89 L 65.5 91 L 66.5 89 Z " /><path fill="rgb(213,243,217)" stroke="rgb(213,243,217)" stroke-width="1" opacity="1" d="M 170.5 90 L 171.5 92 L 170.5 90 Z " /><path fill="rgb(213,243,217)" stroke="rgb(213,243,217)" stroke-width="1" opacity="1" d="M 79.5 91 L 78.5 93 L 79.5 91 Z " /><path fill="rgb(213,243,217)" stroke="rgb(213,243,217)" stroke-width="1" opacity="1" d="M 106.5 93 L 107.5 95 L 106.5 93 Z " /><path fill="rgb(213,243,217)" stroke="rgb(213,243,217)" stroke-width="1" opacity="1" d="M 90.5 105 L 91 107.5 L 90 107.5 L 90.5 105 Z " /><path fill="rgb(213,243,217)" stroke="rgb(213,243,217)" stroke-width="1" opacity="1" d="M 90.5 110 L 91 113.5 L 90 113.5 L 90.5 110 Z " /><path fill="rgb(213,243,217)" stroke="rgb(213,243,217)" stroke-width="1" opacity="1" d="M 57.5 111 L 58 113.5 L 57 113.5 L 57.5 111 Z " /><path fill="rgb(213,243,217)" stroke="rgb(213,243,217)" stroke-width="1" opacity="1" d="M 193.5 114 L 194 116.5 L 193 116.5 L 193.5 114 Z " /><path fill="rgb(213,243,217)" stroke="rgb(213,243,217)" stroke-width="1" opacity="1" d="M 111.5 115 L 109.5 118 L 111.5 115 Z " /><path fill="rgb(213,243,217)" stroke="rgb(213,243,217)" stroke-width="1" opacity="1" d="M 181.5 115 L 182 117.5 L 181 117.5 L 181.5 115 Z " /><path fill="rgb(213,243,217)" stroke="rgb(213,243,217)" stroke-width="1" opacity="1" d="M 56.5 118 L 57 131.5 L 56 131.5 L 56.5 118 Z " /><path fill="rgb(213,243,217)" stroke="rgb(213,243,217)" stroke-width="1" opacity="1" d="M 68.5 119 L 69 131.5 L 68 131.5 L 68.5 119 Z " /><path fill="rgb(213,243,217)" stroke="rgb(213,243,217)" stroke-width="1" opacity="1" d="M 111.5 125 L 112.5 127 L 111.5 125 Z " /><path fill="rgb(213,243,217)" stroke="rgb(213,243,217)" stroke-width="1" opacity="1" d="M 96.5 126 L 97.5 128 L 96.5 126 Z " /><path fill="rgb(213,243,217)" stroke="rgb(213,243,217)" stroke-width="1" opacity="1" d="M 98.5 129 L 99.5 131 L 98.5 129 Z " /><path fill="rgb(213,243,217)" stroke="rgb(213,243,217)" stroke-width="1" opacity="1" d="M 114.5 129 L 118.5 134 L 114.5 129 Z " /><path fill="rgb(213,243,217)" stroke="rgb(213,243,217)" stroke-width="1" opacity="1" d="M 181.5 132 L 182 134.5 L 181 134.5 L 181.5 132 Z " /><path fill="rgb(213,243,217)" stroke="rgb(213,243,217)" stroke-width="1" opacity="1" d="M 193.5 132 L 194 135.5 L 193 135.5 L 193.5 132 Z " /><path fill="rgb(213,243,217)" stroke="rgb(213,243,217)" stroke-width="1" opacity="1" d="M 102.5 134 L 105.5 138 L 102.5 134 Z " /><path fill="rgb(213,243,217)" stroke="rgb(213,243,217)" stroke-width="1" opacity="1" d="M 121.5 135 L 122.5 137 L 121.5 135 Z " /><path fill="rgb(213,243,217)" stroke="rgb(213,243,217)" stroke-width="1" opacity="1" d="M 57.5 136 L 58 138.5 L 57 138.5 L 57.5 136 Z " /><path fill="rgb(213,243,217)" stroke="rgb(213,243,217)" stroke-width="1" opacity="1" d="M 139.5 136 L 137.5 139 L 139.5 136 Z " /><path fill="rgb(213,243,217)" stroke="rgb(213,243,217)" stroke-width="1" opacity="1" d="M 110.5 142 L 114.5 147 L 110.5 142 Z " /><path fill="rgb(213,243,217)" stroke="rgb(213,243,217)" stroke-width="1" opacity="1" d="M 116.5 147 L 117.5 149 L 116.5 147 Z " /><path fill="rgb(213,243,217)" stroke="rgb(213,243,217)" stroke-width="1" opacity="1" d="M 119.5 149 L 120.5 151 L 119.5 149 Z " /><path fill="rgb(213,243,217)" stroke="rgb(213,243,217)" stroke-width="1" opacity="1" d="M 76.5 154 L 77.5 156 L 76.5 154 Z " /><path fill="rgb(213,243,217)" stroke="rgb(213,243,217)" stroke-width="1" opacity="1" d="M 154.5 154 L 153.5 156 L 154.5 154 Z " /><path fill="rgb(213,243,217)" stroke="rgb(213,243,217)" stroke-width="1" opacity="1" d="M 173.5 155 L 172.5 157 L 173.5 155 Z " /><path fill="rgb(213,243,217)" stroke="rgb(213,243,217)" stroke-width="1" opacity="1" d="M 170.5 159 L 169.5 161 L 170.5 159 Z " /><path fill="rgb(213,243,217)" stroke="rgb(213,243,217)" stroke-width="1" opacity="1" d="M 182.5 163 L 181.5 165 L 182.5 163 Z " /><path fill="rgb(213,243,217)" stroke="rgb(213,243,217)" stroke-width="1" opacity="1" d="M 179.5 167 L 177.5 170 L 179.5 167 Z " /><path fill="rgb(213,243,217)" stroke="rgb(213,243,217)" stroke-width="1" opacity="1" d="M 160.5 169 L 159.5 171 L 160.5 169 Z " /><path fill="rgb(213,243,217)" stroke="rgb(213,243,217)" stroke-width="1" opacity="1" d="M 168.5 178 L 167.5 180 L 168.5 178 Z " /><path fill="rgb(213,243,217)" stroke="rgb(213,243,217)" stroke-width="1" opacity="1" d="M 116.5 181 L 120 181.5 L 116.5 182 L 116.5 181 Z " /><path fill="rgb(213,243,217)" stroke="rgb(213,243,217)" stroke-width="1" opacity="1" d="M 130.5 181 L 134 181.5 L 130.5 182 L 130.5 181 Z " /><path fill="rgb(213,243,217)" stroke="rgb(213,243,217)" stroke-width="1" opacity="1" d="M 164.5 181 L 163.5 183 L 164.5 181 Z " /><path fill="rgb(213,243,217)" stroke="rgb(213,243,217)" stroke-width="1" opacity="1" d="M 159.5 184 L 158.5 186 L 159.5 184 Z " /><path fill="rgb(213,243,217)" stroke="rgb(213,243,217)" stroke-width="1" opacity="1" d="M 116.5 193 L 120 193.5 L 116.5 194 L 116.5 193 Z " /><path fill="rgb(213,243,217)" stroke="rgb(213,243,217)" stroke-width="1" opacity="1" d="M 130.5 193 L 135 193.5 L 130.5 194 L 130.5 193 Z " /><path fill="rgb(255,255,255)" stroke="rgb(255,255,255)" stroke-width="1" opacity="1" d="M 0 0 L 250 0 L 250 250 L 0 250 L 0 0 Z M 116 56 L 98 61 L 82 71 Q 71 79 65 91 L 58 108 L 56 119 L 57 139 L 61 152 L 65 159 L 56 195 L 91 186 L 94 186 L 107 192 L 117 194 L 135 194 L 148 191 L 164 183 L 175 174 L 183 164 L 189 153 L 194 136 L 194 115 L 192 106 Q 187 90 177 79 Q 166 67 151 60 L 136 56 L 116 56 Z " /><path fill="rgb(255,255,255)" stroke="rgb(255,255,255)" stroke-width="1" opacity="1" d="M 118.5 68 L 131.5 68 L 144.5 71 Q 160.5 77 170 89.5 Q 176.7 97.3 180 108.5 L 182 118.5 L 182 131.5 Q 177.7 156.2 161.5 169 Q 147.8 182.3 120.5 182 L 104.5 178 L 95.5 173 L 90.5 173 L 73 178 L 79 157.5 Q 71.7 148.3 69 134.5 L 69 115.5 Q 71.3 103.3 77 94.5 L 85 84 L 103.5 72 L 118.5 68 Z M 99 93 Q 92 97 90 106 Q 89 115 92 120 L 102 135 Q 114 152 138 158 Q 149 160 154 156 L 159 151 L 161 144 L 160 140 L 148 134 L 141 133 L 135 142 L 121 135 L 109 122 L 109 119 L 114 113 L 114 109 L 108 95 L 107 93 L 99 93 Z " /><path fill="rgb(113,213,125)" stroke="rgb(113,213,125)" stroke-width="1" opacity="1" d="M 118.5 56 L 123 56.5 L 118.5 57 L 118.5 56 Z " /><path fill="rgb(113,213,125)" stroke="rgb(113,213,125)" stroke-width="1" opacity="1" d="M 128.5 56 L 133 56.5 L 128.5 57 L 128.5 56 Z " /><path fill="rgb(113,213,125)" stroke="rgb(113,213,125)" stroke-width="1" opacity="1" d="M 87.5 67 L 86.5 69 L 87.5 67 Z " /><path fill="rgb(113,213,125)" stroke="rgb(113,213,125)" stroke-width="1" opacity="1" d="M 121.5 67 L 130 67.5 L 121.5 68 L 121.5 67 Z " /><path fill="rgb(113,213,125)" stroke="rgb(113,213,125)" stroke-width="1" opacity="1" d="M 83.5 70 L 82.5 72 L 83.5 70 Z " /><path fill="rgb(113,213,125)" stroke="rgb(113,213,125)" stroke-width="1" opacity="1" d="M 168.5 71 L 171.5 75 L 168.5 71 Z " /><path fill="rgb(113,213,125)" stroke="rgb(113,213,125)" stroke-width="1" opacity="1" d="M 91.5 78 L 90.5 80 L 91.5 78 Z " /><path fill="rgb(113,213,125)" stroke="rgb(113,213,125)" stroke-width="1" opacity="1" d="M 160.5 79 L 161.5 81 L 160.5 79 Z " /><path fill="rgb(113,213,125)" stroke="rgb(113,213,125)" stroke-width="1" opacity="1" d="M 176.5 79 L 178.5 82 L 176.5 79 Z " /><path fill="rgb(113,213,125)" stroke="rgb(113,213,125)" stroke-width="1" opacity="1" d="M 85.5 83 L 83.5 86 L 85.5 83 Z " /><path fill="rgb(113,213,125)" stroke="rgb(113,213,125)" stroke-width="1" opacity="1" d="M 180.5 84 L 181.5 86 L 180.5 84 Z " /><path fill="rgb(113,213,125)" stroke="rgb(113,213,125)" stroke-width="1" opacity="1" d="M 169.5 88 L 170.5 90 L 169.5 88 Z " /><path fill="rgb(113,213,125)" stroke="rgb(113,213,125)" stroke-width="1" opacity="1" d="M 97.5 94 L 94.5 98 L 97.5 94 Z " /><path fill="rgb(113,213,125)" stroke="rgb(113,213,125)" stroke-width="1" opacity="1" d="M 113.5 109 L 114 111.5 L 113 111.5 L 113.5 109 Z " /><path fill="rgb(113,213,125)" stroke="rgb(113,213,125)" stroke-width="1" opacity="1" d="M 57.5 114 L 58 116.5 L 57 116.5 L 57.5 114 Z " /><path fill="rgb(113,213,125)" stroke="rgb(113,213,125)" stroke-width="1" opacity="1" d="M 68.5 116 L 69 118.5 L 68 118.5 L 68.5 116 Z " /><path fill="rgb(113,213,125)" stroke="rgb(113,213,125)" stroke-width="1" opacity="1" d="M 193.5 117 L 194 121.5 L 193 121.5 L 193.5 117 Z " /><path fill="rgb(113,213,125)" stroke="rgb(113,213,125)" stroke-width="1" opacity="1" d="M 182.5 120 L 183 129.5 L 182 129.5 L 182.5 120 Z " /><path fill="rgb(113,213,125)" stroke="rgb(113,213,125)" stroke-width="1" opacity="1" d="M 109.5 123 L 110.5 125 L 109.5 123 Z " /><path fill="rgb(113,213,125)" stroke="rgb(113,213,125)" stroke-width="1" opacity="1" d="M 95.5 124 L 96.5 126 L 95.5 124 Z " /><path fill="rgb(113,213,125)" stroke="rgb(113,213,125)" stroke-width="1" opacity="1" d="M 112.5 127 L 113.5 129 L 112.5 127 Z " /><path fill="rgb(113,213,125)" stroke="rgb(113,213,125)" stroke-width="1" opacity="1" d="M 193.5 128 L 194 131.5 L 193 131.5 L 193.5 128 Z " /><path fill="rgb(113,213,125)" stroke="rgb(113,213,125)" stroke-width="1" opacity="1" d="M 100.5 131 L 101.5 133 L 100.5 131 Z " /><path fill="rgb(113,213,125)" stroke="rgb(113,213,125)" stroke-width="1" opacity="1" d="M 119.5 134 L 120.5 136 L 119.5 134 Z " /><path fill="rgb(113,213,125)" stroke="rgb(113,213,125)" stroke-width="1" opacity="1" d="M 106.5 138 L 109.5 142 L 106.5 138 Z " /><path fill="rgb(113,213,125)" stroke="rgb(113,213,125)" stroke-width="1" opacity="1" d="M 137.5 139 L 135.5 142 L 137.5 139 Z " /><path fill="rgb(113,213,125)" stroke="rgb(113,213,125)" stroke-width="1" opacity="1" d="M 114.5 145 L 115.5 147 L 114.5 145 Z " /><path fill="rgb(113,213,125)" stroke="rgb(113,213,125)" stroke-width="1" opacity="1" d="M 157.5 151 L 155.5 154 L 157.5 151 Z " /><path fill="rgb(113,213,125)" stroke="rgb(113,213,125)" stroke-width="1" opacity="1" d="M 172.5 157 L 171.5 159 L 172.5 157 Z " /><path fill="rgb(113,213,125)" stroke="rgb(113,213,125)" stroke-width="1" opacity="1" d="M 169.5 161 L 166.5 165 L 169.5 161 Z " /><path fill="rgb(113,213,125)" stroke="rgb(113,213,125)" stroke-width="1" opacity="1" d="M 164.5 166 L 161.5 170 L 164.5 166 Z " /><path fill="rgb(113,213,125)" stroke="rgb(113,213,125)" stroke-width="1" opacity="1" d="M 176.5 170 L 169.5 178 L 176.5 170 Z " /><path fill="rgb(113,213,125)" stroke="rgb(113,213,125)" stroke-width="1" opacity="1" d="M 158.5 171 L 157.5 173 L 158.5 171 Z " /><path fill="rgb(113,213,125)" stroke="rgb(113,213,125)" stroke-width="1" opacity="1" d="M 72.5 177 L 73.5 179 Q 70.7 179.7 72.5 177 Z " /><path fill="rgb(113,213,125)" stroke="rgb(113,213,125)" stroke-width="1" opacity="1" d="M 166.5 179 L 165.5 181 L 166.5 179 Z " /><path fill="rgb(113,213,125)" stroke="rgb(113,213,125)" stroke-width="1" opacity="1" d="M 56.5 193 L 57.5 195 Q 54.7 195.7 56.5 193 Z " /><path fill="rgb(113,213,125)" stroke="rgb(113,213,125)" stroke-width="1" opacity="1" d="M 120.5 193 L 130 193.5 L 120.5 194 L 120.5 193 Z " /><path fill="rgb(72,201,86)" stroke="rgb(72,201,86)" stroke-width="1" opacity="1" d="M 123.5 56 L 136.5 57 L 153.5 62 Q 166.8 68.2 176 78.5 Q 184.9 88.1 190 101.5 L 193 113.5 L 194 127.5 L 193 128.5 L 192 141.5 L 184 160.5 Q 177.5 171.5 167.5 179 Q 158 187 144.5 191 L 135.5 193 L 114.5 193 L 91.5 185 L 57 194 L 66 158.5 Q 55.5 144 57 117.5 L 61 100.5 L 67 88.5 L 81.5 72 L 99.5 61 L 113.5 57 L 122.5 57 L 123.5 56 Z M 122 67 Q 120 70 114 68 L 100 73 L 86 83 Q 72 95 68 117 L 68 134 L 69 139 Q 72 150 78 158 L 72 179 L 94 173 L 111 181 L 124 182 L 125 183 Q 128 181 136 182 L 149 178 L 162 170 L 175 155 L 181 141 L 183 130 L 183 121 L 181 110 L 171 90 Q 162 77 147 71 L 137 68 L 122 67 Z " /><path fill="rgb(72,201,86)" stroke="rgb(72,201,86)" stroke-width="1" opacity="1" d="M 100.5 93 L 107 94 L 112 105.5 L 113 112.5 L 108 118.5 L 108 121.5 L 120.5 136 L 133.5 143 L 138 139.5 L 141 134 L 145.5 134 L 160 141 Q 160.4 151.1 153.5 155 Q 149.2 158.2 141.5 158 Q 115.5 152 102 133.5 L 92 117.5 Q 89.8 112.7 91 104.5 Q 92.8 97.3 98.5 94 L 100.5 93 Z " /></svg>