<svg width="3840" height="2160" version="1.1" xmlns="http://www.w3.org/2000/svg" desc="Created with imagetracer.js version 1.2.6" ><path fill="rgb(0,0,0)" stroke="rgb(0,0,0)" stroke-width="1" opacity="0" d="M 0 0 L 3840 0 L 3840 2160 L 0 2160 L 0 0 Z M 1878 31 L 1877 32 L 1858 32 L 1857 33 L 1833 34 L 1831 34 L 1830 35 L 1802 37 L 1801 38 L 1794 38 L 1793 39 L 1786 39 L 1785 40 L 1759 43 L 1758 44 L 1752 44 L 1685 58 L 1683 58 L 1618 76 L 1560 96 Q 1496 120 1439 151 Q 1394 175 1354 202 Q 1309 232 1269 266 Q 1266 265 1267 268 L 1249 283 Q 1246 282 1247 285 L 1246 285 L 1231 299 Q 1228 298 1229 301 L 1228 301 L 1213 316 Q 1210 315 1211 318 L 1209 318 L 1209 320 L 1208 320 L 1183 345 Q 1184 347 1181 346 L 1181 348 L 1166 363 Q 1167 365 1164 364 L 1107 433 L 1056 505 Q 1011 574 976 654 L 958 698 L 942 742 L 926 795 L 913 846 L 903 896 L 897 941 L 896 942 L 894 967 L 893 968 L 893 977 L 892 978 L 892 988 L 891 989 L 891 1000 L 891 1002 L 890 1003 L 890 1015 L 890 1017 L 889 1018 L 889 1035 L 889 1037 L 888 1038 L 888 1123 L 888 1125 L 889 1126 L 889 1144 L 890 1145 L 891 1171 L 892 1172 L 893 1193 L 895 1202 L 897 1226 L 898 1227 L 903 1265 L 912 1309 L 912 1311 L 914 1315 L 914 1319 L 923 1355 L 932 1387 L 948 1436 L 973 1500 L 995 1548 Q 1055 1670 1140 1768 Q 1139 1770 1142 1769 L 1142 1771 L 1163 1794 Q 1162 1796 1165 1795 L 1165 1797 L 1167 1797 L 1167 1799 L 1176 1808 Q 1175 1810 1178 1809 L 1182 1815 L 1210 1842 Q 1209 1844 1212 1843 L 1214 1847 L 1239 1868 L 1240 1871 L 1253 1881 Q 1255 1880 1254 1883 Q 1300 1921 1351 1956 L 1387 1979 L 1439 2009 L 1502 2040 L 1555 2062 L 1615 2083 L 1678 2100 L 1680 2100 L 1692 2104 L 1746 2115 L 1752 2115 L 1758 2117 L 1785 2120 L 1786 2121 L 1809 2123 L 1811 2123 L 1821 2125 L 1843 2126 L 1844 2127 L 1876 2128 L 1878 2128 L 1879 2129 L 1961 2129 L 1963 2129 L 1964 2128 L 1996 2127 L 1998 2127 L 1999 2126 L 2009 2126 L 2010 2125 L 2038 2123 L 2040 2123 L 2041 2122 L 2054 2121 L 2056 2121 L 2130 2108 L 2132 2108 L 2139 2106 L 2141 2106 L 2148 2104 L 2150 2104 L 2154 2102 L 2181 2096 L 2223 2084 L 2291 2060 Q 2358 2034 2418 2000 Q 2419 1996 2421 1999 L 2421 1997 Q 2478 1967 2529 1928 Q 2531 1929 2530 1926 L 2537 1922 Q 2539 1923 2538 1920 Q 2566 1902 2591 1878 Q 2593 1879 2592 1877 L 2609 1862 Q 2611 1863 2610 1860 L 2612 1860 L 2612 1858 L 2625 1848 L 2630 1842 Q 2632 1843 2631 1840 L 2633 1840 L 2657 1816 L 2659 1813 L 2663 1810 L 2663 1809 L 2674 1798 Q 2673 1795 2676 1796 L 2676 1794 L 2678 1794 L 2685 1786 Q 2684 1783 2687 1784 L 2708 1759 Q 2707 1756 2710 1757 L 2725 1738 Q 2724 1735 2727 1736 L 2729 1732 L 2768 1680 Q 2793 1642 2816 1603 Q 2840 1561 2860 1516 L 2888 1447 L 2905 1397 L 2914 1366 L 2926 1319 L 2935 1276 L 2940 1241 L 2941 1240 L 2941 1234 L 2942 1233 L 2942 1227 L 2943 1226 L 2945 1203 L 2946 1202 L 2948 1172 L 2949 1171 L 2949 1160 L 2950 1159 L 2950 1145 L 2951 1144 L 2951 1126 L 2951 1124 L 2952 1123 L 2952 1038 L 2952 1036 L 2951 1035 L 2951 1018 L 2951 1016 L 2950 1015 L 2950 1001 L 2949 1000 L 2949 989 L 2948 988 L 2948 978 L 2947 977 L 2947 968 L 2946 967 L 2944 942 L 2943 941 L 2937 896 L 2927 846 L 2905 764 L 2892 725 L 2872 673 Q 2801 503 2686 377 Q 2687 374 2684 375 L 2676 366 Q 2677 363 2674 364 L 2674 363 L 2660 349 Q 2661 346 2658 347 L 2658 345 L 2656 345 L 2656 344 L 2634 321 Q 2631 322 2632 319 L 2630 319 L 2630 317 L 2629 317 L 2615 303 Q 2612 304 2613 302 L 2603 292 Q 2600 293 2601 290 L 2580 272 Q 2577 273 2578 270 L 2573 267 L 2527 230 L 2490 204 Q 2446 175 2400 150 L 2339 120 L 2273 93 L 2206 71 L 2155 58 L 2153 58 L 2151 57 L 2149 57 L 2146 56 L 2144 56 L 2136 53 L 2095 45 L 2089 45 L 2083 43 L 2056 40 L 2055 39 L 2032 37 L 2030 37 L 2020 35 L 1999 34 L 1997 34 L 1996 33 L 1983 33 L 1982 32 L 1965 32 L 1963 32 L 1962 31 L 1880 31 L 1878 31 Z " /><path fill="rgb(134,62,255)" stroke="rgb(134,62,255)" stroke-width="1" opacity="0.5647058823529412" d="M 1879.5 31 L 1901 31.5 L 1879.5 32 L 1879.5 31 Z " /><path fill="rgb(134,62,255)" stroke="rgb(134,62,255)" stroke-width="1" opacity="0.5647058823529412" d="M 1940.5 31 L 1962 31.5 L 1950.5 32 L 1949.5 33 L 1948.5 32 L 1940.5 32 L 1940.5 31 Z " /><path fill="rgb(134,62,255)" stroke="rgb(134,62,255)" stroke-width="1" opacity="0.5647058823529412" d="M 1857.5 32 L 1870 32.5 L 1859.5 33 L 1858.5 34 L 1857.5 32 Z " /><path fill="rgb(134,62,255)" stroke="rgb(134,62,255)" stroke-width="1" opacity="0.5647058823529412" d="M 1969.5 32 L 1982 32.5 L 1969.5 33 L 1969.5 32 Z " /><path fill="rgb(134,62,255)" stroke="rgb(134,62,255)" stroke-width="1" opacity="0.5647058823529412" d="M 1843.5 33 L 1854 33.5 L 1843.5 34 L 1843.5 33 Z " /><path fill="rgb(134,62,255)" stroke="rgb(134,62,255)" stroke-width="1" opacity="0.5647058823529412" d="M 1987.5 33 L 1996 33.5 L 1987.5 34 L 1987.5 33 Z " /><path fill="rgb(134,62,255)" stroke="rgb(134,62,255)" stroke-width="1" opacity="0.5647058823529412" d="M 1832.5 34 L 1840 34.5 L 1835.5 36 L 1832.5 35 L 1832.5 34 Z " /><path fill="rgb(134,62,255)" stroke="rgb(134,62,255)" stroke-width="1" opacity="0.5647058823529412" d="M 2000.5 34 L 2009 34.5 L 2000.5 35 L 2000.5 34 Z " /><path fill="rgb(134,62,255)" stroke="rgb(134,62,255)" stroke-width="1" opacity="0.5647058823529412" d="M 1820.5 35 L 1828 35.5 L 1820.5 36 L 1820.5 35 Z " /><path fill="rgb(134,62,255)" stroke="rgb(134,62,255)" stroke-width="1" opacity="0.5647058823529412" d="M 2012.5 35 L 2020 35.5 L 2012.5 36 L 2012.5 35 Z " /><path fill="rgb(134,62,255)" stroke="rgb(134,62,255)" stroke-width="1" opacity="0.5647058823529412" d="M 1810.5 36 L 1818 36.5 L 1811.5 38 L 1810.5 36 Z " /><path fill="rgb(134,62,255)" stroke="rgb(134,62,255)" stroke-width="1" opacity="0.5647058823529412" d="M 2022.5 36 L 2029 36.5 L 2022.5 37 L 2022.5 36 Z " /><path fill="rgb(134,62,255)" stroke="rgb(134,62,255)" stroke-width="1" opacity="0.5647058823529412" d="M 2030.5 36 L 2039 37.5 Q 2037.7 40.3 2036.5 38 Q 2030.1 39.3 2030.5 36 Z " /><path fill="rgb(134,62,255)" stroke="rgb(134,62,255)" stroke-width="1" opacity="0.5647058823529412" d="M 1801.5 37 L 1809 37.5 L 1802.5 39 L 1800 38.5 L 1801.5 37 Z " /><path fill="rgb(134,62,255)" stroke="rgb(134,62,255)" stroke-width="1" opacity="0.5647058823529412" d="M 1793 38 L 1799 38.5 L 1796.5 40 L 1794.5 39 L 1793 39.5 L 1793 38 Z " /><path fill="rgb(134,62,255)" stroke="rgb(134,62,255)" stroke-width="1" opacity="0.5647058823529412" d="M 2040.5 38 Q 2047.5 36.5 2047 39.5 L 2045.5 39 Q 2039.5 40.2 2040.5 38 Z " /><path fill="rgb(134,62,255)" stroke="rgb(134,62,255)" stroke-width="1" opacity="0.5647058823529412" d="M 1785 39 L 1791 39.5 L 1785.5 41 L 1785 39 Z " /><path fill="rgb(134,62,255)" stroke="rgb(134,62,255)" stroke-width="1" opacity="0.5647058823529412" d="M 2049.5 39 Q 2055.6 37.8 2055 40.5 L 2053.5 40 L 2051.5 41 L 2049.5 39 Z " /><path fill="rgb(134,62,255)" stroke="rgb(134,62,255)" stroke-width="1" opacity="0.5647058823529412" d="M 1778 40 L 1784 40.5 L 1778.5 42 L 1778 40 Z " /><path fill="rgb(134,62,255)" stroke="rgb(134,62,255)" stroke-width="1" opacity="0.5647058823529412" d="M 2056.5 40 Q 2062.6 38.8 2062 41.5 L 2060.5 41 Q 2055.5 42 2056.5 40 Z " /><path fill="rgb(134,62,255)" stroke="rgb(134,62,255)" stroke-width="1" opacity="0.5647058823529412" d="M 1771 41 L 1777 41.5 L 1771.5 43 L 1771 41 Z " /><path fill="rgb(134,62,255)" stroke="rgb(134,62,255)" stroke-width="1" opacity="0.5647058823529412" d="M 2063.5 41 Q 2069.6 39.8 2069 42.5 L 2067.5 42 Q 2062.5 43 2063.5 41 Z " /><path fill="rgb(134,62,255)" stroke="rgb(134,62,255)" stroke-width="1" opacity="0.5647058823529412" d="M 1764.5 42 L 1770 42.5 L 1766.5 44 L 1764.5 44 Q 1759.7 42.7 1758.5 45 L 1758 43 L 1764.5 42 Z " /><path fill="rgb(134,62,255)" stroke="rgb(134,62,255)" stroke-width="1" opacity="0.5647058823529412" d="M 2070.5 42 L 2088 44 L 2087.5 46 L 2070.5 43 L 2070.5 42 Z " /><path fill="rgb(134,62,255)" stroke="rgb(134,62,255)" stroke-width="1" opacity="0.5647058823529412" d="M 1751.5 44 L 1757 44.5 L 1684.5 59 L 1684.5 58 L 1751.5 44 Z " /><path fill="rgb(134,62,255)" stroke="rgb(134,62,255)" stroke-width="1" opacity="0.5647058823529412" d="M 2089.5 45 L 2105.5 47 L 2143 55.5 L 2139.5 56 L 2114.5 50 L 2093.5 47 L 2089.5 46 L 2089.5 45 Z " /><path fill="rgb(134,62,255)" stroke="rgb(134,62,255)" stroke-width="1" opacity="0.5647058823529412" d="M 2144.5 55 L 2148.5 57 L 2150.5 57 L 2152 57.5 L 2148.5 58 L 2144 57 L 2144.5 55 Z " /><path fill="rgb(134,62,255)" stroke="rgb(134,62,255)" stroke-width="1" opacity="0.5647058823529412" d="M 2153.5 57 L 2169 61.5 L 2165.5 62 L 2153 59 L 2153.5 57 Z " /><path fill="rgb(134,62,255)" stroke="rgb(134,62,255)" stroke-width="1" opacity="0.5647058823529412" d="M 1682.5 58 L 1683 60 L 1675.5 61 L 1675.5 60 L 1682.5 58 Z " /><path fill="rgb(134,62,255)" stroke="rgb(134,62,255)" stroke-width="1" opacity="0.5647058823529412" d="M 1671.5 61 L 1674 61.5 L 1656.5 66 L 1656.5 65 L 1671.5 61 Z " /><path fill="rgb(134,62,255)" stroke="rgb(134,62,255)" stroke-width="1" opacity="0.5647058823529412" d="M 2170.5 62 L 2184 65.5 L 2181.5 66 L 2170.5 63 L 2170.5 62 Z " /><path fill="rgb(134,62,255)" stroke="rgb(134,62,255)" stroke-width="1" opacity="0.5647058823529412" d="M 1652.5 66 L 1655 66.5 L 1652.5 67 L 1652.5 66 Z " /><path fill="rgb(134,62,255)" stroke="rgb(134,62,255)" stroke-width="1" opacity="0.5647058823529412" d="M 2185.5 66 L 2195 68.5 L 2192.5 69 L 2185.5 67 L 2185.5 66 Z " /><path fill="rgb(134,62,255)" stroke="rgb(134,62,255)" stroke-width="1" opacity="0.5647058823529412" d="M 1648.5 67 L 1651 67.5 L 1645.5 69 L 1645.5 68 L 1648.5 67 Z " /><path fill="rgb(134,62,255)" stroke="rgb(134,62,255)" stroke-width="1" opacity="0.5647058823529412" d="M 1641.5 69 L 1644 69.5 L 1638.5 71 L 1638.5 70 L 1641.5 69 Z " /><path fill="rgb(134,62,255)" stroke="rgb(134,62,255)" stroke-width="1" opacity="0.5647058823529412" d="M 2196.5 69 L 2202 70.5 L 2199.5 71 L 2196.5 70 L 2196.5 69 Z " /><path fill="rgb(134,62,255)" stroke="rgb(134,62,255)" stroke-width="1" opacity="0.5647058823529412" d="M 1634.5 71 L 1637 71.5 L 1631.5 73 L 1631.5 72 L 1634.5 71 Z " /><path fill="rgb(134,62,255)" stroke="rgb(134,62,255)" stroke-width="1" opacity="0.5647058823529412" d="M 2203.5 71 L 2212 73.5 L 2209.5 74 L 2206.5 73 Q 2202.8 72.8 2203.5 71 Z " /><path fill="rgb(134,62,255)" stroke="rgb(134,62,255)" stroke-width="1" opacity="0.5647058823529412" d="M 1624.5 74 L 1627 74.5 L 1622.5 77 L 1620.5 77 L 1587.5 87 L 1552.5 100 L 1552.5 99 L 1575.5 90 L 1578.5 90 L 1581.5 88 L 1624.5 74 Z " /><path fill="rgb(134,62,255)" stroke="rgb(134,62,255)" stroke-width="1" opacity="0.5647058823529412" d="M 2213.5 74 L 2222 76.5 L 2219.5 77 L 2213.5 75 L 2213.5 74 Z " /><path fill="rgb(134,62,255)" stroke="rgb(134,62,255)" stroke-width="1" opacity="0.5647058823529412" d="M 2223.5 77 Q 2260.3 87.2 2293 101.5 L 2291.5 102 L 2252.5 87 L 2225.5 79 L 2223.5 77 Z " /><path fill="rgb(134,62,255)" stroke="rgb(134,62,255)" stroke-width="1" opacity="0.5647058823529412" d="M 1549.5 100 L 1551 100.5 L 1547.5 102 L 1547.5 101 L 1549.5 100 Z " /><path fill="rgb(134,62,255)" stroke="rgb(134,62,255)" stroke-width="1" opacity="0.5647058823529412" d="M 1544.5 102 L 1546 102.5 L 1537.5 106 L 1537.5 105 L 1544.5 102 Z " /><path fill="rgb(134,62,255)" stroke="rgb(134,62,255)" stroke-width="1" opacity="0.5647058823529412" d="M 2294.5 102 L 2298 103.5 L 2296.5 104 L 2294.5 102 Z " /><path fill="rgb(134,62,255)" stroke="rgb(134,62,255)" stroke-width="1" opacity="0.5647058823529412" d="M 2299 104 L 2303 105.5 L 2301.5 106 L 2299 105.5 L 2299 104 Z " /><path fill="rgb(134,62,255)" stroke="rgb(134,62,255)" stroke-width="1" opacity="0.5647058823529412" d="M 1534.5 106 L 1536 106.5 L 1525.5 111 L 1525.5 110 L 1534.5 106 Z " /><path fill="rgb(134,62,255)" stroke="rgb(134,62,255)" stroke-width="1" opacity="0.5647058823529412" d="M 2304.5 106 Q 2339.1 118.9 2370 135.5 L 2368.5 136 Q 2338.9 120.1 2305.5 108 L 2304.5 106 Z " /><path fill="rgb(134,62,255)" stroke="rgb(134,62,255)" stroke-width="1" opacity="0.5647058823529412" d="M 1522.5 111 L 1524 111.5 L 1470.5 136 L 1470.5 135 L 1522.5 111 Z " /><path fill="rgb(134,62,255)" stroke="rgb(134,62,255)" stroke-width="1" opacity="0.5647058823529412" d="M 1468.5 136 L 1467.5 138 L 1466 137.5 L 1468.5 136 Z " /><path fill="rgb(134,62,255)" stroke="rgb(134,62,255)" stroke-width="1" opacity="0.5647058823529412" d="M 2373.5 137 L 2401 151.5 L 2399.5 152 L 2374.5 139 L 2373.5 137 Z " /><path fill="rgb(134,62,255)" stroke="rgb(134,62,255)" stroke-width="1" opacity="0.5647058823529412" d="M 1464.5 138 L 1463.5 140 L 1446.5 148 L 1398 175 L 1397.5 177 Q 1396 174.5 1394.5 178 L 1333.5 217 L 1265 269 Q 1266.1 271.7 1263.5 271 L 1213 316.5 Q 1213.8 318.8 1211.5 318 L 1196.5 333 L 1195 333 L 1195 334.5 L 1177 352.5 L 1177 354 L 1172 357.5 L 1170 360.5 L 1162 370 Q 1159.3 368.9 1160 371.5 L 1145 387.5 L 1142 393 Q 1139.3 391.9 1140 394.5 L 1120 417.5 L 1083 466.5 Q 1051.5 511 1024 559.5 L 1024.5 561 Q 1022.3 560.3 1023 562.5 L 1004.5 596 L 1005 594.5 L 1028 550.5 L 1072 480.5 L 1114 423.5 L 1164 365.5 L 1164 364 Q 1166.7 365.1 1166 362.5 L 1181 347.5 L 1181 346 Q 1183.7 347.1 1183 344.5 L 1207.5 320 L 1209 320 L 1209 318 L 1211 318 Q 1209.9 315.3 1212.5 316 L 1227.5 301 L 1229 301 Q 1227.9 298.3 1230.5 299 L 1245.5 285 L 1247 285 Q 1245.9 282.3 1248.5 283 L 1267 268 Q 1265.9 265.3 1268.5 266 Q 1356.1 191.6 1464.5 138 Z " /><path fill="rgb(134,62,255)" stroke="rgb(134,62,255)" stroke-width="1" opacity="0.5647058823529412" d="M 2402.5 152 L 2410 156.5 L 2408.5 157 Q 2403.3 155.3 2402.5 152 Z " /><path fill="rgb(134,62,255)" stroke="rgb(134,62,255)" stroke-width="1" opacity="0.5647058823529412" d="M 2411.5 157 L 2428 166.5 L 2426.5 167 L 2412.5 159 L 2411.5 157 Z " /><path fill="rgb(134,62,255)" stroke="rgb(134,62,255)" stroke-width="1" opacity="0.5647058823529412" d="M 2429.5 167 Q 2469.3 189.2 2505.5 215 L 2578 270 Q 2576.9 272.7 2579.5 272 L 2601 290 Q 2599.9 292.7 2602.5 292 L 2613 301.5 Q 2612.3 303.8 2614.5 303 L 2628.5 317 L 2630 317 L 2630 319 L 2632 319 Q 2630.9 321.7 2633.5 321 L 2656 343.5 L 2656 345 L 2658 345 L 2658 347 Q 2660.7 345.9 2660 348.5 L 2674 362.5 L 2674 364 Q 2676.7 362.9 2676 365.5 L 2684 375 Q 2686.7 373.9 2686 376.5 Q 2777.4 477.1 2841 605.5 L 2839 604.5 L 2821 568.5 L 2786 509.5 L 2744 448.5 L 2694 386 Q 2691.3 387.1 2692 384.5 L 2688 379 Q 2685.3 380.1 2686 377.5 L 2677.5 368 Q 2675.3 368.8 2676 366.5 L 2665.5 355 Q 2663.3 355.8 2664 353.5 L 2661 352 L 2646 334 L 2644.5 334 L 2619.5 309 L 2618 309 L 2616.5 306 L 2610 302 L 2610 300 Q 2607.3 301.1 2608 298.5 L 2589 282.5 Q 2589.8 280.3 2587.5 281 Q 2555.8 252.2 2520.5 227 Q 2479.4 196.6 2433.5 171 L 2429.5 167 Z " /><path fill="rgb(134,62,255)" stroke="rgb(134,62,255)" stroke-width="1" opacity="0.5647058823529412" d="M 1003.5 597 L 1004 598.5 L 1002 599.5 L 1003.5 597 Z " /><path fill="rgb(134,62,255)" stroke="rgb(134,62,255)" stroke-width="1" opacity="0.5647058823529412" d="M 2841.5 607 L 2844 611.5 L 2842 610.5 L 2841.5 607 Z " /><path fill="rgb(134,62,255)" stroke="rgb(134,62,255)" stroke-width="1" opacity="0.5647058823529412" d="M 995.5 613 L 996 614.5 L 979 649.5 L 956.5 705 L 956 703.5 Q 973.2 655.7 995.5 613 Z " /><path fill="rgb(134,62,255)" stroke="rgb(134,62,255)" stroke-width="1" opacity="0.5647058823529412" d="M 2844.5 613 L 2853 630.5 L 2852 630.5 L 2844 614.5 L 2844.5 613 Z " /><path fill="rgb(134,62,255)" stroke="rgb(134,62,255)" stroke-width="1" opacity="0.5647058823529412" d="M 2853.5 632 Q 2869.2 662.3 2881 696.5 L 2880 696.5 L 2872 675.5 L 2869 671.5 L 2869 669.5 L 2853 633.5 L 2853.5 632 Z " /><path fill="rgb(134,62,255)" stroke="rgb(134,62,255)" stroke-width="1" opacity="0.5647058823529412" d="M 2881.5 698 Q 2898.4 737.6 2910 782.5 L 2909 782.5 L 2901 754.5 L 2883 705.5 L 2881.5 698 Z " /><path fill="rgb(134,62,255)" stroke="rgb(134,62,255)" stroke-width="1" opacity="0.5647058823529412" d="M 955.5 706 L 956 707.5 L 954.5 710 L 954 708.5 L 955.5 706 Z " /><path fill="rgb(134,62,255)" stroke="rgb(134,62,255)" stroke-width="1" opacity="0.5647058823529412" d="M 953.5 711 L 954 713.5 L 935.5 766 L 935 763.5 L 953.5 711 Z " /><path fill="rgb(134,62,255)" stroke="rgb(134,62,255)" stroke-width="1" opacity="0.5647058823529412" d="M 934 767 L 936 767.5 L 928.5 790 L 928 787.5 L 934 767 Z " /><path fill="rgb(134,62,255)" stroke="rgb(134,62,255)" stroke-width="1" opacity="0.5647058823529412" d="M 2910.5 784 L 2914 796.5 L 2913 796.5 L 2910.5 784 Z " /><path fill="rgb(134,62,255)" stroke="rgb(134,62,255)" stroke-width="1" opacity="0.5647058823529412" d="M 927.5 791 L 928 793.5 L 925.5 801 L 925 798.5 L 927.5 791 Z " /><path fill="rgb(134,62,255)" stroke="rgb(134,62,255)" stroke-width="1" opacity="0.5647058823529412" d="M 2914.5 798 L 2915 800.5 L 2914 800.5 L 2914.5 798 Z " /><path fill="rgb(134,62,255)" stroke="rgb(134,62,255)" stroke-width="1" opacity="0.5647058823529412" d="M 924.5 802 L 925 804.5 L 922.5 812 L 922 809.5 L 924.5 802 Z " /><path fill="rgb(134,62,255)" stroke="rgb(134,62,255)" stroke-width="1" opacity="0.5647058823529412" d="M 2915.5 802 L 2919 815.5 L 2918 815.5 L 2915.5 802 Z " /><path fill="rgb(134,62,255)" stroke="rgb(134,62,255)" stroke-width="1" opacity="0.5647058823529412" d="M 921.5 813 L 922 815.5 L 921 815.5 L 921.5 813 Z " /><path fill="rgb(134,62,255)" stroke="rgb(134,62,255)" stroke-width="1" opacity="0.5647058823529412" d="M 920.5 817 L 921 819.5 L 920 819.5 L 920.5 817 Z " /><path fill="rgb(134,62,255)" stroke="rgb(134,62,255)" stroke-width="1" opacity="0.5647058823529412" d="M 2919.5 817 L 2920 819.5 L 2919 819.5 L 2919.5 817 Z " /><path fill="rgb(134,62,255)" stroke="rgb(134,62,255)" stroke-width="1" opacity="0.5647058823529412" d="M 919.5 821 L 920 823.5 L 919 823.5 L 919.5 821 Z " /><path fill="rgb(134,62,255)" stroke="rgb(134,62,255)" stroke-width="1" opacity="0.5647058823529412" d="M 2920.5 821 L 2921 823.5 L 2920 823.5 L 2920.5 821 Z " /><path fill="rgb(134,62,255)" stroke="rgb(134,62,255)" stroke-width="1" opacity="0.5647058823529412" d="M 918.5 825 L 919 827.5 L 918 827.5 L 918.5 825 Z " /><path fill="rgb(134,62,255)" stroke="rgb(134,62,255)" stroke-width="1" opacity="0.5647058823529412" d="M 2921.5 825 L 2929 854.5 L 2937 895.5 L 2939 912.5 L 2938 912.5 Q 2937.5 900.5 2934 891.5 L 2934 889.5 L 2929 860.5 L 2927 855.5 L 2927 850.5 L 2921 828.5 L 2921.5 825 Z " /><path fill="rgb(134,62,255)" stroke="rgb(134,62,255)" stroke-width="1" opacity="0.5647058823529412" d="M 917.5 829 L 918 832.5 L 915 841.5 L 907 880.5 L 907 885.5 L 905 891.5 L 899.5 926 L 899 920.5 L 911 854.5 L 917.5 829 Z " /><path fill="rgb(134,62,255)" stroke="rgb(134,62,255)" stroke-width="1" opacity="0.5647058823529412" d="M 2938.5 914 Q 2941.3 913.4 2940 919.5 L 2941 920.5 L 2942 932.5 L 2941 932.5 L 2940 928.5 L 2940 926.5 L 2939 921.5 L 2939 919.5 L 2938.5 914 Z " /><path fill="rgb(134,62,255)" stroke="rgb(134,62,255)" stroke-width="1" opacity="0.5647058823529412" d="M 898 927 L 900 927.5 L 898 934.5 L 898 936.5 L 897.5 940 L 897 934.5 L 898 933.5 L 898 927 Z " /><path fill="rgb(134,62,255)" stroke="rgb(134,62,255)" stroke-width="1" opacity="0.5647058823529412" d="M 2941.5 934 Q 2944.5 933.5 2943 940.5 L 2944 941.5 L 2945 956.5 L 2944 956.5 Q 2945.3 951.8 2943 950.5 L 2943 948.5 L 2942 935.5 L 2941.5 934 Z " /><path fill="rgb(134,62,255)" stroke="rgb(134,62,255)" stroke-width="1" opacity="0.5647058823529412" d="M 896 941 Q 898.7 939.9 898 942.5 L 896.5 948 L 896 941 Z " /><path fill="rgb(134,62,255)" stroke="rgb(134,62,255)" stroke-width="1" opacity="0.5647058823529412" d="M 895 949 Q 897.7 947.9 897 950.5 L 895.5 957 L 895 949 Z " /><path fill="rgb(134,62,255)" stroke="rgb(134,62,255)" stroke-width="1" opacity="0.5647058823529412" d="M 894.5 958 L 895 964.5 L 894 964.5 L 894.5 958 Z " /><path fill="rgb(134,62,255)" stroke="rgb(134,62,255)" stroke-width="1" opacity="0.5647058823529412" d="M 2945.5 958 L 2946 964.5 L 2945 964.5 L 2944 959.5 L 2945.5 958 Z " /><path fill="rgb(134,62,255)" stroke="rgb(134,62,255)" stroke-width="1" opacity="0.5647058823529412" d="M 893.5 967 L 894 974.5 L 893 974.5 L 893.5 967 Z " /><path fill="rgb(134,62,255)" stroke="rgb(134,62,255)" stroke-width="1" opacity="0.5647058823529412" d="M 2946.5 967 L 2947 974.5 L 2946 974.5 L 2946.5 967 Z " /><path fill="rgb(134,62,255)" stroke="rgb(134,62,255)" stroke-width="1" opacity="0.5647058823529412" d="M 892.5 977 L 893 985.5 L 892 985.5 L 892.5 977 Z " /><path fill="rgb(134,62,255)" stroke="rgb(134,62,255)" stroke-width="1" opacity="0.5647058823529412" d="M 2947.5 977 L 2948 985.5 L 2947 985.5 L 2947.5 977 Z " /><path fill="rgb(134,62,255)" stroke="rgb(134,62,255)" stroke-width="1" opacity="0.5647058823529412" d="M 891.5 988 L 892 996.5 L 891 996.5 L 891.5 988 Z " /><path fill="rgb(134,62,255)" stroke="rgb(134,62,255)" stroke-width="1" opacity="0.5647058823529412" d="M 2948.5 988 L 2949 996.5 L 2948 996.5 L 2948.5 988 Z " /><path fill="rgb(134,62,255)" stroke="rgb(134,62,255)" stroke-width="1" opacity="0.5647058823529412" d="M 2949.5 1000 L 2950 1011.5 L 2949 1011.5 L 2949.5 1000 Z " /><path fill="rgb(134,62,255)" stroke="rgb(134,62,255)" stroke-width="1" opacity="0.5647058823529412" d="M 890.5 1002 L 891 1011.5 L 890 1011.5 L 890.5 1002 Z " /><path fill="rgb(134,62,255)" stroke="rgb(134,62,255)" stroke-width="1" opacity="0.5647058823529412" d="M 889.5 1017 L 890 1028.5 L 889 1028.5 L 889.5 1017 Z " /><path fill="rgb(134,62,255)" stroke="rgb(134,62,255)" stroke-width="1" opacity="0.5647058823529412" d="M 2950.5 1017 L 2951 1028.5 L 2950 1028.5 L 2950.5 1017 Z " /><path fill="rgb(134,62,255)" stroke="rgb(134,62,255)" stroke-width="1" opacity="0.5647058823529412" d="M 888.5 1037 L 889 1059.5 L 888 1059.5 L 888.5 1037 Z " /><path fill="rgb(134,62,255)" stroke="rgb(134,62,255)" stroke-width="1" opacity="0.5647058823529412" d="M 2951.5 1037 L 2952 1059.5 L 2951 1059.5 L 2951.5 1037 Z " /><path fill="rgb(134,62,255)" stroke="rgb(134,62,255)" stroke-width="1" opacity="0.5647058823529412" d="M 888.5 1100 L 889 1122.5 L 888 1122.5 L 888.5 1100 Z " /><path fill="rgb(134,62,255)" stroke="rgb(134,62,255)" stroke-width="1" opacity="0.5647058823529412" d="M 2951.5 1100 L 2952 1122.5 L 2951 1122.5 L 2951.5 1100 Z " /><path fill="rgb(134,62,255)" stroke="rgb(134,62,255)" stroke-width="1" opacity="0.5647058823529412" d="M 889.5 1130 L 890 1143.5 L 889 1143.5 L 889.5 1130 Z " /><path fill="rgb(134,62,255)" stroke="rgb(134,62,255)" stroke-width="1" opacity="0.5647058823529412" d="M 2950.5 1130 L 2951 1143.5 L 2950 1143.5 L 2950.5 1130 Z " /><path fill="rgb(134,62,255)" stroke="rgb(134,62,255)" stroke-width="1" opacity="0.5647058823529412" d="M 890.5 1148 L 891 1158.5 L 890 1158.5 L 890.5 1148 Z " /><path fill="rgb(134,62,255)" stroke="rgb(134,62,255)" stroke-width="1" opacity="0.5647058823529412" d="M 2949.5 1148 L 2950 1158.5 L 2949 1158.5 L 2949.5 1148 Z " /><path fill="rgb(134,62,255)" stroke="rgb(134,62,255)" stroke-width="1" opacity="0.5647058823529412" d="M 891.5 1163 L 892 1170.5 L 891 1170.5 L 891.5 1163 Z " /><path fill="rgb(134,62,255)" stroke="rgb(134,62,255)" stroke-width="1" opacity="0.5647058823529412" d="M 2948.5 1163 L 2949 1170.5 L 2948 1170.5 L 2948.5 1163 Z " /><path fill="rgb(134,62,255)" stroke="rgb(134,62,255)" stroke-width="1" opacity="0.5647058823529412" d="M 892.5 1174 L 893 1181.5 L 892 1181.5 L 892.5 1174 Z " /><path fill="rgb(134,62,255)" stroke="rgb(134,62,255)" stroke-width="1" opacity="0.5647058823529412" d="M 2947.5 1174 L 2948 1181.5 L 2947 1181.5 L 2947.5 1174 Z " /><path fill="rgb(134,62,255)" stroke="rgb(134,62,255)" stroke-width="1" opacity="0.5647058823529412" d="M 893.5 1185 L 894 1192.5 L 893 1192.5 L 893.5 1185 Z " /><path fill="rgb(134,62,255)" stroke="rgb(134,62,255)" stroke-width="1" opacity="0.5647058823529412" d="M 2946.5 1185 L 2947 1191.5 L 2946 1191.5 L 2946.5 1185 Z " /><path fill="rgb(134,62,255)" stroke="rgb(134,62,255)" stroke-width="1" opacity="0.5647058823529412" d="M 894.5 1195 L 895 1200.5 L 894 1200.5 L 894.5 1195 Z " /><path fill="rgb(134,62,255)" stroke="rgb(134,62,255)" stroke-width="1" opacity="0.5647058823529412" d="M 2945.5 1195 L 2946 1202 L 2944 1201.5 L 2945.5 1195 Z " /><path fill="rgb(134,62,255)" stroke="rgb(134,62,255)" stroke-width="1" opacity="0.5647058823529412" d="M 895.5 1203 L 896 1209.5 L 895 1209.5 L 895.5 1203 Z " /><path fill="rgb(134,62,255)" stroke="rgb(134,62,255)" stroke-width="1" opacity="0.5647058823529412" d="M 2944.5 1203 L 2945 1210 L 2943 1209.5 L 2944.5 1203 Z " /><path fill="rgb(134,62,255)" stroke="rgb(134,62,255)" stroke-width="1" opacity="0.5647058823529412" d="M 896.5 1211 L 898 1217.5 L 896 1218 L 896.5 1211 Z " /><path fill="rgb(134,62,255)" stroke="rgb(134,62,255)" stroke-width="1" opacity="0.5647058823529412" d="M 2943.5 1212 L 2944 1218 L 2942 1217.5 L 2943.5 1212 Z " /><path fill="rgb(134,62,255)" stroke="rgb(134,62,255)" stroke-width="1" opacity="0.5647058823529412" d="M 897.5 1219 L 899 1225.5 L 897 1226 L 897.5 1219 Z " /><path fill="rgb(134,62,255)" stroke="rgb(134,62,255)" stroke-width="1" opacity="0.5647058823529412" d="M 2942.5 1220 L 2943 1225.5 L 2942 1226.5 L 2942 1232.5 L 2941 1233.5 L 2941 1239.5 L 2940 1240.5 L 2935 1275.5 L 2922.5 1331 L 2922 1327.5 L 2928 1304.5 L 2941 1232.5 L 2941 1230.5 L 2942.5 1220 Z " /><path fill="rgb(134,62,255)" stroke="rgb(134,62,255)" stroke-width="1" opacity="0.5647058823529412" d="M 898.5 1227 L 903 1251.5 L 903 1257.5 L 913 1308.5 L 912 1308.5 L 903 1264.5 L 899 1233.5 L 898 1232.5 L 898.5 1227 Z " /><path fill="rgb(134,62,255)" stroke="rgb(134,62,255)" stroke-width="1" opacity="0.5647058823529412" d="M 912.5 1310 Q 915.5 1309.1 914 1313.5 L 919 1334.5 L 918 1334.5 L 914 1314.5 L 912.5 1310 Z " /><path fill="rgb(134,62,255)" stroke="rgb(134,62,255)" stroke-width="1" opacity="0.5647058823529412" d="M 2921.5 1332 L 2922 1334.5 L 2921 1334.5 L 2921.5 1332 Z " /><path fill="rgb(134,62,255)" stroke="rgb(134,62,255)" stroke-width="1" opacity="0.5647058823529412" d="M 919.5 1336 L 920 1338.5 L 919 1338.5 L 919.5 1336 Z " /><path fill="rgb(134,62,255)" stroke="rgb(134,62,255)" stroke-width="1" opacity="0.5647058823529412" d="M 2920.5 1336 L 2921 1338.5 L 2920 1338.5 L 2920.5 1336 Z " /><path fill="rgb(134,62,255)" stroke="rgb(134,62,255)" stroke-width="1" opacity="0.5647058823529412" d="M 920.5 1340 L 921 1342.5 L 920 1342.5 L 920.5 1340 Z " /><path fill="rgb(134,62,255)" stroke="rgb(134,62,255)" stroke-width="1" opacity="0.5647058823529412" d="M 2919.5 1340 L 2920 1342.5 L 2919 1342.5 L 2919.5 1340 Z " /><path fill="rgb(134,62,255)" stroke="rgb(134,62,255)" stroke-width="1" opacity="0.5647058823529412" d="M 921.5 1344 L 925 1357.5 L 924 1357.5 L 921.5 1344 Z " /><path fill="rgb(134,62,255)" stroke="rgb(134,62,255)" stroke-width="1" opacity="0.5647058823529412" d="M 2918.5 1344 L 2919 1346.5 L 2915.5 1358 L 2915 1355.5 L 2918.5 1344 Z " /><path fill="rgb(134,62,255)" stroke="rgb(134,62,255)" stroke-width="1" opacity="0.5647058823529412" d="M 925.5 1359 L 926 1361.5 L 925 1361.5 L 925.5 1359 Z " /><path fill="rgb(134,62,255)" stroke="rgb(134,62,255)" stroke-width="1" opacity="0.5647058823529412" d="M 2914.5 1359 L 2915 1361.5 L 2912.5 1369 L 2912 1366.5 L 2914.5 1359 Z " /><path fill="rgb(134,62,255)" stroke="rgb(134,62,255)" stroke-width="1" opacity="0.5647058823529412" d="M 926.5 1363 L 930 1375.5 L 929 1375.5 L 926.5 1363 Z " /><path fill="rgb(134,62,255)" stroke="rgb(134,62,255)" stroke-width="1" opacity="0.5647058823529412" d="M 2911.5 1370 L 2912 1372.5 L 2892 1435.5 L 2881.5 1462 L 2881 1460.5 L 2894 1426.5 L 2911.5 1370 Z " /><path fill="rgb(134,62,255)" stroke="rgb(134,62,255)" stroke-width="1" opacity="0.5647058823529412" d="M 930.5 1377 L 947 1429.5 L 965 1476.5 L 964 1476.5 L 948 1435.5 L 932 1386.5 L 930.5 1377 Z " /><path fill="rgb(134,62,255)" stroke="rgb(134,62,255)" stroke-width="1" opacity="0.5647058823529412" d="M 2880.5 1463 L 2881 1464.5 L 2864 1506.5 L 2845.5 1545 L 2845 1543.5 L 2861 1510.5 L 2880.5 1463 Z " /><path fill="rgb(134,62,255)" stroke="rgb(134,62,255)" stroke-width="1" opacity="0.5647058823529412" d="M 965.5 1478 Q 1003.8 1572.7 1056 1653.5 L 1106 1724.5 L 1134 1759.5 L 1171 1800.5 L 1171 1802 Q 1173.7 1800.9 1173 1803.5 L 1222.5 1853 L 1235 1863 Q 1233.9 1865.7 1236.5 1865 L 1250 1876 L 1251.5 1879 Q 1320.3 1938.7 1401 1986.5 L 1399.5 1986 Q 1365.2 1967.3 1334.5 1945 Q 1292.5 1915.2 1254 1883 Q 1255.1 1880.3 1252.5 1881 L 1240 1871 L 1238.5 1868 L 1214 1846.5 L 1211.5 1843 Q 1209.3 1843.8 1210 1841.5 L 1182 1814.5 L 1177.5 1809 Q 1175.3 1809.8 1176 1807.5 L 1167 1798.5 L 1167 1797 L 1165 1797 L 1165 1795 Q 1162.3 1796.1 1163 1793.5 L 1142 1770.5 L 1142 1769 Q 1139.3 1770.1 1140 1767.5 Q 1087.1 1706.9 1044 1636.5 Q 1017.7 1593.8 995 1547.5 L 973 1499.5 L 966 1482.5 L 965.5 1478 Z " /><path fill="rgb(134,62,255)" stroke="rgb(134,62,255)" stroke-width="1" opacity="0.5647058823529412" d="M 2841.5 1552 L 2842 1553.5 L 2840 1554.5 L 2841.5 1552 Z " /><path fill="rgb(134,62,255)" stroke="rgb(134,62,255)" stroke-width="1" opacity="0.5647058823529412" d="M 2839.5 1556 L 2839 1557.5 L 2826 1584.5 L 2791 1644.5 L 2754 1699.5 L 2729 1731.5 L 2727 1736 Q 2724.3 1734.9 2725 1737.5 L 2709.5 1757 Q 2707.3 1756.3 2708 1758.5 L 2687 1784 Q 2684.3 1782.9 2685 1785.5 L 2678 1794 L 2676 1794 L 2676 1796 Q 2673.3 1794.9 2674 1797.5 L 2663 1808.5 L 2663 1810 L 2659 1812.5 L 2657 1815.5 L 2632.5 1840 L 2631 1840 Q 2632.1 1842.7 2629.5 1842 L 2625 1848 L 2612 1858 L 2612 1860 L 2610 1860 Q 2611.1 1862.7 2608.5 1862 L 2592 1876.5 Q 2592.8 1878.8 2590.5 1878 Q 2566 1901.7 2538 1920 Q 2539.1 1922.7 2536.5 1922 L 2530 1926 Q 2531.1 1928.7 2528.5 1928 Q 2478.4 1966.8 2421 1997 L 2420.5 1999 Q 2419 1996.5 2417.5 2000 L 2351.5 2034 L 2323.5 2046 L 2324.5 2044 L 2353.5 2032 L 2393.5 2012 L 2433.5 1990 L 2472.5 1966 Q 2539.5 1922.5 2598 1870.5 Q 2597.3 1868.3 2599.5 1869 L 2643.5 1827 L 2645 1827 L 2645 1825.5 L 2662 1808.5 L 2662 1807 L 2668 1802.5 L 2670 1799.5 Q 2770.4 1693.4 2839.5 1556 Z " /><path fill="rgb(134,62,255)" stroke="rgb(134,62,255)" stroke-width="1" opacity="0.5647058823529412" d="M 1402.5 1987 L 1422 1998.5 L 1420.5 1999 L 1403.5 1989 L 1402.5 1987 Z " /><path fill="rgb(134,62,255)" stroke="rgb(134,62,255)" stroke-width="1" opacity="0.5647058823529412" d="M 1423.5 1999 L 1484 2030.5 L 1482.5 2031 L 1427.5 2003 L 1423.5 1999 Z " /><path fill="rgb(134,62,255)" stroke="rgb(134,62,255)" stroke-width="1" opacity="0.5647058823529412" d="M 1485.5 2031 L 1524 2048.5 L 1522.5 2049 L 1486.5 2033 L 1485.5 2031 Z " /><path fill="rgb(134,62,255)" stroke="rgb(134,62,255)" stroke-width="1" opacity="0.5647058823529412" d="M 2320.5 2046 L 2322 2046.5 L 2299.5 2056 L 2299.5 2055 L 2320.5 2046 Z " /><path fill="rgb(134,62,255)" stroke="rgb(134,62,255)" stroke-width="1" opacity="0.5647058823529412" d="M 1525.5 2049 L 1590.5 2074 L 1655 2093.5 L 1652.5 2094 L 1578.5 2071 L 1529.5 2052 L 1525.5 2050 L 1525.5 2049 Z " /><path fill="rgb(134,62,255)" stroke="rgb(134,62,255)" stroke-width="1" opacity="0.5647058823529412" d="M 2296.5 2056 L 2298 2056.5 L 2294.5 2058 L 2294.5 2057 L 2296.5 2056 Z " /><path fill="rgb(134,62,255)" stroke="rgb(134,62,255)" stroke-width="1" opacity="0.5647058823529412" d="M 2291.5 2058 L 2293 2058.5 L 2286.5 2061 L 2286.5 2060 L 2291.5 2058 Z " /><path fill="rgb(134,62,255)" stroke="rgb(134,62,255)" stroke-width="1" opacity="0.5647058823529412" d="M 2283.5 2061 L 2285 2061.5 L 2273.5 2066 L 2273.5 2065 L 2283.5 2061 Z " /><path fill="rgb(134,62,255)" stroke="rgb(134,62,255)" stroke-width="1" opacity="0.5647058823529412" d="M 2270.5 2066 L 2272 2066.5 L 2264.5 2070 L 2220.5 2084 L 2220.5 2083 L 2270.5 2066 Z " /><path fill="rgb(134,62,255)" stroke="rgb(134,62,255)" stroke-width="1" opacity="0.5647058823529412" d="M 2218.5 2083 L 2219 2085 L 2196.5 2091 L 2196.5 2090 L 2218.5 2083 Z " /><path fill="rgb(134,62,255)" stroke="rgb(134,62,255)" stroke-width="1" opacity="0.5647058823529412" d="M 2192.5 2091 L 2195 2091.5 L 2185.5 2094 L 2185.5 2093 L 2192.5 2091 Z " /><path fill="rgb(134,62,255)" stroke="rgb(134,62,255)" stroke-width="1" opacity="0.5647058823529412" d="M 1656.5 2094 L 1659 2094.5 L 1656.5 2095 L 1656.5 2094 Z " /><path fill="rgb(134,62,255)" stroke="rgb(134,62,255)" stroke-width="1" opacity="0.5647058823529412" d="M 2181.5 2094 L 2184 2094.5 L 2149.5 2104 L 2147.5 2104 L 2140.5 2106 L 2138.5 2106 L 2131.5 2108 L 2129.5 2108 L 2088.5 2116 L 2063.5 2119 L 2063.5 2118 L 2067.5 2117 L 2069.5 2117 L 2074.5 2116 L 2076.5 2116 L 2080.5 2115 L 2082.5 2115 L 2134.5 2106 L 2181.5 2094 Z " /><path fill="rgb(134,62,255)" stroke="rgb(134,62,255)" stroke-width="1" opacity="0.5647058823529412" d="M 1660.5 2095 L 1679 2099 L 1678.5 2101 L 1660.5 2096 L 1660.5 2095 Z " /><path fill="rgb(134,62,255)" stroke="rgb(134,62,255)" stroke-width="1" opacity="0.5647058823529412" d="M 1680.5 2100 L 1730.5 2111 L 1784 2119.5 L 1778.5 2120 L 1714.5 2109 L 1709.5 2107 L 1683.5 2102 L 1680.5 2101 L 1680.5 2100 Z " /><path fill="rgb(134,62,255)" stroke="rgb(134,62,255)" stroke-width="1" opacity="0.5647058823529412" d="M 2061.5 2118 L 2062 2120 L 2055.5 2121 L 2055 2119 L 2061.5 2118 Z " /><path fill="rgb(134,62,255)" stroke="rgb(134,62,255)" stroke-width="1" opacity="0.5647058823529412" d="M 1785.5 2119 L 1792 2120.5 L 1785 2121 L 1785.5 2119 Z " /><path fill="rgb(134,62,255)" stroke="rgb(134,62,255)" stroke-width="1" opacity="0.5647058823529412" d="M 2046.5 2120 L 2048.5 2120 L 2054 2120.5 L 2041.5 2122 L 2041.5 2121 L 2046.5 2120 Z " /><path fill="rgb(134,62,255)" stroke="rgb(134,62,255)" stroke-width="1" opacity="0.5647058823529412" d="M 1793.5 2121 L 1800 2121.5 L 1793.5 2122 L 1793.5 2121 Z " /><path fill="rgb(134,62,255)" stroke="rgb(134,62,255)" stroke-width="1" opacity="0.5647058823529412" d="M 1801.5 2121 L 1808 2122.5 L 1801 2123 L 1801.5 2121 Z " /><path fill="rgb(134,62,255)" stroke="rgb(134,62,255)" stroke-width="1" opacity="0.5647058823529412" d="M 2030.5 2122 L 2029.5 2124 L 2022 2123.5 L 2030.5 2122 Z " /><path fill="rgb(134,62,255)" stroke="rgb(134,62,255)" stroke-width="1" opacity="0.5647058823529412" d="M 2032.5 2122 L 2038 2122.5 L 2032.5 2123 L 2032.5 2122 Z " /><path fill="rgb(134,62,255)" stroke="rgb(134,62,255)" stroke-width="1" opacity="0.5647058823529412" d="M 1811.5 2123 L 1818 2123.5 L 1811.5 2124 L 1811.5 2123 Z " /><path fill="rgb(134,62,255)" stroke="rgb(134,62,255)" stroke-width="1" opacity="0.5647058823529412" d="M 1820.5 2124 L 1828 2124.5 L 1820.5 2125 L 1820.5 2124 Z " /><path fill="rgb(134,62,255)" stroke="rgb(134,62,255)" stroke-width="1" opacity="0.5647058823529412" d="M 2012.5 2124 L 2019 2124.5 L 2012.5 2125 L 2012.5 2124 Z " /><path fill="rgb(134,62,255)" stroke="rgb(134,62,255)" stroke-width="1" opacity="0.5647058823529412" d="M 1831.5 2125 L 1840 2125.5 L 1831.5 2126 L 1831.5 2125 Z " /><path fill="rgb(134,62,255)" stroke="rgb(134,62,255)" stroke-width="1" opacity="0.5647058823529412" d="M 2000.5 2125 L 2009 2125.5 L 2000.5 2126 L 2000.5 2125 Z " /><path fill="rgb(134,62,255)" stroke="rgb(134,62,255)" stroke-width="1" opacity="0.5647058823529412" d="M 1843.5 2126 L 1853 2126.5 L 1843.5 2127 L 1843.5 2126 Z " /><path fill="rgb(134,62,255)" stroke="rgb(134,62,255)" stroke-width="1" opacity="0.5647058823529412" d="M 1986.5 2126 L 1996 2126.5 L 1986.5 2127 L 1986.5 2126 Z " /><path fill="rgb(134,62,255)" stroke="rgb(134,62,255)" stroke-width="1" opacity="0.5647058823529412" d="M 1858.5 2127 L 1870 2127.5 L 1858.5 2128 L 1858.5 2127 Z " /><path fill="rgb(134,62,255)" stroke="rgb(134,62,255)" stroke-width="1" opacity="0.5647058823529412" d="M 1970.5 2127 L 1983 2127.5 L 1970.5 2128 L 1970.5 2127 Z " /><path fill="rgb(134,62,255)" stroke="rgb(134,62,255)" stroke-width="1" opacity="0.5647058823529412" d="M 1878.5 2128 L 1900 2128.5 L 1878.5 2129 L 1878.5 2128 Z " /><path fill="rgb(134,62,255)" stroke="rgb(134,62,255)" stroke-width="1" opacity="0.5647058823529412" d="M 1939.5 2128 L 1961 2128.5 L 1939.5 2129 L 1939.5 2128 Z " /><path fill="rgb(135,62,255)" stroke="rgb(135,62,255)" stroke-width="1" opacity="1" d="M 1901.5 31 L 1905.5 31 L 1935.5 31 L 1936.5 32 L 1940.5 32 L 1948.5 32 L 1949.5 33 L 1950.5 32 L 1968.5 32 L 1969.5 33 L 1986.5 33 L 1987.5 34 L 2021.5 36 L 2037.5 39 L 2039.5 38 L 2046.5 40 L 2048.5 39 L 2051.5 41 L 2053.5 40 L 2056.5 41 L 2061.5 42 L 2063.5 42 L 2068.5 43 L 2070.5 43 L 2087.5 46 L 2089.5 46 L 2114.5 50 L 2152.5 58 L 2165.5 62 L 2169.5 62 L 2173.5 64 L 2202.5 71 L 2207.5 74 L 2209.5 74 L 2222.5 77 L 2225.5 79 L 2252.5 87 L 2299 104 L 2299.5 106 L 2301.5 106 L 2370.5 136 Q 2384.3 145.7 2401.5 152 L 2451.5 181 L 2520.5 227 L 2589 281 L 2590.5 284 L 2608 298.5 Q 2607.3 301.1 2610 300 L 2610 302 L 2611.5 302 L 2618 307.5 Q 2617.3 309.8 2619.5 309 L 2644.5 334 L 2646 334 L 2661 352 L 2664 353.5 Q 2663.3 355.8 2665.5 355 L 2676 368 L 2680 370.5 L 2686 379 Q 2688.7 377.9 2688 380.5 L 2692 386 Q 2694.7 384.9 2694 387.5 Q 2801.9 509.1 2870 670.5 Q 2867.5 672 2871 673.5 L 2893 730.5 L 2893 733.5 L 2895 736.5 L 2910 783.5 L 2921 824.5 L 2933 880.5 L 2933 885.5 L 2935 890.5 L 2935 892.5 L 2937 907.5 L 2939 913.5 L 2939 915.5 L 2940 920.5 L 2940 922.5 L 2941 927.5 L 2941 929.5 L 2942 933.5 L 2942 935.5 L 2942 941.5 L 2944 949.5 L 2944 951.5 L 2945 958.5 L 2945 960.5 L 2946 974.5 L 2947 975.5 L 2947 985.5 L 2948 986.5 L 2948 996.5 L 2949 997.5 L 2950 1028.5 L 2951 1029.5 L 2951 1059.5 L 2952 1060.5 L 2952 1062.5 L 2952 1097.5 L 2951 1098.5 L 2951 1100.5 L 2951 1129.5 L 2950 1130.5 L 2949 1162.5 L 2948 1163.5 L 2946 1194.5 L 2944 1201.5 L 2944 1203.5 Q 2945.3 1208.3 2943 1209.5 L 2944 1211.5 L 2942 1217.5 L 2943 1219.5 L 2940 1231.5 L 2940 1233.5 L 2937 1257.5 L 2935 1263.5 L 2934 1274.5 L 2928 1304.5 L 2909 1379.5 L 2881 1462.5 L 2845 1545.5 Q 2808.7 1618.7 2764 1683.5 L 2716 1747.5 L 2670 1799.5 L 2670 1801 Q 2667.3 1799.9 2668 1802.5 L 2662 1807 L 2662 1808.5 L 2645 1825.5 L 2645 1827 L 2643.5 1827 L 2605.5 1864 L 2598 1869 L 2596.5 1872 Q 2553.7 1909.7 2506.5 1943 L 2433.5 1990 L 2393.5 2012 L 2322.5 2046 L 2317.5 2047 L 2272.5 2066 L 2222.5 2082 L 2219.5 2084 L 2217.5 2084 L 2195.5 2091 L 2152.5 2102 L 2081.5 2116 L 2079.5 2116 L 2075.5 2117 L 2073.5 2117 L 2068.5 2118 L 2066.5 2118 L 2062.5 2119 L 2060.5 2119 L 2048.5 2120 L 2047.5 2121 L 2045.5 2121 L 2040.5 2122 L 2038.5 2122 Q 2033 2120.5 2031.5 2123 L 2029.5 2123 L 2012.5 2124 L 2011.5 2125 L 2000.5 2125 L 1999.5 2126 L 1986.5 2126 L 1985.5 2127 L 1970.5 2127 L 1969.5 2128 L 1967.5 2128 L 1939.5 2128 L 1938.5 2129 L 1934.5 2129 L 1904.5 2129 L 1903.5 2128 L 1899.5 2128 L 1872.5 2128 L 1871.5 2127 L 1869.5 2127 L 1840.5 2126 L 1839.5 2125 L 1828.5 2125 L 1827.5 2124 L 1818.5 2124 L 1809.5 2122 L 1807.5 2122 Q 1802.8 2123.3 1801.5 2121 L 1799.5 2121 L 1792.5 2121 L 1785.5 2119 L 1783.5 2119 L 1752.5 2115 L 1746.5 2113 L 1741.5 2113 L 1705.5 2106 L 1634.5 2088 L 1562.5 2064 L 1495.5 2036 Q 1357.5 1972 1250 1877.5 Q 1250.8 1875.3 1248.5 1876 L 1235 1865 Q 1236.1 1862.3 1233.5 1863 L 1173 1803.5 L 1171 1800.5 Q 1062.1 1685.9 990 1534.5 L 956 1454.5 L 930 1376.5 L 913 1309.5 L 905 1268.5 L 905 1263.5 L 903 1257.5 L 900 1232.5 L 898 1226.5 L 898 1224.5 Q 899.3 1219.8 897 1218.5 L 897 1216.5 L 895 1195.5 L 894 1194.5 L 894 1185.5 L 893 1184.5 L 892 1163.5 L 891 1162.5 L 890 1130.5 L 889 1129.5 L 889 1100.5 L 888 1099.5 L 888 1097.5 L 888 1062.5 L 889 1061.5 L 889 1059.5 L 889 1029.5 L 890 1028.5 L 891 997.5 L 892 996.5 L 894 965.5 L 897 949.5 L 897 947.5 L 898 941.5 L 898 939.5 L 899 935.5 L 899 933.5 Q 897.8 928.7 900 927.5 L 900 925.5 L 905 891.5 L 915 841.5 L 928 790.5 L 936 767.5 L 936 765.5 L 946 733.5 L 954 713.5 L 954 710.5 L 973 663.5 L 996 612.5 L 1023 561 L 1025 560.5 Q 1022.5 559 1026 557.5 Q 1048.9 514.9 1076 476.5 L 1099 444.5 L 1140 393 Q 1142.7 394.1 1142 391.5 L 1160 370 Q 1162.7 371.1 1162 368.5 L 1170 359 Q 1172.7 360.1 1172 357.5 L 1177 354 L 1177 352.5 L 1195 334.5 L 1195 333 L 1213 318 L 1213 316.5 L 1222.5 307 L 1258.5 275 L 1265 271 Q 1263.9 268.3 1266.5 269 Q 1326.7 217.7 1396.5 176 L 1398 176.5 Q 1397.3 174.3 1399.5 175 L 1446.5 148 L 1497.5 123 L 1551.5 100 L 1608.5 80 L 1618.5 78 L 1621.5 76 L 1623.5 76 L 1630.5 73 L 1670.5 63 L 1674.5 61 L 1678.5 61 L 1687.5 58 L 1725.5 50 L 1730.5 50 L 1735.5 48 L 1752.5 46 L 1757.5 44 L 1759.5 44 Q 1764.3 45.3 1765.5 43 L 1767.5 43 L 1770.5 42 L 1772.5 42 L 1777.5 41 L 1779.5 41 L 1784.5 40 L 1786.5 40 L 1792.5 39 L 1794.5 39 L 1796.5 40 L 1799.5 38 L 1803.5 38 L 1810.5 37 L 1812.5 37 L 1834.5 35 L 1836.5 35 L 1857.5 33 L 1859.5 33 L 1869.5 33 L 1870.5 32 L 1900.5 32 L 1901.5 31 Z M 1221 626 L 1220 627 L 1213 627 L 1196 630 L 1173 637 Q 1150 646 1134 663 Q 1135 665 1132 664 L 1121 680 L 1111 702 L 1106 726 L 1105 751 L 1105 753 L 1106 754 L 1106 764 L 1109 781 L 1116 802 Q 1125 821 1141 835 Q 1143 834 1142 837 L 1162 850 L 1175 856 L 1198 863 L 1203 863 L 1209 865 L 1217 865 L 1218 866 L 1229 866 L 1231 866 L 1232 867 L 1337 867 L 1337 1346 L 1338 1347 L 1338 1357 L 1339 1358 L 1339 1365 L 1342 1382 L 1351 1413 Q 1363 1443 1383 1467 Q 1409 1496 1447 1514 L 1480 1526 L 1497 1530 L 1514 1532 L 1515 1533 L 1525 1533 L 1526 1534 L 1580 1534 L 1581 1533 L 1606 1531 L 1630 1526 Q 1679 1512 1713 1482 Q 1731 1465 1747 1445 L 1779 1397 L 1931 1112 L 1931 1341 L 1931 1343 L 1932 1344 L 1932 1355 L 1932 1357 L 1939 1394 L 1949 1423 Q 1961 1449 1979 1470 Q 2013 1508 2069 1525 L 2095 1531 L 2107 1532 L 2108 1533 L 2117 1533 L 2118 1534 L 2173 1534 L 2175 1534 L 2176 1533 L 2194 1532 L 2201 1530 L 2212 1529 L 2232 1524 L 2252 1517 Q 2270 1509 2286 1498 L 2310 1478 L 2312 1475 Q 2314 1476 2313 1474 L 2316 1472 L 2345 1437 L 2375 1392 L 2702 837 L 2716 811 L 2729 777 L 2733 758 L 2734 738 L 2735 737 L 2734 736 L 2733 716 L 2728 699 Q 2722 685 2714 675 Q 2697 653 2670 642 L 2654 636 L 2635 631 L 2612 628 L 2611 627 L 2603 627 L 2601 627 L 2600 626 L 2550 626 L 2548 626 L 2547 627 L 2532 628 L 2517 631 L 2490 640 Q 2466 651 2448 667 L 2423 694 Q 2407 713 2395 737 L 2177 1152 L 2176 770 L 2176 768 L 2175 767 L 2175 757 L 2174 756 L 2173 742 L 2165 711 L 2153 685 L 2143 671 Q 2127 651 2103 639 L 2084 632 L 2052 626 L 2003 626 L 2002 627 L 1994 627 L 1993 628 L 1975 630 L 1946 639 Q 1926 648 1911 661 Q 1894 675 1881 694 L 1865 718 L 1852 741 L 1644 1152 L 1643 780 L 1643 778 L 1642 777 L 1641 752 L 1635 721 L 1624 692 L 1610 671 Q 1580 634 1519 628 L 1517 628 Q 1515 625 1509 627 L 1507 627 L 1506 626 L 1221 626 Z " /><path fill="rgb(213,185,255)" stroke="rgb(213,185,255)" stroke-width="1" opacity="1" d="M 1220.5 626 L 1227 626.5 L 1220.5 627 L 1220.5 626 Z " /><path fill="rgb(213,185,255)" stroke="rgb(213,185,255)" stroke-width="1" opacity="1" d="M 1499.5 626 L 1506 626.5 L 1499.5 627 L 1499.5 626 Z " /><path fill="rgb(213,185,255)" stroke="rgb(213,185,255)" stroke-width="1" opacity="1" d="M 2002.5 626 L 2010 626.5 L 2002.5 627 L 2002.5 626 Z " /><path fill="rgb(213,185,255)" stroke="rgb(213,185,255)" stroke-width="1" opacity="1" d="M 2045.5 626 L 2052 626.5 L 2045.5 627 L 2045.5 626 Z " /><path fill="rgb(213,185,255)" stroke="rgb(213,185,255)" stroke-width="1" opacity="1" d="M 2549.5 626 L 2556 626.5 L 2549.5 627 L 2549.5 626 Z " /><path fill="rgb(213,185,255)" stroke="rgb(213,185,255)" stroke-width="1" opacity="1" d="M 2593.5 626 L 2600 626.5 L 2593.5 627 L 2593.5 626 Z " /><path fill="rgb(213,185,255)" stroke="rgb(213,185,255)" stroke-width="1" opacity="1" d="M 1212.5 627 L 1217 627.5 L 1212.5 628 L 1212.5 627 Z " /><path fill="rgb(213,185,255)" stroke="rgb(213,185,255)" stroke-width="1" opacity="1" d="M 1512.5 627 L 1516 627.5 L 1512.5 628 L 1512.5 627 Z " /><path fill="rgb(213,185,255)" stroke="rgb(213,185,255)" stroke-width="1" opacity="1" d="M 1993.5 627 L 1997 627.5 L 1993.5 628 L 1993.5 627 Z " /><path fill="rgb(213,185,255)" stroke="rgb(213,185,255)" stroke-width="1" opacity="1" d="M 2056.5 627 L 2061 627.5 L 2056.5 628 L 2056.5 627 Z " /><path fill="rgb(213,185,255)" stroke="rgb(213,185,255)" stroke-width="1" opacity="1" d="M 2539.5 627 L 2545 627.5 L 2539.5 628 L 2539.5 627 Z " /><path fill="rgb(213,185,255)" stroke="rgb(213,185,255)" stroke-width="1" opacity="1" d="M 2605.5 627 L 2611 627.5 L 2605.5 628 L 2605.5 627 Z " /><path fill="rgb(213,185,255)" stroke="rgb(213,185,255)" stroke-width="1" opacity="1" d="M 1205.5 628 L 1209 628.5 L 1205.5 629 L 1205.5 628 Z " /><path fill="rgb(213,185,255)" stroke="rgb(213,185,255)" stroke-width="1" opacity="1" d="M 1520.5 628 L 1525 628.5 L 1520.5 629 L 1520.5 628 Z " /><path fill="rgb(213,185,255)" stroke="rgb(213,185,255)" stroke-width="1" opacity="1" d="M 1985.5 628 L 1989 628.5 L 1985.5 629 L 1985.5 628 Z " /><path fill="rgb(213,185,255)" stroke="rgb(213,185,255)" stroke-width="1" opacity="1" d="M 2063.5 628 L 2067 628.5 L 2063.5 629 L 2063.5 628 Z " /><path fill="rgb(213,185,255)" stroke="rgb(213,185,255)" stroke-width="1" opacity="1" d="M 2531.5 628 L 2536 628.5 L 2531.5 629 L 2531.5 628 Z " /><path fill="rgb(213,185,255)" stroke="rgb(213,185,255)" stroke-width="1" opacity="1" d="M 2614.5 628 L 2618 628.5 L 2614.5 629 L 2614.5 628 Z " /><path fill="rgb(213,185,255)" stroke="rgb(213,185,255)" stroke-width="1" opacity="1" d="M 1200.5 629 L 1203 629.5 L 1200.5 630 L 1200.5 629 Z " /><path fill="rgb(213,185,255)" stroke="rgb(213,185,255)" stroke-width="1" opacity="1" d="M 1527.5 629 L 1531 629.5 L 1527.5 630 L 1527.5 629 Z " /><path fill="rgb(213,185,255)" stroke="rgb(213,185,255)" stroke-width="1" opacity="1" d="M 1979.5 629 L 1983 629.5 L 1978.5 631 L 1979.5 629 Z " /><path fill="rgb(213,185,255)" stroke="rgb(213,185,255)" stroke-width="1" opacity="1" d="M 2069.5 629 L 2072 629.5 L 2069.5 630 L 2069.5 629 Z " /><path fill="rgb(213,185,255)" stroke="rgb(213,185,255)" stroke-width="1" opacity="1" d="M 2526.5 629 L 2530 629.5 L 2526.5 630 L 2526.5 629 Z " /><path fill="rgb(213,185,255)" stroke="rgb(213,185,255)" stroke-width="1" opacity="1" d="M 2622.5 629 L 2625 629.5 L 2622.5 630 L 2622.5 629 Z " /><path fill="rgb(213,185,255)" stroke="rgb(213,185,255)" stroke-width="1" opacity="1" d="M 1195.5 630 L 1198 630.5 L 1195.5 631 L 1195.5 630 Z " /><path fill="rgb(213,185,255)" stroke="rgb(213,185,255)" stroke-width="1" opacity="1" d="M 1533.5 630 L 1536 630.5 L 1533.5 631 L 1533.5 630 Z " /><path fill="rgb(213,185,255)" stroke="rgb(213,185,255)" stroke-width="1" opacity="1" d="M 1974.5 630 L 1977 630.5 L 1974.5 631 L 1974.5 630 Z " /><path fill="rgb(213,185,255)" stroke="rgb(213,185,255)" stroke-width="1" opacity="1" d="M 2073.5 630 L 2076 630.5 L 2073.5 631 L 2073.5 630 Z " /><path fill="rgb(213,185,255)" stroke="rgb(213,185,255)" stroke-width="1" opacity="1" d="M 1191.5 631 L 1194 631.5 L 1191.5 632 L 1191.5 631 Z " /><path fill="rgb(213,185,255)" stroke="rgb(213,185,255)" stroke-width="1" opacity="1" d="M 1538.5 631 L 1541 631.5 L 1538.5 632 L 1538.5 631 Z " /><path fill="rgb(213,185,255)" stroke="rgb(213,185,255)" stroke-width="1" opacity="1" d="M 1970.5 631 L 1973 631.5 L 1970.5 632 L 1970.5 631 Z " /><path fill="rgb(213,185,255)" stroke="rgb(213,185,255)" stroke-width="1" opacity="1" d="M 2516.5 631 L 2519 631.5 L 2515.5 633 L 2516.5 631 Z " /><path fill="rgb(213,185,255)" stroke="rgb(213,185,255)" stroke-width="1" opacity="1" d="M 1542.5 632 L 1545 632.5 L 1542.5 633 L 1542.5 632 Z " /><path fill="rgb(213,185,255)" stroke="rgb(213,185,255)" stroke-width="1" opacity="1" d="M 1962.5 633 L 1965 633.5 L 1962.5 634 L 1962.5 633 Z " /><path fill="rgb(213,185,255)" stroke="rgb(213,185,255)" stroke-width="1" opacity="1" d="M 1172.5 637 L 1174 637.5 L 1170.5 639 L 1170.5 638 L 1172.5 637 Z " /><path fill="rgb(213,185,255)" stroke="rgb(213,185,255)" stroke-width="1" opacity="1" d="M 1945.5 639 L 1947 639.5 L 1943.5 641 L 1943.5 640 L 1945.5 639 Z " /><path fill="rgb(213,185,255)" stroke="rgb(213,185,255)" stroke-width="1" opacity="1" d="M 2101.5 639 L 2110 643.5 L 2108.5 643 L 2101.5 640 L 2101.5 639 Z " /><path fill="rgb(213,185,255)" stroke="rgb(213,185,255)" stroke-width="1" opacity="1" d="M 1165.5 640 L 1167 640.5 L 1158.5 645 L 1159.5 643 L 1165.5 640 Z " /><path fill="rgb(213,185,255)" stroke="rgb(213,185,255)" stroke-width="1" opacity="1" d="M 1567.5 640 L 1573 642.5 L 1571.5 643 L 1567.5 641 L 1567.5 640 Z " /><path fill="rgb(213,185,255)" stroke="rgb(213,185,255)" stroke-width="1" opacity="1" d="M 2489.5 640 L 2491 640.5 L 2487.5 642 L 2487.5 641 L 2489.5 640 Z " /><path fill="rgb(213,185,255)" stroke="rgb(213,185,255)" stroke-width="1" opacity="1" d="M 1576.5 644 L 1579 645.5 L 1577.5 646 L 1576.5 644 Z " /><path fill="rgb(213,185,255)" stroke="rgb(213,185,255)" stroke-width="1" opacity="1" d="M 1156.5 645 L 1155.5 647 L 1153.5 648 L 1154.5 646 L 1156.5 645 Z " /><path fill="rgb(213,185,255)" stroke="rgb(213,185,255)" stroke-width="1" opacity="1" d="M 1933.5 645 L 1932.5 647 L 1930.5 648 L 1931.5 646 L 1933.5 645 Z " /><path fill="rgb(213,185,255)" stroke="rgb(213,185,255)" stroke-width="1" opacity="1" d="M 2113.5 645 L 2114.5 647 L 2113.5 645 Z " /><path fill="rgb(213,185,255)" stroke="rgb(213,185,255)" stroke-width="1" opacity="1" d="M 1151.5 648 L 1150.5 650 L 1151.5 648 Z " /><path fill="rgb(213,185,255)" stroke="rgb(213,185,255)" stroke-width="1" opacity="1" d="M 2681.5 648 L 2685 650.5 L 2683.5 650 L 2681.5 648 Z " /><path fill="rgb(213,185,255)" stroke="rgb(213,185,255)" stroke-width="1" opacity="1" d="M 2119.5 649 L 2120.5 651 L 2119.5 649 Z " /><path fill="rgb(213,185,255)" stroke="rgb(213,185,255)" stroke-width="1" opacity="1" d="M 1148.5 650 L 1147.5 652 L 1148.5 650 Z " /><path fill="rgb(213,185,255)" stroke="rgb(213,185,255)" stroke-width="1" opacity="1" d="M 2122.5 651 L 2123.5 653 L 2122.5 651 Z " /><path fill="rgb(213,185,255)" stroke="rgb(213,185,255)" stroke-width="1" opacity="1" d="M 1144.5 653 L 1142.5 656 L 1144.5 653 Z " /><path fill="rgb(213,185,255)" stroke="rgb(213,185,255)" stroke-width="1" opacity="1" d="M 1592.5 654 L 1594.5 657 L 1592.5 654 Z " /><path fill="rgb(213,185,255)" stroke="rgb(213,185,255)" stroke-width="1" opacity="1" d="M 1919.5 654 L 1918.5 656 L 1919.5 654 Z " /><path fill="rgb(213,185,255)" stroke="rgb(213,185,255)" stroke-width="1" opacity="1" d="M 2126.5 654 L 2129.5 658 L 2126.5 654 Z " /><path fill="rgb(213,185,255)" stroke="rgb(213,185,255)" stroke-width="1" opacity="1" d="M 2691.5 654 L 2692.5 656 L 2691.5 654 Z " /><path fill="rgb(213,185,255)" stroke="rgb(213,185,255)" stroke-width="1" opacity="1" d="M 1916.5 656 L 1914.5 659 L 1916.5 656 Z " /><path fill="rgb(213,185,255)" stroke="rgb(213,185,255)" stroke-width="1" opacity="1" d="M 2461.5 656 L 2460.5 658 L 2461.5 656 Z " /><path fill="rgb(213,185,255)" stroke="rgb(213,185,255)" stroke-width="1" opacity="1" d="M 2695.5 657 L 2696.5 659 L 2695.5 657 Z " /><path fill="rgb(213,185,255)" stroke="rgb(213,185,255)" stroke-width="1" opacity="1" d="M 1138.5 658 L 1134.5 663 L 1138.5 658 Z " /><path fill="rgb(213,185,255)" stroke="rgb(213,185,255)" stroke-width="1" opacity="1" d="M 1597.5 658 L 1602.5 664 L 1597.5 658 Z " /><path fill="rgb(213,185,255)" stroke="rgb(213,185,255)" stroke-width="1" opacity="1" d="M 2458.5 658 L 2456.5 661 L 2458.5 658 Z " /><path fill="rgb(213,185,255)" stroke="rgb(213,185,255)" stroke-width="1" opacity="1" d="M 2699.5 660 L 2702.5 664 L 2699.5 660 Z " /><path fill="rgb(213,185,255)" stroke="rgb(213,185,255)" stroke-width="1" opacity="1" d="M 1910.5 661 L 1906.5 666 L 1910.5 661 Z " /><path fill="rgb(213,185,255)" stroke="rgb(213,185,255)" stroke-width="1" opacity="1" d="M 2453.5 662 L 2451.5 665 L 2453.5 662 Z " /><path fill="rgb(213,185,255)" stroke="rgb(213,185,255)" stroke-width="1" opacity="1" d="M 1604.5 665 L 1609.5 671 L 1604.5 665 Z " /><path fill="rgb(213,185,255)" stroke="rgb(213,185,255)" stroke-width="1" opacity="1" d="M 1130.5 667 L 1127.5 671 L 1130.5 667 Z " /><path fill="rgb(213,185,255)" stroke="rgb(213,185,255)" stroke-width="1" opacity="1" d="M 2139.5 667 L 2142.5 671 L 2139.5 667 Z " /><path fill="rgb(213,185,255)" stroke="rgb(213,185,255)" stroke-width="1" opacity="1" d="M 2447.5 667 L 2433.5 682 L 2447.5 667 Z " /><path fill="rgb(213,185,255)" stroke="rgb(213,185,255)" stroke-width="1" opacity="1" d="M 2709.5 670 L 2713.5 675 L 2709.5 670 Z " /><path fill="rgb(213,185,255)" stroke="rgb(213,185,255)" stroke-width="1" opacity="1" d="M 1126.5 672 L 1125.5 674 L 1126.5 672 Z " /><path fill="rgb(213,185,255)" stroke="rgb(213,185,255)" stroke-width="1" opacity="1" d="M 1611.5 673 L 1613.5 676 L 1611.5 673 Z " /><path fill="rgb(213,185,255)" stroke="rgb(213,185,255)" stroke-width="1" opacity="1" d="M 1898.5 673 L 1892.5 680 L 1898.5 673 Z " /><path fill="rgb(213,185,255)" stroke="rgb(213,185,255)" stroke-width="1" opacity="1" d="M 2144.5 673 L 2145.5 675 L 2144.5 673 Z " /><path fill="rgb(213,185,255)" stroke="rgb(213,185,255)" stroke-width="1" opacity="1" d="M 1614.5 677 L 1615.5 679 L 1614.5 677 Z " /><path fill="rgb(213,185,255)" stroke="rgb(213,185,255)" stroke-width="1" opacity="1" d="M 2147.5 677 L 2148.5 679 L 2147.5 677 Z " /><path fill="rgb(213,185,255)" stroke="rgb(213,185,255)" stroke-width="1" opacity="1" d="M 2715.5 677 L 2716.5 679 L 2715.5 677 Z " /><path fill="rgb(213,185,255)" stroke="rgb(213,185,255)" stroke-width="1" opacity="1" d="M 1122.5 678 L 1121.5 680 L 1122.5 678 Z " /><path fill="rgb(213,185,255)" stroke="rgb(213,185,255)" stroke-width="1" opacity="1" d="M 1616.5 680 L 1617.5 682 L 1616.5 680 Z " /><path fill="rgb(213,185,255)" stroke="rgb(213,185,255)" stroke-width="1" opacity="1" d="M 2149.5 680 L 2150.5 682 L 2149.5 680 Z " /><path fill="rgb(213,185,255)" stroke="rgb(213,185,255)" stroke-width="1" opacity="1" d="M 2717.5 680 L 2718.5 682 L 2717.5 680 Z " /><path fill="rgb(213,185,255)" stroke="rgb(213,185,255)" stroke-width="1" opacity="1" d="M 1890.5 682 L 1888.5 685 L 1890.5 682 Z " /><path fill="rgb(213,185,255)" stroke="rgb(213,185,255)" stroke-width="1" opacity="1" d="M 1618.5 683 L 1619.5 685 L 1618.5 683 Z " /><path fill="rgb(213,185,255)" stroke="rgb(213,185,255)" stroke-width="1" opacity="1" d="M 2151.5 683 L 2154 686.5 L 2152 685.5 L 2151.5 683 Z " /><path fill="rgb(213,185,255)" stroke="rgb(213,185,255)" stroke-width="1" opacity="1" d="M 2719.5 683 L 2720.5 685 L 2719.5 683 Z " /><path fill="rgb(213,185,255)" stroke="rgb(213,185,255)" stroke-width="1" opacity="1" d="M 2430.5 685 L 2427.5 689 L 2430.5 685 Z " /><path fill="rgb(213,185,255)" stroke="rgb(213,185,255)" stroke-width="1" opacity="1" d="M 1885.5 688 L 1884.5 690 L 1885.5 688 Z " /><path fill="rgb(213,185,255)" stroke="rgb(213,185,255)" stroke-width="1" opacity="1" d="M 1623.5 691 L 1625 694.5 L 1624 694.5 L 1623.5 691 Z " /><path fill="rgb(213,185,255)" stroke="rgb(213,185,255)" stroke-width="1" opacity="1" d="M 2425.5 691 L 2423.5 694 L 2425.5 691 Z " /><path fill="rgb(213,185,255)" stroke="rgb(213,185,255)" stroke-width="1" opacity="1" d="M 2724.5 691 L 2726 694.5 L 2725 694.5 L 2724.5 691 Z " /><path fill="rgb(213,185,255)" stroke="rgb(213,185,255)" stroke-width="1" opacity="1" d="M 1882.5 692 L 1881.5 694 L 1882.5 692 Z " /><path fill="rgb(213,185,255)" stroke="rgb(213,185,255)" stroke-width="1" opacity="1" d="M 1880.5 695 L 1879.5 697 L 1880.5 695 Z " /><path fill="rgb(213,185,255)" stroke="rgb(213,185,255)" stroke-width="1" opacity="1" d="M 2421.5 696 L 2420.5 698 L 2421.5 696 Z " /><path fill="rgb(213,185,255)" stroke="rgb(213,185,255)" stroke-width="1" opacity="1" d="M 1877.5 699 L 1876.5 701 L 1877.5 699 Z " /><path fill="rgb(213,185,255)" stroke="rgb(213,185,255)" stroke-width="1" opacity="1" d="M 2418.5 700 L 2417.5 702 L 2418.5 700 Z " /><path fill="rgb(213,185,255)" stroke="rgb(213,185,255)" stroke-width="1" opacity="1" d="M 1875.5 702 L 1874.5 704 L 1875.5 702 Z " /><path fill="rgb(213,185,255)" stroke="rgb(213,185,255)" stroke-width="1" opacity="1" d="M 1873.5 705 L 1872.5 707 L 1873.5 705 Z " /><path fill="rgb(213,185,255)" stroke="rgb(213,185,255)" stroke-width="1" opacity="1" d="M 2413.5 707 L 2412.5 709 L 2413.5 707 Z " /><path fill="rgb(213,185,255)" stroke="rgb(213,185,255)" stroke-width="1" opacity="1" d="M 1109.5 708 L 1110 710.5 L 1109 710.5 L 1109.5 708 Z " /><path fill="rgb(213,185,255)" stroke="rgb(213,185,255)" stroke-width="1" opacity="1" d="M 2411.5 710 L 2410.5 712 L 2411.5 710 Z " /><path fill="rgb(213,185,255)" stroke="rgb(213,185,255)" stroke-width="1" opacity="1" d="M 1868.5 713 L 1867.5 715 L 1868.5 713 Z " /><path fill="rgb(213,185,255)" stroke="rgb(213,185,255)" stroke-width="1" opacity="1" d="M 2409.5 713 L 2409 714.5 L 2407.5 717 L 2408 715.5 L 2409.5 713 Z " /><path fill="rgb(213,185,255)" stroke="rgb(213,185,255)" stroke-width="1" opacity="1" d="M 2732.5 715 L 2733 717.5 L 2732 717.5 L 2732.5 715 Z " /><path fill="rgb(213,185,255)" stroke="rgb(213,185,255)" stroke-width="1" opacity="1" d="M 1866.5 716 L 1866 717.5 L 1864.5 720 L 1865 718.5 L 1866.5 716 Z " /><path fill="rgb(213,185,255)" stroke="rgb(213,185,255)" stroke-width="1" opacity="1" d="M 1107.5 718 L 1108 720.5 L 1107 720.5 L 1107.5 718 Z " /><path fill="rgb(213,185,255)" stroke="rgb(213,185,255)" stroke-width="1" opacity="1" d="M 2406.5 718 L 2405.5 720 L 2406.5 718 Z " /><path fill="rgb(213,185,255)" stroke="rgb(213,185,255)" stroke-width="1" opacity="1" d="M 2167.5 719 L 2168 721.5 L 2167 721.5 L 2167.5 719 Z " /><path fill="rgb(213,185,255)" stroke="rgb(213,185,255)" stroke-width="1" opacity="1" d="M 2733.5 722 L 2734 725.5 L 2733 725.5 L 2733.5 722 Z " /><path fill="rgb(213,185,255)" stroke="rgb(213,185,255)" stroke-width="1" opacity="1" d="M 1862.5 723 L 1861.5 725 L 1862.5 723 Z " /><path fill="rgb(213,185,255)" stroke="rgb(213,185,255)" stroke-width="1" opacity="1" d="M 1106.5 725 L 1107 728.5 L 1106 728.5 L 1106.5 725 Z " /><path fill="rgb(213,185,255)" stroke="rgb(213,185,255)" stroke-width="1" opacity="1" d="M 1636.5 728 L 1637 730.5 L 1636 730.5 L 1636.5 728 Z " /><path fill="rgb(213,185,255)" stroke="rgb(213,185,255)" stroke-width="1" opacity="1" d="M 2170.5 731 L 2171 733.5 L 2170 733.5 L 2170.5 731 Z " /><path fill="rgb(213,185,255)" stroke="rgb(213,185,255)" stroke-width="1" opacity="1" d="M 1637.5 733 L 1638 735.5 L 1637 735.5 L 1637.5 733 Z " /><path fill="rgb(213,185,255)" stroke="rgb(213,185,255)" stroke-width="1" opacity="1" d="M 2396.5 735 L 2396 736.5 L 2394.5 739 L 2395 737.5 L 2396.5 735 Z " /><path fill="rgb(213,185,255)" stroke="rgb(213,185,255)" stroke-width="1" opacity="1" d="M 1105.5 736 L 1106 750.5 L 1105 750.5 L 1105.5 736 Z " /><path fill="rgb(213,185,255)" stroke="rgb(213,185,255)" stroke-width="1" opacity="1" d="M 2171.5 736 L 2172 738.5 L 2171 738.5 L 2171.5 736 Z " /><path fill="rgb(213,185,255)" stroke="rgb(213,185,255)" stroke-width="1" opacity="1" d="M 1638.5 738 L 1639 740.5 L 1638 740.5 L 1638.5 738 Z " /><path fill="rgb(213,185,255)" stroke="rgb(213,185,255)" stroke-width="1" opacity="1" d="M 1853.5 739 L 1853 740.5 L 1850.5 745 L 1851 743.5 L 1853.5 739 Z " /><path fill="rgb(213,185,255)" stroke="rgb(213,185,255)" stroke-width="1" opacity="1" d="M 2172.5 741 L 2173 744.5 L 2172 744.5 L 2172.5 741 Z " /><path fill="rgb(213,185,255)" stroke="rgb(213,185,255)" stroke-width="1" opacity="1" d="M 1639.5 744 L 1640 747.5 L 1639 747.5 L 1639.5 744 Z " /><path fill="rgb(213,185,255)" stroke="rgb(213,185,255)" stroke-width="1" opacity="1" d="M 2733.5 746 L 2734 750.5 L 2733 750.5 L 2733.5 746 Z " /><path fill="rgb(213,185,255)" stroke="rgb(213,185,255)" stroke-width="1" opacity="1" d="M 2173.5 748 L 2174 751.5 L 2173 751.5 L 2173.5 748 Z " /><path fill="rgb(213,185,255)" stroke="rgb(213,185,255)" stroke-width="1" opacity="1" d="M 1640.5 751 L 1641 756.5 L 1640 756.5 L 1640.5 751 Z " /><path fill="rgb(213,185,255)" stroke="rgb(213,185,255)" stroke-width="1" opacity="1" d="M 2386.5 753 L 2387 754.5 L 2385 755.5 L 2386.5 753 Z " /><path fill="rgb(213,185,255)" stroke="rgb(213,185,255)" stroke-width="1" opacity="1" d="M 2732.5 755 L 2733 757.5 L 2732 757.5 L 2732.5 755 Z " /><path fill="rgb(213,185,255)" stroke="rgb(213,185,255)" stroke-width="1" opacity="1" d="M 2174.5 756 L 2175 760.5 L 2174 760.5 L 2174.5 756 Z " /><path fill="rgb(213,185,255)" stroke="rgb(213,185,255)" stroke-width="1" opacity="1" d="M 1106.5 759 L 1107 763.5 L 1106 763.5 L 1106.5 759 Z " /><path fill="rgb(213,185,255)" stroke="rgb(213,185,255)" stroke-width="1" opacity="1" d="M 1641.5 761 L 1642 767.5 L 1641 767.5 L 1641.5 761 Z " /><path fill="rgb(213,185,255)" stroke="rgb(213,185,255)" stroke-width="1" opacity="1" d="M 2731.5 761 L 2732 763.5 L 2731 763.5 L 2731.5 761 Z " /><path fill="rgb(213,185,255)" stroke="rgb(213,185,255)" stroke-width="1" opacity="1" d="M 2730.5 766 L 2731 768.5 L 2730 768.5 L 2730.5 766 Z " /><path fill="rgb(213,185,255)" stroke="rgb(213,185,255)" stroke-width="1" opacity="1" d="M 1107.5 768 L 1108 770.5 L 1107 770.5 L 1107.5 768 Z " /><path fill="rgb(213,185,255)" stroke="rgb(213,185,255)" stroke-width="1" opacity="1" d="M 2175.5 769 L 2176 775.5 L 2175 775.5 L 2175.5 769 Z " /><path fill="rgb(213,185,255)" stroke="rgb(213,185,255)" stroke-width="1" opacity="1" d="M 2729.5 770 L 2730 772.5 L 2729 772.5 L 2729.5 770 Z " /><path fill="rgb(213,185,255)" stroke="rgb(213,185,255)" stroke-width="1" opacity="1" d="M 2728.5 774 L 2729 776.5 L 2728 776.5 L 2728.5 774 Z " /><path fill="rgb(213,185,255)" stroke="rgb(213,185,255)" stroke-width="1" opacity="1" d="M 1642.5 779 L 1643 1151.5 L 1644 1152.5 L 1642 1153 L 1642.5 779 Z " /><path fill="rgb(213,185,255)" stroke="rgb(213,185,255)" stroke-width="1" opacity="1" d="M 1831.5 782 L 1830.5 784 L 1831.5 782 Z " /><path fill="rgb(213,185,255)" stroke="rgb(213,185,255)" stroke-width="1" opacity="1" d="M 2369.5 786 L 2369 787.5 L 2365.5 794 L 2366 792.5 L 2369.5 786 Z " /><path fill="rgb(213,185,255)" stroke="rgb(213,185,255)" stroke-width="1" opacity="1" d="M 1826.5 791 L 1827 792.5 L 1823.5 798 L 1824 796.5 L 1826.5 791 Z " /><path fill="rgb(213,185,255)" stroke="rgb(213,185,255)" stroke-width="1" opacity="1" d="M 1822.5 799 L 1823 800.5 L 1821 801.5 L 1822.5 799 Z " /><path fill="rgb(213,185,255)" stroke="rgb(213,185,255)" stroke-width="1" opacity="1" d="M 2715.5 809 L 2716 810.5 L 2710.5 820 L 2711 818.5 L 2715.5 809 Z " /><path fill="rgb(213,185,255)" stroke="rgb(213,185,255)" stroke-width="1" opacity="1" d="M 2356.5 810 L 2357 811.5 L 2354.5 815 L 2355 813.5 L 2356.5 810 Z " /><path fill="rgb(213,185,255)" stroke="rgb(213,185,255)" stroke-width="1" opacity="1" d="M 1122.5 812 L 1125 815.5 L 1123 814.5 L 1122.5 812 Z " /><path fill="rgb(213,185,255)" stroke="rgb(213,185,255)" stroke-width="1" opacity="1" d="M 1126.5 818 L 1127.5 820 L 1126.5 818 Z " /><path fill="rgb(213,185,255)" stroke="rgb(213,185,255)" stroke-width="1" opacity="1" d="M 1128.5 821 L 1130.5 824 L 1128.5 821 Z " /><path fill="rgb(213,185,255)" stroke="rgb(213,185,255)" stroke-width="1" opacity="1" d="M 1133.5 827 L 1140.5 835 L 1133.5 827 Z " /><path fill="rgb(213,185,255)" stroke="rgb(213,185,255)" stroke-width="1" opacity="1" d="M 2345.5 831 L 2346 832.5 L 2344 833.5 L 2345.5 831 Z " /><path fill="rgb(213,185,255)" stroke="rgb(213,185,255)" stroke-width="1" opacity="1" d="M 2702.5 834 L 2702 835.5 L 2700.5 838 L 2701 836.5 L 2702.5 834 Z " /><path fill="rgb(213,185,255)" stroke="rgb(213,185,255)" stroke-width="1" opacity="1" d="M 1145.5 838 L 1146.5 840 L 1145.5 838 Z " /><path fill="rgb(213,185,255)" stroke="rgb(213,185,255)" stroke-width="1" opacity="1" d="M 2699.5 839 L 2699 840.5 L 2697.5 843 L 2698 841.5 L 2699.5 839 Z " /><path fill="rgb(213,185,255)" stroke="rgb(213,185,255)" stroke-width="1" opacity="1" d="M 1149.5 841 L 1150.5 843 L 1149.5 841 Z " /><path fill="rgb(213,185,255)" stroke="rgb(213,185,255)" stroke-width="1" opacity="1" d="M 1155.5 845 L 1156.5 847 L 1155.5 845 Z " /><path fill="rgb(213,185,255)" stroke="rgb(213,185,255)" stroke-width="1" opacity="1" d="M 1798.5 846 L 1799 847.5 L 1792.5 859 L 1793 857.5 L 1798.5 846 Z " /><path fill="rgb(213,185,255)" stroke="rgb(213,185,255)" stroke-width="1" opacity="1" d="M 2695.5 846 L 2694.5 848 L 2695.5 846 Z " /><path fill="rgb(213,185,255)" stroke="rgb(213,185,255)" stroke-width="1" opacity="1" d="M 1160.5 848 L 1166 851.5 L 1164.5 851 Q 1160.5 850.5 1160.5 848 Z " /><path fill="rgb(213,185,255)" stroke="rgb(213,185,255)" stroke-width="1" opacity="1" d="M 2336.5 848 L 2337 849.5 L 2335 850.5 L 2336.5 848 Z " /><path fill="rgb(213,185,255)" stroke="rgb(213,185,255)" stroke-width="1" opacity="1" d="M 2692.5 851 L 2691.5 853 L 2692.5 851 Z " /><path fill="rgb(213,185,255)" stroke="rgb(213,185,255)" stroke-width="1" opacity="1" d="M 2689.5 856 L 2689 857.5 L 2687.5 860 L 2688 858.5 L 2689.5 856 Z " /><path fill="rgb(213,185,255)" stroke="rgb(213,185,255)" stroke-width="1" opacity="1" d="M 1189.5 860 L 1192 860.5 L 1189.5 861 L 1189.5 860 Z " /><path fill="rgb(213,185,255)" stroke="rgb(213,185,255)" stroke-width="1" opacity="1" d="M 1791.5 860 L 1792 861.5 L 1790 862.5 L 1791.5 860 Z " /><path fill="rgb(213,185,255)" stroke="rgb(213,185,255)" stroke-width="1" opacity="1" d="M 1193.5 861 L 1196 861.5 L 1193.5 862 L 1193.5 861 Z " /><path fill="rgb(213,185,255)" stroke="rgb(213,185,255)" stroke-width="1" opacity="1" d="M 1197.5 862 L 1200 862.5 L 1197.5 863 L 1197.5 862 Z " /><path fill="rgb(213,185,255)" stroke="rgb(213,185,255)" stroke-width="1" opacity="1" d="M 1203.5 863 L 1206 863.5 L 1203.5 864 L 1203.5 863 Z " /><path fill="rgb(213,185,255)" stroke="rgb(213,185,255)" stroke-width="1" opacity="1" d="M 1208.5 864 L 1212 864.5 L 1208.5 865 L 1208.5 864 Z " /><path fill="rgb(213,185,255)" stroke="rgb(213,185,255)" stroke-width="1" opacity="1" d="M 2328.5 864 L 2328 865.5 L 2324.5 872 L 2325 870.5 L 2328.5 864 Z " /><path fill="rgb(213,185,255)" stroke="rgb(213,185,255)" stroke-width="1" opacity="1" d="M 1217.5 865 L 1221 865.5 L 1217.5 866 L 1217.5 865 Z " /><path fill="rgb(213,185,255)" stroke="rgb(213,185,255)" stroke-width="1" opacity="1" d="M 1231.5 866 L 1337 866.5 L 1231.5 867 L 1231.5 866 Z " /><path fill="rgb(213,185,255)" stroke="rgb(213,185,255)" stroke-width="1" opacity="1" d="M 2675.5 880 L 2674.5 882 L 2675.5 880 Z " /><path fill="rgb(213,185,255)" stroke="rgb(213,185,255)" stroke-width="1" opacity="1" d="M 2672.5 885 L 2671.5 887 L 2672.5 885 Z " /><path fill="rgb(213,185,255)" stroke="rgb(213,185,255)" stroke-width="1" opacity="1" d="M 2316.5 886 L 2317 887.5 L 2314.5 891 L 2315 889.5 L 2316.5 886 Z " /><path fill="rgb(213,185,255)" stroke="rgb(213,185,255)" stroke-width="1" opacity="1" d="M 1770.5 902 L 1770 903.5 L 1760.5 922 L 1761 920.5 L 1770.5 902 Z " /><path fill="rgb(213,185,255)" stroke="rgb(213,185,255)" stroke-width="1" opacity="1" d="M 2308.5 902 L 2308 903.5 L 2306.5 906 L 2307 904.5 L 2308.5 902 Z " /><path fill="rgb(213,185,255)" stroke="rgb(213,185,255)" stroke-width="1" opacity="1" d="M 2662.5 902 L 2661.5 904 L 2662.5 902 Z " /><path fill="rgb(213,185,255)" stroke="rgb(213,185,255)" stroke-width="1" opacity="1" d="M 2305.5 907 L 2306 908.5 L 2304 909.5 L 2305.5 907 Z " /><path fill="rgb(213,185,255)" stroke="rgb(213,185,255)" stroke-width="1" opacity="1" d="M 2655.5 914 L 2654.5 916 L 2655.5 914 Z " /><path fill="rgb(213,185,255)" stroke="rgb(213,185,255)" stroke-width="1" opacity="1" d="M 2652.5 919 L 2651.5 921 L 2652.5 919 Z " /><path fill="rgb(213,185,255)" stroke="rgb(213,185,255)" stroke-width="1" opacity="1" d="M 1759.5 923 L 1760 924.5 L 1758 925.5 L 1759.5 923 Z " /><path fill="rgb(213,185,255)" stroke="rgb(213,185,255)" stroke-width="1" opacity="1" d="M 2649.5 924 L 2649 925.5 L 2647.5 928 L 2648 926.5 L 2649.5 924 Z " /><path fill="rgb(213,185,255)" stroke="rgb(213,185,255)" stroke-width="1" opacity="1" d="M 2295.5 926 L 2296 927.5 L 2294 928.5 L 2295.5 926 Z " /><path fill="rgb(213,185,255)" stroke="rgb(213,185,255)" stroke-width="1" opacity="1" d="M 2645.5 931 L 2644.5 933 L 2645.5 931 Z " /><path fill="rgb(213,185,255)" stroke="rgb(213,185,255)" stroke-width="1" opacity="1" d="M 2642.5 936 L 2641.5 938 L 2642.5 936 Z " /><path fill="rgb(213,185,255)" stroke="rgb(213,185,255)" stroke-width="1" opacity="1" d="M 2286.5 943 L 2287 944.5 L 2283.5 950 L 2284 948.5 L 2286.5 943 Z " /><path fill="rgb(213,185,255)" stroke="rgb(213,185,255)" stroke-width="1" opacity="1" d="M 2632.5 953 L 2631.5 955 L 2632.5 953 Z " /><path fill="rgb(213,185,255)" stroke="rgb(213,185,255)" stroke-width="1" opacity="1" d="M 2629.5 958 L 2629 959.5 L 2627.5 962 L 2628 960.5 L 2629.5 958 Z " /><path fill="rgb(213,185,255)" stroke="rgb(213,185,255)" stroke-width="1" opacity="1" d="M 2275.5 964 L 2276 965.5 L 2274 966.5 L 2275.5 964 Z " /><path fill="rgb(213,185,255)" stroke="rgb(213,185,255)" stroke-width="1" opacity="1" d="M 2625.5 965 L 2624.5 967 L 2625.5 965 Z " /><path fill="rgb(213,185,255)" stroke="rgb(213,185,255)" stroke-width="1" opacity="1" d="M 2622.5 970 L 2621.5 972 L 2622.5 970 Z " /><path fill="rgb(213,185,255)" stroke="rgb(213,185,255)" stroke-width="1" opacity="1" d="M 1730.5 980 L 1731 981.5 L 1726.5 989 L 1727 987.5 L 1730.5 980 Z " /><path fill="rgb(213,185,255)" stroke="rgb(213,185,255)" stroke-width="1" opacity="1" d="M 2615.5 982 L 2614.5 984 L 2615.5 982 Z " /><path fill="rgb(213,185,255)" stroke="rgb(213,185,255)" stroke-width="1" opacity="1" d="M 2612.5 987 L 2611.5 989 L 2612.5 987 Z " /><path fill="rgb(213,185,255)" stroke="rgb(213,185,255)" stroke-width="1" opacity="1" d="M 2605.5 999 L 2604.5 1001 L 2605.5 999 Z " /><path fill="rgb(213,185,255)" stroke="rgb(213,185,255)" stroke-width="1" opacity="1" d="M 2255.5 1002 L 2256 1003.5 L 2254 1004.5 L 2255.5 1002 Z " /><path fill="rgb(213,185,255)" stroke="rgb(213,185,255)" stroke-width="1" opacity="1" d="M 2602.5 1004 L 2601.5 1006 L 2602.5 1004 Z " /><path fill="rgb(213,185,255)" stroke="rgb(213,185,255)" stroke-width="1" opacity="1" d="M 2245.5 1021 L 2246 1022.5 L 2243.5 1026 L 2244 1024.5 L 2245.5 1021 Z " /><path fill="rgb(213,185,255)" stroke="rgb(213,185,255)" stroke-width="1" opacity="1" d="M 2592.5 1021 L 2591.5 1023 L 2592.5 1021 Z " /><path fill="rgb(213,185,255)" stroke="rgb(213,185,255)" stroke-width="1" opacity="1" d="M 2589.5 1026 L 2589 1027.5 L 2587.5 1030 L 2588 1028.5 L 2589.5 1026 Z " /><path fill="rgb(213,185,255)" stroke="rgb(213,185,255)" stroke-width="1" opacity="1" d="M 2585.5 1033 L 2584.5 1035 L 2585.5 1033 Z " /><path fill="rgb(213,185,255)" stroke="rgb(213,185,255)" stroke-width="1" opacity="1" d="M 1700.5 1039 L 1701 1040.5 L 1694.5 1052 L 1695 1050.5 L 1700.5 1039 Z " /><path fill="rgb(213,185,255)" stroke="rgb(213,185,255)" stroke-width="1" opacity="1" d="M 2235.5 1040 L 2236 1041.5 L 2234 1042.5 L 2235.5 1040 Z " /><path fill="rgb(213,185,255)" stroke="rgb(213,185,255)" stroke-width="1" opacity="1" d="M 2575.5 1050 L 2574.5 1052 L 2575.5 1050 Z " /><path fill="rgb(213,185,255)" stroke="rgb(213,185,255)" stroke-width="1" opacity="1" d="M 2572.5 1055 L 2571.5 1057 L 2572.5 1055 Z " /><path fill="rgb(213,185,255)" stroke="rgb(213,185,255)" stroke-width="1" opacity="1" d="M 2227.5 1056 L 2227 1057.5 L 2224.5 1062 L 2225 1060.5 L 2227.5 1056 Z " /><path fill="rgb(213,185,255)" stroke="rgb(213,185,255)" stroke-width="1" opacity="1" d="M 2562.5 1072 L 2561.5 1074 L 2562.5 1072 Z " /><path fill="rgb(213,185,255)" stroke="rgb(213,185,255)" stroke-width="1" opacity="1" d="M 2215.5 1078 L 2216 1079.5 L 2213.5 1083 L 2214 1081.5 L 2215.5 1078 Z " /><path fill="rgb(213,185,255)" stroke="rgb(213,185,255)" stroke-width="1" opacity="1" d="M 2558.5 1079 L 2557.5 1081 L 2558.5 1079 Z " /><path fill="rgb(213,185,255)" stroke="rgb(213,185,255)" stroke-width="1" opacity="1" d="M 2555.5 1084 L 2554.5 1086 L 2555.5 1084 Z " /><path fill="rgb(213,185,255)" stroke="rgb(213,185,255)" stroke-width="1" opacity="1" d="M 2552.5 1089 L 2551.5 1091 L 2552.5 1089 Z " /><path fill="rgb(213,185,255)" stroke="rgb(213,185,255)" stroke-width="1" opacity="1" d="M 2549.5 1094 L 2549 1095.5 L 2547.5 1098 L 2548 1096.5 L 2549.5 1094 Z " /><path fill="rgb(213,185,255)" stroke="rgb(213,185,255)" stroke-width="1" opacity="1" d="M 1670.5 1099 L 1670 1100.5 L 1669.5 1102 L 1669 1100.5 L 1670.5 1099 Z " /><path fill="rgb(213,185,255)" stroke="rgb(213,185,255)" stroke-width="1" opacity="1" d="M 2204.5 1099 L 2205 1100.5 L 2203 1101.5 L 2204.5 1099 Z " /><path fill="rgb(213,185,255)" stroke="rgb(213,185,255)" stroke-width="1" opacity="1" d="M 2545.5 1101 L 2544.5 1103 L 2545.5 1101 Z " /><path fill="rgb(213,185,255)" stroke="rgb(213,185,255)" stroke-width="1" opacity="1" d="M 1931.5 1110 L 1932 1340.5 L 1931 1340.5 L 1930.5 1112 L 1929 1112.5 L 1931.5 1110 Z " /><path fill="rgb(213,185,255)" stroke="rgb(213,185,255)" stroke-width="1" opacity="1" d="M 1663.5 1112 L 1664 1113.5 L 1662 1114.5 L 1663.5 1112 Z " /><path fill="rgb(213,185,255)" stroke="rgb(213,185,255)" stroke-width="1" opacity="1" d="M 2195.5 1116 L 2196 1117.5 L 2193.5 1121 L 2194 1119.5 L 2195.5 1116 Z " /><path fill="rgb(213,185,255)" stroke="rgb(213,185,255)" stroke-width="1" opacity="1" d="M 2535.5 1118 L 2534.5 1120 L 2535.5 1118 Z " /><path fill="rgb(213,185,255)" stroke="rgb(213,185,255)" stroke-width="1" opacity="1" d="M 2532.5 1123 L 2531.5 1125 L 2532.5 1123 Z " /><path fill="rgb(213,185,255)" stroke="rgb(213,185,255)" stroke-width="1" opacity="1" d="M 2187.5 1132 L 2187 1133.5 L 2183.5 1140 L 2184 1138.5 L 2187.5 1132 Z " /><path fill="rgb(213,185,255)" stroke="rgb(213,185,255)" stroke-width="1" opacity="1" d="M 1916.5 1137 L 1916 1138.5 L 1913.5 1143 L 1914 1141.5 L 1916.5 1137 Z " /><path fill="rgb(213,185,255)" stroke="rgb(213,185,255)" stroke-width="1" opacity="1" d="M 2518.5 1147 L 2517.5 1149 L 2518.5 1147 Z " /><path fill="rgb(213,185,255)" stroke="rgb(213,185,255)" stroke-width="1" opacity="1" d="M 2177.5 1151 L 2176.5 1153 L 2177.5 1151 Z " /><path fill="rgb(213,185,255)" stroke="rgb(213,185,255)" stroke-width="1" opacity="1" d="M 2515.5 1152 L 2514.5 1154 L 2515.5 1152 Z " /><path fill="rgb(213,185,255)" stroke="rgb(213,185,255)" stroke-width="1" opacity="1" d="M 1905.5 1157 L 1906 1158.5 L 1904 1159.5 L 1905.5 1157 Z " /><path fill="rgb(213,185,255)" stroke="rgb(213,185,255)" stroke-width="1" opacity="1" d="M 2512.5 1157 L 2511.5 1159 L 2512.5 1157 Z " /><path fill="rgb(213,185,255)" stroke="rgb(213,185,255)" stroke-width="1" opacity="1" d="M 2509.5 1162 L 2509 1163.5 L 2507.5 1166 L 2508 1164.5 L 2509.5 1162 Z " /><path fill="rgb(213,185,255)" stroke="rgb(213,185,255)" stroke-width="1" opacity="1" d="M 2505.5 1169 L 2504.5 1171 L 2505.5 1169 Z " /><path fill="rgb(213,185,255)" stroke="rgb(213,185,255)" stroke-width="1" opacity="1" d="M 1897.5 1173 L 1896.5 1175 L 1897.5 1173 Z " /><path fill="rgb(213,185,255)" stroke="rgb(213,185,255)" stroke-width="1" opacity="1" d="M 2495.5 1186 L 2494.5 1188 L 2495.5 1186 Z " /><path fill="rgb(213,185,255)" stroke="rgb(213,185,255)" stroke-width="1" opacity="1" d="M 1888.5 1190 L 1888 1191.5 L 1886.5 1194 L 1887 1192.5 L 1888.5 1190 Z " /><path fill="rgb(213,185,255)" stroke="rgb(213,185,255)" stroke-width="1" opacity="1" d="M 2492.5 1191 L 2491.5 1193 L 2492.5 1191 Z " /><path fill="rgb(213,185,255)" stroke="rgb(213,185,255)" stroke-width="1" opacity="1" d="M 2489.5 1196 L 2489 1197.5 L 2487.5 1200 L 2488 1198.5 L 2489.5 1196 Z " /><path fill="rgb(213,185,255)" stroke="rgb(213,185,255)" stroke-width="1" opacity="1" d="M 2485.5 1203 L 2484.5 1205 L 2485.5 1203 Z " /><path fill="rgb(213,185,255)" stroke="rgb(213,185,255)" stroke-width="1" opacity="1" d="M 1880.5 1205 L 1880 1206.5 L 1876.5 1213 L 1877 1211.5 L 1880.5 1205 Z " /><path fill="rgb(213,185,255)" stroke="rgb(213,185,255)" stroke-width="1" opacity="1" d="M 2475.5 1220 L 2474.5 1222 L 2475.5 1220 Z " /><path fill="rgb(213,185,255)" stroke="rgb(213,185,255)" stroke-width="1" opacity="1" d="M 2472.5 1225 L 2471.5 1227 L 2472.5 1225 Z " /><path fill="rgb(213,185,255)" stroke="rgb(213,185,255)" stroke-width="1" opacity="1" d="M 2465.5 1237 L 2464.5 1239 L 2465.5 1237 Z " /><path fill="rgb(213,185,255)" stroke="rgb(213,185,255)" stroke-width="1" opacity="1" d="M 1862.5 1239 L 1862 1240.5 L 1858.5 1247 L 1859 1245.5 L 1862.5 1239 Z " /><path fill="rgb(213,185,255)" stroke="rgb(213,185,255)" stroke-width="1" opacity="1" d="M 2462.5 1242 L 2462 1243.5 L 2460.5 1246 L 2461 1244.5 L 2462.5 1242 Z " /><path fill="rgb(213,185,255)" stroke="rgb(213,185,255)" stroke-width="1" opacity="1" d="M 2455.5 1254 L 2454.5 1256 L 2455.5 1254 Z " /><path fill="rgb(213,185,255)" stroke="rgb(213,185,255)" stroke-width="1" opacity="1" d="M 1851.5 1259 L 1852 1260.5 L 1849.5 1264 L 1850 1262.5 L 1851.5 1259 Z " /><path fill="rgb(213,185,255)" stroke="rgb(213,185,255)" stroke-width="1" opacity="1" d="M 2452.5 1259 L 2451.5 1261 L 2452.5 1259 Z " /><path fill="rgb(213,185,255)" stroke="rgb(213,185,255)" stroke-width="1" opacity="1" d="M 2449.5 1264 L 2449 1265.5 L 2447.5 1268 L 2448 1266.5 L 2449.5 1264 Z " /><path fill="rgb(213,185,255)" stroke="rgb(213,185,255)" stroke-width="1" opacity="1" d="M 2445.5 1271 L 2444.5 1273 L 2445.5 1271 Z " /><path fill="rgb(213,185,255)" stroke="rgb(213,185,255)" stroke-width="1" opacity="1" d="M 2435.5 1288 L 2434.5 1290 L 2435.5 1288 Z " /><path fill="rgb(213,185,255)" stroke="rgb(213,185,255)" stroke-width="1" opacity="1" d="M 1835.5 1290 L 1835 1291.5 L 1834.5 1293 L 1834 1291.5 L 1835.5 1290 Z " /><path fill="rgb(213,185,255)" stroke="rgb(213,185,255)" stroke-width="1" opacity="1" d="M 2432.5 1293 L 2431.5 1295 L 2432.5 1293 Z " /><path fill="rgb(213,185,255)" stroke="rgb(213,185,255)" stroke-width="1" opacity="1" d="M 1832.5 1295 L 1833 1296.5 L 1831 1297.5 L 1832.5 1295 Z " /><path fill="rgb(213,185,255)" stroke="rgb(213,185,255)" stroke-width="1" opacity="1" d="M 2425.5 1305 L 2424.5 1307 L 2425.5 1305 Z " /><path fill="rgb(213,185,255)" stroke="rgb(213,185,255)" stroke-width="1" opacity="1" d="M 1825.5 1309 L 1825 1310.5 L 1823.5 1313 L 1824 1311.5 L 1825.5 1309 Z " /><path fill="rgb(213,185,255)" stroke="rgb(213,185,255)" stroke-width="1" opacity="1" d="M 2422.5 1310 L 2422 1311.5 L 2420.5 1314 L 2421 1312.5 L 2422.5 1310 Z " /><path fill="rgb(213,185,255)" stroke="rgb(213,185,255)" stroke-width="1" opacity="1" d="M 2418.5 1317 L 2417.5 1319 L 2418.5 1317 Z " /><path fill="rgb(213,185,255)" stroke="rgb(213,185,255)" stroke-width="1" opacity="1" d="M 2415.5 1322 L 2414.5 1324 L 2415.5 1322 Z " /><path fill="rgb(213,185,255)" stroke="rgb(213,185,255)" stroke-width="1" opacity="1" d="M 2412.5 1327 L 2411.5 1329 L 2412.5 1327 Z " /><path fill="rgb(213,185,255)" stroke="rgb(213,185,255)" stroke-width="1" opacity="1" d="M 2409.5 1332 L 2409 1333.5 L 2407.5 1336 L 2408 1334.5 L 2409.5 1332 Z " /><path fill="rgb(213,185,255)" stroke="rgb(213,185,255)" stroke-width="1" opacity="1" d="M 1337.5 1336 L 1338 1345.5 L 1337 1345.5 L 1337.5 1336 Z " /><path fill="rgb(213,185,255)" stroke="rgb(213,185,255)" stroke-width="1" opacity="1" d="M 2405.5 1339 L 2404.5 1341 L 2405.5 1339 Z " /><path fill="rgb(213,185,255)" stroke="rgb(213,185,255)" stroke-width="1" opacity="1" d="M 1807.5 1343 L 1807 1344.5 L 1804.5 1349 L 1805 1347.5 L 1807.5 1343 Z " /><path fill="rgb(213,185,255)" stroke="rgb(213,185,255)" stroke-width="1" opacity="1" d="M 1932.5 1349 L 1933 1354.5 L 1932 1354.5 L 1932.5 1349 Z " /><path fill="rgb(213,185,255)" stroke="rgb(213,185,255)" stroke-width="1" opacity="1" d="M 1338.5 1353 L 1339 1356.5 L 1338 1356.5 L 1338.5 1353 Z " /><path fill="rgb(213,185,255)" stroke="rgb(213,185,255)" stroke-width="1" opacity="1" d="M 2395.5 1356 L 2394.5 1358 L 2395.5 1356 Z " /><path fill="rgb(213,185,255)" stroke="rgb(213,185,255)" stroke-width="1" opacity="1" d="M 1933.5 1359 L 1934 1363.5 L 1933 1363.5 L 1933.5 1359 Z " /><path fill="rgb(213,185,255)" stroke="rgb(213,185,255)" stroke-width="1" opacity="1" d="M 2392.5 1361 L 2391.5 1363 L 2392.5 1361 Z " /><path fill="rgb(213,185,255)" stroke="rgb(213,185,255)" stroke-width="1" opacity="1" d="M 1796.5 1363 L 1797 1364.5 L 1795 1365.5 L 1796.5 1363 Z " /><path fill="rgb(213,185,255)" stroke="rgb(213,185,255)" stroke-width="1" opacity="1" d="M 1934.5 1367 L 1935 1370.5 L 1934 1370.5 L 1934.5 1367 Z " /><path fill="rgb(213,185,255)" stroke="rgb(213,185,255)" stroke-width="1" opacity="1" d="M 1791.5 1373 L 1791 1374.5 L 1788.5 1379 L 1789 1377.5 L 1791.5 1373 Z " /><path fill="rgb(213,185,255)" stroke="rgb(213,185,255)" stroke-width="1" opacity="1" d="M 1935.5 1373 L 1936 1376.5 L 1935 1376.5 L 1935.5 1373 Z " /><path fill="rgb(213,185,255)" stroke="rgb(213,185,255)" stroke-width="1" opacity="1" d="M 1936.5 1379 L 1937 1381.5 L 1936 1381.5 L 1936.5 1379 Z " /><path fill="rgb(213,185,255)" stroke="rgb(213,185,255)" stroke-width="1" opacity="1" d="M 1937.5 1383 L 1938 1385.5 L 1937 1385.5 L 1937.5 1383 Z " /><path fill="rgb(213,185,255)" stroke="rgb(213,185,255)" stroke-width="1" opacity="1" d="M 2374.5 1391 L 2373.5 1393 L 2374.5 1391 Z " /><path fill="rgb(213,185,255)" stroke="rgb(213,185,255)" stroke-width="1" opacity="1" d="M 1778.5 1396 L 1777.5 1398 L 1778.5 1396 Z " /><path fill="rgb(213,185,255)" stroke="rgb(213,185,255)" stroke-width="1" opacity="1" d="M 2369.5 1399 L 2368.5 1401 L 2369.5 1399 Z " /><path fill="rgb(213,185,255)" stroke="rgb(213,185,255)" stroke-width="1" opacity="1" d="M 1775.5 1401 L 1774.5 1403 L 1775.5 1401 Z " /><path fill="rgb(213,185,255)" stroke="rgb(213,185,255)" stroke-width="1" opacity="1" d="M 2367.5 1402 L 2366.5 1404 L 2367.5 1402 Z " /><path fill="rgb(213,185,255)" stroke="rgb(213,185,255)" stroke-width="1" opacity="1" d="M 1772.5 1406 L 1771.5 1408 L 1772.5 1406 Z " /><path fill="rgb(213,185,255)" stroke="rgb(213,185,255)" stroke-width="1" opacity="1" d="M 2362.5 1410 L 2361.5 1412 L 2362.5 1410 Z " /><path fill="rgb(213,185,255)" stroke="rgb(213,185,255)" stroke-width="1" opacity="1" d="M 2360.5 1413 L 2359.5 1415 L 2360.5 1413 Z " /><path fill="rgb(213,185,255)" stroke="rgb(213,185,255)" stroke-width="1" opacity="1" d="M 1767.5 1414 L 1766.5 1416 L 1767.5 1414 Z " /><path fill="rgb(213,185,255)" stroke="rgb(213,185,255)" stroke-width="1" opacity="1" d="M 2358.5 1416 L 2357.5 1418 L 2358.5 1416 Z " /><path fill="rgb(213,185,255)" stroke="rgb(213,185,255)" stroke-width="1" opacity="1" d="M 1765.5 1417 L 1764.5 1419 L 1765.5 1417 Z " /><path fill="rgb(213,185,255)" stroke="rgb(213,185,255)" stroke-width="1" opacity="1" d="M 2356.5 1419 L 2355.5 1421 L 2356.5 1419 Z " /><path fill="rgb(213,185,255)" stroke="rgb(213,185,255)" stroke-width="1" opacity="1" d="M 1763.5 1420 L 1762.5 1422 L 1763.5 1420 Z " /><path fill="rgb(213,185,255)" stroke="rgb(213,185,255)" stroke-width="1" opacity="1" d="M 1949.5 1421 L 1952 1426.5 L 1951 1426.5 L 1949.5 1421 Z " /><path fill="rgb(213,185,255)" stroke="rgb(213,185,255)" stroke-width="1" opacity="1" d="M 1761.5 1423 L 1760.5 1425 L 1761.5 1423 Z " /><path fill="rgb(213,185,255)" stroke="rgb(213,185,255)" stroke-width="1" opacity="1" d="M 1759.5 1426 L 1758.5 1428 L 1759.5 1426 Z " /><path fill="rgb(213,185,255)" stroke="rgb(213,185,255)" stroke-width="1" opacity="1" d="M 2351.5 1426 L 2350.5 1428 L 2351.5 1426 Z " /><path fill="rgb(213,185,255)" stroke="rgb(213,185,255)" stroke-width="1" opacity="1" d="M 1358.5 1427 L 1361 1431.5 L 1359 1430.5 L 1358.5 1427 Z " /><path fill="rgb(213,185,255)" stroke="rgb(213,185,255)" stroke-width="1" opacity="1" d="M 1757.5 1429 L 1756.5 1431 L 1757.5 1429 Z " /><path fill="rgb(213,185,255)" stroke="rgb(213,185,255)" stroke-width="1" opacity="1" d="M 2349.5 1429 L 2348.5 1431 L 2349.5 1429 Z " /><path fill="rgb(213,185,255)" stroke="rgb(213,185,255)" stroke-width="1" opacity="1" d="M 1754.5 1433 L 1753.5 1435 L 1754.5 1433 Z " /><path fill="rgb(213,185,255)" stroke="rgb(213,185,255)" stroke-width="1" opacity="1" d="M 2346.5 1433 L 2345.5 1435 L 2346.5 1433 Z " /><path fill="rgb(213,185,255)" stroke="rgb(213,185,255)" stroke-width="1" opacity="1" d="M 1752.5 1436 L 1751.5 1438 L 1752.5 1436 Z " /><path fill="rgb(213,185,255)" stroke="rgb(213,185,255)" stroke-width="1" opacity="1" d="M 1956.5 1436 L 1957.5 1438 L 1956.5 1436 Z " /><path fill="rgb(213,185,255)" stroke="rgb(213,185,255)" stroke-width="1" opacity="1" d="M 2344.5 1436 L 2343.5 1438 L 2344.5 1436 Z " /><path fill="rgb(213,185,255)" stroke="rgb(213,185,255)" stroke-width="1" opacity="1" d="M 1749.5 1440 L 1748.5 1442 L 1749.5 1440 Z " /><path fill="rgb(213,185,255)" stroke="rgb(213,185,255)" stroke-width="1" opacity="1" d="M 2341.5 1440 L 2340.5 1442 L 2341.5 1440 Z " /><path fill="rgb(213,185,255)" stroke="rgb(213,185,255)" stroke-width="1" opacity="1" d="M 1960.5 1443 L 1961.5 1445 L 1960.5 1443 Z " /><path fill="rgb(213,185,255)" stroke="rgb(213,185,255)" stroke-width="1" opacity="1" d="M 1367.5 1444 L 1368.5 1446 L 1367.5 1444 Z " /><path fill="rgb(213,185,255)" stroke="rgb(213,185,255)" stroke-width="1" opacity="1" d="M 1746.5 1444 L 1744.5 1447 L 1746.5 1444 Z " /><path fill="rgb(213,185,255)" stroke="rgb(213,185,255)" stroke-width="1" opacity="1" d="M 2338.5 1444 L 2336.5 1447 L 2338.5 1444 Z " /><path fill="rgb(213,185,255)" stroke="rgb(213,185,255)" stroke-width="1" opacity="1" d="M 1742.5 1449 L 1740.5 1452 L 1742.5 1449 Z " /><path fill="rgb(213,185,255)" stroke="rgb(213,185,255)" stroke-width="1" opacity="1" d="M 2334.5 1449 L 2332.5 1452 L 2334.5 1449 Z " /><path fill="rgb(213,185,255)" stroke="rgb(213,185,255)" stroke-width="1" opacity="1" d="M 1373.5 1453 L 1374.5 1455 L 1373.5 1453 Z " /><path fill="rgb(213,185,255)" stroke="rgb(213,185,255)" stroke-width="1" opacity="1" d="M 1738.5 1454 L 1735.5 1458 L 1738.5 1454 Z " /><path fill="rgb(213,185,255)" stroke="rgb(213,185,255)" stroke-width="1" opacity="1" d="M 2330.5 1454 L 2328.5 1457 L 2330.5 1454 Z " /><path fill="rgb(213,185,255)" stroke="rgb(213,185,255)" stroke-width="1" opacity="1" d="M 1968.5 1455 L 1969.5 1457 L 1968.5 1455 Z " /><path fill="rgb(213,185,255)" stroke="rgb(213,185,255)" stroke-width="1" opacity="1" d="M 1375.5 1456 L 1377.5 1459 L 1375.5 1456 Z " /><path fill="rgb(213,185,255)" stroke="rgb(213,185,255)" stroke-width="1" opacity="1" d="M 1971.5 1459 L 1972.5 1461 L 1971.5 1459 Z " /><path fill="rgb(213,185,255)" stroke="rgb(213,185,255)" stroke-width="1" opacity="1" d="M 1379.5 1461 L 1380.5 1463 L 1379.5 1461 Z " /><path fill="rgb(213,185,255)" stroke="rgb(213,185,255)" stroke-width="1" opacity="1" d="M 1732.5 1461 L 1712.5 1482 L 1732.5 1461 Z " /><path fill="rgb(213,185,255)" stroke="rgb(213,185,255)" stroke-width="1" opacity="1" d="M 2324.5 1461 L 2321.5 1465 L 2324.5 1461 Z " /><path fill="rgb(213,185,255)" stroke="rgb(213,185,255)" stroke-width="1" opacity="1" d="M 1974.5 1463 L 1976.5 1466 L 1974.5 1463 Z " /><path fill="rgb(213,185,255)" stroke="rgb(213,185,255)" stroke-width="1" opacity="1" d="M 1383.5 1466 L 1387.5 1471 L 1383.5 1466 Z " /><path fill="rgb(213,185,255)" stroke="rgb(213,185,255)" stroke-width="1" opacity="1" d="M 1979.5 1469 L 1994.5 1485 L 1979.5 1469 Z " /><path fill="rgb(213,185,255)" stroke="rgb(213,185,255)" stroke-width="1" opacity="1" d="M 1397.5 1480 L 1402.5 1486 L 1397.5 1480 Z " /><path fill="rgb(213,185,255)" stroke="rgb(213,185,255)" stroke-width="1" opacity="1" d="M 2302.5 1483 L 2299.5 1487 L 2302.5 1483 Z " /><path fill="rgb(213,185,255)" stroke="rgb(213,185,255)" stroke-width="1" opacity="1" d="M 1708.5 1484 L 1705.5 1488 L 1708.5 1484 Z " /><path fill="rgb(213,185,255)" stroke="rgb(213,185,255)" stroke-width="1" opacity="1" d="M 1405.5 1487 L 1408.5 1491 L 1405.5 1487 Z " /><path fill="rgb(213,185,255)" stroke="rgb(213,185,255)" stroke-width="1" opacity="1" d="M 1998.5 1487 L 2000.5 1490 L 1998.5 1487 Z " /><path fill="rgb(213,185,255)" stroke="rgb(213,185,255)" stroke-width="1" opacity="1" d="M 1703.5 1488 L 1701.5 1491 L 1703.5 1488 Z " /><path fill="rgb(213,185,255)" stroke="rgb(213,185,255)" stroke-width="1" opacity="1" d="M 2295.5 1489 L 2293.5 1492 L 2295.5 1489 Z " /><path fill="rgb(213,185,255)" stroke="rgb(213,185,255)" stroke-width="1" opacity="1" d="M 1410.5 1491 L 1412.5 1494 L 1410.5 1491 Z " /><path fill="rgb(213,185,255)" stroke="rgb(213,185,255)" stroke-width="1" opacity="1" d="M 2003.5 1491 L 2004.5 1493 L 2003.5 1491 Z " /><path fill="rgb(213,185,255)" stroke="rgb(213,185,255)" stroke-width="1" opacity="1" d="M 1698.5 1492 L 1697.5 1494 L 1698.5 1492 Z " /><path fill="rgb(213,185,255)" stroke="rgb(213,185,255)" stroke-width="1" opacity="1" d="M 2290.5 1493 L 2289.5 1495 L 2290.5 1493 Z " /><path fill="rgb(213,185,255)" stroke="rgb(213,185,255)" stroke-width="1" opacity="1" d="M 1414.5 1494 L 1415.5 1496 L 1414.5 1494 Z " /><path fill="rgb(213,185,255)" stroke="rgb(213,185,255)" stroke-width="1" opacity="1" d="M 2007.5 1494 L 2008.5 1496 L 2007.5 1494 Z " /><path fill="rgb(213,185,255)" stroke="rgb(213,185,255)" stroke-width="1" opacity="1" d="M 2286.5 1496 L 2285.5 1498 L 2286.5 1496 Z " /><path fill="rgb(213,185,255)" stroke="rgb(213,185,255)" stroke-width="1" opacity="1" d="M 1418.5 1497 L 1419.5 1499 L 1418.5 1497 Z " /><path fill="rgb(213,185,255)" stroke="rgb(213,185,255)" stroke-width="1" opacity="1" d="M 1691.5 1497 L 1690.5 1499 L 1691.5 1497 Z " /><path fill="rgb(213,185,255)" stroke="rgb(213,185,255)" stroke-width="1" opacity="1" d="M 2011.5 1497 L 2012.5 1499 L 2011.5 1497 Z " /><path fill="rgb(213,185,255)" stroke="rgb(213,185,255)" stroke-width="1" opacity="1" d="M 2283.5 1498 L 2282.5 1500 L 2283.5 1498 Z " /><path fill="rgb(213,185,255)" stroke="rgb(213,185,255)" stroke-width="1" opacity="1" d="M 1688.5 1499 L 1687.5 1501 L 1688.5 1499 Z " /><path fill="rgb(213,185,255)" stroke="rgb(213,185,255)" stroke-width="1" opacity="1" d="M 2014.5 1499 L 2015.5 1501 L 2014.5 1499 Z " /><path fill="rgb(213,185,255)" stroke="rgb(213,185,255)" stroke-width="1" opacity="1" d="M 2280.5 1500 L 2279.5 1502 L 2280.5 1500 Z " /><path fill="rgb(213,185,255)" stroke="rgb(213,185,255)" stroke-width="1" opacity="1" d="M 1426.5 1502 L 1427.5 1504 L 1426.5 1502 Z " /><path fill="rgb(213,185,255)" stroke="rgb(213,185,255)" stroke-width="1" opacity="1" d="M 2277.5 1502 L 2276.5 1504 L 2277.5 1502 Z " /><path fill="rgb(213,185,255)" stroke="rgb(213,185,255)" stroke-width="1" opacity="1" d="M 2022.5 1504 L 2026 1506.5 L 2024.5 1506 L 2022.5 1504 Z " /><path fill="rgb(213,185,255)" stroke="rgb(213,185,255)" stroke-width="1" opacity="1" d="M 1431.5 1505 L 1435 1507.5 L 1433.5 1507 L 1431.5 1505 Z " /><path fill="rgb(213,185,255)" stroke="rgb(213,185,255)" stroke-width="1" opacity="1" d="M 2272.5 1505 L 2271.5 1507 L 2272.5 1505 Z " /><path fill="rgb(213,185,255)" stroke="rgb(213,185,255)" stroke-width="1" opacity="1" d="M 2265.5 1509 L 2264.5 1511 L 2263 1510.5 L 2265.5 1509 Z " /><path fill="rgb(213,185,255)" stroke="rgb(213,185,255)" stroke-width="1" opacity="1" d="M 2043.5 1515 L 2047 1516.5 L 2045.5 1517 L 2043.5 1515 Z " /><path fill="rgb(213,185,255)" stroke="rgb(213,185,255)" stroke-width="1" opacity="1" d="M 1453.5 1516 L 1457 1517.5 L 1455.5 1518 L 1453.5 1516 Z " /><path fill="rgb(213,185,255)" stroke="rgb(213,185,255)" stroke-width="1" opacity="1" d="M 1655.5 1516 L 1657 1516.5 L 1653.5 1518 L 1653.5 1517 L 1655.5 1516 Z " /><path fill="rgb(213,185,255)" stroke="rgb(213,185,255)" stroke-width="1" opacity="1" d="M 2048.5 1517 L 2052 1518.5 L 2050.5 1519 L 2048.5 1517 Z " /><path fill="rgb(213,185,255)" stroke="rgb(213,185,255)" stroke-width="1" opacity="1" d="M 1458.5 1518 L 1462 1519.5 L 1460.5 1520 L 1458.5 1518 Z " /><path fill="rgb(213,185,255)" stroke="rgb(213,185,255)" stroke-width="1" opacity="1" d="M 1487.5 1527 L 1490 1527.5 L 1487.5 1528 L 1487.5 1527 Z " /><path fill="rgb(213,185,255)" stroke="rgb(213,185,255)" stroke-width="1" opacity="1" d="M 1609.5 1529 L 1612 1529.5 L 1609.5 1530 L 1609.5 1529 Z " /><path fill="rgb(213,185,255)" stroke="rgb(213,185,255)" stroke-width="1" opacity="1" d="M 2089.5 1529 L 2092 1529.5 L 2089.5 1530 L 2089.5 1529 Z " /><path fill="rgb(213,185,255)" stroke="rgb(213,185,255)" stroke-width="1" opacity="1" d="M 2204.5 1529 L 2207 1529.5 L 2204.5 1530 L 2204.5 1529 Z " /><path fill="rgb(213,185,255)" stroke="rgb(213,185,255)" stroke-width="1" opacity="1" d="M 1502.5 1530 L 1505 1530.5 L 1502.5 1531 L 1502.5 1530 Z " /><path fill="rgb(213,185,255)" stroke="rgb(213,185,255)" stroke-width="1" opacity="1" d="M 1603.5 1530 L 1606 1530.5 L 1603.5 1531 L 1603.5 1530 Z " /><path fill="rgb(213,185,255)" stroke="rgb(213,185,255)" stroke-width="1" opacity="1" d="M 2094.5 1530 L 2097 1530.5 L 2094.5 1531 L 2094.5 1530 Z " /><path fill="rgb(213,185,255)" stroke="rgb(213,185,255)" stroke-width="1" opacity="1" d="M 1508.5 1531 L 1511 1531.5 L 1508.5 1532 L 1508.5 1531 Z " /><path fill="rgb(213,185,255)" stroke="rgb(213,185,255)" stroke-width="1" opacity="1" d="M 1595.5 1531 L 1599 1531.5 L 1595.5 1532 L 1595.5 1531 Z " /><path fill="rgb(213,185,255)" stroke="rgb(213,185,255)" stroke-width="1" opacity="1" d="M 2100.5 1531 L 2103 1531.5 L 2100.5 1532 L 2100.5 1531 Z " /><path fill="rgb(213,185,255)" stroke="rgb(213,185,255)" stroke-width="1" opacity="1" d="M 2189.5 1531 L 2194 1531.5 L 2189.5 1532 L 2189.5 1531 Z " /><path fill="rgb(213,185,255)" stroke="rgb(213,185,255)" stroke-width="1" opacity="1" d="M 1514.5 1532 L 1520 1532.5 L 1514.5 1533 L 1514.5 1532 Z " /><path fill="rgb(213,185,255)" stroke="rgb(213,185,255)" stroke-width="1" opacity="1" d="M 1585.5 1532 L 1590 1532.5 L 1585.5 1533 L 1585.5 1532 Z " /><path fill="rgb(213,185,255)" stroke="rgb(213,185,255)" stroke-width="1" opacity="1" d="M 2107.5 1532 L 2112 1532.5 L 2107.5 1533 L 2107.5 1532 Z " /><path fill="rgb(213,185,255)" stroke="rgb(213,185,255)" stroke-width="1" opacity="1" d="M 2178.5 1532 L 2185 1532.5 L 2178.5 1533 L 2178.5 1532 Z " /><path fill="rgb(213,185,255)" stroke="rgb(213,185,255)" stroke-width="1" opacity="1" d="M 1525.5 1533 L 1533 1533.5 L 1525.5 1534 L 1525.5 1533 Z " /><path fill="rgb(213,185,255)" stroke="rgb(213,185,255)" stroke-width="1" opacity="1" d="M 1571.5 1533 L 1580 1533.5 L 1571.5 1534 L 1571.5 1533 Z " /><path fill="rgb(213,185,255)" stroke="rgb(213,185,255)" stroke-width="1" opacity="1" d="M 2117.5 1533 L 2125 1533.5 L 2117.5 1534 L 2117.5 1533 Z " /><path fill="rgb(213,185,255)" stroke="rgb(213,185,255)" stroke-width="1" opacity="1" d="M 2165.5 1533 L 2173 1533.5 L 2165.5 1534 L 2165.5 1533 Z " /><path fill="rgb(255,255,255)" stroke="rgb(255,255,255)" stroke-width="1" opacity="1" d="M 1227.5 626 L 1229.5 626 L 1494.5 626 L 1495.5 627 L 1499.5 627 L 1511.5 627 L 1512.5 628 L 1526.5 629 L 1556.5 636 L 1579.5 646 L 1604 664 L 1620 685.5 L 1630 706.5 L 1634 718.5 L 1639 741.5 L 1640 756.5 L 1641 757.5 L 1641 767.5 L 1642 768.5 L 1642 1153 Q 1644.7 1154.1 1644 1151.5 L 1858 730.5 L 1883 691.5 L 1903.5 668 L 1906.5 666 Q 1918 653 1934.5 645 L 1949.5 638 L 1977.5 630 L 1979.5 630 L 1989.5 628 L 1996.5 628 L 1997.5 627 L 1999.5 627 L 2009.5 627 L 2010.5 626 L 2012.5 626 L 2042.5 626 L 2043.5 627 L 2045.5 627 L 2055.5 627 L 2056.5 628 L 2068.5 629 L 2098.5 638 Q 2122.8 648.2 2139 666.5 Q 2155.6 685.4 2165 711.5 L 2172 739.5 L 2174 760.5 L 2175 761.5 L 2175 775.5 L 2176 776.5 L 2176 778.5 L 2176.5 1153 L 2400 728.5 L 2422 695.5 L 2450.5 665 Q 2476.2 642.2 2514.5 632 L 2516.5 632 L 2536.5 628 L 2555.5 627 L 2556.5 626 L 2558.5 626 L 2588.5 626 L 2589.5 627 L 2593.5 627 L 2604.5 627 L 2620.5 630 L 2622.5 630 L 2626.5 631 L 2628.5 631 Q 2652.2 634.3 2670.5 643 Q 2689.6 651.6 2704 664 Q 2702.9 666.7 2705.5 666 L 2707 669 Q 2709.7 667.9 2709 670.5 Q 2722.2 683.3 2729 702.5 L 2734 726.5 L 2734 745.5 L 2733 746.5 L 2733 754.5 L 2731 765.5 L 2723 792.5 L 2706 828.5 L 2377 1387.5 L 2340 1442.5 Q 2323.6 1464.6 2303.5 1483 Q 2284.9 1499.9 2261.5 1512 L 2233.5 1523 L 2209.5 1529 L 2207.5 1529 L 2203.5 1530 L 2201.5 1530 L 2197.5 1531 L 2195.5 1531 L 2178.5 1532 L 2177.5 1533 L 2165.5 1533 L 2164.5 1534 L 2160.5 1534 L 2127.5 1534 L 2126.5 1533 L 2124.5 1533 L 2114.5 1533 L 2113.5 1532 L 2111.5 1532 Q 2106 1533.5 2104.5 1531 L 2102.5 1531 Q 2019.8 1518.7 1977 1466.5 Q 1959.3 1445.7 1948 1418.5 L 1940 1395.5 L 1934 1366.5 L 1933 1349.5 L 1932 1348.5 L 1931.5 1110 L 1915 1138.5 L 1782 1390.5 L 1748 1442.5 Q 1730.8 1465.3 1709.5 1484 Q 1689 1502 1662.5 1514 L 1638.5 1523 L 1619.5 1528 L 1617.5 1528 L 1614.5 1529 L 1612.5 1529 L 1608.5 1530 L 1606.5 1530 L 1602.5 1531 L 1600.5 1531 Q 1595.8 1529.8 1594.5 1532 L 1592.5 1532 Q 1586.2 1530.3 1584.5 1533 L 1582.5 1533 L 1571.5 1533 L 1570.5 1534 L 1566.5 1534 L 1535.5 1534 L 1534.5 1533 L 1532.5 1533 L 1520.5 1533 L 1512.5 1531 L 1510.5 1531 L 1505.5 1531 L 1499.5 1529 L 1497.5 1529 L 1494.5 1528 L 1492.5 1528 Q 1427.8 1514.2 1390 1473.5 L 1388 1470.5 Q 1366.6 1448.9 1354 1418.5 L 1346 1395.5 L 1339 1362.5 L 1339 1360.5 Q 1340.8 1354.2 1338 1352.5 L 1338 1350.5 L 1338 1336.5 L 1337 1335.5 L 1337 867.5 L 1336.5 866 L 1223.5 866 L 1220.5 865 Q 1160 860.5 1131 824.5 L 1119 806.5 L 1110 782.5 L 1107 767.5 L 1107 759.5 L 1106 758.5 L 1106 729.5 L 1111 703.5 L 1117 687.5 Q 1126.5 669 1141.5 656 Q 1157.7 642.7 1179.5 635 L 1203.5 629 L 1216.5 628 L 1217.5 627 L 1226.5 627 L 1227.5 626 Z " /></svg>