<svg width="512" height="512" version="1.1" xmlns="http://www.w3.org/2000/svg" desc="Created with imagetracer.js version 1.2.6" ><path fill="rgb(255,0,0)" stroke="rgb(255,0,0)" stroke-width="1" opacity="0.5176470588235295" d="M 233.5 0 L 245 0.5 L 233.5 1 L 233.5 0 Z " /><path fill="rgb(255,0,0)" stroke="rgb(255,0,0)" stroke-width="1" opacity="0.5176470588235295" d="M 267.5 0 L 279 0.5 L 267.5 1 L 267.5 0 Z " /><path fill="rgb(255,0,0)" stroke="rgb(255,0,0)" stroke-width="1" opacity="0.5176470588235295" d="M 224.5 1 L 231 1.5 L 224.5 2 L 224.5 1 Z " /><path fill="rgb(255,0,0)" stroke="rgb(255,0,0)" stroke-width="1" opacity="0.5176470588235295" d="M 281.5 1 L 288 1.5 L 281.5 2 L 281.5 1 Z " /><path fill="rgb(255,0,0)" stroke="rgb(255,0,0)" stroke-width="1" opacity="0.5176470588235295" d="M 216.5 2 L 222 2.5 L 216.5 3 L 216.5 2 Z " /><path fill="rgb(255,0,0)" stroke="rgb(255,0,0)" stroke-width="1" opacity="0.5176470588235295" d="M 290.5 2 L 296 2.5 L 290.5 3 L 290.5 2 Z " /><path fill="rgb(255,0,0)" stroke="rgb(255,0,0)" stroke-width="1" opacity="0.5176470588235295" d="M 211.5 3 L 215 3.5 L 211.5 4 L 211.5 3 Z " /><path fill="rgb(255,0,0)" stroke="rgb(255,0,0)" stroke-width="1" opacity="0.5176470588235295" d="M 297.5 3 L 302 3.5 L 297.5 4 L 297.5 3 Z " /><path fill="rgb(255,0,0)" stroke="rgb(255,0,0)" stroke-width="1" opacity="0.5176470588235295" d="M 205.5 4 L 209 4.5 L 205.5 5 L 205.5 4 Z " /><path fill="rgb(255,0,0)" stroke="rgb(255,0,0)" stroke-width="1" opacity="0.5176470588235295" d="M 303.5 4 L 307 4.5 L 303.5 5 L 303.5 4 Z " /><path fill="rgb(255,0,0)" stroke="rgb(255,0,0)" stroke-width="1" opacity="0.5176470588235295" d="M 200.5 5 L 204 5.5 L 196.5 7 L 196.5 6 L 200.5 5 Z " /><path fill="rgb(255,0,0)" stroke="rgb(255,0,0)" stroke-width="1" opacity="0.5176470588235295" d="M 308.5 5 L 316 6.5 L 312.5 7 L 308.5 6 L 308.5 5 Z " /><path fill="rgb(255,0,0)" stroke="rgb(255,0,0)" stroke-width="1" opacity="0.5176470588235295" d="M 192.5 7 L 195 7.5 L 192.5 8 L 192.5 7 Z " /><path fill="rgb(255,0,0)" stroke="rgb(255,0,0)" stroke-width="1" opacity="0.5176470588235295" d="M 317.5 7 L 320 7.5 L 317.5 8 L 317.5 7 Z " /><path fill="rgb(255,0,0)" stroke="rgb(255,0,0)" stroke-width="1" opacity="0.5176470588235295" d="M 188.5 8 L 191 8.5 L 185.5 10 L 185.5 9 L 188.5 8 Z " /><path fill="rgb(255,0,0)" stroke="rgb(255,0,0)" stroke-width="1" opacity="0.5176470588235295" d="M 321.5 8 L 327 9.5 L 324.5 10 L 321.5 9 L 321.5 8 Z " /><path fill="rgb(255,0,0)" stroke="rgb(255,0,0)" stroke-width="1" opacity="0.5176470588235295" d="M 181.5 10 L 184 10.5 L 175.5 13 L 175.5 12 L 181.5 10 Z " /><path fill="rgb(255,0,0)" stroke="rgb(255,0,0)" stroke-width="1" opacity="0.5176470588235295" d="M 328.5 10 L 334 11.5 L 331.5 12 L 328.5 11 L 328.5 10 Z " /><path fill="rgb(255,0,0)" stroke="rgb(255,0,0)" stroke-width="1" opacity="0.5176470588235295" d="M 335.5 12 L 340 13.5 L 337.5 14 L 335.5 12 Z " /><path fill="rgb(255,0,0)" stroke="rgb(255,0,0)" stroke-width="1" opacity="0.5176470588235295" d="M 172.5 13 L 174 13.5 L 164.5 17 L 164.5 16 L 172.5 13 Z " /><path fill="rgb(255,0,0)" stroke="rgb(255,0,0)" stroke-width="1" opacity="0.5176470588235295" d="M 341.5 14 L 348 16.5 L 346.5 17 L 341.5 15 L 341.5 14 Z " /><path fill="rgb(255,0,0)" stroke="rgb(255,0,0)" stroke-width="1" opacity="0.5176470588235295" d="M 161.5 17 L 163 17.5 L 152.5 22 L 152.5 21 L 161.5 17 Z " /><path fill="rgb(255,0,0)" stroke="rgb(255,0,0)" stroke-width="1" opacity="0.5176470588235295" d="M 349.5 17 L 353 18.5 L 351.5 19 L 349.5 17 Z " /><path fill="rgb(255,0,0)" stroke="rgb(255,0,0)" stroke-width="1" opacity="0.5176470588235295" d="M 354.5 19 L 360 21.5 L 358.5 22 L 354.5 20 L 354.5 19 Z " /><path fill="rgb(255,0,0)" stroke="rgb(255,0,0)" stroke-width="1" opacity="0.5176470588235295" d="M 149.5 22 L 151 22.5 Q 99.9 45.9 65 85.5 Q 39.2 113.7 22.5 151 L 22 149.5 Q 46.4 97.4 87.5 62 Q 114.7 38.2 149.5 22 Z " /><path fill="rgb(255,0,0)" stroke="rgb(255,0,0)" stroke-width="1" opacity="0.5176470588235295" d="M 361.5 22 Q 414.5 46 450 87.5 Q 473.6 113.9 489 148.5 L 488 148.5 Q 464.8 98.2 425.5 64 L 390.5 38 L 361.5 23 L 361.5 22 Z " /><path fill="rgb(255,0,0)" stroke="rgb(255,0,0)" stroke-width="1" opacity="0.5176470588235295" d="M 489.5 150 Q 497.7 164.8 502 183.5 L 501 183.5 L 496 166.5 L 489 151.5 L 489.5 150 Z " /><path fill="rgb(255,0,0)" stroke="rgb(255,0,0)" stroke-width="1" opacity="0.5176470588235295" d="M 21.5 152 L 22 153.5 L 19.5 158 L 19 156.5 L 21.5 152 Z " /><path fill="rgb(255,0,0)" stroke="rgb(255,0,0)" stroke-width="1" opacity="0.5176470588235295" d="M 18.5 159 L 19 160.5 L 17.5 163 L 17 161.5 L 18.5 159 Z " /><path fill="rgb(255,0,0)" stroke="rgb(255,0,0)" stroke-width="1" opacity="0.5176470588235295" d="M 16.5 164 L 17 165.5 L 13.5 174 L 13 172.5 L 16.5 164 Z " /><path fill="rgb(255,0,0)" stroke="rgb(255,0,0)" stroke-width="1" opacity="0.5176470588235295" d="M 12.5 175 L 13 177.5 L 10.5 184 L 10 181.5 L 12.5 175 Z " /><path fill="rgb(255,0,0)" stroke="rgb(255,0,0)" stroke-width="1" opacity="0.5176470588235295" d="M 9.5 185 L 10 187.5 L 8.5 191 L 8 188.5 L 9.5 185 Z " /><path fill="rgb(255,0,0)" stroke="rgb(255,0,0)" stroke-width="1" opacity="0.5176470588235295" d="M 502.5 185 L 504 190.5 L 503 190.5 L 502.5 185 Z " /><path fill="rgb(255,0,0)" stroke="rgb(255,0,0)" stroke-width="1" opacity="0.5176470588235295" d="M 7.5 192 L 8 194.5 L 7 194.5 L 7.5 192 Z " /><path fill="rgb(255,0,0)" stroke="rgb(255,0,0)" stroke-width="1" opacity="0.5176470588235295" d="M 504.5 192 L 505 194.5 L 504 194.5 L 504.5 192 Z " /><path fill="rgb(255,0,0)" stroke="rgb(255,0,0)" stroke-width="1" opacity="0.5176470588235295" d="M 6.5 196 L 7 199.5 L 5.5 204 L 5 200.5 L 6.5 196 Z " /><path fill="rgb(255,0,0)" stroke="rgb(255,0,0)" stroke-width="1" opacity="0.5176470588235295" d="M 505.5 196 L 507 203.5 L 506 203.5 L 505.5 196 Z " /><path fill="rgb(255,0,0)" stroke="rgb(255,0,0)" stroke-width="1" opacity="0.5176470588235295" d="M 4.5 205 L 5 208.5 L 4 208.5 L 4.5 205 Z " /><path fill="rgb(255,0,0)" stroke="rgb(255,0,0)" stroke-width="1" opacity="0.5176470588235295" d="M 507.5 205 L 508 208.5 L 507 208.5 L 507.5 205 Z " /><path fill="rgb(255,0,0)" stroke="rgb(255,0,0)" stroke-width="1" opacity="0.5176470588235295" d="M 3.5 210 L 4 214.5 L 3 214.5 L 3.5 210 Z " /><path fill="rgb(255,0,0)" stroke="rgb(255,0,0)" stroke-width="1" opacity="0.5176470588235295" d="M 508.5 210 L 509 214.5 L 508 214.5 L 508.5 210 Z " /><path fill="rgb(255,0,0)" stroke="rgb(255,0,0)" stroke-width="1" opacity="0.5176470588235295" d="M 2.5 216 L 3 221.5 L 2 221.5 L 2.5 216 Z " /><path fill="rgb(255,0,0)" stroke="rgb(255,0,0)" stroke-width="1" opacity="0.5176470588235295" d="M 509.5 216 L 510 221.5 L 509 221.5 L 509.5 216 Z " /><path fill="rgb(255,0,0)" stroke="rgb(255,0,0)" stroke-width="1" opacity="0.5176470588235295" d="M 1.5 223 L 2 230.5 L 1 230.5 L 1.5 223 Z " /><path fill="rgb(255,0,0)" stroke="rgb(255,0,0)" stroke-width="1" opacity="0.5176470588235295" d="M 510.5 224 L 511 230.5 L 510 230.5 L 510.5 224 Z " /><path fill="rgb(255,0,0)" stroke="rgb(255,0,0)" stroke-width="1" opacity="0.5176470588235295" d="M 0.5 233 L 1 244.5 L 0 244.5 L 0.5 233 Z " /><path fill="rgb(255,0,0)" stroke="rgb(255,0,0)" stroke-width="1" opacity="0.5176470588235295" d="M 511.5 233 L 512 244.5 L 511 244.5 L 511.5 233 Z " /><path fill="rgb(255,0,0)" stroke="rgb(255,0,0)" stroke-width="1" opacity="0.5176470588235295" d="M 0.5 267 L 1 278.5 L 0 278.5 L 0.5 267 Z " /><path fill="rgb(255,0,0)" stroke="rgb(255,0,0)" stroke-width="1" opacity="0.5176470588235295" d="M 511.5 267 L 512 278.5 L 511 278.5 L 511.5 267 Z " /><path fill="rgb(255,0,0)" stroke="rgb(255,0,0)" stroke-width="1" opacity="0.5176470588235295" d="M 1.5 281 L 2 287.5 L 1 287.5 L 1.5 281 Z " /><path fill="rgb(255,0,0)" stroke="rgb(255,0,0)" stroke-width="1" opacity="0.5176470588235295" d="M 510.5 281 L 511 287.5 L 510 287.5 L 510.5 281 Z " /><path fill="rgb(255,0,0)" stroke="rgb(255,0,0)" stroke-width="1" opacity="0.5176470588235295" d="M 2.5 290 L 3 295.5 L 2 295.5 L 2.5 290 Z " /><path fill="rgb(255,0,0)" stroke="rgb(255,0,0)" stroke-width="1" opacity="0.5176470588235295" d="M 509.5 290 L 510 295.5 L 509 295.5 L 509.5 290 Z " /><path fill="rgb(255,0,0)" stroke="rgb(255,0,0)" stroke-width="1" opacity="0.5176470588235295" d="M 3.5 297 L 4 301.5 L 3 301.5 L 3.5 297 Z " /><path fill="rgb(255,0,0)" stroke="rgb(255,0,0)" stroke-width="1" opacity="0.5176470588235295" d="M 508.5 297 L 509 301.5 L 508 301.5 L 508.5 297 Z " /><path fill="rgb(255,0,0)" stroke="rgb(255,0,0)" stroke-width="1" opacity="0.5176470588235295" d="M 4.5 303 L 5 306.5 L 4 306.5 L 4.5 303 Z " /><path fill="rgb(255,0,0)" stroke="rgb(255,0,0)" stroke-width="1" opacity="0.5176470588235295" d="M 507.5 303 L 508 306.5 L 507 306.5 L 507.5 303 Z " /><path fill="rgb(255,0,0)" stroke="rgb(255,0,0)" stroke-width="1" opacity="0.5176470588235295" d="M 5.5 308 L 7 315.5 L 6 315.5 L 5.5 308 Z " /><path fill="rgb(255,0,0)" stroke="rgb(255,0,0)" stroke-width="1" opacity="0.5176470588235295" d="M 506.5 308 L 507 311.5 L 505.5 316 L 505 312.5 L 506.5 308 Z " /><path fill="rgb(255,0,0)" stroke="rgb(255,0,0)" stroke-width="1" opacity="0.5176470588235295" d="M 7.5 317 L 8 319.5 L 7 319.5 L 7.5 317 Z " /><path fill="rgb(255,0,0)" stroke="rgb(255,0,0)" stroke-width="1" opacity="0.5176470588235295" d="M 504.5 317 L 505 319.5 L 504 319.5 L 504.5 317 Z " /><path fill="rgb(255,0,0)" stroke="rgb(255,0,0)" stroke-width="1" opacity="0.5176470588235295" d="M 8.5 321 L 10 326.5 L 9 326.5 L 8.5 321 Z " /><path fill="rgb(255,0,0)" stroke="rgb(255,0,0)" stroke-width="1" opacity="0.5176470588235295" d="M 503.5 321 L 504 323.5 L 502.5 327 L 502 324.5 L 503.5 321 Z " /><path fill="rgb(255,0,0)" stroke="rgb(255,0,0)" stroke-width="1" opacity="0.5176470588235295" d="M 10.5 328 L 17 347.5 L 16 347.5 L 10 330.5 L 10.5 328 Z " /><path fill="rgb(255,0,0)" stroke="rgb(255,0,0)" stroke-width="1" opacity="0.5176470588235295" d="M 501.5 328 L 502 330.5 Q 477.9 404.9 424.5 450 Q 394.6 476.6 354.5 493 L 354.5 492 Q 410.1 468.6 447 426.5 Q 466.3 404.8 481 378.5 Q 493.6 355.6 501.5 328 Z " /><path fill="rgb(255,0,0)" stroke="rgb(255,0,0)" stroke-width="1" opacity="0.5176470588235295" d="M 17.5 349 L 19 352.5 L 18 352.5 L 17.5 349 Z " /><path fill="rgb(255,0,0)" stroke="rgb(255,0,0)" stroke-width="1" opacity="0.5176470588235295" d="M 19.5 354 L 22 359.5 L 21 359.5 L 19.5 354 Z " /><path fill="rgb(255,0,0)" stroke="rgb(255,0,0)" stroke-width="1" opacity="0.5176470588235295" d="M 22.5 361 Q 45.9 412.1 85.5 447 Q 112.9 472.1 149 488.5 L 147.5 489 Q 96.8 464.7 62 424.5 L 37 390.5 L 22 362.5 L 22.5 361 Z " /><path fill="rgb(255,0,0)" stroke="rgb(255,0,0)" stroke-width="1" opacity="0.5176470588235295" d="M 150.5 489 L 163 494.5 L 161.5 495 L 150.5 490 L 150.5 489 Z " /><path fill="rgb(255,0,0)" stroke="rgb(255,0,0)" stroke-width="1" opacity="0.5176470588235295" d="M 351.5 493 L 353 493.5 L 335.5 500 L 335.5 499 L 351.5 493 Z " /><path fill="rgb(255,0,0)" stroke="rgb(255,0,0)" stroke-width="1" opacity="0.5176470588235295" d="M 164.5 495 L 184 501.5 L 181.5 502 L 166.5 497 L 164.5 495 Z " /><path fill="rgb(255,0,0)" stroke="rgb(255,0,0)" stroke-width="1" opacity="0.5176470588235295" d="M 331.5 500 L 334 500.5 L 328.5 502 L 328.5 501 L 331.5 500 Z " /><path fill="rgb(255,0,0)" stroke="rgb(255,0,0)" stroke-width="1" opacity="0.5176470588235295" d="M 185.5 502 L 191 503.5 L 188.5 504 L 185.5 503 L 185.5 502 Z " /><path fill="rgb(255,0,0)" stroke="rgb(255,0,0)" stroke-width="1" opacity="0.5176470588235295" d="M 324.5 502 L 327 502.5 L 321.5 504 L 321.5 503 L 324.5 502 Z " /><path fill="rgb(255,0,0)" stroke="rgb(255,0,0)" stroke-width="1" opacity="0.5176470588235295" d="M 192.5 504 L 204 506.5 L 200.5 507 L 192.5 505 L 192.5 504 Z " /><path fill="rgb(255,0,0)" stroke="rgb(255,0,0)" stroke-width="1" opacity="0.5176470588235295" d="M 317.5 504 L 320 504.5 L 317.5 505 L 317.5 504 Z " /><path fill="rgb(255,0,0)" stroke="rgb(255,0,0)" stroke-width="1" opacity="0.5176470588235295" d="M 312.5 505 L 316 505.5 L 308.5 507 L 308.5 506 L 312.5 505 Z " /><path fill="rgb(255,0,0)" stroke="rgb(255,0,0)" stroke-width="1" opacity="0.5176470588235295" d="M 205.5 507 L 209 507.5 L 205.5 508 L 205.5 507 Z " /><path fill="rgb(255,0,0)" stroke="rgb(255,0,0)" stroke-width="1" opacity="0.5176470588235295" d="M 303.5 507 L 307 507.5 L 303.5 508 L 303.5 507 Z " /><path fill="rgb(255,0,0)" stroke="rgb(255,0,0)" stroke-width="1" opacity="0.5176470588235295" d="M 211.5 508 L 215 508.5 L 211.5 509 L 211.5 508 Z " /><path fill="rgb(255,0,0)" stroke="rgb(255,0,0)" stroke-width="1" opacity="0.5176470588235295" d="M 297.5 508 L 302 508.5 L 297.5 509 L 297.5 508 Z " /><path fill="rgb(255,0,0)" stroke="rgb(255,0,0)" stroke-width="1" opacity="0.5176470588235295" d="M 216.5 509 L 222 509.5 L 216.5 510 L 216.5 509 Z " /><path fill="rgb(255,0,0)" stroke="rgb(255,0,0)" stroke-width="1" opacity="0.5176470588235295" d="M 290.5 509 L 296 509.5 L 290.5 510 L 290.5 509 Z " /><path fill="rgb(255,0,0)" stroke="rgb(255,0,0)" stroke-width="1" opacity="0.5176470588235295" d="M 224.5 510 L 231 510.5 L 224.5 511 L 224.5 510 Z " /><path fill="rgb(255,0,0)" stroke="rgb(255,0,0)" stroke-width="1" opacity="0.5176470588235295" d="M 281.5 510 L 288 510.5 L 281.5 511 L 281.5 510 Z " /><path fill="rgb(255,0,0)" stroke="rgb(255,0,0)" stroke-width="1" opacity="0.5176470588235295" d="M 233.5 511 L 245 511.5 L 233.5 512 L 233.5 511 Z " /><path fill="rgb(255,0,0)" stroke="rgb(255,0,0)" stroke-width="1" opacity="0.5176470588235295" d="M 267.5 511 L 279 511.5 L 267.5 512 L 267.5 511 Z " /><path fill="rgb(255,0,0)" stroke="rgb(255,0,0)" stroke-width="1" opacity="1" d="M 245.5 0 L 266.5 0 L 267.5 1 L 280.5 1 L 281.5 2 L 302.5 4 L 334.5 12 L 353.5 19 Q 409.6 42.9 447 85.5 Q 478 119.5 496 166.5 L 504 191.5 L 509 215.5 L 510 230.5 L 511 231.5 L 511 244.5 L 512 245.5 L 512 266.5 L 511 267.5 L 510 289.5 L 505 316.5 Q 498.7 341.2 489 362.5 Q 465.5 412.5 426.5 447 Q 407.8 463.8 385.5 477 L 362.5 489 L 334.5 500 L 316.5 505 L 289.5 510 L 267.5 511 L 266.5 512 L 245.5 512 L 244.5 511 L 231.5 511 L 230.5 510 L 215.5 509 L 191.5 504 L 163.5 495 L 149.5 489 Q 99.5 465.5 65 426.5 Q 35 393.5 17 348.5 L 8 320.5 L 3 296.5 L 2 281.5 L 1 280.5 L 1 267.5 L 0 266.5 L 0 245.5 L 1 244.5 L 2 222.5 L 7 195.5 L 13 174.5 L 22 151.5 Q 45.7 100.2 85.5 65 Q 118.5 35 163.5 17 L 204.5 5 L 221.5 3 L 222.5 2 L 230.5 2 L 231.5 1 L 244.5 1 L 245.5 0 Z M 164 160 Q 149 163 140 171 Q 125 183 121 206 L 121 307 L 125 322 L 133 335 Q 144 348 164 352 L 349 352 Q 364 349 374 340 L 384 328 L 389 317 L 391 307 L 391 206 L 387 191 L 379 178 Q 368 164 349 160 L 164 160 Z " /><path fill="rgb(255,0,0)" stroke="rgb(255,0,0)" stroke-width="1" opacity="1" d="M 221.5 215 L 278.5 249 L 291 255 Q 292.1 257.7 289.5 257 L 221.5 297 L 221.5 215 Z " /><path fill="rgb(0,0,0)" stroke="rgb(0,0,0)" stroke-width="1" opacity="0" d="M 0 0 L 233 0.5 L 205.5 4 L 181.5 10 Q 155.5 18 133.5 30 Q 92 53 62 87.5 Q 35.8 117.3 19 156.5 Q 10.4 176.9 5 200.5 L 1 223.5 L 0.5 233 L 0 0 Z " /><path fill="rgb(0,0,0)" stroke="rgb(0,0,0)" stroke-width="1" opacity="0" d="M 279.5 0 L 512 0 L 512 232.5 L 511 232.5 L 509 210.5 L 502 181.5 Q 494 155.5 482 133.5 Q 459 92 424.5 62 Q 397.3 38.2 362.5 22 L 323.5 8 L 295.5 2 L 279.5 1 L 279.5 0 Z " /><path fill="rgb(0,0,0)" stroke="rgb(0,0,0)" stroke-width="1" opacity="0" d="M 0.5 279 L 3 301.5 L 10 330.5 Q 18 356.5 30 378.5 Q 53 420 87.5 450 Q 117.3 476.2 156.5 493 Q 176.9 501.6 200.5 507 L 233 511.5 L 0 512 L 0.5 279 Z " /><path fill="rgb(0,0,0)" stroke="rgb(0,0,0)" stroke-width="1" opacity="0" d="M 511.5 279 L 512 512 L 279 511.5 L 301.5 509 L 330.5 502 Q 356.5 494 378.5 482 Q 420 459 450 424.5 Q 476.2 394.7 493 355.5 Q 501.6 335.1 507 311.5 L 511.5 279 Z " /><path fill="rgb(255,196,196)" stroke="rgb(255,196,196)" stroke-width="1" opacity="1" d="M 163.5 160 L 166 160.5 L 163.5 161 L 163.5 160 Z " /><path fill="rgb(255,196,196)" stroke="rgb(255,196,196)" stroke-width="1" opacity="1" d="M 346.5 160 L 349 160.5 L 346.5 161 L 346.5 160 Z " /><path fill="rgb(255,196,196)" stroke="rgb(255,196,196)" stroke-width="1" opacity="1" d="M 360.5 164 L 365 166.5 L 363.5 166 Q 359.8 165.8 360.5 164 Z " /><path fill="rgb(255,196,196)" stroke="rgb(255,196,196)" stroke-width="1" opacity="1" d="M 148.5 165 L 147.5 167 L 148.5 165 Z " /><path fill="rgb(255,196,196)" stroke="rgb(255,196,196)" stroke-width="1" opacity="1" d="M 143.5 168 L 141.5 171 L 143.5 168 Z " /><path fill="rgb(255,196,196)" stroke="rgb(255,196,196)" stroke-width="1" opacity="1" d="M 368.5 168 L 370.5 171 L 368.5 168 Z " /><path fill="rgb(255,196,196)" stroke="rgb(255,196,196)" stroke-width="1" opacity="1" d="M 139.5 171 L 133.5 178 L 139.5 171 Z " /><path fill="rgb(255,196,196)" stroke="rgb(255,196,196)" stroke-width="1" opacity="1" d="M 373.5 172 L 378.5 178 L 373.5 172 Z " /><path fill="rgb(255,196,196)" stroke="rgb(255,196,196)" stroke-width="1" opacity="1" d="M 131.5 180 L 130.5 182 L 131.5 180 Z " /><path fill="rgb(255,196,196)" stroke="rgb(255,196,196)" stroke-width="1" opacity="1" d="M 380.5 180 L 381.5 182 L 380.5 180 Z " /><path fill="rgb(255,196,196)" stroke="rgb(255,196,196)" stroke-width="1" opacity="1" d="M 129.5 183 L 128.5 185 L 129.5 183 Z " /><path fill="rgb(255,196,196)" stroke="rgb(255,196,196)" stroke-width="1" opacity="1" d="M 382.5 183 L 383.5 185 L 382.5 183 Z " /><path fill="rgb(255,196,196)" stroke="rgb(255,196,196)" stroke-width="1" opacity="1" d="M 122.5 199 L 123 201.5 L 122 201.5 L 122.5 199 Z " /><path fill="rgb(255,196,196)" stroke="rgb(255,196,196)" stroke-width="1" opacity="1" d="M 389.5 199 L 390 201.5 L 389 201.5 L 389.5 199 Z " /><path fill="rgb(255,196,196)" stroke="rgb(255,196,196)" stroke-width="1" opacity="1" d="M 121.5 205 L 122 306.5 L 121 306.5 L 121.5 205 Z " /><path fill="rgb(255,196,196)" stroke="rgb(255,196,196)" stroke-width="1" opacity="1" d="M 390.5 205 L 391 306.5 L 390 306.5 L 390.5 205 Z " /><path fill="rgb(255,196,196)" stroke="rgb(255,196,196)" stroke-width="1" opacity="1" d="M 220.5 215 L 221 296.5 L 220 296.5 L 220.5 215 Z " /><path fill="rgb(255,196,196)" stroke="rgb(255,196,196)" stroke-width="1" opacity="1" d="M 222.5 215 L 223.5 217 L 222.5 215 Z " /><path fill="rgb(255,196,196)" stroke="rgb(255,196,196)" stroke-width="1" opacity="1" d="M 229.5 219 L 230.5 221 L 229.5 219 Z " /><path fill="rgb(255,196,196)" stroke="rgb(255,196,196)" stroke-width="1" opacity="1" d="M 234.5 222 L 235.5 224 L 234.5 222 Z " /><path fill="rgb(255,196,196)" stroke="rgb(255,196,196)" stroke-width="1" opacity="1" d="M 241.5 226 L 242.5 228 L 241.5 226 Z " /><path fill="rgb(255,196,196)" stroke="rgb(255,196,196)" stroke-width="1" opacity="1" d="M 253.5 233 L 254.5 235 L 253.5 233 Z " /><path fill="rgb(255,196,196)" stroke="rgb(255,196,196)" stroke-width="1" opacity="1" d="M 265.5 240 L 266.5 242 L 265.5 240 Z " /><path fill="rgb(255,196,196)" stroke="rgb(255,196,196)" stroke-width="1" opacity="1" d="M 272.5 244 L 273.5 246 L 272.5 244 Z " /><path fill="rgb(255,196,196)" stroke="rgb(255,196,196)" stroke-width="1" opacity="1" d="M 277.5 247 L 278.5 249 L 277.5 247 Z " /><path fill="rgb(255,196,196)" stroke="rgb(255,196,196)" stroke-width="1" opacity="1" d="M 284.5 251 L 285.5 253 L 284.5 251 Z " /><path fill="rgb(255,196,196)" stroke="rgb(255,196,196)" stroke-width="1" opacity="1" d="M 285.5 259 L 284.5 261 L 285.5 259 Z " /><path fill="rgb(255,196,196)" stroke="rgb(255,196,196)" stroke-width="1" opacity="1" d="M 278.5 263 L 277.5 265 L 278.5 263 Z " /><path fill="rgb(255,196,196)" stroke="rgb(255,196,196)" stroke-width="1" opacity="1" d="M 273.5 266 L 272.5 268 L 273.5 266 Z " /><path fill="rgb(255,196,196)" stroke="rgb(255,196,196)" stroke-width="1" opacity="1" d="M 266.5 270 L 265.5 272 L 266.5 270 Z " /><path fill="rgb(255,196,196)" stroke="rgb(255,196,196)" stroke-width="1" opacity="1" d="M 254.5 277 L 253.5 279 L 254.5 277 Z " /><path fill="rgb(255,196,196)" stroke="rgb(255,196,196)" stroke-width="1" opacity="1" d="M 242.5 284 L 241.5 286 L 242.5 284 Z " /><path fill="rgb(255,196,196)" stroke="rgb(255,196,196)" stroke-width="1" opacity="1" d="M 235.5 288 L 234.5 290 L 235.5 288 Z " /><path fill="rgb(255,196,196)" stroke="rgb(255,196,196)" stroke-width="1" opacity="1" d="M 230.5 291 L 229.5 293 L 230.5 291 Z " /><path fill="rgb(255,196,196)" stroke="rgb(255,196,196)" stroke-width="1" opacity="1" d="M 223.5 295 L 222.5 297 L 223.5 295 Z " /><path fill="rgb(255,196,196)" stroke="rgb(255,196,196)" stroke-width="1" opacity="1" d="M 122.5 310 L 123 312.5 L 122 312.5 L 122.5 310 Z " /><path fill="rgb(255,196,196)" stroke="rgb(255,196,196)" stroke-width="1" opacity="1" d="M 389.5 310 L 390 312.5 L 389 312.5 L 389.5 310 Z " /><path fill="rgb(255,196,196)" stroke="rgb(255,196,196)" stroke-width="1" opacity="1" d="M 128.5 327 L 129.5 329 L 128.5 327 Z " /><path fill="rgb(255,196,196)" stroke="rgb(255,196,196)" stroke-width="1" opacity="1" d="M 383.5 327 L 382.5 329 L 383.5 327 Z " /><path fill="rgb(255,196,196)" stroke="rgb(255,196,196)" stroke-width="1" opacity="1" d="M 130.5 330 L 131.5 332 L 130.5 330 Z " /><path fill="rgb(255,196,196)" stroke="rgb(255,196,196)" stroke-width="1" opacity="1" d="M 381.5 330 L 380.5 332 L 381.5 330 Z " /><path fill="rgb(255,196,196)" stroke="rgb(255,196,196)" stroke-width="1" opacity="1" d="M 133.5 334 L 138.5 340 L 133.5 334 Z " /><path fill="rgb(255,196,196)" stroke="rgb(255,196,196)" stroke-width="1" opacity="1" d="M 378.5 334 L 373.5 340 L 378.5 334 Z " /><path fill="rgb(255,196,196)" stroke="rgb(255,196,196)" stroke-width="1" opacity="1" d="M 141.5 341 L 143.5 344 L 141.5 341 Z " /><path fill="rgb(255,196,196)" stroke="rgb(255,196,196)" stroke-width="1" opacity="1" d="M 370.5 341 L 368.5 344 L 370.5 341 Z " /><path fill="rgb(255,196,196)" stroke="rgb(255,196,196)" stroke-width="1" opacity="1" d="M 147.5 345 L 150 346.5 L 148.5 347 L 147.5 345 Z " /><path fill="rgb(255,196,196)" stroke="rgb(255,196,196)" stroke-width="1" opacity="1" d="M 364.5 345 L 363.5 347 L 360.5 348 L 360.5 347 L 364.5 345 Z " /><path fill="rgb(255,196,196)" stroke="rgb(255,196,196)" stroke-width="1" opacity="1" d="M 163.5 351 L 166 351.5 L 163.5 352 L 163.5 351 Z " /><path fill="rgb(255,196,196)" stroke="rgb(255,196,196)" stroke-width="1" opacity="1" d="M 346.5 351 L 349 351.5 L 346.5 352 L 346.5 351 Z " /><path fill="rgb(255,255,255)" stroke="rgb(255,255,255)" stroke-width="1" opacity="1" d="M 166.5 160 L 345.5 160 Q 368.5 164 380 179.5 Q 387.5 188.5 390 202.5 L 390 309.5 Q 385.8 330.3 371.5 341 L 357.5 349 L 345.5 352 L 166.5 352 Q 143.5 348 132 332.5 Q 124.5 323.5 122 309.5 L 122 202.5 Q 126.2 181.7 140.5 171 L 149.5 165 L 166.5 160 Z M 220 215 L 220 297 L 223 297 L 290 258 L 291 256 L 223 215 L 220 215 Z " /></svg>