<svg width="225" height="225" version="1.1" xmlns="http://www.w3.org/2000/svg" desc="Created with imagetracer.js version 1.2.6" ><path fill="rgb(227,17,21)" stroke="rgb(227,17,21)" stroke-width="1" opacity="1" d="M 98.5 18 L 104 18.5 L 98.5 19 L 98.5 18 Z " /><path fill="rgb(227,17,21)" stroke="rgb(227,17,21)" stroke-width="1" opacity="1" d="M 91.5 19 L 97 19.5 L 91.5 20 L 91.5 19 Z " /><path fill="rgb(227,17,21)" stroke="rgb(227,17,21)" stroke-width="1" opacity="1" d="M 84.5 20 L 90 20.5 L 84.5 21 L 84.5 20 Z " /><path fill="rgb(227,17,21)" stroke="rgb(227,17,21)" stroke-width="1" opacity="1" d="M 78.5 21 L 83 21.5 L 78.5 22 L 78.5 21 Z " /><path fill="rgb(227,17,21)" stroke="rgb(227,17,21)" stroke-width="1" opacity="1" d="M 71.5 22 L 76 22.5 L 71.5 23 L 71.5 22 Z " /><path fill="rgb(227,17,21)" stroke="rgb(227,17,21)" stroke-width="1" opacity="1" d="M 65.5 23 L 70 23.5 L 65.5 24 L 65.5 23 Z " /><path fill="rgb(227,17,21)" stroke="rgb(227,17,21)" stroke-width="1" opacity="1" d="M 61.5 24 L 64 24.5 L 61.5 25 L 61.5 24 Z " /><path fill="rgb(227,17,21)" stroke="rgb(227,17,21)" stroke-width="1" opacity="1" d="M 56.5 25 L 60 25.5 L 53.5 27 L 53.5 26 L 56.5 25 Z " /><path fill="rgb(227,17,21)" stroke="rgb(227,17,21)" stroke-width="1" opacity="1" d="M 47.5 28 L 49 28.5 L 40.5 33 L 41.5 31 L 47.5 28 Z " /><path fill="rgb(227,17,21)" stroke="rgb(227,17,21)" stroke-width="1" opacity="1" d="M 38.5 33 L 37.5 35 L 38.5 33 Z " /><path fill="rgb(227,17,21)" stroke="rgb(227,17,21)" stroke-width="1" opacity="1" d="M 35.5 35 L 30.5 41 L 35.5 35 Z " /><path fill="rgb(227,17,21)" stroke="rgb(227,17,21)" stroke-width="1" opacity="1" d="M 28.5 42 L 24.5 47 L 28.5 42 Z " /><path fill="rgb(227,17,21)" stroke="rgb(227,17,21)" stroke-width="1" opacity="1" d="M 23.5 48 L 22.5 50 L 23.5 48 Z " /><path fill="rgb(227,17,21)" stroke="rgb(227,17,21)" stroke-width="1" opacity="1" d="M 21.5 51 L 21 52.5 L 17.5 60 L 17 58.5 L 21.5 51 Z " /><path fill="rgb(227,17,21)" stroke="rgb(227,17,21)" stroke-width="1" opacity="1" d="M 101.5 56 L 106 56.5 L 101.5 57 L 101.5 56 Z " /><path fill="rgb(227,17,21)" stroke="rgb(227,17,21)" stroke-width="1" opacity="1" d="M 94.5 57 L 99 57.5 L 94.5 58 L 94.5 57 Z " /><path fill="rgb(227,17,21)" stroke="rgb(227,17,21)" stroke-width="1" opacity="1" d="M 88.5 58 L 93 58.5 L 88.5 59 L 88.5 58 Z " /><path fill="rgb(227,17,21)" stroke="rgb(227,17,21)" stroke-width="1" opacity="1" d="M 82.5 59 L 86 59.5 L 82.5 60 L 82.5 59 Z " /><path fill="rgb(227,17,21)" stroke="rgb(227,17,21)" stroke-width="1" opacity="1" d="M 76.5 60 L 81 60.5 L 76.5 61 L 76.5 60 Z " /><path fill="rgb(227,17,21)" stroke="rgb(227,17,21)" stroke-width="1" opacity="1" d="M 70.5 61 L 75 61.5 L 70.5 62 L 70.5 61 Z " /><path fill="rgb(227,17,21)" stroke="rgb(227,17,21)" stroke-width="1" opacity="1" d="M 66.5 62 L 69 62.5 L 66.5 63 L 66.5 62 Z " /><path fill="rgb(227,17,21)" stroke="rgb(227,17,21)" stroke-width="1" opacity="1" d="M 63.5 63 L 65 63.5 L 60.5 66 L 61.5 64 L 63.5 63 Z " /><path fill="rgb(227,17,21)" stroke="rgb(227,17,21)" stroke-width="1" opacity="1" d="M 58.5 66 L 54.5 71 L 58.5 66 Z " /><path fill="rgb(227,17,21)" stroke="rgb(227,17,21)" stroke-width="1" opacity="1" d="M 14.5 67 L 15 69.5 L 13.5 74 L 13 70.5 L 14.5 67 Z " /><path fill="rgb(227,17,21)" stroke="rgb(227,17,21)" stroke-width="1" opacity="1" d="M 12.5 75 L 13 90.5 L 12 90.5 L 12.5 75 Z " /><path fill="rgb(227,17,21)" stroke="rgb(227,17,21)" stroke-width="1" opacity="1" d="M 51.5 76 L 52 79.5 L 51 79.5 L 51.5 76 Z " /><path fill="rgb(227,17,21)" stroke="rgb(227,17,21)" stroke-width="1" opacity="1" d="M 50.5 81 L 51 87.5 L 50 87.5 L 50.5 81 Z " /><path fill="rgb(227,17,21)" stroke="rgb(227,17,21)" stroke-width="1" opacity="1" d="M 51.5 89 L 52 95.5 L 51 95.5 L 51.5 89 Z " /><path fill="rgb(227,17,21)" stroke="rgb(227,17,21)" stroke-width="1" opacity="1" d="M 13.5 93 L 14 98.5 L 13 98.5 L 13.5 93 Z " /><path fill="rgb(227,17,21)" stroke="rgb(227,17,21)" stroke-width="1" opacity="1" d="M 52.5 97 L 53 100.5 L 52 100.5 L 52.5 97 Z " /><path fill="rgb(227,17,21)" stroke="rgb(227,17,21)" stroke-width="1" opacity="1" d="M 14.5 100 L 15 103.5 L 14 103.5 L 14.5 100 Z " /><path fill="rgb(227,17,21)" stroke="rgb(227,17,21)" stroke-width="1" opacity="1" d="M 53.5 102 L 54 106.5 L 53 106.5 L 53.5 102 Z " /><path fill="rgb(227,17,21)" stroke="rgb(227,17,21)" stroke-width="1" opacity="1" d="M 33.5 104 L 36 104.5 L 33.5 105 L 33.5 104 Z " /><path fill="rgb(227,17,21)" stroke="rgb(227,17,21)" stroke-width="1" opacity="1" d="M 40.5 104 L 43 104.5 L 40.5 105 L 40.5 104 Z " /><path fill="rgb(227,17,21)" stroke="rgb(227,17,21)" stroke-width="1" opacity="1" d="M 15.5 105 L 16 108.5 L 15 108.5 L 15.5 105 Z " /><path fill="rgb(227,17,21)" stroke="rgb(227,17,21)" stroke-width="1" opacity="1" d="M 27.5 106 L 26.5 108 L 27.5 106 Z " /><path fill="rgb(227,17,21)" stroke="rgb(227,17,21)" stroke-width="1" opacity="1" d="M 24.5 108 L 23.5 110 L 24.5 108 Z " /><path fill="rgb(227,17,21)" stroke="rgb(227,17,21)" stroke-width="1" opacity="1" d="M 16.5 110 L 17.5 115 L 19 114.5 Q 17.5 117.5 16 114.5 L 16.5 110 Z " /><path fill="rgb(227,37,39)" stroke="rgb(227,37,39)" stroke-width="1" opacity="1" d="M 108.5 18 L 115.5 26 L 108.5 18 Z " /><path fill="rgb(227,37,39)" stroke="rgb(227,37,39)" stroke-width="1" opacity="1" d="M 120.5 36 L 121 39.5 L 120 39.5 L 120.5 36 Z " /><path fill="rgb(227,37,39)" stroke="rgb(227,37,39)" stroke-width="1" opacity="1" d="M 110.5 54 L 109.5 56 L 110.5 54 Z " /><path fill="rgb(4,148,64)" stroke="rgb(4,148,64)" stroke-width="1" opacity="1" d="M 136.5 12 L 147 12.5 L 136.5 13 L 136.5 12 Z " /><path fill="rgb(4,148,64)" stroke="rgb(4,148,64)" stroke-width="1" opacity="1" d="M 128.5 13 L 133 13.5 L 128.5 14 L 128.5 13 Z " /><path fill="rgb(4,148,64)" stroke="rgb(4,148,64)" stroke-width="1" opacity="1" d="M 149.5 13 L 153 13.5 L 149.5 14 L 149.5 13 Z " /><path fill="rgb(4,148,64)" stroke="rgb(4,148,64)" stroke-width="1" opacity="1" d="M 122.5 14 L 125 14.5 L 122.5 15 L 122.5 14 Z " /><path fill="rgb(4,148,64)" stroke="rgb(4,148,64)" stroke-width="1" opacity="1" d="M 155.5 14 L 158 14.5 L 155.5 15 L 155.5 14 Z " /><path fill="rgb(4,148,64)" stroke="rgb(4,148,64)" stroke-width="1" opacity="1" d="M 116.5 15 L 120 15.5 L 116.5 16 L 116.5 15 Z " /><path fill="rgb(4,148,64)" stroke="rgb(4,148,64)" stroke-width="1" opacity="1" d="M 111.5 16 L 114 16.5 L 111.5 17 L 111.5 16 Z " /><path fill="rgb(4,148,64)" stroke="rgb(4,148,64)" stroke-width="1" opacity="1" d="M 167.5 18 L 172 20.5 L 170.5 20 Q 166.8 19.7 167.5 18 Z " /><path fill="rgb(4,148,64)" stroke="rgb(4,148,64)" stroke-width="1" opacity="1" d="M 175.5 22 L 176.5 24 L 175.5 22 Z " /><path fill="rgb(4,148,64)" stroke="rgb(4,148,64)" stroke-width="1" opacity="1" d="M 178.5 24 L 188.5 35 L 178.5 24 Z " /><path fill="rgb(4,148,64)" stroke="rgb(4,148,64)" stroke-width="1" opacity="1" d="M 189.5 36 L 193 40.5 L 191 39.5 L 189.5 36 Z " /><path fill="rgb(4,148,64)" stroke="rgb(4,148,64)" stroke-width="1" opacity="1" d="M 115.5 50 L 112.5 54 L 115.5 50 Z " /><path fill="rgb(4,148,64)" stroke="rgb(4,148,64)" stroke-width="1" opacity="1" d="M 140.5 50 L 146 50.5 L 140.5 51 L 140.5 50 Z " /><path fill="rgb(4,148,64)" stroke="rgb(4,148,64)" stroke-width="1" opacity="1" d="M 134.5 51 L 138 51.5 L 134.5 52 L 134.5 51 Z " /><path fill="rgb(4,148,64)" stroke="rgb(4,148,64)" stroke-width="1" opacity="1" d="M 147.5 51 L 150 51.5 L 147.5 52 L 147.5 51 Z " /><path fill="rgb(4,148,64)" stroke="rgb(4,148,64)" stroke-width="1" opacity="1" d="M 127.5 52 L 131 52.5 L 127.5 53 L 127.5 52 Z " /><path fill="rgb(4,148,64)" stroke="rgb(4,148,64)" stroke-width="1" opacity="1" d="M 121.5 53 L 125 53.5 L 121.5 54 L 121.5 53 Z " /><path fill="rgb(4,148,64)" stroke="rgb(4,148,64)" stroke-width="1" opacity="1" d="M 153.5 53 L 154.5 55 L 153.5 53 Z " /><path fill="rgb(4,148,64)" stroke="rgb(4,148,64)" stroke-width="1" opacity="1" d="M 114.5 54 L 118 54.5 L 114.5 55 L 114.5 54 Z " /><path fill="rgb(4,148,64)" stroke="rgb(4,148,64)" stroke-width="1" opacity="1" d="M 199.5 57 L 200 59.5 L 199 59.5 L 199.5 57 Z " /><path fill="rgb(4,148,64)" stroke="rgb(4,148,64)" stroke-width="1" opacity="1" d="M 158.5 58 L 159.5 60 L 158.5 58 Z " /><path fill="rgb(4,148,64)" stroke="rgb(4,148,64)" stroke-width="1" opacity="1" d="M 200.5 62 L 201 64.5 L 200 64.5 L 200.5 62 Z " /><path fill="rgb(4,148,64)" stroke="rgb(4,148,64)" stroke-width="1" opacity="1" d="M 162.5 65 L 163 68.5 L 162 68.5 L 162.5 65 Z " /><path fill="rgb(4,148,64)" stroke="rgb(4,148,64)" stroke-width="1" opacity="1" d="M 201.5 66 L 202 69.5 L 201 69.5 L 201.5 66 Z " /><path fill="rgb(4,148,64)" stroke="rgb(4,148,64)" stroke-width="1" opacity="1" d="M 163.5 71 L 164 73.5 L 163 73.5 L 163.5 71 Z " /><path fill="rgb(4,148,64)" stroke="rgb(4,148,64)" stroke-width="1" opacity="1" d="M 202.5 71 L 203 74.5 L 202 74.5 L 202.5 71 Z " /><path fill="rgb(4,148,64)" stroke="rgb(4,148,64)" stroke-width="1" opacity="1" d="M 164.5 77 L 165 80.5 L 164 80.5 L 164.5 77 Z " /><path fill="rgb(4,148,64)" stroke="rgb(4,148,64)" stroke-width="1" opacity="1" d="M 203.5 78 L 204 81.5 L 203 81.5 L 203.5 78 Z " /><path fill="rgb(4,148,64)" stroke="rgb(4,148,64)" stroke-width="1" opacity="1" d="M 165.5 83 L 166 86.5 L 165 86.5 L 165.5 83 Z " /><path fill="rgb(4,148,64)" stroke="rgb(4,148,64)" stroke-width="1" opacity="1" d="M 204.5 84 L 205 87.5 L 204 87.5 L 204.5 84 Z " /><path fill="rgb(4,148,64)" stroke="rgb(4,148,64)" stroke-width="1" opacity="1" d="M 166.5 89 L 167 92.5 L 166 92.5 L 166.5 89 Z " /><path fill="rgb(4,148,64)" stroke="rgb(4,148,64)" stroke-width="1" opacity="1" d="M 205.5 91 L 206 94.5 L 205 94.5 L 205.5 91 Z " /><path fill="rgb(4,148,64)" stroke="rgb(4,148,64)" stroke-width="1" opacity="1" d="M 167.5 95 L 168 98.5 L 167 98.5 L 167.5 95 Z " /><path fill="rgb(4,148,64)" stroke="rgb(4,148,64)" stroke-width="1" opacity="1" d="M 206.5 97 L 207 101.5 L 206 101.5 L 206.5 97 Z " /><path fill="rgb(4,148,64)" stroke="rgb(4,148,64)" stroke-width="1" opacity="1" d="M 168.5 101 L 169 104.5 L 168 104.5 L 168.5 101 Z " /><path fill="rgb(4,148,64)" stroke="rgb(4,148,64)" stroke-width="1" opacity="1" d="M 207.5 104 L 208 108.5 L 207 108.5 L 207.5 104 Z " /><path fill="rgb(4,148,64)" stroke="rgb(4,148,64)" stroke-width="1" opacity="1" d="M 169.5 108 L 170 111.5 L 169 111.5 L 169.5 108 Z " /><path fill="rgb(4,148,64)" stroke="rgb(4,148,64)" stroke-width="1" opacity="1" d="M 208.5 111 L 209 113 L 207 112.5 L 208.5 111 Z " /><path fill="rgb(4,148,64)" stroke="rgb(4,148,64)" stroke-width="1" opacity="1" d="M 170.5 113 L 173 114.5 L 171.5 115 L 170.5 113 Z " /><path fill="rgb(4,148,64)" stroke="rgb(4,148,64)" stroke-width="1" opacity="1" d="M 193.5 118 L 195 118.5 L 191.5 120 L 191.5 119 L 193.5 118 Z " /><path fill="rgb(8,153,73)" stroke="rgb(8,153,73)" stroke-width="1" opacity="1" d="M 133 12 Q 137.5 14 146.5 13 L 149 12 Q 147.7 15.3 152.5 14 L 155 13 Q 153.8 16 157.5 15 L 159 14.5 Q 158.3 16.8 160.5 16 L 162 15.5 Q 161.3 17.8 163.5 17 L 165 16.5 L 165.5 18 L 167 17.5 Q 166.3 19.8 168.5 19 L 171.5 21 L 173 20.5 L 173.5 22 L 175 21.5 L 176.5 24 L 178 23.5 L 181.5 28 L 182.5 27 L 187 31.5 Q 184.3 33.2 188.5 35 L 190 35.5 Q 187.5 37 191 38.5 L 192.5 41 L 194 41.5 L 193.5 43 L 195 43.5 L 194.5 45 L 196 45.5 L 196 47.5 Q 194.9 50.8 197.5 50 L 197 51.5 Q 196.3 53.8 198.5 53 L 198 54.5 L 199 59.5 L 201 61.5 L 200 65 L 202 65.5 L 201 70 L 203 70.5 L 202 74.5 L 204 77.5 L 203 81.5 Q 206.5 83 204 84.5 Q 203.4 89.1 206 90.5 L 205 94.5 Q 208.5 96 206 97.5 L 206 102 Q 208.7 100.9 208 103.5 L 207 108.5 Q 211 110.5 207 112.5 L 206.5 114 L 205 113.5 Q 205.8 115.8 203.5 115 L 200.5 117 L 199 116.5 L 198.5 118 L 194.5 118 L 188.5 120 L 186.5 119 L 182.5 120 L 178.5 118 L 176 118 L 176 116 Q 172.3 117.5 173 114.5 L 169 112.5 L 170 108.5 L 168 105.5 L 169 101 Q 166.3 102.1 167 99.5 L 168 95 Q 165.3 96.1 166 93.5 L 167 89 Q 164.3 90.1 165 87.5 L 166 83.5 Q 162.5 82 165 80.5 Q 165.6 75.9 163 74.5 L 164 71.5 Q 160.5 70 163 68.5 Q 164.5 64.1 161.5 65 L 161 62.5 Q 161.8 60.3 159.5 61 L 158.5 58 L 155 55.5 L 153.5 53 L 152 53.5 L 151.5 52 L 150 52.5 Q 150.8 49.9 147.5 51 L 146 51.5 L 145.5 50 L 140 50 Q 141.1 52.7 138.5 52 L 134.5 51 L 131.5 53 L 127 52 Q 128.1 54.7 125.5 54 L 121.5 53 L 118.5 55 L 114 54 Q 115.1 56.7 112.5 56 L 111.5 54 L 116 50.5 L 121 41.5 L 121 34.5 Q 117 24 109 17.5 Q 110.2 14.7 111.5 17 L 115.5 15 L 120 16 Q 118.9 13.3 121.5 14 L 124.5 15 L 127.5 13 L 133 14 L 133 12 Z " /><path fill="rgb(228,37,39)" stroke="rgb(228,37,39)" stroke-width="1" opacity="1" d="M 104.5 17 L 107.5 18 L 117 27.5 Q 121.5 32 120 42.5 L 111.5 54 L 107 55 L 106.5 57 L 101.5 56 Q 100 59.5 98.5 57 Q 93.1 55.1 94 58.5 L 92.5 58 L 88 58 Q 89.1 60.7 86.5 60 L 82 59 L 81.5 61 L 76 60 L 75.5 62 L 70 61 L 69.5 63 L 66 62 L 65.5 64 L 63.5 63 L 60 65.5 L 59.5 67 L 58.5 66 L 54 70.5 L 54.5 72 Q 52.3 71.3 53 73.5 L 52.5 76 Q 49.5 75.1 51 79.5 L 51.5 81 L 50 81.5 L 50 88 L 52 88.5 L 51 89.5 L 51 96 L 53 96.5 L 52 101 L 54 101.5 L 53 107 L 55 107.5 L 52.5 109 L 51.5 107 L 50 107.5 L 49.5 106 L 47 107 Q 48.1 104.3 45.5 105 L 43 106 Q 44.3 103 40.5 104 L 36.5 105 L 33 104 Q 34.1 106.7 31.5 106 L 30 105.5 Q 30.8 107.8 28.5 107 Q 27.2 104.8 26 107.5 L 25.5 109 Q 24.3 106.8 23 109.5 L 19.5 114 L 17.5 115 L 17 110 L 15 109.5 L 16 105 L 14 104.5 L 15 100.5 L 14 99.5 L 14 93 Q 11.3 94.1 12 91.5 L 13 90.5 L 13 75.5 L 12.5 74 Q 15.5 74.9 14 70.5 L 15 67.5 L 14.5 66 Q 16.8 66.8 16 64.5 L 15.5 63 Q 17.8 63.8 17 61.5 L 16.5 60 Q 18.8 60.8 18 58.5 L 22 51.5 L 21.5 50 L 24 48.5 L 23.5 47 L 28 43.5 L 27 42.5 L 31.5 38 L 32.5 39 L 36 35.5 L 36.5 34 Q 37.8 36.3 39 33.5 L 39.5 32 L 41.5 32 L 49 29 L 49.5 27 L 52 28 L 52.5 26 L 55.5 27 L 60 26 L 60.5 24 L 64 25 L 64.5 23 L 70 24 L 70.5 22 L 76 23 Q 74.9 20.3 77.5 21 L 83 22 L 83.5 20 L 90 21 L 90.5 19 L 97 20 L 97.5 18 L 104 19 L 104.5 17 Z " /><path fill="rgb(227,226,219)" stroke="rgb(227,226,219)" stroke-width="1" opacity="1" d="M 138.5 11 L 145 11.5 L 138.5 12 L 138.5 11 Z " /><path fill="rgb(227,226,219)" stroke="rgb(227,226,219)" stroke-width="1" opacity="1" d="M 129.5 12 L 132 12.5 L 129.5 13 L 129.5 12 Z " /><path fill="rgb(227,226,219)" stroke="rgb(227,226,219)" stroke-width="1" opacity="1" d="M 150.5 12 L 153 12.5 L 150.5 13 L 150.5 12 Z " /><path fill="rgb(227,226,219)" stroke="rgb(227,226,219)" stroke-width="1" opacity="1" d="M 175.5 21 L 176.5 23 L 175.5 21 Z " /><path fill="rgb(227,226,219)" stroke="rgb(227,226,219)" stroke-width="1" opacity="1" d="M 179.5 24 L 180.5 26 L 179.5 24 Z " /><path fill="rgb(227,226,219)" stroke="rgb(227,226,219)" stroke-width="1" opacity="1" d="M 187.5 32 L 189.5 35 L 187.5 32 Z " /><path fill="rgb(227,226,219)" stroke="rgb(227,226,219)" stroke-width="1" opacity="1" d="M 141.5 51 L 145 51.5 L 141.5 52 L 141.5 51 Z " /><path fill="rgb(227,226,219)" stroke="rgb(227,226,219)" stroke-width="1" opacity="1" d="M 134.5 52 L 137 52.5 L 134.5 53 L 134.5 52 Z " /><path fill="rgb(227,226,219)" stroke="rgb(227,226,219)" stroke-width="1" opacity="1" d="M 121.5 54 L 124 54.5 L 121.5 55 L 121.5 54 Z " /><path fill="rgb(227,226,219)" stroke="rgb(227,226,219)" stroke-width="1" opacity="1" d="M 153.5 54 L 154.5 56 L 153.5 54 Z " /><path fill="rgb(227,226,219)" stroke="rgb(227,226,219)" stroke-width="1" opacity="1" d="M 57.5 68 L 56.5 70 L 57.5 68 Z " /><path fill="rgb(227,226,219)" stroke="rgb(227,226,219)" stroke-width="1" opacity="1" d="M 162.5 71 L 163 73.5 L 162 73.5 L 162.5 71 Z " /><path fill="rgb(227,226,219)" stroke="rgb(227,226,219)" stroke-width="1" opacity="1" d="M 203.5 72 L 204 74.5 L 203 74.5 L 203.5 72 Z " /><path fill="rgb(227,226,219)" stroke="rgb(227,226,219)" stroke-width="1" opacity="1" d="M 11.5 76 L 12 78.5 L 11 78.5 L 11.5 76 Z " /><path fill="rgb(227,226,219)" stroke="rgb(227,226,219)" stroke-width="1" opacity="1" d="M 163.5 77 L 164 79.5 L 163 79.5 L 163.5 77 Z " /><path fill="rgb(227,226,219)" stroke="rgb(227,226,219)" stroke-width="1" opacity="1" d="M 164.5 83 L 165 85.5 L 164 85.5 L 164.5 83 Z " /><path fill="rgb(227,226,219)" stroke="rgb(227,226,219)" stroke-width="1" opacity="1" d="M 11.5 85 L 12 88.5 L 11 88.5 L 11.5 85 Z " /><path fill="rgb(227,226,219)" stroke="rgb(227,226,219)" stroke-width="1" opacity="1" d="M 205.5 85 L 206 87.5 L 205 87.5 L 205.5 85 Z " /><path fill="rgb(227,226,219)" stroke="rgb(227,226,219)" stroke-width="1" opacity="1" d="M 165.5 89 L 166 91.5 L 165 91.5 L 165.5 89 Z " /><path fill="rgb(227,226,219)" stroke="rgb(227,226,219)" stroke-width="1" opacity="1" d="M 206.5 92 L 207 94.5 L 206 94.5 L 206.5 92 Z " /><path fill="rgb(227,226,219)" stroke="rgb(227,226,219)" stroke-width="1" opacity="1" d="M 207.5 98 L 208 101.5 L 207 101.5 L 207.5 98 Z " /><path fill="rgb(227,226,219)" stroke="rgb(227,226,219)" stroke-width="1" opacity="1" d="M 168.5 108 L 169 110.5 L 168 110.5 L 168.5 108 Z " /><path fill="rgb(227,226,219)" stroke="rgb(227,226,219)" stroke-width="1" opacity="1" d="M 209.5 112 L 210 114.5 L 209 114.5 L 209.5 112 Z " /><path fill="rgb(227,226,219)" stroke="rgb(227,226,219)" stroke-width="1" opacity="1" d="M 169.5 114 L 170 117.5 L 169 117.5 L 169.5 114 Z " /><path fill="rgb(227,226,219)" stroke="rgb(227,226,219)" stroke-width="1" opacity="1" d="M 210.5 117 L 211 119.5 L 210 119.5 L 210.5 117 Z " /><path fill="rgb(227,226,219)" stroke="rgb(227,226,219)" stroke-width="1" opacity="1" d="M 170.5 121 L 171 124.5 L 170 124.5 L 170.5 121 Z " /><path fill="rgb(227,226,219)" stroke="rgb(227,226,219)" stroke-width="1" opacity="1" d="M 17.5 123 L 18 125.5 L 17 125.5 L 17.5 123 Z " /><path fill="rgb(227,226,219)" stroke="rgb(227,226,219)" stroke-width="1" opacity="1" d="M 211.5 123 L 212 125.5 L 211 125.5 L 211.5 123 Z " /><path fill="rgb(227,226,219)" stroke="rgb(227,226,219)" stroke-width="1" opacity="1" d="M 171.5 128 L 172 130.5 L 171 130.5 L 171.5 128 Z " /><path fill="rgb(227,226,219)" stroke="rgb(227,226,219)" stroke-width="1" opacity="1" d="M 212.5 129 L 213 132.5 L 212 132.5 L 212.5 129 Z " /><path fill="rgb(227,226,219)" stroke="rgb(227,226,219)" stroke-width="1" opacity="1" d="M 172.5 134 L 173 137.5 L 172 137.5 L 172.5 134 Z " /><path fill="rgb(227,226,219)" stroke="rgb(227,226,219)" stroke-width="1" opacity="1" d="M 213.5 137 L 214 146.5 L 213 146.5 L 213.5 137 Z " /><path fill="rgb(227,226,219)" stroke="rgb(227,226,219)" stroke-width="1" opacity="1" d="M 19.5 138 L 20 140.5 L 19 140.5 L 19.5 138 Z " /><path fill="rgb(227,226,219)" stroke="rgb(227,226,219)" stroke-width="1" opacity="1" d="M 173.5 141 L 174 145.5 L 173 145.5 L 173.5 141 Z " /><path fill="rgb(227,226,219)" stroke="rgb(227,226,219)" stroke-width="1" opacity="1" d="M 212.5 150 L 213 152.5 L 212 152.5 L 212.5 150 Z " /><path fill="rgb(227,226,219)" stroke="rgb(227,226,219)" stroke-width="1" opacity="1" d="M 170.5 153 L 169.5 155 L 170.5 153 Z " /><path fill="rgb(227,226,219)" stroke="rgb(227,226,219)" stroke-width="1" opacity="1" d="M 157.5 161 L 160 161.5 L 157.5 162 L 157.5 161 Z " /><path fill="rgb(227,226,219)" stroke="rgb(227,226,219)" stroke-width="1" opacity="1" d="M 151.5 162 L 154 162.5 L 151.5 163 L 151.5 162 Z " /><path fill="rgb(227,226,219)" stroke="rgb(227,226,219)" stroke-width="1" opacity="1" d="M 144.5 163 L 148 163.5 L 144.5 164 L 144.5 163 Z " /><path fill="rgb(227,226,219)" stroke="rgb(227,226,219)" stroke-width="1" opacity="1" d="M 138.5 164 L 142 164.5 L 138.5 165 L 138.5 164 Z " /><path fill="rgb(227,226,219)" stroke="rgb(227,226,219)" stroke-width="1" opacity="1" d="M 66.5 165 L 67.5 167 L 66.5 165 Z " /><path fill="rgb(227,226,219)" stroke="rgb(227,226,219)" stroke-width="1" opacity="1" d="M 132.5 165 L 135 165.5 L 132.5 166 L 132.5 165 Z " /><path fill="rgb(227,226,219)" stroke="rgb(227,226,219)" stroke-width="1" opacity="1" d="M 125.5 166 L 129 166.5 L 125.5 167 L 125.5 166 Z " /><path fill="rgb(227,226,219)" stroke="rgb(227,226,219)" stroke-width="1" opacity="1" d="M 119.5 167 L 123 167.5 L 119.5 168 L 119.5 167 Z " /><path fill="rgb(227,226,219)" stroke="rgb(227,226,219)" stroke-width="1" opacity="1" d="M 69.5 168 L 70.5 170 L 69.5 168 Z " /><path fill="rgb(227,226,219)" stroke="rgb(227,226,219)" stroke-width="1" opacity="1" d="M 113.5 168 L 116 168.5 L 113.5 169 L 113.5 168 Z " /><path fill="rgb(227,226,219)" stroke="rgb(227,226,219)" stroke-width="1" opacity="1" d="M 93.5 171 L 96 171.5 L 93.5 172 L 93.5 171 Z " /><path fill="rgb(227,226,219)" stroke="rgb(227,226,219)" stroke-width="1" opacity="1" d="M 203.5 175 L 202.5 177 L 203.5 175 Z " /><path fill="rgb(227,226,219)" stroke="rgb(227,226,219)" stroke-width="1" opacity="1" d="M 200.5 179 L 199.5 181 L 200.5 179 Z " /><path fill="rgb(227,226,219)" stroke="rgb(227,226,219)" stroke-width="1" opacity="1" d="M 192.5 187 L 190.5 190 L 192.5 187 Z " /><path fill="rgb(227,226,219)" stroke="rgb(227,226,219)" stroke-width="1" opacity="1" d="M 35.5 190 L 36.5 192 L 35.5 190 Z " /><path fill="rgb(227,226,219)" stroke="rgb(227,226,219)" stroke-width="1" opacity="1" d="M 187.5 191 L 186.5 193 L 187.5 191 Z " /><path fill="rgb(227,226,219)" stroke="rgb(227,226,219)" stroke-width="1" opacity="1" d="M 45.5 200 L 46.5 202 L 45.5 200 Z " /><path fill="rgb(227,226,219)" stroke="rgb(227,226,219)" stroke-width="1" opacity="1" d="M 162.5 201 L 165 201.5 L 162.5 202 L 162.5 201 Z " /><path fill="rgb(227,226,219)" stroke="rgb(227,226,219)" stroke-width="1" opacity="1" d="M 158.5 202 L 161 202.5 L 158.5 203 L 158.5 202 Z " /><path fill="rgb(227,226,219)" stroke="rgb(227,226,219)" stroke-width="1" opacity="1" d="M 152.5 203 L 155 203.5 L 152.5 204 L 152.5 203 Z " /><path fill="rgb(227,226,219)" stroke="rgb(227,226,219)" stroke-width="1" opacity="1" d="M 146.5 204 L 149 204.5 L 146.5 205 L 146.5 204 Z " /><path fill="rgb(227,226,219)" stroke="rgb(227,226,219)" stroke-width="1" opacity="1" d="M 138.5 205 L 142 205.5 L 138.5 206 L 138.5 205 Z " /><path fill="rgb(227,226,219)" stroke="rgb(227,226,219)" stroke-width="1" opacity="1" d="M 130.5 206 L 134 206.5 L 130.5 207 L 130.5 206 Z " /><path fill="rgb(227,226,219)" stroke="rgb(227,226,219)" stroke-width="1" opacity="1" d="M 122.5 207 L 127 207.5 L 122.5 208 L 122.5 207 Z " /><path fill="rgb(227,226,219)" stroke="rgb(227,226,219)" stroke-width="1" opacity="1" d="M 75.5 212 L 78 212.5 L 75.5 213 L 75.5 212 Z " /><path fill="rgb(227,226,219)" stroke="rgb(227,226,219)" stroke-width="1" opacity="1" d="M 90.5 212 L 93 212.5 L 90.5 213 L 90.5 212 Z " /><path fill="rgb(255,255,255)" stroke="rgb(255,255,255)" stroke-width="1" opacity="1" d="M 0 0 L 225 0 L 225 225 L 0 225 L 0 0 Z M 139 11 L 138 12 L 130 12 L 129 13 L 118 14 L 107 17 L 86 19 L 58 24 Q 44 28 35 35 Q 16 49 11 77 L 12 97 L 17 119 L 19 141 L 23 164 Q 26 180 35 191 Q 43 201 55 207 L 65 211 L 76 213 L 93 213 L 120 208 L 127 208 L 128 207 L 161 203 L 175 199 L 191 190 L 204 176 L 209 166 L 214 147 L 213 130 L 208 106 L 208 99 L 206 92 L 206 86 L 202 63 L 197 47 L 190 35 Q 175 12 139 11 Z " /><path fill="rgb(255,255,255)" stroke="rgb(255,255,255)" stroke-width="1" opacity="1" d="M 137.5 52 L 147.5 52 L 158 58.5 L 162 68.5 L 163 79.5 L 168 104.5 L 170 124.5 L 172 131.5 L 172 137.5 L 173 138.5 L 173 147.5 L 166.5 158 L 156.5 162 L 125.5 166 L 106.5 170 L 93.5 171 L 86.5 173 L 77.5 173 L 68 168 L 63 156.5 L 63 151.5 L 52 90.5 L 52 78.5 Q 53.9 70.8 59.5 67 L 68.5 63 L 79.5 62 L 104.5 57 L 110.5 57 L 117.5 55 L 123.5 55 L 130.5 53 L 136.5 53 L 137.5 52 Z " /><path fill="rgb(234,148,120)" stroke="rgb(234,148,120)" stroke-width="1" opacity="1" d="M 101.5 17 L 104 17.5 L 101.5 18 L 101.5 17 Z " /><path fill="rgb(234,148,120)" stroke="rgb(234,148,120)" stroke-width="1" opacity="1" d="M 94.5 18 L 97 18.5 L 94.5 19 L 94.5 18 Z " /><path fill="rgb(234,148,120)" stroke="rgb(234,148,120)" stroke-width="1" opacity="1" d="M 87.5 19 L 90 19.5 L 87.5 20 L 87.5 19 Z " /><path fill="rgb(234,148,120)" stroke="rgb(234,148,120)" stroke-width="1" opacity="1" d="M 33.5 36 L 32.5 38 L 33.5 36 Z " /><path fill="rgb(234,148,120)" stroke="rgb(234,148,120)" stroke-width="1" opacity="1" d="M 26.5 43 L 24.5 46 L 26.5 43 Z " /><path fill="rgb(234,148,120)" stroke="rgb(234,148,120)" stroke-width="1" opacity="1" d="M 100.5 57 L 103 57.5 L 100.5 58 L 100.5 57 Z " /><path fill="rgb(234,148,120)" stroke="rgb(234,148,120)" stroke-width="1" opacity="1" d="M 11.5 79 L 12 84.5 L 11 84.5 L 11.5 79 Z " /><path fill="rgb(234,148,120)" stroke="rgb(234,148,120)" stroke-width="1" opacity="1" d="M 51.5 81 L 52 87.5 L 51 87.5 L 51.5 81 Z " /><path fill="rgb(234,148,120)" stroke="rgb(234,148,120)" stroke-width="1" opacity="1" d="M 52.5 93 L 53 95.5 L 52 95.5 L 52.5 93 Z " /><path fill="rgb(234,148,120)" stroke="rgb(234,148,120)" stroke-width="1" opacity="1" d="M 13.5 99 L 14 101.5 L 13 101.5 L 13.5 99 Z " /><path fill="rgb(234,148,120)" stroke="rgb(234,148,120)" stroke-width="1" opacity="1" d="M 114.5 169 L 110.5 174 L 114.5 169 Z " /><path fill="rgb(234,148,120)" stroke="rgb(234,148,120)" stroke-width="1" opacity="1" d="M 79.5 173 L 84 173.5 L 79.5 174 L 79.5 173 Z " /><path fill="rgb(234,148,120)" stroke="rgb(234,148,120)" stroke-width="1" opacity="1" d="M 114.5 204 L 115.5 206 L 114.5 204 Z " /><path fill="rgb(234,148,120)" stroke="rgb(234,148,120)" stroke-width="1" opacity="1" d="M 78.5 212 L 83 212.5 L 78.5 213 L 78.5 212 Z " /><path fill="rgb(234,148,120)" stroke="rgb(234,148,120)" stroke-width="1" opacity="1" d="M 85.5 212 L 90 212.5 L 85.5 213 L 85.5 212 Z " /><path fill="rgb(31,115,171)" stroke="rgb(31,115,171)" stroke-width="1" opacity="1" d="M 104.5 186 L 105 189.5 L 104 189.5 L 104.5 186 Z " /><path fill="rgb(249,178,29)" stroke="rgb(249,178,29)" stroke-width="1" opacity="1" d="M 33.5 105 Q 48 104 55 110.5 L 63 159.5 Q 65.6 166.9 71.5 171 Q 75.8 174.2 83.5 174 L 84.5 173 L 113.5 169 L 110 173.5 Q 103.5 179 104 191.5 Q 107.6 200.9 115.5 206 L 118 207.5 L 109.5 210 L 83.5 213 L 82.5 212 L 72.5 212 L 60.5 209 Q 46.9 203.6 38 193.5 L 32 185.5 L 24 165.5 L 17 117.5 L 24.5 109 L 33.5 105 Z " /><path fill="rgb(35,109,180)" stroke="rgb(35,109,180)" stroke-width="1" opacity="1" d="M 206.5 114 L 205.5 116 L 206.5 114 Z " /><path fill="rgb(35,109,180)" stroke="rgb(35,109,180)" stroke-width="1" opacity="1" d="M 176.5 118 L 180 119.5 L 178.5 120 L 176.5 118 Z " /><path fill="rgb(35,109,180)" stroke="rgb(35,109,180)" stroke-width="1" opacity="1" d="M 194.5 119 L 197 119.5 L 194.5 120 L 194.5 119 Z " /><path fill="rgb(35,109,180)" stroke="rgb(35,109,180)" stroke-width="1" opacity="1" d="M 190.5 120 L 193 120.5 L 190.5 121 L 190.5 120 Z " /><path fill="rgb(35,109,180)" stroke="rgb(35,109,180)" stroke-width="1" opacity="1" d="M 212.5 133 L 213 135.5 L 212 135.5 L 212.5 133 Z " /><path fill="rgb(35,109,180)" stroke="rgb(35,109,180)" stroke-width="1" opacity="1" d="M 169.5 155 L 167.5 158 L 169.5 155 Z " /><path fill="rgb(35,109,180)" stroke="rgb(35,109,180)" stroke-width="1" opacity="1" d="M 198.5 181 L 193.5 187 L 198.5 181 Z " /><path fill="rgb(35,109,180)" stroke="rgb(35,109,180)" stroke-width="1" opacity="1" d="M 111.5 201 L 112.5 203 L 111.5 201 Z " /><path fill="rgb(34,109,180)" stroke="rgb(34,109,180)" stroke-width="1" opacity="1" d="M 208.5 113 L 212 128.5 L 213 147.5 L 211 157.5 L 205 172.5 L 189.5 190 Q 180.8 196.8 168.5 200 L 150.5 204 L 121.5 207 L 120.5 208 L 118 207 L 117.5 205 L 116.5 206 L 111.5 201 Q 109.3 201.8 110 199.5 Q 103.1 195.9 105 183.5 Q 108.1 181.8 106.5 180 L 108 179.5 L 107 178.5 L 110 175.5 L 115.5 169 L 160.5 162 L 170 155.5 Q 174.7 150.7 174 140.5 L 173 139.5 L 173 132.5 L 172 131.5 L 170 114.5 L 171 114.5 L 171 116 L 174 116 Q 172.9 118.7 175.5 118 L 183.5 121 Q 184.8 118.7 189.5 120 L 192.5 121 L 202 118 L 202.5 116 L 204 116.5 L 204.5 115 L 205.5 116 L 208.5 113 Z " /></svg>